G04 start of page 3 for group 1 idx 1 *
G04 Title: (unknown), bottom *
G04 Creator: pcb 4.0.2 *
G04 CreationDate: Thu Oct 28 15:11:31 2021 UTC *
G04 For: ndholmes *
G04 Format: Gerber/RS-274X *
G04 PCB-Dimensions (mil): 2000.00 1500.00 *
G04 PCB-Coordinate-Origin: lower left *
%MOIN*%
%FSLAX25Y25*%
%LNBOTTOM*%
%ADD43C,0.0380*%
%ADD42C,0.0600*%
%ADD41C,0.0390*%
%ADD40C,0.1285*%
%ADD39C,0.0480*%
%ADD38C,0.0120*%
%ADD37C,0.0260*%
%ADD36C,0.0680*%
%ADD35C,0.0800*%
%ADD34C,0.1200*%
%ADD33C,0.2937*%
%ADD32C,0.0250*%
%ADD31C,0.0200*%
%ADD30C,0.0100*%
%ADD29C,0.0001*%
G54D29*G36*
X168496Y10335D02*X169772Y8253D01*
X171376Y6376D01*
X173253Y4772D01*
X175358Y3482D01*
X177638Y2538D01*
X180039Y1961D01*
X182500Y1768D01*
X184961Y1961D01*
X187362Y2538D01*
X189642Y3482D01*
X191747Y4772D01*
X193624Y6376D01*
X195228Y8253D01*
X196518Y10358D01*
X197462Y12638D01*
X197500Y12795D01*
Y1500D01*
X168496D01*
Y10335D01*
G37*
G36*
Y148500D02*X177795D01*
X177638Y148462D01*
X175358Y147518D01*
X173253Y146228D01*
X171376Y144624D01*
X169772Y142747D01*
X168496Y140665D01*
Y148500D01*
G37*
G36*
Y27375D02*X169519Y28398D01*
X169564Y28436D01*
X169717Y28615D01*
X169717Y28616D01*
X169841Y28817D01*
X169931Y29035D01*
X169986Y29265D01*
X170005Y29500D01*
X170000Y29559D01*
Y34379D01*
X178519Y42898D01*
X178564Y42936D01*
X178717Y43115D01*
X178717Y43116D01*
X178841Y43317D01*
X178931Y43535D01*
X178986Y43765D01*
X179005Y44000D01*
X179000Y44059D01*
Y47256D01*
X179131Y47369D01*
X179366Y47644D01*
X179556Y47953D01*
X179694Y48287D01*
X179779Y48639D01*
X179800Y49000D01*
X179779Y49361D01*
X179694Y49713D01*
X179556Y50047D01*
X179366Y50356D01*
X179131Y50631D01*
X178856Y50866D01*
X178547Y51056D01*
X178213Y51194D01*
X177861Y51279D01*
X177500Y51307D01*
X177139Y51279D01*
X176787Y51194D01*
X176453Y51056D01*
X176144Y50866D01*
X175869Y50631D01*
X175634Y50356D01*
X175444Y50047D01*
X175306Y49713D01*
X175221Y49361D01*
X175193Y49000D01*
X175221Y48639D01*
X175306Y48287D01*
X175444Y47953D01*
X175634Y47644D01*
X175869Y47369D01*
X176000Y47256D01*
Y44621D01*
X168496Y37118D01*
Y41693D01*
X168500Y41693D01*
X168861Y41721D01*
X169213Y41806D01*
X169547Y41944D01*
X169856Y42134D01*
X170131Y42369D01*
X170366Y42644D01*
X170556Y42953D01*
X170694Y43287D01*
X170779Y43639D01*
X170800Y44000D01*
X170779Y44361D01*
X170694Y44713D01*
X170556Y45047D01*
X170366Y45356D01*
X170131Y45631D01*
X170000Y45744D01*
Y79756D01*
X170131Y79869D01*
X170366Y80144D01*
X170556Y80453D01*
X170694Y80787D01*
X170779Y81139D01*
X170800Y81500D01*
X170779Y81861D01*
X170694Y82213D01*
X170556Y82547D01*
X170366Y82856D01*
X170131Y83131D01*
X169856Y83366D01*
X169547Y83556D01*
X169213Y83694D01*
X168861Y83779D01*
X168500Y83807D01*
X168496Y83807D01*
Y88375D01*
X176828Y96706D01*
X177000Y96693D01*
X177361Y96721D01*
X177713Y96806D01*
X178047Y96944D01*
X178356Y97134D01*
X178631Y97369D01*
X178866Y97644D01*
X179056Y97953D01*
X179194Y98287D01*
X179279Y98639D01*
X179300Y99000D01*
X179279Y99361D01*
X179194Y99713D01*
X179056Y100047D01*
X178866Y100356D01*
X178631Y100631D01*
X178356Y100866D01*
X178047Y101056D01*
X177713Y101194D01*
X177361Y101279D01*
X177000Y101307D01*
X176639Y101279D01*
X176287Y101194D01*
X175953Y101056D01*
X175644Y100866D01*
X175369Y100631D01*
X175134Y100356D01*
X174944Y100047D01*
X174806Y99713D01*
X174721Y99361D01*
X174693Y99000D01*
X174706Y98828D01*
X168496Y92618D01*
Y126335D01*
X169772Y124253D01*
X171376Y122376D01*
X173253Y120772D01*
X175358Y119482D01*
X177638Y118538D01*
X180039Y117961D01*
X182500Y117768D01*
X184961Y117961D01*
X187362Y118538D01*
X189642Y119482D01*
X191747Y120772D01*
X193624Y122376D01*
X195228Y124253D01*
X196518Y126358D01*
X197462Y128638D01*
X197500Y128795D01*
Y22205D01*
X197462Y22362D01*
X196518Y24642D01*
X195228Y26747D01*
X193624Y28624D01*
X191747Y30228D01*
X189642Y31518D01*
X187362Y32462D01*
X184961Y33039D01*
X182500Y33232D01*
X180039Y33039D01*
X177638Y32462D01*
X175358Y31518D01*
X173253Y30228D01*
X171376Y28624D01*
X169772Y26747D01*
X168496Y24665D01*
Y27375D01*
G37*
G36*
Y92618D02*X163000Y87121D01*
Y148500D01*
X168496D01*
Y140665D01*
X168482Y140642D01*
X167538Y138362D01*
X166961Y135961D01*
X166768Y133500D01*
X166961Y131039D01*
X167538Y128638D01*
X168482Y126358D01*
X168496Y126335D01*
Y92618D01*
G37*
G36*
Y37118D02*X167481Y36102D01*
X167436Y36064D01*
X167283Y35884D01*
X167159Y35683D01*
X167069Y35465D01*
X167014Y35235D01*
X167014Y35235D01*
X166995Y35000D01*
X167000Y34941D01*
Y30121D01*
X163000Y26121D01*
Y27379D01*
X163519Y27898D01*
X163564Y27936D01*
X163717Y28115D01*
X163717Y28116D01*
X163841Y28317D01*
X163931Y28535D01*
X163986Y28765D01*
X164005Y29000D01*
X164000Y29059D01*
Y46941D01*
X164005Y47000D01*
X163986Y47235D01*
X163931Y47465D01*
X163841Y47683D01*
X163717Y47884D01*
X163564Y48064D01*
X163519Y48102D01*
X163000Y48621D01*
Y82881D01*
X163064Y82936D01*
X163102Y82981D01*
X168496Y88375D01*
Y83807D01*
X168139Y83779D01*
X167787Y83694D01*
X167453Y83556D01*
X167144Y83366D01*
X166869Y83131D01*
X166634Y82856D01*
X166444Y82547D01*
X166306Y82213D01*
X166221Y81861D01*
X166193Y81500D01*
X166221Y81139D01*
X166306Y80787D01*
X166444Y80453D01*
X166634Y80144D01*
X166869Y79869D01*
X167000Y79756D01*
Y45744D01*
X166869Y45631D01*
X166634Y45356D01*
X166444Y45047D01*
X166306Y44713D01*
X166221Y44361D01*
X166193Y44000D01*
X166221Y43639D01*
X166306Y43287D01*
X166444Y42953D01*
X166634Y42644D01*
X166869Y42369D01*
X167144Y42134D01*
X167453Y41944D01*
X167787Y41806D01*
X168139Y41721D01*
X168496Y41693D01*
Y37118D01*
G37*
G36*
X163000Y1500D02*Y15193D01*
X163361Y15221D01*
X163713Y15306D01*
X164047Y15444D01*
X164356Y15634D01*
X164631Y15869D01*
X164866Y16144D01*
X165056Y16453D01*
X165194Y16787D01*
X165279Y17139D01*
X165300Y17500D01*
X165279Y17861D01*
X165194Y18213D01*
X165056Y18547D01*
X164866Y18856D01*
X164631Y19131D01*
X164500Y19244D01*
Y23379D01*
X168496Y27375D01*
Y24665D01*
X168482Y24642D01*
X167538Y22362D01*
X166961Y19961D01*
X166768Y17500D01*
X166961Y15039D01*
X167538Y12638D01*
X168482Y10358D01*
X168496Y10335D01*
Y1500D01*
X163000D01*
G37*
G36*
X114495Y81927D02*X114787Y81806D01*
X115139Y81721D01*
X115500Y81693D01*
X115861Y81721D01*
X116213Y81806D01*
X116547Y81944D01*
X116856Y82134D01*
X117131Y82369D01*
X117244Y82500D01*
X119000D01*
Y35500D01*
X117450D01*
X117423Y35963D01*
X117314Y36414D01*
X117137Y36843D01*
X116894Y37239D01*
X116592Y37592D01*
X116239Y37894D01*
X115843Y38137D01*
X115414Y38314D01*
X114963Y38423D01*
X114500Y38459D01*
X114495Y38459D01*
Y40541D01*
X114500Y40541D01*
X114963Y40577D01*
X115414Y40686D01*
X115843Y40863D01*
X116239Y41106D01*
X116592Y41408D01*
X116894Y41761D01*
X117137Y42157D01*
X117314Y42586D01*
X117423Y43037D01*
X117450Y43500D01*
X117423Y43963D01*
X117314Y44414D01*
X117137Y44843D01*
X116894Y45239D01*
X116592Y45592D01*
X116239Y45894D01*
X115843Y46137D01*
X115414Y46314D01*
X114963Y46423D01*
X114500Y46459D01*
X114495Y46459D01*
Y81927D01*
G37*
G36*
Y148500D02*X119000D01*
Y85500D01*
X117244D01*
X117131Y85631D01*
X116856Y85866D01*
X116547Y86056D01*
X116213Y86194D01*
X115861Y86279D01*
X115500Y86307D01*
X115139Y86279D01*
X114787Y86194D01*
X114495Y86073D01*
Y107082D01*
X114683Y107159D01*
X114884Y107283D01*
X115064Y107436D01*
X115217Y107616D01*
X115341Y107817D01*
X115431Y108035D01*
X115486Y108265D01*
X115500Y108500D01*
X115486Y116735D01*
X115431Y116965D01*
X115341Y117183D01*
X115217Y117384D01*
X115064Y117564D01*
X114884Y117717D01*
X114683Y117841D01*
X114495Y117918D01*
Y148500D01*
G37*
G36*
Y86073D02*X114453Y86056D01*
X114144Y85866D01*
X113869Y85631D01*
X113634Y85356D01*
X113444Y85047D01*
X113306Y84713D01*
X113221Y84361D01*
X113193Y84000D01*
X113221Y83639D01*
X113306Y83287D01*
X113444Y82953D01*
X113634Y82644D01*
X113869Y82369D01*
X114144Y82134D01*
X114453Y81944D01*
X114495Y81927D01*
Y46459D01*
X114037Y46423D01*
X113586Y46314D01*
X113157Y46137D01*
X112761Y45894D01*
X112408Y45592D01*
X112106Y45239D01*
X111863Y44843D01*
X111686Y44414D01*
X111577Y43963D01*
X111541Y43500D01*
X111577Y43037D01*
X111686Y42586D01*
X111863Y42157D01*
X112106Y41761D01*
X112408Y41408D01*
X112761Y41106D01*
X113157Y40863D01*
X113586Y40686D01*
X114037Y40577D01*
X114495Y40541D01*
Y38459D01*
X114037Y38423D01*
X113586Y38314D01*
X113157Y38137D01*
X112761Y37894D01*
X112408Y37592D01*
X112106Y37239D01*
X111863Y36843D01*
X111686Y36414D01*
X111577Y35963D01*
X111541Y35500D01*
X110000D01*
Y49379D01*
X110019Y49398D01*
X110064Y49436D01*
X110217Y49615D01*
X110217Y49616D01*
X110341Y49817D01*
X110431Y50035D01*
X110486Y50265D01*
X110505Y50500D01*
X110500Y50559D01*
Y50756D01*
X110631Y50869D01*
X110866Y51144D01*
X111056Y51453D01*
X111194Y51787D01*
X111279Y52139D01*
X111300Y52500D01*
X111279Y52861D01*
X111194Y53213D01*
X111056Y53547D01*
X110866Y53856D01*
X110631Y54131D01*
X110356Y54366D01*
X110047Y54556D01*
X110000Y54575D01*
Y107007D01*
X114235Y107014D01*
X114465Y107069D01*
X114495Y107082D01*
Y86073D01*
G37*
G36*
X110000Y148500D02*X114495D01*
Y117918D01*
X114465Y117931D01*
X114235Y117986D01*
X114000Y118000D01*
X110000Y117993D01*
Y148500D01*
G37*
G36*
Y35500D02*X108500D01*
Y47879D01*
X110000Y49379D01*
Y35500D01*
G37*
G36*
X94495Y148500D02*X110000D01*
Y117993D01*
X105765Y117986D01*
X105535Y117931D01*
X105317Y117841D01*
X105116Y117717D01*
X104936Y117564D01*
X104783Y117384D01*
X104659Y117183D01*
X104569Y116965D01*
X104514Y116735D01*
X104500Y116500D01*
X104514Y108265D01*
X104569Y108035D01*
X104659Y107817D01*
X104783Y107616D01*
X104936Y107436D01*
X105116Y107283D01*
X105317Y107159D01*
X105535Y107069D01*
X105765Y107014D01*
X106000Y107000D01*
X110000Y107007D01*
Y54575D01*
X109713Y54694D01*
X109361Y54779D01*
X109000Y54807D01*
X108639Y54779D01*
X108287Y54694D01*
X107953Y54556D01*
X107644Y54366D01*
X107369Y54131D01*
X107134Y53856D01*
X106944Y53547D01*
X106806Y53213D01*
X106721Y52861D01*
X106693Y52500D01*
X106721Y52139D01*
X106806Y51787D01*
X106944Y51453D01*
X107134Y51144D01*
X107313Y50934D01*
X105981Y49602D01*
X105936Y49564D01*
X105783Y49384D01*
X105659Y49183D01*
X105569Y48965D01*
X105514Y48735D01*
X105514Y48735D01*
X105495Y48500D01*
X105500Y48441D01*
Y46621D01*
X104102Y48019D01*
X104064Y48064D01*
X103884Y48217D01*
X103683Y48341D01*
X103465Y48431D01*
X103235Y48486D01*
X103000Y48505D01*
X102941Y48500D01*
X101744D01*
X101631Y48631D01*
X101356Y48866D01*
X101047Y49056D01*
X100713Y49194D01*
X100361Y49279D01*
X100000Y49307D01*
X99639Y49279D01*
X99287Y49194D01*
X98953Y49056D01*
X98644Y48866D01*
X98369Y48631D01*
X98134Y48356D01*
X97944Y48047D01*
X97806Y47713D01*
X97721Y47361D01*
X97693Y47000D01*
X97721Y46639D01*
X97806Y46287D01*
X97944Y45953D01*
X98134Y45644D01*
X98369Y45369D01*
X98644Y45134D01*
X98953Y44944D01*
X99287Y44806D01*
X99639Y44721D01*
X100000Y44693D01*
X100361Y44721D01*
X100713Y44806D01*
X101047Y44944D01*
X101356Y45134D01*
X101631Y45369D01*
X101744Y45500D01*
X102379D01*
X103000Y44879D01*
Y35500D01*
X94495D01*
Y36541D01*
X94500Y36541D01*
X94963Y36577D01*
X95414Y36686D01*
X95843Y36863D01*
X96239Y37106D01*
X96592Y37408D01*
X96894Y37761D01*
X97137Y38157D01*
X97314Y38586D01*
X97423Y39037D01*
X97450Y39500D01*
X97423Y39963D01*
X97314Y40414D01*
X97137Y40843D01*
X96894Y41239D01*
X96592Y41592D01*
X96239Y41894D01*
X95843Y42137D01*
X95414Y42314D01*
X94963Y42423D01*
X94500Y42459D01*
X94495Y42459D01*
Y148500D01*
G37*
G36*
X77500Y35500D02*Y80323D01*
X77615Y80135D01*
X78545Y79045D01*
X79635Y78115D01*
X80856Y77367D01*
X82179Y76819D01*
X83572Y76484D01*
X85000Y76372D01*
X86428Y76484D01*
X87821Y76819D01*
X89144Y77367D01*
X90365Y78115D01*
X91455Y79045D01*
X92385Y80135D01*
X93133Y81356D01*
X93681Y82679D01*
X94016Y84072D01*
X94100Y85500D01*
X94016Y86928D01*
X93681Y88321D01*
X93133Y89644D01*
X92385Y90865D01*
X91455Y91955D01*
X90365Y92885D01*
X89144Y93633D01*
X87821Y94181D01*
X86428Y94516D01*
X85000Y94628D01*
X83572Y94516D01*
X82179Y94181D01*
X80856Y93633D01*
X79635Y92885D01*
X78545Y91955D01*
X77615Y90865D01*
X77500Y90677D01*
Y134323D01*
X77615Y134135D01*
X78545Y133045D01*
X79635Y132115D01*
X80856Y131367D01*
X82179Y130819D01*
X83572Y130484D01*
X85000Y130372D01*
X86428Y130484D01*
X87821Y130819D01*
X89144Y131367D01*
X90365Y132115D01*
X91455Y133045D01*
X92385Y134135D01*
X93133Y135356D01*
X93681Y136679D01*
X94016Y138072D01*
X94100Y139500D01*
X94016Y140928D01*
X93681Y142321D01*
X93133Y143644D01*
X92385Y144865D01*
X91455Y145955D01*
X90365Y146885D01*
X89144Y147633D01*
X87821Y148181D01*
X86493Y148500D01*
X94495D01*
Y42459D01*
X94037Y42423D01*
X93586Y42314D01*
X93157Y42137D01*
X92761Y41894D01*
X92408Y41592D01*
X92106Y41239D01*
X91863Y40843D01*
X91686Y40414D01*
X91577Y39963D01*
X91541Y39500D01*
X91577Y39037D01*
X91686Y38586D01*
X91863Y38157D01*
X92106Y37761D01*
X92408Y37408D01*
X92761Y37106D01*
X93157Y36863D01*
X93586Y36686D01*
X94037Y36577D01*
X94495Y36541D01*
Y35500D01*
X77500D01*
G37*
G36*
X63842Y67619D02*X63865Y67614D01*
X64100Y67600D01*
X71135Y67614D01*
X71365Y67669D01*
X71583Y67759D01*
X71784Y67883D01*
X71964Y68036D01*
X72117Y68216D01*
X72241Y68417D01*
X72331Y68635D01*
X72386Y68865D01*
X72400Y69100D01*
X72386Y76135D01*
X72331Y76365D01*
X72241Y76583D01*
X72117Y76784D01*
X71964Y76964D01*
X71784Y77117D01*
X71583Y77241D01*
X71365Y77331D01*
X71135Y77386D01*
X70900Y77400D01*
X69750Y77398D01*
Y83912D01*
X69757Y84000D01*
X69729Y84353D01*
X69646Y84697D01*
X69607Y84793D01*
X69511Y85025D01*
X69396Y85212D01*
X69326Y85327D01*
X69326Y85327D01*
X69096Y85596D01*
X69029Y85653D01*
X66153Y88529D01*
X66096Y88596D01*
X65827Y88826D01*
X65827Y88826D01*
X65712Y88896D01*
X65525Y89011D01*
X65293Y89107D01*
X65197Y89146D01*
X64853Y89229D01*
X64500Y89257D01*
X64412Y89250D01*
X63842D01*
Y108549D01*
X63901Y108599D01*
X64463Y109257D01*
X64916Y109995D01*
X65247Y110795D01*
X65449Y111637D01*
X65500Y112500D01*
X65449Y113363D01*
X65247Y114205D01*
X64916Y115005D01*
X64463Y115743D01*
X63901Y116401D01*
X63842Y116451D01*
Y148500D01*
X81000D01*
Y147693D01*
X80856Y147633D01*
X79635Y146885D01*
X78545Y145955D01*
X77615Y144865D01*
X76867Y143644D01*
X76319Y142321D01*
X75984Y140928D01*
X75872Y139500D01*
X75984Y138072D01*
X76319Y136679D01*
X76867Y135356D01*
X77615Y134135D01*
X78545Y133045D01*
X79635Y132115D01*
X80856Y131367D01*
X81000Y131307D01*
Y93693D01*
X80856Y93633D01*
X79635Y92885D01*
X78545Y91955D01*
X77615Y90865D01*
X76867Y89644D01*
X76319Y88321D01*
X75984Y86928D01*
X75872Y85500D01*
X75984Y84072D01*
X76319Y82679D01*
X76867Y81356D01*
X77615Y80135D01*
X78545Y79045D01*
X79635Y78115D01*
X80856Y77367D01*
X81000Y77307D01*
Y1500D01*
X63842D01*
Y24012D01*
X63953Y23944D01*
X64287Y23806D01*
X64639Y23721D01*
X65000Y23693D01*
X65361Y23721D01*
X65480Y23750D01*
X73412D01*
X73500Y23743D01*
X73853Y23771D01*
X73853Y23771D01*
X74197Y23854D01*
X74525Y23989D01*
X74827Y24174D01*
X75096Y24404D01*
X75153Y24471D01*
X76029Y25347D01*
X76096Y25404D01*
X76326Y25673D01*
X76326Y25673D01*
X76511Y25975D01*
X76646Y26303D01*
X76729Y26647D01*
X76757Y27000D01*
X76750Y27088D01*
Y28696D01*
X76824Y28816D01*
X76980Y29194D01*
X77076Y29592D01*
X77100Y30000D01*
X77076Y30408D01*
X76980Y30806D01*
X76824Y31184D01*
X76610Y31533D01*
X76344Y31844D01*
X76033Y32110D01*
X75684Y32324D01*
X75306Y32480D01*
X74908Y32576D01*
X74500Y32608D01*
X74092Y32576D01*
X73694Y32480D01*
X73316Y32324D01*
X72967Y32110D01*
X72656Y31844D01*
X72390Y31533D01*
X72254Y31310D01*
X72355Y31731D01*
X72400Y32500D01*
X72355Y33269D01*
X72175Y34019D01*
X71879Y34731D01*
X71476Y35389D01*
X70976Y35976D01*
X70389Y36476D01*
X69731Y36879D01*
X69019Y37175D01*
X68269Y37355D01*
X67500Y37415D01*
X66731Y37355D01*
X65981Y37175D01*
X65269Y36879D01*
X64611Y36476D01*
X64024Y35976D01*
X63842Y35762D01*
Y67619D01*
G37*
G36*
Y84476D02*X65250Y83068D01*
Y77389D01*
X63865Y77386D01*
X63842Y77381D01*
Y84476D01*
G37*
G36*
Y89250D02*X44432D01*
X42750Y90932D01*
Y104412D01*
X42757Y104500D01*
X42729Y104853D01*
X42646Y105197D01*
X42607Y105293D01*
X42511Y105525D01*
X42396Y105712D01*
X42326Y105827D01*
X42326Y105827D01*
X42096Y106096D01*
X42029Y106153D01*
X39953Y108229D01*
X39896Y108296D01*
X39627Y108526D01*
X39627Y108526D01*
X39512Y108596D01*
X39325Y108711D01*
X39093Y108807D01*
X38997Y108846D01*
X38888Y108873D01*
X38882Y112998D01*
X38813Y113289D01*
X38698Y113565D01*
X38542Y113820D01*
X38348Y114048D01*
X38120Y114242D01*
X37865Y114398D01*
X37589Y114513D01*
X37298Y114582D01*
X37000Y114600D01*
X24702Y114582D01*
X24411Y114513D01*
X24135Y114398D01*
X23880Y114242D01*
X23652Y114048D01*
X23458Y113820D01*
X23302Y113565D01*
X23187Y113289D01*
X23118Y112998D01*
X23100Y112700D01*
X23102Y110998D01*
X21500Y110996D01*
Y117951D01*
X21862Y118038D01*
X24142Y118982D01*
X26247Y120272D01*
X28124Y121876D01*
X29728Y123753D01*
X31018Y125858D01*
X31962Y128138D01*
X32539Y130539D01*
X32684Y133000D01*
X32539Y135461D01*
X31962Y137862D01*
X31018Y140142D01*
X29728Y142247D01*
X28124Y144124D01*
X26247Y145728D01*
X24142Y147018D01*
X21862Y147962D01*
X21500Y148049D01*
Y148500D01*
X63842D01*
Y116451D01*
X63243Y116963D01*
X62505Y117416D01*
X61705Y117747D01*
X60863Y117949D01*
X60000Y118017D01*
X59137Y117949D01*
X58295Y117747D01*
X57495Y117416D01*
X56757Y116963D01*
X56099Y116401D01*
X55537Y115743D01*
X55084Y115005D01*
X54753Y114205D01*
X54551Y113363D01*
X54483Y112500D01*
X54551Y111637D01*
X54753Y110795D01*
X55084Y109995D01*
X55537Y109257D01*
X56099Y108599D01*
X56757Y108037D01*
X57495Y107584D01*
X58295Y107253D01*
X59137Y107051D01*
X60000Y106983D01*
X60863Y107051D01*
X61705Y107253D01*
X62505Y107584D01*
X63243Y108037D01*
X63842Y108549D01*
Y89250D01*
G37*
G36*
X37229Y55183D02*X37330Y55301D01*
X37971Y56348D01*
X38441Y57482D01*
X38728Y58676D01*
X38800Y59900D01*
X38728Y61124D01*
X38441Y62318D01*
X37971Y63452D01*
X37330Y64499D01*
X37229Y64617D01*
Y70629D01*
X37411Y70842D01*
X38061Y71902D01*
X38537Y73051D01*
X38827Y74260D01*
X38900Y75500D01*
X38827Y76740D01*
X38537Y77949D01*
X38061Y79098D01*
X37411Y80158D01*
X37229Y80371D01*
Y81250D01*
X51068D01*
X53750Y78568D01*
Y77390D01*
X51865Y77386D01*
X51635Y77331D01*
X51417Y77241D01*
X51216Y77117D01*
X51036Y76964D01*
X50883Y76784D01*
X50759Y76583D01*
X50669Y76365D01*
X50614Y76135D01*
X50600Y75900D01*
X50614Y68865D01*
X50669Y68635D01*
X50759Y68417D01*
X50883Y68216D01*
X51036Y68036D01*
X51216Y67883D01*
X51417Y67759D01*
X51635Y67669D01*
X51865Y67614D01*
X52100Y67600D01*
X59135Y67614D01*
X59365Y67669D01*
X59583Y67759D01*
X59784Y67883D01*
X59964Y68036D01*
X60117Y68216D01*
X60241Y68417D01*
X60331Y68635D01*
X60386Y68865D01*
X60400Y69100D01*
X60386Y76135D01*
X60331Y76365D01*
X60241Y76583D01*
X60117Y76784D01*
X59964Y76964D01*
X59784Y77117D01*
X59583Y77241D01*
X59365Y77331D01*
X59135Y77386D01*
X58900Y77400D01*
X58250Y77399D01*
Y79412D01*
X58257Y79500D01*
X58229Y79853D01*
X58146Y80197D01*
X58107Y80293D01*
X58011Y80525D01*
X57896Y80712D01*
X57826Y80827D01*
X57826Y80827D01*
X57596Y81096D01*
X57529Y81153D01*
X53932Y84750D01*
X63568D01*
X63842Y84476D01*
Y77381D01*
X63635Y77331D01*
X63417Y77241D01*
X63216Y77117D01*
X63036Y76964D01*
X62883Y76784D01*
X62759Y76583D01*
X62669Y76365D01*
X62614Y76135D01*
X62600Y75900D01*
X62614Y68865D01*
X62669Y68635D01*
X62759Y68417D01*
X62883Y68216D01*
X63036Y68036D01*
X63216Y67883D01*
X63417Y67759D01*
X63635Y67669D01*
X63842Y67619D01*
Y35762D01*
X63524Y35389D01*
X63500Y35351D01*
Y36862D01*
X63556Y36953D01*
X63694Y37287D01*
X63779Y37639D01*
X63800Y38000D01*
X63779Y38361D01*
X63694Y38713D01*
X63556Y39047D01*
X63366Y39356D01*
X63131Y39631D01*
X62856Y39866D01*
X62547Y40056D01*
X62213Y40194D01*
X61861Y40279D01*
X61500Y40307D01*
X61139Y40279D01*
X60787Y40194D01*
X60453Y40056D01*
X60144Y39866D01*
X59869Y39631D01*
X59634Y39356D01*
X59444Y39047D01*
X59306Y38713D01*
X59221Y38361D01*
X59193Y38000D01*
X59221Y37639D01*
X59306Y37287D01*
X59444Y36953D01*
X59500Y36862D01*
Y35351D01*
X59476Y35389D01*
X58976Y35976D01*
X58389Y36476D01*
X57731Y36879D01*
X57019Y37175D01*
X56269Y37355D01*
X55500Y37415D01*
X54731Y37355D01*
X53981Y37175D01*
X53269Y36879D01*
X52611Y36476D01*
X52024Y35976D01*
X51524Y35389D01*
X51121Y34731D01*
X50825Y34019D01*
X50645Y33269D01*
X50585Y32500D01*
X50645Y31731D01*
X50825Y30981D01*
X51121Y30269D01*
X51524Y29611D01*
X52024Y29024D01*
X52611Y28524D01*
X53269Y28121D01*
X53981Y27825D01*
X54731Y27645D01*
X55500Y27585D01*
X56269Y27645D01*
X57019Y27825D01*
X57731Y28121D01*
X58389Y28524D01*
X58976Y29024D01*
X59476Y29611D01*
X59500Y29649D01*
Y29138D01*
X59444Y29047D01*
X59306Y28713D01*
X59221Y28361D01*
X59193Y28000D01*
X59221Y27639D01*
X59306Y27287D01*
X59444Y26953D01*
X59634Y26644D01*
X59869Y26369D01*
X60144Y26134D01*
X60453Y25944D01*
X60787Y25806D01*
X61139Y25721D01*
X61500Y25693D01*
X61861Y25721D01*
X62213Y25806D01*
X62547Y25944D01*
X62696Y26035D01*
X62693Y26000D01*
X62721Y25639D01*
X62806Y25287D01*
X62944Y24953D01*
X63134Y24644D01*
X63369Y24369D01*
X63644Y24134D01*
X63842Y24012D01*
Y1500D01*
X37229D01*
Y40158D01*
X37273Y40200D01*
X37342Y40296D01*
X37696Y40904D01*
X37985Y41547D01*
X38213Y42214D01*
X38376Y42899D01*
X38475Y43596D01*
X38508Y44300D01*
X38475Y45004D01*
X38376Y45701D01*
X38213Y46386D01*
X37985Y47053D01*
X37696Y47696D01*
X37349Y48308D01*
X37278Y48404D01*
X37229Y48452D01*
Y55183D01*
G37*
G36*
Y80371D02*X36603Y81103D01*
X36427Y81254D01*
X36500Y81250D01*
X37229D01*
Y80371D01*
G37*
G36*
Y64617D02*X36532Y65432D01*
X35599Y66230D01*
X34552Y66871D01*
X33418Y67341D01*
X32224Y67628D01*
X31943Y67650D01*
X32240Y67673D01*
X33449Y67963D01*
X34598Y68439D01*
X35658Y69089D01*
X36603Y69897D01*
X37229Y70629D01*
Y64617D01*
G37*
G36*
X31003Y9834D02*X31018Y9858D01*
X31962Y12138D01*
X32539Y14539D01*
X32684Y17000D01*
X32539Y19461D01*
X31962Y21862D01*
X31018Y24142D01*
X31003Y24166D01*
Y36792D01*
X31704Y36825D01*
X32401Y36924D01*
X33086Y37087D01*
X33753Y37315D01*
X34396Y37604D01*
X35008Y37951D01*
X35104Y38022D01*
X35187Y38107D01*
X35256Y38205D01*
X35309Y38311D01*
X35344Y38425D01*
X35361Y38543D01*
X35359Y38662D01*
X35339Y38779D01*
X35301Y38892D01*
X35245Y38998D01*
X35174Y39093D01*
X35089Y39176D01*
X34991Y39245D01*
X34885Y39297D01*
X34771Y39333D01*
X34653Y39350D01*
X34534Y39348D01*
X34417Y39328D01*
X34304Y39290D01*
X34200Y39232D01*
X33714Y38949D01*
X33200Y38718D01*
X32667Y38536D01*
X32120Y38405D01*
X31562Y38326D01*
X31003Y38300D01*
Y50300D01*
X31562Y50274D01*
X32120Y50195D01*
X32667Y50064D01*
X33200Y49882D01*
X33714Y49651D01*
X34203Y49373D01*
X34306Y49316D01*
X34418Y49278D01*
X34535Y49258D01*
X34653Y49257D01*
X34769Y49274D01*
X34882Y49309D01*
X34988Y49361D01*
X35085Y49429D01*
X35169Y49511D01*
X35240Y49606D01*
X35295Y49710D01*
X35333Y49822D01*
X35353Y49938D01*
X35354Y50057D01*
X35337Y50173D01*
X35302Y50286D01*
X35250Y50392D01*
X35182Y50488D01*
X35100Y50573D01*
X35004Y50642D01*
X34396Y50996D01*
X33753Y51285D01*
X33086Y51513D01*
X32401Y51676D01*
X31704Y51775D01*
X31003Y51808D01*
Y52076D01*
X32224Y52172D01*
X33418Y52459D01*
X34552Y52929D01*
X35599Y53570D01*
X36532Y54368D01*
X37229Y55183D01*
Y48452D01*
X37193Y48487D01*
X37095Y48556D01*
X36989Y48609D01*
X36875Y48644D01*
X36757Y48661D01*
X36638Y48659D01*
X36521Y48639D01*
X36408Y48601D01*
X36302Y48545D01*
X36207Y48474D01*
X36124Y48389D01*
X36055Y48291D01*
X36003Y48185D01*
X35967Y48071D01*
X35950Y47953D01*
X35952Y47834D01*
X35972Y47717D01*
X36010Y47604D01*
X36068Y47500D01*
X36351Y47014D01*
X36582Y46500D01*
X36764Y45967D01*
X36895Y45420D01*
X36974Y44862D01*
X37000Y44300D01*
X36974Y43738D01*
X36895Y43180D01*
X36764Y42633D01*
X36582Y42100D01*
X36351Y41586D01*
X36073Y41097D01*
X36016Y40994D01*
X35978Y40882D01*
X35958Y40765D01*
X35957Y40647D01*
X35974Y40531D01*
X36009Y40418D01*
X36061Y40312D01*
X36129Y40215D01*
X36211Y40131D01*
X36306Y40060D01*
X36410Y40005D01*
X36522Y39967D01*
X36638Y39947D01*
X36757Y39946D01*
X36873Y39963D01*
X36986Y39998D01*
X37092Y40050D01*
X37188Y40118D01*
X37229Y40158D01*
Y1500D01*
X31003D01*
Y9834D01*
G37*
G36*
Y24166D02*X29728Y26247D01*
X28124Y28124D01*
X26247Y29728D01*
X24764Y30636D01*
Y40154D01*
X24807Y40113D01*
X24905Y40044D01*
X25011Y39991D01*
X25125Y39956D01*
X25243Y39939D01*
X25362Y39941D01*
X25479Y39961D01*
X25592Y39999D01*
X25698Y40055D01*
X25793Y40126D01*
X25876Y40211D01*
X25945Y40309D01*
X25997Y40415D01*
X26033Y40529D01*
X26050Y40647D01*
X26048Y40766D01*
X26028Y40883D01*
X25990Y40996D01*
X25932Y41100D01*
X25649Y41586D01*
X25418Y42100D01*
X25236Y42633D01*
X25105Y43180D01*
X25077Y43382D01*
X25122Y43480D01*
X25289Y43969D01*
X25409Y44472D01*
X25482Y44984D01*
X25506Y45500D01*
X25482Y46016D01*
X25415Y46490D01*
X25418Y46500D01*
X25649Y47014D01*
X25927Y47503D01*
X25984Y47606D01*
X26022Y47718D01*
X26042Y47835D01*
X26043Y47953D01*
X26026Y48069D01*
X25991Y48182D01*
X25939Y48288D01*
X25871Y48385D01*
X25789Y48469D01*
X25694Y48540D01*
X25590Y48595D01*
X25478Y48633D01*
X25362Y48653D01*
X25243Y48654D01*
X25127Y48637D01*
X25014Y48602D01*
X24908Y48550D01*
X24812Y48482D01*
X24764Y48436D01*
Y55191D01*
X25468Y54368D01*
X26401Y53570D01*
X27448Y52929D01*
X28582Y52459D01*
X29776Y52172D01*
X31000Y52076D01*
X31003Y52076D01*
Y51808D01*
X31000Y51808D01*
X30296Y51775D01*
X29599Y51676D01*
X28914Y51513D01*
X28247Y51285D01*
X27604Y50996D01*
X26992Y50649D01*
X26896Y50578D01*
X26813Y50493D01*
X26744Y50395D01*
X26691Y50289D01*
X26656Y50175D01*
X26639Y50057D01*
X26641Y49938D01*
X26661Y49821D01*
X26699Y49708D01*
X26755Y49602D01*
X26826Y49507D01*
X26911Y49424D01*
X27009Y49355D01*
X27115Y49303D01*
X27229Y49267D01*
X27347Y49250D01*
X27466Y49252D01*
X27583Y49272D01*
X27696Y49310D01*
X27800Y49368D01*
X28286Y49651D01*
X28800Y49882D01*
X29333Y50064D01*
X29880Y50195D01*
X30438Y50274D01*
X31000Y50300D01*
X31003Y50300D01*
Y38300D01*
X31000Y38300D01*
X30438Y38326D01*
X29880Y38405D01*
X29333Y38536D01*
X28800Y38718D01*
X28286Y38949D01*
X27797Y39227D01*
X27694Y39284D01*
X27582Y39322D01*
X27465Y39342D01*
X27347Y39343D01*
X27231Y39326D01*
X27118Y39291D01*
X27012Y39239D01*
X26915Y39171D01*
X26831Y39089D01*
X26760Y38994D01*
X26705Y38890D01*
X26667Y38778D01*
X26647Y38662D01*
X26646Y38543D01*
X26663Y38427D01*
X26698Y38314D01*
X26750Y38208D01*
X26818Y38112D01*
X26900Y38027D01*
X26996Y37958D01*
X27604Y37604D01*
X28247Y37315D01*
X28914Y37087D01*
X29599Y36924D01*
X30296Y36825D01*
X31000Y36792D01*
X31003Y36792D01*
Y24166D01*
G37*
G36*
X24764Y30636D02*X24142Y31018D01*
X21862Y31962D01*
X21500Y32049D01*
Y40204D01*
X21531Y40211D01*
X22020Y40378D01*
X22492Y40590D01*
X22593Y40651D01*
X22684Y40728D01*
X22761Y40818D01*
X22823Y40920D01*
X22869Y41029D01*
X22897Y41145D01*
X22906Y41263D01*
X22897Y41381D01*
X22870Y41497D01*
X22824Y41607D01*
X22762Y41708D01*
X22686Y41798D01*
X22595Y41876D01*
X22494Y41938D01*
X22385Y41984D01*
X22269Y42011D01*
X22151Y42021D01*
X22032Y42012D01*
X21917Y41984D01*
X21808Y41937D01*
X21500Y41794D01*
Y49206D01*
X21810Y49067D01*
X21918Y49020D01*
X22033Y48993D01*
X22151Y48983D01*
X22268Y48993D01*
X22383Y49021D01*
X22492Y49066D01*
X22593Y49128D01*
X22682Y49205D01*
X22759Y49295D01*
X22820Y49395D01*
X22865Y49504D01*
X22893Y49619D01*
X22902Y49737D01*
X22892Y49855D01*
X22865Y49969D01*
X22819Y50078D01*
X22757Y50179D01*
X22681Y50269D01*
X22591Y50345D01*
X22489Y50405D01*
X22020Y50622D01*
X21531Y50789D01*
X21500Y50796D01*
Y60009D01*
X23185Y60012D01*
X23176Y59900D01*
X23272Y58676D01*
X23559Y57482D01*
X24029Y56348D01*
X24670Y55301D01*
X24764Y55191D01*
Y48436D01*
X24727Y48400D01*
X24658Y48304D01*
X24646Y48283D01*
X24580Y48323D01*
X24471Y48369D01*
X24355Y48397D01*
X24237Y48406D01*
X24119Y48397D01*
X24003Y48370D01*
X23893Y48324D01*
X23792Y48262D01*
X23702Y48186D01*
X23624Y48095D01*
X23562Y47994D01*
X23516Y47885D01*
X23489Y47769D01*
X23479Y47651D01*
X23488Y47532D01*
X23516Y47417D01*
X23563Y47308D01*
X23721Y46968D01*
X23842Y46612D01*
X23851Y46574D01*
X23787Y46386D01*
X23624Y45701D01*
X23525Y45004D01*
X23492Y44300D01*
X23525Y43596D01*
X23525Y43594D01*
X23520Y43582D01*
X23493Y43467D01*
X23483Y43349D01*
X23493Y43232D01*
X23521Y43117D01*
X23566Y43008D01*
X23621Y42919D01*
X23624Y42899D01*
X23787Y42214D01*
X24015Y41547D01*
X24304Y40904D01*
X24651Y40292D01*
X24722Y40196D01*
X24764Y40154D01*
Y30636D01*
G37*
G36*
X21500Y1500D02*Y1951D01*
X21862Y2038D01*
X24142Y2982D01*
X26247Y4272D01*
X28124Y5876D01*
X29728Y7753D01*
X31003Y9834D01*
Y1500D01*
X21500D01*
G37*
G36*
X114495Y107082D02*X114683Y107159D01*
X114884Y107283D01*
X115064Y107436D01*
X115217Y107616D01*
X115341Y107817D01*
X115431Y108035D01*
X115486Y108265D01*
X115500Y108500D01*
X115486Y116735D01*
X115431Y116965D01*
X115341Y117183D01*
X115217Y117384D01*
X115064Y117564D01*
X114884Y117717D01*
X114683Y117841D01*
X114495Y117918D01*
Y148500D01*
X165500D01*
Y89621D01*
X161379Y85500D01*
X117244D01*
X117131Y85631D01*
X116856Y85866D01*
X116547Y86056D01*
X116213Y86194D01*
X115861Y86279D01*
X115500Y86307D01*
X115139Y86279D01*
X114787Y86194D01*
X114495Y86073D01*
Y107082D01*
G37*
G36*
X165500Y29500D02*X164000D01*
Y46941D01*
X164005Y47000D01*
X163986Y47235D01*
X163931Y47465D01*
X163841Y47683D01*
X163717Y47884D01*
X163564Y48064D01*
X163519Y48102D01*
X161602Y50019D01*
X161564Y50064D01*
X161384Y50217D01*
X161183Y50341D01*
X160965Y50431D01*
X160735Y50486D01*
X160500Y50505D01*
X160441Y50500D01*
X154744D01*
X154631Y50631D01*
X154356Y50866D01*
X154047Y51056D01*
X153713Y51194D01*
X153361Y51279D01*
X153000Y51307D01*
X152639Y51279D01*
X152287Y51194D01*
X151953Y51056D01*
X151644Y50866D01*
X151369Y50631D01*
X151134Y50356D01*
X150944Y50047D01*
X150806Y49713D01*
X150721Y49361D01*
X150693Y49000D01*
X150721Y48639D01*
X150806Y48287D01*
X150944Y47953D01*
X151134Y47644D01*
X151369Y47369D01*
X151644Y47134D01*
X151953Y46944D01*
X152287Y46806D01*
X152639Y46721D01*
X153000Y46693D01*
X153361Y46721D01*
X153713Y46806D01*
X154047Y46944D01*
X154356Y47134D01*
X154631Y47369D01*
X154744Y47500D01*
X159879D01*
X161000Y46379D01*
Y29621D01*
X160879Y29500D01*
X159638D01*
X159547Y29556D01*
X159213Y29694D01*
X158861Y29779D01*
X158500Y29807D01*
X158139Y29779D01*
X157787Y29694D01*
X157453Y29556D01*
X157362Y29500D01*
X115621D01*
X114495Y30626D01*
Y32541D01*
X114500Y32541D01*
X114963Y32577D01*
X115414Y32686D01*
X115843Y32863D01*
X116239Y33106D01*
X116592Y33408D01*
X116894Y33761D01*
X117137Y34157D01*
X117314Y34586D01*
X117423Y35037D01*
X117450Y35500D01*
X117423Y35963D01*
X117314Y36414D01*
X117137Y36843D01*
X116894Y37239D01*
X116592Y37592D01*
X116239Y37894D01*
X115843Y38137D01*
X115414Y38314D01*
X114963Y38423D01*
X114500Y38459D01*
X114495Y38459D01*
Y40541D01*
X114500Y40541D01*
X114963Y40577D01*
X115414Y40686D01*
X115843Y40863D01*
X116239Y41106D01*
X116592Y41408D01*
X116894Y41761D01*
X117137Y42157D01*
X117314Y42586D01*
X117423Y43037D01*
X117450Y43500D01*
X117423Y43963D01*
X117314Y44414D01*
X117137Y44843D01*
X116894Y45239D01*
X116592Y45592D01*
X116239Y45894D01*
X115843Y46137D01*
X115414Y46314D01*
X114963Y46423D01*
X114500Y46459D01*
X114495Y46459D01*
Y81927D01*
X114787Y81806D01*
X115139Y81721D01*
X115500Y81693D01*
X115861Y81721D01*
X116213Y81806D01*
X116547Y81944D01*
X116856Y82134D01*
X117131Y82369D01*
X117244Y82500D01*
X161941D01*
X162000Y82495D01*
X162235Y82514D01*
X162235Y82514D01*
X162465Y82569D01*
X162683Y82659D01*
X162884Y82783D01*
X163064Y82936D01*
X163102Y82981D01*
X165500Y85379D01*
Y29500D01*
G37*
G36*
X114495Y117918D02*X114465Y117931D01*
X114235Y117986D01*
X114000Y118000D01*
X110000Y117993D01*
Y148500D01*
X114495D01*
Y117918D01*
G37*
G36*
Y38459D02*X114037Y38423D01*
X113586Y38314D01*
X113157Y38137D01*
X112761Y37894D01*
X112408Y37592D01*
X112106Y37239D01*
X111863Y36843D01*
X111686Y36414D01*
X111577Y35963D01*
X111541Y35500D01*
X111577Y35037D01*
X111686Y34586D01*
X111749Y34432D01*
X111547Y34556D01*
X111213Y34694D01*
X110861Y34779D01*
X110500Y34807D01*
X110139Y34779D01*
X110000Y34745D01*
Y49379D01*
X110019Y49398D01*
X110064Y49436D01*
X110217Y49615D01*
X110217Y49616D01*
X110341Y49817D01*
X110431Y50035D01*
X110486Y50265D01*
X110505Y50500D01*
X110500Y50559D01*
Y50756D01*
X110631Y50869D01*
X110866Y51144D01*
X111056Y51453D01*
X111194Y51787D01*
X111279Y52139D01*
X111300Y52500D01*
X111279Y52861D01*
X111194Y53213D01*
X111056Y53547D01*
X110866Y53856D01*
X110631Y54131D01*
X110356Y54366D01*
X110047Y54556D01*
X110000Y54575D01*
Y107007D01*
X114235Y107014D01*
X114465Y107069D01*
X114495Y107082D01*
Y86073D01*
X114453Y86056D01*
X114144Y85866D01*
X113869Y85631D01*
X113634Y85356D01*
X113444Y85047D01*
X113306Y84713D01*
X113221Y84361D01*
X113193Y84000D01*
X113221Y83639D01*
X113306Y83287D01*
X113444Y82953D01*
X113634Y82644D01*
X113869Y82369D01*
X114144Y82134D01*
X114453Y81944D01*
X114495Y81927D01*
Y46459D01*
X114037Y46423D01*
X113586Y46314D01*
X113157Y46137D01*
X112761Y45894D01*
X112408Y45592D01*
X112106Y45239D01*
X111863Y44843D01*
X111686Y44414D01*
X111577Y43963D01*
X111541Y43500D01*
X111577Y43037D01*
X111686Y42586D01*
X111863Y42157D01*
X112106Y41761D01*
X112408Y41408D01*
X112761Y41106D01*
X113157Y40863D01*
X113586Y40686D01*
X114037Y40577D01*
X114495Y40541D01*
Y38459D01*
G37*
G36*
Y30626D02*X112790Y32331D01*
X112800Y32500D01*
X112779Y32861D01*
X112709Y33150D01*
X112761Y33106D01*
X113157Y32863D01*
X113586Y32686D01*
X114037Y32577D01*
X114495Y32541D01*
Y30626D01*
G37*
G36*
X110000Y54575D02*X109713Y54694D01*
X109361Y54779D01*
X109000Y54807D01*
X108639Y54779D01*
X108287Y54694D01*
X107953Y54556D01*
X107644Y54366D01*
X107369Y54131D01*
X107134Y53856D01*
X106944Y53547D01*
X106806Y53213D01*
X106721Y52861D01*
X106693Y52500D01*
X106721Y52139D01*
X106806Y51787D01*
X106944Y51453D01*
X107134Y51144D01*
X107313Y50934D01*
X105981Y49602D01*
X105936Y49564D01*
X105783Y49384D01*
X105659Y49183D01*
X105569Y48965D01*
X105514Y48735D01*
X105514Y48735D01*
X105495Y48500D01*
X105500Y48441D01*
Y46621D01*
X104102Y48019D01*
X104064Y48064D01*
X103884Y48217D01*
X103683Y48341D01*
X103465Y48431D01*
X103235Y48486D01*
X103000Y48505D01*
X102941Y48500D01*
X101744D01*
X101631Y48631D01*
X101356Y48866D01*
X101047Y49056D01*
X100713Y49194D01*
X100361Y49279D01*
X100000Y49307D01*
X99639Y49279D01*
X99287Y49194D01*
X98953Y49056D01*
X98644Y48866D01*
X98369Y48631D01*
X98134Y48356D01*
X97944Y48047D01*
X97806Y47713D01*
X97721Y47361D01*
X97693Y47000D01*
X97721Y46639D01*
X97806Y46287D01*
X97944Y45953D01*
X98134Y45644D01*
X98369Y45369D01*
X98644Y45134D01*
X98953Y44944D01*
X99287Y44806D01*
X99639Y44721D01*
X100000Y44693D01*
X100361Y44721D01*
X100713Y44806D01*
X101047Y44944D01*
X101356Y45134D01*
X101631Y45369D01*
X101744Y45500D01*
X102379D01*
X103000Y44879D01*
Y34744D01*
X102869Y34631D01*
X102634Y34356D01*
X102444Y34047D01*
X102306Y33713D01*
X102221Y33361D01*
X102193Y33000D01*
X102221Y32639D01*
X102306Y32287D01*
X102444Y31953D01*
X102634Y31644D01*
X102869Y31369D01*
X103144Y31134D01*
X103362Y31000D01*
X101244D01*
X101131Y31131D01*
X100856Y31366D01*
X100547Y31556D01*
X100213Y31694D01*
X99861Y31779D01*
X99500Y31807D01*
X99139Y31779D01*
X98787Y31694D01*
X98453Y31556D01*
X98144Y31366D01*
X97869Y31131D01*
X97634Y30856D01*
X97500Y30638D01*
Y148500D01*
X110000D01*
Y117993D01*
X105765Y117986D01*
X105535Y117931D01*
X105317Y117841D01*
X105116Y117717D01*
X104936Y117564D01*
X104783Y117384D01*
X104659Y117183D01*
X104569Y116965D01*
X104514Y116735D01*
X104500Y116500D01*
X104514Y108265D01*
X104569Y108035D01*
X104659Y107817D01*
X104783Y107616D01*
X104936Y107436D01*
X105116Y107283D01*
X105317Y107159D01*
X105535Y107069D01*
X105765Y107014D01*
X106000Y107000D01*
X110000Y107007D01*
Y54575D01*
G37*
G36*
Y34745D02*X109787Y34694D01*
X109453Y34556D01*
X109144Y34366D01*
X108869Y34131D01*
X108634Y33856D01*
X108500Y33638D01*
Y47879D01*
X110000Y49379D01*
Y34745D01*
G37*
G36*
X37229Y55183D02*X37330Y55301D01*
X37971Y56348D01*
X38441Y57482D01*
X38728Y58676D01*
X38800Y59900D01*
X38728Y61124D01*
X38441Y62318D01*
X37971Y63452D01*
X37330Y64499D01*
X37229Y64617D01*
Y70629D01*
X37411Y70842D01*
X38061Y71902D01*
X38537Y73051D01*
X38827Y74260D01*
X38900Y75500D01*
X38827Y76740D01*
X38537Y77949D01*
X38061Y79098D01*
X37411Y80158D01*
X37229Y80371D01*
Y81250D01*
X51068D01*
X53750Y78568D01*
Y77390D01*
X51865Y77386D01*
X51635Y77331D01*
X51417Y77241D01*
X51216Y77117D01*
X51036Y76964D01*
X50883Y76784D01*
X50759Y76583D01*
X50669Y76365D01*
X50614Y76135D01*
X50600Y75900D01*
X50614Y68865D01*
X50669Y68635D01*
X50759Y68417D01*
X50883Y68216D01*
X51036Y68036D01*
X51216Y67883D01*
X51417Y67759D01*
X51635Y67669D01*
X51865Y67614D01*
X52100Y67600D01*
X59135Y67614D01*
X59365Y67669D01*
X59583Y67759D01*
X59784Y67883D01*
X59964Y68036D01*
X60117Y68216D01*
X60241Y68417D01*
X60331Y68635D01*
X60386Y68865D01*
X60400Y69100D01*
X60386Y76135D01*
X60331Y76365D01*
X60241Y76583D01*
X60117Y76784D01*
X59964Y76964D01*
X59784Y77117D01*
X59583Y77241D01*
X59365Y77331D01*
X59135Y77386D01*
X58900Y77400D01*
X58250Y77399D01*
Y79412D01*
X58257Y79500D01*
X58229Y79853D01*
X58146Y80197D01*
X58107Y80293D01*
X58011Y80525D01*
X57896Y80712D01*
X57826Y80827D01*
X57826Y80827D01*
X57596Y81096D01*
X57529Y81153D01*
X53932Y84750D01*
X62000D01*
Y40245D01*
X61861Y40279D01*
X61500Y40307D01*
X61139Y40279D01*
X60787Y40194D01*
X60453Y40056D01*
X60144Y39866D01*
X59869Y39631D01*
X59634Y39356D01*
X59444Y39047D01*
X59306Y38713D01*
X59221Y38361D01*
X59193Y38000D01*
X59221Y37639D01*
X59306Y37287D01*
X59444Y36953D01*
X59500Y36862D01*
Y35351D01*
X59476Y35389D01*
X58976Y35976D01*
X58389Y36476D01*
X57731Y36879D01*
X57019Y37175D01*
X56269Y37355D01*
X55500Y37415D01*
X54731Y37355D01*
X53981Y37175D01*
X53269Y36879D01*
X52611Y36476D01*
X52024Y35976D01*
X51524Y35389D01*
X51121Y34731D01*
X50825Y34019D01*
X50645Y33269D01*
X50585Y32500D01*
X50645Y31731D01*
X50825Y30981D01*
X51121Y30269D01*
X51524Y29611D01*
X52024Y29024D01*
X52611Y28524D01*
X53269Y28121D01*
X53981Y27825D01*
X54731Y27645D01*
X55500Y27585D01*
X56269Y27645D01*
X57019Y27825D01*
X57731Y28121D01*
X58389Y28524D01*
X58976Y29024D01*
X59476Y29611D01*
X59500Y29649D01*
Y29138D01*
X59444Y29047D01*
X59306Y28713D01*
X59221Y28361D01*
X59193Y28000D01*
X59221Y27639D01*
X59306Y27287D01*
X59444Y26953D01*
X59634Y26644D01*
X59869Y26369D01*
X60144Y26134D01*
X60453Y25944D01*
X60787Y25806D01*
X61139Y25721D01*
X61500Y25693D01*
X61861Y25721D01*
X62000Y25755D01*
Y1500D01*
X37229D01*
Y40158D01*
X37273Y40200D01*
X37342Y40296D01*
X37696Y40904D01*
X37985Y41547D01*
X38213Y42214D01*
X38376Y42899D01*
X38475Y43596D01*
X38508Y44300D01*
X38475Y45004D01*
X38376Y45701D01*
X38213Y46386D01*
X37985Y47053D01*
X37696Y47696D01*
X37349Y48308D01*
X37278Y48404D01*
X37229Y48452D01*
Y55183D01*
G37*
G36*
Y80371D02*X36603Y81103D01*
X36427Y81254D01*
X36500Y81250D01*
X37229D01*
Y80371D01*
G37*
G36*
Y64617D02*X36532Y65432D01*
X35599Y66230D01*
X34552Y66871D01*
X33418Y67341D01*
X32224Y67628D01*
X31943Y67650D01*
X32240Y67673D01*
X33449Y67963D01*
X34598Y68439D01*
X35658Y69089D01*
X36603Y69897D01*
X37229Y70629D01*
Y64617D01*
G37*
G36*
X31003Y52076D02*X32224Y52172D01*
X33418Y52459D01*
X34552Y52929D01*
X35599Y53570D01*
X36532Y54368D01*
X37229Y55183D01*
Y48452D01*
X37193Y48487D01*
X37095Y48556D01*
X36989Y48609D01*
X36875Y48644D01*
X36757Y48661D01*
X36638Y48659D01*
X36521Y48639D01*
X36408Y48601D01*
X36302Y48545D01*
X36207Y48474D01*
X36124Y48389D01*
X36055Y48291D01*
X36003Y48185D01*
X35967Y48071D01*
X35950Y47953D01*
X35952Y47834D01*
X35972Y47717D01*
X36010Y47604D01*
X36068Y47500D01*
X36351Y47014D01*
X36582Y46500D01*
X36764Y45967D01*
X36895Y45420D01*
X36974Y44862D01*
X37000Y44300D01*
X36974Y43738D01*
X36895Y43180D01*
X36764Y42633D01*
X36582Y42100D01*
X36351Y41586D01*
X36073Y41097D01*
X36016Y40994D01*
X35978Y40882D01*
X35958Y40765D01*
X35957Y40647D01*
X35974Y40531D01*
X36009Y40418D01*
X36061Y40312D01*
X36129Y40215D01*
X36211Y40131D01*
X36306Y40060D01*
X36410Y40005D01*
X36522Y39967D01*
X36638Y39947D01*
X36757Y39946D01*
X36873Y39963D01*
X36986Y39998D01*
X37092Y40050D01*
X37188Y40118D01*
X37229Y40158D01*
Y1500D01*
X31003D01*
Y9834D01*
X31018Y9858D01*
X31962Y12138D01*
X32539Y14539D01*
X32684Y17000D01*
X32539Y19461D01*
X31962Y21862D01*
X31018Y24142D01*
X31003Y24166D01*
Y36792D01*
X31704Y36825D01*
X32401Y36924D01*
X33086Y37087D01*
X33753Y37315D01*
X34396Y37604D01*
X35008Y37951D01*
X35104Y38022D01*
X35187Y38107D01*
X35256Y38205D01*
X35309Y38311D01*
X35344Y38425D01*
X35361Y38543D01*
X35359Y38662D01*
X35339Y38779D01*
X35301Y38892D01*
X35245Y38998D01*
X35174Y39093D01*
X35089Y39176D01*
X34991Y39245D01*
X34885Y39297D01*
X34771Y39333D01*
X34653Y39350D01*
X34534Y39348D01*
X34417Y39328D01*
X34304Y39290D01*
X34200Y39232D01*
X33714Y38949D01*
X33200Y38718D01*
X32667Y38536D01*
X32120Y38405D01*
X31562Y38326D01*
X31003Y38300D01*
Y50300D01*
X31562Y50274D01*
X32120Y50195D01*
X32667Y50064D01*
X33200Y49882D01*
X33714Y49651D01*
X34203Y49373D01*
X34306Y49316D01*
X34418Y49278D01*
X34535Y49258D01*
X34653Y49257D01*
X34769Y49274D01*
X34882Y49309D01*
X34988Y49361D01*
X35085Y49429D01*
X35169Y49511D01*
X35240Y49606D01*
X35295Y49710D01*
X35333Y49822D01*
X35353Y49938D01*
X35354Y50057D01*
X35337Y50173D01*
X35302Y50286D01*
X35250Y50392D01*
X35182Y50488D01*
X35100Y50573D01*
X35004Y50642D01*
X34396Y50996D01*
X33753Y51285D01*
X33086Y51513D01*
X32401Y51676D01*
X31704Y51775D01*
X31003Y51808D01*
Y52076D01*
G37*
G36*
Y125834D02*X31018Y125858D01*
X31962Y128138D01*
X32539Y130539D01*
X32684Y133000D01*
X32539Y135461D01*
X31962Y137862D01*
X31018Y140142D01*
X31003Y140166D01*
Y148500D01*
X62000D01*
Y117625D01*
X61705Y117747D01*
X60863Y117949D01*
X60000Y118017D01*
X59137Y117949D01*
X58295Y117747D01*
X57495Y117416D01*
X56757Y116963D01*
X56099Y116401D01*
X55537Y115743D01*
X55084Y115005D01*
X54753Y114205D01*
X54551Y113363D01*
X54483Y112500D01*
X54551Y111637D01*
X54753Y110795D01*
X55084Y109995D01*
X55537Y109257D01*
X56099Y108599D01*
X56757Y108037D01*
X57495Y107584D01*
X58295Y107253D01*
X59137Y107051D01*
X60000Y106983D01*
X60863Y107051D01*
X61705Y107253D01*
X62000Y107375D01*
Y89250D01*
X44432D01*
X42750Y90932D01*
Y104412D01*
X42757Y104500D01*
X42729Y104853D01*
X42646Y105197D01*
X42607Y105293D01*
X42511Y105525D01*
X42396Y105712D01*
X42326Y105827D01*
X42326Y105827D01*
X42096Y106096D01*
X42029Y106153D01*
X39953Y108229D01*
X39896Y108296D01*
X39627Y108526D01*
X39627Y108526D01*
X39512Y108596D01*
X39325Y108711D01*
X39093Y108807D01*
X38997Y108846D01*
X38888Y108873D01*
X38882Y112998D01*
X38813Y113289D01*
X38698Y113565D01*
X38542Y113820D01*
X38348Y114048D01*
X38120Y114242D01*
X37865Y114398D01*
X37589Y114513D01*
X37298Y114582D01*
X37000Y114600D01*
X31003Y114591D01*
Y125834D01*
G37*
G36*
Y1500D02*X19622D01*
X21862Y2038D01*
X24142Y2982D01*
X26247Y4272D01*
X28124Y5876D01*
X29728Y7753D01*
X31003Y9834D01*
Y1500D01*
G37*
G36*
Y140166D02*X29728Y142247D01*
X28124Y144124D01*
X26247Y145728D01*
X24142Y147018D01*
X21862Y147962D01*
X19622Y148500D01*
X31003D01*
Y140166D01*
G37*
G36*
X24764Y55191D02*X25468Y54368D01*
X26401Y53570D01*
X27448Y52929D01*
X28582Y52459D01*
X29776Y52172D01*
X31000Y52076D01*
X31003Y52076D01*
Y51808D01*
X31000Y51808D01*
X30296Y51775D01*
X29599Y51676D01*
X28914Y51513D01*
X28247Y51285D01*
X27604Y50996D01*
X26992Y50649D01*
X26896Y50578D01*
X26813Y50493D01*
X26744Y50395D01*
X26691Y50289D01*
X26656Y50175D01*
X26639Y50057D01*
X26641Y49938D01*
X26661Y49821D01*
X26699Y49708D01*
X26755Y49602D01*
X26826Y49507D01*
X26911Y49424D01*
X27009Y49355D01*
X27115Y49303D01*
X27229Y49267D01*
X27347Y49250D01*
X27466Y49252D01*
X27583Y49272D01*
X27696Y49310D01*
X27800Y49368D01*
X28286Y49651D01*
X28800Y49882D01*
X29333Y50064D01*
X29880Y50195D01*
X30438Y50274D01*
X31000Y50300D01*
X31003Y50300D01*
Y38300D01*
X31000Y38300D01*
X30438Y38326D01*
X29880Y38405D01*
X29333Y38536D01*
X28800Y38718D01*
X28286Y38949D01*
X27797Y39227D01*
X27694Y39284D01*
X27582Y39322D01*
X27465Y39342D01*
X27347Y39343D01*
X27231Y39326D01*
X27118Y39291D01*
X27012Y39239D01*
X26915Y39171D01*
X26831Y39089D01*
X26760Y38994D01*
X26705Y38890D01*
X26667Y38778D01*
X26647Y38662D01*
X26646Y38543D01*
X26663Y38427D01*
X26698Y38314D01*
X26750Y38208D01*
X26818Y38112D01*
X26900Y38027D01*
X26996Y37958D01*
X27604Y37604D01*
X28247Y37315D01*
X28914Y37087D01*
X29599Y36924D01*
X30296Y36825D01*
X31000Y36792D01*
X31003Y36792D01*
Y24166D01*
X29728Y26247D01*
X28124Y28124D01*
X26247Y29728D01*
X24764Y30636D01*
Y40154D01*
X24807Y40113D01*
X24905Y40044D01*
X25011Y39991D01*
X25125Y39956D01*
X25243Y39939D01*
X25362Y39941D01*
X25479Y39961D01*
X25592Y39999D01*
X25698Y40055D01*
X25793Y40126D01*
X25876Y40211D01*
X25945Y40309D01*
X25997Y40415D01*
X26033Y40529D01*
X26050Y40647D01*
X26048Y40766D01*
X26028Y40883D01*
X25990Y40996D01*
X25932Y41100D01*
X25649Y41586D01*
X25418Y42100D01*
X25236Y42633D01*
X25105Y43180D01*
X25077Y43382D01*
X25122Y43480D01*
X25289Y43969D01*
X25409Y44472D01*
X25482Y44984D01*
X25506Y45500D01*
X25482Y46016D01*
X25415Y46490D01*
X25418Y46500D01*
X25649Y47014D01*
X25927Y47503D01*
X25984Y47606D01*
X26022Y47718D01*
X26042Y47835D01*
X26043Y47953D01*
X26026Y48069D01*
X25991Y48182D01*
X25939Y48288D01*
X25871Y48385D01*
X25789Y48469D01*
X25694Y48540D01*
X25590Y48595D01*
X25478Y48633D01*
X25362Y48653D01*
X25243Y48654D01*
X25127Y48637D01*
X25014Y48602D01*
X24908Y48550D01*
X24812Y48482D01*
X24764Y48436D01*
Y55191D01*
G37*
G36*
Y82749D02*X24916Y82995D01*
X25053Y83326D01*
X25898Y82481D01*
X25936Y82436D01*
X26116Y82283D01*
X26317Y82159D01*
X26535Y82069D01*
X26582Y82058D01*
X26342Y81911D01*
X25397Y81103D01*
X24764Y80363D01*
Y82749D01*
G37*
G36*
Y98814D02*X25000Y98800D01*
X28827Y98805D01*
X28520Y98732D01*
X27357Y98250D01*
X26283Y97592D01*
X25326Y96774D01*
X24764Y96117D01*
Y98814D01*
G37*
G36*
Y119364D02*X26247Y120272D01*
X28124Y121876D01*
X29728Y123753D01*
X31003Y125834D01*
Y114591D01*
X24764Y114582D01*
Y119364D01*
G37*
G36*
X20002Y60007D02*X23185Y60012D01*
X23176Y59900D01*
X23272Y58676D01*
X23559Y57482D01*
X24029Y56348D01*
X24670Y55301D01*
X24764Y55191D01*
Y48436D01*
X24727Y48400D01*
X24658Y48304D01*
X24646Y48283D01*
X24580Y48323D01*
X24471Y48369D01*
X24355Y48397D01*
X24237Y48406D01*
X24119Y48397D01*
X24003Y48370D01*
X23893Y48324D01*
X23792Y48262D01*
X23702Y48186D01*
X23624Y48095D01*
X23562Y47994D01*
X23516Y47885D01*
X23489Y47769D01*
X23479Y47651D01*
X23488Y47532D01*
X23516Y47417D01*
X23563Y47308D01*
X23721Y46968D01*
X23842Y46612D01*
X23851Y46574D01*
X23787Y46386D01*
X23624Y45701D01*
X23525Y45004D01*
X23492Y44300D01*
X23525Y43596D01*
X23525Y43594D01*
X23520Y43582D01*
X23493Y43467D01*
X23483Y43349D01*
X23493Y43232D01*
X23521Y43117D01*
X23566Y43008D01*
X23621Y42919D01*
X23624Y42899D01*
X23787Y42214D01*
X24015Y41547D01*
X24304Y40904D01*
X24651Y40292D01*
X24722Y40196D01*
X24764Y40154D01*
Y30636D01*
X24142Y31018D01*
X21862Y31962D01*
X20002Y32409D01*
Y39994D01*
X20516Y40018D01*
X21028Y40091D01*
X21531Y40211D01*
X22020Y40378D01*
X22492Y40590D01*
X22593Y40651D01*
X22684Y40728D01*
X22761Y40818D01*
X22823Y40920D01*
X22869Y41029D01*
X22897Y41145D01*
X22906Y41263D01*
X22897Y41381D01*
X22870Y41497D01*
X22824Y41607D01*
X22762Y41708D01*
X22686Y41798D01*
X22595Y41876D01*
X22494Y41938D01*
X22385Y41984D01*
X22269Y42011D01*
X22151Y42021D01*
X22032Y42012D01*
X21917Y41984D01*
X21808Y41937D01*
X21468Y41779D01*
X21112Y41658D01*
X20747Y41570D01*
X20375Y41518D01*
X20002Y41500D01*
Y49500D01*
X20375Y49482D01*
X20747Y49430D01*
X21112Y49342D01*
X21468Y49221D01*
X21810Y49067D01*
X21918Y49020D01*
X22033Y48993D01*
X22151Y48983D01*
X22268Y48993D01*
X22383Y49021D01*
X22492Y49066D01*
X22593Y49128D01*
X22682Y49205D01*
X22759Y49295D01*
X22820Y49395D01*
X22865Y49504D01*
X22893Y49619D01*
X22902Y49737D01*
X22892Y49855D01*
X22865Y49969D01*
X22819Y50078D01*
X22757Y50179D01*
X22681Y50269D01*
X22591Y50345D01*
X22489Y50405D01*
X22020Y50622D01*
X21531Y50789D01*
X21028Y50909D01*
X20516Y50982D01*
X20002Y51006D01*
Y60007D01*
G37*
G36*
Y79983D02*X20863Y80051D01*
X21705Y80253D01*
X22505Y80584D01*
X23243Y81037D01*
X23901Y81599D01*
X24463Y82257D01*
X24764Y82749D01*
Y80363D01*
X24589Y80158D01*
X23939Y79098D01*
X23463Y77949D01*
X23173Y76740D01*
X23076Y75500D01*
X23173Y74260D01*
X23463Y73051D01*
X23939Y71902D01*
X24558Y70892D01*
X24465Y70931D01*
X24235Y70986D01*
X24000Y71000D01*
X20002Y70993D01*
Y79983D01*
G37*
G36*
Y100007D02*X23228Y100012D01*
X23302Y99835D01*
X23458Y99580D01*
X23652Y99352D01*
X23880Y99158D01*
X24135Y99002D01*
X24411Y98887D01*
X24702Y98818D01*
X24764Y98814D01*
Y96117D01*
X24508Y95817D01*
X23850Y94743D01*
X23368Y93580D01*
X23074Y92355D01*
X22975Y91100D01*
X23056Y90078D01*
X22505Y90416D01*
X21705Y90747D01*
X20863Y90949D01*
X20002Y91017D01*
Y100007D01*
G37*
G36*
Y117591D02*X21862Y118038D01*
X24142Y118982D01*
X24764Y119364D01*
Y114582D01*
X24702Y114582D01*
X24411Y114513D01*
X24135Y114398D01*
X23880Y114242D01*
X23652Y114048D01*
X23458Y113820D01*
X23302Y113565D01*
X23187Y113289D01*
X23118Y112998D01*
X23100Y112700D01*
X23102Y110998D01*
X20002Y110993D01*
Y117591D01*
G37*
G36*
X15507Y60080D02*X15535Y60069D01*
X15765Y60014D01*
X16000Y60000D01*
X20002Y60007D01*
Y51006D01*
X20000Y51006D01*
X19484Y50982D01*
X18972Y50909D01*
X18469Y50789D01*
X17980Y50622D01*
X17508Y50410D01*
X17407Y50349D01*
X17316Y50272D01*
X17239Y50182D01*
X17177Y50080D01*
X17131Y49971D01*
X17103Y49855D01*
X17094Y49737D01*
X17103Y49619D01*
X17130Y49503D01*
X17176Y49393D01*
X17238Y49292D01*
X17314Y49202D01*
X17405Y49124D01*
X17506Y49062D01*
X17615Y49016D01*
X17731Y48989D01*
X17849Y48979D01*
X17968Y48988D01*
X18083Y49016D01*
X18192Y49063D01*
X18532Y49221D01*
X18888Y49342D01*
X19253Y49430D01*
X19625Y49482D01*
X20000Y49500D01*
X20002Y49500D01*
Y41500D01*
X20000Y41500D01*
X19625Y41518D01*
X19253Y41570D01*
X18888Y41658D01*
X18532Y41779D01*
X18190Y41933D01*
X18082Y41980D01*
X17967Y42007D01*
X17849Y42017D01*
X17732Y42007D01*
X17617Y41979D01*
X17508Y41934D01*
X17407Y41872D01*
X17318Y41795D01*
X17241Y41705D01*
X17180Y41605D01*
X17135Y41496D01*
X17107Y41381D01*
X17098Y41263D01*
X17108Y41145D01*
X17135Y41031D01*
X17181Y40922D01*
X17243Y40821D01*
X17319Y40731D01*
X17409Y40655D01*
X17511Y40595D01*
X17980Y40378D01*
X18469Y40211D01*
X18972Y40091D01*
X19484Y40018D01*
X20000Y39994D01*
X20002Y39994D01*
Y32409D01*
X19461Y32539D01*
X17000Y32732D01*
X15507Y32615D01*
Y42640D01*
X15529Y42631D01*
X15645Y42603D01*
X15763Y42594D01*
X15881Y42603D01*
X15997Y42630D01*
X16107Y42676D01*
X16208Y42738D01*
X16298Y42814D01*
X16376Y42905D01*
X16438Y43006D01*
X16484Y43115D01*
X16511Y43231D01*
X16521Y43349D01*
X16512Y43468D01*
X16484Y43583D01*
X16437Y43692D01*
X16279Y44032D01*
X16158Y44388D01*
X16070Y44753D01*
X16018Y45125D01*
X16000Y45500D01*
X16018Y45875D01*
X16070Y46247D01*
X16158Y46612D01*
X16279Y46968D01*
X16433Y47310D01*
X16480Y47418D01*
X16507Y47533D01*
X16517Y47651D01*
X16507Y47768D01*
X16479Y47883D01*
X16434Y47992D01*
X16372Y48093D01*
X16295Y48182D01*
X16205Y48259D01*
X16105Y48320D01*
X15996Y48365D01*
X15881Y48393D01*
X15763Y48402D01*
X15645Y48392D01*
X15531Y48365D01*
X15507Y48355D01*
Y60080D01*
G37*
G36*
Y82305D02*X15537Y82257D01*
X16099Y81599D01*
X16757Y81037D01*
X17495Y80584D01*
X18295Y80253D01*
X19137Y80051D01*
X20000Y79983D01*
X20002Y79983D01*
Y70993D01*
X15765Y70986D01*
X15535Y70931D01*
X15507Y70920D01*
Y82305D01*
G37*
G36*
Y100080D02*X15535Y100069D01*
X15765Y100014D01*
X16000Y100000D01*
X20002Y100007D01*
Y91017D01*
X20000Y91017D01*
X19137Y90949D01*
X18295Y90747D01*
X17495Y90416D01*
X16757Y89963D01*
X16099Y89401D01*
X15537Y88743D01*
X15507Y88695D01*
Y100080D01*
G37*
G36*
Y117385D02*X17000Y117268D01*
X19461Y117461D01*
X20002Y117591D01*
Y110993D01*
X15765Y110986D01*
X15535Y110931D01*
X15507Y110920D01*
Y117385D01*
G37*
G36*
X2500Y22978D02*Y127022D01*
X2982Y125858D01*
X4272Y123753D01*
X5876Y121876D01*
X7753Y120272D01*
X9858Y118982D01*
X12138Y118038D01*
X14539Y117461D01*
X15507Y117385D01*
Y110920D01*
X15317Y110841D01*
X15116Y110717D01*
X14936Y110564D01*
X14783Y110384D01*
X14659Y110183D01*
X14569Y109965D01*
X14514Y109735D01*
X14500Y109500D01*
X14514Y101265D01*
X14569Y101035D01*
X14659Y100817D01*
X14783Y100616D01*
X14936Y100436D01*
X15116Y100283D01*
X15317Y100159D01*
X15507Y100080D01*
Y88695D01*
X15084Y88005D01*
X14753Y87205D01*
X14551Y86363D01*
X14483Y85500D01*
X14551Y84637D01*
X14753Y83795D01*
X15084Y82995D01*
X15507Y82305D01*
Y70920D01*
X15317Y70841D01*
X15116Y70717D01*
X14936Y70564D01*
X14783Y70384D01*
X14659Y70183D01*
X14569Y69965D01*
X14514Y69735D01*
X14500Y69500D01*
X14514Y61265D01*
X14569Y61035D01*
X14659Y60817D01*
X14783Y60616D01*
X14936Y60436D01*
X15116Y60283D01*
X15317Y60159D01*
X15507Y60080D01*
Y48355D01*
X15422Y48319D01*
X15321Y48257D01*
X15231Y48181D01*
X15155Y48091D01*
X15095Y47989D01*
X14878Y47520D01*
X14711Y47031D01*
X14591Y46528D01*
X14518Y46016D01*
X14494Y45500D01*
X14518Y44984D01*
X14591Y44472D01*
X14711Y43969D01*
X14878Y43480D01*
X15090Y43008D01*
X15151Y42907D01*
X15228Y42816D01*
X15318Y42739D01*
X15420Y42677D01*
X15507Y42640D01*
Y32615D01*
X14539Y32539D01*
X12138Y31962D01*
X9858Y31018D01*
X7753Y29728D01*
X5876Y28124D01*
X4272Y26247D01*
X2982Y24142D01*
X2500Y22978D01*
G37*
G36*
X117000Y14807D02*Y27441D01*
X117005Y27500D01*
X116986Y27735D01*
X116931Y27965D01*
X116841Y28183D01*
X116717Y28384D01*
X116564Y28564D01*
X116519Y28602D01*
X112790Y32331D01*
X112800Y32500D01*
X112779Y32861D01*
X112709Y33150D01*
X112761Y33106D01*
X113157Y32863D01*
X113586Y32686D01*
X114037Y32577D01*
X114500Y32541D01*
X114963Y32577D01*
X115414Y32686D01*
X115843Y32863D01*
X116239Y33106D01*
X116592Y33408D01*
X116894Y33761D01*
X117137Y34157D01*
X117314Y34586D01*
X117423Y35037D01*
X117450Y35500D01*
X117423Y35963D01*
X117314Y36414D01*
X117137Y36843D01*
X116894Y37239D01*
X116592Y37592D01*
X116239Y37894D01*
X115843Y38137D01*
X115414Y38314D01*
X114963Y38423D01*
X114500Y38459D01*
X114037Y38423D01*
X113586Y38314D01*
X113157Y38137D01*
X112761Y37894D01*
X112408Y37592D01*
X112106Y37239D01*
X111863Y36843D01*
X111686Y36414D01*
X111577Y35963D01*
X111541Y35500D01*
X111577Y35037D01*
X111686Y34586D01*
X111749Y34432D01*
X111547Y34556D01*
X111213Y34694D01*
X110861Y34779D01*
X110500Y34807D01*
X110139Y34779D01*
X109787Y34694D01*
X109453Y34556D01*
X109144Y34366D01*
X108869Y34131D01*
X108634Y33856D01*
X108500Y33638D01*
Y41500D01*
X112329D01*
X112408Y41408D01*
X112761Y41106D01*
X113157Y40863D01*
X113586Y40686D01*
X114037Y40577D01*
X114500Y40541D01*
X114963Y40577D01*
X115414Y40686D01*
X115843Y40863D01*
X116239Y41106D01*
X116592Y41408D01*
X116671Y41500D01*
X161000D01*
Y29621D01*
X160379Y29000D01*
X160244D01*
X160131Y29131D01*
X159856Y29366D01*
X159547Y29556D01*
X159213Y29694D01*
X158861Y29779D01*
X158500Y29807D01*
X158139Y29779D01*
X157787Y29694D01*
X157453Y29556D01*
X157144Y29366D01*
X156869Y29131D01*
X156634Y28856D01*
X156444Y28547D01*
X156306Y28213D01*
X156221Y27861D01*
X156193Y27500D01*
X156221Y27139D01*
X156306Y26787D01*
X156444Y26453D01*
X156634Y26144D01*
X156869Y25869D01*
X157144Y25634D01*
X157453Y25444D01*
X157787Y25306D01*
X158139Y25221D01*
X158500Y25193D01*
X158861Y25221D01*
X159213Y25306D01*
X159547Y25444D01*
X159856Y25634D01*
X160131Y25869D01*
X160244Y26000D01*
X160941D01*
X161000Y25995D01*
X161235Y26014D01*
X161235Y26014D01*
X161465Y26069D01*
X161683Y26159D01*
X161884Y26283D01*
X162064Y26436D01*
X162102Y26481D01*
X163519Y27898D01*
X163564Y27936D01*
X163717Y28115D01*
X163717Y28116D01*
X163841Y28317D01*
X163931Y28535D01*
X163986Y28765D01*
X164005Y29000D01*
X164000Y29059D01*
Y41500D01*
X165000D01*
Y28121D01*
X161981Y25102D01*
X161936Y25064D01*
X161783Y24884D01*
X161659Y24683D01*
X161569Y24465D01*
X161514Y24235D01*
X161514Y24235D01*
X161495Y24000D01*
X161500Y23941D01*
Y19244D01*
X161369Y19131D01*
X161134Y18856D01*
X160944Y18547D01*
X160806Y18213D01*
X160721Y17861D01*
X160693Y17500D01*
X160721Y17139D01*
X160806Y16787D01*
X160944Y16453D01*
X161134Y16144D01*
X161369Y15869D01*
X161644Y15634D01*
X161953Y15444D01*
X162287Y15306D01*
X162639Y15221D01*
X163000Y15193D01*
X163361Y15221D01*
X163713Y15306D01*
X164047Y15444D01*
X164356Y15634D01*
X164631Y15869D01*
X164866Y16144D01*
X165000Y16362D01*
Y1500D01*
X63000D01*
Y24862D01*
X63134Y24644D01*
X63369Y24369D01*
X63644Y24134D01*
X63953Y23944D01*
X64287Y23806D01*
X64639Y23721D01*
X65000Y23693D01*
X65361Y23721D01*
X65480Y23750D01*
X73412D01*
X73500Y23743D01*
X73853Y23771D01*
X73853Y23771D01*
X74197Y23854D01*
X74525Y23989D01*
X74827Y24174D01*
X75096Y24404D01*
X75153Y24471D01*
X76029Y25347D01*
X76096Y25404D01*
X76326Y25673D01*
X76326Y25673D01*
X76511Y25975D01*
X76646Y26303D01*
X76729Y26647D01*
X76757Y27000D01*
X76750Y27088D01*
Y28696D01*
X76824Y28816D01*
X76980Y29194D01*
X77076Y29592D01*
X77100Y30000D01*
X77076Y30408D01*
X76980Y30806D01*
X76824Y31184D01*
X76610Y31533D01*
X76344Y31844D01*
X76033Y32110D01*
X75684Y32324D01*
X75306Y32480D01*
X74908Y32576D01*
X74500Y32608D01*
X74092Y32576D01*
X73694Y32480D01*
X73316Y32324D01*
X72967Y32110D01*
X72656Y31844D01*
X72390Y31533D01*
X72254Y31310D01*
X72355Y31731D01*
X72400Y32500D01*
X72355Y33269D01*
X72175Y34019D01*
X71879Y34731D01*
X71476Y35389D01*
X70976Y35976D01*
X70389Y36476D01*
X69731Y36879D01*
X69019Y37175D01*
X68269Y37355D01*
X67500Y37415D01*
X66731Y37355D01*
X65981Y37175D01*
X65269Y36879D01*
X64611Y36476D01*
X64024Y35976D01*
X63524Y35389D01*
X63500Y35351D01*
Y36862D01*
X63556Y36953D01*
X63694Y37287D01*
X63779Y37639D01*
X63800Y38000D01*
X63779Y38361D01*
X63694Y38713D01*
X63556Y39047D01*
X63366Y39356D01*
X63131Y39631D01*
X63000Y39744D01*
Y41500D01*
X92329D01*
X92106Y41239D01*
X91863Y40843D01*
X91686Y40414D01*
X91577Y39963D01*
X91541Y39500D01*
X91577Y39037D01*
X91686Y38586D01*
X91863Y38157D01*
X92106Y37761D01*
X92408Y37408D01*
X92761Y37106D01*
X93157Y36863D01*
X93586Y36686D01*
X94037Y36577D01*
X94500Y36541D01*
X94963Y36577D01*
X95414Y36686D01*
X95843Y36863D01*
X96239Y37106D01*
X96592Y37408D01*
X96894Y37761D01*
X97137Y38157D01*
X97314Y38586D01*
X97423Y39037D01*
X97450Y39500D01*
X97423Y39963D01*
X97314Y40414D01*
X97137Y40843D01*
X96894Y41239D01*
X96671Y41500D01*
X103000D01*
Y34744D01*
X102869Y34631D01*
X102634Y34356D01*
X102444Y34047D01*
X102306Y33713D01*
X102221Y33361D01*
X102193Y33000D01*
X102221Y32639D01*
X102306Y32287D01*
X102444Y31953D01*
X102634Y31644D01*
X102869Y31369D01*
X103144Y31134D01*
X103362Y31000D01*
X101244D01*
X101131Y31131D01*
X100856Y31366D01*
X100547Y31556D01*
X100213Y31694D01*
X99861Y31779D01*
X99500Y31807D01*
X99139Y31779D01*
X98787Y31694D01*
X98453Y31556D01*
X98144Y31366D01*
X97869Y31131D01*
X97634Y30856D01*
X97444Y30547D01*
X97306Y30213D01*
X97221Y29861D01*
X97193Y29500D01*
X97221Y29139D01*
X97306Y28787D01*
X97444Y28453D01*
X97634Y28144D01*
X97869Y27869D01*
X98144Y27634D01*
X98453Y27444D01*
X98787Y27306D01*
X99139Y27221D01*
X99500Y27193D01*
X99861Y27221D01*
X100213Y27306D01*
X100547Y27444D01*
X100856Y27634D01*
X101131Y27869D01*
X101244Y28000D01*
X106941D01*
X107000Y27995D01*
X107059Y28000D01*
X109379D01*
X112000Y25379D01*
Y11559D01*
X111995Y11500D01*
X112014Y11265D01*
X112069Y11035D01*
X112159Y10817D01*
X112283Y10616D01*
X112436Y10436D01*
X112481Y10398D01*
X113898Y8981D01*
X113936Y8936D01*
X114116Y8783D01*
X114317Y8659D01*
X114535Y8569D01*
X114765Y8514D01*
X115000Y8495D01*
X115059Y8500D01*
X121756D01*
X121869Y8369D01*
X122144Y8134D01*
X122453Y7944D01*
X122787Y7806D01*
X123139Y7721D01*
X123500Y7693D01*
X123861Y7721D01*
X124213Y7806D01*
X124547Y7944D01*
X124856Y8134D01*
X125131Y8369D01*
X125366Y8644D01*
X125556Y8953D01*
X125694Y9287D01*
X125779Y9639D01*
X125800Y10000D01*
X125779Y10361D01*
X125694Y10713D01*
X125556Y11047D01*
X125366Y11356D01*
X125131Y11631D01*
X124856Y11866D01*
X124547Y12056D01*
X124213Y12194D01*
X123861Y12279D01*
X123500Y12307D01*
X123139Y12279D01*
X122787Y12194D01*
X122453Y12056D01*
X122144Y11866D01*
X121869Y11631D01*
X121756Y11500D01*
X119075D01*
X119194Y11787D01*
X119279Y12139D01*
X119300Y12500D01*
X119279Y12861D01*
X119194Y13213D01*
X119056Y13547D01*
X118866Y13856D01*
X118631Y14131D01*
X118356Y14366D01*
X118047Y14556D01*
X117713Y14694D01*
X117361Y14779D01*
X117000Y14807D01*
G37*
G54D30*X168500Y44000D02*Y72500D01*
Y78000D02*Y71000D01*
Y76000D02*Y81500D01*
X162000Y84000D02*X177000Y99000D01*
X177500Y49000D02*Y44000D01*
X168500Y35000D01*
Y29500D01*
X163000Y17500D02*Y24000D01*
X168500Y29500D01*
X158500Y27500D02*X161000D01*
X162500Y29000D01*
Y47000D01*
X160500Y49000D01*
X153000D01*
X115500Y84000D02*X162000D01*
X104500Y45500D02*Y33000D01*
X99500Y29500D02*X105500D01*
X107000Y31000D02*Y48500D01*
Y29500D02*Y32000D01*
X100000Y47000D02*X103000D01*
X104500Y45500D01*
X109000Y52500D02*Y50500D01*
X108000Y49500D02*X109000Y50500D01*
X107000Y48500D02*X109000Y50500D01*
X110500Y32500D02*X112500Y30500D01*
X115500Y14000D02*X117000Y12500D01*
X113500Y26000D02*Y11500D01*
X115000Y10000D01*
X123500D01*
X115500Y27500D02*Y14000D01*
X116250Y13250D01*
X104000Y29500D02*X110000D01*
G54D31*X61500Y38000D02*Y28000D01*
G54D32*X65000Y26000D02*X73500D01*
X74500Y27000D01*
Y30000D01*
G54D30*X110000Y29500D02*X113500Y26000D01*
X110750Y32250D02*X115500Y27500D01*
X20000Y85500D02*X25000D01*
X27000Y83500D01*
X39000D01*
G54D32*X36500D02*X52000D01*
X43500Y87000D02*X64500D01*
X67500Y84000D01*
X52000Y83500D02*X56000Y79500D01*
Y72500D01*
X67500Y84000D02*Y72500D01*
X31000Y106700D02*X38300D01*
X40500Y104500D01*
Y90000D01*
X43500Y87000D01*
G54D29*G36*
X106000Y116500D02*Y108500D01*
X114000D01*
Y116500D01*
X106000D01*
G37*
G54D33*X182500Y133500D03*
G54D34*X85000Y139500D03*
G54D33*X182500Y17500D03*
G54D34*X31000Y75500D03*
Y59900D03*
Y44300D03*
G54D29*G36*
X25000Y112700D02*Y100700D01*
X37000D01*
Y112700D01*
X25000D01*
G37*
G54D34*X31000Y91100D03*
G54D29*G36*
X16000Y109500D02*Y101500D01*
X24000D01*
Y109500D01*
X16000D01*
G37*
G54D35*X20000Y85500D03*
G54D33*X17000Y133000D03*
G54D29*G36*
X16000Y69500D02*Y61500D01*
X24000D01*
Y69500D01*
X16000D01*
G37*
G54D35*X20000Y45500D03*
G54D33*X17000Y17000D03*
G54D36*X67500Y32500D03*
X55500D03*
G54D35*X60000Y112500D03*
G54D34*X85000Y85500D03*
G54D29*G36*
X64100Y75900D02*Y69100D01*
X70900D01*
Y75900D01*
X64100D01*
G37*
G36*
X52100D02*Y69100D01*
X58900D01*
Y75900D01*
X52100D01*
G37*
G54D37*X155000Y39000D03*
X163000Y17500D03*
X123500Y10000D03*
X158000Y36500D03*
X152000D03*
X158500Y27500D03*
X177500Y49000D03*
X153000D03*
X168500Y44000D03*
X152000Y42000D03*
X158000D03*
X141000Y56000D03*
X168500Y81500D03*
X158500Y55500D03*
X141500Y109500D03*
Y89000D03*
X147000Y109500D03*
Y89000D03*
Y99500D03*
X177000Y99000D03*
X104000Y54500D03*
Y58000D03*
X128500Y53500D03*
X91500Y66000D03*
X110500Y32500D03*
Y46500D03*
X99500Y29500D03*
X109000Y52500D03*
X104500Y33000D03*
X100000Y47000D03*
X91500Y69500D03*
X115500Y84000D03*
X117000Y12500D03*
X97500Y15500D03*
X101000Y8500D03*
Y5000D03*
X97500Y12000D03*
Y8500D03*
Y5000D03*
X77000Y8500D03*
Y5000D03*
X80500Y15500D03*
X61500Y28000D03*
Y38000D03*
X74500Y30000D03*
X65000Y26000D03*
X80500Y12000D03*
Y8500D03*
Y5000D03*
G54D38*G54D39*G54D40*G54D36*G54D41*G54D40*G54D42*G54D39*G54D40*G54D39*G54D40*G54D43*G54D39*G54D36*G54D43*M02*
