M48
INCH
T50C0.012
T49C0.038
T48C0.060
T47C0.068
T46C0.129
T45C0.048
%
T50
X006150Y003800
X006150Y002800
X006500Y002600
X007450Y003000
X007700Y000850
X007700Y000500
X008050Y001550
X008050Y001200
X008050Y000850
X008050Y000500
X009150Y006950
X009150Y006600
X009750Y001550
X009750Y001200
X009750Y000850
X009750Y000500
X009950Y002950
X010000Y004700
X010100Y000850
X010100Y000500
X010400Y005800
X010400Y005450
X010450Y003300
X010900Y005250
X011050Y004650
X011050Y003250
X011550Y008400
X011700Y001250
X012350Y001000
X012850Y005350
X014100Y005600
X014150Y010950
X014150Y008900
X014700Y010950
X014700Y009950
X014700Y008900
X015200Y004200
X015200Y003650
X015300Y004900
X015500Y003900
X015800Y004200
X015800Y003650
X015850Y005550
X015850Y002750
X016300Y001750
X016850Y008150
X016850Y004400
X017700Y009900
X017750Y004900
T49
X005550Y007250
X005550Y003250
X006750Y007250
X006750Y003250
T45
X002000Y010550
X002000Y008550
X002000Y006550
X002000Y004550
X006000Y011250
X011000Y011250
T48
X003100Y010670
X003100Y009110
X003100Y007550
X003100Y005990
X003100Y004430
T47
X008500Y013950
X008500Y008550
T46
X001700Y013300
X001700Y001700
X018250Y013350
X018250Y001750
M30
