G04 start of page 11 for group -4015 idx -4015 *
G04 Title: (unknown), toppaste *
G04 Creator: pcb 4.0.2 *
G04 CreationDate: Thu Oct 28 15:11:31 2021 UTC *
G04 For: ndholmes *
G04 Format: Gerber/RS-274X *
G04 PCB-Dimensions (mil): 2000.00 1500.00 *
G04 PCB-Coordinate-Origin: lower left *
%MOIN*%
%FSLAX25Y25*%
%LNTOPPASTE*%
%ADD71C,0.0001*%
G54D71*G36*
X181048Y69516D02*Y64398D01*
X186952D01*
Y69516D01*
X181048D01*
G37*
G36*
Y76602D02*Y71484D01*
X186952D01*
Y76602D01*
X181048D01*
G37*
G36*
X122500Y58700D02*Y56300D01*
X126500D01*
Y58700D01*
X122500D01*
G37*
G36*
Y50900D02*Y48500D01*
X126500D01*
Y50900D01*
X122500D01*
G37*
G36*
X130700D02*Y48500D01*
X134700D01*
Y50900D01*
X130700D01*
G37*
G36*
Y54800D02*Y52400D01*
X134700D01*
Y54800D01*
X130700D01*
G37*
G36*
Y58700D02*Y56300D01*
X134700D01*
Y58700D01*
X130700D01*
G37*
G36*
X127516Y76452D02*X122398D01*
Y70548D01*
X127516D01*
Y76452D01*
G37*
G36*
X134602D02*X129484D01*
Y70548D01*
X134602D01*
Y76452D01*
G37*
G36*
Y67952D02*X129484D01*
Y62048D01*
X134602D01*
Y67952D01*
G37*
G36*
X127516D02*X122398D01*
Y62048D01*
X127516D01*
Y67952D01*
G37*
G36*
X181548Y94516D02*Y89398D01*
X187452D01*
Y94516D01*
X181548D01*
G37*
G36*
Y101602D02*Y96484D01*
X187452D01*
Y101602D01*
X181548D01*
G37*
G36*
X147000Y18500D02*Y16500D01*
X155500D01*
Y18500D01*
X147000D01*
G37*
G36*
Y23500D02*Y21500D01*
X155500D01*
Y23500D01*
X147000D01*
G37*
G36*
Y28500D02*Y26500D01*
X155500D01*
Y28500D01*
X147000D01*
G37*
G36*
Y33500D02*Y31500D01*
X155500D01*
Y33500D01*
X147000D01*
G37*
G36*
X120500D02*Y31500D01*
X129000D01*
Y33500D01*
X120500D01*
G37*
G36*
Y28500D02*Y26500D01*
X129000D01*
Y28500D01*
X120500D01*
G37*
G36*
Y23500D02*Y21500D01*
X129000D01*
Y23500D01*
X120500D01*
G37*
G36*
Y18500D02*Y16500D01*
X129000D01*
Y18500D01*
X120500D01*
G37*
G36*
X148516Y67952D02*X143398D01*
Y62048D01*
X148516D01*
Y67952D01*
G37*
G36*
X155602D02*X150484D01*
Y62048D01*
X155602D01*
Y67952D01*
G37*
G36*
X122500Y90700D02*Y87300D01*
X126500D01*
Y90700D01*
X122500D01*
G37*
G36*
Y82900D02*Y79500D01*
X126500D01*
Y82900D01*
X122500D01*
G37*
G36*
X130700Y86800D02*Y83400D01*
X134700D01*
Y86800D01*
X130700D01*
G37*
G36*
X155602Y58952D02*X150484D01*
Y53048D01*
X155602D01*
Y58952D01*
G37*
G36*
X148516D02*X143398D01*
Y53048D01*
X148516D01*
Y58952D01*
G37*
G36*
X181548Y44516D02*Y39398D01*
X187452D01*
Y44516D01*
X181548D01*
G37*
G36*
Y51602D02*Y46484D01*
X187452D01*
Y51602D01*
X181548D01*
G37*
G36*
X77750Y54250D02*Y48750D01*
X85250D01*
Y54250D01*
X77750D01*
G37*
G36*
Y41250D02*Y35750D01*
X85250D01*
Y41250D01*
X77750D01*
G37*
G36*
X142016Y43952D02*X136898D01*
Y38048D01*
X142016D01*
Y43952D01*
G37*
G36*
X149102D02*X143984D01*
Y38048D01*
X149102D01*
Y43952D01*
G37*
G36*
X161048Y33516D02*Y28398D01*
X166952D01*
Y33516D01*
X161048D01*
G37*
G36*
Y40602D02*Y35484D01*
X166952D01*
Y40602D01*
X161048D01*
G37*
G36*
X168576Y50112D02*Y48440D01*
X172120D01*
Y50112D01*
X168576D01*
G37*
G36*
Y53262D02*Y51588D01*
X172120D01*
Y53262D01*
X168576D01*
G37*
G36*
Y56412D02*Y54738D01*
X172120D01*
Y56412D01*
X168576D01*
G37*
G36*
Y59560D02*Y57888D01*
X172120D01*
Y59560D01*
X168576D01*
G37*
G36*
X161880D02*Y57888D01*
X165424D01*
Y59560D01*
X161880D01*
G37*
G36*
Y56412D02*Y54738D01*
X165424D01*
Y56412D01*
X161880D01*
G37*
G36*
Y53262D02*Y51588D01*
X165424D01*
Y53262D01*
X161880D01*
G37*
G36*
Y50112D02*Y48440D01*
X165424D01*
Y50112D01*
X161880D01*
G37*
G36*
X94000Y70700D02*Y68300D01*
X98000D01*
Y70700D01*
X94000D01*
G37*
G36*
Y66800D02*Y64400D01*
X98000D01*
Y66800D01*
X94000D01*
G37*
G36*
Y62900D02*Y60500D01*
X98000D01*
Y62900D01*
X94000D01*
G37*
G36*
X102200D02*Y60500D01*
X106200D01*
Y62900D01*
X102200D01*
G37*
G36*
Y66800D02*Y64400D01*
X106200D01*
Y66800D01*
X102200D01*
G37*
G36*
Y70700D02*Y68300D01*
X106200D01*
Y70700D01*
X102200D01*
G37*
G36*
X101048Y25602D02*Y20484D01*
X106952D01*
Y25602D01*
X101048D01*
G37*
G36*
Y18516D02*Y13398D01*
X106952D01*
Y18516D01*
X101048D01*
G37*
G36*
X70548Y25602D02*Y20484D01*
X76452D01*
Y25602D01*
X70548D01*
G37*
G36*
Y18516D02*Y13398D01*
X76452D01*
Y18516D01*
X70548D01*
G37*
G36*
X96796Y26795D02*X93016D01*
Y18921D01*
X96796D01*
Y26795D01*
G37*
G36*
X90890D02*X87110D01*
Y11205D01*
X90890D01*
Y26795D01*
G37*
G36*
X93725Y16086D02*X84275D01*
Y4746D01*
X93725D01*
Y16086D01*
G37*
G36*
X90885Y18926D02*X89465Y17506D01*
X92305Y14666D01*
X93725Y16086D01*
X90885Y18926D01*
G37*
G36*
X88535Y17506D02*X87115Y18926D01*
X84275Y16086D01*
X85695Y14666D01*
X88535Y17506D01*
G37*
G36*
X84984Y26795D02*X81204D01*
Y18921D01*
X84984D01*
Y26795D01*
G37*
G36*
X46299Y23807D02*X43937D01*
Y17705D01*
X46299D01*
Y23807D01*
G37*
G36*
X50236D02*X47874D01*
Y17705D01*
X50236D01*
Y23807D01*
G37*
G36*
X54173D02*X51811D01*
Y17705D01*
X54173D01*
Y23807D01*
G37*
G36*
X58110D02*X55748D01*
Y17705D01*
X58110D01*
Y23807D01*
G37*
G36*
X42362Y9043D02*X37638D01*
Y1957D01*
X42362D01*
Y9043D01*
G37*
G36*
X64409D02*X59685D01*
Y1957D01*
X64409D01*
Y9043D01*
G37*
G36*
X145850Y85700D02*X140350D01*
Y77400D01*
X145850D01*
Y85700D01*
G37*
G36*
Y121600D02*X140350D01*
Y113300D01*
X145850D01*
Y121600D01*
G37*
G36*
X163650Y85700D02*X158150D01*
Y77400D01*
X163650D01*
Y85700D01*
G37*
G36*
Y121600D02*X158150D01*
Y113300D01*
X163650D01*
Y121600D01*
G37*
M02*
