G04 start of page 6 for group -4063 idx -4063 *
G04 Title: (unknown), componentmask *
G04 Creator: pcb 4.0.2 *
G04 CreationDate: Mon Aug 16 01:28:39 2021 UTC *
G04 For: ndholmes *
G04 Format: Gerber/RS-274X *
G04 PCB-Dimensions (mil): 1800.00 1500.00 *
G04 PCB-Coordinate-Origin: lower left *
%MOIN*%
%FSLAX25Y25*%
%LNTOPMASK*%
%ADD34C,0.0860*%
%ADD33C,0.0001*%
%ADD32C,0.1420*%
G54D32*X160000Y80000D03*
Y30000D03*
X159500Y55000D03*
X160000Y105000D03*
Y130000D03*
G54D33*G36*
X105700Y116800D02*Y108200D01*
X114300D01*
Y116800D01*
X105700D01*
G37*
G54D34*X60000Y112500D03*
G54D33*G36*
X68248Y69273D02*Y63555D01*
X74752D01*
Y69273D01*
X68248D01*
G37*
G36*
Y76359D02*Y70641D01*
X74752D01*
Y76359D01*
X68248D01*
G37*
G36*
X78700Y76500D02*Y73500D01*
X83300D01*
Y76500D01*
X78700D01*
G37*
G36*
Y68700D02*Y65700D01*
X83300D01*
Y68700D01*
X78700D01*
G37*
G36*
X78748Y51859D02*Y46141D01*
X85252D01*
Y51859D01*
X78748D01*
G37*
G36*
X90748Y58945D02*Y53227D01*
X97252D01*
Y58945D01*
X90748D01*
G37*
G36*
Y51859D02*Y46141D01*
X97252D01*
Y51859D01*
X90748D01*
G37*
G36*
X86900Y68700D02*Y65700D01*
X91500D01*
Y68700D01*
X86900D01*
G37*
G36*
Y72600D02*Y69600D01*
X91500D01*
Y72600D01*
X86900D01*
G37*
G36*
Y76500D02*Y73500D01*
X91500D01*
Y76500D01*
X86900D01*
G37*
G36*
X84316Y90752D02*X78598D01*
Y84248D01*
X84316D01*
Y90752D01*
G37*
G36*
X91402D02*X85684D01*
Y84248D01*
X91402D01*
Y90752D01*
G37*
G36*
X109900Y81200D02*Y78200D01*
X114500D01*
Y81200D01*
X109900D01*
G37*
G36*
Y85100D02*Y82100D01*
X114500D01*
Y85100D01*
X109900D01*
G37*
G36*
Y89000D02*Y86000D01*
X114500D01*
Y89000D01*
X109900D01*
G37*
G36*
X101700D02*Y86000D01*
X106300D01*
Y89000D01*
X101700D01*
G37*
G36*
Y85100D02*Y82100D01*
X106300D01*
Y85100D01*
X101700D01*
G37*
G36*
Y81200D02*Y78200D01*
X106300D01*
Y81200D01*
X101700D01*
G37*
G36*
X78748Y44773D02*Y39055D01*
X85252D01*
Y44773D01*
X78748D01*
G37*
G36*
X48748Y28816D02*Y23098D01*
X55252D01*
Y28816D01*
X48748D01*
G37*
G36*
Y35902D02*Y30184D01*
X55252D01*
Y35902D01*
X48748D01*
G37*
G36*
X77052Y25107D02*X74090D01*
Y18405D01*
X77052D01*
Y25107D01*
G37*
G36*
X80989D02*X78027D01*
Y18405D01*
X80989D01*
Y25107D01*
G37*
G36*
X84926D02*X81964D01*
Y18405D01*
X84926D01*
Y25107D01*
G37*
G36*
X88863D02*X85901D01*
Y18405D01*
X88863D01*
Y25107D01*
G37*
G36*
X73115Y10343D02*X67791D01*
Y2657D01*
X73115D01*
Y10343D01*
G37*
G36*
X95162D02*X89838D01*
Y2657D01*
X95162D01*
Y10343D01*
G37*
G36*
X48748Y45859D02*Y40141D01*
X55252D01*
Y45859D01*
X48748D01*
G37*
G36*
Y52945D02*Y47227D01*
X55252D01*
Y52945D01*
X48748D01*
G37*
M02*
