G04 start of page 2 for group 0 idx 0 *
G04 Title: (unknown), top *
G04 Creator: pcb 4.0.2 *
G04 CreationDate: Mon Aug 16 01:28:39 2021 UTC *
G04 For: ndholmes *
G04 Format: Gerber/RS-274X *
G04 PCB-Dimensions (mil): 1800.00 1500.00 *
G04 PCB-Coordinate-Origin: lower left *
%MOIN*%
%FSLAX25Y25*%
%LNTOP*%
%ADD19C,0.0480*%
%ADD18C,0.0960*%
%ADD17C,0.0120*%
%ADD16C,0.0260*%
%ADD15C,0.0800*%
%ADD14C,0.1360*%
%ADD13C,0.0100*%
%ADD12C,0.0250*%
%ADD11C,0.0001*%
G54D11*G36*
X2000Y12500D02*X178000D01*
Y2000D01*
X2000D01*
Y12500D01*
G37*
G54D12*X88500Y87457D02*X88543Y87500D01*
G54D13*X81000Y87043D02*X81457Y87500D01*
X89200Y75000D02*Y87343D01*
X88543Y88000D01*
X89200Y87343D02*X93657D01*
X81000Y75000D02*Y87043D01*
G54D12*X89200Y71100D02*X84600D01*
X84500Y71000D01*
X74000D01*
X71500Y73500D01*
G54D13*X81000Y79500D02*X67500D01*
X65000Y77000D01*
Y67500D01*
X66000Y66500D01*
X71414D01*
X81000Y67200D02*X72286D01*
X71500Y66414D01*
X71414Y66500D02*X71500Y66414D01*
G54D12*X81457Y87500D02*Y106043D01*
X88543Y87500D02*Y106043D01*
X81457D02*X75000Y112500D01*
X60000D01*
X88543Y106043D02*X95000Y112500D01*
G54D13*X93657Y87343D02*X97500Y83500D01*
X96300Y79700D02*X94000Y82000D01*
X97500Y83500D02*X103900D01*
X104000Y83600D01*
X106900D01*
X108000Y82500D01*
Y80500D01*
X109000Y79500D01*
X112000D01*
X112300Y83500D02*X112200Y83600D01*
X112000Y79500D02*X112200Y79700D01*
X104000D02*X96300D01*
G54D12*X94000Y91000D02*X146000D01*
G54D13*X112200Y83600D02*X117600D01*
X119500Y85500D01*
Y91000D01*
G54D12*X89200Y67200D02*X147200D01*
X160000Y80000D01*
X94000Y49000D02*X153500D01*
X159500Y55000D01*
G54D13*X87500Y21874D02*X87382Y21756D01*
G54D12*X82000Y36500D02*Y41914D01*
X75500Y32500D02*Y21827D01*
X75571Y21756D01*
X79508D02*Y33992D01*
X74000Y39500D01*
X75500Y25500D02*X52457D01*
X52000Y25957D01*
X71543Y41957D02*X76500Y37000D01*
X52086Y50000D02*X52000Y50086D01*
Y43000D02*Y33043D01*
X87313Y21687D02*Y48813D01*
X160000Y130000D02*X144500D01*
X146000Y91000D02*X160000Y105000D01*
X144500Y130000D02*X127000Y112500D01*
X95000D02*X127000D01*
X71543Y66457D02*Y41957D01*
Y50000D02*X52086D01*
X89200Y67200D02*Y60886D01*
X94000Y56086D01*
X82000Y49000D02*X95500D01*
X87313Y48813D02*X87500Y49000D01*
G54D14*X160000Y80000D03*
Y30000D03*
X159500Y55000D03*
X160000Y105000D03*
Y130000D03*
G54D11*G36*
X106000Y116500D02*Y108500D01*
X114000D01*
Y116500D01*
X106000D01*
G37*
G54D15*X60000Y112500D03*
G54D11*G36*
X68548Y68973D02*Y63855D01*
X74452D01*
Y68973D01*
X68548D01*
G37*
G36*
Y76059D02*Y70941D01*
X74452D01*
Y76059D01*
X68548D01*
G37*
G36*
X79000Y76200D02*Y73800D01*
X83000D01*
Y76200D01*
X79000D01*
G37*
G36*
Y68400D02*Y66000D01*
X83000D01*
Y68400D01*
X79000D01*
G37*
G36*
X79048Y51559D02*Y46441D01*
X84952D01*
Y51559D01*
X79048D01*
G37*
G36*
X91048Y58645D02*Y53527D01*
X96952D01*
Y58645D01*
X91048D01*
G37*
G36*
Y51559D02*Y46441D01*
X96952D01*
Y51559D01*
X91048D01*
G37*
G36*
X87200Y68400D02*Y66000D01*
X91200D01*
Y68400D01*
X87200D01*
G37*
G36*
Y72300D02*Y69900D01*
X91200D01*
Y72300D01*
X87200D01*
G37*
G36*
Y76200D02*Y73800D01*
X91200D01*
Y76200D01*
X87200D01*
G37*
G36*
X84016Y90452D02*X78898D01*
Y84548D01*
X84016D01*
Y90452D01*
G37*
G36*
X91102D02*X85984D01*
Y84548D01*
X91102D01*
Y90452D01*
G37*
G36*
X110200Y80900D02*Y78500D01*
X114200D01*
Y80900D01*
X110200D01*
G37*
G36*
Y84800D02*Y82400D01*
X114200D01*
Y84800D01*
X110200D01*
G37*
G36*
Y88700D02*Y86300D01*
X114200D01*
Y88700D01*
X110200D01*
G37*
G36*
X102000D02*Y86300D01*
X106000D01*
Y88700D01*
X102000D01*
G37*
G36*
Y84800D02*Y82400D01*
X106000D01*
Y84800D01*
X102000D01*
G37*
G36*
Y80900D02*Y78500D01*
X106000D01*
Y80900D01*
X102000D01*
G37*
G36*
X79048Y44473D02*Y39355D01*
X84952D01*
Y44473D01*
X79048D01*
G37*
G36*
X49048Y28516D02*Y23398D01*
X54952D01*
Y28516D01*
X49048D01*
G37*
G36*
Y35602D02*Y30484D01*
X54952D01*
Y35602D01*
X49048D01*
G37*
G36*
X76752Y24807D02*X74390D01*
Y18705D01*
X76752D01*
Y24807D01*
G37*
G36*
X80689D02*X78327D01*
Y18705D01*
X80689D01*
Y24807D01*
G37*
G36*
X84626D02*X82264D01*
Y18705D01*
X84626D01*
Y24807D01*
G37*
G36*
X88563D02*X86201D01*
Y18705D01*
X88563D01*
Y24807D01*
G37*
G36*
X72815Y10043D02*X68091D01*
Y2957D01*
X72815D01*
Y10043D01*
G37*
G36*
X94862D02*X90138D01*
Y2957D01*
X94862D01*
Y10043D01*
G37*
G36*
X49048Y45559D02*Y40441D01*
X54952D01*
Y45559D01*
X49048D01*
G37*
G36*
Y52645D02*Y47527D01*
X54952D01*
Y52645D01*
X49048D01*
G37*
G54D16*X77000Y71000D03*
X82000Y36500D03*
X75500Y32500D03*
X81500Y96000D03*
X94000Y82000D03*
Y91000D03*
X84500Y71000D03*
X75500Y29000D03*
G54D17*G54D18*G54D19*M02*
