G04 start of page 8 for group -4079 idx -4079 *
G04 Title: (unknown), topsilk *
G04 Creator: pcb 4.0.2 *
G04 CreationDate: Mon Aug 16 01:28:39 2021 UTC *
G04 For: ndholmes *
G04 Format: Gerber/RS-274X *
G04 PCB-Dimensions (mil): 1800.00 1500.00 *
G04 PCB-Coordinate-Origin: lower left *
%MOIN*%
%FSLAX25Y25*%
%LNTOPSILK*%
%ADD40C,0.0084*%
%ADD39C,0.0080*%
%ADD38C,0.0100*%
G54D38*X179500Y500D02*X500D01*
Y149500D01*
X179500D01*
Y500D01*
G54D39*X116500Y76500D02*X118500Y74500D01*
X116500D02*X118500Y76500D01*
X116500Y75500D02*X118500D01*
X117500Y76500D02*Y74500D01*
X93500Y64000D02*X95500Y62000D01*
X93500D02*X95500Y64000D01*
X93500Y63000D02*X95500D01*
X94500Y64000D02*Y62000D01*
X136500Y108620D02*X138380D01*
X137440D02*Y101100D01*
X136500D02*X138380D01*
X140636Y108620D02*Y101100D01*
Y108620D02*X145336Y101100D01*
Y108620D02*Y101100D01*
X147592Y104860D02*X151352D01*
X131000Y85740D02*Y80100D01*
Y85740D02*X132316Y87620D01*
X134384D01*
X135700Y85740D01*
Y80100D01*
X131000Y83860D02*X135700D01*
X137956Y87620D02*Y80100D01*
Y87620D02*X140776Y83860D01*
X143596Y87620D01*
Y80100D01*
X146792Y87620D02*Y80100D01*
X145852Y87620D02*X149612D01*
X150552Y86680D01*
Y84800D01*
X149612Y83860D02*X150552Y84800D01*
X146792Y83860D02*X149612D01*
X131000Y76680D02*Y71040D01*
Y76680D02*X131940Y77620D01*
X133820D01*
X134760Y76680D01*
Y71040D01*
X133820Y70100D02*X134760Y71040D01*
X131940Y70100D02*X133820D01*
X131000Y71040D02*X131940Y70100D01*
X137016Y77620D02*Y71040D01*
X137956Y70100D01*
X139836D01*
X140776Y71040D01*
Y77620D02*Y71040D01*
X143032Y77620D02*X146792D01*
X144912D02*Y70100D01*
X11000Y144000D02*Y142500D01*
X11500Y142000D01*
X12000D01*
X12500Y142500D01*
Y144000D02*Y142500D01*
X13000Y142000D01*
X13500D01*
X14000Y142500D01*
Y144000D02*Y142500D01*
X15200Y144000D02*Y142500D01*
X15700Y142000D01*
X16200D01*
X16700Y142500D01*
Y144000D02*Y142500D01*
X17200Y142000D01*
X17700D01*
X18200Y142500D01*
Y144000D02*Y142500D01*
X19400Y144000D02*Y142500D01*
X19900Y142000D01*
X20400D01*
X20900Y142500D01*
Y144000D02*Y142500D01*
X21400Y142000D01*
X21900D01*
X22400Y142500D01*
Y144000D02*Y142500D01*
X23600Y142000D02*X24100D01*
X25300Y145000D02*Y144900D01*
Y143500D02*Y142000D01*
X27800Y144000D02*X28300Y143500D01*
X26800Y144000D02*X27800D01*
X26300Y143500D02*X26800Y144000D01*
X26300Y143500D02*Y142500D01*
X26800Y142000D01*
X28300Y144000D02*Y142500D01*
X28800Y142000D01*
X26800D02*X27800D01*
X28300Y142500D01*
X30500Y142000D02*X32000D01*
X32500Y142500D01*
X32000Y143000D02*X32500Y142500D01*
X30500Y143000D02*X32000D01*
X30000Y143500D02*X30500Y143000D01*
X30000Y143500D02*X30500Y144000D01*
X32000D01*
X32500Y143500D01*
X30000Y142500D02*X30500Y142000D01*
X34200Y144000D02*X35700D01*
X33700Y143500D02*X34200Y144000D01*
X33700Y143500D02*Y142500D01*
X34200Y142000D01*
X35700D01*
X38400Y144000D02*X38900Y143500D01*
X37400Y144000D02*X38400D01*
X36900Y143500D02*X37400Y144000D01*
X36900Y143500D02*Y142500D01*
X37400Y142000D01*
X38900Y144000D02*Y142500D01*
X39400Y142000D01*
X37400D02*X38400D01*
X38900Y142500D01*
X40600Y146000D02*Y142500D01*
X41100Y142000D01*
X42600D02*X44100D01*
X42100Y142500D02*X42600Y142000D01*
X42100Y143500D02*Y142500D01*
Y143500D02*X42600Y144000D01*
X43600D01*
X44100Y143500D01*
X42100Y143000D02*X44100D01*
Y143500D02*Y143000D01*
X47300Y146000D02*Y142000D01*
X46800D02*X47300Y142500D01*
X45800Y142000D02*X46800D01*
X45300Y142500D02*X45800Y142000D01*
X45300Y143500D02*Y142500D01*
Y143500D02*X45800Y144000D01*
X46800D01*
X47300Y143500D01*
X48500Y142000D02*X49000D01*
X50700Y144000D02*X52200D01*
X50200Y143500D02*X50700Y144000D01*
X50200Y143500D02*Y142500D01*
X50700Y142000D01*
X52200D01*
X53400Y143500D02*Y142500D01*
Y143500D02*X53900Y144000D01*
X54900D01*
X55400Y143500D01*
Y142500D01*
X54900Y142000D02*X55400Y142500D01*
X53900Y142000D02*X54900D01*
X53400Y142500D02*X53900Y142000D01*
X57100Y143500D02*Y142000D01*
Y143500D02*X57600Y144000D01*
X58100D01*
X58600Y143500D01*
Y142000D01*
Y143500D02*X59100Y144000D01*
X59600D01*
X60100Y143500D01*
Y142000D01*
X56600Y144000D02*X57100Y143500D01*
X51000Y56000D02*X53000D01*
X52000Y57000D02*Y55000D01*
X35000Y48500D02*Y44500D01*
X34500Y48500D02*X36500D01*
X37000Y48000D01*
Y47000D01*
X36500Y46500D02*X37000Y47000D01*
X35000Y46500D02*X36500D01*
X38200Y48500D02*Y46500D01*
X38700Y44500D01*
X39700Y46500D01*
X40700Y44500D01*
X41200Y46500D01*
Y48500D02*Y46500D01*
X42400Y48500D02*X44400D01*
X44900Y48000D01*
Y47000D01*
X44400Y46500D02*X44900Y47000D01*
X42900Y46500D02*X44400D01*
X42900Y48500D02*Y44500D01*
X43700Y46500D02*X44900Y44500D01*
X98200Y141500D02*X99500D01*
X97500Y142200D02*X98200Y141500D01*
X97500Y144800D02*Y142200D01*
Y144800D02*X98200Y145500D01*
X99500D01*
X100700D02*Y141500D01*
Y143500D02*X102700Y145500D01*
X100700Y143500D02*X102700Y141500D01*
X103900Y145500D02*X105900D01*
X104900D02*Y141500D01*
X107100Y143500D02*X109100D01*
X110300Y141500D02*X112300D01*
X112800Y142000D01*
Y143200D02*Y142000D01*
X112300Y143700D02*X112800Y143200D01*
X110800Y143700D02*X112300D01*
X110800Y145500D02*Y141500D01*
X110300Y145500D02*X112300D01*
X112800Y145000D01*
Y144200D01*
X112300Y143700D02*X112800Y144200D01*
X114500Y145500D02*Y141500D01*
X115800Y145500D02*X116500Y144800D01*
Y142200D01*
X115800Y141500D02*X116500Y142200D01*
X114000Y141500D02*X115800D01*
X114000Y145500D02*X115800D01*
X117700Y144700D02*X118500Y145500D01*
Y141500D01*
X117700D02*X119200D01*
X120400Y143500D02*X122400D01*
X123600Y145500D02*X124600Y141500D01*
X125600Y145500D01*
X126800Y143000D02*X128800Y145500D01*
X126800Y143000D02*X129300D01*
X128800Y145500D02*Y141500D01*
X130500Y143700D02*X132000D01*
X130500Y141500D02*X132500D01*
X130500Y145500D02*Y141500D01*
Y145500D02*X132500D01*
X133700D02*X134700Y141500D01*
X135700Y145500D01*
X136900Y144500D02*Y141500D01*
Y144500D02*X137600Y145500D01*
X138700D01*
X139400Y144500D01*
Y141500D01*
X136900Y143500D02*X139400D01*
X140600Y145500D02*Y141500D01*
X142600D01*
X145600Y143500D02*X146600Y141500D01*
X147600Y143500D02*X146600Y141500D01*
X148800Y144700D02*X149600Y145500D01*
Y141500D01*
X148800D02*X150300D01*
X151500D02*X152000D01*
X153200Y142000D02*X153700Y141500D01*
X153200Y145000D02*Y142000D01*
Y145000D02*X153700Y145500D01*
X154700D01*
X155200Y145000D01*
Y142000D01*
X154700Y141500D02*X155200Y142000D01*
X153700Y141500D02*X154700D01*
X153200Y142500D02*X155200Y144500D01*
X136000Y133620D02*X137880D01*
X136940D02*Y126100D01*
X136000D02*X137880D01*
X140136Y133620D02*Y126100D01*
Y133620D02*X144836Y126100D01*
Y133620D02*Y126100D01*
X147092Y129860D02*X150852D01*
X148972Y131740D02*Y127980D01*
X133000Y57680D02*Y52040D01*
Y57680D02*X133940Y58620D01*
X135820D01*
X136760Y57680D01*
Y52040D01*
X135820Y51100D02*X136760Y52040D01*
X133940Y51100D02*X135820D01*
X133000Y52040D02*X133940Y51100D01*
X139016Y58620D02*Y52040D01*
X139956Y51100D01*
X141836D01*
X142776Y52040D01*
Y58620D02*Y52040D01*
X145032Y58620D02*X148792D01*
X146912D02*Y51100D01*
G54D40*X131700Y33900D02*X132750Y32850D01*
X128550Y33900D02*X131700D01*
X127500Y32850D02*X128550Y33900D01*
X127500Y32850D02*Y26550D01*
X128550Y25500D01*
X131700D01*
X132750Y26550D01*
Y28650D02*Y26550D01*
X131700Y29700D02*X132750Y28650D01*
X129600Y29700D02*X131700D01*
X135270Y33900D02*Y25500D01*
Y33900D02*X140520Y25500D01*
Y33900D02*Y25500D01*
X144090Y33900D02*Y25500D01*
X146820Y33900D02*X148290Y32430D01*
Y26970D01*
X146820Y25500D02*X148290Y26970D01*
X143040Y25500D02*X146820D01*
X143040Y33900D02*X146820D01*
G54D38*X68745Y70350D02*Y69564D01*
X74255Y70350D02*Y69564D01*
X84755Y45850D02*Y45064D01*
X79245Y45850D02*Y45064D01*
X49245Y29893D02*Y29107D01*
X54755Y29893D02*Y29107D01*
X96755Y52936D02*Y52150D01*
X91245Y52936D02*Y52150D01*
X49245Y46936D02*Y46150D01*
X54755Y46936D02*Y46150D01*
X50500Y93250D02*X119500D01*
X50500Y131750D02*X119500D01*
Y93250D01*
X50500Y131750D02*Y93250D01*
X78100Y77000D02*X92000D01*
X78100D02*Y65200D01*
X92000D01*
Y77000D02*Y65200D01*
X101200Y77700D02*X115100D01*
Y89500D02*Y77700D01*
X101200Y89500D02*X115100D01*
X101200D02*Y77700D01*
X84607Y90255D02*X85393D01*
X84607Y84745D02*X85393D01*
G54D39*X69093Y56650D02*X70393D01*
X68393Y57350D02*X69093Y56650D01*
X68393Y59950D02*Y57350D01*
Y59950D02*X69093Y60650D01*
X70393D01*
X71593Y59850D02*X72393Y60650D01*
Y56650D01*
X71593D02*X73093D01*
X80050Y28107D02*X81350D01*
X79350Y28807D02*X80050Y28107D01*
X79350Y31407D02*Y28807D01*
Y31407D02*X80050Y32107D01*
X81350D01*
X82550Y31607D02*X83050Y32107D01*
X84550D01*
X85050Y31607D01*
Y30607D01*
X82550Y28107D02*X85050Y30607D01*
X82550Y28107D02*X85050D01*
X58221Y31670D02*X60181D01*
X60671Y31180D01*
Y30200D01*
X60181Y29710D02*X60671Y30200D01*
X58711Y29710D02*X60181D01*
X58711Y31670D02*Y27750D01*
X59495Y29710D02*X60671Y27750D01*
X61847Y31180D02*X62337Y31670D01*
X63317D01*
X63807Y31180D01*
X63317Y27750D02*X63807Y28240D01*
X62337Y27750D02*X63317D01*
X61847Y28240D02*X62337Y27750D01*
Y29906D02*X63317D01*
X63807Y31180D02*Y30396D01*
Y29416D02*Y28240D01*
Y29416D02*X63317Y29906D01*
X63807Y30396D02*X63317Y29906D01*
X101676Y8256D02*X102476D01*
Y4756D01*
X101976Y4256D02*X102476Y4756D01*
X101476Y4256D02*X101976D01*
X100976Y4756D02*X101476Y4256D01*
X100976Y5256D02*Y4756D01*
X103676Y7456D02*X104476Y8256D01*
Y4256D01*
X103676D02*X105176D01*
X90764Y44150D02*X92764D01*
X93264Y43650D01*
Y42650D01*
X92764Y42150D02*X93264Y42650D01*
X91264Y42150D02*X92764D01*
X91264Y44150D02*Y40150D01*
X92064Y42150D02*X93264Y40150D01*
X94464Y43650D02*X94964Y44150D01*
X96464D01*
X96964Y43650D01*
Y42650D01*
X94464Y40150D02*X96964Y42650D01*
X94464Y40150D02*X96964D01*
X83000Y62000D02*Y58500D01*
X83500Y58000D01*
X84500D01*
X85000Y58500D01*
Y62000D02*Y58500D01*
X86200Y61200D02*X87000Y62000D01*
Y58000D01*
X86200D02*X87700D01*
X51500Y91500D02*X53500D01*
X52500D02*Y87500D01*
X54700Y90700D02*X55500Y91500D01*
Y87500D01*
X54700D02*X56200D01*
X104700Y75200D02*Y71200D01*
X106000Y75200D02*X106700Y74500D01*
Y71900D01*
X106000Y71200D02*X106700Y71900D01*
X104200Y71200D02*X106000D01*
X104200Y75200D02*X106000D01*
X107900Y74700D02*X108400Y75200D01*
X109900D01*
X110400Y74700D01*
Y73700D01*
X107900Y71200D02*X110400Y73700D01*
X107900Y71200D02*X110400D01*
X58479Y48150D02*Y44150D01*
X59779Y48150D02*X60479Y47450D01*
Y44850D01*
X59779Y44150D02*X60479Y44850D01*
X57979Y44150D02*X59779D01*
X57979Y48150D02*X59779D01*
X61679Y47350D02*X62479Y48150D01*
Y44150D01*
X61679D02*X63179D01*
X71350Y89650D02*X73350D01*
X73850Y89150D01*
Y88150D01*
X73350Y87650D02*X73850Y88150D01*
X71850Y87650D02*X73350D01*
X71850Y89650D02*Y85650D01*
X72650Y87650D02*X73850Y85650D01*
X75050Y88850D02*X75850Y89650D01*
Y85650D01*
X75050D02*X76550D01*
X156200Y71500D02*X157000D01*
Y68000D01*
X156500Y67500D02*X157000Y68000D01*
X156000Y67500D02*X156500D01*
X155500Y68000D02*X156000Y67500D01*
X155500Y68500D02*Y68000D01*
X158200Y71000D02*X158700Y71500D01*
X160200D01*
X160700Y71000D01*
Y70000D01*
X158200Y67500D02*X160700Y70000D01*
X158200Y67500D02*X160700D01*
X162600D02*X163900D01*
X161900Y68200D02*X162600Y67500D01*
X161900Y70800D02*Y68200D01*
Y70800D02*X162600Y71500D01*
X163900D01*
X156200Y21000D02*X157000D01*
Y17500D01*
X156500Y17000D02*X157000Y17500D01*
X156000Y17000D02*X156500D01*
X155500Y17500D02*X156000Y17000D01*
X155500Y18000D02*Y17500D01*
X158200Y20500D02*X158700Y21000D01*
X160200D01*
X160700Y20500D01*
Y19500D01*
X158200Y17000D02*X160700Y19500D01*
X158200Y17000D02*X160700D01*
X161900Y19200D02*X163400D01*
X161900Y17000D02*X163900D01*
X161900Y21000D02*Y17000D01*
Y21000D02*X163900D01*
X156200Y46000D02*X157000D01*
Y42500D01*
X156500Y42000D02*X157000Y42500D01*
X156000Y42000D02*X156500D01*
X155500Y42500D02*X156000Y42000D01*
X155500Y43000D02*Y42500D01*
X158200Y45500D02*X158700Y46000D01*
X160200D01*
X160700Y45500D01*
Y44500D01*
X158200Y42000D02*X160700Y44500D01*
X158200Y42000D02*X160700D01*
X162400Y46000D02*Y42000D01*
X163700Y46000D02*X164400Y45300D01*
Y42700D01*
X163700Y42000D02*X164400Y42700D01*
X161900Y42000D02*X163700D01*
X161900Y46000D02*X163700D01*
X156200Y96000D02*X157000D01*
Y92500D01*
X156500Y92000D02*X157000Y92500D01*
X156000Y92000D02*X156500D01*
X155500Y92500D02*X156000Y92000D01*
X155500Y93000D02*Y92500D01*
X158200Y95500D02*X158700Y96000D01*
X160200D01*
X160700Y95500D01*
Y94500D01*
X158200Y92000D02*X160700Y94500D01*
X158200Y92000D02*X160700D01*
X161900D02*X163900D01*
X164400Y92500D01*
Y93700D02*Y92500D01*
X163900Y94200D02*X164400Y93700D01*
X162400Y94200D02*X163900D01*
X162400Y96000D02*Y92000D01*
X161900Y96000D02*X163900D01*
X164400Y95500D01*
Y94700D01*
X163900Y94200D02*X164400Y94700D01*
X156200Y121000D02*X157000D01*
Y117500D01*
X156500Y117000D02*X157000Y117500D01*
X156000Y117000D02*X156500D01*
X155500Y117500D02*X156000Y117000D01*
X155500Y118000D02*Y117500D01*
X158200Y120500D02*X158700Y121000D01*
X160200D01*
X160700Y120500D01*
Y119500D01*
X158200Y117000D02*X160700Y119500D01*
X158200Y117000D02*X160700D01*
X161900Y120000D02*Y117000D01*
Y120000D02*X162600Y121000D01*
X163700D01*
X164400Y120000D01*
Y117000D01*
X161900Y119000D02*X164400D01*
M02*
