G04 start of page 12 for group -3984 idx -3984 *
G04 Title: (unknown), fab *
G04 Creator: pcb 4.0.2 *
G04 CreationDate: Mon Aug 16 01:28:39 2021 UTC *
G04 For: ndholmes *
G04 Format: Gerber/RS-274X *
G04 PCB-Dimensions (mil): 1800.00 1500.00 *
G04 PCB-Coordinate-Origin: lower left *
%MOIN*%
%FSLAX25Y25*%
%LNFAB*%
%ADD46C,0.0100*%
%ADD45C,0.0075*%
%ADD44C,0.0060*%
%ADD43C,0.0001*%
G54D43*G36*
X158800Y81766D02*X161766Y78800D01*
X161200Y78234D01*
X158234Y81200D01*
X158800Y81766D01*
G37*
G36*
X158234Y78800D02*X161200Y81766D01*
X161766Y81200D01*
X158800Y78234D01*
X158234Y78800D01*
G37*
G36*
X158800Y31766D02*X161766Y28800D01*
X161200Y28234D01*
X158234Y31200D01*
X158800Y31766D01*
G37*
G36*
X158234Y28800D02*X161200Y31766D01*
X161766Y31200D01*
X158800Y28234D01*
X158234Y28800D01*
G37*
G36*
X158300Y56766D02*X161266Y53800D01*
X160700Y53234D01*
X157734Y56200D01*
X158300Y56766D01*
G37*
G36*
X157734Y53800D02*X160700Y56766D01*
X161266Y56200D01*
X158300Y53234D01*
X157734Y53800D01*
G37*
G36*
X158800Y106766D02*X161766Y103800D01*
X161200Y103234D01*
X158234Y106200D01*
X158800Y106766D01*
G37*
G36*
X158234Y103800D02*X161200Y106766D01*
X161766Y106200D01*
X158800Y103234D01*
X158234Y103800D01*
G37*
G36*
X158800Y131766D02*X161766Y128800D01*
X161200Y128234D01*
X158234Y131200D01*
X158800Y131766D01*
G37*
G36*
X158234Y128800D02*X161200Y131766D01*
X161766Y131200D01*
X158800Y128234D01*
X158234Y128800D01*
G37*
G36*
X13800Y178016D02*X16766Y175050D01*
X16200Y174484D01*
X13234Y177450D01*
X13800Y178016D01*
G37*
G36*
X13234Y175050D02*X16200Y178016D01*
X16766Y177450D01*
X13800Y174484D01*
X13234Y175050D01*
G37*
G54D44*X135000Y178500D02*X136500Y175500D01*
X138000Y178500D01*
X136500Y175500D02*Y172500D01*
X139800Y175800D02*X142050D01*
X139800Y172500D02*X142800D01*
X139800Y178500D02*Y172500D01*
Y178500D02*X142800D01*
X147600D02*X148350Y177750D01*
X145350Y178500D02*X147600D01*
X144600Y177750D02*X145350Y178500D01*
X144600Y177750D02*Y176250D01*
X145350Y175500D01*
X147600D01*
X148350Y174750D01*
Y173250D01*
X147600Y172500D02*X148350Y173250D01*
X145350Y172500D02*X147600D01*
X144600Y173250D02*X145350Y172500D01*
X98000Y178500D02*X101000D01*
X98000D02*Y175500D01*
X98750Y176250D01*
X100250D01*
X101000Y175500D01*
Y173250D01*
X100250Y172500D02*X101000Y173250D01*
X98750Y172500D02*X100250D01*
X98000Y173250D02*X98750Y172500D01*
X45000Y173250D02*X45750Y172500D01*
X45000Y177750D02*Y173250D01*
Y177750D02*X45750Y178500D01*
X47250D01*
X48000Y177750D01*
Y173250D01*
X47250Y172500D02*X48000Y173250D01*
X45750Y172500D02*X47250D01*
X45000Y174000D02*X48000Y177000D01*
X49800Y172500D02*X50550D01*
X52350Y173250D02*X53100Y172500D01*
X52350Y177750D02*Y173250D01*
Y177750D02*X53100Y178500D01*
X54600D01*
X55350Y177750D01*
Y173250D01*
X54600Y172500D02*X55350Y173250D01*
X53100Y172500D02*X54600D01*
X52350Y174000D02*X55350Y177000D01*
X57900Y172500D02*X60150Y175500D01*
Y177750D02*Y175500D01*
X59400Y178500D02*X60150Y177750D01*
X57900Y178500D02*X59400D01*
X57150Y177750D02*X57900Y178500D01*
X57150Y177750D02*Y176250D01*
X57900Y175500D01*
X60150D01*
X64200Y178500D02*X64950Y177750D01*
X62700Y178500D02*X64200D01*
X61950Y177750D02*X62700Y178500D01*
X61950Y177750D02*Y173250D01*
X62700Y172500D01*
X64200Y175800D02*X64950Y175050D01*
X61950Y175800D02*X64200D01*
X62700Y172500D02*X64200D01*
X64950Y173250D01*
Y175050D02*Y173250D01*
X110000Y114100D02*Y110900D01*
X108400Y112500D02*X111600D01*
X60000Y114100D02*Y110900D01*
X58400Y112500D02*X61600D01*
X15000Y192850D02*Y189650D01*
X13400Y191250D02*X16600D01*
X135000Y193500D02*X136500Y190500D01*
X138000Y193500D01*
X136500Y190500D02*Y187500D01*
X139800Y190800D02*X142050D01*
X139800Y187500D02*X142800D01*
X139800Y193500D02*Y187500D01*
Y193500D02*X142800D01*
X147600D02*X148350Y192750D01*
X145350Y193500D02*X147600D01*
X144600Y192750D02*X145350Y193500D01*
X144600Y192750D02*Y191250D01*
X145350Y190500D01*
X147600D01*
X148350Y189750D01*
Y188250D01*
X147600Y187500D02*X148350Y188250D01*
X145350Y187500D02*X147600D01*
X144600Y188250D02*X145350Y187500D01*
X98000Y192750D02*X98750Y193500D01*
X101000D01*
X101750Y192750D01*
Y191250D01*
X98000Y187500D02*X101750Y191250D01*
X98000Y187500D02*X101750D01*
X45000Y188250D02*X45750Y187500D01*
X45000Y192750D02*Y188250D01*
Y192750D02*X45750Y193500D01*
X47250D01*
X48000Y192750D01*
Y188250D01*
X47250Y187500D02*X48000Y188250D01*
X45750Y187500D02*X47250D01*
X45000Y189000D02*X48000Y192000D01*
X49800Y187500D02*X50550D01*
X52350Y188250D02*X53100Y187500D01*
X52350Y192750D02*Y188250D01*
Y192750D02*X53100Y193500D01*
X54600D01*
X55350Y192750D01*
Y188250D01*
X54600Y187500D02*X55350Y188250D01*
X53100Y187500D02*X54600D01*
X52350Y189000D02*X55350Y192000D01*
X57150Y189750D02*X60150Y193500D01*
X57150Y189750D02*X60900D01*
X60150Y193500D02*Y187500D01*
X62700Y188250D02*X63450Y187500D01*
X62700Y189450D02*Y188250D01*
Y189450D02*X63750Y190500D01*
X64650D01*
X65700Y189450D01*
Y188250D01*
X64950Y187500D02*X65700Y188250D01*
X63450Y187500D02*X64950D01*
X62700Y191550D02*X63750Y190500D01*
X62700Y192750D02*Y191550D01*
Y192750D02*X63450Y193500D01*
X64950D01*
X65700Y192750D01*
Y191550D01*
X64650Y190500D02*X65700Y191550D01*
X81500Y96000D02*Y94400D01*
Y96000D02*X82887Y96800D01*
X81500Y96000D02*X80113Y96800D01*
X94000Y82000D02*Y80400D01*
Y82000D02*X95387Y82800D01*
X94000Y82000D02*X92613Y82800D01*
X94000Y91000D02*Y89400D01*
Y91000D02*X95387Y91800D01*
X94000Y91000D02*X92613Y91800D01*
X84500Y71000D02*Y69400D01*
Y71000D02*X85887Y71800D01*
X84500Y71000D02*X83113Y71800D01*
X77000Y71000D02*Y69400D01*
Y71000D02*X78387Y71800D01*
X77000Y71000D02*X75613Y71800D01*
X82000Y36500D02*Y34900D01*
Y36500D02*X83387Y37300D01*
X82000Y36500D02*X80613Y37300D01*
X75500Y32500D02*Y30900D01*
Y32500D02*X76887Y33300D01*
X75500Y32500D02*X74113Y33300D01*
X75500Y29000D02*Y27400D01*
Y29000D02*X76887Y29800D01*
X75500Y29000D02*X74113Y29800D01*
X15000Y206250D02*Y204650D01*
Y206250D02*X16387Y207050D01*
X15000Y206250D02*X13613Y207050D01*
X135000Y208500D02*X136500Y205500D01*
X138000Y208500D01*
X136500Y205500D02*Y202500D01*
X139800Y205800D02*X142050D01*
X139800Y202500D02*X142800D01*
X139800Y208500D02*Y202500D01*
Y208500D02*X142800D01*
X147600D02*X148350Y207750D01*
X145350Y208500D02*X147600D01*
X144600Y207750D02*X145350Y208500D01*
X144600Y207750D02*Y206250D01*
X145350Y205500D01*
X147600D01*
X148350Y204750D01*
Y203250D01*
X147600Y202500D02*X148350Y203250D01*
X145350Y202500D02*X147600D01*
X144600Y203250D02*X145350Y202500D01*
X98000Y203250D02*X98750Y202500D01*
X98000Y204450D02*Y203250D01*
Y204450D02*X99050Y205500D01*
X99950D01*
X101000Y204450D01*
Y203250D01*
X100250Y202500D02*X101000Y203250D01*
X98750Y202500D02*X100250D01*
X98000Y206550D02*X99050Y205500D01*
X98000Y207750D02*Y206550D01*
Y207750D02*X98750Y208500D01*
X100250D01*
X101000Y207750D01*
Y206550D01*
X99950Y205500D02*X101000Y206550D01*
X45000Y203250D02*X45750Y202500D01*
X45000Y207750D02*Y203250D01*
Y207750D02*X45750Y208500D01*
X47250D01*
X48000Y207750D01*
Y203250D01*
X47250Y202500D02*X48000Y203250D01*
X45750Y202500D02*X47250D01*
X45000Y204000D02*X48000Y207000D01*
X49800Y202500D02*X50550D01*
X52350Y203250D02*X53100Y202500D01*
X52350Y207750D02*Y203250D01*
Y207750D02*X53100Y208500D01*
X54600D01*
X55350Y207750D01*
Y203250D01*
X54600Y202500D02*X55350Y203250D01*
X53100Y202500D02*X54600D01*
X52350Y204000D02*X55350Y207000D01*
X57150Y207300D02*X58350Y208500D01*
Y202500D01*
X57150D02*X59400D01*
X61200Y207750D02*X61950Y208500D01*
X64200D01*
X64950Y207750D01*
Y206250D01*
X61200Y202500D02*X64950Y206250D01*
X61200Y202500D02*X64950D01*
X3000Y223500D02*X3750Y222750D01*
X750Y223500D02*X3000D01*
X0Y222750D02*X750Y223500D01*
X0Y222750D02*Y221250D01*
X750Y220500D01*
X3000D01*
X3750Y219750D01*
Y218250D01*
X3000Y217500D02*X3750Y218250D01*
X750Y217500D02*X3000D01*
X0Y218250D02*X750Y217500D01*
X5550Y220500D02*Y218250D01*
X6300Y217500D01*
X8550Y220500D02*Y216000D01*
X7800Y215250D02*X8550Y216000D01*
X6300Y215250D02*X7800D01*
X5550Y216000D02*X6300Y215250D01*
Y217500D02*X7800D01*
X8550Y218250D01*
X11100Y219750D02*Y217500D01*
Y219750D02*X11850Y220500D01*
X12600D01*
X13350Y219750D01*
Y217500D01*
Y219750D02*X14100Y220500D01*
X14850D01*
X15600Y219750D01*
Y217500D01*
X10350Y220500D02*X11100Y219750D01*
X17400Y223500D02*Y217500D01*
Y218250D02*X18150Y217500D01*
X19650D01*
X20400Y218250D01*
Y219750D02*Y218250D01*
X19650Y220500D02*X20400Y219750D01*
X18150Y220500D02*X19650D01*
X17400Y219750D02*X18150Y220500D01*
X22200Y219750D02*Y218250D01*
Y219750D02*X22950Y220500D01*
X24450D01*
X25200Y219750D01*
Y218250D01*
X24450Y217500D02*X25200Y218250D01*
X22950Y217500D02*X24450D01*
X22200Y218250D02*X22950Y217500D01*
X27000Y223500D02*Y218250D01*
X27750Y217500D01*
X0Y214250D02*X29250D01*
X41750Y223500D02*Y217500D01*
X43700Y223500D02*X44750Y222450D01*
Y218550D01*
X43700Y217500D02*X44750Y218550D01*
X41000Y217500D02*X43700D01*
X41000Y223500D02*X43700D01*
G54D45*X46550Y222000D02*Y221850D01*
G54D44*Y219750D02*Y217500D01*
X50300Y220500D02*X51050Y219750D01*
X48800Y220500D02*X50300D01*
X48050Y219750D02*X48800Y220500D01*
X48050Y219750D02*Y218250D01*
X48800Y217500D01*
X51050Y220500D02*Y218250D01*
X51800Y217500D01*
X48800D02*X50300D01*
X51050Y218250D01*
X54350Y219750D02*Y217500D01*
Y219750D02*X55100Y220500D01*
X55850D01*
X56600Y219750D01*
Y217500D01*
Y219750D02*X57350Y220500D01*
X58100D01*
X58850Y219750D01*
Y217500D01*
X53600Y220500D02*X54350Y219750D01*
X60650Y217500D02*X61400D01*
X65900Y218250D02*X66650Y217500D01*
X65900Y222750D02*X66650Y223500D01*
X65900Y222750D02*Y218250D01*
X68450Y223500D02*X69950D01*
X69200D02*Y217500D01*
X68450D02*X69950D01*
X72500Y219750D02*Y217500D01*
Y219750D02*X73250Y220500D01*
X74000D01*
X74750Y219750D01*
Y217500D01*
X71750Y220500D02*X72500Y219750D01*
X77300Y220500D02*X79550D01*
X76550Y219750D02*X77300Y220500D01*
X76550Y219750D02*Y218250D01*
X77300Y217500D01*
X79550D01*
X81350Y223500D02*Y217500D01*
Y219750D02*X82100Y220500D01*
X83600D01*
X84350Y219750D01*
Y217500D01*
X86150Y223500D02*X86900Y222750D01*
Y218250D01*
X86150Y217500D02*X86900Y218250D01*
X41000Y214250D02*X88700D01*
X96050Y217500D02*X98000D01*
X95000Y218550D02*X96050Y217500D01*
X95000Y222450D02*Y218550D01*
Y222450D02*X96050Y223500D01*
X98000D01*
X99800Y219750D02*Y218250D01*
Y219750D02*X100550Y220500D01*
X102050D01*
X102800Y219750D01*
Y218250D01*
X102050Y217500D02*X102800Y218250D01*
X100550Y217500D02*X102050D01*
X99800Y218250D02*X100550Y217500D01*
X104600Y220500D02*Y218250D01*
X105350Y217500D01*
X106850D01*
X107600Y218250D01*
Y220500D02*Y218250D01*
X110150Y219750D02*Y217500D01*
Y219750D02*X110900Y220500D01*
X111650D01*
X112400Y219750D01*
Y217500D01*
X109400Y220500D02*X110150Y219750D01*
X114950Y223500D02*Y218250D01*
X115700Y217500D01*
X114200Y221250D02*X115700D01*
X95000Y214250D02*X117200D01*
X130750Y223500D02*Y217500D01*
X130000Y223500D02*X133000D01*
X133750Y222750D01*
Y221250D01*
X133000Y220500D02*X133750Y221250D01*
X130750Y220500D02*X133000D01*
X135550Y223500D02*Y218250D01*
X136300Y217500D01*
X140050Y220500D02*X140800Y219750D01*
X138550Y220500D02*X140050D01*
X137800Y219750D02*X138550Y220500D01*
X137800Y219750D02*Y218250D01*
X138550Y217500D01*
X140800Y220500D02*Y218250D01*
X141550Y217500D01*
X138550D02*X140050D01*
X140800Y218250D01*
X144100Y223500D02*Y218250D01*
X144850Y217500D01*
X143350Y221250D02*X144850D01*
X147100Y217500D02*X149350D01*
X146350Y218250D02*X147100Y217500D01*
X146350Y219750D02*Y218250D01*
Y219750D02*X147100Y220500D01*
X148600D01*
X149350Y219750D01*
X146350Y219000D02*X149350D01*
Y219750D02*Y219000D01*
X154150Y223500D02*Y217500D01*
X153400D02*X154150Y218250D01*
X151900Y217500D02*X153400D01*
X151150Y218250D02*X151900Y217500D01*
X151150Y219750D02*Y218250D01*
Y219750D02*X151900Y220500D01*
X153400D01*
X154150Y219750D01*
X157450Y220500D02*Y219750D01*
Y218250D02*Y217500D01*
X155950Y222750D02*Y222000D01*
Y222750D02*X156700Y223500D01*
X158200D01*
X158950Y222750D01*
Y222000D01*
X157450Y220500D02*X158950Y222000D01*
X130000Y214250D02*X160750D01*
X0Y238500D02*X3000D01*
X1500D02*Y232500D01*
X4800Y238500D02*Y232500D01*
Y234750D02*X5550Y235500D01*
X7050D01*
X7800Y234750D01*
Y232500D01*
X10350D02*X12600D01*
X9600Y233250D02*X10350Y232500D01*
X9600Y234750D02*Y233250D01*
Y234750D02*X10350Y235500D01*
X11850D01*
X12600Y234750D01*
X9600Y234000D02*X12600D01*
Y234750D02*Y234000D01*
X15150Y234750D02*Y232500D01*
Y234750D02*X15900Y235500D01*
X17400D01*
X14400D02*X15150Y234750D01*
X19950Y232500D02*X22200D01*
X19200Y233250D02*X19950Y232500D01*
X19200Y234750D02*Y233250D01*
Y234750D02*X19950Y235500D01*
X21450D01*
X22200Y234750D01*
X19200Y234000D02*X22200D01*
Y234750D02*Y234000D01*
X28950Y235500D02*X29700Y234750D01*
X27450Y235500D02*X28950D01*
X26700Y234750D02*X27450Y235500D01*
X26700Y234750D02*Y233250D01*
X27450Y232500D01*
X29700Y235500D02*Y233250D01*
X30450Y232500D01*
X27450D02*X28950D01*
X29700Y233250D01*
X33000Y234750D02*Y232500D01*
Y234750D02*X33750Y235500D01*
X35250D01*
X32250D02*X33000Y234750D01*
X37800Y232500D02*X40050D01*
X37050Y233250D02*X37800Y232500D01*
X37050Y234750D02*Y233250D01*
Y234750D02*X37800Y235500D01*
X39300D01*
X40050Y234750D01*
X37050Y234000D02*X40050D01*
Y234750D02*Y234000D01*
X44550Y237750D02*X45300Y238500D01*
X46800D01*
X47550Y237750D01*
X46800Y232500D02*X47550Y233250D01*
X45300Y232500D02*X46800D01*
X44550Y233250D02*X45300Y232500D01*
Y235800D02*X46800D01*
X47550Y237750D02*Y236550D01*
Y235050D02*Y233250D01*
Y235050D02*X46800Y235800D01*
X47550Y236550D02*X46800Y235800D01*
X55050Y238500D02*Y232500D01*
X54300D02*X55050Y233250D01*
X52800Y232500D02*X54300D01*
X52050Y233250D02*X52800Y232500D01*
X52050Y234750D02*Y233250D01*
Y234750D02*X52800Y235500D01*
X54300D01*
X55050Y234750D01*
G54D45*X56850Y237000D02*Y236850D01*
G54D44*Y234750D02*Y232500D01*
X59100Y237750D02*Y232500D01*
Y237750D02*X59850Y238500D01*
X60600D01*
X58350Y235500D02*X59850D01*
X62850Y237750D02*Y232500D01*
Y237750D02*X63600Y238500D01*
X64350D01*
X62100Y235500D02*X63600D01*
X66600Y232500D02*X68850D01*
X65850Y233250D02*X66600Y232500D01*
X65850Y234750D02*Y233250D01*
Y234750D02*X66600Y235500D01*
X68100D01*
X68850Y234750D01*
X65850Y234000D02*X68850D01*
Y234750D02*Y234000D01*
X71400Y234750D02*Y232500D01*
Y234750D02*X72150Y235500D01*
X73650D01*
X70650D02*X71400Y234750D01*
X76200Y232500D02*X78450D01*
X75450Y233250D02*X76200Y232500D01*
X75450Y234750D02*Y233250D01*
Y234750D02*X76200Y235500D01*
X77700D01*
X78450Y234750D01*
X75450Y234000D02*X78450D01*
Y234750D02*Y234000D01*
X81000Y234750D02*Y232500D01*
Y234750D02*X81750Y235500D01*
X82500D01*
X83250Y234750D01*
Y232500D01*
X80250Y235500D02*X81000Y234750D01*
X85800Y238500D02*Y233250D01*
X86550Y232500D01*
X85050Y236250D02*X86550D01*
X93750Y238500D02*Y232500D01*
X93000D02*X93750Y233250D01*
X91500Y232500D02*X93000D01*
X90750Y233250D02*X91500Y232500D01*
X90750Y234750D02*Y233250D01*
Y234750D02*X91500Y235500D01*
X93000D01*
X93750Y234750D01*
X96300D02*Y232500D01*
Y234750D02*X97050Y235500D01*
X98550D01*
X95550D02*X96300Y234750D01*
G54D45*X100350Y237000D02*Y236850D01*
G54D44*Y234750D02*Y232500D01*
X101850Y238500D02*Y233250D01*
X102600Y232500D01*
X104100Y238500D02*Y233250D01*
X104850Y232500D01*
X109800D02*X112050D01*
X112800Y233250D01*
X112050Y234000D02*X112800Y233250D01*
X109800Y234000D02*X112050D01*
X109050Y234750D02*X109800Y234000D01*
X109050Y234750D02*X109800Y235500D01*
X112050D01*
X112800Y234750D01*
X109050Y233250D02*X109800Y232500D01*
G54D45*X114600Y237000D02*Y236850D01*
G54D44*Y234750D02*Y232500D01*
X116100Y235500D02*X119100D01*
X116100Y232500D02*X119100Y235500D01*
X116100Y232500D02*X119100D01*
X121650D02*X123900D01*
X120900Y233250D02*X121650Y232500D01*
X120900Y234750D02*Y233250D01*
Y234750D02*X121650Y235500D01*
X123150D01*
X123900Y234750D01*
X120900Y234000D02*X123900D01*
Y234750D02*Y234000D01*
X126450Y232500D02*X128700D01*
X129450Y233250D01*
X128700Y234000D02*X129450Y233250D01*
X126450Y234000D02*X128700D01*
X125700Y234750D02*X126450Y234000D01*
X125700Y234750D02*X126450Y235500D01*
X128700D01*
X129450Y234750D01*
X125700Y233250D02*X126450Y232500D01*
X133950Y235500D02*Y233250D01*
X134700Y232500D01*
X136200D01*
X136950Y233250D01*
Y235500D02*Y233250D01*
X139500Y232500D02*X141750D01*
X142500Y233250D01*
X141750Y234000D02*X142500Y233250D01*
X139500Y234000D02*X141750D01*
X138750Y234750D02*X139500Y234000D01*
X138750Y234750D02*X139500Y235500D01*
X141750D01*
X142500Y234750D01*
X138750Y233250D02*X139500Y232500D01*
X145050D02*X147300D01*
X144300Y233250D02*X145050Y232500D01*
X144300Y234750D02*Y233250D01*
Y234750D02*X145050Y235500D01*
X146550D01*
X147300Y234750D01*
X144300Y234000D02*X147300D01*
Y234750D02*Y234000D01*
X152100Y238500D02*Y232500D01*
X151350D02*X152100Y233250D01*
X149850Y232500D02*X151350D01*
X149100Y233250D02*X149850Y232500D01*
X149100Y234750D02*Y233250D01*
Y234750D02*X149850Y235500D01*
X151350D01*
X152100Y234750D01*
G54D45*X156600Y237000D02*Y236850D01*
G54D44*Y234750D02*Y232500D01*
X158850Y234750D02*Y232500D01*
Y234750D02*X159600Y235500D01*
X160350D01*
X161100Y234750D01*
Y232500D01*
X158100Y235500D02*X158850Y234750D01*
X166350Y238500D02*Y233250D01*
X167100Y232500D01*
X165600Y236250D02*X167100D01*
X168600Y238500D02*Y232500D01*
Y234750D02*X169350Y235500D01*
X170850D01*
X171600Y234750D01*
Y232500D01*
G54D45*X173400Y237000D02*Y236850D01*
G54D44*Y234750D02*Y232500D01*
X175650D02*X177900D01*
X178650Y233250D01*
X177900Y234000D02*X178650Y233250D01*
X175650Y234000D02*X177900D01*
X174900Y234750D02*X175650Y234000D01*
X174900Y234750D02*X175650Y235500D01*
X177900D01*
X178650Y234750D01*
X174900Y233250D02*X175650Y232500D01*
X183150Y238500D02*Y233250D01*
X183900Y232500D01*
X187650Y235500D02*X188400Y234750D01*
X186150Y235500D02*X187650D01*
X185400Y234750D02*X186150Y235500D01*
X185400Y234750D02*Y233250D01*
X186150Y232500D01*
X188400Y235500D02*Y233250D01*
X189150Y232500D01*
X186150D02*X187650D01*
X188400Y233250D01*
X190950Y235500D02*Y233250D01*
X191700Y232500D01*
X193950Y235500D02*Y231000D01*
X193200Y230250D02*X193950Y231000D01*
X191700Y230250D02*X193200D01*
X190950Y231000D02*X191700Y230250D01*
Y232500D02*X193200D01*
X193950Y233250D01*
X195750Y234750D02*Y233250D01*
Y234750D02*X196500Y235500D01*
X198000D01*
X198750Y234750D01*
Y233250D01*
X198000Y232500D02*X198750Y233250D01*
X196500Y232500D02*X198000D01*
X195750Y233250D02*X196500Y232500D01*
X200550Y235500D02*Y233250D01*
X201300Y232500D01*
X202800D01*
X203550Y233250D01*
Y235500D02*Y233250D01*
X206100Y238500D02*Y233250D01*
X206850Y232500D01*
X205350Y236250D02*X206850D01*
X208350Y231000D02*X209850Y232500D01*
X214350Y237300D02*X215550Y238500D01*
Y232500D01*
X214350D02*X216600D01*
X218400Y238500D02*X221400D01*
X218400D02*Y235500D01*
X219150Y236250D01*
X220650D01*
X221400Y235500D01*
Y233250D01*
X220650Y232500D02*X221400Y233250D01*
X219150Y232500D02*X220650D01*
X218400Y233250D02*X219150Y232500D01*
X225900Y238500D02*Y232500D01*
Y234750D02*X226650Y235500D01*
X228150D01*
X228900Y234750D01*
Y232500D01*
X230700Y234750D02*Y233250D01*
Y234750D02*X231450Y235500D01*
X232950D01*
X233700Y234750D01*
Y233250D01*
X232950Y232500D02*X233700Y233250D01*
X231450Y232500D02*X232950D01*
X230700Y233250D02*X231450Y232500D01*
X235500Y238500D02*Y233250D01*
X236250Y232500D01*
X238500D02*X240750D01*
X237750Y233250D02*X238500Y232500D01*
X237750Y234750D02*Y233250D01*
Y234750D02*X238500Y235500D01*
X240000D01*
X240750Y234750D01*
X237750Y234000D02*X240750D01*
Y234750D02*Y234000D01*
X243300Y232500D02*X245550D01*
X246300Y233250D01*
X245550Y234000D02*X246300Y233250D01*
X243300Y234000D02*X245550D01*
X242550Y234750D02*X243300Y234000D01*
X242550Y234750D02*X243300Y235500D01*
X245550D01*
X246300Y234750D01*
X242550Y233250D02*X243300Y232500D01*
X251550Y238500D02*Y233250D01*
X252300Y232500D01*
X250800Y236250D02*X252300D01*
X253800Y234750D02*Y233250D01*
Y234750D02*X254550Y235500D01*
X256050D01*
X256800Y234750D01*
Y233250D01*
X256050Y232500D02*X256800Y233250D01*
X254550Y232500D02*X256050D01*
X253800Y233250D02*X254550Y232500D01*
X259350Y238500D02*Y233250D01*
X260100Y232500D01*
X258600Y236250D02*X260100D01*
X263850Y235500D02*X264600Y234750D01*
X262350Y235500D02*X263850D01*
X261600Y234750D02*X262350Y235500D01*
X261600Y234750D02*Y233250D01*
X262350Y232500D01*
X264600Y235500D02*Y233250D01*
X265350Y232500D01*
X262350D02*X263850D01*
X264600Y233250D01*
X267150Y238500D02*Y233250D01*
X267900Y232500D01*
G54D46*X0Y150000D02*X180000D01*
Y0D01*
X0D01*
Y150000D01*
G54D44*X3675Y-9500D02*X6675D01*
X7425Y-8750D01*
Y-6950D02*Y-8750D01*
X6675Y-6200D02*X7425Y-6950D01*
X4425Y-6200D02*X6675D01*
X4425Y-3500D02*Y-9500D01*
X3675Y-3500D02*X6675D01*
X7425Y-4250D01*
Y-5450D01*
X6675Y-6200D02*X7425Y-5450D01*
X9225Y-7250D02*Y-8750D01*
Y-7250D02*X9975Y-6500D01*
X11475D01*
X12225Y-7250D01*
Y-8750D01*
X11475Y-9500D02*X12225Y-8750D01*
X9975Y-9500D02*X11475D01*
X9225Y-8750D02*X9975Y-9500D01*
X16275Y-6500D02*X17025Y-7250D01*
X14775Y-6500D02*X16275D01*
X14025Y-7250D02*X14775Y-6500D01*
X14025Y-7250D02*Y-8750D01*
X14775Y-9500D01*
X17025Y-6500D02*Y-8750D01*
X17775Y-9500D01*
X14775D02*X16275D01*
X17025Y-8750D01*
X20325Y-7250D02*Y-9500D01*
Y-7250D02*X21075Y-6500D01*
X22575D01*
X19575D02*X20325Y-7250D01*
X27375Y-3500D02*Y-9500D01*
X26625D02*X27375Y-8750D01*
X25125Y-9500D02*X26625D01*
X24375Y-8750D02*X25125Y-9500D01*
X24375Y-7250D02*Y-8750D01*
Y-7250D02*X25125Y-6500D01*
X26625D01*
X27375Y-7250D01*
X31875D02*Y-8750D01*
Y-7250D02*X32625Y-6500D01*
X34125D01*
X34875Y-7250D01*
Y-8750D01*
X34125Y-9500D02*X34875Y-8750D01*
X32625Y-9500D02*X34125D01*
X31875Y-8750D02*X32625Y-9500D01*
X36675Y-6500D02*Y-8750D01*
X37425Y-9500D01*
X38925D01*
X39675Y-8750D01*
Y-6500D02*Y-8750D01*
X42225Y-3500D02*Y-8750D01*
X42975Y-9500D01*
X41475Y-5750D02*X42975D01*
X44475Y-3500D02*Y-8750D01*
X45225Y-9500D01*
G54D45*X46725Y-5000D02*Y-5150D01*
G54D44*Y-7250D02*Y-9500D01*
X48975Y-7250D02*Y-9500D01*
Y-7250D02*X49725Y-6500D01*
X50475D01*
X51225Y-7250D01*
Y-9500D01*
X48225Y-6500D02*X48975Y-7250D01*
X53775Y-9500D02*X56025D01*
X53025Y-8750D02*X53775Y-9500D01*
X53025Y-7250D02*Y-8750D01*
Y-7250D02*X53775Y-6500D01*
X55275D01*
X56025Y-7250D01*
X53025Y-8000D02*X56025D01*
Y-7250D02*Y-8000D01*
G54D45*X60525Y-5000D02*Y-5150D01*
G54D44*Y-7250D02*Y-9500D01*
X62775D02*X65025D01*
X65775Y-8750D01*
X65025Y-8000D02*X65775Y-8750D01*
X62775Y-8000D02*X65025D01*
X62025Y-7250D02*X62775Y-8000D01*
X62025Y-7250D02*X62775Y-6500D01*
X65025D01*
X65775Y-7250D01*
X62025Y-8750D02*X62775Y-9500D01*
X71025Y-3500D02*Y-8750D01*
X71775Y-9500D01*
X70275Y-5750D02*X71775D01*
X73275Y-3500D02*Y-9500D01*
Y-7250D02*X74025Y-6500D01*
X75525D01*
X76275Y-7250D01*
Y-9500D01*
X78825D02*X81075D01*
X78075Y-8750D02*X78825Y-9500D01*
X78075Y-7250D02*Y-8750D01*
Y-7250D02*X78825Y-6500D01*
X80325D01*
X81075Y-7250D01*
X78075Y-8000D02*X81075D01*
Y-7250D02*Y-8000D01*
X86325Y-6500D02*X88575D01*
X85575Y-7250D02*X86325Y-6500D01*
X85575Y-7250D02*Y-8750D01*
X86325Y-9500D01*
X88575D01*
X91125D02*X93375D01*
X90375Y-8750D02*X91125Y-9500D01*
X90375Y-7250D02*Y-8750D01*
Y-7250D02*X91125Y-6500D01*
X92625D01*
X93375Y-7250D01*
X90375Y-8000D02*X93375D01*
Y-7250D02*Y-8000D01*
X95925Y-7250D02*Y-9500D01*
Y-7250D02*X96675Y-6500D01*
X97425D01*
X98175Y-7250D01*
Y-9500D01*
X95175Y-6500D02*X95925Y-7250D01*
X100725Y-3500D02*Y-8750D01*
X101475Y-9500D01*
X99975Y-5750D02*X101475D01*
X103725Y-9500D02*X105975D01*
X102975Y-8750D02*X103725Y-9500D01*
X102975Y-7250D02*Y-8750D01*
Y-7250D02*X103725Y-6500D01*
X105225D01*
X105975Y-7250D01*
X102975Y-8000D02*X105975D01*
Y-7250D02*Y-8000D01*
X108525Y-7250D02*Y-9500D01*
Y-7250D02*X109275Y-6500D01*
X110775D01*
X107775D02*X108525Y-7250D01*
X112575Y-3500D02*Y-8750D01*
X113325Y-9500D01*
G54D45*X114825Y-5000D02*Y-5150D01*
G54D44*Y-7250D02*Y-9500D01*
X117075Y-7250D02*Y-9500D01*
Y-7250D02*X117825Y-6500D01*
X118575D01*
X119325Y-7250D01*
Y-9500D01*
X116325Y-6500D02*X117075Y-7250D01*
X121875Y-9500D02*X124125D01*
X121125Y-8750D02*X121875Y-9500D01*
X121125Y-7250D02*Y-8750D01*
Y-7250D02*X121875Y-6500D01*
X123375D01*
X124125Y-7250D01*
X121125Y-8000D02*X124125D01*
Y-7250D02*Y-8000D01*
X128625Y-7250D02*Y-8750D01*
Y-7250D02*X129375Y-6500D01*
X130875D01*
X131625Y-7250D01*
Y-8750D01*
X130875Y-9500D02*X131625Y-8750D01*
X129375Y-9500D02*X130875D01*
X128625Y-8750D02*X129375Y-9500D01*
X134175Y-4250D02*Y-9500D01*
Y-4250D02*X134925Y-3500D01*
X135675D01*
X133425Y-6500D02*X134925D01*
X140625Y-3500D02*Y-8750D01*
X141375Y-9500D01*
X139875Y-5750D02*X141375D01*
X142875Y-3500D02*Y-9500D01*
Y-7250D02*X143625Y-6500D01*
X145125D01*
X145875Y-7250D01*
Y-9500D01*
G54D45*X147675Y-5000D02*Y-5150D01*
G54D44*Y-7250D02*Y-9500D01*
X149925D02*X152175D01*
X152925Y-8750D01*
X152175Y-8000D02*X152925Y-8750D01*
X149925Y-8000D02*X152175D01*
X149175Y-7250D02*X149925Y-8000D01*
X149175Y-7250D02*X149925Y-6500D01*
X152175D01*
X152925Y-7250D01*
X149175Y-8750D02*X149925Y-9500D01*
X158175Y-7250D02*Y-11750D01*
X157425Y-6500D02*X158175Y-7250D01*
X158925Y-6500D01*
X160425D01*
X161175Y-7250D01*
Y-8750D01*
X160425Y-9500D02*X161175Y-8750D01*
X158925Y-9500D02*X160425D01*
X158175Y-8750D02*X158925Y-9500D01*
X165225Y-6500D02*X165975Y-7250D01*
X163725Y-6500D02*X165225D01*
X162975Y-7250D02*X163725Y-6500D01*
X162975Y-7250D02*Y-8750D01*
X163725Y-9500D01*
X165975Y-6500D02*Y-8750D01*
X166725Y-9500D01*
X163725D02*X165225D01*
X165975Y-8750D01*
X169275Y-3500D02*Y-8750D01*
X170025Y-9500D01*
X168525Y-5750D02*X170025D01*
X171525Y-3500D02*Y-9500D01*
Y-7250D02*X172275Y-6500D01*
X173775D01*
X174525Y-7250D01*
Y-9500D01*
X200750Y178500D02*Y172500D01*
X202700Y178500D02*X203750Y177450D01*
Y173550D01*
X202700Y172500D02*X203750Y173550D01*
X200000Y172500D02*X202700D01*
X200000Y178500D02*X202700D01*
X207800Y175500D02*X208550Y174750D01*
X206300Y175500D02*X207800D01*
X205550Y174750D02*X206300Y175500D01*
X205550Y174750D02*Y173250D01*
X206300Y172500D01*
X208550Y175500D02*Y173250D01*
X209300Y172500D01*
X206300D02*X207800D01*
X208550Y173250D01*
X211850Y178500D02*Y173250D01*
X212600Y172500D01*
X211100Y176250D02*X212600D01*
X214850Y172500D02*X217100D01*
X214100Y173250D02*X214850Y172500D01*
X214100Y174750D02*Y173250D01*
Y174750D02*X214850Y175500D01*
X216350D01*
X217100Y174750D01*
X214100Y174000D02*X217100D01*
Y174750D02*Y174000D01*
X218900Y176250D02*X219650D01*
X218900Y174750D02*X219650D01*
X224150Y178500D02*Y172500D01*
Y178500D02*X226400Y175500D01*
X228650Y178500D01*
Y172500D01*
X230450Y174750D02*Y173250D01*
Y174750D02*X231200Y175500D01*
X232700D01*
X233450Y174750D01*
Y173250D01*
X232700Y172500D02*X233450Y173250D01*
X231200Y172500D02*X232700D01*
X230450Y173250D02*X231200Y172500D01*
X236000Y174750D02*Y172500D01*
Y174750D02*X236750Y175500D01*
X237500D01*
X238250Y174750D01*
Y172500D01*
X235250Y175500D02*X236000Y174750D01*
X242750Y177000D02*Y172500D01*
Y177000D02*X243800Y178500D01*
X245450D01*
X246500Y177000D01*
Y172500D01*
X242750Y175500D02*X246500D01*
X248300D02*Y173250D01*
X249050Y172500D01*
X250550D01*
X251300Y173250D01*
Y175500D02*Y173250D01*
X255350Y175500D02*X256100Y174750D01*
X253850Y175500D02*X255350D01*
X253100Y174750D02*X253850Y175500D01*
X253100Y174750D02*Y173250D01*
X253850Y172500D01*
X255350D01*
X256100Y173250D01*
X253100Y171000D02*X253850Y170250D01*
X255350D01*
X256100Y171000D01*
Y175500D02*Y171000D01*
X260600Y177300D02*X261800Y178500D01*
Y172500D01*
X260600D02*X262850D01*
X266900Y178500D02*X267650Y177750D01*
X265400Y178500D02*X266900D01*
X264650Y177750D02*X265400Y178500D01*
X264650Y177750D02*Y173250D01*
X265400Y172500D01*
X266900Y175800D02*X267650Y175050D01*
X264650Y175800D02*X266900D01*
X265400Y172500D02*X266900D01*
X267650Y173250D01*
Y175050D02*Y173250D01*
X272150D02*X272900Y172500D01*
X272150Y177750D02*Y173250D01*
Y177750D02*X272900Y178500D01*
X274400D01*
X275150Y177750D01*
Y173250D01*
X274400Y172500D02*X275150Y173250D01*
X272900Y172500D02*X274400D01*
X272150Y174000D02*X275150Y177000D01*
X276950Y177300D02*X278150Y178500D01*
Y172500D01*
X276950D02*X279200D01*
X281000Y176250D02*X281750D01*
X281000Y174750D02*X281750D01*
X283550Y177750D02*X284300Y178500D01*
X286550D01*
X287300Y177750D01*
Y176250D01*
X283550Y172500D02*X287300Y176250D01*
X283550Y172500D02*X287300D01*
X289100Y173250D02*X289850Y172500D01*
X289100Y174450D02*Y173250D01*
Y174450D02*X290150Y175500D01*
X291050D01*
X292100Y174450D01*
Y173250D01*
X291350Y172500D02*X292100Y173250D01*
X289850Y172500D02*X291350D01*
X289100Y176550D02*X290150Y175500D01*
X289100Y177750D02*Y176550D01*
Y177750D02*X289850Y178500D01*
X291350D01*
X292100Y177750D01*
Y176550D01*
X291050Y175500D02*X292100Y176550D01*
X293900Y176250D02*X294650D01*
X293900Y174750D02*X294650D01*
X296450Y177750D02*X297200Y178500D01*
X298700D01*
X299450Y177750D01*
X298700Y172500D02*X299450Y173250D01*
X297200Y172500D02*X298700D01*
X296450Y173250D02*X297200Y172500D01*
Y175800D02*X298700D01*
X299450Y177750D02*Y176550D01*
Y175050D02*Y173250D01*
Y175050D02*X298700Y175800D01*
X299450Y176550D02*X298700Y175800D01*
X302000Y172500D02*X304250Y175500D01*
Y177750D02*Y175500D01*
X303500Y178500D02*X304250Y177750D01*
X302000Y178500D02*X303500D01*
X301250Y177750D02*X302000Y178500D01*
X301250Y177750D02*Y176250D01*
X302000Y175500D01*
X304250D01*
X308750Y177750D02*X309500Y178500D01*
X311750D01*
X312500Y177750D01*
Y176250D01*
X308750Y172500D02*X312500Y176250D01*
X308750Y172500D02*X312500D01*
X314300Y173250D02*X315050Y172500D01*
X314300Y177750D02*Y173250D01*
Y177750D02*X315050Y178500D01*
X316550D01*
X317300Y177750D01*
Y173250D01*
X316550Y172500D02*X317300Y173250D01*
X315050Y172500D02*X316550D01*
X314300Y174000D02*X317300Y177000D01*
X319100Y177750D02*X319850Y178500D01*
X322100D01*
X322850Y177750D01*
Y176250D01*
X319100Y172500D02*X322850Y176250D01*
X319100Y172500D02*X322850D01*
X324650Y177300D02*X325850Y178500D01*
Y172500D01*
X324650D02*X326900D01*
X331400Y178500D02*Y173250D01*
X332150Y172500D01*
X333650D01*
X334400Y173250D01*
Y178500D02*Y173250D01*
X336200Y178500D02*X339200D01*
X337700D02*Y172500D01*
X342050D02*X344000D01*
X341000Y173550D02*X342050Y172500D01*
X341000Y177450D02*Y173550D01*
Y177450D02*X342050Y178500D01*
X344000D01*
X200000Y192000D02*Y187500D01*
Y192000D02*X201050Y193500D01*
X202700D01*
X203750Y192000D01*
Y187500D01*
X200000Y190500D02*X203750D01*
X205550D02*Y188250D01*
X206300Y187500D01*
X207800D01*
X208550Y188250D01*
Y190500D02*Y188250D01*
X211100Y193500D02*Y188250D01*
X211850Y187500D01*
X210350Y191250D02*X211850D01*
X213350Y193500D02*Y187500D01*
Y189750D02*X214100Y190500D01*
X215600D01*
X216350Y189750D01*
Y187500D01*
X218150Y189750D02*Y188250D01*
Y189750D02*X218900Y190500D01*
X220400D01*
X221150Y189750D01*
Y188250D01*
X220400Y187500D02*X221150Y188250D01*
X218900Y187500D02*X220400D01*
X218150Y188250D02*X218900Y187500D01*
X223700Y189750D02*Y187500D01*
Y189750D02*X224450Y190500D01*
X225950D01*
X222950D02*X223700Y189750D01*
X227750Y191250D02*X228500D01*
X227750Y189750D02*X228500D01*
X233000Y193500D02*Y187500D01*
Y193500D02*X236750Y187500D01*
Y193500D02*Y187500D01*
X240800Y190500D02*X241550Y189750D01*
X239300Y190500D02*X240800D01*
X238550Y189750D02*X239300Y190500D01*
X238550Y189750D02*Y188250D01*
X239300Y187500D01*
X241550Y190500D02*Y188250D01*
X242300Y187500D01*
X239300D02*X240800D01*
X241550Y188250D01*
X244850Y193500D02*Y188250D01*
X245600Y187500D01*
X244100Y191250D02*X245600D01*
X247100Y193500D02*Y187500D01*
Y189750D02*X247850Y190500D01*
X249350D01*
X250100Y189750D01*
Y187500D01*
X254150Y190500D02*X254900Y189750D01*
X252650Y190500D02*X254150D01*
X251900Y189750D02*X252650Y190500D01*
X251900Y189750D02*Y188250D01*
X252650Y187500D01*
X254900Y190500D02*Y188250D01*
X255650Y187500D01*
X252650D02*X254150D01*
X254900Y188250D01*
X258200Y189750D02*Y187500D01*
Y189750D02*X258950Y190500D01*
X259700D01*
X260450Y189750D01*
Y187500D01*
X257450Y190500D02*X258200Y189750D01*
X265700Y193500D02*Y187500D01*
X267650Y193500D02*X268700Y192450D01*
Y188550D01*
X267650Y187500D02*X268700Y188550D01*
X264950Y187500D02*X267650D01*
X264950Y193500D02*X267650D01*
X270500Y187500D02*X271250D01*
X275750Y193500D02*Y187500D01*
X279500Y193500D02*Y187500D01*
X275750Y190500D02*X279500D01*
X281300Y189750D02*Y188250D01*
Y189750D02*X282050Y190500D01*
X283550D01*
X284300Y189750D01*
Y188250D01*
X283550Y187500D02*X284300Y188250D01*
X282050Y187500D02*X283550D01*
X281300Y188250D02*X282050Y187500D01*
X286100Y193500D02*Y188250D01*
X286850Y187500D01*
X289100Y189750D02*Y187500D01*
Y189750D02*X289850Y190500D01*
X290600D01*
X291350Y189750D01*
Y187500D01*
Y189750D02*X292100Y190500D01*
X292850D01*
X293600Y189750D01*
Y187500D01*
X288350Y190500D02*X289100Y189750D01*
X296150Y187500D02*X298400D01*
X295400Y188250D02*X296150Y187500D01*
X295400Y189750D02*Y188250D01*
Y189750D02*X296150Y190500D01*
X297650D01*
X298400Y189750D01*
X295400Y189000D02*X298400D01*
Y189750D02*Y189000D01*
X300950Y187500D02*X303200D01*
X303950Y188250D01*
X303200Y189000D02*X303950Y188250D01*
X300950Y189000D02*X303200D01*
X300200Y189750D02*X300950Y189000D01*
X300200Y189750D02*X300950Y190500D01*
X303200D01*
X303950Y189750D01*
X300200Y188250D02*X300950Y187500D01*
X200000Y208500D02*X203000D01*
X201500D02*Y202500D01*
G54D45*X204800Y207000D02*Y206850D01*
G54D44*Y204750D02*Y202500D01*
X207050Y208500D02*Y203250D01*
X207800Y202500D01*
X206300Y206250D02*X207800D01*
X209300Y208500D02*Y203250D01*
X210050Y202500D01*
X212300D02*X214550D01*
X211550Y203250D02*X212300Y202500D01*
X211550Y204750D02*Y203250D01*
Y204750D02*X212300Y205500D01*
X213800D01*
X214550Y204750D01*
X211550Y204000D02*X214550D01*
Y204750D02*Y204000D01*
X216350Y206250D02*X217100D01*
X216350Y204750D02*X217100D01*
X221600Y203250D02*X222350Y202500D01*
X221600Y207750D02*X222350Y208500D01*
X221600Y207750D02*Y203250D01*
X224150Y205500D02*Y203250D01*
X224900Y202500D01*
X226400D01*
X227150Y203250D01*
Y205500D02*Y203250D01*
X229700Y204750D02*Y202500D01*
Y204750D02*X230450Y205500D01*
X231200D01*
X231950Y204750D01*
Y202500D01*
X228950Y205500D02*X229700Y204750D01*
X233750Y208500D02*Y202500D01*
Y204750D02*X236000Y202500D01*
X233750Y204750D02*X235250Y206250D01*
X238550Y204750D02*Y202500D01*
Y204750D02*X239300Y205500D01*
X240050D01*
X240800Y204750D01*
Y202500D01*
X237800Y205500D02*X238550Y204750D01*
X242600D02*Y203250D01*
Y204750D02*X243350Y205500D01*
X244850D01*
X245600Y204750D01*
Y203250D01*
X244850Y202500D02*X245600Y203250D01*
X243350Y202500D02*X244850D01*
X242600Y203250D02*X243350Y202500D01*
X247400Y205500D02*Y203250D01*
X248150Y202500D01*
X248900D01*
X249650Y203250D01*
Y205500D02*Y203250D01*
X250400Y202500D01*
X251150D01*
X251900Y203250D01*
Y205500D02*Y203250D01*
X254450Y204750D02*Y202500D01*
Y204750D02*X255200Y205500D01*
X255950D01*
X256700Y204750D01*
Y202500D01*
X253700Y205500D02*X254450Y204750D01*
X258500Y208500D02*X259250Y207750D01*
Y203250D01*
X258500Y202500D02*X259250Y203250D01*
X263750Y205500D02*X266750D01*
X271250Y208500D02*Y202500D01*
Y208500D02*X274250D01*
X271250Y205800D02*X273500D01*
X278300Y205500D02*X279050Y204750D01*
X276800Y205500D02*X278300D01*
X276050Y204750D02*X276800Y205500D01*
X276050Y204750D02*Y203250D01*
X276800Y202500D01*
X279050Y205500D02*Y203250D01*
X279800Y202500D01*
X276800D02*X278300D01*
X279050Y203250D01*
X281600Y208500D02*Y202500D01*
Y203250D02*X282350Y202500D01*
X283850D01*
X284600Y203250D01*
Y204750D02*Y203250D01*
X283850Y205500D02*X284600Y204750D01*
X282350Y205500D02*X283850D01*
X281600Y204750D02*X282350Y205500D01*
X287150Y204750D02*Y202500D01*
Y204750D02*X287900Y205500D01*
X289400D01*
X286400D02*X287150Y204750D01*
G54D45*X291200Y207000D02*Y206850D01*
G54D44*Y204750D02*Y202500D01*
X293450Y205500D02*X295700D01*
X292700Y204750D02*X293450Y205500D01*
X292700Y204750D02*Y203250D01*
X293450Y202500D01*
X295700D01*
X299750Y205500D02*X300500Y204750D01*
X298250Y205500D02*X299750D01*
X297500Y204750D02*X298250Y205500D01*
X297500Y204750D02*Y203250D01*
X298250Y202500D01*
X300500Y205500D02*Y203250D01*
X301250Y202500D01*
X298250D02*X299750D01*
X300500Y203250D01*
X303800Y208500D02*Y203250D01*
X304550Y202500D01*
X303050Y206250D02*X304550D01*
G54D45*X306050Y207000D02*Y206850D01*
G54D44*Y204750D02*Y202500D01*
X307550Y204750D02*Y203250D01*
Y204750D02*X308300Y205500D01*
X309800D01*
X310550Y204750D01*
Y203250D01*
X309800Y202500D02*X310550Y203250D01*
X308300Y202500D02*X309800D01*
X307550Y203250D02*X308300Y202500D01*
X313100Y204750D02*Y202500D01*
Y204750D02*X313850Y205500D01*
X314600D01*
X315350Y204750D01*
Y202500D01*
X312350Y205500D02*X313100Y204750D01*
X320600Y208500D02*Y202500D01*
X322550Y208500D02*X323600Y207450D01*
Y203550D01*
X322550Y202500D02*X323600Y203550D01*
X319850Y202500D02*X322550D01*
X319850Y208500D02*X322550D01*
X326150Y204750D02*Y202500D01*
Y204750D02*X326900Y205500D01*
X328400D01*
X325400D02*X326150Y204750D01*
X332450Y205500D02*X333200Y204750D01*
X330950Y205500D02*X332450D01*
X330200Y204750D02*X330950Y205500D01*
X330200Y204750D02*Y203250D01*
X330950Y202500D01*
X333200Y205500D02*Y203250D01*
X333950Y202500D01*
X330950D02*X332450D01*
X333200Y203250D01*
X335750Y205500D02*Y203250D01*
X336500Y202500D01*
X337250D01*
X338000Y203250D01*
Y205500D02*Y203250D01*
X338750Y202500D01*
X339500D01*
X340250Y203250D01*
Y205500D02*Y203250D01*
G54D45*X342050Y207000D02*Y206850D01*
G54D44*Y204750D02*Y202500D01*
X344300Y204750D02*Y202500D01*
Y204750D02*X345050Y205500D01*
X345800D01*
X346550Y204750D01*
Y202500D01*
X343550Y205500D02*X344300Y204750D01*
X350600Y205500D02*X351350Y204750D01*
X349100Y205500D02*X350600D01*
X348350Y204750D02*X349100Y205500D01*
X348350Y204750D02*Y203250D01*
X349100Y202500D01*
X350600D01*
X351350Y203250D01*
X348350Y201000D02*X349100Y200250D01*
X350600D01*
X351350Y201000D01*
Y205500D02*Y201000D01*
M02*
