G04 start of page 2 for group 0 idx 0 *
G04 Title: (unknown), top *
G04 Creator: pcb 20140316 *
G04 CreationDate: Thu 21 Jan 2016 04:01:36 PM GMT UTC *
G04 For: ndholmes *
G04 Format: Gerber/RS-274X *
G04 PCB-Dimensions (mil): 1800.00 1500.00 *
G04 PCB-Coordinate-Origin: lower left *
%MOIN*%
%FSLAX25Y25*%
%LNTOP*%
%ADD36C,0.0600*%
%ADD35C,0.1285*%
%ADD34C,0.0390*%
%ADD33C,0.0380*%
%ADD32C,0.0480*%
%ADD31C,0.0200*%
%ADD30R,0.0240X0.0240*%
%ADD29R,0.0945X0.0945*%
%ADD28R,0.0360X0.0360*%
%ADD27R,0.0378X0.0378*%
%ADD26R,0.0130X0.0130*%
%ADD25C,0.0310*%
%ADD24R,0.0340X0.0340*%
%ADD23R,0.0167X0.0167*%
%ADD22R,0.0165X0.0165*%
%ADD21R,0.0200X0.0200*%
%ADD20R,0.0512X0.0512*%
%ADD19C,0.0800*%
%ADD18C,0.2937*%
%ADD17C,0.0680*%
%ADD16C,0.1200*%
%ADD15C,0.0400*%
%ADD14C,0.0100*%
%ADD13C,0.0700*%
%ADD12C,0.0250*%
%ADD11C,0.0001*%
G54D11*G36*
X93500Y67500D02*X100818D01*
X100847Y67471D01*
X100904Y67404D01*
X101173Y67174D01*
X101173Y67174D01*
X101361Y67059D01*
X101475Y66989D01*
X101803Y66854D01*
X102147Y66771D01*
X102147D01*
X102500Y66743D01*
X102588Y66750D01*
X113000D01*
Y53500D01*
X93500D01*
Y67500D01*
G37*
G36*
X52000Y2000D02*X32000D01*
Y10500D01*
X52000D01*
Y2000D01*
G37*
G36*
X48500D02*Y18000D01*
X60579D01*
X60631Y17874D01*
X60730Y17713D01*
X60853Y17570D01*
X60996Y17447D01*
X61158Y17348D01*
X61332Y17276D01*
X61516Y17232D01*
X61704Y17221D01*
X65672Y17232D01*
X65856Y17276D01*
X66030Y17348D01*
X66192Y17447D01*
X66335Y17570D01*
X66458Y17713D01*
X66556Y17874D01*
X66609Y18000D01*
X67306D01*
X67354Y17803D01*
X67489Y17475D01*
X67674Y17173D01*
X67904Y16904D01*
X68173Y16674D01*
X68475Y16489D01*
X68803Y16354D01*
X69147Y16271D01*
X69500Y16243D01*
X69853Y16271D01*
X70197Y16354D01*
X70525Y16489D01*
X70827Y16674D01*
X71096Y16904D01*
X71326Y17173D01*
X71511Y17475D01*
X71646Y17803D01*
X71694Y18000D01*
X72391D01*
X72443Y17874D01*
X72542Y17713D01*
X72665Y17570D01*
X72808Y17447D01*
X72970Y17348D01*
X73144Y17276D01*
X73328Y17232D01*
X73516Y17221D01*
X77484Y17232D01*
X77668Y17276D01*
X77842Y17348D01*
X78004Y17447D01*
X78147Y17570D01*
X78270Y17713D01*
X78368Y17874D01*
X78421Y18000D01*
X93000D01*
Y2000D01*
X48500D01*
G37*
G36*
X53000D02*Y18000D01*
X60579D01*
X60631Y17874D01*
X60730Y17713D01*
X60853Y17570D01*
X60996Y17447D01*
X61158Y17348D01*
X61332Y17276D01*
X61516Y17232D01*
X61704Y17221D01*
X65672Y17232D01*
X65856Y17276D01*
X66030Y17348D01*
X66192Y17447D01*
X66335Y17570D01*
X66458Y17713D01*
X66556Y17874D01*
X66609Y18000D01*
X67306D01*
X67354Y17803D01*
X67489Y17475D01*
X67674Y17173D01*
X67904Y16904D01*
X68173Y16674D01*
X68475Y16489D01*
X68803Y16354D01*
X69147Y16271D01*
X69500Y16243D01*
X69853Y16271D01*
X70197Y16354D01*
X70525Y16489D01*
X70827Y16674D01*
X71096Y16904D01*
X71326Y17173D01*
X71511Y17475D01*
X71646Y17803D01*
X71694Y18000D01*
X72391D01*
X72443Y17874D01*
X72542Y17713D01*
X72665Y17570D01*
X72808Y17447D01*
X72970Y17348D01*
X73144Y17276D01*
X73328Y17232D01*
X73516Y17221D01*
X77484Y17232D01*
X77668Y17276D01*
X77842Y17348D01*
X78004Y17447D01*
X78147Y17570D01*
X78270Y17713D01*
X78368Y17874D01*
X78421Y18000D01*
X96818D01*
X96847Y17971D01*
X96904Y17904D01*
X97173Y17674D01*
X97173Y17674D01*
X97410Y17529D01*
X97475Y17489D01*
X97500Y17479D01*
Y2000D01*
X53000D01*
G37*
G36*
X80000Y62000D02*X69500D01*
Y67578D01*
X69617Y67716D01*
X69741Y67917D01*
X69831Y68135D01*
X69886Y68365D01*
X69900Y68600D01*
X69886Y75635D01*
X69831Y75865D01*
X69741Y76083D01*
X69617Y76284D01*
X69500Y76422D01*
Y77000D01*
X80000D01*
Y62000D01*
G37*
G54D12*X42000Y14184D02*Y20000D01*
X44000Y22000D01*
X54000Y32000D02*X49000Y27000D01*
X42084D01*
X42000Y27084D01*
X43000Y27000D02*X38500D01*
X30500Y35000D01*
X26000D01*
X27000D02*X14500D01*
X11000Y38500D01*
X44000Y22000D02*X63236D01*
X63594Y22358D01*
X31000Y106700D02*X21200D01*
X20000Y105500D01*
G54D13*X45000Y94500D02*Y135500D01*
X49000Y139500D01*
X52000Y85500D02*X85000D01*
G54D14*Y71957D02*X85043Y72000D01*
G54D12*X20000Y73500D02*X22000Y75500D01*
X31000D01*
X20000Y73500D02*X21750Y75250D01*
G54D13*X40400Y59900D02*X45000Y64500D01*
G54D14*X54000Y71500D02*X62500Y63000D01*
Y42500D01*
X69500Y35500D01*
X65000Y72000D02*Y53000D01*
X67000Y51000D01*
G54D12*X29800Y45500D02*X31000Y44300D01*
G54D13*Y91100D02*X41600D01*
X45000Y94500D01*
X31000Y59900D02*X40400D01*
X45000Y64500D02*Y78500D01*
X52000Y85500D01*
G54D14*X54000Y72000D02*Y71500D01*
G54D12*X11000Y41000D02*Y63500D01*
Y38500D02*Y46500D01*
Y63500D02*X13000Y65500D01*
X20000D01*
Y73500D01*
G54D14*X77500Y56200D02*X80200D01*
X85000Y66500D02*Y71957D01*
X80200Y56200D02*X81750Y57750D01*
Y63250D01*
X85000Y66500D01*
Y68000D01*
X67000Y51000D02*X74500D01*
X74000D02*X83500D01*
X76700Y39500D02*X76800Y39400D01*
X69500Y35500D02*X76800D01*
X82000D02*X85000D01*
X76700Y39500D02*X71000D01*
X69000Y41500D01*
X81000D02*Y36500D01*
X82000Y35500D01*
G54D12*X91000Y51000D02*Y40000D01*
X92500Y38500D01*
X94500D01*
G54D14*X85000Y39400D02*X86600D01*
X76800Y43300D02*X79200D01*
X81000Y41500D01*
X83500Y51000D02*X85000Y49500D01*
Y43300D01*
G54D12*X76500Y47500D02*Y43300D01*
G54D13*X49000Y139500D02*X85000D01*
G54D15*X60000Y112500D02*X97000D01*
X98500D02*X93500D01*
X111000Y126000D02*X138500D01*
X140500Y124000D01*
X114500Y126000D02*X104500D01*
X101000Y122500D01*
X110000Y112500D02*X121000D01*
G54D14*X121440Y118560D02*X121000Y119000D01*
X121940Y113440D02*X121000Y112500D01*
G54D15*X101000Y122500D02*Y115000D01*
X98500Y112500D01*
X121000D02*Y119500D01*
Y105000D01*
G54D14*X126987Y118560D02*X121440D01*
X126987Y113440D02*X121940D01*
G54D12*X168000Y110000D02*X166000D01*
X155500Y99500D01*
X140500D01*
G54D15*Y124000D02*Y105000D01*
G54D14*X134013Y118560D02*X140060D01*
X140500Y119000D01*
X134013Y113440D02*X140440D01*
X140500Y113500D01*
G54D15*X121000Y105000D02*X127000D01*
G54D14*X127304Y97299D02*Y94150D01*
X122650D01*
G54D12*X121000Y97500D02*Y105500D01*
G54D14*X123000Y91000D02*X127304D01*
Y91000D01*
X122650Y94150D02*X116000Y87500D01*
X120500Y88500D02*X123000Y91000D01*
G54D15*X140500Y105000D02*X134086D01*
G54D14*X134500D02*Y97799D01*
G54D12*X111500Y88000D02*X121000Y97500D01*
G54D14*X134000Y94150D02*X140350D01*
X140500Y94000D01*
X134000Y91000D02*X138000D01*
X134000Y87851D02*X137149D01*
X138000Y91000D02*X141000Y88000D01*
G54D12*X97500Y20500D02*X98500Y19500D01*
X110500D01*
G54D14*X101662Y25338D02*X102000Y25000D01*
G54D12*X101500D02*X111500D01*
X113000Y26500D01*
G54D14*X101662Y31358D02*Y25338D01*
X106779Y34721D02*Y37779D01*
G54D12*X97000Y36000D02*Y21000D01*
G54D14*X86600Y39400D02*X92000Y34000D01*
G54D12*X85000Y35500D02*Y32000D01*
X83000Y30000D01*
X97000Y21000D02*X98500Y19500D01*
X75406Y22358D02*X96858D01*
X83000Y30000D02*X72000D01*
X69500Y27500D01*
Y18500D01*
X96858Y22358D02*X97000Y22500D01*
G54D14*X104221Y31358D02*Y39178D01*
X96957Y44500D02*Y40543D01*
X101500Y36000D01*
G54D12*X94500Y38500D02*X97000Y36000D01*
G54D14*X104221Y37721D02*Y44322D01*
X104043Y44500D01*
X106043Y46500D02*X104043Y44500D01*
X106779Y37779D02*X108500Y39500D01*
X101500Y36000D02*Y31520D01*
X101662Y31358D01*
X106779D02*Y35779D01*
X108500Y39500D02*X113957D01*
Y43457D01*
X115000Y44500D01*
G54D12*X99500Y72000D02*X102500Y69000D01*
X97371Y72043D02*Y83371D01*
X102000Y88000D01*
X111500D01*
X99500Y72000D02*X85043D01*
X97371Y72043D02*X97707Y71707D01*
G54D14*X127304Y79196D02*X127500Y79000D01*
X129750Y74000D02*X134500D01*
X136500Y76000D01*
G54D12*X129750Y79000D02*X120750D01*
G54D14*X136500Y76000D02*Y81500D01*
X135000Y83000D01*
X131500D01*
X127304Y87851D02*Y84196D01*
X128500Y83000D01*
X134000D01*
X120500Y84000D02*Y88500D01*
X136500Y79000D02*X141914D01*
X142500Y79586D01*
X137149Y87851D02*X139000Y86000D01*
X149000D01*
X152000Y83000D01*
X141000Y88000D02*X150000D01*
X154000Y84000D01*
X138500Y51500D02*X141000D01*
X138500Y59500D02*Y64000D01*
X141000Y51500D02*X142500Y53000D01*
X111500Y46500D02*X150000D01*
X152000Y48500D01*
Y52000D01*
X142500Y53000D02*Y56426D01*
X142440Y56487D01*
X152000Y45000D02*X154000Y47000D01*
Y50000D01*
X129750Y64000D02*X141954D01*
X142440Y63513D01*
X129750Y69000D02*X125500D01*
X123500Y67000D01*
X128500Y69000D02*X139000D01*
X142500Y72500D01*
X123500Y67000D02*Y63000D01*
G54D12*X117543Y63543D02*X120750Y66750D01*
G54D14*X125000Y61500D02*X131000D01*
X132500Y60000D01*
Y56543D01*
X132543Y56500D01*
G54D12*X91500Y50500D02*X116000D01*
X85700Y60100D02*X89900D01*
X91000Y59000D01*
Y50000D01*
X116000Y50500D02*X117500Y52000D01*
Y56457D01*
X117543Y56500D01*
Y63543D01*
X122000Y50000D02*X124000D01*
X125500Y51500D01*
Y56457D01*
X125457Y56500D01*
G54D14*X123500Y63000D02*X125000Y61500D01*
X114500Y46500D02*X106043D01*
X152000Y83000D02*Y48500D01*
X154000Y84000D02*Y48500D01*
G54D12*X167543Y74500D02*Y55000D01*
G54D14*X160457Y74500D02*Y78957D01*
X162500Y81000D01*
X160457Y55000D02*Y46543D01*
X162500Y44500D01*
X161500Y45500D01*
X162500Y81000D02*X172500D01*
X174500Y79000D01*
Y46000D01*
Y42500D02*Y49000D01*
G54D12*X102500Y69000D02*X108250D01*
X106500D02*X116500D01*
G54D14*X109250Y74000D02*X114500D01*
X116000Y75500D01*
Y85000D01*
Y87500D02*Y83000D01*
X112500Y83500D02*X110000D01*
X109000Y82500D01*
Y79250D01*
X109250Y79000D01*
G54D12*X120750Y66750D02*Y83750D01*
X120500Y84000D01*
G54D14*X109338Y31358D02*X120358D01*
X119000D02*X123858D01*
X125000Y32500D01*
G54D12*X126000Y28000D02*X124500Y26500D01*
X118543D01*
X118500Y26543D01*
X113000Y26500D02*X118500D01*
X118522Y26522D01*
G54D14*X131500Y23000D02*X124500D01*
X123000Y21500D01*
X104221Y13642D02*Y7779D01*
Y8221D02*Y7779D01*
X105500Y6500D01*
X101662Y13642D02*Y6338D01*
X103500Y4500D01*
X106779Y13642D02*Y10221D01*
X114500Y9500D02*Y13500D01*
X120500Y10000D02*Y13000D01*
X124500Y14000D02*Y10500D01*
X109338Y13642D02*Y19162D01*
X109000Y19500D01*
G54D12*X105500D02*X118457D01*
X118500Y19457D01*
G54D14*X106779Y10721D02*Y9721D01*
X108000Y8500D01*
X103500Y4500D02*X118000D01*
X108000Y8500D02*X113500D01*
X105500Y6500D02*X117000D01*
X113500Y8500D02*X114500Y9500D01*
X117000Y6500D02*X120500Y10000D01*
X118500Y4500D02*X112500D01*
X124500Y11500D02*Y4500D01*
X117500D02*X128500D01*
X129000Y37000D02*X144500D01*
X136500Y28000D02*X134000Y30500D01*
Y37000D01*
X144000Y44500D02*X147500Y41000D01*
X143500Y37000D02*X149000D01*
X165848Y37925D02*X164075D01*
X162500Y39500D01*
X149000Y37000D02*X152000Y40000D01*
X159152Y41075D02*X156075D01*
X159152Y37925D02*X155925D01*
X150000Y32000D01*
X157000Y41075D02*X156075D01*
X145500Y30500D01*
X152000Y40000D02*Y45000D01*
X162500Y39500D02*Y44500D01*
X165848Y41075D02*X173075D01*
X174500Y42500D01*
X145500Y30500D02*X146750Y31750D01*
X151000Y33000D02*X147500Y29500D01*
G54D12*X131500Y28000D02*X126000D01*
G54D14*X115000Y44500D02*X144000D01*
X125000Y32500D02*Y34500D01*
X127500Y37000D01*
X130500D01*
G54D12*X128500Y40500D02*X123543D01*
X127000Y19500D02*X130000D01*
G54D14*X123000Y21500D02*Y15500D01*
X124500Y14000D01*
G54D12*X130000Y19500D02*X131500Y18000D01*
G54D14*X136500D02*X137500D01*
X136500Y23000D02*X137000D01*
X142000Y28000D01*
X143500Y24000D02*X137500Y18000D01*
X143000Y23500D02*X145500Y26000D01*
Y30500D01*
X147500Y29500D02*Y25000D01*
X145000Y22500D01*
X146000Y23500D01*
X127000Y4500D02*X143500D01*
X145000Y6000D01*
Y22500D01*
G54D11*G36*
X106000Y116500D02*Y108500D01*
X114000D01*
Y116500D01*
X106000D01*
G37*
G54D16*X85000Y85500D03*
Y139500D03*
G54D17*X53500Y32000D03*
X65000D03*
G54D18*X163000Y133000D03*
G54D11*G36*
X164500Y93500D02*Y86500D01*
X171500D01*
Y93500D01*
X164500D01*
G37*
G54D13*X168000Y100000D03*
Y110000D03*
G54D18*X163000Y17000D03*
G54D11*G36*
X61600Y75400D02*Y68600D01*
X68400D01*
Y75400D01*
X61600D01*
G37*
G54D19*X60000Y112500D03*
G54D18*X17000Y133000D03*
G54D11*G36*
X25000Y112700D02*Y100700D01*
X37000D01*
Y112700D01*
X25000D01*
G37*
G54D16*X31000Y91100D03*
G54D11*G36*
X16000Y109500D02*Y101500D01*
X24000D01*
Y109500D01*
X16000D01*
G37*
G54D18*X17000Y17000D03*
G54D16*X31000Y75500D03*
Y59900D03*
Y44300D03*
G54D11*G36*
X16000Y69500D02*Y61500D01*
X24000D01*
Y69500D01*
X16000D01*
G37*
G54D19*X20000Y45500D03*
Y85500D03*
G54D11*G36*
X50100Y75400D02*Y68600D01*
X56900D01*
Y75400D01*
X50100D01*
G37*
G54D20*X142107Y72500D02*X142893D01*
X142107Y79586D02*X142893D01*
G54D21*X126500Y69000D02*X133000D01*
X126500Y74000D02*X133000D01*
X126500Y79000D02*X133000D01*
G54D22*X145000Y63740D02*Y63287D01*
X142440Y63740D02*Y63287D01*
G54D20*X134086Y105393D02*Y104607D01*
X127000Y105393D02*Y104607D01*
G54D22*X126760Y118560D02*X127213D01*
X126760Y116000D02*X127213D01*
X126760Y113440D02*X127213D01*
X133787D02*X134240D01*
X133787Y116000D02*X134240D01*
X133787Y118560D02*X134240D01*
G54D23*X126369Y97299D02*X128239D01*
X126369Y94150D02*X128239D01*
X126369Y91000D02*X128239D01*
X126369Y87851D02*X128239D01*
X133065D02*X134935D01*
X133065Y91000D02*X134935D01*
X133065Y94150D02*X134935D01*
X133065Y97299D02*X134935D01*
G54D22*X142440Y56713D02*Y56260D01*
X145000Y56713D02*Y56260D01*
X147560Y56713D02*Y56260D01*
G54D20*X167543Y55393D02*Y54607D01*
X160457Y55393D02*Y54607D01*
G54D22*X147560Y63740D02*Y63287D01*
G54D20*X167543Y74893D02*Y74107D01*
X160457Y74893D02*Y74107D01*
G54D23*X158217Y41075D02*X160087D01*
X164913D02*X166783D01*
X158217Y37925D02*X160087D01*
X164913D02*X166783D01*
G54D20*X125457Y56893D02*Y56107D01*
X132543Y56893D02*Y56107D01*
G54D21*X126500Y64000D02*X133000D01*
G54D20*X117543Y56893D02*Y56107D01*
X110457Y56893D02*Y56107D01*
G54D21*X106000Y79000D02*X112500D01*
X106000Y74000D02*X112500D01*
X106000Y69000D02*X112500D01*
X106000Y64000D02*X112500D01*
G54D20*X97021Y72000D02*X97807D01*
X97021Y64914D02*X97807D01*
G54D24*X77200Y64000D02*X77800D01*
X77200Y56200D02*X77800D01*
X85400Y60100D02*X86000D01*
G54D20*X77957Y72393D02*Y71607D01*
X85043Y72393D02*Y71607D01*
X118107Y19457D02*X118893D01*
X118107Y26543D02*X118893D01*
G54D25*X136500Y18000D03*
X131500D03*
X136500Y23000D03*
X131500D03*
X136500Y28000D03*
X131500D03*
G54D26*X101662Y15945D02*Y11339D01*
X104221Y15945D02*Y11339D01*
X106779Y15945D02*Y11339D01*
X109338Y15945D02*Y11339D01*
G54D27*X75406Y24405D02*Y20311D01*
X69500Y24405D02*Y12595D01*
X63594Y24405D02*Y20311D01*
G54D20*X53607Y22543D02*X54393D01*
X53607Y15457D02*X54393D01*
G54D28*X41400Y27084D02*X42600D01*
X41400Y14184D02*X42600D01*
G54D29*X69500Y10861D02*Y8971D01*
G54D11*G36*
X71385Y18426D02*X74225Y15586D01*
X72805Y14166D01*
X69965Y17006D01*
X71385Y18426D01*
G37*
G36*
X64775Y15586D02*X67615Y18426D01*
X69035Y17006D01*
X66195Y14166D01*
X64775Y15586D01*
G37*
G54D20*X84107Y22543D02*X84893D01*
X84107Y15457D02*X84893D01*
X96957Y44893D02*Y44107D01*
X104043Y44893D02*Y44107D01*
G54D26*X109338Y33661D02*Y29055D01*
X106779Y33661D02*Y29055D01*
X104221Y33661D02*Y29055D01*
X101662Y33661D02*Y29055D01*
G54D20*X115457Y40393D02*Y39607D01*
X122543Y40393D02*Y39607D01*
G54D30*X84200Y35500D02*X85800D01*
X84200Y39400D02*X85800D01*
X76000D02*X77600D01*
X76000Y35500D02*X77600D01*
X84200Y43300D02*X85800D01*
X76000D02*X77600D01*
G54D15*X122000Y50000D03*
X138500Y51500D03*
X103000Y57500D03*
X138500Y59500D03*
X129000Y40500D03*
X147500Y41000D03*
X116500Y69000D03*
X112500Y83500D03*
X120500Y84000D03*
X140500Y94000D03*
X167500Y68000D03*
Y61500D03*
X140500Y99500D03*
X97500Y57500D03*
X72500Y72000D03*
Y66500D03*
X101500Y25000D03*
X61000Y10000D03*
Y5000D03*
X78000Y10000D03*
Y5000D03*
X92500D03*
X142000Y28000D03*
X112000Y19500D03*
X127000D03*
X141000Y21500D03*
X126000Y28000D03*
X112000Y25500D03*
X120500Y13000D03*
X114500Y13500D03*
X47500Y5000D03*
X69000Y41500D03*
X76500Y47500D03*
X92000Y34000D03*
G54D31*G54D32*G54D17*G54D33*G54D34*G54D33*G54D35*G54D34*G54D35*G54D33*G54D32*G54D35*G54D36*G54D32*G54D35*G54D36*G54D32*G54D33*M02*
