G04 start of page 11 for group -4015 idx -4015 *
G04 Title: (unknown), toppaste *
G04 Creator: pcb 4.0.2 *
G04 CreationDate: Mon Nov 22 04:13:10 2021 UTC *
G04 For: ndholmes *
G04 Format: Gerber/RS-274X *
G04 PCB-Dimensions (mil): 2600.00 3500.00 *
G04 PCB-Coordinate-Origin: lower left *
%MOIN*%
%FSLAX25Y25*%
%LNTOPPASTE*%
%ADD82C,0.0001*%
G54D82*G36*
X58984Y229500D02*X55204D01*
Y221626D01*
X58984D01*
Y229500D01*
G37*
G36*
X64890Y237216D02*X61110D01*
Y221626D01*
X64890D01*
Y237216D01*
G37*
G36*
X67725Y243675D02*X58275D01*
Y232335D01*
X67725D01*
Y243675D01*
G37*
G36*
X59695Y233755D02*X58275Y232335D01*
X61115Y229495D01*
X62535Y230915D01*
X59695Y233755D01*
G37*
G36*
X67725Y232335D02*X66305Y233755D01*
X63465Y230915D01*
X64885Y229495D01*
X67725Y232335D01*
G37*
G36*
X70796Y229500D02*X67016D01*
Y221626D01*
X70796D01*
Y229500D01*
G37*
G36*
X172548Y272016D02*Y266898D01*
X178452D01*
Y272016D01*
X172548D01*
G37*
G36*
Y279102D02*Y273984D01*
X178452D01*
Y279102D01*
X172548D01*
G37*
G36*
X210750Y30050D02*Y25350D01*
X220600D01*
Y30050D01*
X210750D01*
G37*
G36*
Y39850D02*Y35150D01*
X220600D01*
Y39850D01*
X210750D01*
G37*
G36*
Y49650D02*Y44950D01*
X220600D01*
Y49650D01*
X210750D01*
G37*
G36*
X232400Y30050D02*Y25350D01*
X242250D01*
Y30050D01*
X232400D01*
G37*
G36*
Y39850D02*Y35150D01*
X242250D01*
Y39850D01*
X232400D01*
G37*
G36*
Y49650D02*Y44950D01*
X242250D01*
Y49650D01*
X232400D01*
G37*
G36*
X201870Y292000D02*X193870D01*
Y240000D01*
X201870D01*
Y292000D01*
G37*
G36*
X123130D02*X115130D01*
Y240000D01*
X123130D01*
Y292000D01*
G37*
G36*
X13858Y268650D02*Y262350D01*
X26457D01*
Y268650D01*
X13858D01*
G37*
G36*
X33543D02*Y262350D01*
X46142D01*
Y268650D01*
X33543D01*
G37*
G36*
X14358Y238650D02*Y232350D01*
X26957D01*
Y238650D01*
X14358D01*
G37*
G36*
X34043D02*Y232350D01*
X46642D01*
Y238650D01*
X34043D01*
G37*
G36*
X113602Y213452D02*X108484D01*
Y207548D01*
X113602D01*
Y213452D01*
G37*
G36*
X106516D02*X101398D01*
Y207548D01*
X106516D01*
Y213452D01*
G37*
G36*
X215016Y194452D02*X209898D01*
Y188548D01*
X215016D01*
Y194452D01*
G37*
G36*
X222102D02*X216984D01*
Y188548D01*
X222102D01*
Y194452D01*
G37*
G36*
X215016Y146452D02*X209898D01*
Y140548D01*
X215016D01*
Y146452D01*
G37*
G36*
X222102D02*X216984D01*
Y140548D01*
X222102D01*
Y146452D01*
G37*
G36*
X242548Y283602D02*Y278484D01*
X248452D01*
Y283602D01*
X242548D01*
G37*
G36*
Y276516D02*Y271398D01*
X248452D01*
Y276516D01*
X242548D01*
G37*
G36*
X215016Y170452D02*X209898D01*
Y164548D01*
X215016D01*
Y170452D01*
G37*
G36*
X222102D02*X216984D01*
Y164548D01*
X222102D01*
Y170452D01*
G37*
G36*
X215602Y213952D02*X210484D01*
Y208048D01*
X215602D01*
Y213952D01*
G37*
G36*
X208516D02*X203398D01*
Y208048D01*
X208516D01*
Y213952D01*
G37*
G36*
X215059Y223952D02*X209941D01*
Y218048D01*
X215059D01*
Y223952D01*
G37*
G36*
X222145D02*X217027D01*
Y218048D01*
X222145D01*
Y223952D01*
G37*
G36*
X124000Y218500D02*Y216500D01*
X132500D01*
Y218500D01*
X124000D01*
G37*
G36*
Y213500D02*Y211500D01*
X132500D01*
Y213500D01*
X124000D01*
G37*
G36*
Y208500D02*Y206500D01*
X132500D01*
Y208500D01*
X124000D01*
G37*
G36*
Y203500D02*Y201500D01*
X132500D01*
Y203500D01*
X124000D01*
G37*
G36*
X144500D02*Y201500D01*
X153000D01*
Y203500D01*
X144500D01*
G37*
G36*
Y208500D02*Y206500D01*
X153000D01*
Y208500D01*
X144500D01*
G37*
G36*
Y213500D02*Y211500D01*
X153000D01*
Y213500D01*
X144500D01*
G37*
G36*
Y218500D02*Y216500D01*
X153000D01*
Y218500D01*
X144500D01*
G37*
G36*
X152500Y261500D02*X150500D01*
Y253000D01*
X152500D01*
Y261500D01*
G37*
G36*
X157500D02*X155500D01*
Y253000D01*
X157500D01*
Y261500D01*
G37*
G36*
X162500D02*X160500D01*
Y253000D01*
X162500D01*
Y261500D01*
G37*
G36*
X167500D02*X165500D01*
Y253000D01*
X167500D01*
Y261500D01*
G37*
G36*
Y282000D02*X165500D01*
Y273500D01*
X167500D01*
Y282000D01*
G37*
G36*
X162500D02*X160500D01*
Y273500D01*
X162500D01*
Y282000D01*
G37*
G36*
X157500D02*X155500D01*
Y273500D01*
X157500D01*
Y282000D01*
G37*
G36*
X152500D02*X150500D01*
Y273500D01*
X152500D01*
Y282000D01*
G37*
G36*
X154670Y270750D02*Y264250D01*
X163330D01*
Y270750D01*
X154670D01*
G37*
G36*
X152895Y272225D02*Y262775D01*
X165105D01*
Y272225D01*
X152895D01*
G37*
G36*
X106516Y223909D02*X101398D01*
Y218005D01*
X106516D01*
Y223909D01*
G37*
G36*
X113602D02*X108484D01*
Y218005D01*
X113602D01*
Y223909D01*
G37*
G36*
X215016Y135452D02*X209898D01*
Y129548D01*
X215016D01*
Y135452D01*
G37*
G36*
X222102D02*X216984D01*
Y129548D01*
X222102D01*
Y135452D01*
G37*
G36*
Y160452D02*X216984D01*
Y154548D01*
X222102D01*
Y160452D01*
G37*
G36*
X215016D02*X209898D01*
Y154548D01*
X215016D01*
Y160452D01*
G37*
G36*
X58973Y215952D02*X53855D01*
Y210048D01*
X58973D01*
Y215952D01*
G37*
G36*
X66059D02*X60941D01*
Y210048D01*
X66059D01*
Y215952D01*
G37*
G36*
X249548Y303602D02*Y298484D01*
X255452D01*
Y303602D01*
X249548D01*
G37*
G36*
Y296516D02*Y291398D01*
X255452D01*
Y296516D01*
X249548D01*
G37*
G36*
X215602Y205452D02*X210484D01*
Y199548D01*
X215602D01*
Y205452D01*
G37*
G36*
X208516D02*X203398D01*
Y199548D01*
X208516D01*
Y205452D01*
G37*
G36*
X172016Y331952D02*X166898D01*
Y326048D01*
X172016D01*
Y331952D01*
G37*
G36*
X179102D02*X173984D01*
Y326048D01*
X179102D01*
Y331952D01*
G37*
G36*
X172059Y342952D02*X166941D01*
Y337048D01*
X172059D01*
Y342952D01*
G37*
G36*
X179145D02*X174027D01*
Y337048D01*
X179145D01*
Y342952D01*
G37*
G36*
X172059Y320952D02*X166941D01*
Y315048D01*
X172059D01*
Y320952D01*
G37*
G36*
X179145D02*X174027D01*
Y315048D01*
X179145D01*
Y320952D01*
G37*
M02*
