M48
INCH
T58C0.012
T57C0.042
T56C0.055
T55C0.129
T54C0.110
T53C0.125
T52C0.096
%
T58
X001600Y027150
X001600Y026000
X001650Y024150
X001650Y022950
X002000Y027150
X002000Y026000
X002050Y024150
X002050Y022950
X002400Y027150
X002400Y026000
X002450Y024150
X002450Y022950
X002900Y028250
X003300Y028250
X003700Y028250
X005550Y024250
X005550Y023850
X005550Y023500
X007050Y024250
X007050Y023850
X007050Y023500
X007450Y022750
X007900Y022750
X008300Y022750
X011250Y026600
X011250Y026100
X011250Y025600
X011250Y025100
X011250Y024650
X011250Y024150
X012100Y020250
X014150Y021250
X015050Y027000
X015050Y026500
X015950Y021250
X016150Y022600
X016700Y027000
X016700Y026500
X016750Y021550
X017000Y027950
X017000Y027600
X017300Y029450
X017300Y028950
X017300Y028450
X017700Y029450
X017700Y028950
X017700Y028450
X018100Y029450
X018100Y028950
X018100Y028450
X018100Y028050
X018100Y027650
X018100Y020500
X020400Y029050
X020400Y028550
X020400Y028050
X020400Y027600
X020400Y027100
X020400Y026600
X020400Y026100
X020400Y025600
X020400Y025150
X020400Y024650
X020400Y024150
X021250Y018500
T57
X009450Y018050
X011450Y018050
X013450Y018050
X015450Y018050
T56
X012250Y031000
X014250Y031000
T52
X001500Y008500
X024000Y008450
T54
X004100Y030800
X006000Y032000
T53
X006000Y029600
T55
X001700Y033300
X006600Y018350
X006600Y001650
X018200Y018350
X018200Y001650
X024300Y033300
M30
