G04 start of page 3 for group 1 idx 1 *
G04 Title: (unknown), bottom *
G04 Creator: pcb 4.0.2 *
G04 CreationDate: Mon Nov 22 04:13:10 2021 UTC *
G04 For: ndholmes *
G04 Format: Gerber/RS-274X *
G04 PCB-Dimensions (mil): 2600.00 3500.00 *
G04 PCB-Coordinate-Origin: lower left *
%MOIN*%
%FSLAX25Y25*%
%LNBOTTOM*%
%ADD50C,0.0420*%
%ADD49C,0.0550*%
%ADD48C,0.0390*%
%ADD47C,0.1285*%
%ADD46C,0.1100*%
%ADD45C,0.1250*%
%ADD44C,0.0960*%
%ADD43C,0.0120*%
%ADD42C,0.0260*%
%ADD41C,0.0800*%
%ADD40C,0.0900*%
%ADD39C,0.2937*%
%ADD38C,0.1500*%
%ADD37C,0.1750*%
%ADD36C,0.1360*%
%ADD35C,0.0100*%
%ADD34C,0.0400*%
%ADD33C,0.0001*%
G54D33*G36*
X239988Y220500D02*X258000D01*
Y2000D01*
X239988D01*
Y76677D01*
X240000Y76676D01*
X241224Y76772D01*
X242418Y77059D01*
X243552Y77529D01*
X244599Y78170D01*
X245532Y78968D01*
X246330Y79901D01*
X246971Y80948D01*
X247441Y82082D01*
X247728Y83276D01*
X247800Y84500D01*
X247728Y85724D01*
X247441Y86918D01*
X246971Y88052D01*
X246330Y89099D01*
X245532Y90032D01*
X244599Y90830D01*
X243552Y91471D01*
X242418Y91941D01*
X241224Y92228D01*
X240000Y92324D01*
X239988Y92323D01*
Y220500D01*
G37*
G36*
X195995D02*X239988D01*
Y92323D01*
X238776Y92228D01*
X237582Y91941D01*
X236448Y91471D01*
X235401Y90830D01*
X234468Y90032D01*
X233670Y89099D01*
X233029Y88052D01*
X232559Y86918D01*
X232272Y85724D01*
X232176Y84500D01*
X232272Y83276D01*
X232559Y82082D01*
X233029Y80948D01*
X233670Y79901D01*
X234468Y78968D01*
X235401Y78170D01*
X236448Y77529D01*
X237582Y77059D01*
X238776Y76772D01*
X239988Y76677D01*
Y2000D01*
X195995D01*
Y9321D01*
X196018Y9358D01*
X196962Y11638D01*
X197539Y14039D01*
X197684Y16500D01*
X197539Y18961D01*
X196962Y21362D01*
X196018Y23642D01*
X195995Y23679D01*
Y176321D01*
X196018Y176358D01*
X196962Y178638D01*
X197539Y181039D01*
X197684Y183500D01*
X197539Y185961D01*
X196962Y188362D01*
X196018Y190642D01*
X195995Y190679D01*
Y208041D01*
X196000Y208041D01*
X196463Y208077D01*
X196914Y208186D01*
X197343Y208363D01*
X197739Y208606D01*
X198092Y208908D01*
X198394Y209261D01*
X198637Y209657D01*
X198814Y210086D01*
X198923Y210537D01*
X198950Y211000D01*
X198923Y211463D01*
X198814Y211914D01*
X198637Y212343D01*
X198394Y212739D01*
X198092Y213092D01*
X197739Y213394D01*
X197343Y213637D01*
X196914Y213814D01*
X196463Y213923D01*
X196000Y213959D01*
X195995Y213959D01*
Y220500D01*
G37*
G36*
Y2000D02*X187978D01*
X189142Y2482D01*
X191247Y3772D01*
X193124Y5376D01*
X194728Y7253D01*
X195995Y9321D01*
Y2000D01*
G37*
G36*
X175995Y2011D02*X176022Y2000D01*
X175995D01*
Y2011D01*
G37*
G36*
Y169011D02*X177138Y168538D01*
X179539Y167961D01*
X182000Y167768D01*
X184461Y167961D01*
X186862Y168538D01*
X189142Y169482D01*
X191247Y170772D01*
X193124Y172376D01*
X194728Y174253D01*
X195995Y176321D01*
Y23679D01*
X194728Y25747D01*
X193124Y27624D01*
X191247Y29228D01*
X189142Y30518D01*
X186862Y31462D01*
X184461Y32039D01*
X182000Y32232D01*
X179539Y32039D01*
X177138Y31462D01*
X175995Y30989D01*
Y169011D01*
G37*
G36*
Y220500D02*X195995D01*
Y213959D01*
X195537Y213923D01*
X195086Y213814D01*
X194657Y213637D01*
X194261Y213394D01*
X193908Y213092D01*
X193606Y212739D01*
X193363Y212343D01*
X193186Y211914D01*
X193077Y211463D01*
X193041Y211000D01*
X193077Y210537D01*
X193186Y210086D01*
X193363Y209657D01*
X193606Y209261D01*
X193908Y208908D01*
X194261Y208606D01*
X194657Y208363D01*
X195086Y208186D01*
X195537Y208077D01*
X195995Y208041D01*
Y190679D01*
X194728Y192747D01*
X193124Y194624D01*
X191247Y196228D01*
X189142Y197518D01*
X186862Y198462D01*
X184461Y199039D01*
X182000Y199232D01*
X179539Y199039D01*
X177138Y198462D01*
X175995Y197989D01*
Y204041D01*
X176000Y204041D01*
X176463Y204077D01*
X176914Y204186D01*
X177343Y204363D01*
X177739Y204606D01*
X178092Y204908D01*
X178394Y205261D01*
X178637Y205657D01*
X178814Y206086D01*
X178923Y206537D01*
X178950Y207000D01*
X178923Y207463D01*
X178814Y207914D01*
X178637Y208343D01*
X178394Y208739D01*
X178092Y209092D01*
X177739Y209394D01*
X177343Y209637D01*
X176914Y209814D01*
X176463Y209923D01*
X176000Y209959D01*
X175995Y209959D01*
Y212041D01*
X176000Y212041D01*
X176463Y212077D01*
X176914Y212186D01*
X177343Y212363D01*
X177739Y212606D01*
X178092Y212908D01*
X178394Y213261D01*
X178637Y213657D01*
X178814Y214086D01*
X178923Y214537D01*
X178950Y215000D01*
X178923Y215463D01*
X178814Y215914D01*
X178637Y216343D01*
X178394Y216739D01*
X178092Y217092D01*
X177739Y217394D01*
X177343Y217637D01*
X176914Y217814D01*
X176463Y217923D01*
X176000Y217959D01*
X175995Y217959D01*
Y220500D01*
G37*
G36*
X150496D02*X164879D01*
X166000Y219379D01*
Y217244D01*
X165869Y217131D01*
X165634Y216856D01*
X165444Y216547D01*
X165306Y216213D01*
X165221Y215861D01*
X165193Y215500D01*
X165221Y215139D01*
X165306Y214787D01*
X165444Y214453D01*
X165634Y214144D01*
X165869Y213869D01*
X166144Y213634D01*
X166453Y213444D01*
X166787Y213306D01*
X167139Y213221D01*
X167500Y213193D01*
X167861Y213221D01*
X168213Y213306D01*
X168547Y213444D01*
X168856Y213634D01*
X169131Y213869D01*
X169366Y214144D01*
X169556Y214453D01*
X169694Y214787D01*
X169779Y215139D01*
X169800Y215500D01*
X169779Y215861D01*
X169694Y216213D01*
X169556Y216547D01*
X169366Y216856D01*
X169131Y217131D01*
X169000Y217244D01*
Y219941D01*
X169005Y220000D01*
X168986Y220235D01*
X168931Y220465D01*
X168916Y220500D01*
X175995D01*
Y217959D01*
X175537Y217923D01*
X175086Y217814D01*
X174657Y217637D01*
X174261Y217394D01*
X173908Y217092D01*
X173606Y216739D01*
X173363Y216343D01*
X173186Y215914D01*
X173077Y215463D01*
X173041Y215000D01*
X173077Y214537D01*
X173186Y214086D01*
X173363Y213657D01*
X173606Y213261D01*
X173908Y212908D01*
X174261Y212606D01*
X174657Y212363D01*
X175086Y212186D01*
X175537Y212077D01*
X175995Y212041D01*
Y209959D01*
X175537Y209923D01*
X175086Y209814D01*
X174657Y209637D01*
X174261Y209394D01*
X173908Y209092D01*
X173606Y208739D01*
X173363Y208343D01*
X173186Y207914D01*
X173077Y207463D01*
X173041Y207000D01*
X173077Y206537D01*
X173186Y206086D01*
X173363Y205657D01*
X173606Y205261D01*
X173908Y204908D01*
X174261Y204606D01*
X174657Y204363D01*
X175086Y204186D01*
X175537Y204077D01*
X175995Y204041D01*
Y197989D01*
X174858Y197518D01*
X172753Y196228D01*
X170876Y194624D01*
X169272Y192747D01*
X167982Y190642D01*
X167038Y188362D01*
X166461Y185961D01*
X166268Y183500D01*
X166461Y181039D01*
X167038Y178638D01*
X167982Y176358D01*
X169272Y174253D01*
X170876Y172376D01*
X172753Y170772D01*
X174858Y169482D01*
X175995Y169011D01*
Y30989D01*
X174858Y30518D01*
X172753Y29228D01*
X170876Y27624D01*
X169272Y25747D01*
X167982Y23642D01*
X167038Y21362D01*
X166461Y18961D01*
X166268Y16500D01*
X166461Y14039D01*
X167038Y11638D01*
X167982Y9358D01*
X169272Y7253D01*
X170876Y5376D01*
X172753Y3772D01*
X174858Y2482D01*
X175995Y2011D01*
Y2000D01*
X150496D01*
Y175000D01*
X150500Y175000D01*
X158735Y175014D01*
X158965Y175069D01*
X159183Y175159D01*
X159384Y175283D01*
X159564Y175436D01*
X159717Y175616D01*
X159841Y175817D01*
X159931Y176035D01*
X159986Y176265D01*
X160000Y176500D01*
X159986Y184735D01*
X159931Y184965D01*
X159841Y185183D01*
X159717Y185384D01*
X159564Y185564D01*
X159384Y185717D01*
X159183Y185841D01*
X158965Y185931D01*
X158735Y185986D01*
X158500Y186000D01*
X150496Y185986D01*
Y211000D01*
X157756D01*
X157869Y210869D01*
X158144Y210634D01*
X158453Y210444D01*
X158787Y210306D01*
X159139Y210221D01*
X159500Y210193D01*
X159861Y210221D01*
X160213Y210306D01*
X160547Y210444D01*
X160856Y210634D01*
X161131Y210869D01*
X161366Y211144D01*
X161556Y211453D01*
X161694Y211787D01*
X161779Y212139D01*
X161800Y212500D01*
X161779Y212861D01*
X161694Y213213D01*
X161556Y213547D01*
X161366Y213856D01*
X161131Y214131D01*
X160856Y214366D01*
X160547Y214556D01*
X160213Y214694D01*
X159861Y214779D01*
X159500Y214807D01*
X159139Y214779D01*
X158787Y214694D01*
X158453Y214556D01*
X158144Y214366D01*
X157869Y214131D01*
X157756Y214000D01*
X150496D01*
Y220500D01*
G37*
G36*
X134492D02*X150496D01*
Y214000D01*
X143244D01*
X143131Y214131D01*
X142856Y214366D01*
X142547Y214556D01*
X142213Y214694D01*
X141861Y214779D01*
X141500Y214807D01*
X141139Y214779D01*
X140787Y214694D01*
X140453Y214556D01*
X140144Y214366D01*
X139869Y214131D01*
X139634Y213856D01*
X139444Y213547D01*
X139306Y213213D01*
X139221Y212861D01*
X139193Y212500D01*
X139221Y212139D01*
X139306Y211787D01*
X139444Y211453D01*
X139634Y211144D01*
X139869Y210869D01*
X140144Y210634D01*
X140453Y210444D01*
X140787Y210306D01*
X141139Y210221D01*
X141500Y210193D01*
X141861Y210221D01*
X142213Y210306D01*
X142547Y210444D01*
X142856Y210634D01*
X143131Y210869D01*
X143244Y211000D01*
X150496D01*
Y185986D01*
X150265Y185986D01*
X150035Y185931D01*
X149817Y185841D01*
X149616Y185717D01*
X149436Y185564D01*
X149283Y185384D01*
X149159Y185183D01*
X149069Y184965D01*
X149014Y184735D01*
X149000Y184500D01*
X149014Y176265D01*
X149069Y176035D01*
X149159Y175817D01*
X149283Y175616D01*
X149436Y175436D01*
X149616Y175283D01*
X149817Y175159D01*
X150035Y175069D01*
X150265Y175014D01*
X150496Y175000D01*
Y2000D01*
X134492D01*
Y174984D01*
X134500Y174983D01*
X135363Y175051D01*
X136205Y175253D01*
X137005Y175584D01*
X137743Y176037D01*
X138401Y176599D01*
X138963Y177257D01*
X139416Y177995D01*
X139747Y178795D01*
X139949Y179637D01*
X140000Y180500D01*
X139949Y181363D01*
X139747Y182205D01*
X139416Y183005D01*
X138963Y183743D01*
X138401Y184401D01*
X137743Y184963D01*
X137005Y185416D01*
X136205Y185747D01*
X135363Y185949D01*
X134500Y186017D01*
X134492Y186016D01*
Y220500D01*
G37*
G36*
X114500D02*X134492D01*
Y186016D01*
X133637Y185949D01*
X132795Y185747D01*
X131995Y185416D01*
X131257Y184963D01*
X130599Y184401D01*
X130037Y183743D01*
X129584Y183005D01*
X129253Y182205D01*
X129051Y181363D01*
X128983Y180500D01*
X129051Y179637D01*
X129253Y178795D01*
X129584Y177995D01*
X130037Y177257D01*
X130599Y176599D01*
X131257Y176037D01*
X131995Y175584D01*
X132795Y175253D01*
X133637Y175051D01*
X134492Y174984D01*
Y2000D01*
X114500D01*
Y175007D01*
X118735Y175014D01*
X118965Y175069D01*
X119183Y175159D01*
X119384Y175283D01*
X119564Y175436D01*
X119717Y175616D01*
X119841Y175817D01*
X119931Y176035D01*
X119986Y176265D01*
X120000Y176500D01*
X119986Y184735D01*
X119931Y184965D01*
X119841Y185183D01*
X119717Y185384D01*
X119564Y185564D01*
X119384Y185717D01*
X119183Y185841D01*
X118965Y185931D01*
X118735Y185986D01*
X118500Y186000D01*
X114500Y185993D01*
Y220500D01*
G37*
G36*
X98993D02*X114500D01*
Y185993D01*
X110265Y185986D01*
X110035Y185931D01*
X109817Y185841D01*
X109616Y185717D01*
X109436Y185564D01*
X109283Y185384D01*
X109159Y185183D01*
X109069Y184965D01*
X109014Y184735D01*
X109000Y184500D01*
X109014Y176265D01*
X109069Y176035D01*
X109159Y175817D01*
X109283Y175616D01*
X109436Y175436D01*
X109616Y175283D01*
X109817Y175159D01*
X110035Y175069D01*
X110265Y175014D01*
X110500Y175000D01*
X114500Y175007D01*
Y2000D01*
X98993D01*
Y177645D01*
X99078Y177681D01*
X99179Y177743D01*
X99269Y177819D01*
X99345Y177909D01*
X99405Y178011D01*
X99622Y178480D01*
X99789Y178969D01*
X99909Y179472D01*
X99982Y179984D01*
X100006Y180500D01*
X99982Y181016D01*
X99909Y181528D01*
X99789Y182031D01*
X99622Y182520D01*
X99410Y182992D01*
X99349Y183093D01*
X99272Y183184D01*
X99182Y183261D01*
X99080Y183323D01*
X98993Y183360D01*
Y220500D01*
G37*
G36*
X94502D02*X98993D01*
Y183360D01*
X98971Y183369D01*
X98855Y183397D01*
X98737Y183406D01*
X98619Y183397D01*
X98503Y183370D01*
X98393Y183324D01*
X98292Y183262D01*
X98202Y183186D01*
X98124Y183095D01*
X98062Y182994D01*
X98016Y182885D01*
X97989Y182769D01*
X97979Y182651D01*
X97988Y182532D01*
X98016Y182417D01*
X98063Y182308D01*
X98221Y181968D01*
X98342Y181612D01*
X98430Y181247D01*
X98482Y180875D01*
X98500Y180500D01*
X98482Y180125D01*
X98430Y179753D01*
X98342Y179388D01*
X98221Y179032D01*
X98067Y178690D01*
X98020Y178582D01*
X97993Y178467D01*
X97983Y178349D01*
X97993Y178232D01*
X98021Y178117D01*
X98066Y178008D01*
X98128Y177907D01*
X98205Y177818D01*
X98295Y177741D01*
X98395Y177680D01*
X98504Y177635D01*
X98619Y177607D01*
X98737Y177598D01*
X98855Y177608D01*
X98969Y177635D01*
X98993Y177645D01*
Y2000D01*
X94502D01*
Y174994D01*
X95016Y175018D01*
X95528Y175091D01*
X96031Y175211D01*
X96520Y175378D01*
X96992Y175590D01*
X97093Y175651D01*
X97184Y175728D01*
X97261Y175818D01*
X97323Y175920D01*
X97369Y176029D01*
X97397Y176145D01*
X97406Y176263D01*
X97397Y176381D01*
X97370Y176497D01*
X97324Y176607D01*
X97262Y176708D01*
X97186Y176798D01*
X97095Y176876D01*
X96994Y176938D01*
X96885Y176984D01*
X96769Y177011D01*
X96651Y177021D01*
X96532Y177012D01*
X96417Y176984D01*
X96308Y176937D01*
X95968Y176779D01*
X95612Y176658D01*
X95247Y176570D01*
X94875Y176518D01*
X94502Y176500D01*
Y184500D01*
X94875Y184482D01*
X95247Y184430D01*
X95612Y184342D01*
X95968Y184221D01*
X96310Y184067D01*
X96418Y184020D01*
X96533Y183993D01*
X96651Y183983D01*
X96768Y183993D01*
X96883Y184021D01*
X96992Y184066D01*
X97093Y184128D01*
X97182Y184205D01*
X97259Y184295D01*
X97320Y184395D01*
X97365Y184504D01*
X97393Y184619D01*
X97402Y184737D01*
X97392Y184855D01*
X97365Y184969D01*
X97319Y185078D01*
X97257Y185179D01*
X97181Y185269D01*
X97091Y185345D01*
X96989Y185405D01*
X96520Y185622D01*
X96031Y185789D01*
X95528Y185909D01*
X95016Y185982D01*
X94502Y186006D01*
Y220500D01*
G37*
G36*
X90007D02*X94502D01*
Y186006D01*
X94500Y186006D01*
X93984Y185982D01*
X93472Y185909D01*
X92969Y185789D01*
X92480Y185622D01*
X92008Y185410D01*
X91907Y185349D01*
X91816Y185272D01*
X91739Y185182D01*
X91677Y185080D01*
X91631Y184971D01*
X91603Y184855D01*
X91594Y184737D01*
X91603Y184619D01*
X91630Y184503D01*
X91676Y184393D01*
X91738Y184292D01*
X91814Y184202D01*
X91905Y184124D01*
X92006Y184062D01*
X92115Y184016D01*
X92231Y183989D01*
X92349Y183979D01*
X92468Y183988D01*
X92583Y184016D01*
X92692Y184063D01*
X93032Y184221D01*
X93388Y184342D01*
X93753Y184430D01*
X94125Y184482D01*
X94500Y184500D01*
X94502Y184500D01*
Y176500D01*
X94500Y176500D01*
X94125Y176518D01*
X93753Y176570D01*
X93388Y176658D01*
X93032Y176779D01*
X92690Y176933D01*
X92582Y176980D01*
X92467Y177007D01*
X92349Y177017D01*
X92232Y177007D01*
X92117Y176979D01*
X92008Y176934D01*
X91907Y176872D01*
X91818Y176795D01*
X91741Y176705D01*
X91680Y176605D01*
X91635Y176496D01*
X91607Y176381D01*
X91598Y176263D01*
X91608Y176145D01*
X91635Y176031D01*
X91681Y175922D01*
X91743Y175821D01*
X91819Y175731D01*
X91909Y175655D01*
X92011Y175595D01*
X92480Y175378D01*
X92969Y175211D01*
X93472Y175091D01*
X93984Y175018D01*
X94500Y174994D01*
X94502Y174994D01*
Y2000D01*
X90007D01*
Y177640D01*
X90029Y177631D01*
X90145Y177603D01*
X90263Y177594D01*
X90381Y177603D01*
X90497Y177630D01*
X90607Y177676D01*
X90708Y177738D01*
X90798Y177814D01*
X90876Y177905D01*
X90938Y178006D01*
X90984Y178115D01*
X91011Y178231D01*
X91021Y178349D01*
X91012Y178468D01*
X90984Y178583D01*
X90937Y178692D01*
X90779Y179032D01*
X90658Y179388D01*
X90570Y179753D01*
X90518Y180125D01*
X90500Y180500D01*
X90518Y180875D01*
X90570Y181247D01*
X90658Y181612D01*
X90779Y181968D01*
X90933Y182310D01*
X90980Y182418D01*
X91007Y182533D01*
X91017Y182651D01*
X91007Y182768D01*
X90979Y182883D01*
X90934Y182992D01*
X90872Y183093D01*
X90795Y183182D01*
X90705Y183259D01*
X90605Y183320D01*
X90496Y183365D01*
X90381Y183393D01*
X90263Y183402D01*
X90145Y183392D01*
X90031Y183365D01*
X90007Y183355D01*
Y220500D01*
G37*
G36*
X65976D02*X90007D01*
Y183355D01*
X89922Y183319D01*
X89821Y183257D01*
X89731Y183181D01*
X89655Y183091D01*
X89595Y182989D01*
X89378Y182520D01*
X89211Y182031D01*
X89091Y181528D01*
X89018Y181016D01*
X88994Y180500D01*
X89018Y179984D01*
X89091Y179472D01*
X89211Y178969D01*
X89378Y178480D01*
X89590Y178008D01*
X89651Y177907D01*
X89728Y177816D01*
X89818Y177739D01*
X89920Y177677D01*
X90007Y177640D01*
Y2000D01*
X71978D01*
X73142Y2482D01*
X75247Y3772D01*
X77124Y5376D01*
X78728Y7253D01*
X80018Y9358D01*
X80962Y11638D01*
X81539Y14039D01*
X81684Y16500D01*
X81539Y18961D01*
X80962Y21362D01*
X80018Y23642D01*
X78728Y25747D01*
X77124Y27624D01*
X75247Y29228D01*
X73142Y30518D01*
X70862Y31462D01*
X68461Y32039D01*
X66000Y32232D01*
X65976Y32230D01*
Y167770D01*
X66000Y167768D01*
X68461Y167961D01*
X70862Y168538D01*
X73142Y169482D01*
X75247Y170772D01*
X77124Y172376D01*
X78728Y174253D01*
X80018Y176358D01*
X80962Y178638D01*
X81539Y181039D01*
X81684Y183500D01*
X81539Y185961D01*
X80962Y188362D01*
X80018Y190642D01*
X78728Y192747D01*
X77124Y194624D01*
X75247Y196228D01*
X73142Y197518D01*
X70862Y198462D01*
X68461Y199039D01*
X66000Y199232D01*
X65976Y199230D01*
Y220500D01*
G37*
G36*
X14988D02*X65976D01*
Y199230D01*
X63539Y199039D01*
X61138Y198462D01*
X58858Y197518D01*
X56753Y196228D01*
X54876Y194624D01*
X53272Y192747D01*
X51982Y190642D01*
X51038Y188362D01*
X50461Y185961D01*
X50268Y183500D01*
X50461Y181039D01*
X51038Y178638D01*
X51982Y176358D01*
X53272Y174253D01*
X54876Y172376D01*
X56753Y170772D01*
X58858Y169482D01*
X61138Y168538D01*
X63539Y167961D01*
X65976Y167770D01*
Y32230D01*
X63539Y32039D01*
X61138Y31462D01*
X58858Y30518D01*
X56753Y29228D01*
X54876Y27624D01*
X53272Y25747D01*
X51982Y23642D01*
X51038Y21362D01*
X50461Y18961D01*
X50268Y16500D01*
X50461Y14039D01*
X51038Y11638D01*
X51982Y9358D01*
X53272Y7253D01*
X54876Y5376D01*
X56753Y3772D01*
X58858Y2482D01*
X60022Y2000D01*
X14988D01*
Y77177D01*
X15000Y77176D01*
X16224Y77272D01*
X17418Y77559D01*
X18552Y78029D01*
X19599Y78670D01*
X20532Y79468D01*
X21330Y80401D01*
X21971Y81448D01*
X22441Y82582D01*
X22728Y83776D01*
X22800Y85000D01*
X22728Y86224D01*
X22441Y87418D01*
X21971Y88552D01*
X21330Y89599D01*
X20532Y90532D01*
X19599Y91330D01*
X18552Y91971D01*
X17418Y92441D01*
X16224Y92728D01*
X15000Y92824D01*
X14988Y92823D01*
Y220500D01*
G37*
G36*
X2000D02*X14988D01*
Y92823D01*
X13776Y92728D01*
X12582Y92441D01*
X11448Y91971D01*
X10401Y91330D01*
X9468Y90532D01*
X8670Y89599D01*
X8029Y88552D01*
X7559Y87418D01*
X7272Y86224D01*
X7176Y85000D01*
X7272Y83776D01*
X7559Y82582D01*
X8029Y81448D01*
X8670Y80401D01*
X9468Y79468D01*
X10401Y78670D01*
X11448Y78029D01*
X12582Y77559D01*
X13776Y77272D01*
X14988Y77177D01*
Y2000D01*
X2000D01*
Y220500D01*
G37*
G36*
X184000Y273000D02*X1500D01*
Y298000D01*
X49528D01*
X49449Y297671D01*
X49317Y296000D01*
X49449Y294329D01*
X49840Y292699D01*
X50482Y291150D01*
X51357Y289721D01*
X52446Y288446D01*
X53721Y287357D01*
X55150Y286482D01*
X56699Y285840D01*
X58329Y285449D01*
X60000Y285317D01*
X61671Y285449D01*
X63301Y285840D01*
X64850Y286482D01*
X66279Y287357D01*
X67554Y288446D01*
X68643Y289721D01*
X69518Y291150D01*
X70160Y292699D01*
X70551Y294329D01*
X70650Y296000D01*
X70551Y297671D01*
X70472Y298000D01*
X184000D01*
Y273000D01*
G37*
G36*
X1500Y298000D02*X30000D01*
Y222000D01*
X1500D01*
Y298000D01*
G37*
G36*
X31500Y271500D02*X238500D01*
Y251500D01*
X31500D01*
Y271500D01*
G37*
G36*
X67155Y322245D02*X67319Y321638D01*
X67435Y320988D01*
X67493Y320330D01*
Y319670D01*
X67435Y319012D01*
X67319Y318362D01*
X67155Y317755D01*
Y322245D01*
G37*
G36*
X142500Y348500D02*X240378D01*
X238138Y347962D01*
X235858Y347018D01*
X233753Y345728D01*
X231876Y344124D01*
X230272Y342247D01*
X228982Y340142D01*
X228038Y337862D01*
X227461Y335461D01*
X227268Y333000D01*
X227461Y330539D01*
X228038Y328138D01*
X228982Y325858D01*
X230272Y323753D01*
X231876Y321876D01*
X233753Y320272D01*
X235858Y318982D01*
X238138Y318038D01*
X240539Y317461D01*
X243000Y317268D01*
X245461Y317461D01*
X247862Y318038D01*
X250142Y318982D01*
X252247Y320272D01*
X254124Y321876D01*
X255728Y323753D01*
X257018Y325858D01*
X257500Y327022D01*
Y299500D01*
X142500D01*
Y304007D01*
X147235Y304014D01*
X147465Y304069D01*
X147683Y304159D01*
X147884Y304283D01*
X148064Y304436D01*
X148217Y304616D01*
X148341Y304817D01*
X148431Y305035D01*
X148486Y305265D01*
X148500Y305500D01*
X148486Y314735D01*
X148431Y314965D01*
X148341Y315183D01*
X148217Y315384D01*
X148064Y315564D01*
X147884Y315717D01*
X147683Y315841D01*
X147465Y315931D01*
X147235Y315986D01*
X147000Y316000D01*
X142500Y315993D01*
Y348500D01*
G37*
G36*
X122491D02*X142500D01*
Y315993D01*
X137765Y315986D01*
X137535Y315931D01*
X137317Y315841D01*
X137116Y315717D01*
X136936Y315564D01*
X136783Y315384D01*
X136659Y315183D01*
X136569Y314965D01*
X136514Y314735D01*
X136500Y314500D01*
X136514Y305265D01*
X136569Y305035D01*
X136659Y304817D01*
X136783Y304616D01*
X136936Y304436D01*
X137116Y304283D01*
X137317Y304159D01*
X137535Y304069D01*
X137765Y304014D01*
X138000Y304000D01*
X142500Y304007D01*
Y299500D01*
X122491D01*
Y303982D01*
X122500Y303981D01*
X123442Y304056D01*
X124360Y304276D01*
X125232Y304637D01*
X126038Y305131D01*
X126756Y305744D01*
X127369Y306462D01*
X127863Y307268D01*
X128224Y308140D01*
X128444Y309058D01*
X128500Y310000D01*
X128444Y310942D01*
X128224Y311860D01*
X127863Y312732D01*
X127369Y313538D01*
X126756Y314256D01*
X126038Y314869D01*
X125232Y315363D01*
X124360Y315724D01*
X123442Y315944D01*
X122500Y316019D01*
X122491Y316018D01*
Y348500D01*
G37*
G36*
X67155D02*X122491D01*
Y316018D01*
X121558Y315944D01*
X120640Y315724D01*
X119768Y315363D01*
X118962Y314869D01*
X118244Y314256D01*
X117631Y313538D01*
X117137Y312732D01*
X116776Y311860D01*
X116556Y310942D01*
X116481Y310000D01*
X116556Y309058D01*
X116776Y308140D01*
X117137Y307268D01*
X117631Y306462D01*
X118244Y305744D01*
X118962Y305131D01*
X119768Y304637D01*
X120640Y304276D01*
X121558Y304056D01*
X122491Y303982D01*
Y299500D01*
X70078D01*
X69518Y300850D01*
X68643Y302279D01*
X67554Y303554D01*
X67155Y303895D01*
Y315396D01*
X67530Y316039D01*
X67849Y316716D01*
X68107Y317419D01*
X68303Y318142D01*
X68434Y318880D01*
X68500Y319626D01*
Y320374D01*
X68434Y321121D01*
X68303Y321858D01*
X68107Y322581D01*
X67849Y323284D01*
X67530Y323961D01*
X67155Y324604D01*
Y348500D01*
G37*
G36*
X60004D02*X67155D01*
Y324604D01*
X67152Y324608D01*
X66719Y325219D01*
X66666Y325279D01*
X66604Y325328D01*
X66534Y325368D01*
X66460Y325396D01*
X66381Y325412D01*
X66302Y325416D01*
X66222Y325407D01*
X66145Y325386D01*
X66073Y325353D01*
X66006Y325309D01*
X65947Y325256D01*
X65897Y325193D01*
X65857Y325124D01*
X65829Y325049D01*
X65813Y324971D01*
X65809Y324891D01*
X65818Y324812D01*
X65839Y324735D01*
X65872Y324662D01*
X65917Y324596D01*
X66305Y324062D01*
X66638Y323492D01*
X66919Y322895D01*
X67147Y322275D01*
X67155Y322245D01*
Y317755D01*
X67147Y317725D01*
X66919Y317105D01*
X66638Y316508D01*
X66305Y315938D01*
X65923Y315399D01*
X65879Y315334D01*
X65846Y315263D01*
X65825Y315187D01*
X65817Y315109D01*
X65820Y315030D01*
X65836Y314953D01*
X65864Y314879D01*
X65903Y314811D01*
X65952Y314749D01*
X66010Y314696D01*
X66076Y314653D01*
X66148Y314621D01*
X66224Y314600D01*
X66302Y314591D01*
X66381Y314595D01*
X66458Y314611D01*
X66531Y314639D01*
X66600Y314678D01*
X66661Y314727D01*
X66713Y314786D01*
X67152Y315392D01*
X67155Y315396D01*
Y303895D01*
X66279Y304643D01*
X64850Y305518D01*
X63301Y306160D01*
X61671Y306551D01*
X60004Y306683D01*
Y311500D01*
X60374D01*
X61121Y311566D01*
X61858Y311697D01*
X62581Y311893D01*
X63284Y312151D01*
X63961Y312470D01*
X64608Y312848D01*
X65219Y313281D01*
X65279Y313334D01*
X65328Y313396D01*
X65368Y313466D01*
X65396Y313540D01*
X65412Y313619D01*
X65416Y313698D01*
X65407Y313778D01*
X65386Y313855D01*
X65353Y313927D01*
X65309Y313994D01*
X65256Y314053D01*
X65193Y314103D01*
X65124Y314143D01*
X65049Y314171D01*
X64971Y314187D01*
X64891Y314191D01*
X64812Y314182D01*
X64735Y314161D01*
X64662Y314128D01*
X64596Y314083D01*
X64062Y313695D01*
X63492Y313362D01*
X62895Y313081D01*
X62275Y312853D01*
X61638Y312681D01*
X60988Y312565D01*
X60330Y312507D01*
X60004D01*
Y327493D01*
X60330D01*
X60988Y327435D01*
X61638Y327319D01*
X62275Y327147D01*
X62895Y326919D01*
X63492Y326638D01*
X64062Y326305D01*
X64601Y325923D01*
X64666Y325879D01*
X64737Y325846D01*
X64813Y325825D01*
X64891Y325817D01*
X64970Y325820D01*
X65047Y325836D01*
X65121Y325864D01*
X65189Y325903D01*
X65251Y325952D01*
X65304Y326010D01*
X65347Y326076D01*
X65379Y326148D01*
X65400Y326224D01*
X65409Y326302D01*
X65405Y326381D01*
X65389Y326458D01*
X65361Y326531D01*
X65322Y326600D01*
X65273Y326661D01*
X65214Y326713D01*
X64608Y327152D01*
X63961Y327530D01*
X63284Y327849D01*
X62581Y328107D01*
X61858Y328303D01*
X61121Y328434D01*
X60374Y328500D01*
X60004D01*
Y348500D01*
G37*
G36*
X52845D02*X60004D01*
Y328500D01*
X59626D01*
X58879Y328434D01*
X58142Y328303D01*
X57419Y328107D01*
X56716Y327849D01*
X56039Y327530D01*
X55392Y327152D01*
X54781Y326719D01*
X54721Y326666D01*
X54672Y326604D01*
X54632Y326534D01*
X54604Y326460D01*
X54588Y326381D01*
X54584Y326302D01*
X54593Y326222D01*
X54614Y326145D01*
X54647Y326073D01*
X54691Y326006D01*
X54744Y325947D01*
X54807Y325897D01*
X54876Y325857D01*
X54951Y325829D01*
X55029Y325813D01*
X55109Y325809D01*
X55188Y325818D01*
X55265Y325839D01*
X55338Y325872D01*
X55404Y325917D01*
X55938Y326305D01*
X56508Y326638D01*
X57105Y326919D01*
X57725Y327147D01*
X58362Y327319D01*
X59012Y327435D01*
X59670Y327493D01*
X60004D01*
Y312507D01*
X59670D01*
X59012Y312565D01*
X58362Y312681D01*
X57725Y312853D01*
X57105Y313081D01*
X56508Y313362D01*
X55938Y313695D01*
X55399Y314077D01*
X55334Y314121D01*
X55263Y314154D01*
X55187Y314175D01*
X55109Y314183D01*
X55030Y314180D01*
X54953Y314164D01*
X54879Y314136D01*
X54811Y314097D01*
X54749Y314048D01*
X54696Y313990D01*
X54653Y313924D01*
X54621Y313852D01*
X54600Y313776D01*
X54591Y313698D01*
X54595Y313619D01*
X54611Y313542D01*
X54639Y313469D01*
X54678Y313400D01*
X54727Y313339D01*
X54786Y313287D01*
X55392Y312848D01*
X56039Y312470D01*
X56716Y312151D01*
X57419Y311893D01*
X58142Y311697D01*
X58879Y311566D01*
X59626Y311500D01*
X60004D01*
Y306683D01*
X60000Y306683D01*
X58329Y306551D01*
X56699Y306160D01*
X55150Y305518D01*
X53721Y304643D01*
X52845Y303895D01*
Y315396D01*
X52848Y315392D01*
X53281Y314781D01*
X53334Y314721D01*
X53396Y314672D01*
X53466Y314632D01*
X53540Y314604D01*
X53619Y314588D01*
X53698Y314584D01*
X53778Y314593D01*
X53855Y314614D01*
X53927Y314647D01*
X53994Y314691D01*
X54053Y314744D01*
X54103Y314807D01*
X54143Y314876D01*
X54171Y314951D01*
X54187Y315029D01*
X54191Y315109D01*
X54182Y315188D01*
X54161Y315265D01*
X54128Y315338D01*
X54083Y315404D01*
X53695Y315938D01*
X53362Y316508D01*
X53081Y317105D01*
X52853Y317725D01*
X52845Y317755D01*
Y322245D01*
X52853Y322275D01*
X53081Y322895D01*
X53362Y323492D01*
X53695Y324062D01*
X54077Y324601D01*
X54121Y324666D01*
X54154Y324737D01*
X54175Y324813D01*
X54183Y324891D01*
X54180Y324970D01*
X54164Y325047D01*
X54136Y325121D01*
X54097Y325189D01*
X54048Y325251D01*
X53990Y325304D01*
X53924Y325347D01*
X53852Y325379D01*
X53776Y325400D01*
X53698Y325409D01*
X53619Y325405D01*
X53542Y325389D01*
X53469Y325361D01*
X53400Y325322D01*
X53339Y325273D01*
X53287Y325214D01*
X52848Y324608D01*
X52845Y324604D01*
Y348500D01*
G37*
G36*
Y317755D02*X52681Y318362D01*
X52565Y319012D01*
X52507Y319670D01*
Y320330D01*
X52565Y320988D01*
X52681Y321638D01*
X52845Y322245D01*
Y317755D01*
G37*
G36*
X48155Y310245D02*X48319Y309638D01*
X48435Y308988D01*
X48493Y308330D01*
Y307670D01*
X48435Y307012D01*
X48319Y306362D01*
X48155Y305755D01*
Y310245D01*
G37*
G36*
Y348500D02*X52845D01*
Y324604D01*
X52470Y323961D01*
X52151Y323284D01*
X51893Y322581D01*
X51697Y321858D01*
X51566Y321121D01*
X51500Y320374D01*
Y319626D01*
X51566Y318880D01*
X51697Y318142D01*
X51893Y317419D01*
X52151Y316716D01*
X52470Y316039D01*
X52845Y315396D01*
Y303895D01*
X52446Y303554D01*
X51357Y302279D01*
X50482Y300850D01*
X49922Y299500D01*
X48155D01*
Y303396D01*
X48530Y304039D01*
X48849Y304716D01*
X49107Y305419D01*
X49303Y306142D01*
X49434Y306880D01*
X49500Y307626D01*
Y308374D01*
X49434Y309121D01*
X49303Y309858D01*
X49107Y310581D01*
X48849Y311284D01*
X48530Y311961D01*
X48155Y312604D01*
Y348500D01*
G37*
G36*
X41004D02*X48155D01*
Y312604D01*
X48152Y312608D01*
X47719Y313219D01*
X47666Y313279D01*
X47604Y313328D01*
X47534Y313368D01*
X47460Y313396D01*
X47381Y313412D01*
X47302Y313416D01*
X47222Y313407D01*
X47145Y313386D01*
X47073Y313353D01*
X47006Y313309D01*
X46947Y313256D01*
X46897Y313193D01*
X46857Y313124D01*
X46829Y313049D01*
X46813Y312971D01*
X46809Y312891D01*
X46818Y312812D01*
X46839Y312735D01*
X46872Y312662D01*
X46917Y312596D01*
X47305Y312062D01*
X47638Y311492D01*
X47919Y310895D01*
X48147Y310275D01*
X48155Y310245D01*
Y305755D01*
X48147Y305725D01*
X47919Y305105D01*
X47638Y304508D01*
X47305Y303938D01*
X46923Y303399D01*
X46879Y303334D01*
X46846Y303263D01*
X46825Y303187D01*
X46817Y303109D01*
X46820Y303030D01*
X46836Y302953D01*
X46864Y302879D01*
X46903Y302811D01*
X46952Y302749D01*
X47010Y302696D01*
X47076Y302653D01*
X47148Y302621D01*
X47224Y302600D01*
X47302Y302591D01*
X47381Y302595D01*
X47458Y302611D01*
X47531Y302639D01*
X47600Y302678D01*
X47661Y302727D01*
X47713Y302786D01*
X48152Y303392D01*
X48155Y303396D01*
Y299500D01*
X41004D01*
Y299500D01*
X41374D01*
X42120Y299566D01*
X42858Y299697D01*
X43581Y299893D01*
X44284Y300151D01*
X44961Y300470D01*
X45608Y300848D01*
X46219Y301281D01*
X46279Y301334D01*
X46328Y301396D01*
X46368Y301466D01*
X46396Y301540D01*
X46412Y301619D01*
X46416Y301698D01*
X46407Y301778D01*
X46386Y301855D01*
X46353Y301927D01*
X46309Y301994D01*
X46256Y302053D01*
X46193Y302103D01*
X46124Y302143D01*
X46049Y302171D01*
X45971Y302187D01*
X45891Y302191D01*
X45812Y302182D01*
X45735Y302161D01*
X45662Y302128D01*
X45596Y302083D01*
X45062Y301695D01*
X44492Y301362D01*
X43895Y301081D01*
X43275Y300853D01*
X42638Y300681D01*
X41988Y300565D01*
X41330Y300507D01*
X41004D01*
Y315493D01*
X41330D01*
X41988Y315435D01*
X42638Y315319D01*
X43275Y315147D01*
X43895Y314919D01*
X44492Y314638D01*
X45062Y314305D01*
X45601Y313923D01*
X45666Y313879D01*
X45737Y313846D01*
X45813Y313825D01*
X45891Y313817D01*
X45970Y313820D01*
X46047Y313836D01*
X46121Y313864D01*
X46189Y313903D01*
X46251Y313952D01*
X46304Y314010D01*
X46347Y314076D01*
X46379Y314148D01*
X46400Y314224D01*
X46409Y314302D01*
X46405Y314381D01*
X46389Y314458D01*
X46361Y314531D01*
X46322Y314600D01*
X46273Y314661D01*
X46214Y314713D01*
X45608Y315152D01*
X44961Y315530D01*
X44284Y315849D01*
X43581Y316107D01*
X42858Y316303D01*
X42120Y316434D01*
X41374Y316500D01*
X41004D01*
Y348500D01*
G37*
G36*
X33845D02*X41004D01*
Y316500D01*
X40626D01*
X39879Y316434D01*
X39142Y316303D01*
X38419Y316107D01*
X37716Y315849D01*
X37039Y315530D01*
X36392Y315152D01*
X35781Y314719D01*
X35721Y314666D01*
X35672Y314604D01*
X35632Y314534D01*
X35604Y314460D01*
X35588Y314381D01*
X35584Y314302D01*
X35593Y314222D01*
X35614Y314145D01*
X35647Y314073D01*
X35691Y314006D01*
X35744Y313947D01*
X35807Y313897D01*
X35876Y313857D01*
X35951Y313829D01*
X36029Y313813D01*
X36109Y313809D01*
X36188Y313818D01*
X36265Y313839D01*
X36338Y313872D01*
X36404Y313917D01*
X36938Y314305D01*
X37508Y314638D01*
X38105Y314919D01*
X38725Y315147D01*
X39362Y315319D01*
X40012Y315435D01*
X40670Y315493D01*
X41004D01*
Y300507D01*
X40670D01*
X40012Y300565D01*
X39362Y300681D01*
X38725Y300853D01*
X38105Y301081D01*
X37508Y301362D01*
X36938Y301695D01*
X36399Y302077D01*
X36334Y302121D01*
X36263Y302154D01*
X36187Y302175D01*
X36109Y302183D01*
X36030Y302180D01*
X35953Y302164D01*
X35879Y302136D01*
X35811Y302097D01*
X35749Y302048D01*
X35696Y301990D01*
X35653Y301924D01*
X35621Y301852D01*
X35600Y301776D01*
X35591Y301698D01*
X35595Y301619D01*
X35611Y301542D01*
X35639Y301469D01*
X35678Y301400D01*
X35727Y301339D01*
X35786Y301287D01*
X36392Y300848D01*
X37039Y300470D01*
X37716Y300151D01*
X38419Y299893D01*
X39142Y299697D01*
X39879Y299566D01*
X40626Y299500D01*
X41004D01*
Y299500D01*
X33845D01*
Y303396D01*
X33848Y303392D01*
X34281Y302781D01*
X34334Y302721D01*
X34396Y302672D01*
X34466Y302632D01*
X34540Y302604D01*
X34619Y302588D01*
X34698Y302584D01*
X34778Y302593D01*
X34855Y302614D01*
X34927Y302647D01*
X34994Y302691D01*
X35053Y302744D01*
X35103Y302807D01*
X35143Y302876D01*
X35171Y302951D01*
X35187Y303029D01*
X35191Y303109D01*
X35182Y303188D01*
X35161Y303265D01*
X35128Y303338D01*
X35083Y303404D01*
X34695Y303938D01*
X34362Y304508D01*
X34081Y305105D01*
X33853Y305725D01*
X33845Y305755D01*
Y310245D01*
X33853Y310275D01*
X34081Y310895D01*
X34362Y311492D01*
X34695Y312062D01*
X35077Y312601D01*
X35121Y312666D01*
X35154Y312737D01*
X35175Y312813D01*
X35183Y312891D01*
X35180Y312970D01*
X35164Y313047D01*
X35136Y313121D01*
X35097Y313189D01*
X35048Y313251D01*
X34990Y313304D01*
X34924Y313347D01*
X34852Y313379D01*
X34776Y313400D01*
X34698Y313409D01*
X34619Y313405D01*
X34542Y313389D01*
X34469Y313361D01*
X34400Y313322D01*
X34339Y313273D01*
X34287Y313214D01*
X33848Y312608D01*
X33845Y312604D01*
Y348500D01*
G37*
G36*
Y305755D02*X33681Y306362D01*
X33565Y307012D01*
X33507Y307670D01*
Y308330D01*
X33565Y308988D01*
X33681Y309638D01*
X33845Y310245D01*
Y305755D01*
G37*
G36*
X19622Y348500D02*X33845D01*
Y312604D01*
X33470Y311961D01*
X33151Y311284D01*
X32893Y310581D01*
X32697Y309858D01*
X32566Y309121D01*
X32500Y308374D01*
Y307626D01*
X32566Y306880D01*
X32697Y306142D01*
X32893Y305419D01*
X33151Y304716D01*
X33470Y304039D01*
X33845Y303396D01*
Y299500D01*
X1500D01*
Y330378D01*
X2038Y328138D01*
X2982Y325858D01*
X4272Y323753D01*
X5876Y321876D01*
X7753Y320272D01*
X9858Y318982D01*
X12138Y318038D01*
X14539Y317461D01*
X17000Y317268D01*
X19461Y317461D01*
X21862Y318038D01*
X24142Y318982D01*
X26247Y320272D01*
X28124Y321876D01*
X29728Y323753D01*
X31018Y325858D01*
X31962Y328138D01*
X32539Y330539D01*
X32684Y333000D01*
X32539Y335461D01*
X31962Y337862D01*
X31018Y340142D01*
X29728Y342247D01*
X28124Y344124D01*
X26247Y345728D01*
X24142Y347018D01*
X21862Y347962D01*
X19622Y348500D01*
G37*
G36*
X185500Y301000D02*X257500D01*
Y231000D01*
X185500D01*
Y301000D01*
G37*
G36*
X31500Y257500D02*X257500D01*
Y231000D01*
X31500D01*
Y257500D01*
G37*
G36*
X90000Y235000D02*X257500D01*
Y216000D01*
X178779D01*
X178637Y216343D01*
X178394Y216739D01*
X178092Y217092D01*
X177739Y217394D01*
X177343Y217637D01*
X176914Y217814D01*
X176463Y217923D01*
X176000Y217959D01*
X175537Y217923D01*
X175086Y217814D01*
X174657Y217637D01*
X174261Y217394D01*
X173908Y217092D01*
X173606Y216739D01*
X173363Y216343D01*
X173221Y216000D01*
X169745D01*
X169694Y216213D01*
X169556Y216547D01*
X169366Y216856D01*
X169131Y217131D01*
X169000Y217244D01*
Y219941D01*
X169005Y220000D01*
X168986Y220235D01*
X168931Y220465D01*
X168841Y220683D01*
X168717Y220884D01*
X168564Y221064D01*
X168519Y221102D01*
X163790Y225831D01*
X163800Y226000D01*
X163779Y226361D01*
X163694Y226713D01*
X163556Y227047D01*
X163366Y227356D01*
X163131Y227631D01*
X162856Y227866D01*
X162547Y228056D01*
X162213Y228194D01*
X161861Y228279D01*
X161500Y228307D01*
X161139Y228279D01*
X160787Y228194D01*
X160453Y228056D01*
X160144Y227866D01*
X159869Y227631D01*
X159634Y227356D01*
X159444Y227047D01*
X159306Y226713D01*
X159221Y226361D01*
X159193Y226000D01*
X159221Y225639D01*
X159306Y225287D01*
X159444Y224953D01*
X159634Y224644D01*
X159869Y224369D01*
X160144Y224134D01*
X160453Y223944D01*
X160787Y223806D01*
X161139Y223721D01*
X161500Y223693D01*
X161672Y223706D01*
X166000Y219379D01*
Y217244D01*
X165869Y217131D01*
X165634Y216856D01*
X165444Y216547D01*
X165306Y216213D01*
X165255Y216000D01*
X90000D01*
Y235000D01*
G37*
G54D34*X83000Y227500D02*X26000D01*
G54D35*X141500Y212500D02*X159500D01*
X167500Y215500D02*Y220000D01*
X161500Y226000D01*
G54D36*X15000Y85000D03*
G54D37*X60000Y296000D03*
G54D38*Y320000D03*
X41000Y308000D03*
G54D39*X17000Y333000D03*
G54D36*X240000Y84500D03*
G54D33*G36*
X138000Y314500D02*Y305500D01*
X147000D01*
Y314500D01*
X138000D01*
G37*
G54D40*X122500Y310000D03*
G54D39*X243000Y333000D03*
X182000Y16500D03*
X66000D03*
Y183500D03*
G54D33*G36*
X110500Y184500D02*Y176500D01*
X118500D01*
Y184500D01*
X110500D01*
G37*
G54D41*X94500Y180500D03*
X134500D03*
G54D39*X182000Y183500D03*
G54D33*G36*
X150500Y184500D02*Y176500D01*
X158500D01*
Y184500D01*
X150500D01*
G37*
G54D42*X181000Y284500D03*
X177000D03*
X173000D03*
X181000Y280500D03*
Y276500D03*
X170000Y276000D03*
X167000Y270000D03*
Y265000D03*
X150500Y270000D03*
Y265000D03*
X170000Y279500D03*
X204000Y280500D03*
Y285500D03*
X181000Y289500D03*
Y294500D03*
X177000D03*
X173000D03*
X177000Y289500D03*
X173000D03*
X204000Y290500D03*
X24000Y260000D03*
X20000D03*
X16000D03*
X24500Y241500D03*
X20500D03*
X16500D03*
X24000Y271500D03*
X20000D03*
X16000D03*
X20500Y229500D03*
X16500D03*
X37000Y282500D03*
X33000D03*
X29000D03*
X24500Y229500D03*
X74500Y227500D03*
X79000D03*
X83000D03*
X55500Y242500D03*
Y238500D03*
Y235000D03*
X70500Y242500D03*
Y238500D03*
Y235000D03*
X121000Y202500D03*
X112500Y251000D03*
Y241500D03*
Y256000D03*
Y246500D03*
X159500Y212500D03*
X167500Y215500D03*
X181000Y205000D03*
X141500Y212500D03*
X161500Y226000D03*
X212500Y185000D03*
X204000Y271000D03*
Y276000D03*
Y266000D03*
Y256000D03*
Y246500D03*
Y261000D03*
Y251500D03*
Y241500D03*
X112500Y266000D03*
Y261000D03*
G54D43*G54D44*G54D45*G54D46*G54D47*G54D44*G54D48*G54D49*G54D47*G54D50*G54D47*G54D50*M02*
