G04 start of page 2 for group 0 idx 0 *
G04 Title: (unknown), top *
G04 Creator: pcb 4.0.2 *
G04 CreationDate: Mon Nov 22 04:13:10 2021 UTC *
G04 For: ndholmes *
G04 Format: Gerber/RS-274X *
G04 PCB-Dimensions (mil): 2600.00 3500.00 *
G04 PCB-Coordinate-Origin: lower left *
%MOIN*%
%FSLAX25Y25*%
%LNTOP*%
%ADD32C,0.0420*%
%ADD31C,0.0550*%
%ADD30C,0.0390*%
%ADD29C,0.1285*%
%ADD28C,0.1100*%
%ADD27C,0.1250*%
%ADD26C,0.0960*%
%ADD25C,0.0120*%
%ADD24C,0.0260*%
%ADD23C,0.0310*%
%ADD22C,0.0800*%
%ADD21C,0.0900*%
%ADD20C,0.2937*%
%ADD19C,0.1500*%
%ADD18C,0.1750*%
%ADD17C,0.1360*%
%ADD16C,0.0600*%
%ADD15C,0.1000*%
%ADD14C,0.0400*%
%ADD13C,0.0100*%
%ADD12C,0.0250*%
%ADD11C,0.0001*%
G54D11*G36*
X150000Y272000D02*X154940D01*
X155004Y271974D01*
X155249Y271915D01*
X155500Y271900D01*
X157751Y271915D01*
X157996Y271974D01*
X158060Y272000D01*
X169000D01*
Y263000D01*
X150000D01*
Y272000D01*
G37*
G36*
X184000Y273500D02*X165500D01*
Y287000D01*
X184000D01*
Y273500D01*
G37*
G36*
X164500Y272000D02*X193500D01*
Y263000D01*
X164500D01*
Y272000D01*
G37*
G36*
X185500Y306000D02*X239000D01*
Y231000D01*
X185500D01*
Y306000D01*
G37*
G36*
X169000Y264000D02*X189500D01*
Y231000D01*
X169000D01*
Y264000D01*
G37*
G36*
X184000Y283000D02*X165500D01*
Y298000D01*
X184000D01*
Y283000D01*
G37*
G36*
X1500Y287000D02*X30000D01*
Y222000D01*
X1500D01*
Y287000D01*
G37*
G36*
X32000Y275500D02*X87500D01*
Y231000D01*
X64610D01*
X64596Y231017D01*
X64327Y231247D01*
X64025Y231432D01*
X63697Y231567D01*
X63353Y231650D01*
X63000Y231678D01*
X62647Y231650D01*
X62303Y231567D01*
X61975Y231432D01*
X61673Y231247D01*
X61404Y231017D01*
X61390Y231000D01*
X32000D01*
Y275500D01*
G37*
G36*
X147500Y264500D02*X153000D01*
Y231000D01*
X147500D01*
Y264500D01*
G37*
G36*
X67155Y322245D02*X67319Y321638D01*
X67435Y320988D01*
X67493Y320330D01*
Y319670D01*
X67435Y319012D01*
X67319Y318362D01*
X67155Y317755D01*
Y322245D01*
G37*
G36*
X114000Y299500D02*X70078D01*
X69518Y300850D01*
X68643Y302279D01*
X67554Y303554D01*
X67155Y303895D01*
Y315396D01*
X67530Y316039D01*
X67849Y316716D01*
X68107Y317419D01*
X68303Y318142D01*
X68434Y318880D01*
X68500Y319626D01*
Y320374D01*
X68434Y321121D01*
X68303Y321858D01*
X68107Y322581D01*
X67849Y323284D01*
X67530Y323961D01*
X67155Y324604D01*
Y348500D01*
X114000D01*
Y299500D01*
G37*
G36*
X67155Y303895D02*X66279Y304643D01*
X64850Y305518D01*
X63301Y306160D01*
X61671Y306551D01*
X60004Y306683D01*
Y311500D01*
X60374D01*
X61121Y311566D01*
X61858Y311697D01*
X62581Y311893D01*
X63284Y312151D01*
X63961Y312470D01*
X64608Y312848D01*
X65219Y313281D01*
X65279Y313334D01*
X65328Y313396D01*
X65368Y313466D01*
X65396Y313540D01*
X65412Y313619D01*
X65416Y313698D01*
X65407Y313778D01*
X65386Y313855D01*
X65353Y313927D01*
X65309Y313994D01*
X65256Y314053D01*
X65193Y314103D01*
X65124Y314143D01*
X65049Y314171D01*
X64971Y314187D01*
X64891Y314191D01*
X64812Y314182D01*
X64735Y314161D01*
X64662Y314128D01*
X64596Y314083D01*
X64062Y313695D01*
X63492Y313362D01*
X62895Y313081D01*
X62275Y312853D01*
X61638Y312681D01*
X60988Y312565D01*
X60330Y312507D01*
X60004D01*
Y327493D01*
X60330D01*
X60988Y327435D01*
X61638Y327319D01*
X62275Y327147D01*
X62895Y326919D01*
X63492Y326638D01*
X64062Y326305D01*
X64601Y325923D01*
X64666Y325879D01*
X64737Y325846D01*
X64813Y325825D01*
X64891Y325817D01*
X64970Y325820D01*
X65047Y325836D01*
X65121Y325864D01*
X65189Y325903D01*
X65251Y325952D01*
X65304Y326010D01*
X65347Y326076D01*
X65379Y326148D01*
X65400Y326224D01*
X65409Y326302D01*
X65405Y326381D01*
X65389Y326458D01*
X65361Y326531D01*
X65322Y326600D01*
X65273Y326661D01*
X65214Y326713D01*
X64608Y327152D01*
X63961Y327530D01*
X63284Y327849D01*
X62581Y328107D01*
X61858Y328303D01*
X61121Y328434D01*
X60374Y328500D01*
X60004D01*
Y348500D01*
X67155D01*
Y324604D01*
X67152Y324608D01*
X66719Y325219D01*
X66666Y325279D01*
X66604Y325328D01*
X66534Y325368D01*
X66460Y325396D01*
X66381Y325412D01*
X66302Y325416D01*
X66222Y325407D01*
X66145Y325386D01*
X66073Y325353D01*
X66006Y325309D01*
X65947Y325256D01*
X65897Y325193D01*
X65857Y325124D01*
X65829Y325049D01*
X65813Y324971D01*
X65809Y324891D01*
X65818Y324812D01*
X65839Y324735D01*
X65872Y324662D01*
X65917Y324596D01*
X66305Y324062D01*
X66638Y323492D01*
X66919Y322895D01*
X67147Y322275D01*
X67155Y322245D01*
Y317755D01*
X67147Y317725D01*
X66919Y317105D01*
X66638Y316508D01*
X66305Y315938D01*
X65923Y315399D01*
X65879Y315334D01*
X65846Y315263D01*
X65825Y315187D01*
X65817Y315109D01*
X65820Y315030D01*
X65836Y314953D01*
X65864Y314879D01*
X65903Y314811D01*
X65952Y314749D01*
X66010Y314696D01*
X66076Y314653D01*
X66148Y314621D01*
X66224Y314600D01*
X66302Y314591D01*
X66381Y314595D01*
X66458Y314611D01*
X66531Y314639D01*
X66600Y314678D01*
X66661Y314727D01*
X66713Y314786D01*
X67152Y315392D01*
X67155Y315396D01*
Y303895D01*
G37*
G36*
X60004Y306683D02*X60000Y306683D01*
X58329Y306551D01*
X56699Y306160D01*
X55150Y305518D01*
X53721Y304643D01*
X52845Y303895D01*
Y315396D01*
X52848Y315392D01*
X53281Y314781D01*
X53334Y314721D01*
X53396Y314672D01*
X53466Y314632D01*
X53540Y314604D01*
X53619Y314588D01*
X53698Y314584D01*
X53778Y314593D01*
X53855Y314614D01*
X53927Y314647D01*
X53994Y314691D01*
X54053Y314744D01*
X54103Y314807D01*
X54143Y314876D01*
X54171Y314951D01*
X54187Y315029D01*
X54191Y315109D01*
X54182Y315188D01*
X54161Y315265D01*
X54128Y315338D01*
X54083Y315404D01*
X53695Y315938D01*
X53362Y316508D01*
X53081Y317105D01*
X52853Y317725D01*
X52845Y317755D01*
Y322245D01*
X52853Y322275D01*
X53081Y322895D01*
X53362Y323492D01*
X53695Y324062D01*
X54077Y324601D01*
X54121Y324666D01*
X54154Y324737D01*
X54175Y324813D01*
X54183Y324891D01*
X54180Y324970D01*
X54164Y325047D01*
X54136Y325121D01*
X54097Y325189D01*
X54048Y325251D01*
X53990Y325304D01*
X53924Y325347D01*
X53852Y325379D01*
X53776Y325400D01*
X53698Y325409D01*
X53619Y325405D01*
X53542Y325389D01*
X53469Y325361D01*
X53400Y325322D01*
X53339Y325273D01*
X53287Y325214D01*
X52848Y324608D01*
X52845Y324604D01*
Y348500D01*
X60004D01*
Y328500D01*
X59626D01*
X58879Y328434D01*
X58142Y328303D01*
X57419Y328107D01*
X56716Y327849D01*
X56039Y327530D01*
X55392Y327152D01*
X54781Y326719D01*
X54721Y326666D01*
X54672Y326604D01*
X54632Y326534D01*
X54604Y326460D01*
X54588Y326381D01*
X54584Y326302D01*
X54593Y326222D01*
X54614Y326145D01*
X54647Y326073D01*
X54691Y326006D01*
X54744Y325947D01*
X54807Y325897D01*
X54876Y325857D01*
X54951Y325829D01*
X55029Y325813D01*
X55109Y325809D01*
X55188Y325818D01*
X55265Y325839D01*
X55338Y325872D01*
X55404Y325917D01*
X55938Y326305D01*
X56508Y326638D01*
X57105Y326919D01*
X57725Y327147D01*
X58362Y327319D01*
X59012Y327435D01*
X59670Y327493D01*
X60004D01*
Y312507D01*
X59670D01*
X59012Y312565D01*
X58362Y312681D01*
X57725Y312853D01*
X57105Y313081D01*
X56508Y313362D01*
X55938Y313695D01*
X55399Y314077D01*
X55334Y314121D01*
X55263Y314154D01*
X55187Y314175D01*
X55109Y314183D01*
X55030Y314180D01*
X54953Y314164D01*
X54879Y314136D01*
X54811Y314097D01*
X54749Y314048D01*
X54696Y313990D01*
X54653Y313924D01*
X54621Y313852D01*
X54600Y313776D01*
X54591Y313698D01*
X54595Y313619D01*
X54611Y313542D01*
X54639Y313469D01*
X54678Y313400D01*
X54727Y313339D01*
X54786Y313287D01*
X55392Y312848D01*
X56039Y312470D01*
X56716Y312151D01*
X57419Y311893D01*
X58142Y311697D01*
X58879Y311566D01*
X59626Y311500D01*
X60004D01*
Y306683D01*
G37*
G36*
X52845Y317755D02*X52681Y318362D01*
X52565Y319012D01*
X52507Y319670D01*
Y320330D01*
X52565Y320988D01*
X52681Y321638D01*
X52845Y322245D01*
Y317755D01*
G37*
G36*
X48155Y310245D02*X48319Y309638D01*
X48435Y308988D01*
X48493Y308330D01*
Y307670D01*
X48435Y307012D01*
X48319Y306362D01*
X48155Y305755D01*
Y310245D01*
G37*
G36*
X52845Y303895D02*X52446Y303554D01*
X51357Y302279D01*
X50482Y300850D01*
X49922Y299500D01*
X48155D01*
Y303396D01*
X48530Y304039D01*
X48849Y304716D01*
X49107Y305419D01*
X49303Y306142D01*
X49434Y306880D01*
X49500Y307626D01*
Y308374D01*
X49434Y309121D01*
X49303Y309858D01*
X49107Y310581D01*
X48849Y311284D01*
X48530Y311961D01*
X48155Y312604D01*
Y348500D01*
X52845D01*
Y324604D01*
X52470Y323961D01*
X52151Y323284D01*
X51893Y322581D01*
X51697Y321858D01*
X51566Y321121D01*
X51500Y320374D01*
Y319626D01*
X51566Y318880D01*
X51697Y318142D01*
X51893Y317419D01*
X52151Y316716D01*
X52470Y316039D01*
X52845Y315396D01*
Y303895D01*
G37*
G36*
X48155Y299500D02*X41004D01*
Y299500D01*
X41374D01*
X42120Y299566D01*
X42858Y299697D01*
X43581Y299893D01*
X44284Y300151D01*
X44961Y300470D01*
X45608Y300848D01*
X46219Y301281D01*
X46279Y301334D01*
X46328Y301396D01*
X46368Y301466D01*
X46396Y301540D01*
X46412Y301619D01*
X46416Y301698D01*
X46407Y301778D01*
X46386Y301855D01*
X46353Y301927D01*
X46309Y301994D01*
X46256Y302053D01*
X46193Y302103D01*
X46124Y302143D01*
X46049Y302171D01*
X45971Y302187D01*
X45891Y302191D01*
X45812Y302182D01*
X45735Y302161D01*
X45662Y302128D01*
X45596Y302083D01*
X45062Y301695D01*
X44492Y301362D01*
X43895Y301081D01*
X43275Y300853D01*
X42638Y300681D01*
X41988Y300565D01*
X41330Y300507D01*
X41004D01*
Y315493D01*
X41330D01*
X41988Y315435D01*
X42638Y315319D01*
X43275Y315147D01*
X43895Y314919D01*
X44492Y314638D01*
X45062Y314305D01*
X45601Y313923D01*
X45666Y313879D01*
X45737Y313846D01*
X45813Y313825D01*
X45891Y313817D01*
X45970Y313820D01*
X46047Y313836D01*
X46121Y313864D01*
X46189Y313903D01*
X46251Y313952D01*
X46304Y314010D01*
X46347Y314076D01*
X46379Y314148D01*
X46400Y314224D01*
X46409Y314302D01*
X46405Y314381D01*
X46389Y314458D01*
X46361Y314531D01*
X46322Y314600D01*
X46273Y314661D01*
X46214Y314713D01*
X45608Y315152D01*
X44961Y315530D01*
X44284Y315849D01*
X43581Y316107D01*
X42858Y316303D01*
X42120Y316434D01*
X41374Y316500D01*
X41004D01*
Y348500D01*
X48155D01*
Y312604D01*
X48152Y312608D01*
X47719Y313219D01*
X47666Y313279D01*
X47604Y313328D01*
X47534Y313368D01*
X47460Y313396D01*
X47381Y313412D01*
X47302Y313416D01*
X47222Y313407D01*
X47145Y313386D01*
X47073Y313353D01*
X47006Y313309D01*
X46947Y313256D01*
X46897Y313193D01*
X46857Y313124D01*
X46829Y313049D01*
X46813Y312971D01*
X46809Y312891D01*
X46818Y312812D01*
X46839Y312735D01*
X46872Y312662D01*
X46917Y312596D01*
X47305Y312062D01*
X47638Y311492D01*
X47919Y310895D01*
X48147Y310275D01*
X48155Y310245D01*
Y305755D01*
X48147Y305725D01*
X47919Y305105D01*
X47638Y304508D01*
X47305Y303938D01*
X46923Y303399D01*
X46879Y303334D01*
X46846Y303263D01*
X46825Y303187D01*
X46817Y303109D01*
X46820Y303030D01*
X46836Y302953D01*
X46864Y302879D01*
X46903Y302811D01*
X46952Y302749D01*
X47010Y302696D01*
X47076Y302653D01*
X47148Y302621D01*
X47224Y302600D01*
X47302Y302591D01*
X47381Y302595D01*
X47458Y302611D01*
X47531Y302639D01*
X47600Y302678D01*
X47661Y302727D01*
X47713Y302786D01*
X48152Y303392D01*
X48155Y303396D01*
Y299500D01*
G37*
G36*
X41004D02*X33845D01*
Y303396D01*
X33848Y303392D01*
X34281Y302781D01*
X34334Y302721D01*
X34396Y302672D01*
X34466Y302632D01*
X34540Y302604D01*
X34619Y302588D01*
X34698Y302584D01*
X34778Y302593D01*
X34855Y302614D01*
X34927Y302647D01*
X34994Y302691D01*
X35053Y302744D01*
X35103Y302807D01*
X35143Y302876D01*
X35171Y302951D01*
X35187Y303029D01*
X35191Y303109D01*
X35182Y303188D01*
X35161Y303265D01*
X35128Y303338D01*
X35083Y303404D01*
X34695Y303938D01*
X34362Y304508D01*
X34081Y305105D01*
X33853Y305725D01*
X33845Y305755D01*
Y310245D01*
X33853Y310275D01*
X34081Y310895D01*
X34362Y311492D01*
X34695Y312062D01*
X35077Y312601D01*
X35121Y312666D01*
X35154Y312737D01*
X35175Y312813D01*
X35183Y312891D01*
X35180Y312970D01*
X35164Y313047D01*
X35136Y313121D01*
X35097Y313189D01*
X35048Y313251D01*
X34990Y313304D01*
X34924Y313347D01*
X34852Y313379D01*
X34776Y313400D01*
X34698Y313409D01*
X34619Y313405D01*
X34542Y313389D01*
X34469Y313361D01*
X34400Y313322D01*
X34339Y313273D01*
X34287Y313214D01*
X33848Y312608D01*
X33845Y312604D01*
Y348500D01*
X41004D01*
Y316500D01*
X40626D01*
X39879Y316434D01*
X39142Y316303D01*
X38419Y316107D01*
X37716Y315849D01*
X37039Y315530D01*
X36392Y315152D01*
X35781Y314719D01*
X35721Y314666D01*
X35672Y314604D01*
X35632Y314534D01*
X35604Y314460D01*
X35588Y314381D01*
X35584Y314302D01*
X35593Y314222D01*
X35614Y314145D01*
X35647Y314073D01*
X35691Y314006D01*
X35744Y313947D01*
X35807Y313897D01*
X35876Y313857D01*
X35951Y313829D01*
X36029Y313813D01*
X36109Y313809D01*
X36188Y313818D01*
X36265Y313839D01*
X36338Y313872D01*
X36404Y313917D01*
X36938Y314305D01*
X37508Y314638D01*
X38105Y314919D01*
X38725Y315147D01*
X39362Y315319D01*
X40012Y315435D01*
X40670Y315493D01*
X41004D01*
Y300507D01*
X40670D01*
X40012Y300565D01*
X39362Y300681D01*
X38725Y300853D01*
X38105Y301081D01*
X37508Y301362D01*
X36938Y301695D01*
X36399Y302077D01*
X36334Y302121D01*
X36263Y302154D01*
X36187Y302175D01*
X36109Y302183D01*
X36030Y302180D01*
X35953Y302164D01*
X35879Y302136D01*
X35811Y302097D01*
X35749Y302048D01*
X35696Y301990D01*
X35653Y301924D01*
X35621Y301852D01*
X35600Y301776D01*
X35591Y301698D01*
X35595Y301619D01*
X35611Y301542D01*
X35639Y301469D01*
X35678Y301400D01*
X35727Y301339D01*
X35786Y301287D01*
X36392Y300848D01*
X37039Y300470D01*
X37716Y300151D01*
X38419Y299893D01*
X39142Y299697D01*
X39879Y299566D01*
X40626Y299500D01*
X41004D01*
Y299500D01*
G37*
G36*
X33845Y305755D02*X33681Y306362D01*
X33565Y307012D01*
X33507Y307670D01*
Y308330D01*
X33565Y308988D01*
X33681Y309638D01*
X33845Y310245D01*
Y305755D01*
G37*
G36*
Y299500D02*X1500D01*
Y330378D01*
X2038Y328138D01*
X2982Y325858D01*
X4272Y323753D01*
X5876Y321876D01*
X7753Y320272D01*
X9858Y318982D01*
X12138Y318038D01*
X14539Y317461D01*
X17000Y317268D01*
X19461Y317461D01*
X21862Y318038D01*
X24142Y318982D01*
X26247Y320272D01*
X28124Y321876D01*
X29728Y323753D01*
X31018Y325858D01*
X31962Y328138D01*
X32539Y330539D01*
X32684Y333000D01*
X32539Y335461D01*
X31962Y337862D01*
X31018Y340142D01*
X29728Y342247D01*
X28124Y344124D01*
X26247Y345728D01*
X24142Y347018D01*
X21862Y347962D01*
X19622Y348500D01*
X33845D01*
Y312604D01*
X33470Y311961D01*
X33151Y311284D01*
X32893Y310581D01*
X32697Y309858D01*
X32566Y309121D01*
X32500Y308374D01*
Y307626D01*
X32566Y306880D01*
X32697Y306142D01*
X32893Y305419D01*
X33151Y304716D01*
X33470Y304039D01*
X33845Y303396D01*
Y299500D01*
G37*
G36*
X71000Y347500D02*X116500D01*
Y310235D01*
X116481Y310000D01*
X116500Y309765D01*
Y235000D01*
X71000D01*
Y347500D01*
G37*
G36*
X76500Y292000D02*X148500D01*
Y277750D01*
X148528Y277279D01*
X148638Y276820D01*
X148819Y276384D01*
X149009Y276073D01*
X149014Y273265D01*
X149069Y273035D01*
X149159Y272817D01*
X149283Y272616D01*
X149436Y272436D01*
X149616Y272283D01*
X149817Y272159D01*
X150035Y272069D01*
X150265Y272014D01*
X150500Y272000D01*
X152735Y272014D01*
X152965Y272069D01*
X153000Y272084D01*
Y231000D01*
X76500D01*
Y292000D01*
G37*
G54D12*X252500Y50500D02*X249500Y47500D01*
X237525D01*
X237325Y37500D02*X229500D01*
X226000Y41000D01*
X158000Y85000D02*X205500Y37500D01*
X215675D01*
X237525Y47500D02*X237325Y47300D01*
X215675D02*Y89175D01*
X228000Y101500D01*
X245500Y119000D02*X224500Y98000D01*
X226000Y41000D02*Y70500D01*
X240000Y84500D01*
X212457Y143500D02*X138500D01*
X226500Y127000D02*X225000Y125500D01*
X219543Y132500D02*Y125543D01*
X219500Y125500D01*
X225000D02*X136500D01*
X252500Y293957D02*Y50500D01*
X245500Y273957D02*Y119000D01*
Y122000D02*Y119000D01*
X219543Y167500D02*Y157500D01*
X212457Y132500D02*Y136957D01*
X213500Y138000D01*
X218500D01*
X212457Y152043D02*X214000Y150500D01*
X225000D01*
X226500Y149000D01*
X218500Y138000D02*X219500Y139000D01*
Y143457D01*
X219543Y143500D01*
X226500Y149000D02*Y127000D01*
G54D13*X156000Y202500D02*X177000D01*
X167500Y215500D02*Y202500D01*
X175500Y200500D02*X189000D01*
X191000Y202500D01*
X177000Y200500D02*X155000D01*
X154000Y199500D01*
G54D12*X191000Y208500D02*Y202500D01*
X181000Y208500D02*Y205000D01*
G54D13*X176000Y202500D02*X184500D01*
X186000Y204000D01*
Y208500D01*
G54D12*X154500Y177500D02*Y167500D01*
Y180000D02*Y170000D01*
Y172000D02*Y162000D01*
X167500Y310000D02*X204000D01*
X156500Y277750D02*Y269500D01*
G54D14*X161500Y277750D02*Y303000D01*
X151500Y296000D02*Y277750D01*
G54D12*X202500Y310000D02*X244000D01*
X185000Y314500D02*X245500D01*
X244000Y310000D02*X245500Y308500D01*
Y314500D02*X252500Y307500D01*
Y301043D01*
X245500Y308500D02*Y281043D01*
G54D14*X161500Y303000D02*X154500Y310000D01*
X142500D01*
X122500D02*X131500Y301000D01*
X146500D01*
X151500Y296000D01*
G54D12*X128250Y304250D02*X132500Y308500D01*
G54D15*X36000Y282000D02*X20500D01*
G54D14*X83000Y227500D02*X69000D01*
G54D15*X56500Y282000D02*X36500D01*
G54D16*X18500Y155000D02*Y225000D01*
G54D12*X57094Y225563D02*Y213680D01*
X56414Y213000D01*
X57094Y213500D02*Y208906D01*
X59000Y207000D01*
G54D15*X60000Y296000D02*Y285500D01*
X56500Y282000D01*
G54D13*X156500Y202500D02*X148750D01*
X141500Y212500D02*X148750D01*
G54D12*X142500Y217500D02*X148750D01*
G54D13*X161500Y205000D02*X139500D01*
X138500Y206000D01*
Y215500D01*
X148750Y207500D02*X155500D01*
X156500Y208500D01*
Y257250D01*
Y222500D02*X188500D01*
X161000Y220500D02*X183500D01*
X180000Y218500D02*X165000D01*
X163500Y217000D01*
G54D12*X132000Y228000D02*X142500Y217500D01*
G54D13*X138500Y215500D02*X136500Y217500D01*
X128250D01*
X188500Y222500D02*X191000Y220000D01*
Y213500D01*
X183500Y220500D02*X186000Y218000D01*
Y213500D01*
X181000D02*Y217500D01*
X180000Y218500D01*
X159500Y212500D02*Y219000D01*
X161000Y220500D01*
X163500Y217000D02*Y207000D01*
X161500Y205000D01*
Y257250D02*Y226000D01*
G54D12*X63000Y229421D02*Y213500D01*
X63500Y213000D01*
X59000Y207000D02*X84000D01*
G54D13*X104000Y205000D02*Y210457D01*
X101500Y199500D02*X94000Y207000D01*
G54D16*X114500Y180500D02*Y165000D01*
G54D12*X134500Y180500D02*Y161000D01*
X87500Y210500D02*Y223500D01*
X92000Y228000D01*
G54D13*X104000Y210457D02*X103957Y210500D01*
X94000Y207000D02*X87000D01*
G54D12*X87500D02*Y211000D01*
X92000Y228000D02*X118000D01*
X117000D02*X132000D01*
G54D13*X111043Y220957D02*Y227957D01*
X111000Y228000D01*
X154000Y199500D02*X101500D01*
G54D16*X110500Y147500D02*X26000D01*
X18500Y155000D01*
G54D12*X15000Y85000D02*X158000D01*
X138500Y143500D02*X134500Y147500D01*
X136500Y125500D02*X112500Y149500D01*
X200000Y152000D02*X169500D01*
X204500Y163000D02*Y154000D01*
X202500Y152000D01*
X196000D01*
X212457Y167500D02*X206500D01*
X204500Y165500D01*
Y162000D01*
X212457Y157500D02*Y152043D01*
X205957Y202500D02*X191000D01*
X168500Y227500D02*X196000D01*
X212500Y221000D02*Y225500D01*
X210500Y227500D01*
X189500D01*
X205957Y211000D02*Y202500D01*
X212500Y185000D02*Y191457D01*
X212457Y191500D01*
X159500Y152000D02*X172500D01*
X166500Y257250D02*Y229500D01*
X168500Y227500D01*
X121000Y202500D02*X129000D01*
G54D16*X114500Y167000D02*Y151500D01*
X110500Y147500D01*
G54D12*X134500Y167000D02*Y147500D01*
G54D13*X121000Y202500D02*X106500D01*
G54D12*X154500Y167000D02*Y157000D01*
X159500Y152000D01*
X81500Y207000D02*X87500D01*
G54D13*X128500Y217500D02*X118500D01*
X116500Y215500D01*
X105000D01*
X104000Y216500D01*
Y220914D01*
X103957Y220957D01*
X111000Y215500D02*Y210543D01*
X111043Y210500D01*
X106500Y202500D02*X104000Y205000D01*
G54D12*X219586Y221000D02*Y212586D01*
X218000Y211000D01*
X213043D01*
Y202500D02*X217000D01*
X219500Y200000D01*
Y191543D01*
X219543Y191500D01*
X176586Y340000D02*Y329043D01*
X169500Y321957D02*X171043Y323500D01*
X169457Y329000D02*X164043D01*
X162500Y327500D02*X164000Y329000D01*
X169500Y340000D02*Y344500D01*
X171500Y310000D02*X162500D01*
X158500Y306000D01*
X162500Y310000D02*Y327500D01*
X132500Y308500D02*Y335000D01*
X137500Y340000D01*
X169500D01*
X176500Y310000D02*Y317914D01*
X176586Y318000D01*
X169500Y344500D02*X171000Y346000D01*
X181500D01*
X183000Y344500D01*
X169500Y318000D02*Y321957D01*
X171043Y323500D02*X175543D01*
X176543Y324500D01*
Y329000D01*
X183000Y344500D02*Y316500D01*
X185000Y314500D01*
G54D17*X15000Y85000D03*
G54D18*X60000Y296000D03*
G54D19*Y320000D03*
X41000Y308000D03*
G54D20*X17000Y333000D03*
G54D17*X240000Y84500D03*
G54D11*G36*
X138000Y314500D02*Y305500D01*
X147000D01*
Y314500D01*
X138000D01*
G37*
G54D21*X122500Y310000D03*
G54D20*X243000Y333000D03*
X182000Y16500D03*
X66000D03*
Y183500D03*
G54D11*G36*
X110500Y184500D02*Y176500D01*
X118500D01*
Y184500D01*
X110500D01*
G37*
G54D22*X94500Y180500D03*
X134500D03*
G54D20*X182000Y183500D03*
G54D11*G36*
X150500Y184500D02*Y176500D01*
X158500D01*
Y184500D01*
X150500D01*
G37*
G36*
X210750Y30050D02*Y25350D01*
X220600D01*
Y30050D01*
X210750D01*
G37*
G36*
X232400D02*Y25350D01*
X242250D01*
Y30050D01*
X232400D01*
G37*
G36*
X210750Y39850D02*Y35150D01*
X220600D01*
Y39850D01*
X210750D01*
G37*
G36*
X232400D02*Y35150D01*
X242250D01*
Y39850D01*
X232400D01*
G37*
G36*
X210750Y49650D02*Y44950D01*
X220600D01*
Y49650D01*
X210750D01*
G37*
G36*
X232400D02*Y44950D01*
X242250D01*
Y49650D01*
X232400D01*
G37*
G36*
X215016Y146452D02*X209898D01*
Y140548D01*
X215016D01*
Y146452D01*
G37*
G36*
Y135452D02*X209898D01*
Y129548D01*
X215016D01*
Y135452D01*
G37*
G36*
Y160452D02*X209898D01*
Y154548D01*
X215016D01*
Y160452D01*
G37*
G36*
X222102Y146452D02*X216984D01*
Y140548D01*
X222102D01*
Y146452D01*
G37*
G36*
Y135452D02*X216984D01*
Y129548D01*
X222102D01*
Y135452D01*
G37*
G36*
Y160452D02*X216984D01*
Y154548D01*
X222102D01*
Y160452D01*
G37*
G36*
X215016Y170452D02*X209898D01*
Y164548D01*
X215016D01*
Y170452D01*
G37*
G36*
X222102D02*X216984D01*
Y164548D01*
X222102D01*
Y170452D01*
G37*
G36*
X172548Y272016D02*Y266898D01*
X178452D01*
Y272016D01*
X172548D01*
G37*
G36*
X201870Y292000D02*X193870D01*
Y240000D01*
X201870D01*
Y292000D01*
G37*
G36*
X162500Y261500D02*X160500D01*
Y253000D01*
X162500D01*
Y261500D01*
G37*
G36*
X167500D02*X165500D01*
Y253000D01*
X167500D01*
Y261500D01*
G37*
G36*
Y282000D02*X165500D01*
Y273500D01*
X167500D01*
Y282000D01*
G37*
G36*
X172548Y279102D02*Y273984D01*
X178452D01*
Y279102D01*
X172548D01*
G37*
G36*
X242548Y283602D02*Y278484D01*
X248452D01*
Y283602D01*
X242548D01*
G37*
G36*
Y276516D02*Y271398D01*
X248452D01*
Y276516D01*
X242548D01*
G37*
G36*
X249548Y303602D02*Y298484D01*
X255452D01*
Y303602D01*
X249548D01*
G37*
G36*
Y296516D02*Y291398D01*
X255452D01*
Y296516D01*
X249548D01*
G37*
G36*
X123130Y292000D02*X115130D01*
Y240000D01*
X123130D01*
Y292000D01*
G37*
G36*
X152500Y261500D02*X150500D01*
Y253000D01*
X152500D01*
Y261500D01*
G37*
G36*
X157500D02*X155500D01*
Y253000D01*
X157500D01*
Y261500D01*
G37*
G36*
X152500Y282000D02*X150500D01*
Y273500D01*
X152500D01*
Y282000D01*
G37*
G36*
X162500D02*X160500D01*
Y273500D01*
X162500D01*
Y282000D01*
G37*
G36*
X157500D02*X155500D01*
Y273500D01*
X157500D01*
Y282000D01*
G37*
G36*
X154670Y270750D02*Y264250D01*
X163330D01*
Y270750D01*
X154670D01*
G37*
G36*
X152895Y272225D02*Y262775D01*
X165105D01*
Y272225D01*
X152895D01*
G37*
G36*
X58984Y229500D02*X55204D01*
Y221626D01*
X58984D01*
Y229500D01*
G37*
G36*
X64890Y237216D02*X61110D01*
Y221626D01*
X64890D01*
Y237216D01*
G37*
G36*
X67725Y243675D02*X58275D01*
Y232335D01*
X67725D01*
Y243675D01*
G37*
G36*
X59695Y233755D02*X58275Y232335D01*
X61115Y229495D01*
X62535Y230915D01*
X59695Y233755D01*
G37*
G36*
X67725Y232335D02*X66305Y233755D01*
X63465Y230915D01*
X64885Y229495D01*
X67725Y232335D01*
G37*
G36*
X70796Y229500D02*X67016D01*
Y221626D01*
X70796D01*
Y229500D01*
G37*
G36*
X13858Y268650D02*Y262350D01*
X26457D01*
Y268650D01*
X13858D01*
G37*
G36*
X33543D02*Y262350D01*
X46142D01*
Y268650D01*
X33543D01*
G37*
G36*
X14358Y238650D02*Y232350D01*
X26957D01*
Y238650D01*
X14358D01*
G37*
G36*
X34043D02*Y232350D01*
X46642D01*
Y238650D01*
X34043D01*
G37*
G36*
X58973Y215952D02*X53855D01*
Y210048D01*
X58973D01*
Y215952D01*
G37*
G36*
X66059D02*X60941D01*
Y210048D01*
X66059D01*
Y215952D01*
G37*
G36*
X113602Y213452D02*X108484D01*
Y207548D01*
X113602D01*
Y213452D01*
G37*
G36*
X124000Y218500D02*Y216500D01*
X132500D01*
Y218500D01*
X124000D01*
G37*
G36*
Y213500D02*Y211500D01*
X132500D01*
Y213500D01*
X124000D01*
G37*
G36*
X106516Y213452D02*X101398D01*
Y207548D01*
X106516D01*
Y213452D01*
G37*
G36*
Y223909D02*X101398D01*
Y218005D01*
X106516D01*
Y223909D01*
G37*
G36*
X113602D02*X108484D01*
Y218005D01*
X113602D01*
Y223909D01*
G37*
G36*
X124000Y208500D02*Y206500D01*
X132500D01*
Y208500D01*
X124000D01*
G37*
G36*
Y203500D02*Y201500D01*
X132500D01*
Y203500D01*
X124000D01*
G37*
G36*
X144500D02*Y201500D01*
X153000D01*
Y203500D01*
X144500D01*
G37*
G36*
Y208500D02*Y206500D01*
X153000D01*
Y208500D01*
X144500D01*
G37*
G36*
Y213500D02*Y211500D01*
X153000D01*
Y213500D01*
X144500D01*
G37*
G36*
Y218500D02*Y216500D01*
X153000D01*
Y218500D01*
X144500D01*
G37*
G36*
X215016Y194452D02*X209898D01*
Y188548D01*
X215016D01*
Y194452D01*
G37*
G36*
X215602Y213952D02*X210484D01*
Y208048D01*
X215602D01*
Y213952D01*
G37*
G36*
X208516D02*X203398D01*
Y208048D01*
X208516D01*
Y213952D01*
G37*
G36*
X215059Y223952D02*X209941D01*
Y218048D01*
X215059D01*
Y223952D01*
G37*
G36*
X215602Y205452D02*X210484D01*
Y199548D01*
X215602D01*
Y205452D01*
G37*
G36*
X208516D02*X203398D01*
Y199548D01*
X208516D01*
Y205452D01*
G37*
G36*
X222102Y194452D02*X216984D01*
Y188548D01*
X222102D01*
Y194452D01*
G37*
G36*
X222145Y223952D02*X217027D01*
Y218048D01*
X222145D01*
Y223952D01*
G37*
G54D23*X191000Y213500D03*
Y208500D03*
X186000Y213500D03*
Y208500D03*
X181000Y213500D03*
Y208500D03*
G54D11*G36*
X172016Y331952D02*X166898D01*
Y326048D01*
X172016D01*
Y331952D01*
G37*
G36*
X179102D02*X173984D01*
Y326048D01*
X179102D01*
Y331952D01*
G37*
G36*
X172059Y342952D02*X166941D01*
Y337048D01*
X172059D01*
Y342952D01*
G37*
G36*
X179145D02*X174027D01*
Y337048D01*
X179145D01*
Y342952D01*
G37*
G36*
X172059Y320952D02*X166941D01*
Y315048D01*
X172059D01*
Y320952D01*
G37*
G36*
X179145D02*X174027D01*
Y315048D01*
X179145D01*
Y320952D01*
G37*
G54D24*X181000Y284500D03*
X177000D03*
X173000D03*
X181000Y280500D03*
Y276500D03*
X170000Y276000D03*
X167000Y270000D03*
Y265000D03*
X150500Y270000D03*
Y265000D03*
X170000Y279500D03*
X204000Y280500D03*
Y285500D03*
X181000Y289500D03*
Y294500D03*
X177000D03*
X173000D03*
X177000Y289500D03*
X173000D03*
X204000Y290500D03*
X24000Y260000D03*
X20000D03*
X16000D03*
X24500Y241500D03*
X20500D03*
X16500D03*
X24000Y271500D03*
X20000D03*
X16000D03*
X20500Y229500D03*
X16500D03*
X37000Y282500D03*
X33000D03*
X29000D03*
X24500Y229500D03*
X74500Y227500D03*
X79000D03*
X83000D03*
X55500Y242500D03*
Y238500D03*
Y235000D03*
X70500Y242500D03*
Y238500D03*
Y235000D03*
X121000Y202500D03*
X112500Y251000D03*
Y241500D03*
Y256000D03*
Y246500D03*
X159500Y212500D03*
X167500Y215500D03*
X181000Y205000D03*
X141500Y212500D03*
X161500Y226000D03*
X212500Y185000D03*
X204000Y271000D03*
Y276000D03*
Y266000D03*
Y256000D03*
Y246500D03*
Y261000D03*
Y251500D03*
Y241500D03*
X112500Y266000D03*
Y261000D03*
G54D25*G54D26*G54D27*G54D28*G54D29*G54D26*G54D30*G54D31*G54D29*G54D32*G54D29*G54D32*M02*
