G04 start of page 9 for group -4079 idx -4079 *
G04 Title: (unknown), topsilk *
G04 Creator: pcb 20140316 *
G04 CreationDate: Mon 29 Jan 2018 01:11:03 AM GMT UTC *
G04 For: railfan *
G04 Format: Gerber/RS-274X *
G04 PCB-Dimensions (mil): 1800.00 1500.00 *
G04 PCB-Coordinate-Origin: lower left *
%MOIN*%
%FSLAX25Y25*%
%LNTOPSILK*%
%ADD85C,0.0200*%
%ADD84C,0.0080*%
%ADD83C,0.0100*%
G54D83*X146000Y88500D02*X144000Y86500D01*
X146000Y88500D02*X148000Y86500D01*
X179500Y500D02*X500D01*
Y149500D01*
X179500D01*
Y500D01*
X146000Y88000D02*G75*G03X149500Y84500I3500J0D01*G01*
G75*G03X153000Y88000I0J3500D01*G01*
G54D84*X4000Y68500D02*Y66500D01*
X3000Y67500D02*X5000D01*
X6000Y65300D02*X2000Y64300D01*
X6000Y63300D01*
Y48500D02*X5500Y48000D01*
X6000Y50000D02*Y48500D01*
X5500Y50500D02*X6000Y50000D01*
X2500Y50500D02*X5500D01*
X2500D02*X2000Y50000D01*
Y48500D01*
X2500Y48000D01*
X3500D01*
X4000Y48500D02*X3500Y48000D01*
X4000Y49500D02*Y48500D01*
X2000Y46800D02*X6000D01*
X2000Y44300D01*
X6000D01*
X2000Y42600D02*X6000D01*
Y41300D02*X5300Y40600D01*
X2700D02*X5300D01*
X2000Y41300D02*X2700Y40600D01*
X2000Y43100D02*Y41300D01*
X6000Y43100D02*Y41300D01*
X2000Y86500D02*X6000D01*
Y85200D02*X5300Y84500D01*
X2700D02*X5300D01*
X2000Y85200D02*X2700Y84500D01*
X2000Y87000D02*Y85200D01*
X6000Y87000D02*Y85200D01*
X2500Y108500D02*X5500Y105500D01*
X2000Y103800D02*X6000D01*
Y102500D02*X5300Y101800D01*
X2700D02*X5300D01*
X2000Y102500D02*X2700Y101800D01*
X2000Y104300D02*Y102500D01*
X6000Y104300D02*Y102500D01*
X40500Y146500D02*X41500D01*
X41000D02*Y142500D01*
X40500D02*X41500D01*
X42700Y144000D02*Y143000D01*
Y144000D02*X43200Y144500D01*
X44200D01*
X44700Y144000D01*
Y143000D01*
X44200Y142500D02*X44700Y143000D01*
X43200Y142500D02*X44200D01*
X42700Y143000D02*X43200Y142500D01*
X45900Y144500D02*Y143000D01*
X46400Y142500D01*
X46900D01*
X47400Y143000D01*
Y144500D02*Y143000D01*
X47900Y142500D01*
X48400D01*
X48900Y143000D01*
Y144500D02*Y143000D01*
X51600Y144500D02*X52100Y144000D01*
X50600Y144500D02*X51600D01*
X50100Y144000D02*X50600Y144500D01*
X50100Y144000D02*Y143000D01*
X50600Y142500D01*
X52100Y144500D02*Y143000D01*
X52600Y142500D01*
X50600D02*X51600D01*
X52100Y143000D01*
X57600Y146500D02*X58100Y146000D01*
X56100Y146500D02*X57600D01*
X55600Y146000D02*X56100Y146500D01*
X55600Y146000D02*Y145000D01*
X56100Y144500D01*
X57600D01*
X58100Y144000D01*
Y143000D01*
X57600Y142500D02*X58100Y143000D01*
X56100Y142500D02*X57600D01*
X55600Y143000D02*X56100Y142500D01*
X59800Y144500D02*X61300D01*
X59300Y144000D02*X59800Y144500D01*
X59300Y144000D02*Y143000D01*
X59800Y142500D01*
X61300D01*
X64000Y144500D02*X64500Y144000D01*
X63000Y144500D02*X64000D01*
X62500Y144000D02*X63000Y144500D01*
X62500Y144000D02*Y143000D01*
X63000Y142500D01*
X64500Y144500D02*Y143000D01*
X65000Y142500D01*
X63000D02*X64000D01*
X64500Y143000D01*
X66200Y146500D02*Y143000D01*
X66700Y142500D01*
X68200D02*X69700D01*
X67700Y143000D02*X68200Y142500D01*
X67700Y144000D02*Y143000D01*
Y144000D02*X68200Y144500D01*
X69200D01*
X69700Y144000D01*
X67700Y143500D02*X69700D01*
Y144000D02*Y143500D01*
X72900Y146500D02*Y142500D01*
X72400D02*X72900Y143000D01*
X71400Y142500D02*X72400D01*
X70900Y143000D02*X71400Y142500D01*
X70900Y144000D02*Y143000D01*
Y144000D02*X71400Y144500D01*
X72400D01*
X72900Y144000D01*
X40500Y138200D02*X42000D01*
X40500Y136000D02*X42500D01*
X40500Y140000D02*Y136000D01*
Y140000D02*X42500D01*
X44200Y137500D02*Y136000D01*
Y137500D02*X44700Y138000D01*
X45200D01*
X45700Y137500D01*
Y136000D01*
X43700Y138000D02*X44200Y137500D01*
X48400Y138000D02*X48900Y137500D01*
X47400Y138000D02*X48400D01*
X46900Y137500D02*X47400Y138000D01*
X46900Y137500D02*Y136500D01*
X47400Y136000D01*
X48400D01*
X48900Y136500D01*
X46900Y135000D02*X47400Y134500D01*
X48400D01*
X48900Y135000D01*
Y138000D02*Y135000D01*
X50100Y139000D02*Y138900D01*
Y137500D02*Y136000D01*
X51600Y137500D02*Y136000D01*
Y137500D02*X52100Y138000D01*
X52600D01*
X53100Y137500D01*
Y136000D01*
X51100Y138000D02*X51600Y137500D01*
X54800Y136000D02*X56300D01*
X54300Y136500D02*X54800Y136000D01*
X54300Y137500D02*Y136500D01*
Y137500D02*X54800Y138000D01*
X55800D01*
X56300Y137500D01*
X54300Y137000D02*X56300D01*
Y137500D02*Y137000D01*
X58000Y136000D02*X59500D01*
X57500Y136500D02*X58000Y136000D01*
X57500Y137500D02*Y136500D01*
Y137500D02*X58000Y138000D01*
X59000D01*
X59500Y137500D01*
X57500Y137000D02*X59500D01*
Y137500D02*Y137000D01*
X61200Y137500D02*Y136000D01*
Y137500D02*X61700Y138000D01*
X62700D01*
X60700D02*X61200Y137500D01*
X63900Y139000D02*Y138900D01*
Y137500D02*Y136000D01*
X65400Y137500D02*Y136000D01*
Y137500D02*X65900Y138000D01*
X66400D01*
X66900Y137500D01*
Y136000D01*
X64900Y138000D02*X65400Y137500D01*
X69600Y138000D02*X70100Y137500D01*
X68600Y138000D02*X69600D01*
X68100Y137500D02*X68600Y138000D01*
X68100Y137500D02*Y136500D01*
X68600Y136000D01*
X69600D01*
X70100Y136500D01*
X68100Y135000D02*X68600Y134500D01*
X69600D01*
X70100Y135000D01*
Y138000D02*Y135000D01*
X152500Y91500D02*X153000Y92000D01*
X152500Y91500D02*Y90000D01*
X153000Y89500D02*X152500Y90000D01*
X153000Y89500D02*X154000D01*
X154500Y90000D01*
Y91500D02*Y90000D01*
Y91500D02*X155000Y92000D01*
X156000D01*
X156500Y91500D02*X156000Y92000D01*
X156500Y91500D02*Y90000D01*
X156000Y89500D02*X156500Y90000D01*
X154300Y94700D02*Y93200D01*
X156500Y95200D02*Y93200D01*
X152500D02*X156500D01*
X152500Y95200D02*Y93200D01*
Y96400D02*X156500D01*
X152500D02*X156500Y98900D01*
X152500D02*X156500D01*
X152500Y102100D02*X153000Y102600D01*
X152500Y102100D02*Y100600D01*
X153000Y100100D02*X152500Y100600D01*
X153000Y100100D02*X154000D01*
X154500Y100600D01*
Y102100D02*Y100600D01*
Y102100D02*X155000Y102600D01*
X156000D01*
X156500Y102100D02*X156000Y102600D01*
X156500Y102100D02*Y100600D01*
X156000Y100100D02*X156500Y100600D01*
X152500Y104800D02*Y103800D01*
Y104300D02*X156500D01*
Y104800D02*Y103800D01*
X152500Y108000D02*Y106000D01*
Y107000D02*X156500D01*
X152500Y110200D02*Y109200D01*
Y109700D02*X156500D01*
Y110200D02*Y109200D01*
X152500Y111400D02*X156500Y112400D01*
X152500Y113400D01*
X154300Y116100D02*Y114600D01*
X156500Y116600D02*Y114600D01*
X152500D02*X156500D01*
X152500Y116600D02*Y114600D01*
X146000Y91500D02*X150000D01*
X146000D02*X148000Y93000D01*
X146000Y94500D01*
X150000D01*
X146500Y95700D02*X149500D01*
X146500D02*X146000Y96200D01*
Y97200D02*Y96200D01*
Y97200D02*X146500Y97700D01*
X149500D01*
X150000Y97200D02*X149500Y97700D01*
X150000Y97200D02*Y96200D01*
X149500Y95700D02*X150000Y96200D01*
X146000Y100900D02*Y98900D01*
Y100900D02*X146500Y101400D01*
X147500D01*
X148000Y100900D02*X147500Y101400D01*
X148000Y100900D02*Y99400D01*
X146000D02*X150000D01*
X148000Y100200D02*X150000Y101400D01*
X147800Y104100D02*Y102600D01*
X150000Y104600D02*Y102600D01*
X146000D02*X150000D01*
X146000Y104600D02*Y102600D01*
X98700Y142000D02*X100000D01*
X98000Y142700D02*X98700Y142000D01*
X98000Y145300D02*Y142700D01*
Y145300D02*X98700Y146000D01*
X100000D01*
X101200D02*Y142000D01*
Y144000D02*X103200Y146000D01*
X101200Y144000D02*X103200Y142000D01*
X104400Y146000D02*X106400D01*
X105400D02*Y142000D01*
X107600Y144000D02*X109600D01*
X110800Y142000D02*X112800D01*
X113300Y142500D01*
Y143700D02*Y142500D01*
X112800Y144200D02*X113300Y143700D01*
X111300Y144200D02*X112800D01*
X111300Y146000D02*Y142000D01*
X110800Y146000D02*X112800D01*
X113300Y145500D01*
Y144700D01*
X112800Y144200D02*X113300Y144700D01*
X115000Y146000D02*Y142000D01*
X116300Y146000D02*X117000Y145300D01*
Y142700D01*
X116300Y142000D02*X117000Y142700D01*
X114500Y142000D02*X116300D01*
X114500Y146000D02*X116300D01*
X118200Y145200D02*X119000Y146000D01*
Y142000D01*
X118200D02*X119700D01*
X122700Y144000D02*X123700Y142000D01*
X124700Y144000D02*X123700Y142000D01*
X125900Y145500D02*X126400Y146000D01*
X127900D01*
X128400Y145500D01*
Y144500D01*
X125900Y142000D02*X128400Y144500D01*
X125900Y142000D02*X128400D01*
X129600D02*X130100D01*
X131300Y142500D02*X131800Y142000D01*
X131300Y145500D02*Y142500D01*
Y145500D02*X131800Y146000D01*
X132800D01*
X133300Y145500D01*
Y142500D01*
X132800Y142000D02*X133300Y142500D01*
X131800Y142000D02*X132800D01*
X131300Y143000D02*X133300Y145000D01*
X98700Y135500D02*X100000D01*
X98000Y136200D02*X98700Y135500D01*
X98000Y138800D02*Y136200D01*
Y138800D02*X98700Y139500D01*
X100000D01*
X101900Y135500D02*X103200D01*
X101200Y136200D02*X101900Y135500D01*
X101200Y138800D02*Y136200D01*
Y138800D02*X101900Y139500D01*
X103200D01*
X106200Y135500D02*X108200D01*
X108700Y136000D01*
Y137200D02*Y136000D01*
X108200Y137700D02*X108700Y137200D01*
X106700Y137700D02*X108200D01*
X106700Y139500D02*Y135500D01*
X106200Y139500D02*X108200D01*
X108700Y139000D01*
Y138200D01*
X108200Y137700D02*X108700Y138200D01*
X109900Y139500D02*X110900Y137500D01*
X111900Y139500D01*
X110900Y137500D02*Y135500D01*
X113100Y137500D02*X115100D01*
X118300Y139500D02*X118800Y139000D01*
X116800Y139500D02*X118300D01*
X116300Y139000D02*X116800Y139500D01*
X116300Y139000D02*Y138000D01*
X116800Y137500D01*
X118300D01*
X118800Y137000D01*
Y136000D01*
X118300Y135500D02*X118800Y136000D01*
X116800Y135500D02*X118300D01*
X116300Y136000D02*X116800Y135500D01*
X120000Y138500D02*Y135500D01*
Y138500D02*X120700Y139500D01*
X121800D01*
X122500Y138500D01*
Y135500D01*
X120000Y137500D02*X122500D01*
X125500Y136000D02*X126000Y135500D01*
X125500Y139000D02*X126000Y139500D01*
X125500Y139000D02*Y136000D01*
X127900Y135500D02*X129200D01*
X127200Y136200D02*X127900Y135500D01*
X127200Y138800D02*Y136200D01*
Y138800D02*X127900Y139500D01*
X129200D01*
X130400D02*X130900Y139000D01*
Y136000D01*
X130400Y135500D02*X130900Y136000D01*
X133900Y139000D02*X134400Y139500D01*
X135900D01*
X136400Y139000D01*
Y138000D01*
X133900Y135500D02*X136400Y138000D01*
X133900Y135500D02*X136400D01*
X137600Y136000D02*X138100Y135500D01*
X137600Y139000D02*Y136000D01*
Y139000D02*X138100Y139500D01*
X139100D01*
X139600Y139000D01*
Y136000D01*
X139100Y135500D02*X139600Y136000D01*
X138100Y135500D02*X139100D01*
X137600Y136500D02*X139600Y138500D01*
X140800Y138700D02*X141600Y139500D01*
Y135500D01*
X140800D02*X142300D01*
X143500Y136000D02*X144000Y135500D01*
X143500Y136800D02*Y136000D01*
Y136800D02*X144200Y137500D01*
X144800D01*
X145500Y136800D01*
Y136000D01*
X145000Y135500D02*X145500Y136000D01*
X144000Y135500D02*X145000D01*
X143500Y138200D02*X144200Y137500D01*
X143500Y139000D02*Y138200D01*
Y139000D02*X144000Y139500D01*
X145000D01*
X145500Y139000D01*
Y138200D01*
X144800Y137500D02*X145500Y138200D01*
X140500Y99500D02*X142500Y97500D01*
X140500D02*X142500Y99500D01*
X140500Y98500D02*X142500D01*
X141500Y99500D02*Y97500D01*
X121500Y119500D02*X123500Y117500D01*
X121500D02*X123500Y119500D01*
X121500Y118500D02*X123500D01*
X122500Y119500D02*Y117500D01*
X139348Y21425D02*X141348Y19425D01*
X139348D02*X141348Y21425D01*
X139348Y20425D02*X141348D01*
X140348Y21425D02*Y19425D01*
X101500Y5500D02*Y4000D01*
X102000Y3500D01*
X102500D01*
X103000Y4000D01*
Y5500D02*Y4000D01*
X103500Y3500D01*
X104000D01*
X104500Y4000D01*
Y5500D02*Y4000D01*
X105700Y5500D02*Y4000D01*
X106200Y3500D01*
X106700D01*
X107200Y4000D01*
Y5500D02*Y4000D01*
X107700Y3500D01*
X108200D01*
X108700Y4000D01*
Y5500D02*Y4000D01*
X109900Y5500D02*Y4000D01*
X110400Y3500D01*
X110900D01*
X111400Y4000D01*
Y5500D02*Y4000D01*
X111900Y3500D01*
X112400D01*
X112900Y4000D01*
Y5500D02*Y4000D01*
X114100Y3500D02*X114600D01*
X115800Y6500D02*Y6400D01*
Y5000D02*Y3500D01*
X118300Y5500D02*X118800Y5000D01*
X117300Y5500D02*X118300D01*
X116800Y5000D02*X117300Y5500D01*
X116800Y5000D02*Y4000D01*
X117300Y3500D01*
X118800Y5500D02*Y4000D01*
X119300Y3500D01*
X117300D02*X118300D01*
X118800Y4000D01*
X121000Y3500D02*X122500D01*
X123000Y4000D01*
X122500Y4500D02*X123000Y4000D01*
X121000Y4500D02*X122500D01*
X120500Y5000D02*X121000Y4500D01*
X120500Y5000D02*X121000Y5500D01*
X122500D01*
X123000Y5000D01*
X120500Y4000D02*X121000Y3500D01*
X124700Y5500D02*X126200D01*
X124200Y5000D02*X124700Y5500D01*
X124200Y5000D02*Y4000D01*
X124700Y3500D01*
X126200D01*
X128900Y5500D02*X129400Y5000D01*
X127900Y5500D02*X128900D01*
X127400Y5000D02*X127900Y5500D01*
X127400Y5000D02*Y4000D01*
X127900Y3500D01*
X129400Y5500D02*Y4000D01*
X129900Y3500D01*
X127900D02*X128900D01*
X129400Y4000D01*
X131100Y7500D02*Y4000D01*
X131600Y3500D01*
X133100D02*X134600D01*
X132600Y4000D02*X133100Y3500D01*
X132600Y5000D02*Y4000D01*
Y5000D02*X133100Y5500D01*
X134100D01*
X134600Y5000D01*
X132600Y4500D02*X134600D01*
Y5000D02*Y4500D01*
X137800Y7500D02*Y3500D01*
X137300D02*X137800Y4000D01*
X136300Y3500D02*X137300D01*
X135800Y4000D02*X136300Y3500D01*
X135800Y5000D02*Y4000D01*
Y5000D02*X136300Y5500D01*
X137300D01*
X137800Y5000D01*
X139000Y3500D02*X139500D01*
X141200Y5500D02*X142700D01*
X140700Y5000D02*X141200Y5500D01*
X140700Y5000D02*Y4000D01*
X141200Y3500D01*
X142700D01*
X143900Y5000D02*Y4000D01*
Y5000D02*X144400Y5500D01*
X145400D01*
X145900Y5000D01*
Y4000D01*
X145400Y3500D02*X145900Y4000D01*
X144400Y3500D02*X145400D01*
X143900Y4000D02*X144400Y3500D01*
X147600Y5000D02*Y3500D01*
Y5000D02*X148100Y5500D01*
X148600D01*
X149100Y5000D01*
Y3500D01*
Y5000D02*X149600Y5500D01*
X150100D01*
X150600Y5000D01*
Y3500D01*
X147100Y5500D02*X147600Y5000D01*
X172500Y35000D02*X176500D01*
X172500Y36300D02*X173200Y37000D01*
X175800D01*
X176500Y36300D02*X175800Y37000D01*
X176500Y36300D02*Y34500D01*
X172500Y36300D02*Y34500D01*
X174300Y39700D02*Y38200D01*
X176500Y40200D02*Y38200D01*
X172500D02*X176500D01*
X172500Y40200D02*Y38200D01*
Y43400D02*Y41400D01*
Y42400D02*X176500D01*
X174300Y46100D02*Y44600D01*
X176500Y46600D02*Y44600D01*
X172500D02*X176500D01*
X172500Y46600D02*Y44600D01*
X176500Y49800D02*Y48500D01*
X175800Y47800D02*X176500Y48500D01*
X173200Y47800D02*X175800D01*
X173200D02*X172500Y48500D01*
Y49800D02*Y48500D01*
Y53000D02*Y51000D01*
Y52000D02*X176500D01*
X172500Y60000D02*X176500D01*
X172500Y61500D02*Y59500D01*
Y61500D02*X173000Y62000D01*
X174000D01*
X174500Y61500D02*X174000Y62000D01*
X174500Y61500D02*Y60000D01*
X172500Y63200D02*X174500D01*
X176500Y63700D01*
X174500Y64700D01*
X176500Y65700D01*
X174500Y66200D01*
X172500D02*X174500D01*
X172500Y69400D02*Y67400D01*
Y69400D02*X173000Y69900D01*
X174000D01*
X174500Y69400D02*X174000Y69900D01*
X174500Y69400D02*Y67900D01*
X172500D02*X176500D01*
X174500Y68700D02*X176500Y69900D01*
X159000Y55000D02*X161000D01*
X160000Y56000D02*Y54000D01*
X159000Y72000D02*X161000D01*
X160000Y73000D02*Y71000D01*
G54D83*X50500Y93250D02*X119500D01*
X50500Y131750D02*X119500D01*
Y93250D01*
X50500Y131750D02*Y93250D01*
X136700Y37500D02*Y18500D01*
X105700Y37500D02*X136700D01*
X105700D02*Y18500D01*
X123700D02*X136700D01*
X105700D02*X118700D01*
X123700D02*G75*G03X118700Y18500I-2500J0D01*G01*
X123107Y14255D02*X123893D01*
X123107Y8745D02*X123893D01*
X158400Y113950D02*X177600D01*
X158400Y86050D02*X177600D01*
Y113950D02*Y86050D01*
X160000Y113950D02*Y86050D01*
X122000Y96000D02*X141000D01*
X122000D02*Y65000D01*
X141000D01*
Y96000D02*Y83000D01*
Y78000D02*Y65000D01*
Y83000D02*G75*G03X141000Y78000I0J-2500D01*G01*
X145245Y74936D02*Y74150D01*
X150755Y74936D02*Y74150D01*
X130107Y121745D02*X130893D01*
X130107Y127255D02*X130893D01*
X123900Y116400D02*X137800D01*
X123900D02*Y104600D01*
X137800D01*
Y116400D02*Y104600D01*
X103701Y87890D02*X116299D01*
Y74110D01*
X103701D01*
Y87890D01*
X106245Y61893D02*Y61107D01*
X111755Y61893D02*Y61107D01*
X141201Y46610D02*X153799D01*
X141201Y60390D02*Y46610D01*
Y60390D02*X153799D01*
Y46610D01*
X147107Y34745D02*X147893D01*
X147107Y40255D02*X147893D01*
X130607Y52255D02*X131393D01*
X130607Y46745D02*X131393D01*
X163607Y67755D02*X164393D01*
X163607Y62245D02*X164393D01*
X163607Y51755D02*X164393D01*
X163607Y46245D02*X164393D01*
X500Y114500D02*Y36500D01*
X45000Y114500D02*Y36500D01*
X500Y114500D02*X45000D01*
X500Y36500D02*X45000D01*
X7200Y115500D02*Y75500D01*
X37200Y115500D02*Y75500D01*
X32800Y115500D02*Y75500D01*
X7200Y115500D02*X37200D01*
X7200Y75500D02*X37200D01*
X7200D02*Y35500D01*
X37200Y75500D02*Y35500D01*
X32800Y75500D02*Y35500D01*
X7200Y75500D02*X37200D01*
X7200Y35500D02*X37200D01*
G54D85*X58500Y62000D02*Y42000D01*
X48500D02*X58500D01*
X48500Y62000D02*Y42000D01*
Y62000D02*X58500D01*
X53500Y72000D02*Y62000D01*
Y42000D02*Y32000D01*
X70000Y62000D02*Y42000D01*
X60000D02*X70000D01*
X60000Y62000D02*Y42000D01*
Y62000D02*X70000D01*
X65000Y72000D02*Y62000D01*
Y42000D02*Y32000D01*
G54D83*X73600Y71000D02*X87500D01*
X73600D02*Y59200D01*
X87500D01*
Y71000D02*Y59200D01*
X78750Y20901D02*Y10271D01*
X60250Y20901D02*Y10271D01*
X75500D02*X78750D01*
X60250D02*X63500D01*
X78571Y20901D02*X78750D01*
X60250D02*X60429D01*
X87255Y19393D02*Y18607D01*
X81745Y19393D02*Y18607D01*
X56755Y19393D02*Y18607D01*
X51245Y19393D02*Y18607D01*
X47800Y31000D02*Y10000D01*
X38200Y31000D02*Y10000D01*
X47800D01*
X38200Y31000D02*X47800D01*
X38200Y18000D02*X47800D01*
G54D84*X90000Y73030D02*Y69635D01*
X90485Y69150D01*
X91455D01*
X91940Y69635D01*
Y73030D02*Y69635D01*
X93104Y72545D02*X93589Y73030D01*
X95044D01*
X95529Y72545D01*
Y71575D01*
X93104Y69150D02*X95529Y71575D01*
X93104Y69150D02*X95529D01*
X94652Y86575D02*X96652D01*
X97152Y86075D01*
Y85075D01*
X96652Y84575D02*X97152Y85075D01*
X95152Y84575D02*X96652D01*
X95152Y86575D02*Y82575D01*
X95952Y84575D02*X97152Y82575D01*
X98352Y84075D02*X100352Y86575D01*
X98352Y84075D02*X100852D01*
X100352Y86575D02*Y82575D01*
X138221Y127170D02*X140181D01*
X140671Y126680D01*
Y125700D01*
X140181Y125210D02*X140671Y125700D01*
X138711Y125210D02*X140181D01*
X138711Y127170D02*Y123250D01*
X139495Y125210D02*X140671Y123250D01*
X141847Y126680D02*X142337Y127170D01*
X143317D01*
X143807Y126680D01*
X143317Y123250D02*X143807Y123740D01*
X142337Y123250D02*X143317D01*
X141847Y123740D02*X142337Y123250D01*
Y125406D02*X143317D01*
X143807Y126680D02*Y125896D01*
Y124916D02*Y123740D01*
Y124916D02*X143317Y125406D01*
X143807Y125896D02*X143317Y125406D01*
X141700Y112600D02*Y108600D01*
X143000Y112600D02*X143700Y111900D01*
Y109300D01*
X143000Y108600D02*X143700Y109300D01*
X141200Y108600D02*X143000D01*
X141200Y112600D02*X143000D01*
X144900Y110100D02*X146900Y112600D01*
X144900Y110100D02*X147400D01*
X146900Y112600D02*Y108600D01*
X51500Y91500D02*X53500D01*
X52500D02*Y87500D01*
X54700Y90700D02*X55500Y91500D01*
Y87500D01*
X54700D02*X56200D01*
X50500Y53500D02*X52500D01*
X53000Y53000D01*
Y52000D01*
X52500Y51500D02*X53000Y52000D01*
X51000Y51500D02*X52500D01*
X51000Y53500D02*Y49500D01*
X51800Y51500D02*X53000Y49500D01*
X54200Y50000D02*X54700Y49500D01*
X54200Y50800D02*Y50000D01*
Y50800D02*X54900Y51500D01*
X55500D01*
X56200Y50800D01*
Y50000D01*
X55700Y49500D02*X56200Y50000D01*
X54700Y49500D02*X55700D01*
X54200Y52200D02*X54900Y51500D01*
X54200Y53000D02*Y52200D01*
Y53000D02*X54700Y53500D01*
X55700D01*
X56200Y53000D01*
Y52200D01*
X55500Y51500D02*X56200Y52200D01*
X40500Y7500D02*Y3500D01*
X41800Y7500D02*X42500Y6800D01*
Y4200D01*
X41800Y3500D02*X42500Y4200D01*
X40000Y3500D02*X41800D01*
X40000Y7500D02*X41800D01*
X43700Y6700D02*X44500Y7500D01*
Y3500D01*
X43700D02*X45200D01*
X62000Y53500D02*X64000D01*
X64500Y53000D01*
Y52000D01*
X64000Y51500D02*X64500Y52000D01*
X62500Y51500D02*X64000D01*
X62500Y53500D02*Y49500D01*
X63300Y51500D02*X64500Y49500D01*
X66200D02*X67700Y51500D01*
Y53000D02*Y51500D01*
X67200Y53500D02*X67700Y53000D01*
X66200Y53500D02*X67200D01*
X65700Y53000D02*X66200Y53500D01*
X65700Y53000D02*Y52000D01*
X66200Y51500D01*
X67700D01*
X72301Y32595D02*Y29095D01*
X72801Y28595D01*
X73801D01*
X74301Y29095D01*
Y32595D02*Y29095D01*
X75501Y31795D02*X76301Y32595D01*
Y28595D01*
X75501D02*X77001D01*
X97800Y29500D02*Y26000D01*
X98300Y25500D01*
X99300D01*
X99800Y26000D01*
Y29500D02*Y26000D01*
X101000Y29000D02*X101500Y29500D01*
X102500D01*
X103000Y29000D01*
X102500Y25500D02*X103000Y26000D01*
X101500Y25500D02*X102500D01*
X101000Y26000D02*X101500Y25500D01*
Y27700D02*X102500D01*
X103000Y29000D02*Y28200D01*
Y27200D02*Y26000D01*
Y27200D02*X102500Y27700D01*
X103000Y28200D02*X102500Y27700D01*
X143550Y28150D02*X144850D01*
X142850Y28850D02*X143550Y28150D01*
X142850Y31450D02*Y28850D01*
Y31450D02*X143550Y32150D01*
X144850D01*
X147550D02*X148050Y31650D01*
X146550Y32150D02*X147550D01*
X146050Y31650D02*X146550Y32150D01*
X146050Y31650D02*Y28650D01*
X146550Y28150D01*
X147550Y30350D02*X148050Y29850D01*
X146050Y30350D02*X147550D01*
X146550Y28150D02*X147550D01*
X148050Y28650D01*
Y29850D02*Y28650D01*
X52593Y6107D02*X53893D01*
X51893Y6807D02*X52593Y6107D01*
X51893Y9407D02*Y6807D01*
Y9407D02*X52593Y10107D01*
X53893D01*
X55093Y9307D02*X55893Y10107D01*
Y6107D01*
X55093D02*X56593D01*
X82550Y6150D02*X83850D01*
X81850Y6850D02*X82550Y6150D01*
X81850Y9450D02*Y6850D01*
Y9450D02*X82550Y10150D01*
X83850D01*
X85050Y9650D02*X85550Y10150D01*
X87050D01*
X87550Y9650D01*
Y8650D01*
X85050Y6150D02*X87550Y8650D01*
X85050Y6150D02*X87550D01*
X109507Y9150D02*X110807D01*
X108807Y9850D02*X109507Y9150D01*
X108807Y12450D02*Y9850D01*
Y12450D02*X109507Y13150D01*
X110807D01*
X112507Y9150D02*X114507Y13150D01*
X112007D02*X114507D01*
X171000Y84000D02*X173000D01*
X173500Y83500D01*
Y82500D01*
X173000Y82000D02*X173500Y82500D01*
X171500Y82000D02*X173000D01*
X171500Y84000D02*Y80000D01*
X172300Y82000D02*X173500Y80000D01*
X175200D02*X177200Y84000D01*
X174700D02*X177200D01*
X153464Y76150D02*X154764D01*
X152764Y76850D02*X153464Y76150D01*
X152764Y79450D02*Y76850D01*
Y79450D02*X153464Y80150D01*
X154764D01*
X155964Y77650D02*X157964Y80150D01*
X155964Y77650D02*X158464D01*
X157964Y80150D02*Y76150D01*
X149543Y66500D02*X151543D01*
X152043Y66000D01*
Y65000D01*
X151543Y64500D02*X152043Y65000D01*
X150043Y64500D02*X151543D01*
X150043Y66500D02*Y62500D01*
X150843Y64500D02*X152043Y62500D01*
X153243Y66000D02*X153743Y66500D01*
X155243D01*
X155743Y66000D01*
Y65000D01*
X153243Y62500D02*X155743Y65000D01*
X153243Y62500D02*X155743D01*
X164436Y74150D02*Y70150D01*
X165736Y74150D02*X166436Y73450D01*
Y70850D01*
X165736Y70150D02*X166436Y70850D01*
X163936Y70150D02*X165736D01*
X163936Y74150D02*X165736D01*
X167636Y73650D02*X168136Y74150D01*
X169136D01*
X169636Y73650D01*
X169136Y70150D02*X169636Y70650D01*
X168136Y70150D02*X169136D01*
X167636Y70650D02*X168136Y70150D01*
Y72350D02*X169136D01*
X169636Y73650D02*Y72850D01*
Y71850D02*Y70650D01*
Y71850D02*X169136Y72350D01*
X169636Y72850D02*X169136Y72350D01*
X164264Y58150D02*Y54150D01*
X165564Y58150D02*X166264Y57450D01*
Y54850D01*
X165564Y54150D02*X166264Y54850D01*
X163764Y54150D02*X165564D01*
X163764Y58150D02*X165564D01*
X167464Y57650D02*X167964Y58150D01*
X169464D01*
X169964Y57650D01*
Y56650D01*
X167464Y54150D02*X169964Y56650D01*
X167464Y54150D02*X169964D01*
X118304Y62851D02*Y59351D01*
X118804Y58851D01*
X119804D01*
X120304Y59351D01*
Y62851D02*Y59351D01*
X121504Y60351D02*X123504Y62851D01*
X121504Y60351D02*X124004D01*
X123504Y62851D02*Y58851D01*
X97936Y60064D02*X99936D01*
X100436Y59564D01*
Y58564D01*
X99936Y58064D02*X100436Y58564D01*
X98436Y58064D02*X99936D01*
X98436Y60064D02*Y56064D01*
X99236Y58064D02*X100436Y56064D01*
X103136Y60064D02*X103636Y59564D01*
X102136Y60064D02*X103136D01*
X101636Y59564D02*X102136Y60064D01*
X101636Y59564D02*Y56564D01*
X102136Y56064D01*
X103136Y58264D02*X103636Y57764D01*
X101636Y58264D02*X103136D01*
X102136Y56064D02*X103136D01*
X103636Y56564D01*
Y57764D02*Y56564D01*
X117550Y47150D02*X118850D01*
X116850Y47850D02*X117550Y47150D01*
X116850Y50450D02*Y47850D01*
Y50450D02*X117550Y51150D01*
X118850D01*
X120050D02*X122050D01*
X120050D02*Y49150D01*
X120550Y49650D01*
X121550D01*
X122050Y49150D01*
Y47650D01*
X121550Y47150D02*X122050Y47650D01*
X120550Y47150D02*X121550D01*
X120050Y47650D02*X120550Y47150D01*
X94286Y51500D02*X95086D01*
Y48000D01*
X94586Y47500D02*X95086Y48000D01*
X94086Y47500D02*X94586D01*
X93586Y48000D02*X94086Y47500D01*
X93586Y48500D02*Y48000D01*
X96286Y49000D02*X98286Y51500D01*
X96286Y49000D02*X98786D01*
X98286Y51500D02*Y47500D01*
M02*
