M48
INCH
T58C0.012
T57C0.038
T56C0.060
T55C0.039
T54C0.129
T53C0.068
T52C0.048
%
T58
X006100Y001500
X006100Y001150
X006100Y000800
X006100Y000450
X007300Y007350
X007650Y007350
X007800Y001500
X007800Y001150
X007800Y000800
X007800Y000450
X008050Y004650
X008500Y005650
X008500Y005300
X008500Y003250
X009000Y004600
X009700Y001650
X009700Y000650
X009950Y003900
X011100Y004750
X011200Y004200
X011550Y009300
X011900Y009300
X011900Y008950
X012450Y004000
X012500Y004350
X012800Y004000
X012900Y006300
X013145Y003995
X013350Y001500
X013350Y001150
X013800Y005700
X013850Y007800
X013850Y004350
X014200Y007800
X014400Y004400
X014600Y006300
X016200Y003750
X016950Y003500
T57
X005350Y007200
X005350Y003200
X006500Y007200
X006500Y003200
T55
X016800Y011000
X016800Y010000
X016800Y009000
T52
X002000Y010550
X002000Y008550
X002000Y006550
X002000Y004550
X006000Y011250
X011000Y011250
T56
X003100Y010670
X003100Y009110
X003100Y007550
X003100Y005990
X003100Y004430
T53
X008500Y013950
X008500Y008550
T54
X001700Y013300
X001700Y001700
X016300Y013300
X016300Y001700
M30
