G04 start of page 2 for group 0 idx 0 *
G04 Title: (unknown), top *
G04 Creator: pcb 20140316 *
G04 CreationDate: Wed 15 Apr 2020 03:26:38 PM GMT UTC *
G04 For: railfan *
G04 Format: Gerber/RS-274X *
G04 PCB-Dimensions (mil): 1800.00 1500.00 *
G04 PCB-Coordinate-Origin: lower left *
%MOIN*%
%FSLAX25Y25*%
%LNTOP*%
%ADD35C,0.0390*%
%ADD34C,0.0380*%
%ADD33C,0.0600*%
%ADD32C,0.1285*%
%ADD31C,0.0480*%
%ADD30C,0.0120*%
%ADD29C,0.0260*%
%ADD28C,0.0310*%
%ADD27R,0.0200X0.0200*%
%ADD26R,0.0550X0.0550*%
%ADD25R,0.0945X0.0945*%
%ADD24R,0.0378X0.0378*%
%ADD23R,0.0512X0.0512*%
%ADD22R,0.0167X0.0167*%
%ADD21R,0.0240X0.0240*%
%ADD20C,0.0680*%
%ADD19C,0.1200*%
%ADD18C,0.2937*%
%ADD17C,0.0800*%
%ADD16C,0.0700*%
%ADD15C,0.0450*%
%ADD14C,0.0400*%
%ADD13C,0.0100*%
%ADD12C,0.0250*%
%ADD11C,0.0001*%
G54D11*G36*
X50000Y18000D02*X60579D01*
X60631Y17874D01*
X60730Y17713D01*
X60853Y17570D01*
X60996Y17447D01*
X61158Y17348D01*
X61332Y17276D01*
X61516Y17232D01*
X61704Y17221D01*
X65672Y17232D01*
X65856Y17276D01*
X66030Y17348D01*
X66192Y17447D01*
X66335Y17570D01*
X66458Y17713D01*
X66556Y17874D01*
X66609Y18000D01*
X72391D01*
X72443Y17874D01*
X72542Y17713D01*
X72665Y17570D01*
X72808Y17447D01*
X72970Y17348D01*
X73144Y17276D01*
X73328Y17232D01*
X73516Y17221D01*
X77484Y17232D01*
X77668Y17276D01*
X77842Y17348D01*
X78004Y17447D01*
X78147Y17570D01*
X78270Y17713D01*
X78368Y17874D01*
X78421Y18000D01*
X87500D01*
Y2000D01*
X50000D01*
Y18000D01*
G37*
G36*
X129000Y40500D02*X140500D01*
Y34000D01*
X129000D01*
Y39441D01*
X129005Y39500D01*
X129000Y39559D01*
Y40500D01*
G37*
G36*
X137500D02*X149000D01*
Y34000D01*
X147637D01*
X147609Y34007D01*
X147452Y34016D01*
X141391Y34007D01*
X141363Y34000D01*
X137500D01*
Y40500D01*
G37*
G36*
X178000Y67000D02*X168500D01*
Y112500D01*
X178000D01*
Y67000D01*
G37*
G36*
X162000D02*X152500D01*
Y112500D01*
X162000D01*
Y67000D01*
G37*
G54D12*X126800Y114400D02*X119900D01*
G54D13*X126900D02*X130100D01*
G54D12*X119900D02*X118000Y112500D01*
X110000D01*
X60000D02*X94500D01*
G54D13*X130100Y114400D02*X131000Y113500D01*
G54D12*X126800Y110500D02*X122000D01*
G54D13*X127000Y106400D02*X126800Y106600D01*
G54D12*X122000Y110500D02*X116500Y105000D01*
G54D13*X120000Y108500D02*Y103000D01*
G54D12*X116500Y105000D02*X102000D01*
X99000Y108000D01*
X94500Y112500D02*X100500Y106500D01*
X94500Y112500D02*X102000Y120000D01*
X102250Y120250D02*X118750D01*
X120500Y122000D01*
G54D13*X113348Y85724D02*Y82575D01*
Y85724D02*X119276D01*
X120000Y85000D01*
X110000Y72000D02*Y95500D01*
G54D12*X121250Y93000D02*X123500Y90750D01*
X121250Y93000D02*X115500D01*
X119000D02*Y89500D01*
G54D13*X106652Y82575D02*X103925D01*
X106652Y76276D02*Y73652D01*
X103000Y70000D01*
X106652Y79425D02*X101925D01*
X99500Y77000D01*
X103925Y82575D02*X102000Y84500D01*
Y99000D01*
X104500Y101500D01*
X113500Y98000D02*X124000D01*
X104500Y101500D02*X118500D01*
X120000Y103000D02*X118500Y101500D01*
X110000Y95500D02*X112500Y98000D01*
X116000D01*
X110000Y85700D02*X106676D01*
X106652Y85724D01*
X129000Y90750D02*Y99000D01*
X131000Y101000D01*
X130500Y100500D01*
X124000Y90750D02*X129000D01*
X124000Y98000D02*X127000Y101000D01*
X134000Y90750D02*Y87000D01*
X132000Y85000D01*
X120000D01*
G54D12*X156500Y101000D02*X145043D01*
G54D13*X124000Y70250D02*X111750D01*
X110000Y72000D01*
X113348Y76276D02*X129776D01*
X113348Y79425D02*X134075D01*
X116000Y64000D02*X121000D01*
X125000D02*X110043D01*
X115500Y61500D02*X125500D01*
G54D12*X138500Y78000D02*X147914D01*
X148000Y78086D01*
G54D14*Y71000D02*X139750D01*
X139000Y70250D01*
G54D13*X148000Y71000D02*Y68500D01*
X146000Y63000D02*X149500D01*
X150000D02*X148500D01*
X150848Y58224D02*Y62152D01*
X150000Y63000D01*
X144152Y58224D02*X139224D01*
X148000Y68500D02*X155500Y61000D01*
X133224Y76276D02*X134000Y75500D01*
Y70250D01*
X133224Y76276D02*X133250Y76250D01*
X134075Y79425D02*X135500Y78000D01*
Y77000D01*
X126500Y65500D02*Y76276D01*
X133224D01*
X139000Y70250D02*X137250D01*
X136500Y71000D01*
G54D14*X139000Y70250D02*Y64000D01*
X134750Y59750D01*
G54D13*X136500Y71000D02*Y76000D01*
X135500Y77000D01*
X125000Y64000D02*X126500Y65500D01*
X129000Y70250D02*Y63000D01*
X128000D01*
X126500Y61500D01*
X124543D01*
X80500Y64000D02*Y52000D01*
Y53500D02*Y46500D01*
X89500Y64500D02*Y52000D01*
X91000Y50500D01*
X98500D01*
X87500Y48500D02*X97000D01*
X102500Y43000D02*X98000Y47500D01*
X98500Y50500D02*X105500Y43500D01*
X85000Y41500D02*Y46000D01*
X97000Y48500D02*X99000Y46500D01*
X90000Y46000D02*Y41500D01*
X99500Y54500D02*X112000Y42000D01*
X103000Y55500D02*X111000Y47500D01*
X75406Y22358D02*Y30094D01*
X72000Y33500D01*
X69000Y36500D02*X72250Y33250D01*
X80000Y36500D02*Y29500D01*
X82500Y27000D01*
X80000Y41500D02*X77500Y44000D01*
X71500D01*
X69000Y41500D01*
Y36500D01*
X90000D02*X92500Y39000D01*
G54D14*X75406Y22406D02*X84363D01*
X84500Y22543D01*
X91500Y21000D02*Y14000D01*
X94000Y11500D01*
G54D13*X97000Y16500D02*Y23000D01*
X96900Y23100D01*
G54D14*X84500Y22543D02*X89957D01*
X91500Y21000D01*
G54D13*X82500Y27000D02*X91500D01*
X95400Y23100D02*X91500Y27000D01*
X87000D01*
X96500Y27500D02*X98500Y25500D01*
X85000Y30000D02*X86000Y29000D01*
X95000D01*
X97500Y26500D01*
X85000Y30000D02*Y36500D01*
X92500Y39000D02*X99500D01*
X98500Y25500D02*X110950D01*
X112400Y23100D02*X98800D01*
X102600D02*X95400D01*
G54D14*X119957Y11457D02*X94043D01*
X92750Y12750D01*
G54D13*X110950Y35500D02*X104000D01*
X102500Y37000D01*
Y43000D01*
X105500Y43500D02*Y40500D01*
X107000Y39000D01*
X115000D01*
X116500Y37500D01*
X115000Y43500D02*X110750Y47750D01*
X116500Y37500D02*Y24000D01*
X111900Y23100D02*X115800D01*
X116500Y23800D01*
Y24500D01*
Y30500D02*X110950D01*
G54D12*Y20500D02*X119957D01*
G54D14*Y11500D02*Y47457D01*
G54D13*X139000Y90750D02*Y98500D01*
X135000Y102500D01*
Y106600D01*
X131000Y113500D02*Y101000D01*
X127000D02*Y106400D01*
X146000Y108000D02*Y112500D01*
X148500Y115000D01*
X163000D01*
X165000Y113000D01*
Y70000D01*
X135000Y110500D02*X131000D01*
G54D12*X135000Y119000D02*Y114400D01*
X126957Y114443D02*X127000Y114400D01*
X132000Y131000D02*X134000Y129000D01*
X123000Y131000D02*X132000D01*
X133000Y130000D01*
X134000Y129000D02*Y124543D01*
X134043Y124500D02*Y119957D01*
X135000Y119000D01*
X126957Y124500D02*Y114443D01*
X134000Y124543D02*X134043Y124500D01*
X120500Y122000D02*Y128500D01*
X123000Y131000D01*
G54D13*X97000Y6500D02*X143000D01*
X123500Y21500D02*X124500Y20500D01*
X131450Y25500D02*X139543D01*
X124000Y39000D02*X123500Y38500D01*
Y21500D01*
X143000Y6500D02*X145500Y9000D01*
Y24000D01*
G54D15*X133500Y15000D02*Y11500D01*
X127543D01*
G54D13*X124500Y20500D02*X131450D01*
X125500Y37500D02*Y31000D01*
X126000Y30500D01*
X131450D01*
X109000Y57957D02*X111957D01*
X115500Y61500D01*
G54D14*X119957Y46543D02*Y54457D01*
X123000Y57500D01*
X132500D01*
X136500Y61500D01*
G54D13*X139224Y58224D02*X136000Y55000D01*
X144152Y55075D02*X141075D01*
X139500Y53500D01*
X127457Y49500D02*Y43543D01*
X139500Y53500D02*Y45000D01*
X145500Y24000D02*X156000Y34500D01*
X169500Y35000D02*X171500Y37000D01*
X160457Y35957D02*X159000Y34500D01*
X156000D01*
X154000Y32500D01*
X173900Y39400D02*X169500Y35000D01*
X139543Y25500D02*X144500Y30457D01*
X134500Y49457D02*X134543Y49500D01*
X134500Y48500D02*Y53500D01*
X136500Y55500D01*
X144152Y51925D02*Y42848D01*
X139500Y45000D02*X138000Y43500D01*
X127457Y43543D02*X127500Y43500D01*
X124000Y41000D02*Y39000D01*
X127500Y43500D02*Y39500D01*
X125500Y37500D01*
G54D12*X144500Y37543D02*Y42500D01*
G54D13*X144152Y42848D02*X144500Y42500D01*
X138000Y43500D02*X131500D01*
X173900Y77550D02*Y39400D01*
X150848Y48776D02*X154224D01*
X157000Y46000D01*
X165500D02*X166500Y45000D01*
X167500Y53000D02*Y60957D01*
X167543Y61000D01*
X166500Y45000D02*Y41043D01*
X166543Y41000D01*
X160457D02*Y35957D01*
X157000Y46000D02*X165500D01*
X150848Y51925D02*X166425D01*
X167500Y53000D01*
X150848Y55075D02*X156925D01*
X157000Y55000D01*
X155500Y61000D02*X160457D01*
G54D16*X52000Y85500D02*X85000D01*
G54D12*X53500Y72000D02*Y76500D01*
X55500Y78500D01*
X76500D01*
X68300Y61200D02*X65000Y64500D01*
Y72000D01*
G54D13*X79400Y65100D02*X80500Y64000D01*
X84700Y65100D02*X88900D01*
X89500Y64500D01*
G54D12*X76500Y69000D02*Y73500D01*
X73000D01*
X84500Y72500D02*Y69200D01*
X84700Y69000D01*
G54D13*X76500Y65100D02*X79400D01*
G54D12*X76500Y78500D02*X81000Y74000D01*
X83000D01*
X84500Y72500D01*
X76500Y61200D02*X68300D01*
X85000Y53000D02*Y60900D01*
X84700Y61200D01*
G54D13*X99500Y77000D02*Y54500D01*
X103000Y70000D02*Y55500D01*
G54D12*X31000Y106700D02*X21200D01*
X20000Y105500D01*
G54D16*X45000Y94500D02*Y135500D01*
X49000Y139500D01*
X85000D01*
G54D12*X20000Y73500D02*X22000Y75500D01*
X31000D01*
X20000Y65500D02*Y73500D01*
X21750Y75250D01*
G54D16*X40400Y59900D02*X45000Y64500D01*
G54D12*X29800Y45500D02*X31000Y44300D01*
G54D16*Y91100D02*X41600D01*
X45000Y94500D01*
X31000Y59900D02*X40400D01*
X45000Y64500D02*Y78500D01*
X52000Y85500D01*
G54D13*X54000Y72000D02*Y71500D01*
X85000Y46000D02*X87500Y48500D01*
G54D12*X49000Y27000D02*X42084D01*
X42000Y27084D01*
X43000Y27000D02*X38500D01*
X30500Y35000D01*
X26000D01*
X11000Y41000D02*Y63500D01*
X13000Y65500D01*
X20000D01*
X27000Y35000D02*X14500D01*
X11000Y38500D01*
Y46500D01*
X54000Y32000D02*X49000Y27000D01*
G54D14*X53500Y32000D02*X65000D01*
X63594Y22358D02*X54185D01*
X54000Y22543D01*
X49543D01*
X44000Y17000D01*
Y15000D01*
X43000Y14000D01*
G54D17*X60000Y112500D03*
G54D18*X17000Y133000D03*
G54D11*G36*
X25000Y112700D02*Y100700D01*
X37000D01*
Y112700D01*
X25000D01*
G37*
G54D19*X31000Y91100D03*
G54D11*G36*
X16000Y109500D02*Y101500D01*
X24000D01*
Y109500D01*
X16000D01*
G37*
G36*
X106000Y116500D02*Y108500D01*
X114000D01*
Y116500D01*
X106000D01*
G37*
G54D19*X85000Y85500D03*
Y139500D03*
G54D18*X163000Y133000D03*
X17000Y17000D03*
G54D19*X31000Y75500D03*
Y59900D03*
Y44300D03*
G54D11*G36*
X16000Y69500D02*Y61500D01*
X24000D01*
Y69500D01*
X16000D01*
G37*
G54D17*X20000Y45500D03*
Y85500D03*
G54D11*G36*
X50100Y75400D02*Y68600D01*
X56900D01*
Y75400D01*
X50100D01*
G37*
G36*
X61600D02*Y68600D01*
X68400D01*
Y75400D01*
X61600D01*
G37*
G54D20*X53500Y32000D03*
G54D18*X163000Y17000D03*
G54D20*X65000Y32000D03*
G54D21*X75700Y69000D02*X77300D01*
X75700Y65100D02*X77300D01*
X75700Y61200D02*X77300D01*
X83900D02*X85500D01*
X83900Y65100D02*X85500D01*
X83900Y69000D02*X85500D01*
G54D22*X105717Y85724D02*X107587D01*
X112413D02*X114283D01*
X105717Y82575D02*X107587D01*
X105717Y79425D02*X107587D01*
X105717Y76276D02*X107587D01*
X112413D02*X114283D01*
X112413Y79425D02*X114283D01*
X112413Y82575D02*X114283D01*
G54D23*X108607Y57957D02*X109393D01*
X108607Y65043D02*X109393D01*
G54D24*X63594Y24405D02*Y20311D01*
G54D23*X53607Y22543D02*X54393D01*
G54D24*X75406Y24405D02*Y20311D01*
X69500Y24405D02*Y12595D01*
G54D25*Y10861D02*Y8971D01*
G54D11*G36*
X71385Y18426D02*X74225Y15586D01*
X72805Y14166D01*
X69965Y17006D01*
X71385Y18426D01*
G37*
G36*
X64775Y15586D02*X67615Y18426D01*
X69035Y17006D01*
X66195Y14166D01*
X64775Y15586D01*
G37*
G54D23*X53607Y15457D02*X54393D01*
G54D26*X42000Y14000D02*X44000D01*
X42000Y27000D02*X44000D01*
G54D27*X139000Y94000D02*Y87500D01*
G54D23*X147607Y78086D02*X148393D01*
X145107Y100957D02*X145893D01*
X145107Y108043D02*X145893D01*
G54D27*X134000Y94000D02*Y87500D01*
X129000Y94000D02*Y87500D01*
X124000Y94000D02*Y87500D01*
Y73500D02*Y67000D01*
X129000Y73500D02*Y67000D01*
X134000Y73500D02*Y67000D01*
G54D23*X134043Y124893D02*Y124107D01*
X126957Y124893D02*Y124107D01*
G54D21*X126000Y114400D02*X127600D01*
X134200D02*X135800D01*
X126000Y110500D02*X127600D01*
X126000Y106600D02*X127600D01*
X134200D02*X135800D01*
X134200Y110500D02*X135800D01*
G54D26*X156100Y108850D02*Y106050D01*
X173900Y108850D02*Y106050D01*
G54D27*X139000Y73500D02*Y67000D01*
G54D23*X147607Y71000D02*X148393D01*
G54D26*X156100Y72950D02*Y70150D01*
X173900Y72950D02*Y70150D01*
G54D22*X149913Y48776D02*X151783D01*
X149913Y51925D02*X151783D01*
X149913Y55075D02*X151783D01*
X149913Y58224D02*X151783D01*
X143217D02*X145087D01*
X143217Y55075D02*X145087D01*
X143217Y51925D02*X145087D01*
X143217Y48776D02*X145087D01*
G54D23*X144107Y30457D02*X144893D01*
X144107Y37543D02*X144893D01*
X167543Y61393D02*Y60607D01*
Y41393D02*Y40607D01*
X160457Y61393D02*Y60607D01*
Y41393D02*Y40607D01*
G54D27*X128200Y20500D02*X134700D01*
X128200Y25500D02*X134700D01*
X128200Y30500D02*X134700D01*
X128200Y35500D02*X134700D01*
X107700D02*X114200D01*
X107700Y30500D02*X114200D01*
X107700Y25500D02*X114200D01*
X107700Y20500D02*X114200D01*
G54D23*X119957Y11893D02*Y11107D01*
X127043Y11893D02*Y11107D01*
X127457Y49893D02*Y49107D01*
X134543Y49893D02*Y49107D01*
X84107Y22543D02*X84893D01*
X84107Y15457D02*X84893D01*
G54D28*X80000Y36500D03*
Y41500D03*
X85000Y36500D03*
Y41500D03*
X90000Y36500D03*
Y41500D03*
G54D29*X73000Y73500D03*
X142000Y78000D03*
X138500D03*
X76500Y73500D03*
X119000Y89500D03*
Y93000D03*
X115500D03*
X154500Y99500D03*
X160000D03*
Y79000D03*
Y89500D03*
X78000Y4500D03*
Y8000D03*
Y11500D03*
X97000Y6500D03*
X81500Y4500D03*
Y8000D03*
X61000Y4500D03*
Y8000D03*
Y11500D03*
Y15000D03*
X57500Y4500D03*
Y8000D03*
X78000Y15000D03*
X85000Y32500D03*
X97000Y16500D03*
X85000Y56500D03*
Y53000D03*
X90000Y46000D03*
X80500Y46500D03*
X115000Y43500D03*
X133500Y11500D03*
X139543Y25500D03*
X133500Y15000D03*
X131500Y43500D03*
X129000Y63000D03*
X146000D03*
X138000Y57000D03*
X157000Y55000D03*
X99500Y39000D03*
X112000Y42000D03*
X124000Y41000D03*
X102500Y43000D03*
X169500Y35000D03*
X165000Y70000D03*
X127457Y43543D03*
X130500Y39000D03*
X134000D03*
X138500D03*
Y35500D03*
G54D30*G54D31*G54D32*G54D33*G54D31*G54D20*G54D32*G54D33*G54D31*G54D34*G54D32*G54D34*G54D35*M02*
