G04 start of page 7 for group -4063 idx -4063 *
G04 Title: (unknown), componentmask *
G04 Creator: pcb 20140316 *
G04 CreationDate: Wed 15 Apr 2020 03:26:38 PM GMT UTC *
G04 For: railfan *
G04 Format: Gerber/RS-274X *
G04 PCB-Dimensions (mil): 1800.00 1500.00 *
G04 PCB-Coordinate-Origin: lower left *
%MOIN*%
%FSLAX25Y25*%
%LNTOPMASK*%
%ADD71C,0.0370*%
%ADD70R,0.0610X0.0610*%
%ADD69R,0.1005X0.1005*%
%ADD68R,0.0438X0.0438*%
%ADD67R,0.0572X0.0572*%
%ADD66R,0.0227X0.0227*%
%ADD65R,0.0300X0.0300*%
%ADD64C,0.0490*%
%ADD63C,0.0740*%
%ADD62C,0.1200*%
%ADD61C,0.1260*%
%ADD60C,0.0001*%
%ADD59C,0.2997*%
%ADD58C,0.0860*%
G54D58*X60000Y112500D03*
G54D59*X17000Y133000D03*
G54D60*G36*
X24700Y113000D02*Y100400D01*
X37300D01*
Y113000D01*
X24700D01*
G37*
G54D61*X31000Y91100D03*
G54D60*G36*
X15700Y109800D02*Y101200D01*
X24300D01*
Y109800D01*
X15700D01*
G37*
G36*
X105700Y116800D02*Y108200D01*
X114300D01*
Y116800D01*
X105700D01*
G37*
G54D62*X85000Y85500D03*
Y139500D03*
G54D59*X163000Y133000D03*
X17000Y17000D03*
G54D61*X31000Y75500D03*
Y59900D03*
Y44300D03*
G54D60*G36*
X15700Y69800D02*Y61200D01*
X24300D01*
Y69800D01*
X15700D01*
G37*
G54D58*X20000Y45500D03*
Y85500D03*
G54D60*G36*
X49800Y75700D02*Y68300D01*
X57200D01*
Y75700D01*
X49800D01*
G37*
G36*
X61300D02*Y68300D01*
X68700D01*
Y75700D01*
X61300D01*
G37*
G54D63*X53500Y32000D03*
G54D59*X163000Y17000D03*
G54D63*X65000Y32000D03*
G54D64*X75000Y39000D03*
X95000Y43000D03*
Y35000D03*
G54D65*X75700Y69000D02*X77300D01*
X75700Y65100D02*X77300D01*
X75700Y61200D02*X77300D01*
X83900D02*X85500D01*
X83900Y65100D02*X85500D01*
X83900Y69000D02*X85500D01*
G54D66*X105717Y85724D02*X107587D01*
X112413D02*X114283D01*
X105717Y82575D02*X107587D01*
X105717Y79425D02*X107587D01*
X105717Y76276D02*X107587D01*
X112413D02*X114283D01*
X112413Y79425D02*X114283D01*
X112413Y82575D02*X114283D01*
G54D67*X108607Y57957D02*X109393D01*
X108607Y65043D02*X109393D01*
G54D68*X63594Y24405D02*Y20311D01*
G54D67*X53607Y22543D02*X54393D01*
G54D68*X75406Y24405D02*Y20311D01*
X69500Y24405D02*Y12595D01*
G54D69*Y10861D02*Y8971D01*
G54D60*G36*
X71385Y18850D02*X74649Y15586D01*
X72805Y13742D01*
X69541Y17006D01*
X71385Y18850D01*
G37*
G36*
X64351Y15586D02*X67615Y18850D01*
X69459Y17006D01*
X66195Y13742D01*
X64351Y15586D01*
G37*
G54D67*X53607Y15457D02*X54393D01*
G54D70*X42000Y14000D02*X44000D01*
X42000Y27000D02*X44000D01*
G54D65*X139000Y94000D02*Y87500D01*
G54D67*X147607Y78086D02*X148393D01*
X145107Y100957D02*X145893D01*
X145107Y108043D02*X145893D01*
G54D65*X134000Y94000D02*Y87500D01*
X129000Y94000D02*Y87500D01*
X124000Y94000D02*Y87500D01*
Y73500D02*Y67000D01*
X129000Y73500D02*Y67000D01*
X134000Y73500D02*Y67000D01*
G54D67*X134043Y124893D02*Y124107D01*
X126957Y124893D02*Y124107D01*
G54D65*X126000Y114400D02*X127600D01*
X134200D02*X135800D01*
X126000Y110500D02*X127600D01*
X126000Y106600D02*X127600D01*
X134200D02*X135800D01*
X134200Y110500D02*X135800D01*
G54D70*X156100Y108850D02*Y106050D01*
X173900Y108850D02*Y106050D01*
G54D65*X139000Y73500D02*Y67000D01*
G54D67*X147607Y71000D02*X148393D01*
G54D70*X156100Y72950D02*Y70150D01*
X173900Y72950D02*Y70150D01*
G54D66*X149913Y48776D02*X151783D01*
X149913Y51925D02*X151783D01*
X149913Y55075D02*X151783D01*
X149913Y58224D02*X151783D01*
X143217D02*X145087D01*
X143217Y55075D02*X145087D01*
X143217Y51925D02*X145087D01*
X143217Y48776D02*X145087D01*
G54D67*X144107Y30457D02*X144893D01*
X144107Y37543D02*X144893D01*
X167543Y61393D02*Y60607D01*
Y41393D02*Y40607D01*
X160457Y61393D02*Y60607D01*
Y41393D02*Y40607D01*
G54D65*X128200Y20500D02*X134700D01*
X128200Y25500D02*X134700D01*
X128200Y30500D02*X134700D01*
X128200Y35500D02*X134700D01*
X107700D02*X114200D01*
X107700Y30500D02*X114200D01*
X107700Y25500D02*X114200D01*
X107700Y20500D02*X114200D01*
G54D67*X119957Y11893D02*Y11107D01*
X127043Y11893D02*Y11107D01*
X127457Y49893D02*Y49107D01*
X134543Y49893D02*Y49107D01*
X84107Y22543D02*X84893D01*
X84107Y15457D02*X84893D01*
G54D71*X80000Y36500D03*
Y41500D03*
X85000Y36500D03*
Y41500D03*
X90000Y36500D03*
Y41500D03*
M02*
