G04 start of page 9 for group -4079 idx -4079 *
G04 Title: (unknown), topsilk *
G04 Creator: pcb 20140316 *
G04 CreationDate: Wed 15 Apr 2020 03:26:38 PM GMT UTC *
G04 For: railfan *
G04 Format: Gerber/RS-274X *
G04 PCB-Dimensions (mil): 1800.00 1500.00 *
G04 PCB-Coordinate-Origin: lower left *
%MOIN*%
%FSLAX25Y25*%
%LNTOPSILK*%
%ADD81C,0.0200*%
%ADD80C,0.0080*%
%ADD79C,0.0100*%
G54D79*X179500Y500D02*X500D01*
Y149500D01*
X179500D01*
Y500D01*
G54D80*X138848Y18925D02*X140848Y16925D01*
X138848D02*X140848Y18925D01*
X138848Y17925D02*X140848D01*
X139848Y18925D02*Y16925D01*
X4000Y68500D02*Y66500D01*
X3000Y67500D02*X5000D01*
X6000Y65300D02*X2000Y64300D01*
X6000Y63300D01*
Y48500D02*X5500Y48000D01*
X6000Y50000D02*Y48500D01*
X5500Y50500D02*X6000Y50000D01*
X2500Y50500D02*X5500D01*
X2500D02*X2000Y50000D01*
Y48500D01*
X2500Y48000D01*
X3500D01*
X4000Y48500D02*X3500Y48000D01*
X4000Y49500D02*Y48500D01*
X2000Y46800D02*X6000D01*
X2000Y44300D01*
X6000D01*
X2000Y42600D02*X6000D01*
Y41300D02*X5300Y40600D01*
X2700D02*X5300D01*
X2000Y41300D02*X2700Y40600D01*
X2000Y43100D02*Y41300D01*
X6000Y43100D02*Y41300D01*
X2000Y86500D02*X6000D01*
Y85200D02*X5300Y84500D01*
X2700D02*X5300D01*
X2000Y85200D02*X2700Y84500D01*
X2000Y87000D02*Y85200D01*
X6000Y87000D02*Y85200D01*
X2500Y108500D02*X5500Y105500D01*
X2000Y103800D02*X6000D01*
Y102500D02*X5300Y101800D01*
X2700D02*X5300D01*
X2000Y102500D02*X2700Y101800D01*
X2000Y104300D02*Y102500D01*
X6000Y104300D02*Y102500D01*
X40500Y146500D02*X41500D01*
X41000D02*Y142500D01*
X40500D02*X41500D01*
X42700Y144000D02*Y143000D01*
Y144000D02*X43200Y144500D01*
X44200D01*
X44700Y144000D01*
Y143000D01*
X44200Y142500D02*X44700Y143000D01*
X43200Y142500D02*X44200D01*
X42700Y143000D02*X43200Y142500D01*
X45900Y144500D02*Y143000D01*
X46400Y142500D01*
X46900D01*
X47400Y143000D01*
Y144500D02*Y143000D01*
X47900Y142500D01*
X48400D01*
X48900Y143000D01*
Y144500D02*Y143000D01*
X51600Y144500D02*X52100Y144000D01*
X50600Y144500D02*X51600D01*
X50100Y144000D02*X50600Y144500D01*
X50100Y144000D02*Y143000D01*
X50600Y142500D01*
X52100Y144500D02*Y143000D01*
X52600Y142500D01*
X50600D02*X51600D01*
X52100Y143000D01*
X57600Y146500D02*X58100Y146000D01*
X56100Y146500D02*X57600D01*
X55600Y146000D02*X56100Y146500D01*
X55600Y146000D02*Y145000D01*
X56100Y144500D01*
X57600D01*
X58100Y144000D01*
Y143000D01*
X57600Y142500D02*X58100Y143000D01*
X56100Y142500D02*X57600D01*
X55600Y143000D02*X56100Y142500D01*
X59800Y144500D02*X61300D01*
X59300Y144000D02*X59800Y144500D01*
X59300Y144000D02*Y143000D01*
X59800Y142500D01*
X61300D01*
X64000Y144500D02*X64500Y144000D01*
X63000Y144500D02*X64000D01*
X62500Y144000D02*X63000Y144500D01*
X62500Y144000D02*Y143000D01*
X63000Y142500D01*
X64500Y144500D02*Y143000D01*
X65000Y142500D01*
X63000D02*X64000D01*
X64500Y143000D01*
X66200Y146500D02*Y143000D01*
X66700Y142500D01*
X68200D02*X69700D01*
X67700Y143000D02*X68200Y142500D01*
X67700Y144000D02*Y143000D01*
Y144000D02*X68200Y144500D01*
X69200D01*
X69700Y144000D01*
X67700Y143500D02*X69700D01*
Y144000D02*Y143500D01*
X72900Y146500D02*Y142500D01*
X72400D02*X72900Y143000D01*
X71400Y142500D02*X72400D01*
X70900Y143000D02*X71400Y142500D01*
X70900Y144000D02*Y143000D01*
Y144000D02*X71400Y144500D01*
X72400D01*
X72900Y144000D01*
X40500Y138200D02*X42000D01*
X40500Y136000D02*X42500D01*
X40500Y140000D02*Y136000D01*
Y140000D02*X42500D01*
X44200Y137500D02*Y136000D01*
Y137500D02*X44700Y138000D01*
X45200D01*
X45700Y137500D01*
Y136000D01*
X43700Y138000D02*X44200Y137500D01*
X48400Y138000D02*X48900Y137500D01*
X47400Y138000D02*X48400D01*
X46900Y137500D02*X47400Y138000D01*
X46900Y137500D02*Y136500D01*
X47400Y136000D01*
X48400D01*
X48900Y136500D01*
X46900Y135000D02*X47400Y134500D01*
X48400D01*
X48900Y135000D01*
Y138000D02*Y135000D01*
X50100Y139000D02*Y138900D01*
Y137500D02*Y136000D01*
X51600Y137500D02*Y136000D01*
Y137500D02*X52100Y138000D01*
X52600D01*
X53100Y137500D01*
Y136000D01*
X51100Y138000D02*X51600Y137500D01*
X54800Y136000D02*X56300D01*
X54300Y136500D02*X54800Y136000D01*
X54300Y137500D02*Y136500D01*
Y137500D02*X54800Y138000D01*
X55800D01*
X56300Y137500D01*
X54300Y137000D02*X56300D01*
Y137500D02*Y137000D01*
X58000Y136000D02*X59500D01*
X57500Y136500D02*X58000Y136000D01*
X57500Y137500D02*Y136500D01*
Y137500D02*X58000Y138000D01*
X59000D01*
X59500Y137500D01*
X57500Y137000D02*X59500D01*
Y137500D02*Y137000D01*
X61200Y137500D02*Y136000D01*
Y137500D02*X61700Y138000D01*
X62700D01*
X60700D02*X61200Y137500D01*
X63900Y139000D02*Y138900D01*
Y137500D02*Y136000D01*
X65400Y137500D02*Y136000D01*
Y137500D02*X65900Y138000D01*
X66400D01*
X66900Y137500D01*
Y136000D01*
X64900Y138000D02*X65400Y137500D01*
X69600Y138000D02*X70100Y137500D01*
X68600Y138000D02*X69600D01*
X68100Y137500D02*X68600Y138000D01*
X68100Y137500D02*Y136500D01*
X68600Y136000D01*
X69600D01*
X70100Y136500D01*
X68100Y135000D02*X68600Y134500D01*
X69600D01*
X70100Y135000D01*
Y138000D02*Y135000D01*
X172500Y56000D02*X176500D01*
X172500Y57500D02*Y55500D01*
Y57500D02*X173000Y58000D01*
X174000D01*
X174500Y57500D02*X174000Y58000D01*
X174500Y57500D02*Y56000D01*
X172500Y59200D02*X174500D01*
X176500Y59700D01*
X174500Y60700D01*
X176500Y61700D01*
X174500Y62200D01*
X172500D02*X174500D01*
X172500Y65400D02*Y63400D01*
Y65400D02*X173000Y65900D01*
X174000D01*
X174500Y65400D02*X174000Y65900D01*
X174500Y65400D02*Y63900D01*
X172500D02*X176500D01*
X174500Y64700D02*X176500Y65900D01*
X172500Y31500D02*X176500D01*
X172500Y32800D02*X173200Y33500D01*
X175800D01*
X176500Y32800D02*X175800Y33500D01*
X176500Y32800D02*Y31000D01*
X172500Y32800D02*Y31000D01*
X174300Y36200D02*Y34700D01*
X176500Y36700D02*Y34700D01*
X172500D02*X176500D01*
X172500Y36700D02*Y34700D01*
Y39900D02*Y37900D01*
Y38900D02*X176500D01*
X174300Y42600D02*Y41100D01*
X176500Y43100D02*Y41100D01*
X172500D02*X176500D01*
X172500Y43100D02*Y41100D01*
X176500Y46300D02*Y45000D01*
X175800Y44300D02*X176500Y45000D01*
X173200Y44300D02*X175800D01*
X173200D02*X172500Y45000D01*
Y46300D02*Y45000D01*
Y49500D02*Y47500D01*
Y48500D02*X176500D01*
X159500Y48000D02*X161500D01*
X160500Y49000D02*Y47000D01*
X159500Y54500D02*X161500D01*
X160500Y55500D02*Y53500D01*
X101500Y5500D02*Y4000D01*
X102000Y3500D01*
X102500D01*
X103000Y4000D01*
Y5500D02*Y4000D01*
X103500Y3500D01*
X104000D01*
X104500Y4000D01*
Y5500D02*Y4000D01*
X105700Y5500D02*Y4000D01*
X106200Y3500D01*
X106700D01*
X107200Y4000D01*
Y5500D02*Y4000D01*
X107700Y3500D01*
X108200D01*
X108700Y4000D01*
Y5500D02*Y4000D01*
X109900Y5500D02*Y4000D01*
X110400Y3500D01*
X110900D01*
X111400Y4000D01*
Y5500D02*Y4000D01*
X111900Y3500D01*
X112400D01*
X112900Y4000D01*
Y5500D02*Y4000D01*
X114100Y3500D02*X114600D01*
X115800Y6500D02*Y6400D01*
Y5000D02*Y3500D01*
X118300Y5500D02*X118800Y5000D01*
X117300Y5500D02*X118300D01*
X116800Y5000D02*X117300Y5500D01*
X116800Y5000D02*Y4000D01*
X117300Y3500D01*
X118800Y5500D02*Y4000D01*
X119300Y3500D01*
X117300D02*X118300D01*
X118800Y4000D01*
X121000Y3500D02*X122500D01*
X123000Y4000D01*
X122500Y4500D02*X123000Y4000D01*
X121000Y4500D02*X122500D01*
X120500Y5000D02*X121000Y4500D01*
X120500Y5000D02*X121000Y5500D01*
X122500D01*
X123000Y5000D01*
X120500Y4000D02*X121000Y3500D01*
X124700Y5500D02*X126200D01*
X124200Y5000D02*X124700Y5500D01*
X124200Y5000D02*Y4000D01*
X124700Y3500D01*
X126200D01*
X128900Y5500D02*X129400Y5000D01*
X127900Y5500D02*X128900D01*
X127400Y5000D02*X127900Y5500D01*
X127400Y5000D02*Y4000D01*
X127900Y3500D01*
X129400Y5500D02*Y4000D01*
X129900Y3500D01*
X127900D02*X128900D01*
X129400Y4000D01*
X131100Y7500D02*Y4000D01*
X131600Y3500D01*
X133100D02*X134600D01*
X132600Y4000D02*X133100Y3500D01*
X132600Y5000D02*Y4000D01*
Y5000D02*X133100Y5500D01*
X134100D01*
X134600Y5000D01*
X132600Y4500D02*X134600D01*
Y5000D02*Y4500D01*
X137800Y7500D02*Y3500D01*
X137300D02*X137800Y4000D01*
X136300Y3500D02*X137300D01*
X135800Y4000D02*X136300Y3500D01*
X135800Y5000D02*Y4000D01*
Y5000D02*X136300Y5500D01*
X137300D01*
X137800Y5000D01*
X139000Y3500D02*X139500D01*
X141200Y5500D02*X142700D01*
X140700Y5000D02*X141200Y5500D01*
X140700Y5000D02*Y4000D01*
X141200Y3500D01*
X142700D01*
X143900Y5000D02*Y4000D01*
Y5000D02*X144400Y5500D01*
X145400D01*
X145900Y5000D01*
Y4000D01*
X145400Y3500D02*X145900Y4000D01*
X144400Y3500D02*X145400D01*
X143900Y4000D02*X144400Y3500D01*
X147600Y5000D02*Y3500D01*
Y5000D02*X148100Y5500D01*
X148600D01*
X149100Y5000D01*
Y3500D01*
Y5000D02*X149600Y5500D01*
X150100D01*
X150600Y5000D01*
Y3500D01*
X147100Y5500D02*X147600Y5000D01*
X142500Y94500D02*X144500Y92500D01*
X142500D02*X144500Y94500D01*
X142500Y93500D02*X144500D01*
X143500Y94500D02*Y92500D01*
X121500Y119500D02*X123500Y117500D01*
X121500D02*X123500Y119500D01*
X121500Y118500D02*X123500D01*
X122500Y119500D02*Y117500D01*
X98700Y142000D02*X100000D01*
X98000Y142700D02*X98700Y142000D01*
X98000Y145300D02*Y142700D01*
Y145300D02*X98700Y146000D01*
X100000D01*
X101200D02*Y142000D01*
Y144000D02*X103200Y146000D01*
X101200Y144000D02*X103200Y142000D01*
X104400Y146000D02*X106400D01*
X105400D02*Y142000D01*
X107600Y144000D02*X109600D01*
X110800Y142000D02*X112800D01*
X113300Y142500D01*
Y143700D02*Y142500D01*
X112800Y144200D02*X113300Y143700D01*
X111300Y144200D02*X112800D01*
X111300Y146000D02*Y142000D01*
X110800Y146000D02*X112800D01*
X113300Y145500D01*
Y144700D01*
X112800Y144200D02*X113300Y144700D01*
X115000Y146000D02*Y142000D01*
X116300Y146000D02*X117000Y145300D01*
Y142700D01*
X116300Y142000D02*X117000Y142700D01*
X114500Y142000D02*X116300D01*
X114500Y146000D02*X116300D01*
X118200Y145200D02*X119000Y146000D01*
Y142000D01*
X118200D02*X119700D01*
X122700Y144000D02*X123700Y142000D01*
X124700Y144000D02*X123700Y142000D01*
X125900Y145500D02*X126400Y146000D01*
X127400D01*
X127900Y145500D01*
X127400Y142000D02*X127900Y142500D01*
X126400Y142000D02*X127400D01*
X125900Y142500D02*X126400Y142000D01*
Y144200D02*X127400D01*
X127900Y145500D02*Y144700D01*
Y143700D02*Y142500D01*
Y143700D02*X127400Y144200D01*
X127900Y144700D02*X127400Y144200D01*
X129100Y142000D02*X129600D01*
X130800Y142500D02*X131300Y142000D01*
X130800Y145500D02*Y142500D01*
Y145500D02*X131300Y146000D01*
X132300D01*
X132800Y145500D01*
Y142500D01*
X132300Y142000D02*X132800Y142500D01*
X131300Y142000D02*X132300D01*
X130800Y143000D02*X132800Y145000D01*
X98700Y135500D02*X100000D01*
X98000Y136200D02*X98700Y135500D01*
X98000Y138800D02*Y136200D01*
Y138800D02*X98700Y139500D01*
X100000D01*
X101900Y135500D02*X103200D01*
X101200Y136200D02*X101900Y135500D01*
X101200Y138800D02*Y136200D01*
Y138800D02*X101900Y139500D01*
X103200D01*
X106200Y135500D02*X108200D01*
X108700Y136000D01*
Y137200D02*Y136000D01*
X108200Y137700D02*X108700Y137200D01*
X106700Y137700D02*X108200D01*
X106700Y139500D02*Y135500D01*
X106200Y139500D02*X108200D01*
X108700Y139000D01*
Y138200D01*
X108200Y137700D02*X108700Y138200D01*
X109900Y139500D02*X110900Y137500D01*
X111900Y139500D01*
X110900Y137500D02*Y135500D01*
X113100Y137500D02*X115100D01*
X118300Y139500D02*X118800Y139000D01*
X116800Y139500D02*X118300D01*
X116300Y139000D02*X116800Y139500D01*
X116300Y139000D02*Y138000D01*
X116800Y137500D01*
X118300D01*
X118800Y137000D01*
Y136000D01*
X118300Y135500D02*X118800Y136000D01*
X116800Y135500D02*X118300D01*
X116300Y136000D02*X116800Y135500D01*
X120000Y138500D02*Y135500D01*
Y138500D02*X120700Y139500D01*
X121800D01*
X122500Y138500D01*
Y135500D01*
X120000Y137500D02*X122500D01*
X125500Y136000D02*X126000Y135500D01*
X125500Y139000D02*X126000Y139500D01*
X125500Y139000D02*Y136000D01*
X127900Y135500D02*X129200D01*
X127200Y136200D02*X127900Y135500D01*
X127200Y138800D02*Y136200D01*
Y138800D02*X127900Y139500D01*
X129200D01*
X130400D02*X130900Y139000D01*
Y136000D01*
X130400Y135500D02*X130900Y136000D01*
X133900Y139000D02*X134400Y139500D01*
X135900D01*
X136400Y139000D01*
Y138000D01*
X133900Y135500D02*X136400Y138000D01*
X133900Y135500D02*X136400D01*
X137600Y136000D02*X138100Y135500D01*
X137600Y139000D02*Y136000D01*
Y139000D02*X138100Y139500D01*
X139100D01*
X139600Y139000D01*
Y136000D01*
X139100Y135500D02*X139600Y136000D01*
X138100Y135500D02*X139100D01*
X137600Y136500D02*X139600Y138500D01*
X140800Y139000D02*X141300Y139500D01*
X142800D01*
X143300Y139000D01*
Y138000D01*
X140800Y135500D02*X143300Y138000D01*
X140800Y135500D02*X143300D01*
X144500Y136000D02*X145000Y135500D01*
X144500Y139000D02*Y136000D01*
Y139000D02*X145000Y139500D01*
X146000D01*
X146500Y139000D01*
Y136000D01*
X146000Y135500D02*X146500Y136000D01*
X145000Y135500D02*X146000D01*
X144500Y136500D02*X146500Y138500D01*
X149000Y114000D02*X151000D01*
X150000Y115000D02*Y113000D01*
G54D79*X50500Y93250D02*X119500D01*
X50500Y131750D02*X119500D01*
Y93250D01*
X50500Y131750D02*Y93250D01*
X500Y114500D02*Y36500D01*
X45000Y114500D02*Y36500D01*
X500Y114500D02*X45000D01*
X500Y36500D02*X45000D01*
X7200Y115500D02*Y75500D01*
X37200Y115500D02*Y75500D01*
X32800Y115500D02*Y75500D01*
X7200Y115500D02*X37200D01*
X7200Y75500D02*X37200D01*
X7200D02*Y35500D01*
X37200Y75500D02*Y35500D01*
X32800Y75500D02*Y35500D01*
X7200Y75500D02*X37200D01*
X7200Y35500D02*X37200D01*
G54D81*X58500Y62000D02*Y42000D01*
X48500D02*X58500D01*
X48500Y62000D02*Y42000D01*
Y62000D02*X58500D01*
X53500Y72000D02*Y62000D01*
Y42000D02*Y32000D01*
X70000Y62000D02*Y42000D01*
X60000D02*X70000D01*
X60000Y62000D02*Y42000D01*
Y62000D02*X70000D01*
X65000Y72000D02*Y62000D01*
Y42000D02*Y32000D01*
G54D79*X73600Y71000D02*X87500D01*
X73600D02*Y59200D01*
X87500D01*
Y71000D02*Y59200D01*
X78750Y20901D02*Y10271D01*
X60250Y20901D02*Y10271D01*
X75500D02*X78750D01*
X60250D02*X63500D01*
X78571Y20901D02*X78750D01*
X60250D02*X60429D01*
X87255Y19393D02*Y18607D01*
X81745Y19393D02*Y18607D01*
X56755Y19393D02*Y18607D01*
X51245Y19393D02*Y18607D01*
X47800Y31000D02*Y10000D01*
X38200Y31000D02*Y10000D01*
X47800D01*
X38200Y31000D02*X47800D01*
X38200Y18000D02*X47800D01*
X136700Y37500D02*Y18500D01*
X105700Y37500D02*X136700D01*
X105700D02*Y18500D01*
X123700D02*X136700D01*
X105700D02*X118700D01*
X123700D02*G75*G03X118700Y18500I-2500J0D01*G01*
X141745Y34393D02*Y33607D01*
X147255Y34393D02*Y33607D01*
X123107Y14255D02*X123893D01*
X123107Y8745D02*X123893D01*
X163607Y38245D02*X164393D01*
X163607Y43755D02*X164393D01*
X130107Y121745D02*X130893D01*
X130107Y127255D02*X130893D01*
X123900Y116400D02*X137800D01*
X123900D02*Y104600D01*
X137800D01*
Y116400D02*Y104600D01*
X103701Y87890D02*X116299D01*
Y74110D01*
X103701D01*
Y87890D01*
X106245Y61893D02*Y61107D01*
X111755Y61893D02*Y61107D01*
X141201Y46610D02*X153799D01*
X141201Y60390D02*Y46610D01*
Y60390D02*X153799D01*
Y46610D01*
X130607Y52255D02*X131393D01*
X130607Y46745D02*X131393D01*
X163607Y58245D02*X164393D01*
X163607Y63755D02*X164393D01*
X122000Y96000D02*X141000D01*
X122000D02*Y65000D01*
X141000D01*
Y96000D02*Y83000D01*
Y78000D02*Y65000D01*
Y83000D02*G75*G03X141000Y78000I0J-2500D01*G01*
X145245Y74936D02*Y74150D01*
X150755Y74936D02*Y74150D01*
X142745Y104893D02*Y104107D01*
X148255Y104893D02*Y104107D01*
X176800Y101300D02*Y77700D01*
X153200Y101300D02*Y77700D01*
X176800D01*
X153200Y101300D02*X176800D01*
X173850Y99825D02*Y79175D01*
X156150Y99825D02*Y79175D01*
Y80650D02*X162050D01*
X167950D02*X173850D01*
X162050Y79175D02*X167950Y80650D01*
X171900Y89500D02*G75*G03X171900Y89500I-6900J0D01*G01*
G75*G03X158100Y89500I-6900J0D01*G01*
G54D80*X90000Y73030D02*Y69635D01*
X90485Y69150D01*
X91455D01*
X91940Y69635D01*
Y73030D02*Y69635D01*
X93104Y72545D02*X93589Y73030D01*
X95044D01*
X95529Y72545D01*
Y71575D01*
X93104Y69150D02*X95529Y71575D01*
X93104Y69150D02*X95529D01*
X118304Y62851D02*Y59351D01*
X118804Y58851D01*
X119804D01*
X120304Y59351D01*
Y62851D02*Y59351D01*
X121504Y60351D02*X123504Y62851D01*
X121504Y60351D02*X124004D01*
X123504Y62851D02*Y58851D01*
X97936Y60064D02*X99936D01*
X100436Y59564D01*
Y58564D01*
X99936Y58064D02*X100436Y58564D01*
X98436Y58064D02*X99936D01*
X98436Y60064D02*Y56064D01*
X99236Y58064D02*X100436Y56064D01*
X103136Y60064D02*X103636Y59564D01*
X102136Y60064D02*X103136D01*
X101636Y59564D02*X102136Y60064D01*
X101636Y59564D02*Y56564D01*
X102136Y56064D01*
X103136Y58264D02*X103636Y57764D01*
X101636Y58264D02*X103136D01*
X102136Y56064D02*X103136D01*
X103636Y56564D01*
Y57764D02*Y56564D01*
X148543Y44500D02*X150543D01*
X151043Y44000D01*
Y43000D01*
X150543Y42500D02*X151043Y43000D01*
X149043Y42500D02*X150543D01*
X149043Y44500D02*Y40500D01*
X149843Y42500D02*X151043Y40500D01*
X152243Y44000D02*X152743Y44500D01*
X154243D01*
X154743Y44000D01*
Y43000D01*
X152243Y40500D02*X154743Y43000D01*
X152243Y40500D02*X154743D01*
X143050Y21650D02*X144350D01*
X142350Y22350D02*X143050Y21650D01*
X142350Y24950D02*Y22350D01*
Y24950D02*X143050Y25650D01*
X144350D01*
X147050D02*X147550Y25150D01*
X146050Y25650D02*X147050D01*
X145550Y25150D02*X146050Y25650D01*
X145550Y25150D02*Y22150D01*
X146050Y21650D01*
X147050Y23850D02*X147550Y23350D01*
X145550Y23850D02*X147050D01*
X146050Y21650D02*X147050D01*
X147550Y22150D01*
Y23350D02*Y22150D01*
X109507Y9150D02*X110807D01*
X108807Y9850D02*X109507Y9150D01*
X108807Y12450D02*Y9850D01*
Y12450D02*X109507Y13150D01*
X110807D01*
X112507Y9150D02*X114507Y13150D01*
X112007D02*X114507D01*
X164264Y50150D02*Y46150D01*
X165564Y50150D02*X166264Y49450D01*
Y46850D01*
X165564Y46150D02*X166264Y46850D01*
X163764Y46150D02*X165564D01*
X163764Y50150D02*X165564D01*
X167464Y49650D02*X167964Y50150D01*
X169464D01*
X169964Y49650D01*
Y48650D01*
X167464Y46150D02*X169964Y48650D01*
X167464Y46150D02*X169964D01*
X117550Y47150D02*X118850D01*
X116850Y47850D02*X117550Y47150D01*
X116850Y50450D02*Y47850D01*
Y50450D02*X117550Y51150D01*
X118850D01*
X120050D02*X122050D01*
X120050D02*Y49150D01*
X120550Y49650D01*
X121550D01*
X122050Y49150D01*
Y47650D01*
X121550Y47150D02*X122050Y47650D01*
X120550Y47150D02*X121550D01*
X120050Y47650D02*X120550Y47150D01*
X51500Y91500D02*X53500D01*
X52500D02*Y87500D01*
X54700Y90700D02*X55500Y91500D01*
Y87500D01*
X54700D02*X56200D01*
X50500Y53500D02*X52500D01*
X53000Y53000D01*
Y52000D01*
X52500Y51500D02*X53000Y52000D01*
X51000Y51500D02*X52500D01*
X51000Y53500D02*Y49500D01*
X51800Y51500D02*X53000Y49500D01*
X54200Y50000D02*X54700Y49500D01*
X54200Y50800D02*Y50000D01*
Y50800D02*X54900Y51500D01*
X55500D01*
X56200Y50800D01*
Y50000D01*
X55700Y49500D02*X56200Y50000D01*
X54700Y49500D02*X55700D01*
X54200Y52200D02*X54900Y51500D01*
X54200Y53000D02*Y52200D01*
Y53000D02*X54700Y53500D01*
X55700D01*
X56200Y53000D01*
Y52200D01*
X55500Y51500D02*X56200Y52200D01*
X62000Y53500D02*X64000D01*
X64500Y53000D01*
Y52000D01*
X64000Y51500D02*X64500Y52000D01*
X62500Y51500D02*X64000D01*
X62500Y53500D02*Y49500D01*
X63300Y51500D02*X64500Y49500D01*
X66200D02*X67700Y51500D01*
Y53000D02*Y51500D01*
X67200Y53500D02*X67700Y53000D01*
X66200Y53500D02*X67200D01*
X65700Y53000D02*X66200Y53500D01*
X65700Y53000D02*Y52000D01*
X66200Y51500D01*
X67700D01*
X72301Y32595D02*Y29095D01*
X72801Y28595D01*
X73801D01*
X74301Y29095D01*
Y32595D02*Y29095D01*
X75501Y31795D02*X76301Y32595D01*
Y28595D01*
X75501D02*X77001D01*
X85050Y6150D02*X86350D01*
X84350Y6850D02*X85050Y6150D01*
X84350Y9450D02*Y6850D01*
Y9450D02*X85050Y10150D01*
X86350D01*
X87550Y9650D02*X88050Y10150D01*
X89550D01*
X90050Y9650D01*
Y8650D01*
X87550Y6150D02*X90050Y8650D01*
X87550Y6150D02*X90050D01*
X97800Y29500D02*Y26000D01*
X98300Y25500D01*
X99300D01*
X99800Y26000D01*
Y29500D02*Y26000D01*
X101000Y29000D02*X101500Y29500D01*
X102500D01*
X103000Y29000D01*
X102500Y25500D02*X103000Y26000D01*
X101500Y25500D02*X102500D01*
X101000Y26000D02*X101500Y25500D01*
Y27700D02*X102500D01*
X103000Y29000D02*Y28200D01*
Y27200D02*Y26000D01*
Y27200D02*X102500Y27700D01*
X103000Y28200D02*X102500Y27700D01*
X51593Y6107D02*X52893D01*
X50893Y6807D02*X51593Y6107D01*
X50893Y9407D02*Y6807D01*
Y9407D02*X51593Y10107D01*
X52893D01*
X54093Y9307D02*X54893Y10107D01*
Y6107D01*
X54093D02*X55593D01*
X40500Y7500D02*Y3500D01*
X41800Y7500D02*X42500Y6800D01*
Y4200D01*
X41800Y3500D02*X42500Y4200D01*
X40000Y3500D02*X41800D01*
X40000Y7500D02*X41800D01*
X43700Y6700D02*X44500Y7500D01*
Y3500D01*
X43700D02*X45200D01*
X73286Y49000D02*X74086D01*
Y45500D01*
X73586Y45000D02*X74086Y45500D01*
X73086Y45000D02*X73586D01*
X72586Y45500D02*X73086Y45000D01*
X72586Y46000D02*Y45500D01*
X75286Y46500D02*X77286Y49000D01*
X75286Y46500D02*X77786D01*
X77286Y49000D02*Y45000D01*
X94652Y86575D02*X96652D01*
X97152Y86075D01*
Y85075D01*
X96652Y84575D02*X97152Y85075D01*
X95152Y84575D02*X96652D01*
X95152Y86575D02*Y82575D01*
X95952Y84575D02*X97152Y82575D01*
X98352Y84075D02*X100352Y86575D01*
X98352Y84075D02*X100852D01*
X100352Y86575D02*Y82575D01*
X164436Y56650D02*Y52650D01*
X165736Y56650D02*X166436Y55950D01*
Y53350D01*
X165736Y52650D02*X166436Y53350D01*
X163936Y52650D02*X165736D01*
X163936Y56650D02*X165736D01*
X167636Y56150D02*X168136Y56650D01*
X169136D01*
X169636Y56150D01*
X169136Y52650D02*X169636Y53150D01*
X168136Y52650D02*X169136D01*
X167636Y53150D02*X168136Y52650D01*
Y54850D02*X169136D01*
X169636Y56150D02*Y55350D01*
Y54350D02*Y53150D01*
Y54350D02*X169136Y54850D01*
X169636Y55350D02*X169136Y54850D01*
X145964Y82150D02*X147264D01*
X145264Y82850D02*X145964Y82150D01*
X145264Y85450D02*Y82850D01*
Y85450D02*X145964Y86150D01*
X147264D01*
X148464Y83650D02*X150464Y86150D01*
X148464Y83650D02*X150964D01*
X150464Y86150D02*Y82150D01*
X138221Y127170D02*X140181D01*
X140671Y126680D01*
Y125700D01*
X140181Y125210D02*X140671Y125700D01*
X138711Y125210D02*X140181D01*
X138711Y127170D02*Y123250D01*
X139495Y125210D02*X140671Y123250D01*
X141847Y126680D02*X142337Y127170D01*
X143317D01*
X143807Y126680D01*
X143317Y123250D02*X143807Y123740D01*
X142337Y123250D02*X143317D01*
X141847Y123740D02*X142337Y123250D01*
Y125406D02*X143317D01*
X143807Y126680D02*Y125896D01*
Y124916D02*Y123740D01*
Y124916D02*X143317Y125406D01*
X143807Y125896D02*X143317Y125406D01*
X127700Y102600D02*Y98600D01*
X129000Y102600D02*X129700Y101900D01*
Y99300D01*
X129000Y98600D02*X129700Y99300D01*
X127200Y98600D02*X129000D01*
X127200Y102600D02*X129000D01*
X130900Y100100D02*X132900Y102600D01*
X130900Y100100D02*X133400D01*
X132900Y102600D02*Y98600D01*
X141307Y116650D02*Y112650D01*
X142607Y116650D02*X143307Y115950D01*
Y113350D01*
X142607Y112650D02*X143307Y113350D01*
X140807Y112650D02*X142607D01*
X140807Y116650D02*X142607D01*
X144507D02*X146507D01*
X144507D02*Y114650D01*
X145007Y115150D01*
X146007D01*
X146507Y114650D01*
Y113150D01*
X146007Y112650D02*X146507Y113150D01*
X145007Y112650D02*X146007D01*
X144507Y113150D02*X145007Y112650D01*
X162500Y109000D02*X163000Y108500D01*
X161000Y109000D02*X162500D01*
X160500Y108500D02*X161000Y109000D01*
X160500Y108500D02*Y107500D01*
X161000Y107000D01*
X162500D01*
X163000Y106500D01*
Y105500D01*
X162500Y105000D02*X163000Y105500D01*
X161000Y105000D02*X162500D01*
X160500Y105500D02*X161000Y105000D01*
X164200Y109000D02*Y107000D01*
X164700Y105000D01*
X165700Y107000D01*
X166700Y105000D01*
X167200Y107000D01*
Y109000D02*Y107000D01*
X168400Y108200D02*X169200Y109000D01*
Y105000D01*
X168400D02*X169900D01*
M02*
