G04 start of page 11 for group -4015 idx -4015 *
G04 Title: (unknown), toppaste *
G04 Creator: pcb 20140316 *
G04 CreationDate: Wed 15 Apr 2020 03:26:38 PM GMT UTC *
G04 For: railfan *
G04 Format: Gerber/RS-274X *
G04 PCB-Dimensions (mil): 1800.00 1500.00 *
G04 PCB-Coordinate-Origin: lower left *
%MOIN*%
%FSLAX25Y25*%
%LNTOPPASTE*%
%ADD90R,0.0550X0.0550*%
%ADD89R,0.0167X0.0167*%
%ADD88R,0.0200X0.0200*%
%ADD87R,0.0240X0.0240*%
%ADD86R,0.0512X0.0512*%
%ADD85C,0.0001*%
%ADD84R,0.0945X0.0945*%
%ADD83R,0.0378X0.0378*%
G54D83*X75406Y24405D02*Y20311D01*
X69500Y24405D02*Y12595D01*
G54D84*Y10861D02*Y8971D01*
G54D85*G36*
X71385Y18426D02*X74225Y15586D01*
X72805Y14166D01*
X69965Y17006D01*
X71385Y18426D01*
G37*
G36*
X64775Y15586D02*X67615Y18426D01*
X69035Y17006D01*
X66195Y14166D01*
X64775Y15586D01*
G37*
G54D83*X63594Y24405D02*Y20311D01*
G54D86*X53607Y22543D02*X54393D01*
X53607Y15457D02*X54393D01*
X84107Y22543D02*X84893D01*
X84107Y15457D02*X84893D01*
G54D87*X75700Y69000D02*X77300D01*
X75700Y65100D02*X77300D01*
X75700Y61200D02*X77300D01*
X83900D02*X85500D01*
X83900Y65100D02*X85500D01*
X83900Y69000D02*X85500D01*
G54D88*X128200Y20500D02*X134700D01*
X128200Y25500D02*X134700D01*
X128200Y30500D02*X134700D01*
X128200Y35500D02*X134700D01*
X107700D02*X114200D01*
X107700Y30500D02*X114200D01*
X107700Y25500D02*X114200D01*
X107700Y20500D02*X114200D01*
X139000Y94000D02*Y87500D01*
X134000Y94000D02*Y87500D01*
X129000Y94000D02*Y87500D01*
X124000Y94000D02*Y87500D01*
Y73500D02*Y67000D01*
X129000Y73500D02*Y67000D01*
X134000Y73500D02*Y67000D01*
X139000Y73500D02*Y67000D01*
G54D86*X147607Y71000D02*X148393D01*
X147607Y78086D02*X148393D01*
X134043Y124893D02*Y124107D01*
X126957Y124893D02*Y124107D01*
G54D87*X126000Y114400D02*X127600D01*
X126000Y110500D02*X127600D01*
X126000Y106600D02*X127600D01*
X134200D02*X135800D01*
X134200Y110500D02*X135800D01*
X134200Y114400D02*X135800D01*
G54D89*X105717Y85724D02*X107587D01*
X105717Y82575D02*X107587D01*
X105717Y79425D02*X107587D01*
X105717Y76276D02*X107587D01*
X112413D02*X114283D01*
X112413Y79425D02*X114283D01*
X112413Y82575D02*X114283D01*
X112413Y85724D02*X114283D01*
X149913Y48776D02*X151783D01*
X149913Y51925D02*X151783D01*
X149913Y55075D02*X151783D01*
X149913Y58224D02*X151783D01*
X143217D02*X145087D01*
X143217Y55075D02*X145087D01*
X143217Y51925D02*X145087D01*
X143217Y48776D02*X145087D01*
G54D86*X167543Y61393D02*Y60607D01*
X160457Y61393D02*Y60607D01*
X144107Y30457D02*X144893D01*
X144107Y37543D02*X144893D01*
X119957Y11893D02*Y11107D01*
X127043Y11893D02*Y11107D01*
X108607Y57957D02*X109393D01*
X108607Y65043D02*X109393D01*
G54D90*X42000Y27000D02*X44000D01*
X42000Y14000D02*X44000D01*
G54D86*X145107Y100957D02*X145893D01*
X145107Y108043D02*X145893D01*
X167543Y41393D02*Y40607D01*
X160457Y41393D02*Y40607D01*
G54D90*X156100Y72950D02*Y70150D01*
Y108850D02*Y106050D01*
X173900Y72950D02*Y70150D01*
Y108850D02*Y106050D01*
G54D86*X127457Y49893D02*Y49107D01*
X134543Y49893D02*Y49107D01*
M02*
