M48
INCH
T56C0.012
T55C0.038
T54C0.068
T53C0.060
T52C0.129
T51C0.048
%
T56
X005750Y000800
X005750Y000450
X006100Y001500
X006100Y001150
X006100Y000800
X006100Y000450
X007300Y007350
X007650Y007350
X007800Y001500
X007800Y001150
X007800Y000800
X007800Y000450
X008050Y004650
X008150Y000800
X008150Y000450
X008500Y005650
X008500Y005300
X008500Y003250
X009000Y004600
X009700Y001650
X009700Y000650
X009950Y003900
X010250Y004300
X011200Y004200
X011500Y004350
X011550Y009300
X011900Y009300
X011900Y008950
X012400Y004100
X012746Y004354
X012900Y006300
X013050Y003900
X013150Y004350
X013350Y001500
X013350Y001150
X013400Y003900
X013800Y005700
X013850Y007800
X013850Y003900
X013850Y003550
X013954Y002550
X014200Y007800
X014600Y006300
X015450Y009950
X015700Y005500
X016000Y009950
X016000Y008950
X016000Y007900
X016500Y007000
X016950Y003500
T55
X005350Y007200
X005350Y003200
X006500Y007200
X006500Y003200
T51
X002000Y010550
X002000Y008550
X002000Y006550
X002000Y004550
X006000Y011250
X011000Y011250
T53
X003100Y010670
X003100Y009110
X003100Y007550
X003100Y005990
X003100Y004430
T54
X008500Y013950
X008500Y008550
T52
X001700Y013300
X001700Y001700
X016300Y013300
X016300Y001700
M30
