G04 start of page 9 for group -4079 idx -4079 *
G04 Title: (unknown), topsilk *
G04 Creator: pcb 4.0.2 *
G04 CreationDate: Mon Nov 22 04:11:08 2021 UTC *
G04 For: ndholmes *
G04 Format: Gerber/RS-274X *
G04 PCB-Dimensions (mil): 2000.00 1500.00 *
G04 PCB-Coordinate-Origin: lower left *
%MOIN*%
%FSLAX25Y25*%
%LNTOPSILK*%
%ADD69C,0.0200*%
%ADD68C,0.0080*%
%ADD67C,0.0100*%
G54D67*X500Y149500D02*X199500D01*
Y500D01*
X500D01*
Y149500D01*
G54D68*X117000Y145500D02*Y144000D01*
X117500Y143500D01*
X118000D01*
X118500Y144000D01*
Y145500D02*Y144000D01*
X119000Y143500D01*
X119500D01*
X120000Y144000D01*
Y145500D02*Y144000D01*
X121200Y145500D02*Y144000D01*
X121700Y143500D01*
X122200D01*
X122700Y144000D01*
Y145500D02*Y144000D01*
X123200Y143500D01*
X123700D01*
X124200Y144000D01*
Y145500D02*Y144000D01*
X125400Y145500D02*Y144000D01*
X125900Y143500D01*
X126400D01*
X126900Y144000D01*
Y145500D02*Y144000D01*
X127400Y143500D01*
X127900D01*
X128400Y144000D01*
Y145500D02*Y144000D01*
X129600Y143500D02*X130100D01*
X131300Y146500D02*Y146400D01*
Y145000D02*Y143500D01*
X133800Y145500D02*X134300Y145000D01*
X132800Y145500D02*X133800D01*
X132300Y145000D02*X132800Y145500D01*
X132300Y145000D02*Y144000D01*
X132800Y143500D01*
X134300Y145500D02*Y144000D01*
X134800Y143500D01*
X132800D02*X133800D01*
X134300Y144000D01*
X136500Y143500D02*X138000D01*
X138500Y144000D01*
X138000Y144500D02*X138500Y144000D01*
X136500Y144500D02*X138000D01*
X136000Y145000D02*X136500Y144500D01*
X136000Y145000D02*X136500Y145500D01*
X138000D01*
X138500Y145000D01*
X136000Y144000D02*X136500Y143500D01*
X140200Y145500D02*X141700D01*
X139700Y145000D02*X140200Y145500D01*
X139700Y145000D02*Y144000D01*
X140200Y143500D01*
X141700D01*
X144400Y145500D02*X144900Y145000D01*
X143400Y145500D02*X144400D01*
X142900Y145000D02*X143400Y145500D01*
X142900Y145000D02*Y144000D01*
X143400Y143500D01*
X144900Y145500D02*Y144000D01*
X145400Y143500D01*
X143400D02*X144400D01*
X144900Y144000D01*
X146600Y147500D02*Y144000D01*
X147100Y143500D01*
X148600D02*X150100D01*
X148100Y144000D02*X148600Y143500D01*
X148100Y145000D02*Y144000D01*
Y145000D02*X148600Y145500D01*
X149600D01*
X150100Y145000D01*
X148100Y144500D02*X150100D01*
Y145000D02*Y144500D01*
X153300Y147500D02*Y143500D01*
X152800D02*X153300Y144000D01*
X151800Y143500D02*X152800D01*
X151300Y144000D02*X151800Y143500D01*
X151300Y145000D02*Y144000D01*
Y145000D02*X151800Y145500D01*
X152800D01*
X153300Y145000D01*
X154500Y143500D02*X155000D01*
X156700Y145500D02*X158200D01*
X156200Y145000D02*X156700Y145500D01*
X156200Y145000D02*Y144000D01*
X156700Y143500D01*
X158200D01*
X159400Y145000D02*Y144000D01*
Y145000D02*X159900Y145500D01*
X160900D01*
X161400Y145000D01*
Y144000D01*
X160900Y143500D02*X161400Y144000D01*
X159900Y143500D02*X160900D01*
X159400Y144000D02*X159900Y143500D01*
X163100Y145000D02*Y143500D01*
Y145000D02*X163600Y145500D01*
X164100D01*
X164600Y145000D01*
Y143500D01*
Y145000D02*X165100Y145500D01*
X165600D01*
X166100Y145000D01*
Y143500D01*
X162600Y145500D02*X163100Y145000D01*
X178500Y78000D02*X180500D01*
X179500Y79000D02*Y77000D01*
X178500Y103000D02*X180500D01*
X179500Y104000D02*Y102000D01*
X126700Y130000D02*X128000D01*
X126000Y130700D02*X126700Y130000D01*
X126000Y133300D02*Y130700D01*
Y133300D02*X126700Y134000D01*
X128000D01*
X129200D02*Y130000D01*
Y132000D02*X131200Y134000D01*
X129200Y132000D02*X131200Y130000D01*
X132400Y134000D02*X134400D01*
X133400D02*Y130000D01*
X135600Y132000D02*X137600D01*
X138800Y130000D02*X140800D01*
X141300Y130500D01*
Y131700D02*Y130500D01*
X140800Y132200D02*X141300Y131700D01*
X139300Y132200D02*X140800D01*
X139300Y134000D02*Y130000D01*
X138800Y134000D02*X140800D01*
X141300Y133500D01*
Y132700D01*
X140800Y132200D02*X141300Y132700D01*
X143000Y134000D02*Y130000D01*
X144300Y134000D02*X145000Y133300D01*
Y130700D01*
X144300Y130000D02*X145000Y130700D01*
X142500Y130000D02*X144300D01*
X142500Y134000D02*X144300D01*
X146200Y133200D02*X147000Y134000D01*
Y130000D01*
X146200D02*X147700D01*
X150700Y132000D02*X151700Y130000D01*
X152700Y132000D02*X151700Y130000D01*
X153900Y131500D02*X155900Y134000D01*
X153900Y131500D02*X156400D01*
X155900Y134000D02*Y130000D01*
X157600D02*X158100D01*
X159300Y130500D02*X159800Y130000D01*
X159300Y133500D02*Y130500D01*
Y133500D02*X159800Y134000D01*
X160800D01*
X161300Y133500D01*
Y130500D01*
X160800Y130000D02*X161300Y130500D01*
X159800Y130000D02*X160800D01*
X159300Y131000D02*X161300Y133000D01*
X162500D02*Y130000D01*
Y133000D02*X163200Y134000D01*
X164300D01*
X165000Y133000D01*
Y130000D01*
X162500Y132000D02*X165000D01*
X4000Y68500D02*Y66500D01*
X3000Y67500D02*X5000D01*
X6000Y65300D02*X2000Y64300D01*
X6000Y63300D01*
Y48500D02*X5500Y48000D01*
X6000Y50000D02*Y48500D01*
X5500Y50500D02*X6000Y50000D01*
X2500Y50500D02*X5500D01*
X2500D02*X2000Y50000D01*
Y48500D01*
X2500Y48000D01*
X3500D01*
X4000Y48500D02*X3500Y48000D01*
X4000Y49500D02*Y48500D01*
X2000Y46800D02*X6000D01*
X2000Y44300D01*
X6000D01*
X2000Y42600D02*X6000D01*
Y41300D02*X5300Y40600D01*
X2700D02*X5300D01*
X2000Y41300D02*X2700Y40600D01*
X2000Y43100D02*Y41300D01*
X6000Y43100D02*Y41300D01*
X2000Y86500D02*X6000D01*
Y85200D02*X5300Y84500D01*
X2700D02*X5300D01*
X2000Y85200D02*X2700Y84500D01*
X2000Y87000D02*Y85200D01*
X6000Y87000D02*Y85200D01*
X40500Y146500D02*X41500D01*
X41000D02*Y142500D01*
X40500D02*X41500D01*
X42700Y144000D02*Y143000D01*
Y144000D02*X43200Y144500D01*
X44200D01*
X44700Y144000D01*
Y143000D01*
X44200Y142500D02*X44700Y143000D01*
X43200Y142500D02*X44200D01*
X42700Y143000D02*X43200Y142500D01*
X45900Y144500D02*Y143000D01*
X46400Y142500D01*
X46900D01*
X47400Y143000D01*
Y144500D02*Y143000D01*
X47900Y142500D01*
X48400D01*
X48900Y143000D01*
Y144500D02*Y143000D01*
X51600Y144500D02*X52100Y144000D01*
X50600Y144500D02*X51600D01*
X50100Y144000D02*X50600Y144500D01*
X50100Y144000D02*Y143000D01*
X50600Y142500D01*
X52100Y144500D02*Y143000D01*
X52600Y142500D01*
X50600D02*X51600D01*
X52100Y143000D01*
X57600Y146500D02*X58100Y146000D01*
X56100Y146500D02*X57600D01*
X55600Y146000D02*X56100Y146500D01*
X55600Y146000D02*Y145000D01*
X56100Y144500D01*
X57600D01*
X58100Y144000D01*
Y143000D01*
X57600Y142500D02*X58100Y143000D01*
X56100Y142500D02*X57600D01*
X55600Y143000D02*X56100Y142500D01*
X59800Y144500D02*X61300D01*
X59300Y144000D02*X59800Y144500D01*
X59300Y144000D02*Y143000D01*
X59800Y142500D01*
X61300D01*
X64000Y144500D02*X64500Y144000D01*
X63000Y144500D02*X64000D01*
X62500Y144000D02*X63000Y144500D01*
X62500Y144000D02*Y143000D01*
X63000Y142500D01*
X64500Y144500D02*Y143000D01*
X65000Y142500D01*
X63000D02*X64000D01*
X64500Y143000D01*
X66200Y146500D02*Y143000D01*
X66700Y142500D01*
X68200D02*X69700D01*
X67700Y143000D02*X68200Y142500D01*
X67700Y144000D02*Y143000D01*
Y144000D02*X68200Y144500D01*
X69200D01*
X69700Y144000D01*
X67700Y143500D02*X69700D01*
Y144000D02*Y143500D01*
X72900Y146500D02*Y142500D01*
X72400D02*X72900Y143000D01*
X71400Y142500D02*X72400D01*
X70900Y143000D02*X71400Y142500D01*
X70900Y144000D02*Y143000D01*
Y144000D02*X71400Y144500D01*
X72400D01*
X72900Y144000D01*
X40500Y138200D02*X42000D01*
X40500Y136000D02*X42500D01*
X40500Y140000D02*Y136000D01*
Y140000D02*X42500D01*
X44200Y137500D02*Y136000D01*
Y137500D02*X44700Y138000D01*
X45200D01*
X45700Y137500D01*
Y136000D01*
X43700Y138000D02*X44200Y137500D01*
X48400Y138000D02*X48900Y137500D01*
X47400Y138000D02*X48400D01*
X46900Y137500D02*X47400Y138000D01*
X46900Y137500D02*Y136500D01*
X47400Y136000D01*
X48400D01*
X48900Y136500D01*
X46900Y135000D02*X47400Y134500D01*
X48400D01*
X48900Y135000D01*
Y138000D02*Y135000D01*
X50100Y139000D02*Y138900D01*
Y137500D02*Y136000D01*
X51600Y137500D02*Y136000D01*
Y137500D02*X52100Y138000D01*
X52600D01*
X53100Y137500D01*
Y136000D01*
X51100Y138000D02*X51600Y137500D01*
X54800Y136000D02*X56300D01*
X54300Y136500D02*X54800Y136000D01*
X54300Y137500D02*Y136500D01*
Y137500D02*X54800Y138000D01*
X55800D01*
X56300Y137500D01*
X54300Y137000D02*X56300D01*
Y137500D02*Y137000D01*
X58000Y136000D02*X59500D01*
X57500Y136500D02*X58000Y136000D01*
X57500Y137500D02*Y136500D01*
Y137500D02*X58000Y138000D01*
X59000D01*
X59500Y137500D01*
X57500Y137000D02*X59500D01*
Y137500D02*Y137000D01*
X61200Y137500D02*Y136000D01*
Y137500D02*X61700Y138000D01*
X62700D01*
X60700D02*X61200Y137500D01*
X63900Y139000D02*Y138900D01*
Y137500D02*Y136000D01*
X65400Y137500D02*Y136000D01*
Y137500D02*X65900Y138000D01*
X66400D01*
X66900Y137500D01*
Y136000D01*
X64900Y138000D02*X65400Y137500D01*
X69600Y138000D02*X70100Y137500D01*
X68600Y138000D02*X69600D01*
X68100Y137500D02*X68600Y138000D01*
X68100Y137500D02*Y136500D01*
X68600Y136000D01*
X69600D01*
X70100Y136500D01*
X68100Y135000D02*X68600Y134500D01*
X69600D01*
X70100Y135000D01*
Y138000D02*Y135000D01*
X2500Y108500D02*X5500Y105500D01*
X2000Y103800D02*X6000D01*
Y102500D02*X5300Y101800D01*
X2700D02*X5300D01*
X2000Y102500D02*X2700Y101800D01*
X2000Y104300D02*Y102500D01*
X6000Y104300D02*Y102500D01*
X196000Y93000D02*Y91700D01*
X195300Y91000D02*X196000Y91700D01*
X192700Y91000D02*X195300D01*
X192700D02*X192000Y91700D01*
Y93000D02*Y91700D01*
X193000Y94200D02*X196000D01*
X193000D02*X192000Y94900D01*
Y96000D02*Y94900D01*
Y96000D02*X193000Y96700D01*
X196000D01*
X194000D02*Y94200D01*
X192000Y97900D02*X196000D01*
Y99900D02*Y97900D01*
X192000Y36000D02*X196000D01*
X192000Y37300D02*X192700Y38000D01*
X195300D01*
X196000Y37300D02*X195300Y38000D01*
X196000Y37300D02*Y35500D01*
X192000Y37300D02*Y35500D01*
X193800Y40700D02*Y39200D01*
X196000Y41200D02*Y39200D01*
X192000D02*X196000D01*
X192000Y41200D02*Y39200D01*
Y44400D02*Y42400D01*
Y43400D02*X196000D01*
X193800Y47100D02*Y45600D01*
X196000Y47600D02*Y45600D01*
X192000D02*X196000D01*
X192000Y47600D02*Y45600D01*
X196000Y50800D02*Y49500D01*
X195300Y48800D02*X196000Y49500D01*
X192700Y48800D02*X195300D01*
X192700D02*X192000Y49500D01*
Y50800D02*Y49500D01*
Y54000D02*Y52000D01*
Y53000D02*X196000D01*
X192000Y65500D02*X196000D01*
X192000Y67000D02*Y65000D01*
Y67000D02*X192500Y67500D01*
X193500D01*
X194000Y67000D02*X193500Y67500D01*
X194000Y67000D02*Y65500D01*
X192000Y68700D02*X194000D01*
X196000Y69200D01*
X194000Y70200D01*
X196000Y71200D01*
X194000Y71700D01*
X192000D02*X194000D01*
X192000Y74900D02*Y72900D01*
Y74900D02*X192500Y75400D01*
X193500D01*
X194000Y74900D02*X193500Y75400D01*
X194000Y74900D02*Y73400D01*
X192000D02*X196000D01*
X194000Y74200D02*X196000Y75400D01*
X117200Y136500D02*X118500D01*
X116500Y137200D02*X117200Y136500D01*
X116500Y139800D02*Y137200D01*
Y139800D02*X117200Y140500D01*
X118500D01*
X120400Y136500D02*X121700D01*
X119700Y137200D02*X120400Y136500D01*
X119700Y139800D02*Y137200D01*
Y139800D02*X120400Y140500D01*
X121700D01*
X124700Y136500D02*X126700D01*
X127200Y137000D01*
Y138200D02*Y137000D01*
X126700Y138700D02*X127200Y138200D01*
X125200Y138700D02*X126700D01*
X125200Y140500D02*Y136500D01*
X124700Y140500D02*X126700D01*
X127200Y140000D01*
Y139200D01*
X126700Y138700D02*X127200Y139200D01*
X128400Y140500D02*X129400Y138500D01*
X130400Y140500D01*
X129400Y138500D02*Y136500D01*
X131600Y138500D02*X133600D01*
X136800Y140500D02*X137300Y140000D01*
X135300Y140500D02*X136800D01*
X134800Y140000D02*X135300Y140500D01*
X134800Y140000D02*Y139000D01*
X135300Y138500D01*
X136800D01*
X137300Y138000D01*
Y137000D01*
X136800Y136500D02*X137300Y137000D01*
X135300Y136500D02*X136800D01*
X134800Y137000D02*X135300Y136500D01*
X138500Y139500D02*Y136500D01*
Y139500D02*X139200Y140500D01*
X140300D01*
X141000Y139500D01*
Y136500D01*
X138500Y138500D02*X141000D01*
X144000Y137000D02*X144500Y136500D01*
X144000Y140000D02*X144500Y140500D01*
X144000Y140000D02*Y137000D01*
X146400Y136500D02*X147700D01*
X145700Y137200D02*X146400Y136500D01*
X145700Y139800D02*Y137200D01*
Y139800D02*X146400Y140500D01*
X147700D01*
X148900D02*X149400Y140000D01*
Y137000D01*
X148900Y136500D02*X149400Y137000D01*
X152400Y140000D02*X152900Y140500D01*
X154400D01*
X154900Y140000D01*
Y139000D01*
X152400Y136500D02*X154900Y139000D01*
X152400Y136500D02*X154900D01*
X156100Y137000D02*X156600Y136500D01*
X156100Y140000D02*Y137000D01*
Y140000D02*X156600Y140500D01*
X157600D01*
X158100Y140000D01*
Y137000D01*
X157600Y136500D02*X158100Y137000D01*
X156600Y136500D02*X157600D01*
X156100Y137500D02*X158100Y139500D01*
X159300Y140000D02*X159800Y140500D01*
X161300D01*
X161800Y140000D01*
Y139000D01*
X159300Y136500D02*X161800Y139000D01*
X159300Y136500D02*X161800D01*
X163000Y140000D02*X163500Y140500D01*
X165000D01*
X165500Y140000D01*
Y139000D01*
X163000Y136500D02*X165500Y139000D01*
X163000Y136500D02*X165500D01*
X179000Y53000D02*X181000D01*
X180000Y54000D02*Y52000D01*
X157500Y65500D02*X159500D01*
X158500Y66500D02*Y64500D01*
X158348Y14425D02*X160348Y12425D01*
X158348D02*X160348Y14425D01*
X158348Y13425D02*X160348D01*
X159348Y14425D02*Y12425D01*
G54D67*X500Y114500D02*Y36500D01*
X45000Y114500D02*Y36500D01*
X500Y114500D02*X45000D01*
X500Y36500D02*X45000D01*
X7200Y115500D02*Y75500D01*
X37200Y115500D02*Y75500D01*
X32800Y115500D02*Y75500D01*
X7200Y115500D02*X37200D01*
X7200Y75500D02*X37200D01*
X7200D02*Y35500D01*
X37200Y75500D02*Y35500D01*
X32800Y75500D02*Y35500D01*
X7200Y75500D02*X37200D01*
X7200Y35500D02*X37200D01*
X93100Y71500D02*X107000D01*
X93100D02*Y59700D01*
X107000D01*
Y71500D02*Y59700D01*
G54D69*X72500Y62500D02*Y42500D01*
X62500D02*X72500D01*
X62500Y62500D02*Y42500D01*
Y62500D02*X72500D01*
X67500Y72500D02*Y62500D01*
Y42500D02*Y32500D01*
X60500Y62500D02*Y42500D01*
X50500D02*X60500D01*
X50500Y62500D02*Y42500D01*
Y62500D02*X60500D01*
X55500Y72500D02*Y62500D01*
Y42500D02*Y32500D01*
G54D67*X50500Y93250D02*X119500D01*
X50500Y131750D02*X119500D01*
Y93250D01*
X50500Y131750D02*Y93250D01*
X181745Y95893D02*Y95107D01*
X187255Y95893D02*Y95107D01*
X156500Y34500D02*Y15500D01*
X119500Y34500D02*X156500D01*
X119500D02*Y15500D01*
X140500D02*X156500D01*
X119500D02*X135500D01*
X140500D02*G75*G03X135500Y15500I-2500J0D01*G01*
X142607Y43755D02*X143393D01*
X142607Y38245D02*X143393D01*
X161245Y34893D02*Y34107D01*
X166755Y34893D02*Y34107D01*
X160701Y47110D02*X173299D01*
X160701Y60890D02*Y47110D01*
Y60890D02*X173299D01*
Y47110D01*
X181245Y70893D02*Y70107D01*
X186755Y70893D02*Y70107D01*
X181745Y45893D02*Y45107D01*
X187255Y45893D02*Y45107D01*
X121600Y59500D02*X135500D01*
X121600D02*Y47700D01*
X135500D01*
Y59500D02*Y47700D01*
X128107Y76255D02*X128893D01*
X128107Y70745D02*X128893D01*
X128107Y62245D02*X128893D01*
X128107Y67755D02*X128893D01*
X149107D02*X149893D01*
X149107Y62245D02*X149893D01*
X121600Y91500D02*X135500D01*
X121600D02*Y78700D01*
X135500D01*
Y91500D02*Y78700D01*
X149107Y53245D02*X149893D01*
X149107Y58755D02*X149893D01*
X86300Y55500D02*Y34500D01*
X76700Y55500D02*Y34500D01*
X86300D01*
X76700Y55500D02*X86300D01*
X76700Y42500D02*X86300D01*
X106755Y19893D02*Y19107D01*
X101245Y19893D02*Y19107D01*
X76255Y19893D02*Y19107D01*
X70745Y19893D02*Y19107D01*
X98250Y21401D02*Y10771D01*
X79750Y21401D02*Y10771D01*
X95000D02*X98250D01*
X79750D02*X83000D01*
X98071Y21401D02*X98250D01*
X79750D02*X79929D01*
X163800Y111300D02*Y87700D01*
X140200Y111300D02*Y87700D01*
X163800D01*
X140200Y111300D02*X163800D01*
X160850Y109825D02*Y89175D01*
X143150Y109825D02*Y89175D01*
Y90650D02*X149050D01*
X154950D02*X160850D01*
X149050Y89175D02*X154950Y90650D01*
X158900Y99500D02*G75*G03X158900Y99500I-6900J0D01*G01*
G75*G03X145100Y99500I-6900J0D01*G01*
G54D68*X51500Y91500D02*X53500D01*
X52500D02*Y87500D01*
X54700Y90700D02*X55500Y91500D01*
Y87500D01*
X54700D02*X56200D01*
X52500Y54000D02*X54500D01*
X55000Y53500D01*
Y52500D01*
X54500Y52000D02*X55000Y52500D01*
X53000Y52000D02*X54500D01*
X53000Y54000D02*Y50000D01*
X53800Y52000D02*X55000Y50000D01*
X56200Y50500D02*X56700Y50000D01*
X56200Y51300D02*Y50500D01*
Y51300D02*X56900Y52000D01*
X57500D01*
X58200Y51300D01*
Y50500D01*
X57700Y50000D02*X58200Y50500D01*
X56700Y50000D02*X57700D01*
X56200Y52700D02*X56900Y52000D01*
X56200Y53500D02*Y52700D01*
Y53500D02*X56700Y54000D01*
X57700D01*
X58200Y53500D01*
Y52700D01*
X57500Y52000D02*X58200Y52700D01*
X113964Y63107D02*X115264D01*
X113264Y63807D02*X113964Y63107D01*
X113264Y66407D02*Y63807D01*
Y66407D02*X113964Y67107D01*
X115264D01*
X116464Y64607D02*X118464Y67107D01*
X116464Y64607D02*X118964D01*
X118464Y67107D02*Y63107D01*
X92786Y49500D02*X93586D01*
Y46000D01*
X93086Y45500D02*X93586Y46000D01*
X92586Y45500D02*X93086D01*
X92086Y46000D02*X92586Y45500D01*
X92086Y46500D02*Y46000D01*
X94786Y47000D02*X96786Y49500D01*
X94786Y47000D02*X97286D01*
X96786Y49500D02*Y45500D01*
X79000Y32000D02*Y28000D01*
X80300Y32000D02*X81000Y31300D01*
Y28700D01*
X80300Y28000D02*X81000Y28700D01*
X78500Y28000D02*X80300D01*
X78500Y32000D02*X80300D01*
X82200Y31200D02*X83000Y32000D01*
Y28000D01*
X82200D02*X83700D01*
X93500Y58030D02*Y54635D01*
X93985Y54150D01*
X94955D01*
X95440Y54635D01*
Y58030D02*Y54635D01*
X96604Y57545D02*X97089Y58030D01*
X98544D01*
X99029Y57545D01*
Y56575D01*
X96604Y54150D02*X99029Y56575D01*
X96604Y54150D02*X99029D01*
X91801Y33095D02*Y29595D01*
X92301Y29095D01*
X93301D01*
X93801Y29595D01*
Y33095D02*Y29595D01*
X95001Y32295D02*X95801Y33095D01*
Y29095D01*
X95001D02*X96501D01*
X114000Y53500D02*Y50000D01*
X114500Y49500D01*
X115500D01*
X116000Y50000D01*
Y53500D02*Y50000D01*
X117200Y51000D02*X119200Y53500D01*
X117200Y51000D02*X119700D01*
X119200Y53500D02*Y49500D01*
X113721Y79170D02*X115681D01*
X116171Y78680D01*
Y77700D01*
X115681Y77210D02*X116171Y77700D01*
X114211Y77210D02*X115681D01*
X114211Y79170D02*Y75250D01*
X114995Y77210D02*X116171Y75250D01*
X117347Y78680D02*X117837Y79170D01*
X118817D01*
X119307Y78680D01*
X118817Y75250D02*X119307Y75740D01*
X117837Y75250D02*X118817D01*
X117347Y75740D02*X117837Y75250D01*
Y77406D02*X118817D01*
X119307Y78680D02*Y77896D01*
Y76916D02*Y75740D01*
Y76916D02*X118817Y77406D01*
X119307Y77896D02*X118817Y77406D01*
X130007Y39150D02*X131307D01*
X129307Y39850D02*X130007Y39150D01*
X129307Y42450D02*Y39850D01*
Y42450D02*X130007Y43150D01*
X131307D01*
X133007Y39150D02*X135007Y43150D01*
X132507D02*X135007D01*
X71093Y6607D02*X72393D01*
X70393Y7307D02*X71093Y6607D01*
X70393Y9907D02*Y7307D01*
Y9907D02*X71093Y10607D01*
X72393D01*
X73593Y9807D02*X74393Y10607D01*
Y6607D01*
X73593D02*X75093D01*
X64500Y54000D02*X66500D01*
X67000Y53500D01*
Y52500D01*
X66500Y52000D02*X67000Y52500D01*
X65000Y52000D02*X66500D01*
X65000Y54000D02*Y50000D01*
X65800Y52000D02*X67000Y50000D01*
X68700D02*X70200Y52000D01*
Y53500D02*Y52000D01*
X69700Y54000D02*X70200Y53500D01*
X68700Y54000D02*X69700D01*
X68200Y53500D02*X68700Y54000D01*
X68200Y53500D02*Y52500D01*
X68700Y52000D01*
X70200D01*
X41724Y31256D02*X42524D01*
Y27756D01*
X42024Y27256D02*X42524Y27756D01*
X41524Y27256D02*X42024D01*
X41024Y27756D02*X41524Y27256D01*
X41024Y28256D02*Y27756D01*
X43724Y30456D02*X44524Y31256D01*
Y27256D01*
X43724D02*X45224D01*
X46424D02*X48424D01*
X48924Y27756D01*
Y28956D02*Y27756D01*
X48424Y29456D02*X48924Y28956D01*
X46924Y29456D02*X48424D01*
X46924Y31256D02*Y27256D01*
X46424Y31256D02*X48424D01*
X48924Y30756D01*
Y29956D01*
X48424Y29456D02*X48924Y29956D01*
X174436Y69650D02*Y65650D01*
X175736Y69650D02*X176436Y68950D01*
Y66350D01*
X175736Y65650D02*X176436Y66350D01*
X173936Y65650D02*X175736D01*
X173936Y69650D02*X175736D01*
X177636Y69150D02*X178136Y69650D01*
X179136D01*
X179636Y69150D01*
X179136Y65650D02*X179636Y66150D01*
X178136Y65650D02*X179136D01*
X177636Y66150D02*X178136Y65650D01*
Y67850D02*X179136D01*
X179636Y69150D02*Y68350D01*
Y67350D02*Y66150D01*
Y67350D02*X179136Y67850D01*
X179636Y68350D02*X179136Y67850D01*
X144500Y74000D02*X146500D01*
X147000Y73500D01*
Y72500D01*
X146500Y72000D02*X147000Y72500D01*
X145000Y72000D02*X146500D01*
X145000Y74000D02*Y70000D01*
X145800Y72000D02*X147000Y70000D01*
X148200Y73200D02*X149000Y74000D01*
Y70000D01*
X148200D02*X149700D01*
X145200Y47500D02*X146500D01*
X144500Y48200D02*X145200Y47500D01*
X144500Y50800D02*Y48200D01*
Y50800D02*X145200Y51500D01*
X146500D01*
X147700D02*X149700D01*
X147700D02*Y49500D01*
X148200Y50000D01*
X149200D01*
X149700Y49500D01*
Y48000D01*
X149200Y47500D02*X149700Y48000D01*
X148200Y47500D02*X149200D01*
X147700Y48000D02*X148200Y47500D01*
X163500Y66500D02*X165500D01*
X166000Y66000D01*
Y65000D01*
X165500Y64500D02*X166000Y65000D01*
X164000Y64500D02*X165500D01*
X164000Y66500D02*Y62500D01*
X164800Y64500D02*X166000Y62500D01*
X167200Y66000D02*X167700Y66500D01*
X169200D01*
X169700Y66000D01*
Y65000D01*
X167200Y62500D02*X169700Y65000D01*
X167200Y62500D02*X169700D01*
X174307Y95150D02*Y91150D01*
X175607Y95150D02*X176307Y94450D01*
Y91850D01*
X175607Y91150D02*X176307Y91850D01*
X173807Y91150D02*X175607D01*
X173807Y95150D02*X175607D01*
X177507D02*X179507D01*
X177507D02*Y93150D01*
X178007Y93650D01*
X179007D01*
X179507Y93150D01*
Y91650D01*
X179007Y91150D02*X179507Y91650D01*
X178007Y91150D02*X179007D01*
X177507Y91650D02*X178007Y91150D01*
X174264Y44650D02*Y40650D01*
X175564Y44650D02*X176264Y43950D01*
Y41350D01*
X175564Y40650D02*X176264Y41350D01*
X173764Y40650D02*X175564D01*
X173764Y44650D02*X175564D01*
X177464Y44150D02*X177964Y44650D01*
X179464D01*
X179964Y44150D01*
Y43150D01*
X177464Y40650D02*X179964Y43150D01*
X177464Y40650D02*X179964D01*
X169200Y33000D02*X170500D01*
X168500Y33700D02*X169200Y33000D01*
X168500Y36300D02*Y33700D01*
Y36300D02*X169200Y37000D01*
X170500D01*
X173200D02*X173700Y36500D01*
X172200Y37000D02*X173200D01*
X171700Y36500D02*X172200Y37000D01*
X171700Y36500D02*Y33500D01*
X172200Y33000D01*
X173200Y35200D02*X173700Y34700D01*
X171700Y35200D02*X173200D01*
X172200Y33000D02*X173200D01*
X173700Y33500D01*
Y34700D02*Y33500D01*
X150000Y14000D02*Y10500D01*
X150500Y10000D01*
X151500D01*
X152000Y10500D01*
Y14000D02*Y10500D01*
X153200Y13500D02*X153700Y14000D01*
X154700D01*
X155200Y13500D01*
X154700Y10000D02*X155200Y10500D01*
X153700Y10000D02*X154700D01*
X153200Y10500D02*X153700Y10000D01*
Y12200D02*X154700D01*
X155200Y13500D02*Y12700D01*
Y11700D02*Y10500D01*
Y11700D02*X154700Y12200D01*
X155200Y12700D02*X154700Y12200D01*
X126500Y98000D02*Y94000D01*
X127800Y98000D02*X128500Y97300D01*
Y94700D01*
X127800Y94000D02*X128500Y94700D01*
X126000Y94000D02*X127800D01*
X126000Y98000D02*X127800D01*
X129700Y95500D02*X131700Y98000D01*
X129700Y95500D02*X132200D01*
X131700Y98000D02*Y94000D01*
X149500Y119000D02*X150000Y118500D01*
X148000Y119000D02*X149500D01*
X147500Y118500D02*X148000Y119000D01*
X147500Y118500D02*Y117500D01*
X148000Y117000D01*
X149500D01*
X150000Y116500D01*
Y115500D01*
X149500Y115000D02*X150000Y115500D01*
X148000Y115000D02*X149500D01*
X147500Y115500D02*X148000Y115000D01*
X151200Y119000D02*Y117000D01*
X151700Y115000D01*
X152700Y117000D01*
X153700Y115000D01*
X154200Y117000D01*
Y119000D02*Y117000D01*
X155400Y118200D02*X156200Y119000D01*
Y115000D01*
X155400D02*X156900D01*
X104550Y6650D02*X105850D01*
X103850Y7350D02*X104550Y6650D01*
X103850Y9950D02*Y7350D01*
Y9950D02*X104550Y10650D01*
X105850D01*
X107050Y10150D02*X107550Y10650D01*
X109050D01*
X109550Y10150D01*
Y9150D01*
X107050Y6650D02*X109550Y9150D01*
X107050Y6650D02*X109550D01*
M02*
