G04 start of page 7 for group -4063 idx -4063 *
G04 Title: (unknown), componentmask *
G04 Creator: pcb 4.0.2 *
G04 CreationDate: Mon Nov 22 04:11:08 2021 UTC *
G04 For: ndholmes *
G04 Format: Gerber/RS-274X *
G04 PCB-Dimensions (mil): 2000.00 1500.00 *
G04 PCB-Coordinate-Origin: lower left *
%MOIN*%
%FSLAX25Y25*%
%LNTOPMASK*%
%ADD59C,0.0370*%
%ADD58C,0.0740*%
%ADD57C,0.0860*%
%ADD56C,0.1260*%
%ADD55C,0.0490*%
%ADD54C,0.1200*%
%ADD53C,0.2997*%
%ADD52C,0.0001*%
G54D52*G36*
X105700Y116800D02*Y108200D01*
X114300D01*
Y116800D01*
X105700D01*
G37*
G54D53*X183000Y133000D03*
G54D54*X85000Y139500D03*
G54D55*X94500Y39500D03*
X114500Y43500D03*
Y35500D03*
G54D53*X183000Y17000D03*
G54D56*X31000Y75500D03*
Y59900D03*
Y44300D03*
G54D52*G36*
X24700Y113000D02*Y100400D01*
X37300D01*
Y113000D01*
X24700D01*
G37*
G54D56*X31000Y91100D03*
G54D52*G36*
X15700Y109800D02*Y101200D01*
X24300D01*
Y109800D01*
X15700D01*
G37*
G54D57*X20000Y85500D03*
G54D53*X17000Y133000D03*
G54D52*G36*
X15700Y69800D02*Y61200D01*
X24300D01*
Y69800D01*
X15700D01*
G37*
G54D57*X20000Y45500D03*
G54D53*X17000Y17000D03*
G54D58*X67500Y32500D03*
X55500D03*
G54D57*X60000Y112500D03*
G54D54*X85000Y85500D03*
G54D52*G36*
X63800Y76200D02*Y68800D01*
X71200D01*
Y76200D01*
X63800D01*
G37*
G36*
X51800D02*Y68800D01*
X59200D01*
Y76200D01*
X51800D01*
G37*
G36*
X180748Y69816D02*Y64098D01*
X187252D01*
Y69816D01*
X180748D01*
G37*
G36*
Y76902D02*Y71184D01*
X187252D01*
Y76902D01*
X180748D01*
G37*
G36*
X181248Y94816D02*Y89098D01*
X187752D01*
Y94816D01*
X181248D01*
G37*
G36*
Y101902D02*Y96184D01*
X187752D01*
Y101902D01*
X181248D01*
G37*
G36*
Y44816D02*Y39098D01*
X187752D01*
Y44816D01*
X181248D01*
G37*
G36*
Y51902D02*Y46184D01*
X187752D01*
Y51902D01*
X181248D01*
G37*
G36*
X168276Y50412D02*Y48140D01*
X172420D01*
Y50412D01*
X168276D01*
G37*
G36*
Y53562D02*Y51288D01*
X172420D01*
Y53562D01*
X168276D01*
G37*
G36*
Y56712D02*Y54438D01*
X172420D01*
Y56712D01*
X168276D01*
G37*
G36*
Y59860D02*Y57588D01*
X172420D01*
Y59860D01*
X168276D01*
G37*
G36*
X122200Y59000D02*Y56000D01*
X126800D01*
Y59000D01*
X122200D01*
G37*
G36*
Y51200D02*Y48200D01*
X126800D01*
Y51200D01*
X122200D01*
G37*
G36*
X130400D02*Y48200D01*
X135000D01*
Y51200D01*
X130400D01*
G37*
G36*
Y55100D02*Y52100D01*
X135000D01*
Y55100D01*
X130400D01*
G37*
G36*
Y59000D02*Y56000D01*
X135000D01*
Y59000D01*
X130400D01*
G37*
G36*
X127816Y76752D02*X122098D01*
Y70248D01*
X127816D01*
Y76752D01*
G37*
G36*
X122200Y91000D02*Y87000D01*
X126800D01*
Y91000D01*
X122200D01*
G37*
G36*
Y83200D02*Y79200D01*
X126800D01*
Y83200D01*
X122200D01*
G37*
G36*
X134902Y76752D02*X129184D01*
Y70248D01*
X134902D01*
Y76752D01*
G37*
G36*
X130400Y87100D02*Y83100D01*
X135000D01*
Y87100D01*
X130400D01*
G37*
G36*
X146150Y86000D02*X140050D01*
Y77100D01*
X146150D01*
Y86000D01*
G37*
G36*
Y121900D02*X140050D01*
Y113000D01*
X146150D01*
Y121900D01*
G37*
G36*
X134902Y68252D02*X129184D01*
Y61748D01*
X134902D01*
Y68252D01*
G37*
G36*
X127816D02*X122098D01*
Y61748D01*
X127816D01*
Y68252D01*
G37*
G36*
X142316Y44252D02*X136598D01*
Y37748D01*
X142316D01*
Y44252D01*
G37*
G36*
X120000Y34000D02*Y31000D01*
X129500D01*
Y34000D01*
X120000D01*
G37*
G36*
Y29000D02*Y26000D01*
X129500D01*
Y29000D01*
X120000D01*
G37*
G36*
Y24000D02*Y21000D01*
X129500D01*
Y24000D01*
X120000D01*
G37*
G36*
Y19000D02*Y16000D01*
X129500D01*
Y19000D01*
X120000D01*
G37*
G54D59*X109500Y37000D03*
G54D52*G36*
X146500Y19000D02*Y16000D01*
X156000D01*
Y19000D01*
X146500D01*
G37*
G36*
Y24000D02*Y21000D01*
X156000D01*
Y24000D01*
X146500D01*
G37*
G36*
Y29000D02*Y26000D01*
X156000D01*
Y29000D01*
X146500D01*
G37*
G36*
Y34000D02*Y31000D01*
X156000D01*
Y34000D01*
X146500D01*
G37*
G36*
X160748Y33816D02*Y28098D01*
X167252D01*
Y33816D01*
X160748D01*
G37*
G36*
Y40902D02*Y35184D01*
X167252D01*
Y40902D01*
X160748D01*
G37*
G36*
X148816Y68252D02*X143098D01*
Y61748D01*
X148816D01*
Y68252D01*
G37*
G36*
Y59252D02*X143098D01*
Y52748D01*
X148816D01*
Y59252D01*
G37*
G36*
X149402Y44252D02*X143684D01*
Y37748D01*
X149402D01*
Y44252D01*
G37*
G36*
X155902Y68252D02*X150184D01*
Y61748D01*
X155902D01*
Y68252D01*
G37*
G36*
Y59252D02*X150184D01*
Y52748D01*
X155902D01*
Y59252D01*
G37*
G36*
X161580Y59860D02*Y57588D01*
X165724D01*
Y59860D01*
X161580D01*
G37*
G36*
Y56712D02*Y54438D01*
X165724D01*
Y56712D01*
X161580D01*
G37*
G36*
Y53562D02*Y51288D01*
X165724D01*
Y53562D01*
X161580D01*
G37*
G36*
Y50412D02*Y48140D01*
X165724D01*
Y50412D01*
X161580D01*
G37*
G36*
X163950Y86000D02*X157850D01*
Y77100D01*
X163950D01*
Y86000D01*
G37*
G36*
Y121900D02*X157850D01*
Y113000D01*
X163950D01*
Y121900D01*
G37*
G54D59*X99500Y37000D03*
Y42000D03*
X104500Y37000D03*
Y42000D03*
X109500D03*
G54D52*G36*
X77450Y54550D02*Y48450D01*
X85550D01*
Y54550D01*
X77450D01*
G37*
G36*
Y41550D02*Y35450D01*
X85550D01*
Y41550D01*
X77450D01*
G37*
G36*
X93700Y71000D02*Y68000D01*
X98300D01*
Y71000D01*
X93700D01*
G37*
G36*
Y67100D02*Y64100D01*
X98300D01*
Y67100D01*
X93700D01*
G37*
G36*
Y63200D02*Y60200D01*
X98300D01*
Y63200D01*
X93700D01*
G37*
G36*
X101900D02*Y60200D01*
X106500D01*
Y63200D01*
X101900D01*
G37*
G36*
Y67100D02*Y64100D01*
X106500D01*
Y67100D01*
X101900D01*
G37*
G36*
Y71000D02*Y68000D01*
X106500D01*
Y71000D01*
X101900D01*
G37*
G36*
X100748Y25902D02*Y20184D01*
X107252D01*
Y25902D01*
X100748D01*
G37*
G36*
X97096Y27095D02*X92716D01*
Y18621D01*
X97096D01*
Y27095D01*
G37*
G36*
X100748Y18816D02*Y13098D01*
X107252D01*
Y18816D01*
X100748D01*
G37*
G36*
X70248Y25902D02*Y20184D01*
X76752D01*
Y25902D01*
X70248D01*
G37*
G36*
Y18816D02*Y13098D01*
X76752D01*
Y18816D01*
X70248D01*
G37*
G36*
X91190Y27095D02*X86810D01*
Y10905D01*
X91190D01*
Y27095D01*
G37*
G36*
X94025Y16386D02*X83975D01*
Y4446D01*
X94025D01*
Y16386D01*
G37*
G36*
X90885Y19350D02*X89041Y17506D01*
X92305Y14242D01*
X94149Y16086D01*
X90885Y19350D01*
G37*
G36*
X88959Y17506D02*X87115Y19350D01*
X83851Y16086D01*
X85695Y14242D01*
X88959Y17506D01*
G37*
G36*
X85284Y27095D02*X80904D01*
Y18621D01*
X85284D01*
Y27095D01*
G37*
G36*
X46599Y24107D02*X43637D01*
Y17405D01*
X46599D01*
Y24107D01*
G37*
G36*
X50536D02*X47574D01*
Y17405D01*
X50536D01*
Y24107D01*
G37*
G36*
X54473D02*X51511D01*
Y17405D01*
X54473D01*
Y24107D01*
G37*
G36*
X58410D02*X55448D01*
Y17405D01*
X58410D01*
Y24107D01*
G37*
G36*
X42662Y9343D02*X37338D01*
Y1657D01*
X42662D01*
Y9343D01*
G37*
G36*
X64709D02*X59385D01*
Y1657D01*
X64709D01*
Y9343D01*
G37*
M02*
