G04 start of page 8 for group -4062 idx -4062 *
G04 Title: (unknown), soldermask *
G04 Creator: pcb 4.0.2 *
G04 CreationDate: Mon Nov 22 04:11:08 2021 UTC *
G04 For: ndholmes *
G04 Format: Gerber/RS-274X *
G04 PCB-Dimensions (mil): 2000.00 1500.00 *
G04 PCB-Coordinate-Origin: lower left *
%MOIN*%
%FSLAX25Y25*%
%LNBOTTOMMASK*%
%ADD66C,0.0740*%
%ADD65C,0.0860*%
%ADD64C,0.1260*%
%ADD63C,0.0490*%
%ADD62C,0.1200*%
%ADD61C,0.2997*%
%ADD60C,0.0001*%
G54D60*G36*
X105700Y116800D02*Y108200D01*
X114300D01*
Y116800D01*
X105700D01*
G37*
G54D61*X183000Y133000D03*
G54D62*X85000Y139500D03*
G54D63*X94500Y39500D03*
X114500Y43500D03*
Y35500D03*
G54D61*X183000Y17000D03*
G54D64*X31000Y75500D03*
Y59900D03*
Y44300D03*
G54D60*G36*
X24700Y113000D02*Y100400D01*
X37300D01*
Y113000D01*
X24700D01*
G37*
G54D64*X31000Y91100D03*
G54D60*G36*
X15700Y109800D02*Y101200D01*
X24300D01*
Y109800D01*
X15700D01*
G37*
G54D65*X20000Y85500D03*
G54D61*X17000Y133000D03*
G54D60*G36*
X15700Y69800D02*Y61200D01*
X24300D01*
Y69800D01*
X15700D01*
G37*
G54D65*X20000Y45500D03*
G54D61*X17000Y17000D03*
G54D66*X67500Y32500D03*
X55500D03*
G54D65*X60000Y112500D03*
G54D62*X85000Y85500D03*
G54D60*G36*
X63800Y76200D02*Y68800D01*
X71200D01*
Y76200D01*
X63800D01*
G37*
G36*
X51800D02*Y68800D01*
X59200D01*
Y76200D01*
X51800D01*
G37*
M02*
