G04 start of page 7 for group -4063 idx -4063 *
G04 Title: (unknown), componentmask *
G04 Creator: pcb 4.0.2 *
G04 CreationDate: Sun Oct 16 03:19:17 2022 UTC *
G04 For: ndholmes *
G04 Format: Gerber/RS-274X *
G04 PCB-Dimensions (mil): 3000.00 8100.00 *
G04 PCB-Coordinate-Origin: lower left *
%MOIN*%
%FSLAX25Y25*%
%LNTOPMASK*%
%ADD64C,0.0370*%
%ADD63C,0.1200*%
%ADD62C,0.0001*%
%ADD61C,0.0860*%
%ADD60C,0.1160*%
%ADD59C,0.2997*%
%ADD58C,0.0490*%
%ADD57C,0.0787*%
G54D57*X35000Y20000D03*
X265000D03*
G54D58*X144500Y49500D03*
X164500Y53500D03*
Y45500D03*
G54D59*X233000Y27000D03*
X67000D03*
G54D60*X81000Y46300D03*
G54D61*X70000Y215500D03*
G54D62*G36*
X65700Y79800D02*Y71200D01*
X74300D01*
Y79800D01*
X65700D01*
G37*
G54D61*X70000Y55500D03*
G54D62*G36*
X65700Y119800D02*Y111200D01*
X74300D01*
Y119800D01*
X65700D01*
G37*
G54D61*X70000Y95500D03*
G54D60*X81000Y284300D03*
Y268700D03*
Y253100D03*
Y237500D03*
Y221900D03*
Y124300D03*
Y108700D03*
Y93100D03*
Y77500D03*
Y61900D03*
G54D62*G36*
X65700Y719800D02*Y711200D01*
X74300D01*
Y719800D01*
X65700D01*
G37*
G54D60*X81000Y733100D03*
Y717500D03*
Y701900D03*
G54D58*X144500Y689500D03*
G54D63*X135000Y789500D03*
Y735500D03*
G54D62*G36*
X155700Y606800D02*Y598200D01*
X164300D01*
Y606800D01*
X155700D01*
G37*
G54D63*X135000Y629500D03*
G54D57*X35000Y790000D03*
G54D61*X110000Y762500D03*
G54D59*X67000Y783000D03*
G54D60*X81000Y764300D03*
Y748700D03*
G54D62*G36*
X65700Y759800D02*Y751200D01*
X74300D01*
Y759800D01*
X65700D01*
G37*
G54D61*X70000Y735500D03*
G54D60*X81000Y604300D03*
G54D57*X265000Y760000D03*
G54D62*G36*
X155700Y766800D02*Y758200D01*
X164300D01*
Y766800D01*
X155700D01*
G37*
G54D58*X164500Y693500D03*
G54D59*X233000Y783000D03*
G54D58*X164500Y685500D03*
G54D59*X233000Y667000D03*
Y507000D03*
Y463000D03*
Y623000D03*
Y347000D03*
G54D61*X70000Y695500D03*
G54D59*X67000Y667000D03*
G54D60*X81000Y686300D03*
G54D59*X67000Y623000D03*
G54D60*X81000Y588700D03*
G54D62*G36*
X65700Y599800D02*Y591200D01*
X74300D01*
Y599800D01*
X65700D01*
G37*
G54D61*X70000Y575500D03*
G54D62*G36*
X65700Y559800D02*Y551200D01*
X74300D01*
Y559800D01*
X65700D01*
G37*
G54D61*X70000Y535500D03*
G54D62*G36*
X65700Y439800D02*Y431200D01*
X74300D01*
Y439800D01*
X65700D01*
G37*
G54D61*X70000Y415500D03*
G54D59*X67000Y507000D03*
G54D60*X81000Y573100D03*
Y557500D03*
Y541900D03*
Y526300D03*
G54D59*X67000Y463000D03*
G54D60*X81000Y444300D03*
G54D61*X110000Y602500D03*
G54D58*X144500Y529500D03*
X164500Y533500D03*
G54D63*X135000Y575500D03*
G54D58*X164500Y525500D03*
G54D62*G36*
X155700Y446800D02*Y438200D01*
X164300D01*
Y446800D01*
X155700D01*
G37*
G54D61*X110000Y442500D03*
G54D63*X135000Y469500D03*
Y415500D03*
G54D60*X81000Y428700D03*
Y413100D03*
Y397500D03*
Y381900D03*
G54D62*G36*
X65700Y399800D02*Y391200D01*
X74300D01*
Y399800D01*
X65700D01*
G37*
G54D61*X70000Y375500D03*
G54D62*G36*
X65700Y239800D02*Y231200D01*
X74300D01*
Y239800D01*
X65700D01*
G37*
G36*
Y279800D02*Y271200D01*
X74300D01*
Y279800D01*
X65700D01*
G37*
G54D61*X70000Y255500D03*
G54D58*X144500Y369500D03*
G54D59*X67000Y347000D03*
G54D60*X81000Y366300D03*
G54D59*X67000Y303000D03*
Y187000D03*
G54D60*X81000Y206300D03*
G54D59*X67000Y143000D03*
G54D62*G36*
X155700Y286800D02*Y278200D01*
X164300D01*
Y286800D01*
X155700D01*
G37*
G54D61*X110000Y282500D03*
G54D58*X144500Y209500D03*
G54D63*X135000Y255500D03*
Y309500D03*
G54D58*X164500Y373500D03*
Y365500D03*
G54D62*G36*
X155700Y126800D02*Y118200D01*
X164300D01*
Y126800D01*
X155700D01*
G37*
G54D58*X164500Y213500D03*
Y205500D03*
G54D59*X233000Y187000D03*
Y303000D03*
Y143000D03*
G54D61*X110000Y122500D03*
G54D63*X135000Y149500D03*
Y95500D03*
G54D62*G36*
X231248Y399816D02*Y394098D01*
X237752D01*
Y399816D01*
X231248D01*
G37*
G36*
Y406902D02*Y401184D01*
X237752D01*
Y406902D01*
X231248D01*
G37*
G36*
X196500Y349000D02*Y346000D01*
X206000D01*
Y349000D01*
X196500D01*
G37*
G36*
Y354000D02*Y351000D01*
X206000D01*
Y354000D01*
X196500D01*
G37*
G36*
Y359000D02*Y356000D01*
X206000D01*
Y359000D01*
X196500D01*
G37*
G36*
X217816Y396252D02*X212098D01*
Y389748D01*
X217816D01*
Y396252D01*
G37*
G36*
X224902D02*X219184D01*
Y389748D01*
X224902D01*
Y396252D01*
G37*
G36*
X217816Y387252D02*X212098D01*
Y380748D01*
X217816D01*
Y387252D01*
G37*
G36*
X224902D02*X219184D01*
Y380748D01*
X224902D01*
Y387252D01*
G37*
G36*
X217773Y405252D02*X212055D01*
Y398748D01*
X217773D01*
Y405252D01*
G37*
G36*
X224859D02*X219141D01*
Y398748D01*
X224859D01*
Y405252D01*
G37*
G36*
X170000Y364000D02*Y361000D01*
X179500D01*
Y364000D01*
X170000D01*
G37*
G36*
Y359000D02*Y356000D01*
X179500D01*
Y359000D01*
X170000D01*
G37*
G36*
Y354000D02*Y351000D01*
X179500D01*
Y354000D01*
X170000D01*
G37*
G36*
Y349000D02*Y346000D01*
X179500D01*
Y349000D01*
X170000D01*
G37*
G36*
X192402Y341752D02*X186684D01*
Y335248D01*
X192402D01*
Y341752D01*
G37*
G36*
X185316D02*X179598D01*
Y335248D01*
X185316D01*
Y341752D01*
G37*
G54D64*X149500Y367000D03*
X154500D03*
X159500D03*
X149500Y372000D03*
X154500D03*
X159500D03*
G54D62*G36*
X192316Y374252D02*X186598D01*
Y367748D01*
X192316D01*
Y374252D01*
G37*
G36*
X180200Y381000D02*Y378000D01*
X184800D01*
Y381000D01*
X180200D01*
G37*
G36*
X172000D02*Y378000D01*
X176600D01*
Y381000D01*
X172000D01*
G37*
G36*
X180200Y384900D02*Y381900D01*
X184800D01*
Y384900D01*
X180200D01*
G37*
G36*
Y388800D02*Y385800D01*
X184800D01*
Y388800D01*
X180200D01*
G37*
G36*
X172000D02*Y385800D01*
X176600D01*
Y388800D01*
X172000D01*
G37*
G36*
Y384900D02*Y381900D01*
X176600D01*
Y384900D01*
X172000D01*
G37*
G36*
X177816Y406752D02*X172098D01*
Y400248D01*
X177816D01*
Y406752D01*
G37*
G36*
X184902D02*X179184D01*
Y400248D01*
X184902D01*
Y406752D01*
G37*
G36*
Y398252D02*X179184D01*
Y391748D01*
X184902D01*
Y398252D01*
G37*
G36*
X177816D02*X172098D01*
Y391748D01*
X177816D01*
Y398252D01*
G37*
G36*
X172200Y421000D02*Y417000D01*
X176800D01*
Y421000D01*
X172200D01*
G37*
G36*
Y413200D02*Y409200D01*
X176800D01*
Y413200D01*
X172200D01*
G37*
G36*
X180400Y417100D02*Y413100D01*
X185000D01*
Y417100D01*
X180400D01*
G37*
G36*
X143700Y401000D02*Y398000D01*
X148300D01*
Y401000D01*
X143700D01*
G37*
G36*
Y397100D02*Y394100D01*
X148300D01*
Y397100D01*
X143700D01*
G37*
G36*
Y393200D02*Y390200D01*
X148300D01*
Y393200D01*
X143700D01*
G37*
G36*
X151900D02*Y390200D01*
X156500D01*
Y393200D01*
X151900D01*
G37*
G36*
Y397100D02*Y394100D01*
X156500D01*
Y397100D01*
X151900D01*
G37*
G36*
Y401000D02*Y398000D01*
X156500D01*
Y401000D01*
X151900D01*
G37*
G36*
X127450Y384550D02*Y378450D01*
X135550D01*
Y384550D01*
X127450D01*
G37*
G36*
X108248Y384902D02*Y379184D01*
X114752D01*
Y384902D01*
X108248D01*
G37*
G36*
X97248D02*Y379184D01*
X103752D01*
Y384902D01*
X97248D01*
G37*
G36*
X150748Y355902D02*Y350184D01*
X157252D01*
Y355902D01*
X150748D01*
G37*
G36*
X147096Y357095D02*X142716D01*
Y348621D01*
X147096D01*
Y357095D01*
G37*
G36*
X150748Y348816D02*Y343098D01*
X157252D01*
Y348816D01*
X150748D01*
G37*
G36*
X120248D02*Y343098D01*
X126752D01*
Y348816D01*
X120248D01*
G37*
G36*
Y355902D02*Y350184D01*
X126752D01*
Y355902D01*
X120248D01*
G37*
G36*
X141190Y357095D02*X136810D01*
Y340905D01*
X141190D01*
Y357095D01*
G37*
G36*
X144025Y346386D02*X133975D01*
Y334446D01*
X144025D01*
Y346386D01*
G37*
G36*
X140885Y349350D02*X139041Y347506D01*
X142305Y344242D01*
X144149Y346086D01*
X140885Y349350D01*
G37*
G36*
X138959Y347506D02*X137115Y349350D01*
X133851Y346086D01*
X135695Y344242D01*
X138959Y347506D01*
G37*
G36*
X135284Y357095D02*X130904D01*
Y348621D01*
X135284D01*
Y357095D01*
G37*
G36*
X127450Y371550D02*Y365450D01*
X135550D01*
Y371550D01*
X127450D01*
G37*
G36*
X96599Y354107D02*X93637D01*
Y347405D01*
X96599D01*
Y354107D01*
G37*
G36*
X92662Y339343D02*X87338D01*
Y331657D01*
X92662D01*
Y339343D01*
G37*
G36*
X100536Y354107D02*X97574D01*
Y347405D01*
X100536D01*
Y354107D01*
G37*
G36*
X104473D02*X101511D01*
Y347405D01*
X104473D01*
Y354107D01*
G37*
G36*
X108410D02*X105448D01*
Y347405D01*
X108410D01*
Y354107D01*
G37*
G36*
X114709Y339343D02*X109385D01*
Y331657D01*
X114709D01*
Y339343D01*
G37*
G36*
X108248Y377816D02*Y372098D01*
X114752D01*
Y377816D01*
X108248D01*
G37*
G36*
X97248D02*Y372098D01*
X103752D01*
Y377816D01*
X97248D01*
G37*
G36*
X196500Y364000D02*Y361000D01*
X206000D01*
Y364000D01*
X196500D01*
G37*
G36*
X199402Y374252D02*X193684D01*
Y367748D01*
X199402D01*
Y374252D01*
G37*
G36*
X196150Y416000D02*X190050D01*
Y407100D01*
X196150D01*
Y416000D01*
G37*
G36*
Y451900D02*X190050D01*
Y443000D01*
X196150D01*
Y451900D01*
G37*
G36*
X201902Y398252D02*X196184D01*
Y391748D01*
X201902D01*
Y398252D01*
G37*
G36*
Y389252D02*X196184D01*
Y382748D01*
X201902D01*
Y389252D01*
G37*
G36*
X231248Y424816D02*Y419098D01*
X237752D01*
Y424816D01*
X231248D01*
G37*
G36*
Y431902D02*Y426184D01*
X237752D01*
Y431902D01*
X231248D01*
G37*
G36*
X216248Y421316D02*Y415598D01*
X222752D01*
Y421316D01*
X216248D01*
G37*
G36*
Y428402D02*Y422684D01*
X222752D01*
Y428402D01*
X216248D01*
G37*
G36*
X213950Y416000D02*X207850D01*
Y407100D01*
X213950D01*
Y416000D01*
G37*
G36*
Y451900D02*X207850D01*
Y443000D01*
X213950D01*
Y451900D01*
G37*
G36*
X194816Y398252D02*X189098D01*
Y391748D01*
X194816D01*
Y398252D01*
G37*
G36*
Y389252D02*X189098D01*
Y382748D01*
X194816D01*
Y389252D01*
G37*
G36*
X231248Y374816D02*Y369098D01*
X237752D01*
Y374816D01*
X231248D01*
G37*
G36*
Y381902D02*Y376184D01*
X237752D01*
Y381902D01*
X231248D01*
G37*
G36*
Y239816D02*Y234098D01*
X237752D01*
Y239816D01*
X231248D01*
G37*
G36*
Y246902D02*Y241184D01*
X237752D01*
Y246902D01*
X231248D01*
G37*
G36*
Y264816D02*Y259098D01*
X237752D01*
Y264816D01*
X231248D01*
G37*
G36*
Y271902D02*Y266184D01*
X237752D01*
Y271902D01*
X231248D01*
G37*
G36*
Y214816D02*Y209098D01*
X237752D01*
Y214816D01*
X231248D01*
G37*
G36*
Y221902D02*Y216184D01*
X237752D01*
Y221902D01*
X231248D01*
G37*
G36*
Y79816D02*Y74098D01*
X237752D01*
Y79816D01*
X231248D01*
G37*
G36*
Y54816D02*Y49098D01*
X237752D01*
Y54816D01*
X231248D01*
G37*
G36*
Y61902D02*Y56184D01*
X237752D01*
Y61902D01*
X231248D01*
G37*
G36*
Y86902D02*Y81184D01*
X237752D01*
Y86902D01*
X231248D01*
G37*
G36*
Y104816D02*Y99098D01*
X237752D01*
Y104816D01*
X231248D01*
G37*
G36*
Y111902D02*Y106184D01*
X237752D01*
Y111902D01*
X231248D01*
G37*
G36*
X196500Y189000D02*Y186000D01*
X206000D01*
Y189000D01*
X196500D01*
G37*
G36*
Y194000D02*Y191000D01*
X206000D01*
Y194000D01*
X196500D01*
G37*
G36*
Y199000D02*Y196000D01*
X206000D01*
Y199000D01*
X196500D01*
G37*
G36*
X192402Y181752D02*X186684D01*
Y175248D01*
X192402D01*
Y181752D01*
G37*
G36*
X196500Y204000D02*Y201000D01*
X206000D01*
Y204000D01*
X196500D01*
G37*
G36*
X201902Y238252D02*X196184D01*
Y231748D01*
X201902D01*
Y238252D01*
G37*
G36*
Y229252D02*X196184D01*
Y222748D01*
X201902D01*
Y229252D01*
G37*
G36*
Y78252D02*X196184D01*
Y71748D01*
X201902D01*
Y78252D01*
G37*
G36*
Y69252D02*X196184D01*
Y62748D01*
X201902D01*
Y69252D01*
G37*
G36*
X192316Y214252D02*X186598D01*
Y207748D01*
X192316D01*
Y214252D01*
G37*
G36*
X199402D02*X193684D01*
Y207748D01*
X199402D01*
Y214252D01*
G37*
G36*
X194816Y229252D02*X189098D01*
Y222748D01*
X194816D01*
Y229252D01*
G37*
G36*
X196150Y291900D02*X190050D01*
Y283000D01*
X196150D01*
Y291900D01*
G37*
G36*
Y96000D02*X190050D01*
Y87100D01*
X196150D01*
Y96000D01*
G37*
G36*
Y131900D02*X190050D01*
Y123000D01*
X196150D01*
Y131900D01*
G37*
G36*
X194816Y78252D02*X189098D01*
Y71748D01*
X194816D01*
Y78252D01*
G37*
G36*
Y69252D02*X189098D01*
Y62748D01*
X194816D01*
Y69252D01*
G37*
G36*
X213950Y291900D02*X207850D01*
Y283000D01*
X213950D01*
Y291900D01*
G37*
G36*
Y96000D02*X207850D01*
Y87100D01*
X213950D01*
Y96000D01*
G37*
G36*
Y131900D02*X207850D01*
Y123000D01*
X213950D01*
Y131900D01*
G37*
G36*
X217816Y227252D02*X212098D01*
Y220748D01*
X217816D01*
Y227252D01*
G37*
G36*
X216248Y261316D02*Y255598D01*
X222752D01*
Y261316D01*
X216248D01*
G37*
G36*
X213950Y256000D02*X207850D01*
Y247100D01*
X213950D01*
Y256000D01*
G37*
G36*
X216248Y268402D02*Y262684D01*
X222752D01*
Y268402D01*
X216248D01*
G37*
G36*
X217816Y236252D02*X212098D01*
Y229748D01*
X217816D01*
Y236252D01*
G37*
G36*
X224902D02*X219184D01*
Y229748D01*
X224902D01*
Y236252D01*
G37*
G36*
Y227252D02*X219184D01*
Y220748D01*
X224902D01*
Y227252D01*
G37*
G36*
X217773Y245252D02*X212055D01*
Y238748D01*
X217773D01*
Y245252D01*
G37*
G36*
X224859D02*X219141D01*
Y238748D01*
X224859D01*
Y245252D01*
G37*
G36*
X217816Y76252D02*X212098D01*
Y69748D01*
X217816D01*
Y76252D01*
G37*
G36*
X224902D02*X219184D01*
Y69748D01*
X224902D01*
Y76252D01*
G37*
G36*
X217816Y67252D02*X212098D01*
Y60748D01*
X217816D01*
Y67252D01*
G37*
G36*
X224902D02*X219184D01*
Y60748D01*
X224902D01*
Y67252D01*
G37*
G36*
X217773Y85252D02*X212055D01*
Y78748D01*
X217773D01*
Y85252D01*
G37*
G36*
X224859D02*X219141D01*
Y78748D01*
X224859D01*
Y85252D01*
G37*
G36*
X177816Y246752D02*X172098D01*
Y240248D01*
X177816D01*
Y246752D01*
G37*
G36*
X184902D02*X179184D01*
Y240248D01*
X184902D01*
Y246752D01*
G37*
G36*
Y238252D02*X179184D01*
Y231748D01*
X184902D01*
Y238252D01*
G37*
G36*
X177816D02*X172098D01*
Y231748D01*
X177816D01*
Y238252D01*
G37*
G36*
X172200Y261000D02*Y257000D01*
X176800D01*
Y261000D01*
X172200D01*
G37*
G36*
Y253200D02*Y249200D01*
X176800D01*
Y253200D01*
X172200D01*
G37*
G36*
X180400Y257100D02*Y253100D01*
X185000D01*
Y257100D01*
X180400D01*
G37*
G36*
X196150Y256000D02*X190050D01*
Y247100D01*
X196150D01*
Y256000D01*
G37*
G36*
X143700Y237100D02*Y234100D01*
X148300D01*
Y237100D01*
X143700D01*
G37*
G36*
Y233200D02*Y230200D01*
X148300D01*
Y233200D01*
X143700D01*
G37*
G36*
X151900D02*Y230200D01*
X156500D01*
Y233200D01*
X151900D01*
G37*
G36*
Y237100D02*Y234100D01*
X156500D01*
Y237100D01*
X151900D01*
G37*
G36*
Y241000D02*Y238000D01*
X156500D01*
Y241000D01*
X151900D01*
G37*
G36*
X194816Y238252D02*X189098D01*
Y231748D01*
X194816D01*
Y238252D01*
G37*
G36*
X170000Y204000D02*Y201000D01*
X179500D01*
Y204000D01*
X170000D01*
G37*
G36*
Y199000D02*Y196000D01*
X179500D01*
Y199000D01*
X170000D01*
G37*
G36*
Y194000D02*Y191000D01*
X179500D01*
Y194000D01*
X170000D01*
G37*
G36*
Y189000D02*Y186000D01*
X179500D01*
Y189000D01*
X170000D01*
G37*
G36*
X185316Y181752D02*X179598D01*
Y175248D01*
X185316D01*
Y181752D01*
G37*
G54D64*X149500Y207000D03*
Y212000D03*
X154500Y207000D03*
Y212000D03*
X159500Y207000D03*
Y212000D03*
G54D62*G36*
X180200Y221000D02*Y218000D01*
X184800D01*
Y221000D01*
X180200D01*
G37*
G36*
X172000D02*Y218000D01*
X176600D01*
Y221000D01*
X172000D01*
G37*
G36*
X180200Y224900D02*Y221900D01*
X184800D01*
Y224900D01*
X180200D01*
G37*
G36*
X172000D02*Y221900D01*
X176600D01*
Y224900D01*
X172000D01*
G37*
G36*
X180200Y228800D02*Y225800D01*
X184800D01*
Y228800D01*
X180200D01*
G37*
G36*
X172000D02*Y225800D01*
X176600D01*
Y228800D01*
X172000D01*
G37*
G36*
X150748Y195902D02*Y190184D01*
X157252D01*
Y195902D01*
X150748D01*
G37*
G36*
X147096Y197095D02*X142716D01*
Y188621D01*
X147096D01*
Y197095D01*
G37*
G36*
X150748Y188816D02*Y183098D01*
X157252D01*
Y188816D01*
X150748D01*
G37*
G36*
X120248Y195902D02*Y190184D01*
X126752D01*
Y195902D01*
X120248D01*
G37*
G36*
Y188816D02*Y183098D01*
X126752D01*
Y188816D01*
X120248D01*
G37*
G36*
X141190Y197095D02*X136810D01*
Y180905D01*
X141190D01*
Y197095D01*
G37*
G36*
X144025Y186386D02*X133975D01*
Y174446D01*
X144025D01*
Y186386D01*
G37*
G36*
X140885Y189350D02*X139041Y187506D01*
X142305Y184242D01*
X144149Y186086D01*
X140885Y189350D01*
G37*
G36*
X138959Y187506D02*X137115Y189350D01*
X133851Y186086D01*
X135695Y184242D01*
X138959Y187506D01*
G37*
G36*
X135284Y197095D02*X130904D01*
Y188621D01*
X135284D01*
Y197095D01*
G37*
G36*
X96599Y194107D02*X93637D01*
Y187405D01*
X96599D01*
Y194107D01*
G37*
G36*
X92662Y179343D02*X87338D01*
Y171657D01*
X92662D01*
Y179343D01*
G37*
G36*
X100536Y194107D02*X97574D01*
Y187405D01*
X100536D01*
Y194107D01*
G37*
G36*
X104473D02*X101511D01*
Y187405D01*
X104473D01*
Y194107D01*
G37*
G36*
X108410D02*X105448D01*
Y187405D01*
X108410D01*
Y194107D01*
G37*
G36*
X114709Y179343D02*X109385D01*
Y171657D01*
X114709D01*
Y179343D01*
G37*
G36*
X143700Y241000D02*Y238000D01*
X148300D01*
Y241000D01*
X143700D01*
G37*
G36*
X127450Y224550D02*Y218450D01*
X135550D01*
Y224550D01*
X127450D01*
G37*
G36*
Y211550D02*Y205450D01*
X135550D01*
Y211550D01*
X127450D01*
G37*
G36*
X108248Y224902D02*Y219184D01*
X114752D01*
Y224902D01*
X108248D01*
G37*
G36*
Y217816D02*Y212098D01*
X114752D01*
Y217816D01*
X108248D01*
G37*
G36*
X97248Y224902D02*Y219184D01*
X103752D01*
Y224902D01*
X97248D01*
G37*
G36*
Y217816D02*Y212098D01*
X103752D01*
Y217816D01*
X97248D01*
G37*
G36*
X196500Y29000D02*Y26000D01*
X206000D01*
Y29000D01*
X196500D01*
G37*
G36*
X192402Y21752D02*X186684D01*
Y15248D01*
X192402D01*
Y21752D01*
G37*
G36*
X185316D02*X179598D01*
Y15248D01*
X185316D01*
Y21752D01*
G37*
G36*
X196500Y34000D02*Y31000D01*
X206000D01*
Y34000D01*
X196500D01*
G37*
G36*
Y39000D02*Y36000D01*
X206000D01*
Y39000D01*
X196500D01*
G37*
G36*
Y44000D02*Y41000D01*
X206000D01*
Y44000D01*
X196500D01*
G37*
G36*
X192316Y54252D02*X186598D01*
Y47748D01*
X192316D01*
Y54252D01*
G37*
G36*
X199402D02*X193684D01*
Y47748D01*
X199402D01*
Y54252D01*
G37*
G36*
X180200Y61000D02*Y58000D01*
X184800D01*
Y61000D01*
X180200D01*
G37*
G36*
Y64900D02*Y61900D01*
X184800D01*
Y64900D01*
X180200D01*
G37*
G36*
Y68800D02*Y65800D01*
X184800D01*
Y68800D01*
X180200D01*
G37*
G36*
X177816Y86752D02*X172098D01*
Y80248D01*
X177816D01*
Y86752D01*
G37*
G36*
X184902D02*X179184D01*
Y80248D01*
X184902D01*
Y86752D01*
G37*
G36*
Y78252D02*X179184D01*
Y71748D01*
X184902D01*
Y78252D01*
G37*
G36*
X177816D02*X172098D01*
Y71748D01*
X177816D01*
Y78252D01*
G37*
G36*
X172000Y68800D02*Y65800D01*
X176600D01*
Y68800D01*
X172000D01*
G37*
G36*
Y64900D02*Y61900D01*
X176600D01*
Y64900D01*
X172000D01*
G37*
G36*
X172200Y101000D02*Y97000D01*
X176800D01*
Y101000D01*
X172200D01*
G37*
G36*
Y93200D02*Y89200D01*
X176800D01*
Y93200D01*
X172200D01*
G37*
G36*
X180400Y97100D02*Y93100D01*
X185000D01*
Y97100D01*
X180400D01*
G37*
G36*
X216248Y101316D02*Y95598D01*
X222752D01*
Y101316D01*
X216248D01*
G37*
G36*
Y108402D02*Y102684D01*
X222752D01*
Y108402D01*
X216248D01*
G37*
G36*
X143700Y77100D02*Y74100D01*
X148300D01*
Y77100D01*
X143700D01*
G37*
G36*
Y73200D02*Y70200D01*
X148300D01*
Y73200D01*
X143700D01*
G37*
G36*
X151900D02*Y70200D01*
X156500D01*
Y73200D01*
X151900D01*
G37*
G36*
Y77100D02*Y74100D01*
X156500D01*
Y77100D01*
X151900D01*
G37*
G36*
Y81000D02*Y78000D01*
X156500D01*
Y81000D01*
X151900D01*
G37*
G36*
X170000Y44000D02*Y41000D01*
X179500D01*
Y44000D01*
X170000D01*
G37*
G36*
Y39000D02*Y36000D01*
X179500D01*
Y39000D01*
X170000D01*
G37*
G36*
Y34000D02*Y31000D01*
X179500D01*
Y34000D01*
X170000D01*
G37*
G36*
Y29000D02*Y26000D01*
X179500D01*
Y29000D01*
X170000D01*
G37*
G54D64*X149500Y47000D03*
Y52000D03*
X154500Y47000D03*
Y52000D03*
X159500Y47000D03*
Y52000D03*
G54D62*G36*
X172000Y61000D02*Y58000D01*
X176600D01*
Y61000D01*
X172000D01*
G37*
G36*
X150748Y35902D02*Y30184D01*
X157252D01*
Y35902D01*
X150748D01*
G37*
G36*
X147096Y37095D02*X142716D01*
Y28621D01*
X147096D01*
Y37095D01*
G37*
G36*
X150748Y28816D02*Y23098D01*
X157252D01*
Y28816D01*
X150748D01*
G37*
G36*
X120248Y35902D02*Y30184D01*
X126752D01*
Y35902D01*
X120248D01*
G37*
G36*
Y28816D02*Y23098D01*
X126752D01*
Y28816D01*
X120248D01*
G37*
G36*
X141190Y37095D02*X136810D01*
Y20905D01*
X141190D01*
Y37095D01*
G37*
G36*
X144025Y26386D02*X133975D01*
Y14446D01*
X144025D01*
Y26386D01*
G37*
G36*
X140885Y29350D02*X139041Y27506D01*
X142305Y24242D01*
X144149Y26086D01*
X140885Y29350D01*
G37*
G36*
X138959Y27506D02*X137115Y29350D01*
X133851Y26086D01*
X135695Y24242D01*
X138959Y27506D01*
G37*
G36*
X135284Y37095D02*X130904D01*
Y28621D01*
X135284D01*
Y37095D01*
G37*
G36*
X96599Y34107D02*X93637D01*
Y27405D01*
X96599D01*
Y34107D01*
G37*
G36*
X100536D02*X97574D01*
Y27405D01*
X100536D01*
Y34107D01*
G37*
G36*
X104473D02*X101511D01*
Y27405D01*
X104473D01*
Y34107D01*
G37*
G36*
X108410D02*X105448D01*
Y27405D01*
X108410D01*
Y34107D01*
G37*
G36*
X92662Y19343D02*X87338D01*
Y11657D01*
X92662D01*
Y19343D01*
G37*
G36*
X114709D02*X109385D01*
Y11657D01*
X114709D01*
Y19343D01*
G37*
G36*
X143700Y81000D02*Y78000D01*
X148300D01*
Y81000D01*
X143700D01*
G37*
G36*
X127450Y64550D02*Y58450D01*
X135550D01*
Y64550D01*
X127450D01*
G37*
G36*
Y51550D02*Y45450D01*
X135550D01*
Y51550D01*
X127450D01*
G37*
G36*
X108248Y64902D02*Y59184D01*
X114752D01*
Y64902D01*
X108248D01*
G37*
G36*
Y57816D02*Y52098D01*
X114752D01*
Y57816D01*
X108248D01*
G37*
G36*
X97248Y64902D02*Y59184D01*
X103752D01*
Y64902D01*
X97248D01*
G37*
G36*
Y57816D02*Y52098D01*
X103752D01*
Y57816D01*
X97248D01*
G37*
G36*
X196500Y669000D02*Y666000D01*
X206000D01*
Y669000D01*
X196500D01*
G37*
G36*
X170000D02*Y666000D01*
X179500D01*
Y669000D01*
X170000D01*
G37*
G36*
X196500Y674000D02*Y671000D01*
X206000D01*
Y674000D01*
X196500D01*
G37*
G36*
X170000D02*Y671000D01*
X179500D01*
Y674000D01*
X170000D01*
G37*
G36*
X196500Y679000D02*Y676000D01*
X206000D01*
Y679000D01*
X196500D01*
G37*
G36*
Y684000D02*Y681000D01*
X206000D01*
Y684000D01*
X196500D01*
G37*
G36*
X170000D02*Y681000D01*
X179500D01*
Y684000D01*
X170000D01*
G37*
G36*
Y679000D02*Y676000D01*
X179500D01*
Y679000D01*
X170000D01*
G37*
G36*
X192402Y661752D02*X186684D01*
Y655248D01*
X192402D01*
Y661752D01*
G37*
G36*
X185316D02*X179598D01*
Y655248D01*
X185316D01*
Y661752D01*
G37*
G36*
X177816Y726752D02*X172098D01*
Y720248D01*
X177816D01*
Y726752D01*
G37*
G36*
X184902D02*X179184D01*
Y720248D01*
X184902D01*
Y726752D01*
G37*
G36*
Y718252D02*X179184D01*
Y711748D01*
X184902D01*
Y718252D01*
G37*
G36*
X177816D02*X172098D01*
Y711748D01*
X177816D01*
Y718252D01*
G37*
G36*
X143700Y721000D02*Y718000D01*
X148300D01*
Y721000D01*
X143700D01*
G37*
G36*
Y717100D02*Y714100D01*
X148300D01*
Y717100D01*
X143700D01*
G37*
G36*
Y713200D02*Y710200D01*
X148300D01*
Y713200D01*
X143700D01*
G37*
G36*
X151900D02*Y710200D01*
X156500D01*
Y713200D01*
X151900D01*
G37*
G36*
Y717100D02*Y714100D01*
X156500D01*
Y717100D01*
X151900D01*
G37*
G36*
Y721000D02*Y718000D01*
X156500D01*
Y721000D01*
X151900D01*
G37*
G36*
X150748Y675902D02*Y670184D01*
X157252D01*
Y675902D01*
X150748D01*
G37*
G36*
X147096Y677095D02*X142716D01*
Y668621D01*
X147096D01*
Y677095D01*
G37*
G36*
X150748Y668816D02*Y663098D01*
X157252D01*
Y668816D01*
X150748D01*
G37*
G36*
X120248Y675902D02*Y670184D01*
X126752D01*
Y675902D01*
X120248D01*
G37*
G36*
Y668816D02*Y663098D01*
X126752D01*
Y668816D01*
X120248D01*
G37*
G36*
X141190Y677095D02*X136810D01*
Y660905D01*
X141190D01*
Y677095D01*
G37*
G36*
X144025Y666386D02*X133975D01*
Y654446D01*
X144025D01*
Y666386D01*
G37*
G36*
X140885Y669350D02*X139041Y667506D01*
X142305Y664242D01*
X144149Y666086D01*
X140885Y669350D01*
G37*
G36*
X138959Y667506D02*X137115Y669350D01*
X133851Y666086D01*
X135695Y664242D01*
X138959Y667506D01*
G37*
G36*
X135284Y677095D02*X130904D01*
Y668621D01*
X135284D01*
Y677095D01*
G37*
G36*
X96599Y674107D02*X93637D01*
Y667405D01*
X96599D01*
Y674107D01*
G37*
G36*
X92662Y659343D02*X87338D01*
Y651657D01*
X92662D01*
Y659343D01*
G37*
G36*
X100536Y674107D02*X97574D01*
Y667405D01*
X100536D01*
Y674107D01*
G37*
G36*
X104473D02*X101511D01*
Y667405D01*
X104473D01*
Y674107D01*
G37*
G36*
X108410D02*X105448D01*
Y667405D01*
X108410D01*
Y674107D01*
G37*
G36*
X114709Y659343D02*X109385D01*
Y651657D01*
X114709D01*
Y659343D01*
G37*
G54D64*X149500Y687000D03*
X154500D03*
X159500D03*
X149500Y692000D03*
X154500D03*
X159500D03*
G54D62*G36*
X192316Y694252D02*X186598D01*
Y687748D01*
X192316D01*
Y694252D01*
G37*
G36*
X199402D02*X193684D01*
Y687748D01*
X199402D01*
Y694252D01*
G37*
G36*
X172000Y708800D02*Y705800D01*
X176600D01*
Y708800D01*
X172000D01*
G37*
G36*
Y704900D02*Y701900D01*
X176600D01*
Y704900D01*
X172000D01*
G37*
G36*
Y701000D02*Y698000D01*
X176600D01*
Y701000D01*
X172000D01*
G37*
G36*
X194816Y709252D02*X189098D01*
Y702748D01*
X194816D01*
Y709252D01*
G37*
G36*
X127450Y704550D02*Y698450D01*
X135550D01*
Y704550D01*
X127450D01*
G37*
G36*
X108248Y704902D02*Y699184D01*
X114752D01*
Y704902D01*
X108248D01*
G37*
G36*
Y697816D02*Y692098D01*
X114752D01*
Y697816D01*
X108248D01*
G37*
G36*
X97248Y704902D02*Y699184D01*
X103752D01*
Y704902D01*
X97248D01*
G37*
G36*
Y697816D02*Y692098D01*
X103752D01*
Y697816D01*
X97248D01*
G37*
G36*
X127450Y691550D02*Y685450D01*
X135550D01*
Y691550D01*
X127450D01*
G37*
G36*
X231248Y719816D02*Y714098D01*
X237752D01*
Y719816D01*
X231248D01*
G37*
G36*
Y726902D02*Y721184D01*
X237752D01*
Y726902D01*
X231248D01*
G37*
G36*
Y744816D02*Y739098D01*
X237752D01*
Y744816D01*
X231248D01*
G37*
G36*
Y751902D02*Y746184D01*
X237752D01*
Y751902D01*
X231248D01*
G37*
G36*
X216248Y741316D02*Y735598D01*
X222752D01*
Y741316D01*
X216248D01*
G37*
G36*
Y748402D02*Y742684D01*
X222752D01*
Y748402D01*
X216248D01*
G37*
G36*
X213950Y771900D02*X207850D01*
Y763000D01*
X213950D01*
Y771900D01*
G37*
G36*
X224859Y725252D02*X219141D01*
Y718748D01*
X224859D01*
Y725252D01*
G37*
G36*
X172200Y741000D02*Y737000D01*
X176800D01*
Y741000D01*
X172200D01*
G37*
G36*
Y733200D02*Y729200D01*
X176800D01*
Y733200D01*
X172200D01*
G37*
G36*
X180400Y737100D02*Y733100D01*
X185000D01*
Y737100D01*
X180400D01*
G37*
G36*
X196150Y736000D02*X190050D01*
Y727100D01*
X196150D01*
Y736000D01*
G37*
G36*
Y771900D02*X190050D01*
Y763000D01*
X196150D01*
Y771900D01*
G37*
G36*
Y611900D02*X190050D01*
Y603000D01*
X196150D01*
Y611900D01*
G37*
G36*
X231248Y694816D02*Y689098D01*
X237752D01*
Y694816D01*
X231248D01*
G37*
G36*
Y701902D02*Y696184D01*
X237752D01*
Y701902D01*
X231248D01*
G37*
G36*
X217816Y707252D02*X212098D01*
Y700748D01*
X217816D01*
Y707252D01*
G37*
G36*
X224902D02*X219184D01*
Y700748D01*
X224902D01*
Y707252D01*
G37*
G36*
X213950Y736000D02*X207850D01*
Y727100D01*
X213950D01*
Y736000D01*
G37*
G36*
X217816Y716252D02*X212098D01*
Y709748D01*
X217816D01*
Y716252D01*
G37*
G36*
X224902D02*X219184D01*
Y709748D01*
X224902D01*
Y716252D01*
G37*
G36*
X217773Y725252D02*X212055D01*
Y718748D01*
X217773D01*
Y725252D01*
G37*
G36*
X194816Y718252D02*X189098D01*
Y711748D01*
X194816D01*
Y718252D01*
G37*
G36*
X201902D02*X196184D01*
Y711748D01*
X201902D01*
Y718252D01*
G37*
G36*
X180200Y701000D02*Y698000D01*
X184800D01*
Y701000D01*
X180200D01*
G37*
G36*
Y704900D02*Y701900D01*
X184800D01*
Y704900D01*
X180200D01*
G37*
G36*
Y708800D02*Y705800D01*
X184800D01*
Y708800D01*
X180200D01*
G37*
G36*
X201902Y709252D02*X196184D01*
Y702748D01*
X201902D01*
Y709252D01*
G37*
G36*
X177816Y566752D02*X172098D01*
Y560248D01*
X177816D01*
Y566752D01*
G37*
G36*
X172200Y581000D02*Y577000D01*
X176800D01*
Y581000D01*
X172200D01*
G37*
G36*
Y573200D02*Y569200D01*
X176800D01*
Y573200D01*
X172200D01*
G37*
G36*
X184902Y566752D02*X179184D01*
Y560248D01*
X184902D01*
Y566752D01*
G37*
G36*
X180400Y577100D02*Y573100D01*
X185000D01*
Y577100D01*
X180400D01*
G37*
G36*
X184902Y558252D02*X179184D01*
Y551748D01*
X184902D01*
Y558252D01*
G37*
G36*
X177816D02*X172098D01*
Y551748D01*
X177816D01*
Y558252D01*
G37*
G36*
X172000Y548800D02*Y545800D01*
X176600D01*
Y548800D01*
X172000D01*
G37*
G36*
Y544900D02*Y541900D01*
X176600D01*
Y544900D01*
X172000D01*
G37*
G36*
Y541000D02*Y538000D01*
X176600D01*
Y541000D01*
X172000D01*
G37*
G36*
X143700Y561000D02*Y558000D01*
X148300D01*
Y561000D01*
X143700D01*
G37*
G36*
Y557100D02*Y554100D01*
X148300D01*
Y557100D01*
X143700D01*
G37*
G36*
Y553200D02*Y550200D01*
X148300D01*
Y553200D01*
X143700D01*
G37*
G36*
X151900D02*Y550200D01*
X156500D01*
Y553200D01*
X151900D01*
G37*
G36*
Y557100D02*Y554100D01*
X156500D01*
Y557100D01*
X151900D01*
G37*
G36*
Y561000D02*Y558000D01*
X156500D01*
Y561000D01*
X151900D01*
G37*
G36*
X196500Y509000D02*Y506000D01*
X206000D01*
Y509000D01*
X196500D01*
G37*
G36*
Y514000D02*Y511000D01*
X206000D01*
Y514000D01*
X196500D01*
G37*
G36*
Y519000D02*Y516000D01*
X206000D01*
Y519000D01*
X196500D01*
G37*
G36*
Y524000D02*Y521000D01*
X206000D01*
Y524000D01*
X196500D01*
G37*
G36*
X170000D02*Y521000D01*
X179500D01*
Y524000D01*
X170000D01*
G37*
G36*
Y519000D02*Y516000D01*
X179500D01*
Y519000D01*
X170000D01*
G37*
G36*
Y514000D02*Y511000D01*
X179500D01*
Y514000D01*
X170000D01*
G37*
G36*
Y509000D02*Y506000D01*
X179500D01*
Y509000D01*
X170000D01*
G37*
G36*
X192316Y534252D02*X186598D01*
Y527748D01*
X192316D01*
Y534252D01*
G37*
G36*
X199402D02*X193684D01*
Y527748D01*
X199402D01*
Y534252D01*
G37*
G36*
X192402Y501752D02*X186684D01*
Y495248D01*
X192402D01*
Y501752D01*
G37*
G36*
X185316D02*X179598D01*
Y495248D01*
X185316D01*
Y501752D01*
G37*
G54D64*X149500Y527000D03*
Y532000D03*
X154500Y527000D03*
Y532000D03*
G54D62*G36*
X150748Y515902D02*Y510184D01*
X157252D01*
Y515902D01*
X150748D01*
G37*
G36*
Y508816D02*Y503098D01*
X157252D01*
Y508816D01*
X150748D01*
G37*
G54D64*X159500Y527000D03*
Y532000D03*
G54D62*G36*
X147096Y517095D02*X142716D01*
Y508621D01*
X147096D01*
Y517095D01*
G37*
G36*
X141190D02*X136810D01*
Y500905D01*
X141190D01*
Y517095D01*
G37*
G36*
X144025Y506386D02*X133975D01*
Y494446D01*
X144025D01*
Y506386D01*
G37*
G36*
X140885Y509350D02*X139041Y507506D01*
X142305Y504242D01*
X144149Y506086D01*
X140885Y509350D01*
G37*
G36*
X138959Y507506D02*X137115Y509350D01*
X133851Y506086D01*
X135695Y504242D01*
X138959Y507506D01*
G37*
G36*
X135284Y517095D02*X130904D01*
Y508621D01*
X135284D01*
Y517095D01*
G37*
G36*
X127450Y544550D02*Y538450D01*
X135550D01*
Y544550D01*
X127450D01*
G37*
G36*
Y531550D02*Y525450D01*
X135550D01*
Y531550D01*
X127450D01*
G37*
G36*
X120248Y515902D02*Y510184D01*
X126752D01*
Y515902D01*
X120248D01*
G37*
G36*
Y508816D02*Y503098D01*
X126752D01*
Y508816D01*
X120248D01*
G37*
G36*
X108410Y514107D02*X105448D01*
Y507405D01*
X108410D01*
Y514107D01*
G37*
G36*
X96599D02*X93637D01*
Y507405D01*
X96599D01*
Y514107D01*
G37*
G36*
X100536D02*X97574D01*
Y507405D01*
X100536D01*
Y514107D01*
G37*
G36*
X104473D02*X101511D01*
Y507405D01*
X104473D01*
Y514107D01*
G37*
G36*
X92662Y499343D02*X87338D01*
Y491657D01*
X92662D01*
Y499343D01*
G37*
G36*
X114709D02*X109385D01*
Y491657D01*
X114709D01*
Y499343D01*
G37*
G36*
X108248Y544902D02*Y539184D01*
X114752D01*
Y544902D01*
X108248D01*
G37*
G36*
Y537816D02*Y532098D01*
X114752D01*
Y537816D01*
X108248D01*
G37*
G36*
X97248Y544902D02*Y539184D01*
X103752D01*
Y544902D01*
X97248D01*
G37*
G36*
Y537816D02*Y532098D01*
X103752D01*
Y537816D01*
X97248D01*
G37*
G36*
X231248Y559816D02*Y554098D01*
X237752D01*
Y559816D01*
X231248D01*
G37*
G36*
Y534816D02*Y529098D01*
X237752D01*
Y534816D01*
X231248D01*
G37*
G36*
Y541902D02*Y536184D01*
X237752D01*
Y541902D01*
X231248D01*
G37*
G36*
Y566902D02*Y561184D01*
X237752D01*
Y566902D01*
X231248D01*
G37*
G36*
Y584816D02*Y579098D01*
X237752D01*
Y584816D01*
X231248D01*
G37*
G36*
X216248Y581316D02*Y575598D01*
X222752D01*
Y581316D01*
X216248D01*
G37*
G36*
X213950Y576000D02*X207850D01*
Y567100D01*
X213950D01*
Y576000D01*
G37*
G36*
X231248Y591902D02*Y586184D01*
X237752D01*
Y591902D01*
X231248D01*
G37*
G36*
X216248Y588402D02*Y582684D01*
X222752D01*
Y588402D01*
X216248D01*
G37*
G36*
X213950Y611900D02*X207850D01*
Y603000D01*
X213950D01*
Y611900D01*
G37*
G36*
X217816Y556252D02*X212098D01*
Y549748D01*
X217816D01*
Y556252D01*
G37*
G36*
X217773Y565252D02*X212055D01*
Y558748D01*
X217773D01*
Y565252D01*
G37*
G36*
X201902Y558252D02*X196184D01*
Y551748D01*
X201902D01*
Y558252D01*
G37*
G36*
Y549252D02*X196184D01*
Y542748D01*
X201902D01*
Y549252D01*
G37*
G36*
X224902Y556252D02*X219184D01*
Y549748D01*
X224902D01*
Y556252D01*
G37*
G36*
X224859Y565252D02*X219141D01*
Y558748D01*
X224859D01*
Y565252D01*
G37*
G36*
X217816Y547252D02*X212098D01*
Y540748D01*
X217816D01*
Y547252D01*
G37*
G36*
X224902D02*X219184D01*
Y540748D01*
X224902D01*
Y547252D01*
G37*
G36*
X196150Y576000D02*X190050D01*
Y567100D01*
X196150D01*
Y576000D01*
G37*
G36*
X194816Y558252D02*X189098D01*
Y551748D01*
X194816D01*
Y558252D01*
G37*
G36*
Y549252D02*X189098D01*
Y542748D01*
X194816D01*
Y549252D01*
G37*
G36*
X180200Y541000D02*Y538000D01*
X184800D01*
Y541000D01*
X180200D01*
G37*
G36*
Y544900D02*Y541900D01*
X184800D01*
Y544900D01*
X180200D01*
G37*
G36*
Y548800D02*Y545800D01*
X184800D01*
Y548800D01*
X180200D01*
G37*
M02*
