G04 start of page 13 for group -3984 idx -3984 *
G04 Title: (unknown), fab *
G04 Creator: pcb 4.0.2 *
G04 CreationDate: Sun Oct 16 03:19:17 2022 UTC *
G04 For: ndholmes *
G04 Format: Gerber/RS-274X *
G04 PCB-Dimensions (mil): 3000.00 8100.00 *
G04 PCB-Coordinate-Origin: lower left *
%MOIN*%
%FSLAX25Y25*%
%LNFAB*%
%ADD85C,0.0100*%
%ADD84C,0.0075*%
%ADD83C,0.0060*%
%ADD82R,0.0080X0.0080*%
%ADD81C,0.0001*%
G54D81*G36*
X230600Y669966D02*X235966Y664600D01*
X235400Y664034D01*
X230034Y669400D01*
X230600Y669966D01*
G37*
G36*
X230034Y664600D02*X235400Y669966D01*
X235966Y669400D01*
X230600Y664034D01*
X230034Y664600D01*
G37*
G54D82*X231400Y668600D02*X234600D01*
X231400D02*Y665400D01*
X234600D01*
Y668600D02*Y665400D01*
G54D81*G36*
X64600Y785966D02*X69966Y780600D01*
X69400Y780034D01*
X64034Y785400D01*
X64600Y785966D01*
G37*
G36*
X64034Y780600D02*X69400Y785966D01*
X69966Y785400D01*
X64600Y780034D01*
X64034Y780600D01*
G37*
G54D82*X65400Y784600D02*X68600D01*
X65400D02*Y781400D01*
X68600D01*
Y784600D02*Y781400D01*
G54D81*G36*
X64600Y669966D02*X69966Y664600D01*
X69400Y664034D01*
X64034Y669400D01*
X64600Y669966D01*
G37*
G36*
X64034Y664600D02*X69400Y669966D01*
X69966Y669400D01*
X64600Y664034D01*
X64034Y664600D01*
G37*
G54D82*X65400Y668600D02*X68600D01*
X65400D02*Y665400D01*
X68600D01*
Y668600D02*Y665400D01*
G54D81*G36*
X230600Y785966D02*X235966Y780600D01*
X235400Y780034D01*
X230034Y785400D01*
X230600Y785966D01*
G37*
G36*
X230034Y780600D02*X235400Y785966D01*
X235966Y785400D01*
X230600Y780034D01*
X230034Y780600D01*
G37*
G54D82*X231400Y784600D02*X234600D01*
X231400D02*Y781400D01*
X234600D01*
Y784600D02*Y781400D01*
G54D81*G36*
X230600Y509966D02*X235966Y504600D01*
X235400Y504034D01*
X230034Y509400D01*
X230600Y509966D01*
G37*
G36*
X230034Y504600D02*X235400Y509966D01*
X235966Y509400D01*
X230600Y504034D01*
X230034Y504600D01*
G37*
G54D82*X231400Y508600D02*X234600D01*
X231400D02*Y505400D01*
X234600D01*
Y508600D02*Y505400D01*
G54D81*G36*
X64600Y625966D02*X69966Y620600D01*
X69400Y620034D01*
X64034Y625400D01*
X64600Y625966D01*
G37*
G36*
X64034Y620600D02*X69400Y625966D01*
X69966Y625400D01*
X64600Y620034D01*
X64034Y620600D01*
G37*
G54D82*X65400Y624600D02*X68600D01*
X65400D02*Y621400D01*
X68600D01*
Y624600D02*Y621400D01*
G54D81*G36*
X64600Y509966D02*X69966Y504600D01*
X69400Y504034D01*
X64034Y509400D01*
X64600Y509966D01*
G37*
G36*
X64034Y504600D02*X69400Y509966D01*
X69966Y509400D01*
X64600Y504034D01*
X64034Y504600D01*
G37*
G54D82*X65400Y508600D02*X68600D01*
X65400D02*Y505400D01*
X68600D01*
Y508600D02*Y505400D01*
G54D81*G36*
X230600Y625966D02*X235966Y620600D01*
X235400Y620034D01*
X230034Y625400D01*
X230600Y625966D01*
G37*
G36*
X230034Y620600D02*X235400Y625966D01*
X235966Y625400D01*
X230600Y620034D01*
X230034Y620600D01*
G37*
G54D82*X231400Y624600D02*X234600D01*
X231400D02*Y621400D01*
X234600D01*
Y624600D02*Y621400D01*
G54D81*G36*
X230600Y349966D02*X235966Y344600D01*
X235400Y344034D01*
X230034Y349400D01*
X230600Y349966D01*
G37*
G36*
X230034Y344600D02*X235400Y349966D01*
X235966Y349400D01*
X230600Y344034D01*
X230034Y344600D01*
G37*
G54D82*X231400Y348600D02*X234600D01*
X231400D02*Y345400D01*
X234600D01*
Y348600D02*Y345400D01*
G54D81*G36*
X64600Y465966D02*X69966Y460600D01*
X69400Y460034D01*
X64034Y465400D01*
X64600Y465966D01*
G37*
G36*
X64034Y460600D02*X69400Y465966D01*
X69966Y465400D01*
X64600Y460034D01*
X64034Y460600D01*
G37*
G54D82*X65400Y464600D02*X68600D01*
X65400D02*Y461400D01*
X68600D01*
Y464600D02*Y461400D01*
G54D81*G36*
X64600Y349966D02*X69966Y344600D01*
X69400Y344034D01*
X64034Y349400D01*
X64600Y349966D01*
G37*
G36*
X64034Y344600D02*X69400Y349966D01*
X69966Y349400D01*
X64600Y344034D01*
X64034Y344600D01*
G37*
G54D82*X65400Y348600D02*X68600D01*
X65400D02*Y345400D01*
X68600D01*
Y348600D02*Y345400D01*
G54D81*G36*
X230600Y465966D02*X235966Y460600D01*
X235400Y460034D01*
X230034Y465400D01*
X230600Y465966D01*
G37*
G36*
X230034Y460600D02*X235400Y465966D01*
X235966Y465400D01*
X230600Y460034D01*
X230034Y460600D01*
G37*
G54D82*X231400Y464600D02*X234600D01*
X231400D02*Y461400D01*
X234600D01*
Y464600D02*Y461400D01*
G54D81*G36*
X230600Y189966D02*X235966Y184600D01*
X235400Y184034D01*
X230034Y189400D01*
X230600Y189966D01*
G37*
G36*
X230034Y184600D02*X235400Y189966D01*
X235966Y189400D01*
X230600Y184034D01*
X230034Y184600D01*
G37*
G54D82*X231400Y188600D02*X234600D01*
X231400D02*Y185400D01*
X234600D01*
Y188600D02*Y185400D01*
G54D81*G36*
X64600Y305966D02*X69966Y300600D01*
X69400Y300034D01*
X64034Y305400D01*
X64600Y305966D01*
G37*
G36*
X64034Y300600D02*X69400Y305966D01*
X69966Y305400D01*
X64600Y300034D01*
X64034Y300600D01*
G37*
G54D82*X65400Y304600D02*X68600D01*
X65400D02*Y301400D01*
X68600D01*
Y304600D02*Y301400D01*
G54D81*G36*
X64600Y189966D02*X69966Y184600D01*
X69400Y184034D01*
X64034Y189400D01*
X64600Y189966D01*
G37*
G36*
X64034Y184600D02*X69400Y189966D01*
X69966Y189400D01*
X64600Y184034D01*
X64034Y184600D01*
G37*
G54D82*X65400Y188600D02*X68600D01*
X65400D02*Y185400D01*
X68600D01*
Y188600D02*Y185400D01*
G54D81*G36*
X230600Y305966D02*X235966Y300600D01*
X235400Y300034D01*
X230034Y305400D01*
X230600Y305966D01*
G37*
G36*
X230034Y300600D02*X235400Y305966D01*
X235966Y305400D01*
X230600Y300034D01*
X230034Y300600D01*
G37*
G54D82*X231400Y304600D02*X234600D01*
X231400D02*Y301400D01*
X234600D01*
Y304600D02*Y301400D01*
G54D81*G36*
X230600Y29966D02*X235966Y24600D01*
X235400Y24034D01*
X230034Y29400D01*
X230600Y29966D01*
G37*
G36*
X230034Y24600D02*X235400Y29966D01*
X235966Y29400D01*
X230600Y24034D01*
X230034Y24600D01*
G37*
G54D82*X231400Y28600D02*X234600D01*
X231400D02*Y25400D01*
X234600D01*
Y28600D02*Y25400D01*
G54D81*G36*
X64600Y145966D02*X69966Y140600D01*
X69400Y140034D01*
X64034Y145400D01*
X64600Y145966D01*
G37*
G36*
X64034Y140600D02*X69400Y145966D01*
X69966Y145400D01*
X64600Y140034D01*
X64034Y140600D01*
G37*
G54D82*X65400Y144600D02*X68600D01*
X65400D02*Y141400D01*
X68600D01*
Y144600D02*Y141400D01*
G54D81*G36*
X64600Y29966D02*X69966Y24600D01*
X69400Y24034D01*
X64034Y29400D01*
X64600Y29966D01*
G37*
G36*
X64034Y24600D02*X69400Y29966D01*
X69966Y29400D01*
X64600Y24034D01*
X64034Y24600D01*
G37*
G54D82*X65400Y28600D02*X68600D01*
X65400D02*Y25400D01*
X68600D01*
Y28600D02*Y25400D01*
G54D81*G36*
X230600Y145966D02*X235966Y140600D01*
X235400Y140034D01*
X230034Y145400D01*
X230600Y145966D01*
G37*
G36*
X230034Y140600D02*X235400Y145966D01*
X235966Y145400D01*
X230600Y140034D01*
X230034Y140600D01*
G37*
G54D82*X231400Y144600D02*X234600D01*
X231400D02*Y141400D01*
X234600D01*
Y144600D02*Y141400D01*
G54D81*G36*
X12600Y824216D02*X17966Y818850D01*
X17400Y818284D01*
X12034Y823650D01*
X12600Y824216D01*
G37*
G36*
X12034Y818850D02*X17400Y824216D01*
X17966Y823650D01*
X12600Y818284D01*
X12034Y818850D01*
G37*
G54D82*X13400Y822850D02*X16600D01*
X13400D02*Y819650D01*
X16600D01*
Y822850D02*Y819650D01*
G54D83*X135000Y823500D02*X136500Y820500D01*
X138000Y823500D01*
X136500Y820500D02*Y817500D01*
X139800Y820800D02*X142050D01*
X139800Y817500D02*X142800D01*
X139800Y823500D02*Y817500D01*
Y823500D02*X142800D01*
X147600D02*X148350Y822750D01*
X145350Y823500D02*X147600D01*
X144600Y822750D02*X145350Y823500D01*
X144600Y822750D02*Y821250D01*
X145350Y820500D01*
X147600D01*
X148350Y819750D01*
Y818250D01*
X147600Y817500D02*X148350Y818250D01*
X145350Y817500D02*X147600D01*
X144600Y818250D02*X145350Y817500D01*
X98000Y822750D02*X98750Y823500D01*
X101000D01*
X101750Y822750D01*
Y821250D01*
X98000Y817500D02*X101750Y821250D01*
X98000Y817500D02*X101750D01*
X103550Y818250D02*X104300Y817500D01*
X103550Y822750D02*Y818250D01*
Y822750D02*X104300Y823500D01*
X105800D01*
X106550Y822750D01*
Y818250D01*
X105800Y817500D02*X106550Y818250D01*
X104300Y817500D02*X105800D01*
X103550Y819000D02*X106550Y822000D01*
X45000Y818250D02*X45750Y817500D01*
X45000Y822750D02*Y818250D01*
Y822750D02*X45750Y823500D01*
X47250D01*
X48000Y822750D01*
Y818250D01*
X47250Y817500D02*X48000Y818250D01*
X45750Y817500D02*X47250D01*
X45000Y819000D02*X48000Y822000D01*
X49800Y817500D02*X50550D01*
X52350Y822300D02*X53550Y823500D01*
Y817500D01*
X52350D02*X54600D01*
X56400Y822750D02*X57150Y823500D01*
X59400D01*
X60150Y822750D01*
Y821250D01*
X56400Y817500D02*X60150Y821250D01*
X56400Y817500D02*X60150D01*
X62700D02*X64950Y820500D01*
Y822750D02*Y820500D01*
X64200Y823500D02*X64950Y822750D01*
X62700Y823500D02*X64200D01*
X61950Y822750D02*X62700Y823500D01*
X61950Y822750D02*Y821250D01*
X62700Y820500D01*
X64950D01*
X135000Y792700D02*Y786300D01*
X131800Y789500D02*X138200D01*
X133400Y791100D02*X136600D01*
X133400D02*Y787900D01*
X136600D01*
Y791100D02*Y787900D01*
X135000Y738700D02*Y732300D01*
X131800Y735500D02*X138200D01*
X133400Y737100D02*X136600D01*
X133400D02*Y733900D01*
X136600D01*
Y737100D02*Y733900D01*
X135000Y632700D02*Y626300D01*
X131800Y629500D02*X138200D01*
X133400Y631100D02*X136600D01*
X133400D02*Y627900D01*
X136600D01*
Y631100D02*Y627900D01*
X135000Y578700D02*Y572300D01*
X131800Y575500D02*X138200D01*
X133400Y577100D02*X136600D01*
X133400D02*Y573900D01*
X136600D01*
Y577100D02*Y573900D01*
X135000Y472700D02*Y466300D01*
X131800Y469500D02*X138200D01*
X133400Y471100D02*X136600D01*
X133400D02*Y467900D01*
X136600D01*
Y471100D02*Y467900D01*
X135000Y418700D02*Y412300D01*
X131800Y415500D02*X138200D01*
X133400Y417100D02*X136600D01*
X133400D02*Y413900D01*
X136600D01*
Y417100D02*Y413900D01*
X135000Y312700D02*Y306300D01*
X131800Y309500D02*X138200D01*
X133400Y311100D02*X136600D01*
X133400D02*Y307900D01*
X136600D01*
Y311100D02*Y307900D01*
X135000Y258700D02*Y252300D01*
X131800Y255500D02*X138200D01*
X133400Y257100D02*X136600D01*
X133400D02*Y253900D01*
X136600D01*
Y257100D02*Y253900D01*
X135000Y152700D02*Y146300D01*
X131800Y149500D02*X138200D01*
X133400Y151100D02*X136600D01*
X133400D02*Y147900D01*
X136600D01*
Y151100D02*Y147900D01*
X135000Y98700D02*Y92300D01*
X131800Y95500D02*X138200D01*
X133400Y97100D02*X136600D01*
X133400D02*Y93900D01*
X136600D01*
Y97100D02*Y93900D01*
X15000Y839450D02*Y833050D01*
X11800Y836250D02*X18200D01*
X13400Y837850D02*X16600D01*
X13400D02*Y834650D01*
X16600D01*
Y837850D02*Y834650D01*
X135000Y838500D02*X136500Y835500D01*
X138000Y838500D01*
X136500Y835500D02*Y832500D01*
X139800Y835800D02*X142050D01*
X139800Y832500D02*X142800D01*
X139800Y838500D02*Y832500D01*
Y838500D02*X142800D01*
X147600D02*X148350Y837750D01*
X145350Y838500D02*X147600D01*
X144600Y837750D02*X145350Y838500D01*
X144600Y837750D02*Y836250D01*
X145350Y835500D01*
X147600D01*
X148350Y834750D01*
Y833250D01*
X147600Y832500D02*X148350Y833250D01*
X145350Y832500D02*X147600D01*
X144600Y833250D02*X145350Y832500D01*
X98000Y837300D02*X99200Y838500D01*
Y832500D01*
X98000D02*X100250D01*
X102050Y833250D02*X102800Y832500D01*
X102050Y837750D02*Y833250D01*
Y837750D02*X102800Y838500D01*
X104300D01*
X105050Y837750D01*
Y833250D01*
X104300Y832500D02*X105050Y833250D01*
X102800Y832500D02*X104300D01*
X102050Y834000D02*X105050Y837000D01*
X45000Y833250D02*X45750Y832500D01*
X45000Y837750D02*Y833250D01*
Y837750D02*X45750Y838500D01*
X47250D01*
X48000Y837750D01*
Y833250D01*
X47250Y832500D02*X48000Y833250D01*
X45750Y832500D02*X47250D01*
X45000Y834000D02*X48000Y837000D01*
X49800Y832500D02*X50550D01*
X52350Y833250D02*X53100Y832500D01*
X52350Y837750D02*Y833250D01*
Y837750D02*X53100Y838500D01*
X54600D01*
X55350Y837750D01*
Y833250D01*
X54600Y832500D02*X55350Y833250D01*
X53100Y832500D02*X54600D01*
X52350Y834000D02*X55350Y837000D01*
X59400Y838500D02*X60150Y837750D01*
X57900Y838500D02*X59400D01*
X57150Y837750D02*X57900Y838500D01*
X57150Y837750D02*Y833250D01*
X57900Y832500D01*
X59400Y835800D02*X60150Y835050D01*
X57150Y835800D02*X59400D01*
X57900Y832500D02*X59400D01*
X60150Y833250D01*
Y835050D02*Y833250D01*
X61950D02*X62700Y832500D01*
X61950Y834450D02*Y833250D01*
Y834450D02*X63000Y835500D01*
X63900D01*
X64950Y834450D01*
Y833250D01*
X64200Y832500D02*X64950Y833250D01*
X62700Y832500D02*X64200D01*
X61950Y836550D02*X63000Y835500D01*
X61950Y837750D02*Y836550D01*
Y837750D02*X62700Y838500D01*
X64200D01*
X64950Y837750D01*
Y836550D01*
X63900Y835500D02*X64950Y836550D01*
X81000Y764300D02*Y761100D01*
Y764300D02*X83773Y765900D01*
X81000Y764300D02*X78227Y765900D01*
X79400Y764300D02*G75*G03X82600Y764300I1600J0D01*G01*
G75*G03X79400Y764300I-1600J0D01*G01*
X81000Y748700D02*Y745500D01*
Y748700D02*X83773Y750300D01*
X81000Y748700D02*X78227Y750300D01*
X79400Y748700D02*G75*G03X82600Y748700I1600J0D01*G01*
G75*G03X79400Y748700I-1600J0D01*G01*
X81000Y733100D02*Y729900D01*
Y733100D02*X83773Y734700D01*
X81000Y733100D02*X78227Y734700D01*
X79400Y733100D02*G75*G03X82600Y733100I1600J0D01*G01*
G75*G03X79400Y733100I-1600J0D01*G01*
X81000Y717500D02*Y714300D01*
Y717500D02*X83773Y719100D01*
X81000Y717500D02*X78227Y719100D01*
X79400Y717500D02*G75*G03X82600Y717500I1600J0D01*G01*
G75*G03X79400Y717500I-1600J0D01*G01*
X81000Y701900D02*Y698700D01*
Y701900D02*X83773Y703500D01*
X81000Y701900D02*X78227Y703500D01*
X79400Y701900D02*G75*G03X82600Y701900I1600J0D01*G01*
G75*G03X79400Y701900I-1600J0D01*G01*
X81000Y686300D02*Y683100D01*
Y686300D02*X83773Y687900D01*
X81000Y686300D02*X78227Y687900D01*
X79400Y686300D02*G75*G03X82600Y686300I1600J0D01*G01*
G75*G03X79400Y686300I-1600J0D01*G01*
X81000Y604300D02*Y601100D01*
Y604300D02*X83773Y605900D01*
X81000Y604300D02*X78227Y605900D01*
X79400Y604300D02*G75*G03X82600Y604300I1600J0D01*G01*
G75*G03X79400Y604300I-1600J0D01*G01*
X81000Y588700D02*Y585500D01*
Y588700D02*X83773Y590300D01*
X81000Y588700D02*X78227Y590300D01*
X79400Y588700D02*G75*G03X82600Y588700I1600J0D01*G01*
G75*G03X79400Y588700I-1600J0D01*G01*
X81000Y573100D02*Y569900D01*
Y573100D02*X83773Y574700D01*
X81000Y573100D02*X78227Y574700D01*
X79400Y573100D02*G75*G03X82600Y573100I1600J0D01*G01*
G75*G03X79400Y573100I-1600J0D01*G01*
X81000Y557500D02*Y554300D01*
Y557500D02*X83773Y559100D01*
X81000Y557500D02*X78227Y559100D01*
X79400Y557500D02*G75*G03X82600Y557500I1600J0D01*G01*
G75*G03X79400Y557500I-1600J0D01*G01*
X81000Y541900D02*Y538700D01*
Y541900D02*X83773Y543500D01*
X81000Y541900D02*X78227Y543500D01*
X79400Y541900D02*G75*G03X82600Y541900I1600J0D01*G01*
G75*G03X79400Y541900I-1600J0D01*G01*
X81000Y526300D02*Y523100D01*
Y526300D02*X83773Y527900D01*
X81000Y526300D02*X78227Y527900D01*
X79400Y526300D02*G75*G03X82600Y526300I1600J0D01*G01*
G75*G03X79400Y526300I-1600J0D01*G01*
X81000Y444300D02*Y441100D01*
Y444300D02*X83773Y445900D01*
X81000Y444300D02*X78227Y445900D01*
X79400Y444300D02*G75*G03X82600Y444300I1600J0D01*G01*
G75*G03X79400Y444300I-1600J0D01*G01*
X81000Y428700D02*Y425500D01*
Y428700D02*X83773Y430300D01*
X81000Y428700D02*X78227Y430300D01*
X79400Y428700D02*G75*G03X82600Y428700I1600J0D01*G01*
G75*G03X79400Y428700I-1600J0D01*G01*
X81000Y413100D02*Y409900D01*
Y413100D02*X83773Y414700D01*
X81000Y413100D02*X78227Y414700D01*
X79400Y413100D02*G75*G03X82600Y413100I1600J0D01*G01*
G75*G03X79400Y413100I-1600J0D01*G01*
X81000Y397500D02*Y394300D01*
Y397500D02*X83773Y399100D01*
X81000Y397500D02*X78227Y399100D01*
X79400Y397500D02*G75*G03X82600Y397500I1600J0D01*G01*
G75*G03X79400Y397500I-1600J0D01*G01*
X81000Y381900D02*Y378700D01*
Y381900D02*X83773Y383500D01*
X81000Y381900D02*X78227Y383500D01*
X79400Y381900D02*G75*G03X82600Y381900I1600J0D01*G01*
G75*G03X79400Y381900I-1600J0D01*G01*
X81000Y366300D02*Y363100D01*
Y366300D02*X83773Y367900D01*
X81000Y366300D02*X78227Y367900D01*
X79400Y366300D02*G75*G03X82600Y366300I1600J0D01*G01*
G75*G03X79400Y366300I-1600J0D01*G01*
X81000Y284300D02*Y281100D01*
Y284300D02*X83773Y285900D01*
X81000Y284300D02*X78227Y285900D01*
X79400Y284300D02*G75*G03X82600Y284300I1600J0D01*G01*
G75*G03X79400Y284300I-1600J0D01*G01*
X81000Y268700D02*Y265500D01*
Y268700D02*X83773Y270300D01*
X81000Y268700D02*X78227Y270300D01*
X79400Y268700D02*G75*G03X82600Y268700I1600J0D01*G01*
G75*G03X79400Y268700I-1600J0D01*G01*
X81000Y253100D02*Y249900D01*
Y253100D02*X83773Y254700D01*
X81000Y253100D02*X78227Y254700D01*
X79400Y253100D02*G75*G03X82600Y253100I1600J0D01*G01*
G75*G03X79400Y253100I-1600J0D01*G01*
X81000Y237500D02*Y234300D01*
Y237500D02*X83773Y239100D01*
X81000Y237500D02*X78227Y239100D01*
X79400Y237500D02*G75*G03X82600Y237500I1600J0D01*G01*
G75*G03X79400Y237500I-1600J0D01*G01*
X81000Y221900D02*Y218700D01*
Y221900D02*X83773Y223500D01*
X81000Y221900D02*X78227Y223500D01*
X79400Y221900D02*G75*G03X82600Y221900I1600J0D01*G01*
G75*G03X79400Y221900I-1600J0D01*G01*
X81000Y206300D02*Y203100D01*
Y206300D02*X83773Y207900D01*
X81000Y206300D02*X78227Y207900D01*
X79400Y206300D02*G75*G03X82600Y206300I1600J0D01*G01*
G75*G03X79400Y206300I-1600J0D01*G01*
X81000Y124300D02*Y121100D01*
Y124300D02*X83773Y125900D01*
X81000Y124300D02*X78227Y125900D01*
X79400Y124300D02*G75*G03X82600Y124300I1600J0D01*G01*
G75*G03X79400Y124300I-1600J0D01*G01*
X81000Y108700D02*Y105500D01*
Y108700D02*X83773Y110300D01*
X81000Y108700D02*X78227Y110300D01*
X79400Y108700D02*G75*G03X82600Y108700I1600J0D01*G01*
G75*G03X79400Y108700I-1600J0D01*G01*
X81000Y93100D02*Y89900D01*
Y93100D02*X83773Y94700D01*
X81000Y93100D02*X78227Y94700D01*
X79400Y93100D02*G75*G03X82600Y93100I1600J0D01*G01*
G75*G03X79400Y93100I-1600J0D01*G01*
X81000Y77500D02*Y74300D01*
Y77500D02*X83773Y79100D01*
X81000Y77500D02*X78227Y79100D01*
X79400Y77500D02*G75*G03X82600Y77500I1600J0D01*G01*
G75*G03X79400Y77500I-1600J0D01*G01*
X81000Y61900D02*Y58700D01*
Y61900D02*X83773Y63500D01*
X81000Y61900D02*X78227Y63500D01*
X79400Y61900D02*G75*G03X82600Y61900I1600J0D01*G01*
G75*G03X79400Y61900I-1600J0D01*G01*
X81000Y46300D02*Y43100D01*
Y46300D02*X83773Y47900D01*
X81000Y46300D02*X78227Y47900D01*
X79400Y46300D02*G75*G03X82600Y46300I1600J0D01*G01*
G75*G03X79400Y46300I-1600J0D01*G01*
X15000Y851250D02*Y848050D01*
Y851250D02*X17773Y852850D01*
X15000Y851250D02*X12227Y852850D01*
X13400Y851250D02*G75*G03X16600Y851250I1600J0D01*G01*
G75*G03X13400Y851250I-1600J0D01*G01*
X135000Y853500D02*X136500Y850500D01*
X138000Y853500D01*
X136500Y850500D02*Y847500D01*
X139800Y850800D02*X142050D01*
X139800Y847500D02*X142800D01*
X139800Y853500D02*Y847500D01*
Y853500D02*X142800D01*
X147600D02*X148350Y852750D01*
X145350Y853500D02*X147600D01*
X144600Y852750D02*X145350Y853500D01*
X144600Y852750D02*Y851250D01*
X145350Y850500D01*
X147600D01*
X148350Y849750D01*
Y848250D01*
X147600Y847500D02*X148350Y848250D01*
X145350Y847500D02*X147600D01*
X144600Y848250D02*X145350Y847500D01*
X98000Y852750D02*X98750Y853500D01*
X100250D01*
X101000Y852750D01*
X100250Y847500D02*X101000Y848250D01*
X98750Y847500D02*X100250D01*
X98000Y848250D02*X98750Y847500D01*
Y850800D02*X100250D01*
X101000Y852750D02*Y851550D01*
Y850050D02*Y848250D01*
Y850050D02*X100250Y850800D01*
X101000Y851550D02*X100250Y850800D01*
X102800Y848250D02*X103550Y847500D01*
X102800Y852750D02*Y848250D01*
Y852750D02*X103550Y853500D01*
X105050D01*
X105800Y852750D01*
Y848250D01*
X105050Y847500D02*X105800Y848250D01*
X103550Y847500D02*X105050D01*
X102800Y849000D02*X105800Y852000D01*
X45000Y848250D02*X45750Y847500D01*
X45000Y852750D02*Y848250D01*
Y852750D02*X45750Y853500D01*
X47250D01*
X48000Y852750D01*
Y848250D01*
X47250Y847500D02*X48000Y848250D01*
X45750Y847500D02*X47250D01*
X45000Y849000D02*X48000Y852000D01*
X49800Y847500D02*X50550D01*
X52350Y848250D02*X53100Y847500D01*
X52350Y852750D02*Y848250D01*
Y852750D02*X53100Y853500D01*
X54600D01*
X55350Y852750D01*
Y848250D01*
X54600Y847500D02*X55350Y848250D01*
X53100Y847500D02*X54600D01*
X52350Y849000D02*X55350Y852000D01*
X59400Y853500D02*X60150Y852750D01*
X57900Y853500D02*X59400D01*
X57150Y852750D02*X57900Y853500D01*
X57150Y852750D02*Y848250D01*
X57900Y847500D01*
X59400Y850800D02*X60150Y850050D01*
X57150Y850800D02*X59400D01*
X57900Y847500D02*X59400D01*
X60150Y848250D01*
Y850050D02*Y848250D01*
X61950D02*X62700Y847500D01*
X61950Y852750D02*Y848250D01*
Y852750D02*X62700Y853500D01*
X64200D01*
X64950Y852750D01*
Y848250D01*
X64200Y847500D02*X64950Y848250D01*
X62700Y847500D02*X64200D01*
X61950Y849000D02*X64950Y852000D01*
X68400Y717100D02*X71600D01*
X68400D02*Y713900D01*
X71600D01*
Y717100D02*Y713900D01*
X68400Y697100D02*X71600D01*
X68400D02*Y693900D01*
X71600D01*
Y697100D02*Y693900D01*
X158400Y764100D02*X161600D01*
X158400D02*Y760900D01*
X161600D01*
Y764100D02*Y760900D01*
X108400Y764100D02*X111600D01*
X108400D02*Y760900D01*
X111600D01*
Y764100D02*Y760900D01*
X68400Y757100D02*X71600D01*
X68400D02*Y753900D01*
X71600D01*
Y757100D02*Y753900D01*
X68400Y737100D02*X71600D01*
X68400D02*Y733900D01*
X71600D01*
Y737100D02*Y733900D01*
X68400Y557100D02*X71600D01*
X68400D02*Y553900D01*
X71600D01*
Y557100D02*Y553900D01*
X68400Y537100D02*X71600D01*
X68400D02*Y533900D01*
X71600D01*
Y537100D02*Y533900D01*
X158400Y604100D02*X161600D01*
X158400D02*Y600900D01*
X161600D01*
Y604100D02*Y600900D01*
X108400Y604100D02*X111600D01*
X108400D02*Y600900D01*
X111600D01*
Y604100D02*Y600900D01*
X68400Y597100D02*X71600D01*
X68400D02*Y593900D01*
X71600D01*
Y597100D02*Y593900D01*
X68400Y577100D02*X71600D01*
X68400D02*Y573900D01*
X71600D01*
Y577100D02*Y573900D01*
X68400Y397100D02*X71600D01*
X68400D02*Y393900D01*
X71600D01*
Y397100D02*Y393900D01*
X68400Y377100D02*X71600D01*
X68400D02*Y373900D01*
X71600D01*
Y377100D02*Y373900D01*
X158400Y444100D02*X161600D01*
X158400D02*Y440900D01*
X161600D01*
Y444100D02*Y440900D01*
X108400Y444100D02*X111600D01*
X108400D02*Y440900D01*
X111600D01*
Y444100D02*Y440900D01*
X68400Y437100D02*X71600D01*
X68400D02*Y433900D01*
X71600D01*
Y437100D02*Y433900D01*
X68400Y417100D02*X71600D01*
X68400D02*Y413900D01*
X71600D01*
Y417100D02*Y413900D01*
X68400Y237100D02*X71600D01*
X68400D02*Y233900D01*
X71600D01*
Y237100D02*Y233900D01*
X68400Y217100D02*X71600D01*
X68400D02*Y213900D01*
X71600D01*
Y217100D02*Y213900D01*
X158400Y284100D02*X161600D01*
X158400D02*Y280900D01*
X161600D01*
Y284100D02*Y280900D01*
X108400Y284100D02*X111600D01*
X108400D02*Y280900D01*
X111600D01*
Y284100D02*Y280900D01*
X68400Y277100D02*X71600D01*
X68400D02*Y273900D01*
X71600D01*
Y277100D02*Y273900D01*
X68400Y257100D02*X71600D01*
X68400D02*Y253900D01*
X71600D01*
Y257100D02*Y253900D01*
X68400Y77100D02*X71600D01*
X68400D02*Y73900D01*
X71600D01*
Y77100D02*Y73900D01*
X68400Y57100D02*X71600D01*
X68400D02*Y53900D01*
X71600D01*
Y57100D02*Y53900D01*
X158400Y124100D02*X161600D01*
X158400D02*Y120900D01*
X161600D01*
Y124100D02*Y120900D01*
X108400Y124100D02*X111600D01*
X108400D02*Y120900D01*
X111600D01*
Y124100D02*Y120900D01*
X68400Y117100D02*X71600D01*
X68400D02*Y113900D01*
X71600D01*
Y117100D02*Y113900D01*
X68400Y97100D02*X71600D01*
X68400D02*Y93900D01*
X71600D01*
Y97100D02*Y93900D01*
X13400Y867850D02*X16600D01*
X13400D02*Y864650D01*
X16600D01*
Y867850D02*Y864650D01*
X135000Y868500D02*X136500Y865500D01*
X138000Y868500D01*
X136500Y865500D02*Y862500D01*
X139800Y865800D02*X142050D01*
X139800Y862500D02*X142800D01*
X139800Y868500D02*Y862500D01*
Y868500D02*X142800D01*
X147600D02*X148350Y867750D01*
X145350Y868500D02*X147600D01*
X144600Y867750D02*X145350Y868500D01*
X144600Y867750D02*Y866250D01*
X145350Y865500D01*
X147600D01*
X148350Y864750D01*
Y863250D01*
X147600Y862500D02*X148350Y863250D01*
X145350Y862500D02*X147600D01*
X144600Y863250D02*X145350Y862500D01*
X98000Y867750D02*X98750Y868500D01*
X100250D01*
X101000Y867750D01*
X100250Y862500D02*X101000Y863250D01*
X98750Y862500D02*X100250D01*
X98000Y863250D02*X98750Y862500D01*
Y865800D02*X100250D01*
X101000Y867750D02*Y866550D01*
Y865050D02*Y863250D01*
Y865050D02*X100250Y865800D01*
X101000Y866550D02*X100250Y865800D01*
X102800Y863250D02*X103550Y862500D01*
X102800Y867750D02*Y863250D01*
Y867750D02*X103550Y868500D01*
X105050D01*
X105800Y867750D01*
Y863250D01*
X105050Y862500D02*X105800Y863250D01*
X103550Y862500D02*X105050D01*
X102800Y864000D02*X105800Y867000D01*
X45000Y863250D02*X45750Y862500D01*
X45000Y867750D02*Y863250D01*
Y867750D02*X45750Y868500D01*
X47250D01*
X48000Y867750D01*
Y863250D01*
X47250Y862500D02*X48000Y863250D01*
X45750Y862500D02*X47250D01*
X45000Y864000D02*X48000Y867000D01*
X49800Y862500D02*X50550D01*
X52350Y863250D02*X53100Y862500D01*
X52350Y867750D02*Y863250D01*
Y867750D02*X53100Y868500D01*
X54600D01*
X55350Y867750D01*
Y863250D01*
X54600Y862500D02*X55350Y863250D01*
X53100Y862500D02*X54600D01*
X52350Y864000D02*X55350Y867000D01*
X57150Y864750D02*X60150Y868500D01*
X57150Y864750D02*X60900D01*
X60150Y868500D02*Y862500D01*
X62700Y863250D02*X63450Y862500D01*
X62700Y864450D02*Y863250D01*
Y864450D02*X63750Y865500D01*
X64650D01*
X65700Y864450D01*
Y863250D01*
X64950Y862500D02*X65700Y863250D01*
X63450Y862500D02*X64950D01*
X62700Y866550D02*X63750Y865500D01*
X62700Y867750D02*Y866550D01*
Y867750D02*X63450Y868500D01*
X64950D01*
X65700Y867750D01*
Y866550D01*
X64650Y865500D02*X65700Y866550D01*
X143700Y689500D02*G75*G03X145300Y689500I800J0D01*G01*
G75*G03X143700Y689500I-800J0D01*G01*
X163700Y693500D02*G75*G03X165300Y693500I800J0D01*G01*
G75*G03X163700Y693500I-800J0D01*G01*
Y685500D02*G75*G03X165300Y685500I800J0D01*G01*
G75*G03X163700Y685500I-800J0D01*G01*
X143700Y529500D02*G75*G03X145300Y529500I800J0D01*G01*
G75*G03X143700Y529500I-800J0D01*G01*
X163700Y533500D02*G75*G03X165300Y533500I800J0D01*G01*
G75*G03X163700Y533500I-800J0D01*G01*
Y525500D02*G75*G03X165300Y525500I800J0D01*G01*
G75*G03X163700Y525500I-800J0D01*G01*
X143700Y369500D02*G75*G03X145300Y369500I800J0D01*G01*
G75*G03X143700Y369500I-800J0D01*G01*
X163700Y373500D02*G75*G03X165300Y373500I800J0D01*G01*
G75*G03X163700Y373500I-800J0D01*G01*
Y365500D02*G75*G03X165300Y365500I800J0D01*G01*
G75*G03X163700Y365500I-800J0D01*G01*
X143700Y209500D02*G75*G03X145300Y209500I800J0D01*G01*
G75*G03X143700Y209500I-800J0D01*G01*
X163700Y213500D02*G75*G03X165300Y213500I800J0D01*G01*
G75*G03X163700Y213500I-800J0D01*G01*
Y205500D02*G75*G03X165300Y205500I800J0D01*G01*
G75*G03X163700Y205500I-800J0D01*G01*
X143700Y49500D02*G75*G03X145300Y49500I800J0D01*G01*
G75*G03X143700Y49500I-800J0D01*G01*
X163700Y53500D02*G75*G03X165300Y53500I800J0D01*G01*
G75*G03X163700Y53500I-800J0D01*G01*
Y45500D02*G75*G03X165300Y45500I800J0D01*G01*
G75*G03X163700Y45500I-800J0D01*G01*
X14200Y881250D02*G75*G03X15800Y881250I800J0D01*G01*
G75*G03X14200Y881250I-800J0D01*G01*
X140000Y883500D02*Y877500D01*
Y883500D02*X143750Y877500D01*
Y883500D02*Y877500D01*
X145550Y882750D02*Y878250D01*
Y882750D02*X146300Y883500D01*
X147800D01*
X148550Y882750D01*
Y878250D01*
X147800Y877500D02*X148550Y878250D01*
X146300Y877500D02*X147800D01*
X145550Y878250D02*X146300Y877500D01*
X98000Y882300D02*X99200Y883500D01*
Y877500D01*
X98000D02*X100250D01*
X102050Y883500D02*X105050D01*
X102050D02*Y880500D01*
X102800Y881250D01*
X104300D01*
X105050Y880500D01*
Y878250D01*
X104300Y877500D02*X105050Y878250D01*
X102800Y877500D02*X104300D01*
X102050Y878250D02*X102800Y877500D01*
X45000Y878250D02*X45750Y877500D01*
X45000Y882750D02*Y878250D01*
Y882750D02*X45750Y883500D01*
X47250D01*
X48000Y882750D01*
Y878250D01*
X47250Y877500D02*X48000Y878250D01*
X45750Y877500D02*X47250D01*
X45000Y879000D02*X48000Y882000D01*
X49800Y877500D02*X50550D01*
X52350Y878250D02*X53100Y877500D01*
X52350Y882750D02*Y878250D01*
Y882750D02*X53100Y883500D01*
X54600D01*
X55350Y882750D01*
Y878250D01*
X54600Y877500D02*X55350Y878250D01*
X53100Y877500D02*X54600D01*
X52350Y879000D02*X55350Y882000D01*
X57150Y882750D02*X57900Y883500D01*
X59400D01*
X60150Y882750D01*
X59400Y877500D02*X60150Y878250D01*
X57900Y877500D02*X59400D01*
X57150Y878250D02*X57900Y877500D01*
Y880800D02*X59400D01*
X60150Y882750D02*Y881550D01*
Y880050D02*Y878250D01*
Y880050D02*X59400Y880800D01*
X60150Y881550D02*X59400Y880800D01*
X62700Y877500D02*X64950Y880500D01*
Y882750D02*Y880500D01*
X64200Y883500D02*X64950Y882750D01*
X62700Y883500D02*X64200D01*
X61950Y882750D02*X62700Y883500D01*
X61950Y882750D02*Y881250D01*
X62700Y880500D01*
X64950D01*
X257800Y721200D02*X260200Y718800D01*
X257800D02*X260200Y721200D01*
X257800Y726200D02*X260200Y723800D01*
X257800D02*X260200Y726200D01*
X257800Y731200D02*X260200Y728800D01*
X257800D02*X260200Y731200D01*
X249800Y726200D02*X252200Y723800D01*
X249800D02*X252200Y726200D01*
X249800Y721200D02*X252200Y718800D01*
X249800D02*X252200Y721200D01*
X249800Y731200D02*X252200Y728800D01*
X249800D02*X252200Y731200D01*
X257800Y561200D02*X260200Y558800D01*
X257800D02*X260200Y561200D01*
X257800Y566200D02*X260200Y563800D01*
X257800D02*X260200Y566200D01*
X257800Y571200D02*X260200Y568800D01*
X257800D02*X260200Y571200D01*
X249800Y566200D02*X252200Y563800D01*
X249800D02*X252200Y566200D01*
X249800Y561200D02*X252200Y558800D01*
X249800D02*X252200Y561200D01*
X249800Y571200D02*X252200Y568800D01*
X249800D02*X252200Y571200D01*
X39800Y561200D02*X42200Y558800D01*
X39800D02*X42200Y561200D01*
X39800Y566200D02*X42200Y563800D01*
X39800D02*X42200Y566200D01*
X39800Y571200D02*X42200Y568800D01*
X39800D02*X42200Y571200D01*
X47800Y566200D02*X50200Y563800D01*
X47800D02*X50200Y566200D01*
X47800Y561200D02*X50200Y558800D01*
X47800D02*X50200Y561200D01*
X47800Y571200D02*X50200Y568800D01*
X47800D02*X50200Y571200D01*
X257800Y401200D02*X260200Y398800D01*
X257800D02*X260200Y401200D01*
X257800Y406200D02*X260200Y403800D01*
X257800D02*X260200Y406200D01*
X257800Y411200D02*X260200Y408800D01*
X257800D02*X260200Y411200D01*
X249800Y406200D02*X252200Y403800D01*
X249800D02*X252200Y406200D01*
X249800Y401200D02*X252200Y398800D01*
X249800D02*X252200Y401200D01*
X249800Y411200D02*X252200Y408800D01*
X249800D02*X252200Y411200D01*
X39800Y401200D02*X42200Y398800D01*
X39800D02*X42200Y401200D01*
X39800Y406200D02*X42200Y403800D01*
X39800D02*X42200Y406200D01*
X39800Y411200D02*X42200Y408800D01*
X39800D02*X42200Y411200D01*
X47800Y406200D02*X50200Y403800D01*
X47800D02*X50200Y406200D01*
X47800Y401200D02*X50200Y398800D01*
X47800D02*X50200Y401200D01*
X47800Y411200D02*X50200Y408800D01*
X47800D02*X50200Y411200D01*
X257800Y241200D02*X260200Y238800D01*
X257800D02*X260200Y241200D01*
X257800Y246200D02*X260200Y243800D01*
X257800D02*X260200Y246200D01*
X257800Y251200D02*X260200Y248800D01*
X257800D02*X260200Y251200D01*
X249800Y246200D02*X252200Y243800D01*
X249800D02*X252200Y246200D01*
X249800Y241200D02*X252200Y238800D01*
X249800D02*X252200Y241200D01*
X249800Y251200D02*X252200Y248800D01*
X249800D02*X252200Y251200D01*
X39800Y241200D02*X42200Y238800D01*
X39800D02*X42200Y241200D01*
X39800Y246200D02*X42200Y243800D01*
X39800D02*X42200Y246200D01*
X39800Y251200D02*X42200Y248800D01*
X39800D02*X42200Y251200D01*
X47800Y246200D02*X50200Y243800D01*
X47800D02*X50200Y246200D01*
X47800Y241200D02*X50200Y238800D01*
X47800D02*X50200Y241200D01*
X47800Y251200D02*X50200Y248800D01*
X47800D02*X50200Y251200D01*
X257800Y81200D02*X260200Y78800D01*
X257800D02*X260200Y81200D01*
X257800Y86200D02*X260200Y83800D01*
X257800D02*X260200Y86200D01*
X257800Y91200D02*X260200Y88800D01*
X257800D02*X260200Y91200D01*
X249800Y86200D02*X252200Y83800D01*
X249800D02*X252200Y86200D01*
X249800Y81200D02*X252200Y78800D01*
X249800D02*X252200Y81200D01*
X249800Y91200D02*X252200Y88800D01*
X249800D02*X252200Y91200D01*
X39800Y81200D02*X42200Y78800D01*
X39800D02*X42200Y81200D01*
X39800Y86200D02*X42200Y83800D01*
X39800D02*X42200Y86200D01*
X39800Y91200D02*X42200Y88800D01*
X39800D02*X42200Y91200D01*
X47800Y86200D02*X50200Y83800D01*
X47800D02*X50200Y86200D01*
X47800Y81200D02*X50200Y78800D01*
X47800D02*X50200Y81200D01*
X47800Y91200D02*X50200Y88800D01*
X47800D02*X50200Y91200D01*
X148800Y650200D02*X151200Y647800D01*
X148800D02*X151200Y650200D01*
X153800D02*X156200Y647800D01*
X153800D02*X156200Y650200D01*
X143800D02*X146200Y647800D01*
X143800D02*X146200Y650200D01*
X143800Y642200D02*X146200Y639800D01*
X143800D02*X146200Y642200D01*
X148800D02*X151200Y639800D01*
X148800D02*X151200Y642200D01*
X153800D02*X156200Y639800D01*
X153800D02*X156200Y642200D01*
X148800Y490200D02*X151200Y487800D01*
X148800D02*X151200Y490200D01*
X153800D02*X156200Y487800D01*
X153800D02*X156200Y490200D01*
X143800D02*X146200Y487800D01*
X143800D02*X146200Y490200D01*
X143800Y482200D02*X146200Y479800D01*
X143800D02*X146200Y482200D01*
X148800D02*X151200Y479800D01*
X148800D02*X151200Y482200D01*
X153800D02*X156200Y479800D01*
X153800D02*X156200Y482200D01*
X148800Y330200D02*X151200Y327800D01*
X148800D02*X151200Y330200D01*
X153800D02*X156200Y327800D01*
X153800D02*X156200Y330200D01*
X143800D02*X146200Y327800D01*
X143800D02*X146200Y330200D01*
X143800Y322200D02*X146200Y319800D01*
X143800D02*X146200Y322200D01*
X148800D02*X151200Y319800D01*
X148800D02*X151200Y322200D01*
X153800D02*X156200Y319800D01*
X153800D02*X156200Y322200D01*
X148800Y170200D02*X151200Y167800D01*
X148800D02*X151200Y170200D01*
X153800D02*X156200Y167800D01*
X153800D02*X156200Y170200D01*
X143800D02*X146200Y167800D01*
X143800D02*X146200Y170200D01*
X143800Y162200D02*X146200Y159800D01*
X143800D02*X146200Y162200D01*
X148800D02*X151200Y159800D01*
X148800D02*X151200Y162200D01*
X153800D02*X156200Y159800D01*
X153800D02*X156200Y162200D01*
X47800Y721200D02*X50200Y718800D01*
X47800D02*X50200Y721200D01*
X47800Y726200D02*X50200Y723800D01*
X47800D02*X50200Y726200D01*
X47800Y731200D02*X50200Y728800D01*
X47800D02*X50200Y731200D01*
X39800Y726200D02*X42200Y723800D01*
X39800D02*X42200Y726200D01*
X39800Y721200D02*X42200Y718800D01*
X39800D02*X42200Y721200D01*
X39800Y731200D02*X42200Y728800D01*
X39800D02*X42200Y731200D01*
X13800Y897450D02*X16200Y895050D01*
X13800D02*X16200Y897450D01*
X140000Y898500D02*Y892500D01*
Y898500D02*X143750Y892500D01*
Y898500D02*Y892500D01*
X145550Y897750D02*Y893250D01*
Y897750D02*X146300Y898500D01*
X147800D01*
X148550Y897750D01*
Y893250D01*
X147800Y892500D02*X148550Y893250D01*
X146300Y892500D02*X147800D01*
X145550Y893250D02*X146300Y892500D01*
X98000Y893250D02*X98750Y892500D01*
X98000Y894450D02*Y893250D01*
Y894450D02*X99050Y895500D01*
X99950D01*
X101000Y894450D01*
Y893250D01*
X100250Y892500D02*X101000Y893250D01*
X98750Y892500D02*X100250D01*
X98000Y896550D02*X99050Y895500D01*
X98000Y897750D02*Y896550D01*
Y897750D02*X98750Y898500D01*
X100250D01*
X101000Y897750D01*
Y896550D01*
X99950Y895500D02*X101000Y896550D01*
X102800Y894750D02*X105800Y898500D01*
X102800Y894750D02*X106550D01*
X105800Y898500D02*Y892500D01*
X45000Y893250D02*X45750Y892500D01*
X45000Y897750D02*Y893250D01*
Y897750D02*X45750Y898500D01*
X47250D01*
X48000Y897750D01*
Y893250D01*
X47250Y892500D02*X48000Y893250D01*
X45750Y892500D02*X47250D01*
X45000Y894000D02*X48000Y897000D01*
X49800Y892500D02*X50550D01*
X52350Y893250D02*X53100Y892500D01*
X52350Y897750D02*Y893250D01*
Y897750D02*X53100Y898500D01*
X54600D01*
X55350Y897750D01*
Y893250D01*
X54600Y892500D02*X55350Y893250D01*
X53100Y892500D02*X54600D01*
X52350Y894000D02*X55350Y897000D01*
X57150Y897750D02*X57900Y898500D01*
X59400D01*
X60150Y897750D01*
X59400Y892500D02*X60150Y893250D01*
X57900Y892500D02*X59400D01*
X57150Y893250D02*X57900Y892500D01*
Y895800D02*X59400D01*
X60150Y897750D02*Y896550D01*
Y895050D02*Y893250D01*
Y895050D02*X59400Y895800D01*
X60150Y896550D02*X59400Y895800D01*
X61950Y897300D02*X63150Y898500D01*
Y892500D01*
X61950D02*X64200D01*
X205000Y690600D02*Y687400D01*
X203400Y689000D02*X206600D01*
X154000Y706100D02*Y702900D01*
X152400Y704500D02*X155600D01*
X154000Y709600D02*Y706400D01*
X152400Y708000D02*X155600D01*
X218500Y733100D02*Y729900D01*
X216900Y731500D02*X220100D01*
X160500Y684100D02*Y680900D01*
X158900Y682500D02*X162100D01*
X208000Y688100D02*Y684900D01*
X206400Y686500D02*X209600D01*
X202000Y688100D02*Y684900D01*
X200400Y686500D02*X203600D01*
X203000Y700600D02*Y697400D01*
X201400Y699000D02*X204600D01*
X208500Y679100D02*Y675900D01*
X206900Y677500D02*X210100D01*
X202000Y693600D02*Y690400D01*
X200400Y692000D02*X203600D01*
X160500Y698100D02*Y694900D01*
X158900Y696500D02*X162100D01*
X149500Y681100D02*Y677900D01*
X147900Y679500D02*X151100D01*
X159000Y704100D02*Y700900D01*
X157400Y702500D02*X160600D01*
X151000Y660100D02*Y656900D01*
X149400Y658500D02*X152600D01*
X151000Y656600D02*Y653400D01*
X149400Y655000D02*X152600D01*
X127000Y660100D02*Y656900D01*
X125400Y658500D02*X128600D01*
X127000Y656600D02*Y653400D01*
X125400Y655000D02*X128600D01*
X208000Y693600D02*Y690400D01*
X206400Y692000D02*X209600D01*
X154500Y684600D02*Y681400D01*
X152900Y683000D02*X156100D01*
X150000Y698600D02*Y695400D01*
X148400Y697000D02*X151600D01*
X141500Y717600D02*Y714400D01*
X139900Y716000D02*X143100D01*
X141500Y721100D02*Y717900D01*
X139900Y719500D02*X143100D01*
X147500Y667100D02*Y663900D01*
X145900Y665500D02*X149100D01*
X147500Y663600D02*Y660400D01*
X145900Y662000D02*X149100D01*
X147500Y660100D02*Y656900D01*
X145900Y658500D02*X149100D01*
X147500Y656600D02*Y653400D01*
X145900Y655000D02*X149100D01*
X130500Y667100D02*Y663900D01*
X128900Y665500D02*X132100D01*
X130500Y663600D02*Y660400D01*
X128900Y662000D02*X132100D01*
X130500Y660100D02*Y656900D01*
X128900Y658500D02*X132100D01*
X130500Y656600D02*Y653400D01*
X128900Y655000D02*X132100D01*
X191500Y761100D02*Y757900D01*
X189900Y759500D02*X193100D01*
X197000Y761100D02*Y757900D01*
X195400Y759500D02*X198600D01*
X197000Y740600D02*Y737400D01*
X195400Y739000D02*X198600D01*
X197000Y751100D02*Y747900D01*
X195400Y749500D02*X198600D01*
X191500Y740600D02*Y737400D01*
X189900Y739000D02*X193100D01*
X227000Y750600D02*Y747400D01*
X225400Y749000D02*X228600D01*
X165500Y735600D02*Y732400D01*
X163900Y734000D02*X167100D01*
X178500Y705100D02*Y701900D01*
X176900Y703500D02*X180100D01*
X193500Y667100D02*Y663900D01*
X191900Y665500D02*X195100D01*
X228000Y718600D02*Y715400D01*
X226400Y717000D02*X229600D01*
X210500Y710100D02*Y706900D01*
X208900Y708500D02*X212100D01*
X190000Y701100D02*Y697900D01*
X188400Y699500D02*X191600D01*
X208500Y669100D02*Y665900D01*
X206900Y667500D02*X210100D01*
X219500Y758100D02*Y754900D01*
X217900Y756500D02*X221100D01*
X219500Y753600D02*Y750400D01*
X217900Y752000D02*X221100D01*
X218500Y699600D02*Y696400D01*
X216900Y698000D02*X220100D01*
X111000Y726600D02*Y723400D01*
X109400Y725000D02*X112600D01*
X106000Y703600D02*Y700400D01*
X104400Y702000D02*X107600D01*
X121000Y716100D02*Y712900D01*
X119400Y714500D02*X122600D01*
X95000Y696600D02*Y693400D01*
X93400Y695000D02*X96600D01*
X91500Y696600D02*Y693400D01*
X89900Y695000D02*X93100D01*
X118800Y704100D02*Y700900D01*
X117200Y702500D02*X120400D01*
X118800Y691300D02*Y688100D01*
X117200Y689700D02*X120400D01*
X103000Y727600D02*Y724400D01*
X101400Y726000D02*X104600D01*
X205000Y530600D02*Y527400D01*
X203400Y529000D02*X206600D01*
X154000Y546100D02*Y542900D01*
X152400Y544500D02*X155600D01*
X154000Y549600D02*Y546400D01*
X152400Y548000D02*X155600D01*
X218500Y573100D02*Y569900D01*
X216900Y571500D02*X220100D01*
X160500Y524100D02*Y520900D01*
X158900Y522500D02*X162100D01*
X208000Y528100D02*Y524900D01*
X206400Y526500D02*X209600D01*
X202000Y528100D02*Y524900D01*
X200400Y526500D02*X203600D01*
X203000Y540600D02*Y537400D01*
X201400Y539000D02*X204600D01*
X208500Y519100D02*Y515900D01*
X206900Y517500D02*X210100D01*
X202000Y533600D02*Y530400D01*
X200400Y532000D02*X203600D01*
X160500Y538100D02*Y534900D01*
X158900Y536500D02*X162100D01*
X149500Y521100D02*Y517900D01*
X147900Y519500D02*X151100D01*
X159000Y544100D02*Y540900D01*
X157400Y542500D02*X160600D01*
X151000Y500100D02*Y496900D01*
X149400Y498500D02*X152600D01*
X151000Y496600D02*Y493400D01*
X149400Y495000D02*X152600D01*
X127000Y500100D02*Y496900D01*
X125400Y498500D02*X128600D01*
X127000Y496600D02*Y493400D01*
X125400Y495000D02*X128600D01*
X208000Y533600D02*Y530400D01*
X206400Y532000D02*X209600D01*
X154500Y524600D02*Y521400D01*
X152900Y523000D02*X156100D01*
X150000Y538600D02*Y535400D01*
X148400Y537000D02*X151600D01*
X141500Y557600D02*Y554400D01*
X139900Y556000D02*X143100D01*
X141500Y561100D02*Y557900D01*
X139900Y559500D02*X143100D01*
X147500Y507100D02*Y503900D01*
X145900Y505500D02*X149100D01*
X147500Y503600D02*Y500400D01*
X145900Y502000D02*X149100D01*
X147500Y500100D02*Y496900D01*
X145900Y498500D02*X149100D01*
X147500Y496600D02*Y493400D01*
X145900Y495000D02*X149100D01*
X130500Y507100D02*Y503900D01*
X128900Y505500D02*X132100D01*
X130500Y503600D02*Y500400D01*
X128900Y502000D02*X132100D01*
X130500Y500100D02*Y496900D01*
X128900Y498500D02*X132100D01*
X130500Y496600D02*Y493400D01*
X128900Y495000D02*X132100D01*
X191500Y601100D02*Y597900D01*
X189900Y599500D02*X193100D01*
X197000Y601100D02*Y597900D01*
X195400Y599500D02*X198600D01*
X197000Y580600D02*Y577400D01*
X195400Y579000D02*X198600D01*
X197000Y591100D02*Y587900D01*
X195400Y589500D02*X198600D01*
X191500Y580600D02*Y577400D01*
X189900Y579000D02*X193100D01*
X227000Y590600D02*Y587400D01*
X225400Y589000D02*X228600D01*
X165500Y575600D02*Y572400D01*
X163900Y574000D02*X167100D01*
X178500Y545100D02*Y541900D01*
X176900Y543500D02*X180100D01*
X193500Y507100D02*Y503900D01*
X191900Y505500D02*X195100D01*
X228000Y558600D02*Y555400D01*
X226400Y557000D02*X229600D01*
X210500Y550100D02*Y546900D01*
X208900Y548500D02*X212100D01*
X190000Y541100D02*Y537900D01*
X188400Y539500D02*X191600D01*
X208500Y509100D02*Y505900D01*
X206900Y507500D02*X210100D01*
X219500Y598100D02*Y594900D01*
X217900Y596500D02*X221100D01*
X219500Y593600D02*Y590400D01*
X217900Y592000D02*X221100D01*
X218500Y539600D02*Y536400D01*
X216900Y538000D02*X220100D01*
X111000Y566600D02*Y563400D01*
X109400Y565000D02*X112600D01*
X106000Y543600D02*Y540400D01*
X104400Y542000D02*X107600D01*
X121000Y556100D02*Y552900D01*
X119400Y554500D02*X122600D01*
X95000Y536600D02*Y533400D01*
X93400Y535000D02*X96600D01*
X91500Y536600D02*Y533400D01*
X89900Y535000D02*X93100D01*
X118800Y544100D02*Y540900D01*
X117200Y542500D02*X120400D01*
X118800Y531300D02*Y528100D01*
X117200Y529700D02*X120400D01*
X103000Y567600D02*Y564400D01*
X101400Y566000D02*X104600D01*
X205000Y370600D02*Y367400D01*
X203400Y369000D02*X206600D01*
X154000Y386100D02*Y382900D01*
X152400Y384500D02*X155600D01*
X154000Y389600D02*Y386400D01*
X152400Y388000D02*X155600D01*
X218500Y413100D02*Y409900D01*
X216900Y411500D02*X220100D01*
X160500Y364100D02*Y360900D01*
X158900Y362500D02*X162100D01*
X208000Y368100D02*Y364900D01*
X206400Y366500D02*X209600D01*
X202000Y368100D02*Y364900D01*
X200400Y366500D02*X203600D01*
X203000Y380600D02*Y377400D01*
X201400Y379000D02*X204600D01*
X208500Y359100D02*Y355900D01*
X206900Y357500D02*X210100D01*
X202000Y373600D02*Y370400D01*
X200400Y372000D02*X203600D01*
X160500Y378100D02*Y374900D01*
X158900Y376500D02*X162100D01*
X149500Y361100D02*Y357900D01*
X147900Y359500D02*X151100D01*
X159000Y384100D02*Y380900D01*
X157400Y382500D02*X160600D01*
X151000Y340100D02*Y336900D01*
X149400Y338500D02*X152600D01*
X151000Y336600D02*Y333400D01*
X149400Y335000D02*X152600D01*
X127000Y340100D02*Y336900D01*
X125400Y338500D02*X128600D01*
X127000Y336600D02*Y333400D01*
X125400Y335000D02*X128600D01*
X208000Y373600D02*Y370400D01*
X206400Y372000D02*X209600D01*
X154500Y364600D02*Y361400D01*
X152900Y363000D02*X156100D01*
X150000Y378600D02*Y375400D01*
X148400Y377000D02*X151600D01*
X141500Y397600D02*Y394400D01*
X139900Y396000D02*X143100D01*
X141500Y401100D02*Y397900D01*
X139900Y399500D02*X143100D01*
X147500Y347100D02*Y343900D01*
X145900Y345500D02*X149100D01*
X147500Y343600D02*Y340400D01*
X145900Y342000D02*X149100D01*
X147500Y340100D02*Y336900D01*
X145900Y338500D02*X149100D01*
X147500Y336600D02*Y333400D01*
X145900Y335000D02*X149100D01*
X130500Y347100D02*Y343900D01*
X128900Y345500D02*X132100D01*
X130500Y343600D02*Y340400D01*
X128900Y342000D02*X132100D01*
X130500Y340100D02*Y336900D01*
X128900Y338500D02*X132100D01*
X130500Y336600D02*Y333400D01*
X128900Y335000D02*X132100D01*
X191500Y441100D02*Y437900D01*
X189900Y439500D02*X193100D01*
X197000Y441100D02*Y437900D01*
X195400Y439500D02*X198600D01*
X197000Y420600D02*Y417400D01*
X195400Y419000D02*X198600D01*
X197000Y431100D02*Y427900D01*
X195400Y429500D02*X198600D01*
X191500Y420600D02*Y417400D01*
X189900Y419000D02*X193100D01*
X227000Y430600D02*Y427400D01*
X225400Y429000D02*X228600D01*
X165500Y415600D02*Y412400D01*
X163900Y414000D02*X167100D01*
X178500Y385100D02*Y381900D01*
X176900Y383500D02*X180100D01*
X193500Y347100D02*Y343900D01*
X191900Y345500D02*X195100D01*
X228000Y398600D02*Y395400D01*
X226400Y397000D02*X229600D01*
X210500Y390100D02*Y386900D01*
X208900Y388500D02*X212100D01*
X190000Y381100D02*Y377900D01*
X188400Y379500D02*X191600D01*
X208500Y349100D02*Y345900D01*
X206900Y347500D02*X210100D01*
X219500Y438100D02*Y434900D01*
X217900Y436500D02*X221100D01*
X219500Y433600D02*Y430400D01*
X217900Y432000D02*X221100D01*
X218500Y379600D02*Y376400D01*
X216900Y378000D02*X220100D01*
X111000Y406600D02*Y403400D01*
X109400Y405000D02*X112600D01*
X106000Y383600D02*Y380400D01*
X104400Y382000D02*X107600D01*
X121000Y396100D02*Y392900D01*
X119400Y394500D02*X122600D01*
X95000Y376600D02*Y373400D01*
X93400Y375000D02*X96600D01*
X91500Y376600D02*Y373400D01*
X89900Y375000D02*X93100D01*
X118800Y384100D02*Y380900D01*
X117200Y382500D02*X120400D01*
X118800Y371300D02*Y368100D01*
X117200Y369700D02*X120400D01*
X103000Y407600D02*Y404400D01*
X101400Y406000D02*X104600D01*
X205000Y210600D02*Y207400D01*
X203400Y209000D02*X206600D01*
X154000Y226100D02*Y222900D01*
X152400Y224500D02*X155600D01*
X154000Y229600D02*Y226400D01*
X152400Y228000D02*X155600D01*
X218500Y253100D02*Y249900D01*
X216900Y251500D02*X220100D01*
X160500Y204100D02*Y200900D01*
X158900Y202500D02*X162100D01*
X208000Y208100D02*Y204900D01*
X206400Y206500D02*X209600D01*
X202000Y208100D02*Y204900D01*
X200400Y206500D02*X203600D01*
X203000Y220600D02*Y217400D01*
X201400Y219000D02*X204600D01*
X208500Y199100D02*Y195900D01*
X206900Y197500D02*X210100D01*
X202000Y213600D02*Y210400D01*
X200400Y212000D02*X203600D01*
X160500Y218100D02*Y214900D01*
X158900Y216500D02*X162100D01*
X149500Y201100D02*Y197900D01*
X147900Y199500D02*X151100D01*
X159000Y224100D02*Y220900D01*
X157400Y222500D02*X160600D01*
X151000Y180100D02*Y176900D01*
X149400Y178500D02*X152600D01*
X151000Y176600D02*Y173400D01*
X149400Y175000D02*X152600D01*
X127000Y180100D02*Y176900D01*
X125400Y178500D02*X128600D01*
X127000Y176600D02*Y173400D01*
X125400Y175000D02*X128600D01*
X208000Y213600D02*Y210400D01*
X206400Y212000D02*X209600D01*
X154500Y204600D02*Y201400D01*
X152900Y203000D02*X156100D01*
X150000Y218600D02*Y215400D01*
X148400Y217000D02*X151600D01*
X141500Y237600D02*Y234400D01*
X139900Y236000D02*X143100D01*
X141500Y241100D02*Y237900D01*
X139900Y239500D02*X143100D01*
X147500Y187100D02*Y183900D01*
X145900Y185500D02*X149100D01*
X147500Y183600D02*Y180400D01*
X145900Y182000D02*X149100D01*
X147500Y180100D02*Y176900D01*
X145900Y178500D02*X149100D01*
X147500Y176600D02*Y173400D01*
X145900Y175000D02*X149100D01*
X130500Y187100D02*Y183900D01*
X128900Y185500D02*X132100D01*
X130500Y183600D02*Y180400D01*
X128900Y182000D02*X132100D01*
X130500Y180100D02*Y176900D01*
X128900Y178500D02*X132100D01*
X130500Y176600D02*Y173400D01*
X128900Y175000D02*X132100D01*
X191500Y281100D02*Y277900D01*
X189900Y279500D02*X193100D01*
X197000Y281100D02*Y277900D01*
X195400Y279500D02*X198600D01*
X197000Y260600D02*Y257400D01*
X195400Y259000D02*X198600D01*
X197000Y271100D02*Y267900D01*
X195400Y269500D02*X198600D01*
X191500Y260600D02*Y257400D01*
X189900Y259000D02*X193100D01*
X227000Y270600D02*Y267400D01*
X225400Y269000D02*X228600D01*
X165500Y255600D02*Y252400D01*
X163900Y254000D02*X167100D01*
X178500Y225100D02*Y221900D01*
X176900Y223500D02*X180100D01*
X193500Y187100D02*Y183900D01*
X191900Y185500D02*X195100D01*
X228000Y238600D02*Y235400D01*
X226400Y237000D02*X229600D01*
X210500Y230100D02*Y226900D01*
X208900Y228500D02*X212100D01*
X190000Y221100D02*Y217900D01*
X188400Y219500D02*X191600D01*
X208500Y189100D02*Y185900D01*
X206900Y187500D02*X210100D01*
X219500Y278100D02*Y274900D01*
X217900Y276500D02*X221100D01*
X219500Y273600D02*Y270400D01*
X217900Y272000D02*X221100D01*
X218500Y219600D02*Y216400D01*
X216900Y218000D02*X220100D01*
X111000Y246600D02*Y243400D01*
X109400Y245000D02*X112600D01*
X106000Y223600D02*Y220400D01*
X104400Y222000D02*X107600D01*
X121000Y236100D02*Y232900D01*
X119400Y234500D02*X122600D01*
X95000Y216600D02*Y213400D01*
X93400Y215000D02*X96600D01*
X91500Y216600D02*Y213400D01*
X89900Y215000D02*X93100D01*
X118800Y224100D02*Y220900D01*
X117200Y222500D02*X120400D01*
X118800Y211300D02*Y208100D01*
X117200Y209700D02*X120400D01*
X103000Y247600D02*Y244400D01*
X101400Y246000D02*X104600D01*
X205000Y50600D02*Y47400D01*
X203400Y49000D02*X206600D01*
X154000Y66100D02*Y62900D01*
X152400Y64500D02*X155600D01*
X154000Y69600D02*Y66400D01*
X152400Y68000D02*X155600D01*
X218500Y93100D02*Y89900D01*
X216900Y91500D02*X220100D01*
X160500Y44100D02*Y40900D01*
X158900Y42500D02*X162100D01*
X208000Y48100D02*Y44900D01*
X206400Y46500D02*X209600D01*
X202000Y48100D02*Y44900D01*
X200400Y46500D02*X203600D01*
X203000Y60600D02*Y57400D01*
X201400Y59000D02*X204600D01*
X208500Y39100D02*Y35900D01*
X206900Y37500D02*X210100D01*
X202000Y53600D02*Y50400D01*
X200400Y52000D02*X203600D01*
X160500Y58100D02*Y54900D01*
X158900Y56500D02*X162100D01*
X149500Y41100D02*Y37900D01*
X147900Y39500D02*X151100D01*
X159000Y64100D02*Y60900D01*
X157400Y62500D02*X160600D01*
X151000Y20100D02*Y16900D01*
X149400Y18500D02*X152600D01*
X151000Y16600D02*Y13400D01*
X149400Y15000D02*X152600D01*
X127000Y20100D02*Y16900D01*
X125400Y18500D02*X128600D01*
X127000Y16600D02*Y13400D01*
X125400Y15000D02*X128600D01*
X208000Y53600D02*Y50400D01*
X206400Y52000D02*X209600D01*
X154500Y44600D02*Y41400D01*
X152900Y43000D02*X156100D01*
X150000Y58600D02*Y55400D01*
X148400Y57000D02*X151600D01*
X141500Y77600D02*Y74400D01*
X139900Y76000D02*X143100D01*
X141500Y81100D02*Y77900D01*
X139900Y79500D02*X143100D01*
X147500Y27100D02*Y23900D01*
X145900Y25500D02*X149100D01*
X147500Y23600D02*Y20400D01*
X145900Y22000D02*X149100D01*
X147500Y20100D02*Y16900D01*
X145900Y18500D02*X149100D01*
X147500Y16600D02*Y13400D01*
X145900Y15000D02*X149100D01*
X130500Y27100D02*Y23900D01*
X128900Y25500D02*X132100D01*
X130500Y23600D02*Y20400D01*
X128900Y22000D02*X132100D01*
X130500Y20100D02*Y16900D01*
X128900Y18500D02*X132100D01*
X130500Y16600D02*Y13400D01*
X128900Y15000D02*X132100D01*
X191500Y121100D02*Y117900D01*
X189900Y119500D02*X193100D01*
X197000Y121100D02*Y117900D01*
X195400Y119500D02*X198600D01*
X197000Y100600D02*Y97400D01*
X195400Y99000D02*X198600D01*
X197000Y111100D02*Y107900D01*
X195400Y109500D02*X198600D01*
X191500Y100600D02*Y97400D01*
X189900Y99000D02*X193100D01*
X227000Y110600D02*Y107400D01*
X225400Y109000D02*X228600D01*
X165500Y95600D02*Y92400D01*
X163900Y94000D02*X167100D01*
X178500Y65100D02*Y61900D01*
X176900Y63500D02*X180100D01*
X193500Y27100D02*Y23900D01*
X191900Y25500D02*X195100D01*
X228000Y78600D02*Y75400D01*
X226400Y77000D02*X229600D01*
X210500Y70100D02*Y66900D01*
X208900Y68500D02*X212100D01*
X190000Y61100D02*Y57900D01*
X188400Y59500D02*X191600D01*
X208500Y29100D02*Y25900D01*
X206900Y27500D02*X210100D01*
X219500Y118100D02*Y114900D01*
X217900Y116500D02*X221100D01*
X219500Y113600D02*Y110400D01*
X217900Y112000D02*X221100D01*
X218500Y59600D02*Y56400D01*
X216900Y58000D02*X220100D01*
X111000Y86600D02*Y83400D01*
X109400Y85000D02*X112600D01*
X106000Y63600D02*Y60400D01*
X104400Y62000D02*X107600D01*
X121000Y76100D02*Y72900D01*
X119400Y74500D02*X122600D01*
X95000Y56600D02*Y53400D01*
X93400Y55000D02*X96600D01*
X91500Y56600D02*Y53400D01*
X89900Y55000D02*X93100D01*
X118800Y64100D02*Y60900D01*
X117200Y62500D02*X120400D01*
X118800Y51300D02*Y48100D01*
X117200Y49700D02*X120400D01*
X103000Y87600D02*Y84400D01*
X101400Y86000D02*X104600D01*
X15000Y912850D02*Y909650D01*
X13400Y911250D02*X16600D01*
X135000Y913500D02*X136500Y910500D01*
X138000Y913500D01*
X136500Y910500D02*Y907500D01*
X139800Y910800D02*X142050D01*
X139800Y907500D02*X142800D01*
X139800Y913500D02*Y907500D01*
Y913500D02*X142800D01*
X147600D02*X148350Y912750D01*
X145350Y913500D02*X147600D01*
X144600Y912750D02*X145350Y913500D01*
X144600Y912750D02*Y911250D01*
X145350Y910500D01*
X147600D01*
X148350Y909750D01*
Y908250D01*
X147600Y907500D02*X148350Y908250D01*
X145350Y907500D02*X147600D01*
X144600Y908250D02*X145350Y907500D01*
X98000Y912750D02*X98750Y913500D01*
X101000D01*
X101750Y912750D01*
Y911250D01*
X98000Y907500D02*X101750Y911250D01*
X98000Y907500D02*X101750D01*
X104300D02*X107300Y913500D01*
X103550D02*X107300D01*
X109100Y908250D02*X109850Y907500D01*
X109100Y912750D02*Y908250D01*
Y912750D02*X109850Y913500D01*
X111350D01*
X112100Y912750D01*
Y908250D01*
X111350Y907500D02*X112100Y908250D01*
X109850Y907500D02*X111350D01*
X109100Y909000D02*X112100Y912000D01*
X45000Y908250D02*X45750Y907500D01*
X45000Y912750D02*Y908250D01*
Y912750D02*X45750Y913500D01*
X47250D01*
X48000Y912750D01*
Y908250D01*
X47250Y907500D02*X48000Y908250D01*
X45750Y907500D02*X47250D01*
X45000Y909000D02*X48000Y912000D01*
X49800Y907500D02*X50550D01*
X52350Y908250D02*X53100Y907500D01*
X52350Y912750D02*Y908250D01*
Y912750D02*X53100Y913500D01*
X54600D01*
X55350Y912750D01*
Y908250D01*
X54600Y907500D02*X55350Y908250D01*
X53100Y907500D02*X54600D01*
X52350Y909000D02*X55350Y912000D01*
X57150Y912300D02*X58350Y913500D01*
Y907500D01*
X57150D02*X59400D01*
X61200Y912750D02*X61950Y913500D01*
X64200D01*
X64950Y912750D01*
Y911250D01*
X61200Y907500D02*X64950Y911250D01*
X61200Y907500D02*X64950D01*
X35000Y790000D02*Y788400D01*
Y790000D02*X36387Y790800D01*
X35000Y790000D02*X33613Y790800D01*
X35000Y20000D02*Y18400D01*
Y20000D02*X36387Y20800D01*
X35000Y20000D02*X33613Y20800D01*
X265000Y20000D02*Y18400D01*
Y20000D02*X266387Y20800D01*
X265000Y20000D02*X263613Y20800D01*
X265000Y760000D02*Y758400D01*
Y760000D02*X266387Y760800D01*
X265000Y760000D02*X263613Y760800D01*
X15000Y926250D02*Y924650D01*
Y926250D02*X16387Y927050D01*
X15000Y926250D02*X13613Y927050D01*
X135000Y928500D02*X136500Y925500D01*
X138000Y928500D01*
X136500Y925500D02*Y922500D01*
X139800Y925800D02*X142050D01*
X139800Y922500D02*X142800D01*
X139800Y928500D02*Y922500D01*
Y928500D02*X142800D01*
X147600D02*X148350Y927750D01*
X145350Y928500D02*X147600D01*
X144600Y927750D02*X145350Y928500D01*
X144600Y927750D02*Y926250D01*
X145350Y925500D01*
X147600D01*
X148350Y924750D01*
Y923250D01*
X147600Y922500D02*X148350Y923250D01*
X145350Y922500D02*X147600D01*
X144600Y923250D02*X145350Y922500D01*
X98000Y924750D02*X101000Y928500D01*
X98000Y924750D02*X101750D01*
X101000Y928500D02*Y922500D01*
X45000Y923250D02*X45750Y922500D01*
X45000Y927750D02*Y923250D01*
Y927750D02*X45750Y928500D01*
X47250D01*
X48000Y927750D01*
Y923250D01*
X47250Y922500D02*X48000Y923250D01*
X45750Y922500D02*X47250D01*
X45000Y924000D02*X48000Y927000D01*
X49800Y922500D02*X50550D01*
X52350Y923250D02*X53100Y922500D01*
X52350Y927750D02*Y923250D01*
Y927750D02*X53100Y928500D01*
X54600D01*
X55350Y927750D01*
Y923250D01*
X54600Y922500D02*X55350Y923250D01*
X53100Y922500D02*X54600D01*
X52350Y924000D02*X55350Y927000D01*
X57150Y923250D02*X57900Y922500D01*
X57150Y927750D02*Y923250D01*
Y927750D02*X57900Y928500D01*
X59400D01*
X60150Y927750D01*
Y923250D01*
X59400Y922500D02*X60150Y923250D01*
X57900Y922500D02*X59400D01*
X57150Y924000D02*X60150Y927000D01*
X61950Y923250D02*X62700Y922500D01*
X61950Y927750D02*Y923250D01*
Y927750D02*X62700Y928500D01*
X64200D01*
X64950Y927750D01*
Y923250D01*
X64200Y922500D02*X64950Y923250D01*
X62700Y922500D02*X64200D01*
X61950Y924000D02*X64950Y927000D01*
X3000Y943500D02*X3750Y942750D01*
X750Y943500D02*X3000D01*
X0Y942750D02*X750Y943500D01*
X0Y942750D02*Y941250D01*
X750Y940500D01*
X3000D01*
X3750Y939750D01*
Y938250D01*
X3000Y937500D02*X3750Y938250D01*
X750Y937500D02*X3000D01*
X0Y938250D02*X750Y937500D01*
X5550Y940500D02*Y938250D01*
X6300Y937500D01*
X8550Y940500D02*Y936000D01*
X7800Y935250D02*X8550Y936000D01*
X6300Y935250D02*X7800D01*
X5550Y936000D02*X6300Y935250D01*
Y937500D02*X7800D01*
X8550Y938250D01*
X11100Y939750D02*Y937500D01*
Y939750D02*X11850Y940500D01*
X12600D01*
X13350Y939750D01*
Y937500D01*
Y939750D02*X14100Y940500D01*
X14850D01*
X15600Y939750D01*
Y937500D01*
X10350Y940500D02*X11100Y939750D01*
X17400Y943500D02*Y937500D01*
Y938250D02*X18150Y937500D01*
X19650D01*
X20400Y938250D01*
Y939750D02*Y938250D01*
X19650Y940500D02*X20400Y939750D01*
X18150Y940500D02*X19650D01*
X17400Y939750D02*X18150Y940500D01*
X22200Y939750D02*Y938250D01*
Y939750D02*X22950Y940500D01*
X24450D01*
X25200Y939750D01*
Y938250D01*
X24450Y937500D02*X25200Y938250D01*
X22950Y937500D02*X24450D01*
X22200Y938250D02*X22950Y937500D01*
X27000Y943500D02*Y938250D01*
X27750Y937500D01*
X0Y934250D02*X29250D01*
X41750Y943500D02*Y937500D01*
X43700Y943500D02*X44750Y942450D01*
Y938550D01*
X43700Y937500D02*X44750Y938550D01*
X41000Y937500D02*X43700D01*
X41000Y943500D02*X43700D01*
G54D84*X46550Y942000D02*Y941850D01*
G54D83*Y939750D02*Y937500D01*
X50300Y940500D02*X51050Y939750D01*
X48800Y940500D02*X50300D01*
X48050Y939750D02*X48800Y940500D01*
X48050Y939750D02*Y938250D01*
X48800Y937500D01*
X51050Y940500D02*Y938250D01*
X51800Y937500D01*
X48800D02*X50300D01*
X51050Y938250D01*
X54350Y939750D02*Y937500D01*
Y939750D02*X55100Y940500D01*
X55850D01*
X56600Y939750D01*
Y937500D01*
Y939750D02*X57350Y940500D01*
X58100D01*
X58850Y939750D01*
Y937500D01*
X53600Y940500D02*X54350Y939750D01*
X60650Y937500D02*X61400D01*
X65900Y938250D02*X66650Y937500D01*
X65900Y942750D02*X66650Y943500D01*
X65900Y942750D02*Y938250D01*
X68450Y943500D02*X69950D01*
X69200D02*Y937500D01*
X68450D02*X69950D01*
X72500Y939750D02*Y937500D01*
Y939750D02*X73250Y940500D01*
X74000D01*
X74750Y939750D01*
Y937500D01*
X71750Y940500D02*X72500Y939750D01*
X77300Y940500D02*X79550D01*
X76550Y939750D02*X77300Y940500D01*
X76550Y939750D02*Y938250D01*
X77300Y937500D01*
X79550D01*
X81350Y943500D02*Y937500D01*
Y939750D02*X82100Y940500D01*
X83600D01*
X84350Y939750D01*
Y937500D01*
X86150Y943500D02*X86900Y942750D01*
Y938250D01*
X86150Y937500D02*X86900Y938250D01*
X41000Y934250D02*X88700D01*
X96050Y937500D02*X98000D01*
X95000Y938550D02*X96050Y937500D01*
X95000Y942450D02*Y938550D01*
Y942450D02*X96050Y943500D01*
X98000D01*
X99800Y939750D02*Y938250D01*
Y939750D02*X100550Y940500D01*
X102050D01*
X102800Y939750D01*
Y938250D01*
X102050Y937500D02*X102800Y938250D01*
X100550Y937500D02*X102050D01*
X99800Y938250D02*X100550Y937500D01*
X104600Y940500D02*Y938250D01*
X105350Y937500D01*
X106850D01*
X107600Y938250D01*
Y940500D02*Y938250D01*
X110150Y939750D02*Y937500D01*
Y939750D02*X110900Y940500D01*
X111650D01*
X112400Y939750D01*
Y937500D01*
X109400Y940500D02*X110150Y939750D01*
X114950Y943500D02*Y938250D01*
X115700Y937500D01*
X114200Y941250D02*X115700D01*
X95000Y934250D02*X117200D01*
X130750Y943500D02*Y937500D01*
X130000Y943500D02*X133000D01*
X133750Y942750D01*
Y941250D01*
X133000Y940500D02*X133750Y941250D01*
X130750Y940500D02*X133000D01*
X135550Y943500D02*Y938250D01*
X136300Y937500D01*
X140050Y940500D02*X140800Y939750D01*
X138550Y940500D02*X140050D01*
X137800Y939750D02*X138550Y940500D01*
X137800Y939750D02*Y938250D01*
X138550Y937500D01*
X140800Y940500D02*Y938250D01*
X141550Y937500D01*
X138550D02*X140050D01*
X140800Y938250D01*
X144100Y943500D02*Y938250D01*
X144850Y937500D01*
X143350Y941250D02*X144850D01*
X147100Y937500D02*X149350D01*
X146350Y938250D02*X147100Y937500D01*
X146350Y939750D02*Y938250D01*
Y939750D02*X147100Y940500D01*
X148600D01*
X149350Y939750D01*
X146350Y939000D02*X149350D01*
Y939750D02*Y939000D01*
X154150Y943500D02*Y937500D01*
X153400D02*X154150Y938250D01*
X151900Y937500D02*X153400D01*
X151150Y938250D02*X151900Y937500D01*
X151150Y939750D02*Y938250D01*
Y939750D02*X151900Y940500D01*
X153400D01*
X154150Y939750D01*
X157450Y940500D02*Y939750D01*
Y938250D02*Y937500D01*
X155950Y942750D02*Y942000D01*
Y942750D02*X156700Y943500D01*
X158200D01*
X158950Y942750D01*
Y942000D01*
X157450Y940500D02*X158950Y942000D01*
X130000Y934250D02*X160750D01*
X0Y958500D02*X3000D01*
X1500D02*Y952500D01*
X4800Y958500D02*Y952500D01*
Y954750D02*X5550Y955500D01*
X7050D01*
X7800Y954750D01*
Y952500D01*
X10350D02*X12600D01*
X9600Y953250D02*X10350Y952500D01*
X9600Y954750D02*Y953250D01*
Y954750D02*X10350Y955500D01*
X11850D01*
X12600Y954750D01*
X9600Y954000D02*X12600D01*
Y954750D02*Y954000D01*
X15150Y954750D02*Y952500D01*
Y954750D02*X15900Y955500D01*
X17400D01*
X14400D02*X15150Y954750D01*
X19950Y952500D02*X22200D01*
X19200Y953250D02*X19950Y952500D01*
X19200Y954750D02*Y953250D01*
Y954750D02*X19950Y955500D01*
X21450D01*
X22200Y954750D01*
X19200Y954000D02*X22200D01*
Y954750D02*Y954000D01*
X28950Y955500D02*X29700Y954750D01*
X27450Y955500D02*X28950D01*
X26700Y954750D02*X27450Y955500D01*
X26700Y954750D02*Y953250D01*
X27450Y952500D01*
X29700Y955500D02*Y953250D01*
X30450Y952500D01*
X27450D02*X28950D01*
X29700Y953250D01*
X33000Y954750D02*Y952500D01*
Y954750D02*X33750Y955500D01*
X35250D01*
X32250D02*X33000Y954750D01*
X37800Y952500D02*X40050D01*
X37050Y953250D02*X37800Y952500D01*
X37050Y954750D02*Y953250D01*
Y954750D02*X37800Y955500D01*
X39300D01*
X40050Y954750D01*
X37050Y954000D02*X40050D01*
Y954750D02*Y954000D01*
X44550Y953250D02*X45300Y952500D01*
X44550Y954450D02*Y953250D01*
Y954450D02*X45600Y955500D01*
X46500D01*
X47550Y954450D01*
Y953250D01*
X46800Y952500D02*X47550Y953250D01*
X45300Y952500D02*X46800D01*
X44550Y956550D02*X45600Y955500D01*
X44550Y957750D02*Y956550D01*
Y957750D02*X45300Y958500D01*
X46800D01*
X47550Y957750D01*
Y956550D01*
X46500Y955500D02*X47550Y956550D01*
X55050Y958500D02*Y952500D01*
X54300D02*X55050Y953250D01*
X52800Y952500D02*X54300D01*
X52050Y953250D02*X52800Y952500D01*
X52050Y954750D02*Y953250D01*
Y954750D02*X52800Y955500D01*
X54300D01*
X55050Y954750D01*
G54D84*X56850Y957000D02*Y956850D01*
G54D83*Y954750D02*Y952500D01*
X59100Y957750D02*Y952500D01*
Y957750D02*X59850Y958500D01*
X60600D01*
X58350Y955500D02*X59850D01*
X62850Y957750D02*Y952500D01*
Y957750D02*X63600Y958500D01*
X64350D01*
X62100Y955500D02*X63600D01*
X66600Y952500D02*X68850D01*
X65850Y953250D02*X66600Y952500D01*
X65850Y954750D02*Y953250D01*
Y954750D02*X66600Y955500D01*
X68100D01*
X68850Y954750D01*
X65850Y954000D02*X68850D01*
Y954750D02*Y954000D01*
X71400Y954750D02*Y952500D01*
Y954750D02*X72150Y955500D01*
X73650D01*
X70650D02*X71400Y954750D01*
X76200Y952500D02*X78450D01*
X75450Y953250D02*X76200Y952500D01*
X75450Y954750D02*Y953250D01*
Y954750D02*X76200Y955500D01*
X77700D01*
X78450Y954750D01*
X75450Y954000D02*X78450D01*
Y954750D02*Y954000D01*
X81000Y954750D02*Y952500D01*
Y954750D02*X81750Y955500D01*
X82500D01*
X83250Y954750D01*
Y952500D01*
X80250Y955500D02*X81000Y954750D01*
X85800Y958500D02*Y953250D01*
X86550Y952500D01*
X85050Y956250D02*X86550D01*
X93750Y958500D02*Y952500D01*
X93000D02*X93750Y953250D01*
X91500Y952500D02*X93000D01*
X90750Y953250D02*X91500Y952500D01*
X90750Y954750D02*Y953250D01*
Y954750D02*X91500Y955500D01*
X93000D01*
X93750Y954750D01*
X96300D02*Y952500D01*
Y954750D02*X97050Y955500D01*
X98550D01*
X95550D02*X96300Y954750D01*
G54D84*X100350Y957000D02*Y956850D01*
G54D83*Y954750D02*Y952500D01*
X101850Y958500D02*Y953250D01*
X102600Y952500D01*
X104100Y958500D02*Y953250D01*
X104850Y952500D01*
X109800D02*X112050D01*
X112800Y953250D01*
X112050Y954000D02*X112800Y953250D01*
X109800Y954000D02*X112050D01*
X109050Y954750D02*X109800Y954000D01*
X109050Y954750D02*X109800Y955500D01*
X112050D01*
X112800Y954750D01*
X109050Y953250D02*X109800Y952500D01*
G54D84*X114600Y957000D02*Y956850D01*
G54D83*Y954750D02*Y952500D01*
X116100Y955500D02*X119100D01*
X116100Y952500D02*X119100Y955500D01*
X116100Y952500D02*X119100D01*
X121650D02*X123900D01*
X120900Y953250D02*X121650Y952500D01*
X120900Y954750D02*Y953250D01*
Y954750D02*X121650Y955500D01*
X123150D01*
X123900Y954750D01*
X120900Y954000D02*X123900D01*
Y954750D02*Y954000D01*
X126450Y952500D02*X128700D01*
X129450Y953250D01*
X128700Y954000D02*X129450Y953250D01*
X126450Y954000D02*X128700D01*
X125700Y954750D02*X126450Y954000D01*
X125700Y954750D02*X126450Y955500D01*
X128700D01*
X129450Y954750D01*
X125700Y953250D02*X126450Y952500D01*
X133950Y955500D02*Y953250D01*
X134700Y952500D01*
X136200D01*
X136950Y953250D01*
Y955500D02*Y953250D01*
X139500Y952500D02*X141750D01*
X142500Y953250D01*
X141750Y954000D02*X142500Y953250D01*
X139500Y954000D02*X141750D01*
X138750Y954750D02*X139500Y954000D01*
X138750Y954750D02*X139500Y955500D01*
X141750D01*
X142500Y954750D01*
X138750Y953250D02*X139500Y952500D01*
X145050D02*X147300D01*
X144300Y953250D02*X145050Y952500D01*
X144300Y954750D02*Y953250D01*
Y954750D02*X145050Y955500D01*
X146550D01*
X147300Y954750D01*
X144300Y954000D02*X147300D01*
Y954750D02*Y954000D01*
X152100Y958500D02*Y952500D01*
X151350D02*X152100Y953250D01*
X149850Y952500D02*X151350D01*
X149100Y953250D02*X149850Y952500D01*
X149100Y954750D02*Y953250D01*
Y954750D02*X149850Y955500D01*
X151350D01*
X152100Y954750D01*
G54D84*X156600Y957000D02*Y956850D01*
G54D83*Y954750D02*Y952500D01*
X158850Y954750D02*Y952500D01*
Y954750D02*X159600Y955500D01*
X160350D01*
X161100Y954750D01*
Y952500D01*
X158100Y955500D02*X158850Y954750D01*
X166350Y958500D02*Y953250D01*
X167100Y952500D01*
X165600Y956250D02*X167100D01*
X168600Y958500D02*Y952500D01*
Y954750D02*X169350Y955500D01*
X170850D01*
X171600Y954750D01*
Y952500D01*
G54D84*X173400Y957000D02*Y956850D01*
G54D83*Y954750D02*Y952500D01*
X175650D02*X177900D01*
X178650Y953250D01*
X177900Y954000D02*X178650Y953250D01*
X175650Y954000D02*X177900D01*
X174900Y954750D02*X175650Y954000D01*
X174900Y954750D02*X175650Y955500D01*
X177900D01*
X178650Y954750D01*
X174900Y953250D02*X175650Y952500D01*
X183150Y958500D02*Y953250D01*
X183900Y952500D01*
X187650Y955500D02*X188400Y954750D01*
X186150Y955500D02*X187650D01*
X185400Y954750D02*X186150Y955500D01*
X185400Y954750D02*Y953250D01*
X186150Y952500D01*
X188400Y955500D02*Y953250D01*
X189150Y952500D01*
X186150D02*X187650D01*
X188400Y953250D01*
X190950Y955500D02*Y953250D01*
X191700Y952500D01*
X193950Y955500D02*Y951000D01*
X193200Y950250D02*X193950Y951000D01*
X191700Y950250D02*X193200D01*
X190950Y951000D02*X191700Y950250D01*
Y952500D02*X193200D01*
X193950Y953250D01*
X195750Y954750D02*Y953250D01*
Y954750D02*X196500Y955500D01*
X198000D01*
X198750Y954750D01*
Y953250D01*
X198000Y952500D02*X198750Y953250D01*
X196500Y952500D02*X198000D01*
X195750Y953250D02*X196500Y952500D01*
X200550Y955500D02*Y953250D01*
X201300Y952500D01*
X202800D01*
X203550Y953250D01*
Y955500D02*Y953250D01*
X206100Y958500D02*Y953250D01*
X206850Y952500D01*
X205350Y956250D02*X206850D01*
X208350Y951000D02*X209850Y952500D01*
X214350Y954750D02*X217350Y958500D01*
X214350Y954750D02*X218100D01*
X217350Y958500D02*Y952500D01*
X222150Y958500D02*X222900Y957750D01*
X220650Y958500D02*X222150D01*
X219900Y957750D02*X220650Y958500D01*
X219900Y957750D02*Y953250D01*
X220650Y952500D01*
X222150Y955800D02*X222900Y955050D01*
X219900Y955800D02*X222150D01*
X220650Y952500D02*X222150D01*
X222900Y953250D01*
Y955050D02*Y953250D01*
X224700Y957750D02*X225450Y958500D01*
X226950D01*
X227700Y957750D01*
X226950Y952500D02*X227700Y953250D01*
X225450Y952500D02*X226950D01*
X224700Y953250D02*X225450Y952500D01*
Y955800D02*X226950D01*
X227700Y957750D02*Y956550D01*
Y955050D02*Y953250D01*
Y955050D02*X226950Y955800D01*
X227700Y956550D02*X226950Y955800D01*
X232200Y958500D02*Y952500D01*
Y954750D02*X232950Y955500D01*
X234450D01*
X235200Y954750D01*
Y952500D01*
X237000Y954750D02*Y953250D01*
Y954750D02*X237750Y955500D01*
X239250D01*
X240000Y954750D01*
Y953250D01*
X239250Y952500D02*X240000Y953250D01*
X237750Y952500D02*X239250D01*
X237000Y953250D02*X237750Y952500D01*
X241800Y958500D02*Y953250D01*
X242550Y952500D01*
X244800D02*X247050D01*
X244050Y953250D02*X244800Y952500D01*
X244050Y954750D02*Y953250D01*
Y954750D02*X244800Y955500D01*
X246300D01*
X247050Y954750D01*
X244050Y954000D02*X247050D01*
Y954750D02*Y954000D01*
X249600Y952500D02*X251850D01*
X252600Y953250D01*
X251850Y954000D02*X252600Y953250D01*
X249600Y954000D02*X251850D01*
X248850Y954750D02*X249600Y954000D01*
X248850Y954750D02*X249600Y955500D01*
X251850D01*
X252600Y954750D01*
X248850Y953250D02*X249600Y952500D01*
X257850Y958500D02*Y953250D01*
X258600Y952500D01*
X257100Y956250D02*X258600D01*
X260100Y954750D02*Y953250D01*
Y954750D02*X260850Y955500D01*
X262350D01*
X263100Y954750D01*
Y953250D01*
X262350Y952500D02*X263100Y953250D01*
X260850Y952500D02*X262350D01*
X260100Y953250D02*X260850Y952500D01*
X265650Y958500D02*Y953250D01*
X266400Y952500D01*
X264900Y956250D02*X266400D01*
X270150Y955500D02*X270900Y954750D01*
X268650Y955500D02*X270150D01*
X267900Y954750D02*X268650Y955500D01*
X267900Y954750D02*Y953250D01*
X268650Y952500D01*
X270900Y955500D02*Y953250D01*
X271650Y952500D01*
X268650D02*X270150D01*
X270900Y953250D01*
X273450Y958500D02*Y953250D01*
X274200Y952500D01*
G54D85*X10000Y800000D02*X40000D01*
Y10000D02*X10000D01*
Y800000D01*
X260000D02*X290000D01*
Y10000D01*
X260000D01*
X250000Y800000D02*Y735000D01*
X260000Y800000D02*Y735000D01*
X50000D02*Y800000D01*
X40000D02*Y735000D01*
X250000Y640000D02*Y575000D01*
X50000D02*Y640000D01*
X250000Y480000D02*Y415000D01*
X50000D02*Y480000D01*
X250000Y320000D02*Y255000D01*
X50000D02*Y320000D01*
X250000Y160000D02*Y95000D01*
X50000D02*Y160000D01*
Y715000D02*Y650000D01*
X250000Y715000D02*Y650000D01*
Y555000D02*Y490000D01*
X50000Y555000D02*Y490000D01*
X250000Y395000D02*Y330000D01*
X50000Y395000D02*Y330000D01*
X250000Y235000D02*Y170000D01*
X50000Y235000D02*Y170000D01*
X250000Y75000D02*Y10000D01*
X50000Y75000D02*Y10000D01*
X40000Y715000D02*Y575000D01*
X260000Y715000D02*Y575000D01*
X40000Y555000D02*Y415000D01*
X260000Y555000D02*Y415000D01*
X40000Y395000D02*Y255000D01*
X260000Y395000D02*Y255000D01*
X40000Y235000D02*Y95000D01*
X260000Y235000D02*Y95000D01*
Y75000D02*Y10000D01*
X40000Y75000D02*Y10000D01*
X50000Y800000D02*X250000D01*
Y10000D02*X50000D01*
X160000Y640000D02*X250000D01*
Y650000D02*X160000D01*
X50000Y640000D02*X140000D01*
X50000Y650000D02*X140000D01*
X160000Y480000D02*X250000D01*
Y490000D02*X160000D01*
X50000Y480000D02*X140000D01*
X50000Y490000D02*X140000D01*
X160000Y320000D02*X250000D01*
Y330000D02*X160000D01*
X50000Y320000D02*X140000D01*
X50000Y330000D02*X140000D01*
X160000Y160000D02*X250000D01*
Y170000D02*X160000D01*
X50000Y160000D02*X140000D01*
X50000Y170000D02*X140000D01*
X255000Y730000D02*G75*G02X250000Y735000I0J5000D01*G01*
X255000Y730000D02*G75*G03X260000Y735000I0J5000D01*G01*
X255000Y720000D02*G75*G03X250000Y715000I0J-5000D01*G01*
X255000Y720000D02*G75*G02X260000Y715000I0J-5000D01*G01*
X255000Y570000D02*G75*G02X250000Y575000I0J5000D01*G01*
X255000Y570000D02*G75*G03X260000Y575000I0J5000D01*G01*
X255000Y560000D02*G75*G03X250000Y555000I0J-5000D01*G01*
X255000Y560000D02*G75*G02X260000Y555000I0J-5000D01*G01*
X45000Y570000D02*G75*G03X50000Y575000I0J5000D01*G01*
X45000Y570000D02*G75*G02X40000Y575000I0J5000D01*G01*
X45000Y560000D02*G75*G02X50000Y555000I0J-5000D01*G01*
X45000Y560000D02*G75*G03X40000Y555000I0J-5000D01*G01*
X255000Y410000D02*G75*G02X250000Y415000I0J5000D01*G01*
X255000Y410000D02*G75*G03X260000Y415000I0J5000D01*G01*
X255000Y400000D02*G75*G03X250000Y395000I0J-5000D01*G01*
X255000Y400000D02*G75*G02X260000Y395000I0J-5000D01*G01*
X45000Y410000D02*G75*G03X50000Y415000I0J5000D01*G01*
X45000Y410000D02*G75*G02X40000Y415000I0J5000D01*G01*
X45000Y400000D02*G75*G02X50000Y395000I0J-5000D01*G01*
X45000Y400000D02*G75*G03X40000Y395000I0J-5000D01*G01*
X255000Y250000D02*G75*G02X250000Y255000I0J5000D01*G01*
X255000Y250000D02*G75*G03X260000Y255000I0J5000D01*G01*
X255000Y240000D02*G75*G03X250000Y235000I0J-5000D01*G01*
X255000Y240000D02*G75*G02X260000Y235000I0J-5000D01*G01*
X45000Y250000D02*G75*G03X50000Y255000I0J5000D01*G01*
X45000Y250000D02*G75*G02X40000Y255000I0J5000D01*G01*
X45000Y240000D02*G75*G02X50000Y235000I0J-5000D01*G01*
X45000Y240000D02*G75*G03X40000Y235000I0J-5000D01*G01*
X255000Y90000D02*G75*G02X250000Y95000I0J5000D01*G01*
X255000Y90000D02*G75*G03X260000Y95000I0J5000D01*G01*
X255000Y80000D02*G75*G03X250000Y75000I0J-5000D01*G01*
X255000Y80000D02*G75*G02X260000Y75000I0J-5000D01*G01*
X45000Y90000D02*G75*G03X50000Y95000I0J5000D01*G01*
X45000Y90000D02*G75*G02X40000Y95000I0J5000D01*G01*
X45000Y80000D02*G75*G02X50000Y75000I0J-5000D01*G01*
X45000Y80000D02*G75*G03X40000Y75000I0J-5000D01*G01*
X155000Y645000D02*G75*G03X160000Y640000I5000J0D01*G01*
X155000Y645000D02*G75*G02X160000Y650000I5000J0D01*G01*
X145000Y645000D02*G75*G02X140000Y640000I-5000J0D01*G01*
X145000Y645000D02*G75*G03X140000Y650000I-5000J0D01*G01*
X155000Y485000D02*G75*G03X160000Y480000I5000J0D01*G01*
X155000Y485000D02*G75*G02X160000Y490000I5000J0D01*G01*
X145000Y485000D02*G75*G02X140000Y480000I-5000J0D01*G01*
X145000Y485000D02*G75*G03X140000Y490000I-5000J0D01*G01*
X155000Y325000D02*G75*G03X160000Y320000I5000J0D01*G01*
X155000Y325000D02*G75*G02X160000Y330000I5000J0D01*G01*
X145000Y325000D02*G75*G02X140000Y320000I-5000J0D01*G01*
X145000Y325000D02*G75*G03X140000Y330000I-5000J0D01*G01*
X155000Y165000D02*G75*G03X160000Y160000I5000J0D01*G01*
X155000Y165000D02*G75*G02X160000Y170000I5000J0D01*G01*
X145000Y165000D02*G75*G02X140000Y160000I-5000J0D01*G01*
X145000Y165000D02*G75*G03X140000Y170000I-5000J0D01*G01*
X45000Y730000D02*G75*G02X40000Y735000I0J5000D01*G01*
X45000Y730000D02*G75*G03X50000Y735000I0J5000D01*G01*
X45000Y720000D02*G75*G03X40000Y715000I0J-5000D01*G01*
X45000Y720000D02*G75*G02X50000Y715000I0J-5000D01*G01*
G54D83*X63675Y-9500D02*X66675D01*
X67425Y-8750D01*
Y-6950D02*Y-8750D01*
X66675Y-6200D02*X67425Y-6950D01*
X64425Y-6200D02*X66675D01*
X64425Y-3500D02*Y-9500D01*
X63675Y-3500D02*X66675D01*
X67425Y-4250D01*
Y-5450D01*
X66675Y-6200D02*X67425Y-5450D01*
X69225Y-7250D02*Y-8750D01*
Y-7250D02*X69975Y-6500D01*
X71475D01*
X72225Y-7250D01*
Y-8750D01*
X71475Y-9500D02*X72225Y-8750D01*
X69975Y-9500D02*X71475D01*
X69225Y-8750D02*X69975Y-9500D01*
X76275Y-6500D02*X77025Y-7250D01*
X74775Y-6500D02*X76275D01*
X74025Y-7250D02*X74775Y-6500D01*
X74025Y-7250D02*Y-8750D01*
X74775Y-9500D01*
X77025Y-6500D02*Y-8750D01*
X77775Y-9500D01*
X74775D02*X76275D01*
X77025Y-8750D01*
X80325Y-7250D02*Y-9500D01*
Y-7250D02*X81075Y-6500D01*
X82575D01*
X79575D02*X80325Y-7250D01*
X87375Y-3500D02*Y-9500D01*
X86625D02*X87375Y-8750D01*
X85125Y-9500D02*X86625D01*
X84375Y-8750D02*X85125Y-9500D01*
X84375Y-7250D02*Y-8750D01*
Y-7250D02*X85125Y-6500D01*
X86625D01*
X87375Y-7250D01*
X91875D02*Y-8750D01*
Y-7250D02*X92625Y-6500D01*
X94125D01*
X94875Y-7250D01*
Y-8750D01*
X94125Y-9500D02*X94875Y-8750D01*
X92625Y-9500D02*X94125D01*
X91875Y-8750D02*X92625Y-9500D01*
X96675Y-6500D02*Y-8750D01*
X97425Y-9500D01*
X98925D01*
X99675Y-8750D01*
Y-6500D02*Y-8750D01*
X102225Y-3500D02*Y-8750D01*
X102975Y-9500D01*
X101475Y-5750D02*X102975D01*
X104475Y-3500D02*Y-8750D01*
X105225Y-9500D01*
G54D84*X106725Y-5000D02*Y-5150D01*
G54D83*Y-7250D02*Y-9500D01*
X108975Y-7250D02*Y-9500D01*
Y-7250D02*X109725Y-6500D01*
X110475D01*
X111225Y-7250D01*
Y-9500D01*
X108225Y-6500D02*X108975Y-7250D01*
X113775Y-9500D02*X116025D01*
X113025Y-8750D02*X113775Y-9500D01*
X113025Y-7250D02*Y-8750D01*
Y-7250D02*X113775Y-6500D01*
X115275D01*
X116025Y-7250D01*
X113025Y-8000D02*X116025D01*
Y-7250D02*Y-8000D01*
G54D84*X120525Y-5000D02*Y-5150D01*
G54D83*Y-7250D02*Y-9500D01*
X122775D02*X125025D01*
X125775Y-8750D01*
X125025Y-8000D02*X125775Y-8750D01*
X122775Y-8000D02*X125025D01*
X122025Y-7250D02*X122775Y-8000D01*
X122025Y-7250D02*X122775Y-6500D01*
X125025D01*
X125775Y-7250D01*
X122025Y-8750D02*X122775Y-9500D01*
X131025Y-3500D02*Y-8750D01*
X131775Y-9500D01*
X130275Y-5750D02*X131775D01*
X133275Y-3500D02*Y-9500D01*
Y-7250D02*X134025Y-6500D01*
X135525D01*
X136275Y-7250D01*
Y-9500D01*
X138825D02*X141075D01*
X138075Y-8750D02*X138825Y-9500D01*
X138075Y-7250D02*Y-8750D01*
Y-7250D02*X138825Y-6500D01*
X140325D01*
X141075Y-7250D01*
X138075Y-8000D02*X141075D01*
Y-7250D02*Y-8000D01*
X146325Y-6500D02*X148575D01*
X145575Y-7250D02*X146325Y-6500D01*
X145575Y-7250D02*Y-8750D01*
X146325Y-9500D01*
X148575D01*
X151125D02*X153375D01*
X150375Y-8750D02*X151125Y-9500D01*
X150375Y-7250D02*Y-8750D01*
Y-7250D02*X151125Y-6500D01*
X152625D01*
X153375Y-7250D01*
X150375Y-8000D02*X153375D01*
Y-7250D02*Y-8000D01*
X155925Y-7250D02*Y-9500D01*
Y-7250D02*X156675Y-6500D01*
X157425D01*
X158175Y-7250D01*
Y-9500D01*
X155175Y-6500D02*X155925Y-7250D01*
X160725Y-3500D02*Y-8750D01*
X161475Y-9500D01*
X159975Y-5750D02*X161475D01*
X163725Y-9500D02*X165975D01*
X162975Y-8750D02*X163725Y-9500D01*
X162975Y-7250D02*Y-8750D01*
Y-7250D02*X163725Y-6500D01*
X165225D01*
X165975Y-7250D01*
X162975Y-8000D02*X165975D01*
Y-7250D02*Y-8000D01*
X168525Y-7250D02*Y-9500D01*
Y-7250D02*X169275Y-6500D01*
X170775D01*
X167775D02*X168525Y-7250D01*
X172575Y-3500D02*Y-8750D01*
X173325Y-9500D01*
G54D84*X174825Y-5000D02*Y-5150D01*
G54D83*Y-7250D02*Y-9500D01*
X177075Y-7250D02*Y-9500D01*
Y-7250D02*X177825Y-6500D01*
X178575D01*
X179325Y-7250D01*
Y-9500D01*
X176325Y-6500D02*X177075Y-7250D01*
X181875Y-9500D02*X184125D01*
X181125Y-8750D02*X181875Y-9500D01*
X181125Y-7250D02*Y-8750D01*
Y-7250D02*X181875Y-6500D01*
X183375D01*
X184125Y-7250D01*
X181125Y-8000D02*X184125D01*
Y-7250D02*Y-8000D01*
X188625Y-7250D02*Y-8750D01*
Y-7250D02*X189375Y-6500D01*
X190875D01*
X191625Y-7250D01*
Y-8750D01*
X190875Y-9500D02*X191625Y-8750D01*
X189375Y-9500D02*X190875D01*
X188625Y-8750D02*X189375Y-9500D01*
X194175Y-4250D02*Y-9500D01*
Y-4250D02*X194925Y-3500D01*
X195675D01*
X193425Y-6500D02*X194925D01*
X200625Y-3500D02*Y-8750D01*
X201375Y-9500D01*
X199875Y-5750D02*X201375D01*
X202875Y-3500D02*Y-9500D01*
Y-7250D02*X203625Y-6500D01*
X205125D01*
X205875Y-7250D01*
Y-9500D01*
G54D84*X207675Y-5000D02*Y-5150D01*
G54D83*Y-7250D02*Y-9500D01*
X209925D02*X212175D01*
X212925Y-8750D01*
X212175Y-8000D02*X212925Y-8750D01*
X209925Y-8000D02*X212175D01*
X209175Y-7250D02*X209925Y-8000D01*
X209175Y-7250D02*X209925Y-6500D01*
X212175D01*
X212925Y-7250D01*
X209175Y-8750D02*X209925Y-9500D01*
X218175Y-7250D02*Y-11750D01*
X217425Y-6500D02*X218175Y-7250D01*
X218925Y-6500D01*
X220425D01*
X221175Y-7250D01*
Y-8750D01*
X220425Y-9500D02*X221175Y-8750D01*
X218925Y-9500D02*X220425D01*
X218175Y-8750D02*X218925Y-9500D01*
X225225Y-6500D02*X225975Y-7250D01*
X223725Y-6500D02*X225225D01*
X222975Y-7250D02*X223725Y-6500D01*
X222975Y-7250D02*Y-8750D01*
X223725Y-9500D01*
X225975Y-6500D02*Y-8750D01*
X226725Y-9500D01*
X223725D02*X225225D01*
X225975Y-8750D01*
X229275Y-3500D02*Y-8750D01*
X230025Y-9500D01*
X228525Y-5750D02*X230025D01*
X231525Y-3500D02*Y-9500D01*
Y-7250D02*X232275Y-6500D01*
X233775D01*
X234525Y-7250D01*
Y-9500D01*
X200750Y838500D02*Y832500D01*
X202700Y838500D02*X203750Y837450D01*
Y833550D01*
X202700Y832500D02*X203750Y833550D01*
X200000Y832500D02*X202700D01*
X200000Y838500D02*X202700D01*
X207800Y835500D02*X208550Y834750D01*
X206300Y835500D02*X207800D01*
X205550Y834750D02*X206300Y835500D01*
X205550Y834750D02*Y833250D01*
X206300Y832500D01*
X208550Y835500D02*Y833250D01*
X209300Y832500D01*
X206300D02*X207800D01*
X208550Y833250D01*
X211850Y838500D02*Y833250D01*
X212600Y832500D01*
X211100Y836250D02*X212600D01*
X214850Y832500D02*X217100D01*
X214100Y833250D02*X214850Y832500D01*
X214100Y834750D02*Y833250D01*
Y834750D02*X214850Y835500D01*
X216350D01*
X217100Y834750D01*
X214100Y834000D02*X217100D01*
Y834750D02*Y834000D01*
X218900Y836250D02*X219650D01*
X218900Y834750D02*X219650D01*
X227150Y838500D02*X227900Y837750D01*
X224900Y838500D02*X227150D01*
X224150Y837750D02*X224900Y838500D01*
X224150Y837750D02*Y836250D01*
X224900Y835500D01*
X227150D01*
X227900Y834750D01*
Y833250D01*
X227150Y832500D02*X227900Y833250D01*
X224900Y832500D02*X227150D01*
X224150Y833250D02*X224900Y832500D01*
X229700Y835500D02*Y833250D01*
X230450Y832500D01*
X231950D01*
X232700Y833250D01*
Y835500D02*Y833250D01*
X235250Y834750D02*Y832500D01*
Y834750D02*X236000Y835500D01*
X236750D01*
X237500Y834750D01*
Y832500D01*
X234500Y835500D02*X235250Y834750D01*
X242000Y837750D02*Y833250D01*
Y837750D02*X242750Y838500D01*
X244250D01*
X245000Y837750D01*
Y833250D01*
X244250Y832500D02*X245000Y833250D01*
X242750Y832500D02*X244250D01*
X242000Y833250D02*X242750Y832500D01*
X247550Y835500D02*X249800D01*
X246800Y834750D02*X247550Y835500D01*
X246800Y834750D02*Y833250D01*
X247550Y832500D01*
X249800D01*
X252350Y838500D02*Y833250D01*
X253100Y832500D01*
X251600Y836250D02*X253100D01*
X257300Y837300D02*X258500Y838500D01*
Y832500D01*
X257300D02*X259550D01*
X263600Y838500D02*X264350Y837750D01*
X262100Y838500D02*X263600D01*
X261350Y837750D02*X262100Y838500D01*
X261350Y837750D02*Y833250D01*
X262100Y832500D01*
X263600Y835800D02*X264350Y835050D01*
X261350Y835800D02*X263600D01*
X262100Y832500D02*X263600D01*
X264350Y833250D01*
Y835050D02*Y833250D01*
X268850D02*X269600Y832500D01*
X268850Y837750D02*Y833250D01*
Y837750D02*X269600Y838500D01*
X271100D01*
X271850Y837750D01*
Y833250D01*
X271100Y832500D02*X271850Y833250D01*
X269600Y832500D02*X271100D01*
X268850Y834000D02*X271850Y837000D01*
X273650Y837750D02*X274400Y838500D01*
X275900D01*
X276650Y837750D01*
X275900Y832500D02*X276650Y833250D01*
X274400Y832500D02*X275900D01*
X273650Y833250D02*X274400Y832500D01*
Y835800D02*X275900D01*
X276650Y837750D02*Y836550D01*
Y835050D02*Y833250D01*
Y835050D02*X275900Y835800D01*
X276650Y836550D02*X275900Y835800D01*
X278450Y836250D02*X279200D01*
X278450Y834750D02*X279200D01*
X281000Y837300D02*X282200Y838500D01*
Y832500D01*
X281000D02*X283250D01*
X285800D02*X288050Y835500D01*
Y837750D02*Y835500D01*
X287300Y838500D02*X288050Y837750D01*
X285800Y838500D02*X287300D01*
X285050Y837750D02*X285800Y838500D01*
X285050Y837750D02*Y836250D01*
X285800Y835500D01*
X288050D01*
X289850Y836250D02*X290600D01*
X289850Y834750D02*X290600D01*
X292400Y837300D02*X293600Y838500D01*
Y832500D01*
X292400D02*X294650D01*
X297200D02*X300200Y838500D01*
X296450D02*X300200D01*
X304700Y837750D02*X305450Y838500D01*
X307700D01*
X308450Y837750D01*
Y836250D01*
X304700Y832500D02*X308450Y836250D01*
X304700Y832500D02*X308450D01*
X310250Y833250D02*X311000Y832500D01*
X310250Y837750D02*Y833250D01*
Y837750D02*X311000Y838500D01*
X312500D01*
X313250Y837750D01*
Y833250D01*
X312500Y832500D02*X313250Y833250D01*
X311000Y832500D02*X312500D01*
X310250Y834000D02*X313250Y837000D01*
X315050Y837750D02*X315800Y838500D01*
X318050D01*
X318800Y837750D01*
Y836250D01*
X315050Y832500D02*X318800Y836250D01*
X315050Y832500D02*X318800D01*
X320600Y837750D02*X321350Y838500D01*
X323600D01*
X324350Y837750D01*
Y836250D01*
X320600Y832500D02*X324350Y836250D01*
X320600Y832500D02*X324350D01*
X328850Y838500D02*Y833250D01*
X329600Y832500D01*
X331100D01*
X331850Y833250D01*
Y838500D02*Y833250D01*
X333650Y838500D02*X336650D01*
X335150D02*Y832500D01*
X339500D02*X341450D01*
X338450Y833550D02*X339500Y832500D01*
X338450Y837450D02*Y833550D01*
Y837450D02*X339500Y838500D01*
X341450D01*
X200000Y852000D02*Y847500D01*
Y852000D02*X201050Y853500D01*
X202700D01*
X203750Y852000D01*
Y847500D01*
X200000Y850500D02*X203750D01*
X205550D02*Y848250D01*
X206300Y847500D01*
X207800D01*
X208550Y848250D01*
Y850500D02*Y848250D01*
X211100Y853500D02*Y848250D01*
X211850Y847500D01*
X210350Y851250D02*X211850D01*
X213350Y853500D02*Y847500D01*
Y849750D02*X214100Y850500D01*
X215600D01*
X216350Y849750D01*
Y847500D01*
X218150Y849750D02*Y848250D01*
Y849750D02*X218900Y850500D01*
X220400D01*
X221150Y849750D01*
Y848250D01*
X220400Y847500D02*X221150Y848250D01*
X218900Y847500D02*X220400D01*
X218150Y848250D02*X218900Y847500D01*
X223700Y849750D02*Y847500D01*
Y849750D02*X224450Y850500D01*
X225950D01*
X222950D02*X223700Y849750D01*
X227750Y851250D02*X228500D01*
X227750Y849750D02*X228500D01*
X233000Y853500D02*Y847500D01*
Y853500D02*X236750Y847500D01*
Y853500D02*Y847500D01*
X240800Y850500D02*X241550Y849750D01*
X239300Y850500D02*X240800D01*
X238550Y849750D02*X239300Y850500D01*
X238550Y849750D02*Y848250D01*
X239300Y847500D01*
X241550Y850500D02*Y848250D01*
X242300Y847500D01*
X239300D02*X240800D01*
X241550Y848250D01*
X244850Y853500D02*Y848250D01*
X245600Y847500D01*
X244100Y851250D02*X245600D01*
X247100Y853500D02*Y847500D01*
Y849750D02*X247850Y850500D01*
X249350D01*
X250100Y849750D01*
Y847500D01*
X254150Y850500D02*X254900Y849750D01*
X252650Y850500D02*X254150D01*
X251900Y849750D02*X252650Y850500D01*
X251900Y849750D02*Y848250D01*
X252650Y847500D01*
X254900Y850500D02*Y848250D01*
X255650Y847500D01*
X252650D02*X254150D01*
X254900Y848250D01*
X258200Y849750D02*Y847500D01*
Y849750D02*X258950Y850500D01*
X259700D01*
X260450Y849750D01*
Y847500D01*
X257450Y850500D02*X258200Y849750D01*
X265700Y853500D02*Y847500D01*
X267650Y853500D02*X268700Y852450D01*
Y848550D01*
X267650Y847500D02*X268700Y848550D01*
X264950Y847500D02*X267650D01*
X264950Y853500D02*X267650D01*
X270500Y847500D02*X271250D01*
X275750Y853500D02*Y847500D01*
X279500Y853500D02*Y847500D01*
X275750Y850500D02*X279500D01*
X281300Y849750D02*Y848250D01*
Y849750D02*X282050Y850500D01*
X283550D01*
X284300Y849750D01*
Y848250D01*
X283550Y847500D02*X284300Y848250D01*
X282050Y847500D02*X283550D01*
X281300Y848250D02*X282050Y847500D01*
X286100Y853500D02*Y848250D01*
X286850Y847500D01*
X289100Y849750D02*Y847500D01*
Y849750D02*X289850Y850500D01*
X290600D01*
X291350Y849750D01*
Y847500D01*
Y849750D02*X292100Y850500D01*
X292850D01*
X293600Y849750D01*
Y847500D01*
X288350Y850500D02*X289100Y849750D01*
X296150Y847500D02*X298400D01*
X295400Y848250D02*X296150Y847500D01*
X295400Y849750D02*Y848250D01*
Y849750D02*X296150Y850500D01*
X297650D01*
X298400Y849750D01*
X295400Y849000D02*X298400D01*
Y849750D02*Y849000D01*
X300950Y847500D02*X303200D01*
X303950Y848250D01*
X303200Y849000D02*X303950Y848250D01*
X300950Y849000D02*X303200D01*
X300200Y849750D02*X300950Y849000D01*
X300200Y849750D02*X300950Y850500D01*
X303200D01*
X303950Y849750D01*
X300200Y848250D02*X300950Y847500D01*
X200000Y868500D02*X203000D01*
X201500D02*Y862500D01*
G54D84*X204800Y867000D02*Y866850D01*
G54D83*Y864750D02*Y862500D01*
X207050Y868500D02*Y863250D01*
X207800Y862500D01*
X206300Y866250D02*X207800D01*
X209300Y868500D02*Y863250D01*
X210050Y862500D01*
X212300D02*X214550D01*
X211550Y863250D02*X212300Y862500D01*
X211550Y864750D02*Y863250D01*
Y864750D02*X212300Y865500D01*
X213800D01*
X214550Y864750D01*
X211550Y864000D02*X214550D01*
Y864750D02*Y864000D01*
X216350Y866250D02*X217100D01*
X216350Y864750D02*X217100D01*
X221600Y863250D02*X222350Y862500D01*
X221600Y867750D02*X222350Y868500D01*
X221600Y867750D02*Y863250D01*
X224150Y865500D02*Y863250D01*
X224900Y862500D01*
X226400D01*
X227150Y863250D01*
Y865500D02*Y863250D01*
X229700Y864750D02*Y862500D01*
Y864750D02*X230450Y865500D01*
X231200D01*
X231950Y864750D01*
Y862500D01*
X228950Y865500D02*X229700Y864750D01*
X233750Y868500D02*Y862500D01*
Y864750D02*X236000Y862500D01*
X233750Y864750D02*X235250Y866250D01*
X238550Y864750D02*Y862500D01*
Y864750D02*X239300Y865500D01*
X240050D01*
X240800Y864750D01*
Y862500D01*
X237800Y865500D02*X238550Y864750D01*
X242600D02*Y863250D01*
Y864750D02*X243350Y865500D01*
X244850D01*
X245600Y864750D01*
Y863250D01*
X244850Y862500D02*X245600Y863250D01*
X243350Y862500D02*X244850D01*
X242600Y863250D02*X243350Y862500D01*
X247400Y865500D02*Y863250D01*
X248150Y862500D01*
X248900D01*
X249650Y863250D01*
Y865500D02*Y863250D01*
X250400Y862500D01*
X251150D01*
X251900Y863250D01*
Y865500D02*Y863250D01*
X254450Y864750D02*Y862500D01*
Y864750D02*X255200Y865500D01*
X255950D01*
X256700Y864750D01*
Y862500D01*
X253700Y865500D02*X254450Y864750D01*
X258500Y868500D02*X259250Y867750D01*
Y863250D01*
X258500Y862500D02*X259250Y863250D01*
X263750Y865500D02*X266750D01*
X271250Y868500D02*Y862500D01*
Y868500D02*X274250D01*
X271250Y865800D02*X273500D01*
X278300Y865500D02*X279050Y864750D01*
X276800Y865500D02*X278300D01*
X276050Y864750D02*X276800Y865500D01*
X276050Y864750D02*Y863250D01*
X276800Y862500D01*
X279050Y865500D02*Y863250D01*
X279800Y862500D01*
X276800D02*X278300D01*
X279050Y863250D01*
X281600Y868500D02*Y862500D01*
Y863250D02*X282350Y862500D01*
X283850D01*
X284600Y863250D01*
Y864750D02*Y863250D01*
X283850Y865500D02*X284600Y864750D01*
X282350Y865500D02*X283850D01*
X281600Y864750D02*X282350Y865500D01*
X287150Y864750D02*Y862500D01*
Y864750D02*X287900Y865500D01*
X289400D01*
X286400D02*X287150Y864750D01*
G54D84*X291200Y867000D02*Y866850D01*
G54D83*Y864750D02*Y862500D01*
X293450Y865500D02*X295700D01*
X292700Y864750D02*X293450Y865500D01*
X292700Y864750D02*Y863250D01*
X293450Y862500D01*
X295700D01*
X299750Y865500D02*X300500Y864750D01*
X298250Y865500D02*X299750D01*
X297500Y864750D02*X298250Y865500D01*
X297500Y864750D02*Y863250D01*
X298250Y862500D01*
X300500Y865500D02*Y863250D01*
X301250Y862500D01*
X298250D02*X299750D01*
X300500Y863250D01*
X303800Y868500D02*Y863250D01*
X304550Y862500D01*
X303050Y866250D02*X304550D01*
G54D84*X306050Y867000D02*Y866850D01*
G54D83*Y864750D02*Y862500D01*
X307550Y864750D02*Y863250D01*
Y864750D02*X308300Y865500D01*
X309800D01*
X310550Y864750D01*
Y863250D01*
X309800Y862500D02*X310550Y863250D01*
X308300Y862500D02*X309800D01*
X307550Y863250D02*X308300Y862500D01*
X313100Y864750D02*Y862500D01*
Y864750D02*X313850Y865500D01*
X314600D01*
X315350Y864750D01*
Y862500D01*
X312350Y865500D02*X313100Y864750D01*
X320600Y868500D02*Y862500D01*
X322550Y868500D02*X323600Y867450D01*
Y863550D01*
X322550Y862500D02*X323600Y863550D01*
X319850Y862500D02*X322550D01*
X319850Y868500D02*X322550D01*
X326150Y864750D02*Y862500D01*
Y864750D02*X326900Y865500D01*
X328400D01*
X325400D02*X326150Y864750D01*
X332450Y865500D02*X333200Y864750D01*
X330950Y865500D02*X332450D01*
X330200Y864750D02*X330950Y865500D01*
X330200Y864750D02*Y863250D01*
X330950Y862500D01*
X333200Y865500D02*Y863250D01*
X333950Y862500D01*
X330950D02*X332450D01*
X333200Y863250D01*
X335750Y865500D02*Y863250D01*
X336500Y862500D01*
X337250D01*
X338000Y863250D01*
Y865500D02*Y863250D01*
X338750Y862500D01*
X339500D01*
X340250Y863250D01*
Y865500D02*Y863250D01*
G54D84*X342050Y867000D02*Y866850D01*
G54D83*Y864750D02*Y862500D01*
X344300Y864750D02*Y862500D01*
Y864750D02*X345050Y865500D01*
X345800D01*
X346550Y864750D01*
Y862500D01*
X343550Y865500D02*X344300Y864750D01*
X350600Y865500D02*X351350Y864750D01*
X349100Y865500D02*X350600D01*
X348350Y864750D02*X349100Y865500D01*
X348350Y864750D02*Y863250D01*
X349100Y862500D01*
X350600D01*
X351350Y863250D01*
X348350Y861000D02*X349100Y860250D01*
X350600D01*
X351350Y861000D01*
Y865500D02*Y861000D01*
M02*
