G04 start of page 10 for group -4078 idx -4078 *
G04 Title: (unknown), bottomsilk *
G04 Creator: pcb 4.0.2 *
G04 CreationDate: Sun Oct 16 03:19:17 2022 UTC *
G04 For: ndholmes *
G04 Format: Gerber/RS-274X *
G04 PCB-Dimensions (mil): 3000.00 8100.00 *
G04 PCB-Coordinate-Origin: lower left *
%MOIN*%
%FSLAX25Y25*%
%LNBOTTOMSILK*%
%ADD77C,0.0080*%
%ADD76C,0.0100*%
G54D76*X249500Y479500D02*Y330500D01*
Y319500D02*Y170500D01*
Y159500D02*Y10500D01*
Y330500D02*X50500D01*
Y319500D02*X249500D01*
X50500Y170500D02*Y319500D01*
Y330500D02*Y479500D01*
X249500Y170500D02*X50500D01*
Y159500D02*X249500D01*
Y10500D02*X50500D01*
Y159500D01*
X249500Y650500D02*X50500D01*
Y639500D02*X249500D01*
Y490500D01*
X50500D01*
Y639500D01*
Y799500D02*X249500D01*
Y650500D01*
X50500D02*Y799500D01*
Y479500D02*X249500D01*
G54D77*X118500Y547800D02*X119300Y547000D01*
Y551000D01*
X118500D02*X120000D01*
X121200Y550500D02*X121700Y551000D01*
X121200Y547500D02*Y550500D01*
Y547500D02*X121700Y547000D01*
X122700D01*
X123200Y547500D01*
Y550500D01*
X122700Y551000D02*X123200Y550500D01*
X121700Y551000D02*X122700D01*
X121200Y550000D02*X123200Y548000D01*
X124400Y547000D02*Y551000D01*
Y549500D02*X125900Y551000D01*
X124400Y549500D02*X125400Y548500D01*
X129400Y547000D02*Y551000D01*
X128900Y547000D02*X130900D01*
X131400Y547500D01*
Y548500D01*
X130900Y549000D02*X131400Y548500D01*
X129400Y549000D02*X130900D01*
X132600Y547000D02*Y550500D01*
X133100Y551000D01*
X134100D01*
X134600Y550500D01*
Y547000D02*Y550500D01*
X135800Y547000D02*Y551000D01*
X137800D01*
X139000Y547000D02*Y551000D01*
X141000D01*
X142200Y549000D02*X144200D01*
X145400Y547000D02*Y550500D01*
X145900Y551000D01*
X146900D01*
X147400Y550500D01*
Y547000D02*Y550500D01*
X149100Y547000D02*Y551000D01*
X148600Y547000D02*X150600D01*
X151100Y547500D01*
Y548500D01*
X150600Y549000D02*X151100Y548500D01*
X149100Y549000D02*X150600D01*
X156500Y547000D02*Y551000D01*
Y547000D02*X158500D01*
X156500Y548800D02*X158000D01*
X159700Y547500D02*Y550500D01*
Y547500D02*X160200Y547000D01*
X161200D01*
X161700Y547500D01*
Y550500D01*
X161200Y551000D02*X161700Y550500D01*
X160200Y551000D02*X161200D01*
X159700Y550500D02*X160200Y551000D01*
X162900Y547000D02*X164900D01*
X165400Y547500D01*
Y548500D01*
X164900Y549000D02*X165400Y548500D01*
X163400Y549000D02*X164900D01*
X163400Y547000D02*Y551000D01*
X164200Y549000D02*X165400Y551000D01*
X168400Y550500D02*X171400Y547500D01*
X173100Y547000D02*Y551000D01*
X174400Y547000D02*X175100Y547700D01*
Y550300D01*
X174400Y551000D02*X175100Y550300D01*
X172600Y551000D02*X174400D01*
X172600Y547000D02*X174400D01*
X118500Y557300D02*X119300Y556500D01*
Y560500D01*
X118500D02*X120000D01*
X121200Y560000D02*X121700Y560500D01*
X121200Y557000D02*Y560000D01*
Y557000D02*X121700Y556500D01*
X122700D01*
X123200Y557000D01*
Y560000D01*
X122700Y560500D02*X123200Y560000D01*
X121700Y560500D02*X122700D01*
X121200Y559500D02*X123200Y557500D01*
X124400Y556500D02*Y560500D01*
Y559000D02*X125900Y560500D01*
X124400Y559000D02*X125400Y558000D01*
X129400Y556500D02*Y560500D01*
X128900Y556500D02*X130900D01*
X131400Y557000D01*
Y558000D01*
X130900Y558500D02*X131400Y558000D01*
X129400Y558500D02*X130900D01*
X132600Y556500D02*Y560000D01*
X133100Y560500D01*
X134100D01*
X134600Y560000D01*
Y556500D02*Y560000D01*
X135800Y556500D02*Y560500D01*
X137800D01*
X139000Y556500D02*Y560500D01*
X141000D01*
X142200Y558500D02*X144200D01*
X145400Y556500D02*Y560000D01*
X145900Y560500D01*
X146900D01*
X147400Y560000D01*
Y556500D02*Y560000D01*
X149100Y556500D02*Y560500D01*
X148600Y556500D02*X150600D01*
X151100Y557000D01*
Y558000D01*
X150600Y558500D02*X151100Y558000D01*
X149100Y558500D02*X150600D01*
X155200Y556500D02*Y560500D01*
Y556500D02*X157200D01*
X155200Y558300D02*X156700D01*
X158400Y557000D02*Y560000D01*
Y557000D02*X158900Y556500D01*
X159900D01*
X160400Y557000D01*
Y560000D01*
X159900Y560500D02*X160400Y560000D01*
X158900Y560500D02*X159900D01*
X158400Y560000D02*X158900Y560500D01*
X161600Y556500D02*X163600D01*
X164100Y557000D01*
Y558000D01*
X163600Y558500D02*X164100Y558000D01*
X162100Y558500D02*X163600D01*
X162100Y556500D02*Y560500D01*
X162900Y558500D02*X164100Y560500D01*
X167600Y556500D02*Y560500D01*
X168900Y556500D02*X169600Y557200D01*
Y559800D01*
X168900Y560500D02*X169600Y559800D01*
X167100Y560500D02*X168900D01*
X167100Y556500D02*X168900D01*
X118500Y707800D02*X119300Y707000D01*
Y711000D01*
X118500D02*X120000D01*
X121200Y710500D02*X121700Y711000D01*
X121200Y707500D02*Y710500D01*
Y707500D02*X121700Y707000D01*
X122700D01*
X123200Y707500D01*
Y710500D01*
X122700Y711000D02*X123200Y710500D01*
X121700Y711000D02*X122700D01*
X121200Y710000D02*X123200Y708000D01*
X124400Y707000D02*Y711000D01*
Y709500D02*X125900Y711000D01*
X124400Y709500D02*X125400Y708500D01*
X129400Y707000D02*Y711000D01*
X128900Y707000D02*X130900D01*
X131400Y707500D01*
Y708500D01*
X130900Y709000D02*X131400Y708500D01*
X129400Y709000D02*X130900D01*
X132600Y707000D02*Y710500D01*
X133100Y711000D01*
X134100D01*
X134600Y710500D01*
Y707000D02*Y710500D01*
X135800Y707000D02*Y711000D01*
X137800D01*
X139000Y707000D02*Y711000D01*
X141000D01*
X142200Y709000D02*X144200D01*
X145400Y707000D02*Y710500D01*
X145900Y711000D01*
X146900D01*
X147400Y710500D01*
Y707000D02*Y710500D01*
X149100Y707000D02*Y711000D01*
X148600Y707000D02*X150600D01*
X151100Y707500D01*
Y708500D01*
X150600Y709000D02*X151100Y708500D01*
X149100Y709000D02*X150600D01*
X156500Y707000D02*Y711000D01*
Y707000D02*X158500D01*
X156500Y708800D02*X158000D01*
X159700Y707500D02*Y710500D01*
Y707500D02*X160200Y707000D01*
X161200D01*
X161700Y707500D01*
Y710500D01*
X161200Y711000D02*X161700Y710500D01*
X160200Y711000D02*X161200D01*
X159700Y710500D02*X160200Y711000D01*
X162900Y707000D02*X164900D01*
X165400Y707500D01*
Y708500D01*
X164900Y709000D02*X165400Y708500D01*
X163400Y709000D02*X164900D01*
X163400Y707000D02*Y711000D01*
X164200Y709000D02*X165400Y711000D01*
X168400Y710500D02*X171400Y707500D01*
X173100Y707000D02*Y711000D01*
X174400Y707000D02*X175100Y707700D01*
Y710300D01*
X174400Y711000D02*X175100Y710300D01*
X172600Y711000D02*X174400D01*
X172600Y707000D02*X174400D01*
X118500Y717300D02*X119300Y716500D01*
Y720500D01*
X118500D02*X120000D01*
X121200Y720000D02*X121700Y720500D01*
X121200Y717000D02*Y720000D01*
Y717000D02*X121700Y716500D01*
X122700D01*
X123200Y717000D01*
Y720000D01*
X122700Y720500D02*X123200Y720000D01*
X121700Y720500D02*X122700D01*
X121200Y719500D02*X123200Y717500D01*
X124400Y716500D02*Y720500D01*
Y719000D02*X125900Y720500D01*
X124400Y719000D02*X125400Y718000D01*
X129400Y716500D02*Y720500D01*
X128900Y716500D02*X130900D01*
X131400Y717000D01*
Y718000D01*
X130900Y718500D02*X131400Y718000D01*
X129400Y718500D02*X130900D01*
X132600Y716500D02*Y720000D01*
X133100Y720500D01*
X134100D01*
X134600Y720000D01*
Y716500D02*Y720000D01*
X135800Y716500D02*Y720500D01*
X137800D01*
X139000Y716500D02*Y720500D01*
X141000D01*
X142200Y718500D02*X144200D01*
X145400Y716500D02*Y720000D01*
X145900Y720500D01*
X146900D01*
X147400Y720000D01*
Y716500D02*Y720000D01*
X149100Y716500D02*Y720500D01*
X148600Y716500D02*X150600D01*
X151100Y717000D01*
Y718000D01*
X150600Y718500D02*X151100Y718000D01*
X149100Y718500D02*X150600D01*
X155200Y716500D02*Y720500D01*
Y716500D02*X157200D01*
X155200Y718300D02*X156700D01*
X158400Y717000D02*Y720000D01*
Y717000D02*X158900Y716500D01*
X159900D01*
X160400Y717000D01*
Y720000D01*
X159900Y720500D02*X160400Y720000D01*
X158900Y720500D02*X159900D01*
X158400Y720000D02*X158900Y720500D01*
X161600Y716500D02*X163600D01*
X164100Y717000D01*
Y718000D01*
X163600Y718500D02*X164100Y718000D01*
X162100Y718500D02*X163600D01*
X162100Y716500D02*Y720500D01*
X162900Y718500D02*X164100Y720500D01*
X167600Y716500D02*Y720500D01*
X168900Y716500D02*X169600Y717200D01*
Y719800D01*
X168900Y720500D02*X169600Y719800D01*
X167100Y720500D02*X168900D01*
X167100Y716500D02*X168900D01*
X118500Y387800D02*X119300Y387000D01*
Y391000D01*
X118500D02*X120000D01*
X121200Y390500D02*X121700Y391000D01*
X121200Y387500D02*Y390500D01*
Y387500D02*X121700Y387000D01*
X122700D01*
X123200Y387500D01*
Y390500D01*
X122700Y391000D02*X123200Y390500D01*
X121700Y391000D02*X122700D01*
X121200Y390000D02*X123200Y388000D01*
X124400Y387000D02*Y391000D01*
Y389500D02*X125900Y391000D01*
X124400Y389500D02*X125400Y388500D01*
X129400Y387000D02*Y391000D01*
X128900Y387000D02*X130900D01*
X131400Y387500D01*
Y388500D01*
X130900Y389000D02*X131400Y388500D01*
X129400Y389000D02*X130900D01*
X132600Y387000D02*Y390500D01*
X133100Y391000D01*
X134100D01*
X134600Y390500D01*
Y387000D02*Y390500D01*
X135800Y387000D02*Y391000D01*
X137800D01*
X139000Y387000D02*Y391000D01*
X141000D01*
X142200Y389000D02*X144200D01*
X145400Y387000D02*Y390500D01*
X145900Y391000D01*
X146900D01*
X147400Y390500D01*
Y387000D02*Y390500D01*
X149100Y387000D02*Y391000D01*
X148600Y387000D02*X150600D01*
X151100Y387500D01*
Y388500D01*
X150600Y389000D02*X151100Y388500D01*
X149100Y389000D02*X150600D01*
X118500Y227800D02*X119300Y227000D01*
Y231000D01*
X118500D02*X120000D01*
X121200Y230500D02*X121700Y231000D01*
X121200Y227500D02*Y230500D01*
Y227500D02*X121700Y227000D01*
X122700D01*
X123200Y227500D01*
Y230500D01*
X122700Y231000D02*X123200Y230500D01*
X121700Y231000D02*X122700D01*
X121200Y230000D02*X123200Y228000D01*
X124400Y227000D02*Y231000D01*
Y229500D02*X125900Y231000D01*
X124400Y229500D02*X125400Y228500D01*
X129400Y227000D02*Y231000D01*
X128900Y227000D02*X130900D01*
X131400Y227500D01*
Y228500D01*
X130900Y229000D02*X131400Y228500D01*
X129400Y229000D02*X130900D01*
X132600Y227000D02*Y230500D01*
X133100Y231000D01*
X134100D01*
X134600Y230500D01*
Y227000D02*Y230500D01*
X135800Y227000D02*Y231000D01*
X137800D01*
X139000Y227000D02*Y231000D01*
X141000D01*
X142200Y229000D02*X144200D01*
X145400Y227000D02*Y230500D01*
X145900Y231000D01*
X146900D01*
X147400Y230500D01*
Y227000D02*Y230500D01*
X149100Y227000D02*Y231000D01*
X148600Y227000D02*X150600D01*
X151100Y227500D01*
Y228500D01*
X150600Y229000D02*X151100Y228500D01*
X149100Y229000D02*X150600D01*
X118500Y237300D02*X119300Y236500D01*
Y240500D01*
X118500D02*X120000D01*
X121200Y240000D02*X121700Y240500D01*
X121200Y237000D02*Y240000D01*
Y237000D02*X121700Y236500D01*
X122700D01*
X123200Y237000D01*
Y240000D01*
X122700Y240500D02*X123200Y240000D01*
X121700Y240500D02*X122700D01*
X121200Y239500D02*X123200Y237500D01*
X124400Y236500D02*Y240500D01*
Y239000D02*X125900Y240500D01*
X124400Y239000D02*X125400Y238000D01*
X129400Y236500D02*Y240500D01*
X128900Y236500D02*X130900D01*
X131400Y237000D01*
Y238000D01*
X130900Y238500D02*X131400Y238000D01*
X129400Y238500D02*X130900D01*
X132600Y236500D02*Y240000D01*
X133100Y240500D01*
X134100D01*
X134600Y240000D01*
Y236500D02*Y240000D01*
X135800Y236500D02*Y240500D01*
X137800D01*
X139000Y236500D02*Y240500D01*
X141000D01*
X142200Y238500D02*X144200D01*
X145400Y236500D02*Y240000D01*
X145900Y240500D01*
X146900D01*
X147400Y240000D01*
Y236500D02*Y240000D01*
X149100Y236500D02*Y240500D01*
X148600Y236500D02*X150600D01*
X151100Y237000D01*
Y238000D01*
X150600Y238500D02*X151100Y238000D01*
X149100Y238500D02*X150600D01*
X118500Y67800D02*X119300Y67000D01*
Y71000D01*
X118500D02*X120000D01*
X121200Y70500D02*X121700Y71000D01*
X121200Y67500D02*Y70500D01*
Y67500D02*X121700Y67000D01*
X122700D01*
X123200Y67500D01*
Y70500D01*
X122700Y71000D02*X123200Y70500D01*
X121700Y71000D02*X122700D01*
X121200Y70000D02*X123200Y68000D01*
X124400Y67000D02*Y71000D01*
Y69500D02*X125900Y71000D01*
X124400Y69500D02*X125400Y68500D01*
X129400Y67000D02*Y71000D01*
X128900Y67000D02*X130900D01*
X131400Y67500D01*
Y68500D01*
X130900Y69000D02*X131400Y68500D01*
X129400Y69000D02*X130900D01*
X132600Y67000D02*Y70500D01*
X133100Y71000D01*
X134100D01*
X134600Y70500D01*
Y67000D02*Y70500D01*
X135800Y67000D02*Y71000D01*
X137800D01*
X139000Y67000D02*Y71000D01*
X141000D01*
X142200Y69000D02*X144200D01*
X145400Y67000D02*Y70500D01*
X145900Y71000D01*
X146900D01*
X147400Y70500D01*
Y67000D02*Y70500D01*
X149100Y67000D02*Y71000D01*
X148600Y67000D02*X150600D01*
X151100Y67500D01*
Y68500D01*
X150600Y69000D02*X151100Y68500D01*
X149100Y69000D02*X150600D01*
X118500Y77300D02*X119300Y76500D01*
Y80500D01*
X118500D02*X120000D01*
X121200Y80000D02*X121700Y80500D01*
X121200Y77000D02*Y80000D01*
Y77000D02*X121700Y76500D01*
X122700D01*
X123200Y77000D01*
Y80000D01*
X122700Y80500D02*X123200Y80000D01*
X121700Y80500D02*X122700D01*
X121200Y79500D02*X123200Y77500D01*
X124400Y76500D02*Y80500D01*
Y79000D02*X125900Y80500D01*
X124400Y79000D02*X125400Y78000D01*
X129400Y76500D02*Y80500D01*
X128900Y76500D02*X130900D01*
X131400Y77000D01*
Y78000D01*
X130900Y78500D02*X131400Y78000D01*
X129400Y78500D02*X130900D01*
X132600Y76500D02*Y80000D01*
X133100Y80500D01*
X134100D01*
X134600Y80000D01*
Y76500D02*Y80000D01*
X135800Y76500D02*Y80500D01*
X137800D01*
X139000Y76500D02*Y80500D01*
X141000D01*
X142200Y78500D02*X144200D01*
X145400Y76500D02*Y80000D01*
X145900Y80500D01*
X146900D01*
X147400Y80000D01*
Y76500D02*Y80000D01*
X149100Y76500D02*Y80500D01*
X148600Y76500D02*X150600D01*
X151100Y77000D01*
Y78000D01*
X150600Y78500D02*X151100Y78000D01*
X149100Y78500D02*X150600D01*
X156500Y387000D02*Y391000D01*
Y387000D02*X158500D01*
X156500Y388800D02*X158000D01*
X159700Y387500D02*Y390500D01*
Y387500D02*X160200Y387000D01*
X161200D01*
X161700Y387500D01*
Y390500D01*
X161200Y391000D02*X161700Y390500D01*
X160200Y391000D02*X161200D01*
X159700Y390500D02*X160200Y391000D01*
X162900Y387000D02*X164900D01*
X165400Y387500D01*
Y388500D01*
X164900Y389000D02*X165400Y388500D01*
X163400Y389000D02*X164900D01*
X163400Y387000D02*Y391000D01*
X164200Y389000D02*X165400Y391000D01*
X168400Y390500D02*X171400Y387500D01*
X173100Y387000D02*Y391000D01*
X174400Y387000D02*X175100Y387700D01*
Y390300D01*
X174400Y391000D02*X175100Y390300D01*
X172600Y391000D02*X174400D01*
X172600Y387000D02*X174400D01*
X156500Y227000D02*Y231000D01*
Y227000D02*X158500D01*
X156500Y228800D02*X158000D01*
X159700Y227500D02*Y230500D01*
Y227500D02*X160200Y227000D01*
X161200D01*
X161700Y227500D01*
Y230500D01*
X161200Y231000D02*X161700Y230500D01*
X160200Y231000D02*X161200D01*
X159700Y230500D02*X160200Y231000D01*
X162900Y227000D02*X164900D01*
X165400Y227500D01*
Y228500D01*
X164900Y229000D02*X165400Y228500D01*
X163400Y229000D02*X164900D01*
X163400Y227000D02*Y231000D01*
X164200Y229000D02*X165400Y231000D01*
X168400Y230500D02*X171400Y227500D01*
X173100Y227000D02*Y231000D01*
X174400Y227000D02*X175100Y227700D01*
Y230300D01*
X174400Y231000D02*X175100Y230300D01*
X172600Y231000D02*X174400D01*
X172600Y227000D02*X174400D01*
X155200Y236500D02*Y240500D01*
Y236500D02*X157200D01*
X155200Y238300D02*X156700D01*
X158400Y237000D02*Y240000D01*
Y237000D02*X158900Y236500D01*
X159900D01*
X160400Y237000D01*
Y240000D01*
X159900Y240500D02*X160400Y240000D01*
X158900Y240500D02*X159900D01*
X158400Y240000D02*X158900Y240500D01*
X161600Y236500D02*X163600D01*
X164100Y237000D01*
Y238000D01*
X163600Y238500D02*X164100Y238000D01*
X162100Y238500D02*X163600D01*
X162100Y236500D02*Y240500D01*
X162900Y238500D02*X164100Y240500D01*
X167600Y236500D02*Y240500D01*
X168900Y236500D02*X169600Y237200D01*
Y239800D01*
X168900Y240500D02*X169600Y239800D01*
X167100Y240500D02*X168900D01*
X167100Y236500D02*X168900D01*
X156500Y67000D02*Y71000D01*
Y67000D02*X158500D01*
X156500Y68800D02*X158000D01*
X159700Y67500D02*Y70500D01*
Y67500D02*X160200Y67000D01*
X161200D01*
X161700Y67500D01*
Y70500D01*
X161200Y71000D02*X161700Y70500D01*
X160200Y71000D02*X161200D01*
X159700Y70500D02*X160200Y71000D01*
X162900Y67000D02*X164900D01*
X165400Y67500D01*
Y68500D01*
X164900Y69000D02*X165400Y68500D01*
X163400Y69000D02*X164900D01*
X163400Y67000D02*Y71000D01*
X164200Y69000D02*X165400Y71000D01*
X168400Y70500D02*X171400Y67500D01*
X173100Y67000D02*Y71000D01*
X174400Y67000D02*X175100Y67700D01*
Y70300D01*
X174400Y71000D02*X175100Y70300D01*
X172600Y71000D02*X174400D01*
X172600Y67000D02*X174400D01*
X155200Y76500D02*Y80500D01*
Y76500D02*X157200D01*
X155200Y78300D02*X156700D01*
X158400Y77000D02*Y80000D01*
Y77000D02*X158900Y76500D01*
X159900D01*
X160400Y77000D01*
Y80000D01*
X159900Y80500D02*X160400Y80000D01*
X158900Y80500D02*X159900D01*
X158400Y80000D02*X158900Y80500D01*
X161600Y76500D02*X163600D01*
X164100Y77000D01*
Y78000D01*
X163600Y78500D02*X164100Y78000D01*
X162100Y78500D02*X163600D01*
X162100Y76500D02*Y80500D01*
X162900Y78500D02*X164100Y80500D01*
X167600Y76500D02*Y80500D01*
X168900Y76500D02*X169600Y77200D01*
Y79800D01*
X168900Y80500D02*X169600Y79800D01*
X167100Y80500D02*X168900D01*
X167100Y76500D02*X168900D01*
X118500Y397300D02*X119300Y396500D01*
Y400500D01*
X118500D02*X120000D01*
X121200Y400000D02*X121700Y400500D01*
X121200Y397000D02*Y400000D01*
Y397000D02*X121700Y396500D01*
X122700D01*
X123200Y397000D01*
Y400000D01*
X122700Y400500D02*X123200Y400000D01*
X121700Y400500D02*X122700D01*
X121200Y399500D02*X123200Y397500D01*
X124400Y396500D02*Y400500D01*
Y399000D02*X125900Y400500D01*
X124400Y399000D02*X125400Y398000D01*
X129400Y396500D02*Y400500D01*
X128900Y396500D02*X130900D01*
X131400Y397000D01*
Y398000D01*
X130900Y398500D02*X131400Y398000D01*
X129400Y398500D02*X130900D01*
X132600Y396500D02*Y400000D01*
X133100Y400500D01*
X134100D01*
X134600Y400000D01*
Y396500D02*Y400000D01*
X135800Y396500D02*Y400500D01*
X137800D01*
X139000Y396500D02*Y400500D01*
X141000D01*
X142200Y398500D02*X144200D01*
X145400Y396500D02*Y400000D01*
X145900Y400500D01*
X146900D01*
X147400Y400000D01*
Y396500D02*Y400000D01*
X149100Y396500D02*Y400500D01*
X148600Y396500D02*X150600D01*
X151100Y397000D01*
Y398000D01*
X150600Y398500D02*X151100Y398000D01*
X149100Y398500D02*X150600D01*
X155200Y396500D02*Y400500D01*
Y396500D02*X157200D01*
X155200Y398300D02*X156700D01*
X158400Y397000D02*Y400000D01*
Y397000D02*X158900Y396500D01*
X159900D01*
X160400Y397000D01*
Y400000D01*
X159900Y400500D02*X160400Y400000D01*
X158900Y400500D02*X159900D01*
X158400Y400000D02*X158900Y400500D01*
X161600Y396500D02*X163600D01*
X164100Y397000D01*
Y398000D01*
X163600Y398500D02*X164100Y398000D01*
X162100Y398500D02*X163600D01*
X162100Y396500D02*Y400500D01*
X162900Y398500D02*X164100Y400500D01*
X167600Y396500D02*Y400500D01*
X168900Y396500D02*X169600Y397200D01*
Y399800D01*
X168900Y400500D02*X169600Y399800D01*
X167100Y400500D02*X168900D01*
X167100Y396500D02*X168900D01*
X92200Y67000D02*X93000D01*
Y70500D01*
X92500Y71000D02*X93000Y70500D01*
X92000Y71000D02*X92500D01*
X91500Y70500D02*X92000Y71000D01*
X91500Y70000D02*Y70500D01*
X94700Y67000D02*Y71000D01*
X94200Y67000D02*X96200D01*
X96700Y67500D01*
Y68500D01*
X96200Y69000D02*X96700Y68500D01*
X94700Y69000D02*X96200D01*
X97900Y67500D02*X98400Y67000D01*
X99900D01*
X100400Y67500D01*
Y68500D01*
X97900Y71000D02*X100400Y68500D01*
X97900Y71000D02*X100400D01*
X92300Y76543D02*X93100D01*
Y80043D01*
X92600Y80543D02*X93100Y80043D01*
X92100Y80543D02*X92600D01*
X91600Y80043D02*X92100Y80543D01*
X91600Y79543D02*Y80043D01*
X94800Y76543D02*Y80543D01*
X94300Y76543D02*X96300D01*
X96800Y77043D01*
Y78043D01*
X96300Y78543D02*X96800Y78043D01*
X94800Y78543D02*X96300D01*
X98000Y77343D02*X98800Y76543D01*
Y80543D01*
X98000D02*X99500D01*
X92200Y707000D02*X93000D01*
Y710500D01*
X92500Y711000D02*X93000Y710500D01*
X92000Y711000D02*X92500D01*
X91500Y710500D02*X92000Y711000D01*
X91500Y710000D02*Y710500D01*
X94700Y707000D02*Y711000D01*
X94200Y707000D02*X96200D01*
X96700Y707500D01*
Y708500D01*
X96200Y709000D02*X96700Y708500D01*
X94700Y709000D02*X96200D01*
X97900Y707500D02*X98400Y707000D01*
X99900D01*
X100400Y707500D01*
Y708500D01*
X97900Y711000D02*X100400Y708500D01*
X97900Y711000D02*X100400D01*
X92300Y716543D02*X93100D01*
Y720043D01*
X92600Y720543D02*X93100Y720043D01*
X92100Y720543D02*X92600D01*
X91600Y720043D02*X92100Y720543D01*
X91600Y719543D02*Y720043D01*
X94800Y716543D02*Y720543D01*
X94300Y716543D02*X96300D01*
X96800Y717043D01*
Y718043D01*
X96300Y718543D02*X96800Y718043D01*
X94800Y718543D02*X96300D01*
X98000Y717343D02*X98800Y716543D01*
Y720543D01*
X98000D02*X99500D01*
X92200Y547000D02*X93000D01*
Y550500D01*
X92500Y551000D02*X93000Y550500D01*
X92000Y551000D02*X92500D01*
X91500Y550500D02*X92000Y551000D01*
X91500Y550000D02*Y550500D01*
X94700Y547000D02*Y551000D01*
X94200Y547000D02*X96200D01*
X96700Y547500D01*
Y548500D01*
X96200Y549000D02*X96700Y548500D01*
X94700Y549000D02*X96200D01*
X97900Y547500D02*X98400Y547000D01*
X99900D01*
X100400Y547500D01*
Y548500D01*
X97900Y551000D02*X100400Y548500D01*
X97900Y551000D02*X100400D01*
X92300Y556543D02*X93100D01*
Y560043D01*
X92600Y560543D02*X93100Y560043D01*
X92100Y560543D02*X92600D01*
X91600Y560043D02*X92100Y560543D01*
X91600Y559543D02*Y560043D01*
X94800Y556543D02*Y560543D01*
X94300Y556543D02*X96300D01*
X96800Y557043D01*
Y558043D01*
X96300Y558543D02*X96800Y558043D01*
X94800Y558543D02*X96300D01*
X98000Y557343D02*X98800Y556543D01*
Y560543D01*
X98000D02*X99500D01*
X92200Y387000D02*X93000D01*
Y390500D01*
X92500Y391000D02*X93000Y390500D01*
X92000Y391000D02*X92500D01*
X91500Y390500D02*X92000Y391000D01*
X91500Y390000D02*Y390500D01*
X94700Y387000D02*Y391000D01*
X94200Y387000D02*X96200D01*
X96700Y387500D01*
Y388500D01*
X96200Y389000D02*X96700Y388500D01*
X94700Y389000D02*X96200D01*
X97900Y387500D02*X98400Y387000D01*
X99900D01*
X100400Y387500D01*
Y388500D01*
X97900Y391000D02*X100400Y388500D01*
X97900Y391000D02*X100400D01*
X92300Y396543D02*X93100D01*
Y400043D01*
X92600Y400543D02*X93100Y400043D01*
X92100Y400543D02*X92600D01*
X91600Y400043D02*X92100Y400543D01*
X91600Y399543D02*Y400043D01*
X94800Y396543D02*Y400543D01*
X94300Y396543D02*X96300D01*
X96800Y397043D01*
Y398043D01*
X96300Y398543D02*X96800Y398043D01*
X94800Y398543D02*X96300D01*
X98000Y397343D02*X98800Y396543D01*
Y400543D01*
X98000D02*X99500D01*
X92200Y227000D02*X93000D01*
Y230500D01*
X92500Y231000D02*X93000Y230500D01*
X92000Y231000D02*X92500D01*
X91500Y230500D02*X92000Y231000D01*
X91500Y230000D02*Y230500D01*
X94700Y227000D02*Y231000D01*
X94200Y227000D02*X96200D01*
X96700Y227500D01*
Y228500D01*
X96200Y229000D02*X96700Y228500D01*
X94700Y229000D02*X96200D01*
X97900Y227500D02*X98400Y227000D01*
X99900D01*
X100400Y227500D01*
Y228500D01*
X97900Y231000D02*X100400Y228500D01*
X97900Y231000D02*X100400D01*
X92300Y236543D02*X93100D01*
Y240043D01*
X92600Y240543D02*X93100Y240043D01*
X92100Y240543D02*X92600D01*
X91600Y240043D02*X92100Y240543D01*
X91600Y239543D02*Y240043D01*
X94800Y236543D02*Y240543D01*
X94300Y236543D02*X96300D01*
X96800Y237043D01*
Y238043D01*
X96300Y238543D02*X96800Y238043D01*
X94800Y238543D02*X96300D01*
X98000Y237343D02*X98800Y236543D01*
Y240543D01*
X98000D02*X99500D01*
M02*
