G04 start of page 2 for group 0 idx 0 *
G04 Title: (unknown), top *
G04 Creator: pcb 4.0.2 *
G04 CreationDate: Sun Oct 16 03:19:17 2022 UTC *
G04 For: ndholmes *
G04 Format: Gerber/RS-274X *
G04 PCB-Dimensions (mil): 3000.00 8100.00 *
G04 PCB-Coordinate-Origin: lower left *
%MOIN*%
%FSLAX25Y25*%
%LNTOP*%
%ADD30C,0.0680*%
%ADD29C,0.0480*%
%ADD28C,0.0600*%
%ADD27C,0.1285*%
%ADD26C,0.0390*%
%ADD25C,0.0120*%
%ADD24C,0.0260*%
%ADD23C,0.0310*%
%ADD22C,0.1200*%
%ADD21C,0.0800*%
%ADD20C,0.1100*%
%ADD19C,0.2937*%
%ADD18C,0.0394*%
%ADD17C,0.0200*%
%ADD16C,0.0400*%
%ADD15C,0.0350*%
%ADD14C,0.0700*%
%ADD13C,0.0100*%
%ADD12C,0.0250*%
%ADD11C,0.0001*%
G54D11*G36*
X206500Y521000D02*X197000D01*
Y527000D01*
X206500D01*
Y521000D01*
G37*
G36*
X215000Y567000D02*X205500D01*
Y612500D01*
X215000D01*
Y567000D01*
G37*
G36*
X199000D02*X189500D01*
Y612500D01*
X199000D01*
Y567000D01*
G37*
G36*
X194000Y534000D02*X210000D01*
Y524500D01*
X194000D01*
Y534000D01*
G37*
G36*
X198500Y533000D02*X210000D01*
Y526500D01*
X198500D01*
Y533000D01*
G37*
G36*
X206500Y41000D02*X197000D01*
Y47000D01*
X206500D01*
Y41000D01*
G37*
G36*
X194000Y54000D02*X210000D01*
Y44500D01*
X194000D01*
Y54000D01*
G37*
G36*
X198500Y53000D02*X210000D01*
Y46500D01*
X198500D01*
Y53000D01*
G37*
G36*
X215000Y87000D02*X205500D01*
Y132500D01*
X215000D01*
Y87000D01*
G37*
G36*
X199000D02*X189500D01*
Y132500D01*
X199000D01*
Y87000D01*
G37*
G36*
X206500Y681000D02*X197000D01*
Y687000D01*
X206500D01*
Y681000D01*
G37*
G36*
X194000Y694000D02*X210000D01*
Y684500D01*
X194000D01*
Y694000D01*
G37*
G36*
X198500Y693000D02*X210000D01*
Y686500D01*
X198500D01*
Y693000D01*
G37*
G36*
X215000Y727000D02*X205500D01*
Y772500D01*
X215000D01*
Y727000D01*
G37*
G36*
X199000D02*X189500D01*
Y772500D01*
X199000D01*
Y727000D01*
G37*
G36*
X119500Y668500D02*X130079D01*
X130131Y668374D01*
X130230Y668213D01*
X130353Y668070D01*
X130496Y667947D01*
X130658Y667848D01*
X130832Y667776D01*
X131016Y667732D01*
X131204Y667721D01*
X135172Y667732D01*
X135356Y667776D01*
X135530Y667848D01*
X135692Y667947D01*
X135835Y668070D01*
X135958Y668213D01*
X136057Y668374D01*
X136109Y668500D01*
X141891D01*
X141943Y668374D01*
X142042Y668213D01*
X142165Y668070D01*
X142308Y667947D01*
X142470Y667848D01*
X142644Y667776D01*
X142828Y667732D01*
X143016Y667721D01*
X146984Y667732D01*
X147168Y667776D01*
X147342Y667848D01*
X147504Y667947D01*
X147647Y668070D01*
X147770Y668213D01*
X147869Y668374D01*
X147921Y668500D01*
X157000D01*
Y652500D01*
X119500D01*
Y668500D01*
G37*
G36*
X82000Y659000D02*X118000D01*
Y652000D01*
X82000D01*
Y659000D01*
G37*
G36*
X119500Y508500D02*X130079D01*
X130131Y508374D01*
X130230Y508213D01*
X130353Y508070D01*
X130496Y507947D01*
X130658Y507848D01*
X130832Y507776D01*
X131016Y507732D01*
X131204Y507721D01*
X135172Y507732D01*
X135356Y507776D01*
X135530Y507848D01*
X135692Y507947D01*
X135835Y508070D01*
X135958Y508213D01*
X136057Y508374D01*
X136109Y508500D01*
X141891D01*
X141943Y508374D01*
X142042Y508213D01*
X142165Y508070D01*
X142308Y507947D01*
X142470Y507848D01*
X142644Y507776D01*
X142828Y507732D01*
X143016Y507721D01*
X146984Y507732D01*
X147168Y507776D01*
X147342Y507848D01*
X147504Y507947D01*
X147647Y508070D01*
X147770Y508213D01*
X147869Y508374D01*
X147921Y508500D01*
X157000D01*
Y492500D01*
X119500D01*
Y508500D01*
G37*
G36*
Y348500D02*X130079D01*
X130131Y348374D01*
X130230Y348213D01*
X130353Y348070D01*
X130496Y347947D01*
X130658Y347848D01*
X130832Y347776D01*
X131016Y347732D01*
X131204Y347721D01*
X135172Y347732D01*
X135356Y347776D01*
X135530Y347848D01*
X135692Y347947D01*
X135835Y348070D01*
X135958Y348213D01*
X136057Y348374D01*
X136109Y348500D01*
X141891D01*
X141943Y348374D01*
X142042Y348213D01*
X142165Y348070D01*
X142308Y347947D01*
X142470Y347848D01*
X142644Y347776D01*
X142828Y347732D01*
X143016Y347721D01*
X146984Y347732D01*
X147168Y347776D01*
X147342Y347848D01*
X147504Y347947D01*
X147647Y348070D01*
X147770Y348213D01*
X147869Y348374D01*
X147921Y348500D01*
X157000D01*
Y332500D01*
X119500D01*
Y348500D01*
G37*
G36*
X82000Y499000D02*X118000D01*
Y492000D01*
X82000D01*
Y499000D01*
G37*
G36*
Y339000D02*X118000D01*
Y332000D01*
X82000D01*
Y339000D01*
G37*
G36*
X206500Y361000D02*X197000D01*
Y367000D01*
X206500D01*
Y361000D01*
G37*
G36*
X194000Y374000D02*X210000D01*
Y364500D01*
X194000D01*
Y374000D01*
G37*
G36*
X198500Y373000D02*X210000D01*
Y366500D01*
X198500D01*
Y373000D01*
G37*
G36*
X215000Y407000D02*X205500D01*
Y452500D01*
X215000D01*
Y407000D01*
G37*
G36*
X199000D02*X189500D01*
Y452500D01*
X199000D01*
Y407000D01*
G37*
G36*
X206500Y201000D02*X197000D01*
Y207000D01*
X206500D01*
Y201000D01*
G37*
G36*
X194000Y214000D02*X210000D01*
Y204500D01*
X194000D01*
Y214000D01*
G37*
G36*
X198500Y213000D02*X210000D01*
Y206500D01*
X198500D01*
Y213000D01*
G37*
G36*
X119500Y188500D02*X130079D01*
X130131Y188374D01*
X130230Y188213D01*
X130353Y188070D01*
X130496Y187947D01*
X130658Y187848D01*
X130832Y187776D01*
X131016Y187732D01*
X131204Y187721D01*
X135172Y187732D01*
X135356Y187776D01*
X135530Y187848D01*
X135692Y187947D01*
X135835Y188070D01*
X135958Y188213D01*
X136057Y188374D01*
X136109Y188500D01*
X141891D01*
X141943Y188374D01*
X142042Y188213D01*
X142165Y188070D01*
X142308Y187947D01*
X142470Y187848D01*
X142644Y187776D01*
X142828Y187732D01*
X143016Y187721D01*
X146984Y187732D01*
X147168Y187776D01*
X147342Y187848D01*
X147504Y187947D01*
X147647Y188070D01*
X147770Y188213D01*
X147869Y188374D01*
X147921Y188500D01*
X157000D01*
Y172500D01*
X119500D01*
Y188500D01*
G37*
G36*
X82000Y179000D02*X118000D01*
Y172000D01*
X82000D01*
Y179000D01*
G37*
G36*
X215000Y247000D02*X205500D01*
Y292500D01*
X215000D01*
Y247000D01*
G37*
G36*
X199000D02*X189500D01*
Y292500D01*
X199000D01*
Y247000D01*
G37*
G36*
X119500Y28500D02*X130079D01*
X130131Y28374D01*
X130230Y28213D01*
X130353Y28070D01*
X130496Y27947D01*
X130658Y27848D01*
X130832Y27776D01*
X131016Y27732D01*
X131204Y27721D01*
X135172Y27732D01*
X135356Y27776D01*
X135530Y27848D01*
X135692Y27947D01*
X135835Y28070D01*
X135958Y28213D01*
X136057Y28374D01*
X136109Y28500D01*
X141891D01*
X141943Y28374D01*
X142042Y28213D01*
X142165Y28070D01*
X142308Y27947D01*
X142470Y27848D01*
X142644Y27776D01*
X142828Y27732D01*
X143016Y27721D01*
X146984Y27732D01*
X147168Y27776D01*
X147342Y27848D01*
X147504Y27947D01*
X147647Y28070D01*
X147770Y28213D01*
X147869Y28374D01*
X147921Y28500D01*
X157000D01*
Y12500D01*
X119500D01*
Y28500D01*
G37*
G36*
X82000Y19000D02*X118000D01*
Y12000D01*
X82000D01*
Y19000D01*
G37*
G54D12*X154000Y384500D02*Y391500D01*
G54D13*X172000Y387500D02*X171000Y386500D01*
Y380000D02*X171500Y379500D01*
G54D12*X148700Y405000D02*X154200Y399500D01*
X144000Y405000D02*X148700D01*
G54D13*X148900Y395600D02*X150000Y394500D01*
X146000Y395600D02*X148900D01*
X169000Y395000D02*X165500Y398500D01*
Y414000D01*
G54D12*X140500Y442500D02*X149500Y433500D01*
X170000D01*
X160000Y442500D02*X171500D01*
X146000Y391700D02*X138400D01*
G54D14*X102000Y415500D02*X135000D01*
G54D12*X146000Y399500D02*X141500D01*
Y396000D02*Y399500D01*
X127000Y405000D02*X145000D01*
X111000Y396500D02*Y405000D01*
X110000Y442500D02*X140500D01*
X101000Y382043D02*Y386500D01*
X111000Y396500D01*
G54D14*X94750Y408250D02*Y393750D01*
X88000Y387000D01*
X81000Y381900D02*X82900D01*
X90500Y389500D01*
G54D12*X106000Y382000D02*X111457D01*
X111500Y382043D01*
G54D15*X118000Y375000D02*X94000D01*
G54D12*X99031Y374969D02*X99000Y375000D01*
G54D15*X95000D02*X91500D01*
G54D12*X118800Y389200D02*X116500Y391500D01*
Y405000D02*Y391500D01*
X118000Y390000D01*
X138200Y376700D02*X137000Y375500D01*
X138200Y391700D02*Y376700D01*
G54D15*X131500Y381500D02*X124500D01*
X118000Y375000D01*
G54D12*X137000Y375500D02*X126500D01*
X124500Y373500D01*
X125250Y374250D01*
X138400Y391700D02*X138200Y391500D01*
X141500Y391700D02*X126300D01*
X128500D02*X123800D01*
X121000Y394500D01*
X118800Y382500D02*Y389200D01*
G54D13*X159000Y394000D02*Y382500D01*
X159500Y363500D02*X160500Y362500D01*
X159500Y367000D02*Y363500D01*
Y375500D02*X160500Y376500D01*
X159500Y372000D02*Y375500D01*
X157400Y395600D02*X159000Y394000D01*
X157000Y379000D02*X165500D01*
X164500D02*X169000D01*
Y364000D02*Y395000D01*
X154200Y395600D02*X157400D01*
X154500Y367000D02*Y363000D01*
X174750Y362500D02*X170500D01*
X169000Y364000D01*
X154500Y376500D02*X157000Y379000D01*
X154500Y372000D02*Y376500D01*
X150000Y384000D02*Y377000D01*
Y394500D02*Y382500D01*
X171500Y379500D02*X174500D01*
X184000Y360000D02*X177500D01*
X185500Y358500D02*X184000Y360000D01*
X185500Y354000D02*Y358500D01*
G54D16*X189500Y350000D02*Y371500D01*
G54D13*X184000Y352500D02*X185500Y354000D01*
X180000Y352500D02*X184000D01*
G54D16*X187000Y347500D02*X189500Y350000D01*
G54D13*X182457Y347457D02*X182500Y347500D01*
G54D16*X174000D02*X187000D01*
G54D13*X201250D02*X195500D01*
X194250Y346250D01*
X189543Y338500D02*Y341543D01*
X193500Y345500D01*
X182457Y338500D02*Y347457D01*
X194750Y346750D02*X192000Y344000D01*
X161500Y357500D02*X174750D01*
X151500D02*X162000D01*
X149500Y359500D02*X151500Y357500D01*
X149500Y361000D02*Y359500D01*
X180500Y360000D02*X172000D01*
X157500D02*X154500Y363000D01*
X175500Y360000D02*X157500D01*
X149500Y367000D02*Y360000D01*
X174750Y352500D02*X180500D01*
G54D16*X166000Y347500D02*X160500Y353000D01*
X174750Y347500D02*X166000D01*
X153188Y353000D02*X153094Y352906D01*
X160500Y353000D02*X153188D01*
X153863Y352906D02*X154000Y353043D01*
X144906Y352906D02*X153863D01*
X123500Y353043D02*X133051D01*
X133094Y353000D01*
G54D13*X138500Y367000D02*X141750Y363750D01*
X144906Y360594D02*X141500Y364000D01*
X144906Y352858D02*Y360594D01*
G54D16*X133094Y352858D02*Y360406D01*
X131500Y362000D01*
Y368500D01*
G54D13*X138500Y372000D02*Y367000D01*
X141000Y374500D02*X138500Y372000D01*
X147000Y374500D02*X141000D01*
X149500Y372000D02*X147000Y374500D01*
G54D12*X179500Y434500D02*X182000Y432000D01*
X182700Y431300D02*X179500Y434500D01*
X182700Y387500D02*Y431300D01*
X174500Y387500D02*Y429000D01*
X170000Y433500D02*X174500Y429000D01*
X171500Y442500D02*X180000Y434000D01*
G54D13*X187500Y381000D02*Y392500D01*
X186200Y379700D02*X187500Y381000D01*
G54D12*X185500Y375500D02*X189500Y371500D01*
G54D13*X186000Y379500D02*X187250Y380750D01*
X186750Y374250D02*X188500Y376000D01*
G54D12*X175500Y375500D02*X185500D01*
X174500Y376500D02*X175500Y375500D01*
X174500Y379500D02*Y376500D01*
G54D13*X182500Y379500D02*X186000D01*
X174500Y387500D02*X172000D01*
X171000Y386500D02*Y380000D01*
G54D17*X183000Y383400D02*X174800D01*
G54D13*X191957Y395000D02*X189000D01*
X199043D02*Y382957D01*
X203000Y379000D01*
X188500Y376000D02*X204500D01*
X191957Y386000D02*Y381457D01*
X190000Y379500D01*
X189000Y395000D02*X187500Y393500D01*
Y389500D01*
X234500Y414457D02*X236978Y411978D01*
X234500Y421957D02*Y414457D01*
G54D12*X218500Y411500D02*X211500D01*
G54D13*X227000Y429000D02*X234457D01*
X234500Y429043D01*
X214000Y357000D02*X212500Y355500D01*
X214000Y360957D02*Y357000D01*
Y358500D02*Y376500D01*
X209500Y352500D02*X213500Y356500D01*
X201250Y352500D02*X209500D01*
X201250Y357500D02*X208500D01*
Y347500D02*X216000Y355000D01*
Y372500D01*
X217500Y374000D01*
X234543Y372000D02*X234500Y371957D01*
X239000Y372000D02*X234543D01*
X240000Y373000D02*X239000Y372000D01*
X240000Y382500D02*Y373000D01*
X238500Y384000D02*X240000Y382500D01*
X234457Y379000D02*X234500Y379043D01*
X229500Y391500D02*X238000D01*
X239500Y393000D01*
X222043Y384000D02*X238500D01*
X217500Y374000D02*X224500D01*
X229500Y379000D01*
X234457D01*
X204500Y376000D02*X206000Y377500D01*
Y399500D01*
X208500Y402000D01*
X214914D01*
X214957Y393000D02*Y384000D01*
X210500Y388500D02*X214914D01*
X214957Y388457D01*
X214000Y376500D02*X215500Y378000D01*
X218500D01*
X239000Y383500D02*X240000Y382500D01*
X239500Y393000D02*Y409457D01*
X228000Y397000D02*X233957D01*
X234000Y396957D01*
X222000Y402000D02*X226000D01*
X228000Y404000D01*
X233957D01*
X234000Y404043D01*
X222043Y393000D02*X228000D01*
X229500Y391500D01*
G54D12*X99031Y351500D02*Y362469D01*
X99000Y362500D01*
X99031Y362000D02*Y374969D01*
X95094Y351500D02*Y344406D01*
G54D14*X95000Y305500D02*X99000Y309500D01*
X95000Y305500D02*Y262000D01*
G54D12*X95094Y344406D02*X97500Y342000D01*
X122000D01*
G54D14*X99000Y309500D02*X135000D01*
G54D12*X110000Y282500D02*X140500D01*
X102992Y350756D02*Y347008D01*
X104500Y345500D01*
X110500D01*
X111500Y346500D01*
Y351000D01*
X106929Y350756D02*Y356429D01*
X111500Y350000D02*Y355000D01*
X106929Y356429D02*X112000Y361500D01*
X118800Y369700D02*Y368300D01*
X110250Y359750D01*
X111500Y355000D02*X124500Y368000D01*
Y373500D01*
G54D14*X95000Y248500D02*X102000Y255500D01*
G54D12*X101000Y222043D02*Y226500D01*
X111000Y236500D01*
Y245000D01*
X106000Y222000D02*X111457D01*
X105500Y248500D02*X103000Y246000D01*
X111457Y222000D02*X111500Y222043D01*
X118800Y222500D02*Y229200D01*
X116500Y231500D01*
X118000Y230000D01*
G54D15*Y215000D02*X94000D01*
G54D12*X99031Y214969D02*X99000Y215000D01*
G54D15*X95000D02*X91500D01*
G54D12*X138200Y216700D02*X137000Y215500D01*
X138200Y231700D02*Y216700D01*
X137000Y215500D02*X126500D01*
G54D15*X131500Y221500D02*X124500D01*
X118000Y215000D01*
G54D12*X126500Y215500D02*X124500Y213500D01*
X125250Y214250D01*
X138400Y231700D02*X138200Y231500D01*
X128500Y231700D02*X123800D01*
X121000Y234500D01*
X133500Y245000D02*X116500D01*
Y231500D01*
Y245000D02*X113000Y248500D01*
X105500D01*
G54D14*X102000Y255500D02*X135000D01*
G54D12*X154000Y224500D02*Y231500D01*
G54D13*X172000Y227500D02*X171000Y226500D01*
G54D12*X148700Y245000D02*X154200Y239500D01*
X144000Y245000D02*X148700D01*
G54D13*X148900Y235600D02*X150000Y234500D01*
X146000Y235600D02*X148900D01*
X169000Y235000D02*X165500Y238500D01*
Y254000D01*
G54D12*X146000Y239500D02*X141500D01*
Y236000D02*Y239500D01*
X127000Y245000D02*X145000D01*
X146000Y231700D02*X138400D01*
X141500D02*X126300D01*
X140500Y282500D02*X149500Y273500D01*
X170000D01*
X160000Y282500D02*X171500D01*
X179500Y274500D02*X182000Y272000D01*
X182700Y271300D02*X179500Y274500D01*
X182700Y227500D02*Y271300D01*
X174500Y227500D02*Y269000D01*
X170000Y273500D02*X174500Y269000D01*
X171500Y282500D02*X180000Y274000D01*
G54D16*X81000Y237500D02*X72000D01*
X70000Y235500D01*
G54D14*X94750Y248250D02*Y233750D01*
X88000Y227000D01*
X81000Y221900D02*X82900D01*
X90500Y229500D01*
X95000Y262000D02*X89500Y256500D01*
X81000Y253100D02*X86100D01*
G54D12*X61000Y257000D02*X62500Y255500D01*
X70000D01*
G54D14*X86100Y253100D02*X91750Y258750D01*
G54D12*X81000Y284300D02*X63300D01*
X61000Y282000D01*
Y257000D01*
X81000Y268700D02*X76800D01*
X70000Y275500D01*
G54D13*X159000Y234000D02*Y222500D01*
X159500Y203500D02*X160500Y202500D01*
X159500Y207000D02*Y203500D01*
Y215500D02*X160500Y216500D01*
X159500Y212000D02*Y215500D01*
X157400Y235600D02*X159000Y234000D01*
X157000Y219000D02*X165500D01*
X164500D02*X169000D01*
Y204000D02*Y235000D01*
X154200Y235600D02*X157400D01*
X154500Y207000D02*Y203000D01*
X174750Y202500D02*X170500D01*
X169000Y204000D01*
X154500Y216500D02*X157000Y219000D01*
X154500Y212000D02*Y216500D01*
X150000Y224000D02*Y217000D01*
Y234500D02*Y222500D01*
X171000Y220000D02*X171500Y219500D01*
X174500D01*
X184000Y200000D02*X177500D01*
X185500Y198500D02*X184000Y200000D01*
X185500Y194000D02*Y198500D01*
G54D16*X189500Y190000D02*Y211500D01*
G54D13*X184000Y192500D02*X185500Y194000D01*
X180000Y192500D02*X184000D01*
G54D16*X187000Y187500D02*X189500Y190000D01*
G54D13*X182457Y187457D02*X182500Y187500D01*
G54D16*X174000D02*X187000D01*
G54D13*X201250D02*X195500D01*
X194250Y186250D01*
X189543Y178500D02*Y181543D01*
X193500Y185500D01*
X182457Y178500D02*Y187457D01*
X194750Y186750D02*X192000Y184000D01*
X161500Y197500D02*X174750D01*
X151500D02*X162000D01*
X149500Y199500D02*X151500Y197500D01*
X149500Y201000D02*Y199500D01*
X180500Y200000D02*X172000D01*
X157500D02*X154500Y203000D01*
X175500Y200000D02*X157500D01*
X149500Y207000D02*Y200000D01*
X174750Y192500D02*X180500D01*
G54D16*X166000Y187500D02*X160500Y193000D01*
X174750Y187500D02*X166000D01*
X153188Y193000D02*X153094Y192906D01*
X160500Y193000D02*X153188D01*
X153863Y192906D02*X154000Y193043D01*
X144906Y192906D02*X153863D01*
X123500Y193043D02*X133051D01*
X133094Y193000D01*
G54D13*X138500Y207000D02*X141750Y203750D01*
X144906Y200594D02*X141500Y204000D01*
X144906Y192858D02*Y200594D01*
G54D16*X133094Y192858D02*Y200406D01*
X131500Y202000D01*
Y208500D01*
G54D13*X138500Y212000D02*Y207000D01*
X141000Y214500D02*X138500Y212000D01*
X147000Y214500D02*X141000D01*
X149500Y212000D02*X147000Y214500D01*
X187500Y221000D02*Y232500D01*
X186200Y219700D02*X187500Y221000D01*
G54D12*X185500Y215500D02*X189500Y211500D01*
G54D13*X186000Y219500D02*X187250Y220750D01*
X186750Y214250D02*X188500Y216000D01*
G54D12*X175500Y215500D02*X185500D01*
X174500Y216500D02*X175500Y215500D01*
X174500Y219500D02*Y216500D01*
G54D13*X182500Y219500D02*X186000D01*
X174500Y227500D02*X172000D01*
X171000Y226500D02*Y220000D01*
G54D17*X183000Y223400D02*X174800D01*
G54D13*X191957Y235000D02*X189000D01*
X199043D02*Y222957D01*
X203000Y219000D01*
X188500Y216000D02*X204500D01*
X191957Y226000D02*Y221457D01*
X190000Y219500D01*
X189000Y235000D02*X187500Y233500D01*
Y229500D01*
X234500Y254457D02*X236978Y251978D01*
X227000Y269000D02*X234457D01*
X234500Y269043D01*
G54D12*X218500Y251500D02*X211500D01*
G54D13*X222000Y242000D02*X226000D01*
X228000Y244000D01*
X233957D01*
X234000Y244043D01*
G54D12*X219500Y258457D02*Y252500D01*
X218500Y251500D01*
X219500Y276500D02*Y265543D01*
G54D13*X234500Y261957D02*Y254457D01*
X222043Y233000D02*X228000D01*
X239500D02*Y249457D01*
X234478Y254478D01*
X234543Y212000D02*X234500Y211957D01*
X239000Y212000D02*X234543D01*
X240000Y213000D02*X239000Y212000D01*
X240000Y222500D02*Y213000D01*
X239000Y223500D02*X240000Y222500D01*
X238500Y224000D02*X240000Y222500D01*
X228000Y237000D02*X233957D01*
X234000Y236957D01*
X228000Y233000D02*X229500Y231500D01*
X238000D01*
X239500Y233000D01*
X222043Y224000D02*X238500D01*
X204500Y216000D02*X206000Y217500D01*
Y239500D01*
X208500Y242000D01*
X214914D01*
X214957Y233000D02*Y224000D01*
X210500Y228500D02*X214914D01*
X214957Y228457D01*
X234457Y219000D02*X234500Y219043D01*
X229500Y219000D02*X234457D01*
X214000Y216500D02*X215500Y218000D01*
X218500D01*
X217500Y214000D02*X224500D01*
X229500Y219000D01*
X209500Y192500D02*X213500Y196500D01*
X201250Y192500D02*X209500D01*
X201250Y197500D02*X208500D01*
X214000Y198500D02*Y216500D01*
X208500Y187500D02*X216000Y195000D01*
X214000Y197000D02*X212500Y195500D01*
X214000Y200957D02*Y197000D01*
X216000Y195000D02*Y212500D01*
X217500Y214000D01*
G54D12*X99031Y191500D02*Y202469D01*
X95094Y191500D02*Y184406D01*
G54D14*X95000Y145500D02*X99000Y149500D01*
X135000D01*
X95000Y145500D02*Y102000D01*
G54D12*X99031Y202469D02*X99000Y202500D01*
X99031Y202000D02*Y214969D01*
X95094Y184406D02*X97500Y182000D01*
X122000D01*
X102992Y190756D02*Y187008D01*
X104500Y185500D01*
X110500D01*
X111500Y186500D01*
Y191000D01*
Y190000D02*Y195000D01*
X106929Y190756D02*Y196429D01*
X112000Y201500D01*
X118800Y209700D02*Y208300D01*
X110250Y199750D01*
X111500Y195000D02*X124500Y208000D01*
Y213500D01*
G54D14*X102000Y95500D02*X135000D01*
G54D12*X127000Y85000D02*X145000D01*
X140500Y122500D02*X149500Y113500D01*
X133500Y85000D02*X116500D01*
X113000Y88500D01*
X105500D01*
X103000Y86000D01*
G54D14*X95000Y88500D02*X102000Y95500D01*
X95000Y102000D02*X89500Y96500D01*
X81000Y93100D02*X86100D01*
X91750Y98750D01*
G54D12*X110000Y122500D02*X140500D01*
X81000Y124300D02*X63300D01*
X61000Y122000D01*
G54D16*X81000Y77500D02*X72000D01*
X70000Y75500D01*
G54D12*X61000Y122000D02*Y97000D01*
X62500Y95500D01*
X70000D01*
X81000Y108700D02*X76800D01*
X70000Y115500D01*
X154000Y64500D02*Y71500D01*
G54D13*X159000Y74000D02*Y62500D01*
X157400Y75600D02*X159000Y74000D01*
X154200Y75600D02*X157400D01*
X157000Y59000D02*X165500D01*
X164500D02*X169000D01*
G54D12*X148700Y85000D02*X154200Y79500D01*
X144000Y85000D02*X148700D01*
X146000Y79500D02*X141500D01*
Y76000D02*Y79500D01*
G54D13*X146000Y75600D02*X148900D01*
G54D12*X146000Y71700D02*X138400D01*
G54D13*X150000Y64000D02*Y57000D01*
Y74500D02*Y62500D01*
X148900Y75600D02*X150000Y74500D01*
X169000Y75000D02*X165500Y78500D01*
Y94000D01*
G54D12*X138200Y71700D02*Y56700D01*
X138400Y71700D02*X138200Y71500D01*
X179500Y114500D02*X182000Y112000D01*
X182700Y111300D02*X179500Y114500D01*
X149500Y113500D02*X170000D01*
X174500Y109000D01*
X160000Y122500D02*X171500D01*
X180000Y114000D01*
X182700Y67500D02*Y111300D01*
G54D13*X187500Y61000D02*Y72500D01*
G54D12*X174500Y67500D02*Y109000D01*
G54D17*X183000Y63400D02*X174800D01*
G54D13*X187500Y73500D02*Y69500D01*
X161500Y37500D02*X174750D01*
X184000Y40000D02*X177500D01*
X185500Y38500D02*X184000Y40000D01*
X180500D02*X172000D01*
X175500D02*X157500D01*
X174750Y42500D02*X170500D01*
X169000Y44000D01*
X186200Y59700D02*X187500Y61000D01*
G54D12*X185500Y55500D02*X189500Y51500D01*
X175500Y55500D02*X185500D01*
G54D13*X182500Y59500D02*X186000D01*
X187250Y60750D01*
X186750Y54250D02*X188500Y56000D01*
X159500Y55500D02*X160500Y56500D01*
X159500Y52000D02*Y55500D01*
X154500Y56500D02*X157000Y59000D01*
X154500Y52000D02*Y56500D01*
X169000Y44000D02*Y75000D01*
G54D12*X174500Y56500D02*X175500Y55500D01*
G54D13*X171000Y60000D02*X171500Y59500D01*
X174500D01*
G54D12*Y56500D01*
G54D13*Y67500D02*X172000D01*
X171000Y66500D01*
Y60000D01*
X191957Y75000D02*X189000D01*
X199043D02*Y62957D01*
X203000Y59000D01*
X188500Y56000D02*X204500D01*
X191957Y66000D02*Y61457D01*
X190000Y59500D01*
X189000Y75000D02*X187500Y73500D01*
X185500Y34000D02*Y38500D01*
G54D16*X189500Y30000D02*Y51500D01*
G54D13*X189543Y18500D02*Y21543D01*
X184000Y32500D02*X185500Y34000D01*
X180000Y32500D02*X184000D01*
G54D16*X187000Y27500D02*X189500Y30000D01*
G54D13*X182457Y27457D02*X182500Y27500D01*
X201250D02*X195500D01*
X194250Y26250D01*
X189543Y21543D02*X193500Y25500D01*
X182457Y18500D02*Y27457D01*
X194750Y26750D02*X192000Y24000D01*
G54D16*X174000Y27500D02*X187000D01*
G54D13*X174750Y32500D02*X180500D01*
G54D16*X174750Y27500D02*X166000D01*
G54D13*X214000Y37000D02*X212500Y35500D01*
X214000Y40957D02*Y37000D01*
X209500Y32500D02*X213500Y36500D01*
X201250Y32500D02*X209500D01*
X201250Y37500D02*X208500D01*
X204500Y56000D02*X206000Y57500D01*
X214000Y38500D02*Y56500D01*
X215500Y58000D01*
X208500Y27500D02*X216000Y35000D01*
Y52500D01*
X217500Y54000D01*
X234500Y94457D02*X236978Y91978D01*
X234500Y101957D02*Y94457D01*
X227000Y109000D02*X234457D01*
X234500Y109043D01*
G54D12*X219500Y98457D02*Y92500D01*
Y116500D02*Y105543D01*
G54D13*X234543Y52000D02*X234500Y51957D01*
X234457Y59000D02*X234500Y59043D01*
X224500Y54000D02*X229500Y59000D01*
X234457D01*
X239000Y52000D02*X234543D01*
X240000Y53000D02*X239000Y52000D01*
X240000Y62500D02*Y53000D01*
X239000Y63500D02*X240000Y62500D01*
X238500Y64000D02*X240000Y62500D01*
X228000Y77000D02*X233957D01*
X234000Y76957D01*
X228000Y84000D02*X233957D01*
X234000Y84043D01*
X228000Y73000D02*X229500Y71500D01*
X238000D01*
X239500Y73000D01*
X222043Y64000D02*X238500D01*
X239500Y73000D02*Y89457D01*
X234478Y94478D01*
X222000Y82000D02*X226000D01*
X228000Y84000D01*
X222043Y73000D02*X228000D01*
G54D12*X218500Y91500D02*X211500D01*
G54D13*X206000Y79500D02*X208500Y82000D01*
X214914D01*
G54D12*X219500Y92500D02*X218500Y91500D01*
G54D13*X206000Y57500D02*Y79500D01*
X214957Y73000D02*Y64000D01*
X210500Y68500D02*X214914D01*
X214957Y68457D01*
X215500Y58000D02*X218500D01*
X217500Y54000D02*X224500D01*
G54D16*X153188Y33000D02*X153094Y32906D01*
X144906D02*X153863D01*
X160500Y33000D02*X153188D01*
X166000Y27500D02*X160500Y33000D01*
X153863Y32906D02*X154000Y33043D01*
G54D13*X151500Y37500D02*X162000D01*
X144906Y32858D02*Y40594D01*
G54D16*X133094Y32858D02*Y40406D01*
X131500Y42000D01*
X123500Y33043D02*X133051D01*
X133094Y33000D01*
G54D13*X159500Y43500D02*X160500Y42500D01*
X159500Y47000D02*Y43500D01*
X157500Y40000D02*X154500Y43000D01*
Y47000D02*Y43000D01*
X149500Y39500D02*X151500Y37500D01*
X149500Y41000D02*Y39500D01*
Y47000D02*Y40000D01*
X144906Y40594D02*X141500Y44000D01*
G54D12*X99031Y31500D02*Y42469D01*
X95094Y31500D02*Y24406D01*
X99031Y42469D02*X99000Y42500D01*
G54D15*X118000Y55000D02*X94000D01*
G54D12*X99031Y42000D02*Y54969D01*
X99000Y55000D01*
G54D15*X95000D02*X91500D01*
G54D12*X95094Y24406D02*X97500Y22000D01*
X122000D01*
X102992Y30756D02*Y27008D01*
X104500Y25500D01*
X110500D01*
X111500Y26500D01*
Y31000D01*
X106929Y30756D02*Y36429D01*
X112000Y41500D01*
X111500Y30000D02*Y35000D01*
X118800Y48300D02*X110250Y39750D01*
X111500Y35000D02*X124500Y48000D01*
X101000Y62043D02*Y66500D01*
G54D14*X81000Y61900D02*X82900D01*
X90500Y69500D01*
G54D12*X101000Y66500D02*X111000Y76500D01*
Y85000D01*
X106000Y62000D02*X111457D01*
X111500Y62043D01*
G54D14*X94750Y88250D02*Y73750D01*
X88000Y67000D01*
G54D12*X116500Y85000D02*Y71500D01*
G54D13*X138500Y47000D02*X141750Y43750D01*
X138500Y52000D02*Y47000D01*
X141000Y54500D02*X138500Y52000D01*
X147000Y54500D02*X141000D01*
X149500Y52000D02*X147000Y54500D01*
G54D12*X138200Y56700D02*X137000Y55500D01*
G54D16*X131500Y42000D02*Y48500D01*
G54D15*Y61500D02*X124500D01*
G54D12*X137000Y55500D02*X126500D01*
G54D15*X124500Y61500D02*X118000Y55000D01*
G54D12*X126500Y55500D02*X124500Y53500D01*
X118800Y49700D02*Y48300D01*
X124500Y48000D02*Y53500D01*
X125250Y54250D01*
X141500Y71700D02*X126300D01*
X128500D02*X123800D01*
X121000Y74500D01*
X118800Y62500D02*Y69200D01*
X116500Y71500D01*
X118000Y70000D01*
G54D13*X234543Y692000D02*X234500Y691957D01*
X239000Y692000D02*X234543D01*
X240000Y693000D02*X239000Y692000D01*
X214000Y680957D02*Y677000D01*
X227000Y749000D02*X234457D01*
X234500Y749043D01*
X228000Y717000D02*X233957D01*
X222043Y713000D02*X228000D01*
X229500Y711500D01*
X238000D01*
X239500Y713000D01*
X233957Y717000D02*X234000Y716957D01*
X239500Y713000D02*Y729457D01*
X234478Y734478D01*
X222000Y722000D02*X226000D01*
G54D12*X219500Y738457D02*Y732500D01*
X218500Y731500D01*
G54D13*X226000Y722000D02*X228000Y724000D01*
X233957D01*
X234000Y724043D01*
X240000Y702500D02*Y693000D01*
X239000Y703500D02*X240000Y702500D01*
X238500Y704000D02*X240000Y702500D01*
X222043Y704000D02*X238500D01*
X234457Y699000D02*X234500Y699043D01*
X224500Y694000D02*X229500Y699000D01*
X234457D01*
X214000Y677000D02*X212500Y675500D01*
X209500Y672500D02*X213500Y676500D01*
X201250Y672500D02*X209500D01*
X201250Y677500D02*X208500D01*
Y667500D02*X216000Y675000D01*
X206000Y697500D02*Y719500D01*
X208500Y722000D01*
X214914D01*
X214957Y713000D02*Y704000D01*
X210500Y708500D02*X214914D01*
X214957Y708457D01*
X214000Y678500D02*Y696500D01*
X216000Y675000D02*Y692500D01*
X204500Y696000D02*X206000Y697500D01*
X214000Y696500D02*X215500Y698000D01*
X218500D01*
X216000Y692500D02*X217500Y694000D01*
X224500D01*
G54D12*X99031Y671500D02*Y682469D01*
X99000Y682500D01*
G54D16*X133094Y672858D02*Y680406D01*
X123500Y673043D02*X133051D01*
X133094Y673000D01*
G54D12*X106929Y676429D02*X112000Y681500D01*
X95094Y671500D02*Y664406D01*
X102992Y670756D02*Y667008D01*
X104500Y665500D01*
X110500D01*
X111500Y666500D01*
Y671000D01*
X95094Y664406D02*X97500Y662000D01*
X99031Y682000D02*Y694969D01*
X99000Y695000D01*
G54D14*X95000Y625500D02*X99000Y629500D01*
G54D12*X106929Y670756D02*Y676429D01*
X111500Y670000D02*Y675000D01*
X118800Y689700D02*Y688300D01*
X110250Y679750D01*
X111500Y675000D02*X124500Y688000D01*
Y693500D01*
X125250Y694250D01*
X97500Y662000D02*X122000D01*
G54D14*X99000Y629500D02*X135000D01*
G54D12*X110000Y602500D02*X140500D01*
G54D14*X95000Y568500D02*X102000Y575500D01*
X95000Y625500D02*Y582000D01*
G54D12*X113000Y568500D02*X105500D01*
G54D14*X95000Y785500D02*X99000Y789500D01*
X135000D01*
G54D12*X110000Y762500D02*X140500D01*
G54D14*X95000Y785500D02*Y742000D01*
G54D12*X101000Y702043D02*Y706500D01*
X111000Y716500D01*
X106000Y702000D02*X111457D01*
X111500Y702043D01*
G54D15*X118000Y695000D02*X94000D01*
G54D12*X116500Y711500D02*X118000Y710000D01*
G54D15*X95000Y695000D02*X91500D01*
G54D12*X118800Y709200D02*X116500Y711500D01*
X111000Y716500D02*Y725000D01*
X116500D02*Y711500D01*
Y725000D02*X113000Y728500D01*
X105500D01*
X103000Y726000D01*
G54D16*X133094Y680406D02*X131500Y682000D01*
Y688500D01*
G54D12*X138200Y696700D02*X137000Y695500D01*
G54D15*X131500Y701500D02*X124500D01*
G54D12*X138200Y711700D02*Y696700D01*
X137000Y695500D02*X126500D01*
X138400Y711700D02*X138200Y711500D01*
X123800Y711700D02*X121000Y714500D01*
X133500Y725000D02*X116500D01*
G54D15*X124500Y701500D02*X118000Y695000D01*
G54D12*X126500Y695500D02*X124500Y693500D01*
X128500Y711700D02*X123800D01*
X118800Y702500D02*Y709200D01*
G54D13*X159000Y714000D02*Y702500D01*
X157000Y699000D02*X165500D01*
X154500Y696500D02*X157000Y699000D01*
X150000Y704000D02*Y697000D01*
Y714500D02*Y702500D01*
X154500Y692000D02*Y696500D01*
G54D12*X185500Y695500D02*X189500Y691500D01*
G54D16*Y670000D02*Y691500D01*
X187000Y667500D02*X189500Y670000D01*
G54D13*X186750Y694250D02*X188500Y696000D01*
X184000Y680000D02*X177500D01*
X185500Y678500D02*X184000Y680000D01*
X185500Y674000D02*Y678500D01*
X180500Y680000D02*X172000D01*
X175500D02*X157500D01*
X184000Y672500D02*X185500Y674000D01*
X180000Y672500D02*X184000D01*
G54D16*X174000Y667500D02*X187000D01*
G54D13*X174750Y672500D02*X180500D01*
G54D16*X174750Y667500D02*X166000D01*
G54D13*X182457Y667457D02*X182500Y667500D01*
X201250D02*X195500D01*
X194250Y666250D01*
X189543Y661543D02*X193500Y665500D01*
X182457Y658500D02*Y667457D01*
X194750Y666750D02*X192000Y664000D01*
X161500Y677500D02*X174750D01*
X151500D02*X162000D01*
X149500Y679500D02*X151500Y677500D01*
X149500Y681000D02*Y679500D01*
G54D16*X153188Y673000D02*X153094Y672906D01*
X160500Y673000D02*X153188D01*
X166000Y667500D02*X160500Y673000D01*
X153863Y672906D02*X154000Y673043D01*
X144906Y672906D02*X153863D01*
G54D13*X157500Y680000D02*X154500Y683000D01*
Y687000D02*Y683000D01*
X149500Y687000D02*Y680000D01*
X138500Y687000D02*X141750Y683750D01*
X138500Y692000D02*Y687000D01*
X144906Y680594D02*X141500Y684000D01*
X141000Y694500D02*X138500Y692000D01*
X147000Y694500D02*X141000D01*
X149500Y692000D02*X147000Y694500D01*
X144906Y672858D02*Y680594D01*
X187500Y701000D02*Y712500D01*
X186200Y699700D02*X187500Y701000D01*
X186000Y699500D02*X187250Y700750D01*
X189543Y658500D02*Y661543D01*
X187500Y713500D02*Y709500D01*
G54D12*X175500Y695500D02*X185500D01*
G54D13*X174750Y682500D02*X170500D01*
X169000Y684000D01*
X159500Y683500D02*X160500Y682500D01*
X159500Y687000D02*Y683500D01*
Y695500D02*X160500Y696500D01*
X159500Y692000D02*Y695500D01*
X169000Y684000D02*Y715000D01*
X171000Y706500D02*Y700000D01*
X171500Y699500D01*
X174500D01*
G54D12*Y696500D02*X175500Y695500D01*
G54D13*X164500Y699000D02*X169000D01*
G54D12*X174500Y699500D02*Y696500D01*
G54D13*X182500Y699500D02*X186000D01*
G54D17*X183000Y703400D02*X174800D01*
G54D13*X199043Y715000D02*Y702957D01*
X203000Y699000D01*
X188500Y696000D02*X204500D01*
X191957Y706000D02*Y701457D01*
X190000Y699500D01*
G54D14*X95000Y728500D02*X102000Y735500D01*
X135000D01*
G54D13*X234500Y734457D02*X236978Y731978D01*
X234500Y741957D02*Y734457D01*
G54D12*X127000Y725000D02*X145000D01*
X218500Y731500D02*X211500D01*
G54D13*X157400Y715600D02*X159000Y714000D01*
X154200Y715600D02*X157400D01*
X169000Y715000D02*X165500Y718500D01*
Y734000D01*
G54D12*X179500Y754500D02*X182000Y752000D01*
X140500Y762500D02*X149500Y753500D01*
X170000D01*
X174500Y749000D01*
X160000Y762500D02*X171500D01*
X180000Y754000D01*
X219500Y756500D02*Y745543D01*
X182700Y751300D02*X179500Y754500D01*
X182700Y707500D02*Y751300D01*
X174500Y707500D02*Y749000D01*
G54D13*Y707500D02*X172000D01*
X171000Y706500D01*
X191957Y715000D02*X189000D01*
X187500Y713500D01*
G54D16*X81000Y717500D02*X72000D01*
X70000Y715500D01*
G54D12*X81000Y764300D02*X63300D01*
X81000Y748700D02*X76800D01*
X70000Y755500D01*
X63300Y764300D02*X61000Y762000D01*
Y737000D01*
X62500Y735500D01*
X70000D01*
G54D14*X94750Y728250D02*Y713750D01*
X88000Y707000D01*
X81000Y701900D02*X82900D01*
X90500Y709500D01*
X95000Y742000D02*X89500Y736500D01*
X86100Y733100D02*X91750Y738750D01*
X81000Y733100D02*X86100D01*
G54D12*X154000Y704500D02*Y711500D01*
X148700Y725000D02*X154200Y719500D01*
X144000Y725000D02*X148700D01*
X146000Y719500D02*X141500D01*
Y716000D02*Y719500D01*
G54D13*X148900Y715600D02*X150000Y714500D01*
X146000Y715600D02*X148900D01*
G54D12*X146000Y711700D02*X138400D01*
X141500D02*X126300D01*
X154000Y544500D02*Y551500D01*
G54D13*X172000Y547500D02*X171000Y546500D01*
Y540000D02*X171500Y539500D01*
G54D12*X148700Y565000D02*X154200Y559500D01*
X144000Y565000D02*X148700D01*
G54D13*X148900Y555600D02*X150000Y554500D01*
X146000Y555600D02*X148900D01*
X169000Y555000D02*X165500Y558500D01*
Y574000D01*
G54D12*X140500Y602500D02*X149500Y593500D01*
X170000D01*
X160000Y602500D02*X171500D01*
G54D14*X102000Y575500D02*X135000D01*
G54D15*X95000Y535000D02*X91500D01*
G54D12*X128500Y551700D02*X123800D01*
X121000Y554500D01*
X133500Y565000D02*X116500D01*
Y551500D01*
Y565000D02*X113000Y568500D01*
X105500D02*X103000Y566000D01*
X118800Y542500D02*Y549200D01*
X116500Y551500D01*
X118000Y550000D01*
X95094Y504406D02*X97500Y502000D01*
X122000D01*
G54D14*X99000Y469500D02*X135000D01*
G54D12*X102992Y510756D02*Y507008D01*
X104500Y505500D01*
X110500D01*
X111500Y506500D01*
Y511000D01*
X106929Y510756D02*Y516429D01*
X111500Y510000D02*Y515000D01*
X106929Y516429D02*X112000Y521500D01*
X118800Y529700D02*Y528300D01*
X110250Y519750D01*
X111500Y515000D02*X124500Y528000D01*
Y533500D01*
X146000Y559500D02*X141500D01*
Y556000D02*Y559500D01*
X127000Y565000D02*X145000D01*
X111000Y556500D02*Y565000D01*
G54D15*X131500Y541500D02*X124500D01*
G54D12*X138200Y536700D02*X137000Y535500D01*
X126500D01*
G54D15*X124500Y541500D02*X118000Y535000D01*
G54D12*X126500Y535500D02*X124500Y533500D01*
X125250Y534250D01*
G54D15*X118000Y535000D02*X94000D01*
G54D12*X99031Y534969D02*X99000Y535000D01*
X138200Y551700D02*Y536700D01*
X146000Y551700D02*X138400D01*
X138200Y551500D01*
X141500Y551700D02*X126300D01*
G54D13*X159000Y554000D02*Y542500D01*
X159500Y523500D02*X160500Y522500D01*
X159500Y527000D02*Y523500D01*
Y535500D02*X160500Y536500D01*
X159500Y532000D02*Y535500D01*
X157400Y555600D02*X159000Y554000D01*
X157000Y539000D02*X165500D01*
X164500D02*X169000D01*
Y524000D02*Y555000D01*
X154200Y555600D02*X157400D01*
X154500Y527000D02*Y523000D01*
X174750Y522500D02*X170500D01*
X169000Y524000D01*
X154500Y536500D02*X157000Y539000D01*
X154500Y532000D02*Y536500D01*
X150000Y544000D02*Y537000D01*
Y554500D02*Y542500D01*
X171500Y539500D02*X174500D01*
X184000Y520000D02*X177500D01*
X185500Y518500D02*X184000Y520000D01*
X185500Y514000D02*Y518500D01*
G54D16*X189500Y510000D02*Y531500D01*
G54D13*X184000Y512500D02*X185500Y514000D01*
X180000Y512500D02*X184000D01*
G54D16*X187000Y507500D02*X189500Y510000D01*
G54D13*X182457Y507457D02*X182500Y507500D01*
G54D16*X174000D02*X187000D01*
G54D13*X201250D02*X195500D01*
X194250Y506250D01*
X189543Y498500D02*Y501543D01*
X193500Y505500D01*
X182457Y498500D02*Y507457D01*
X194750Y506750D02*X192000Y504000D01*
X161500Y517500D02*X174750D01*
X151500D02*X162000D01*
X149500Y519500D02*X151500Y517500D01*
X149500Y521000D02*Y519500D01*
X180500Y520000D02*X172000D01*
X157500D02*X154500Y523000D01*
X175500Y520000D02*X157500D01*
X149500Y527000D02*Y520000D01*
X174750Y512500D02*X180500D01*
G54D16*X166000Y507500D02*X160500Y513000D01*
X174750Y507500D02*X166000D01*
X153188Y513000D02*X153094Y512906D01*
X160500Y513000D02*X153188D01*
X153863Y512906D02*X154000Y513043D01*
X144906Y512906D02*X153863D01*
X123500Y513043D02*X133051D01*
X133094Y513000D01*
G54D13*X138500Y527000D02*X141750Y523750D01*
X144906Y520594D02*X141500Y524000D01*
X144906Y512858D02*Y520594D01*
G54D16*X133094Y512858D02*Y520406D01*
X131500Y522000D01*
Y528500D01*
G54D13*X138500Y532000D02*Y527000D01*
X141000Y534500D02*X138500Y532000D01*
X147000Y534500D02*X141000D01*
X149500Y532000D02*X147000Y534500D01*
G54D12*X179500Y594500D02*X182000Y592000D01*
X182700Y591300D02*X179500Y594500D01*
X182700Y547500D02*Y591300D01*
X174500Y547500D02*Y589000D01*
X170000Y593500D02*X174500Y589000D01*
X171500Y602500D02*X180000Y594000D01*
G54D13*X187500Y541000D02*Y552500D01*
X186200Y539700D02*X187500Y541000D01*
G54D12*X185500Y535500D02*X189500Y531500D01*
G54D13*X186000Y539500D02*X187250Y540750D01*
X186750Y534250D02*X188500Y536000D01*
G54D12*X175500Y535500D02*X185500D01*
X174500Y536500D02*X175500Y535500D01*
X174500Y539500D02*Y536500D01*
G54D13*X182500Y539500D02*X186000D01*
X174500Y547500D02*X172000D01*
X171000Y546500D02*Y540000D01*
G54D17*X183000Y543400D02*X174800D01*
G54D13*X191957Y555000D02*X189000D01*
X199043D02*Y542957D01*
X203000Y539000D01*
X188500Y536000D02*X204500D01*
X191957Y546000D02*Y541457D01*
X190000Y539500D01*
X189000Y555000D02*X187500Y553500D01*
Y549500D01*
X234500Y574457D02*X236978Y571978D01*
G54D12*X218500Y571500D02*X211500D01*
G54D13*X239500Y569457D02*X234478Y574478D01*
G54D12*X219500Y578457D02*Y572500D01*
X218500Y571500D01*
G54D13*X234500Y581957D02*Y574457D01*
X227000Y589000D02*X234457D01*
X234500Y589043D01*
G54D12*X219500Y596500D02*Y585543D01*
G54D13*X228000Y557000D02*X233957D01*
X234000Y556957D01*
X226000Y562000D02*X228000Y564000D01*
X233957D01*
X234000Y564043D01*
X239500Y553000D02*Y569457D01*
X222000Y562000D02*X226000D01*
X222043Y553000D02*X228000D01*
X229500Y551500D01*
X238000D01*
X239500Y553000D01*
X234543Y532000D02*X234500Y531957D01*
X214000Y517000D02*X212500Y515500D01*
X214000Y520957D02*Y517000D01*
X209500Y512500D02*X213500Y516500D01*
X201250Y512500D02*X209500D01*
X201250Y517500D02*X208500D01*
X239000Y532000D02*X234543D01*
X214000Y518500D02*Y536500D01*
X215500Y538000D02*X218500D01*
X216000Y532500D02*X217500Y534000D01*
X224500D01*
X208500Y507500D02*X216000Y515000D01*
Y532500D01*
X240000Y533000D02*X239000Y532000D01*
X240000Y542500D02*Y533000D01*
X239000Y543500D02*X240000Y542500D01*
X222043Y544000D02*X238500D01*
X240000Y542500D01*
X234457Y539000D02*X234500Y539043D01*
X239500Y409457D02*X234478Y414478D01*
X224500Y534000D02*X229500Y539000D01*
G54D12*X219500Y418457D02*Y412500D01*
X218500Y411500D01*
X219500Y436500D02*Y425543D01*
G54D13*X229500Y539000D02*X234457D01*
X204500Y536000D02*X206000Y537500D01*
Y559500D01*
X208500Y562000D01*
X214914D01*
X214957Y553000D02*Y544000D01*
X210500Y548500D02*X214914D01*
X214957Y548457D01*
X214000Y536500D02*X215500Y538000D01*
G54D12*X99031Y511500D02*Y522469D01*
X99000Y522500D01*
X99031Y522000D02*Y534969D01*
X95094Y511500D02*Y504406D01*
X101000Y542043D02*Y546500D01*
X111000Y556500D01*
X106000Y542000D02*X111457D01*
X111500Y542043D01*
G54D16*X81000Y557500D02*X72000D01*
X70000Y555500D01*
G54D14*X94750Y568250D02*Y553750D01*
X88000Y547000D01*
X81000Y541900D02*X82900D01*
X90500Y549500D01*
X95000Y582000D02*X89500Y576500D01*
X81000Y573100D02*X86100D01*
X91750Y578750D01*
G54D12*X81000Y604300D02*X63300D01*
X61000Y602000D01*
Y577000D01*
X62500Y575500D01*
X70000D01*
X81000Y588700D02*X76800D01*
X70000Y595500D01*
G54D14*X95000Y465500D02*X99000Y469500D01*
X95000Y465500D02*Y422000D01*
Y408500D02*X102000Y415500D01*
X95000Y422000D02*X89500Y416500D01*
X81000Y413100D02*X86100D01*
X91750Y418750D01*
G54D16*X81000Y397500D02*X72000D01*
G54D12*X61000Y417000D02*X62500Y415500D01*
X70000D01*
G54D16*X72000Y397500D02*X70000Y395500D01*
G54D12*X81000Y444300D02*X63300D01*
X61000Y442000D01*
Y417000D01*
X81000Y428700D02*X76800D01*
X70000Y435500D01*
X133500Y405000D02*X116500D01*
X113000Y408500D01*
X105500D01*
X103000Y406000D01*
G54D18*X35000Y20000D03*
X265000D03*
G54D19*X233000Y27000D03*
X67000D03*
G54D20*X81000Y46300D03*
G54D21*X70000Y215500D03*
G54D11*G36*
X66000Y79500D02*Y71500D01*
X74000D01*
Y79500D01*
X66000D01*
G37*
G54D21*X70000Y55500D03*
G54D11*G36*
X66000Y119500D02*Y111500D01*
X74000D01*
Y119500D01*
X66000D01*
G37*
G54D21*X70000Y95500D03*
G54D20*X81000Y284300D03*
Y268700D03*
Y253100D03*
Y237500D03*
Y221900D03*
Y124300D03*
Y108700D03*
Y93100D03*
Y77500D03*
Y61900D03*
G54D11*G36*
X66000Y719500D02*Y711500D01*
X74000D01*
Y719500D01*
X66000D01*
G37*
G54D20*X81000Y733100D03*
Y717500D03*
Y701900D03*
G54D22*X135000Y789500D03*
Y735500D03*
G54D11*G36*
X156000Y606500D02*Y598500D01*
X164000D01*
Y606500D01*
X156000D01*
G37*
G54D22*X135000Y629500D03*
G54D18*X35000Y790000D03*
G54D21*X110000Y762500D03*
G54D19*X67000Y783000D03*
G54D20*X81000Y764300D03*
Y748700D03*
G54D11*G36*
X66000Y759500D02*Y751500D01*
X74000D01*
Y759500D01*
X66000D01*
G37*
G54D21*X70000Y735500D03*
G54D20*X81000Y604300D03*
G54D18*X265000Y760000D03*
G54D11*G36*
X156000Y766500D02*Y758500D01*
X164000D01*
Y766500D01*
X156000D01*
G37*
G54D19*X233000Y783000D03*
Y667000D03*
Y507000D03*
Y463000D03*
Y623000D03*
Y347000D03*
G54D21*X70000Y695500D03*
G54D19*X67000Y667000D03*
G54D20*X81000Y686300D03*
G54D19*X67000Y623000D03*
G54D20*X81000Y588700D03*
G54D11*G36*
X66000Y599500D02*Y591500D01*
X74000D01*
Y599500D01*
X66000D01*
G37*
G54D21*X70000Y575500D03*
G54D11*G36*
X66000Y559500D02*Y551500D01*
X74000D01*
Y559500D01*
X66000D01*
G37*
G54D21*X70000Y535500D03*
G54D11*G36*
X66000Y439500D02*Y431500D01*
X74000D01*
Y439500D01*
X66000D01*
G37*
G54D21*X70000Y415500D03*
G54D19*X67000Y507000D03*
G54D20*X81000Y573100D03*
Y557500D03*
Y541900D03*
Y526300D03*
G54D19*X67000Y463000D03*
G54D20*X81000Y444300D03*
G54D21*X110000Y602500D03*
G54D22*X135000Y575500D03*
G54D11*G36*
X156000Y446500D02*Y438500D01*
X164000D01*
Y446500D01*
X156000D01*
G37*
G54D21*X110000Y442500D03*
G54D22*X135000Y469500D03*
Y415500D03*
G54D20*X81000Y428700D03*
Y413100D03*
Y397500D03*
Y381900D03*
G54D11*G36*
X66000Y399500D02*Y391500D01*
X74000D01*
Y399500D01*
X66000D01*
G37*
G54D21*X70000Y375500D03*
G54D11*G36*
X66000Y239500D02*Y231500D01*
X74000D01*
Y239500D01*
X66000D01*
G37*
G36*
Y279500D02*Y271500D01*
X74000D01*
Y279500D01*
X66000D01*
G37*
G54D21*X70000Y255500D03*
G54D19*X67000Y347000D03*
G54D20*X81000Y366300D03*
G54D19*X67000Y303000D03*
Y187000D03*
G54D20*X81000Y206300D03*
G54D19*X67000Y143000D03*
G54D11*G36*
X156000Y286500D02*Y278500D01*
X164000D01*
Y286500D01*
X156000D01*
G37*
G54D21*X110000Y282500D03*
G54D22*X135000Y255500D03*
Y309500D03*
G54D11*G36*
X156000Y126500D02*Y118500D01*
X164000D01*
Y126500D01*
X156000D01*
G37*
G54D19*X233000Y187000D03*
Y303000D03*
Y143000D03*
G54D21*X110000Y122500D03*
G54D22*X135000Y149500D03*
Y95500D03*
G54D11*G36*
X231548Y399516D02*Y394398D01*
X237452D01*
Y399516D01*
X231548D01*
G37*
G36*
Y406602D02*Y401484D01*
X237452D01*
Y406602D01*
X231548D01*
G37*
G36*
X197000Y348500D02*Y346500D01*
X205500D01*
Y348500D01*
X197000D01*
G37*
G36*
Y353500D02*Y351500D01*
X205500D01*
Y353500D01*
X197000D01*
G37*
G36*
Y358500D02*Y356500D01*
X205500D01*
Y358500D01*
X197000D01*
G37*
G36*
X217516Y395952D02*X212398D01*
Y390048D01*
X217516D01*
Y395952D01*
G37*
G36*
X224602D02*X219484D01*
Y390048D01*
X224602D01*
Y395952D01*
G37*
G36*
X217516Y386952D02*X212398D01*
Y381048D01*
X217516D01*
Y386952D01*
G37*
G36*
X224602D02*X219484D01*
Y381048D01*
X224602D01*
Y386952D01*
G37*
G36*
X217473Y404952D02*X212355D01*
Y399048D01*
X217473D01*
Y404952D01*
G37*
G36*
X224559D02*X219441D01*
Y399048D01*
X224559D01*
Y404952D01*
G37*
G36*
X170500Y363500D02*Y361500D01*
X179000D01*
Y363500D01*
X170500D01*
G37*
G36*
Y358500D02*Y356500D01*
X179000D01*
Y358500D01*
X170500D01*
G37*
G36*
Y353500D02*Y351500D01*
X179000D01*
Y353500D01*
X170500D01*
G37*
G36*
Y348500D02*Y346500D01*
X179000D01*
Y348500D01*
X170500D01*
G37*
G36*
X192102Y341452D02*X186984D01*
Y335548D01*
X192102D01*
Y341452D01*
G37*
G36*
X185016D02*X179898D01*
Y335548D01*
X185016D01*
Y341452D01*
G37*
G54D23*X149500Y367000D03*
X154500D03*
X159500D03*
X149500Y372000D03*
X154500D03*
X159500D03*
G54D11*G36*
X192016Y373952D02*X186898D01*
Y368048D01*
X192016D01*
Y373952D01*
G37*
G36*
X180500Y380700D02*Y378300D01*
X184500D01*
Y380700D01*
X180500D01*
G37*
G36*
X172300D02*Y378300D01*
X176300D01*
Y380700D01*
X172300D01*
G37*
G36*
X180500Y384600D02*Y382200D01*
X184500D01*
Y384600D01*
X180500D01*
G37*
G36*
Y388500D02*Y386100D01*
X184500D01*
Y388500D01*
X180500D01*
G37*
G36*
X172300D02*Y386100D01*
X176300D01*
Y388500D01*
X172300D01*
G37*
G36*
Y384600D02*Y382200D01*
X176300D01*
Y384600D01*
X172300D01*
G37*
G36*
X177516Y406452D02*X172398D01*
Y400548D01*
X177516D01*
Y406452D01*
G37*
G36*
X184602D02*X179484D01*
Y400548D01*
X184602D01*
Y406452D01*
G37*
G36*
Y397952D02*X179484D01*
Y392048D01*
X184602D01*
Y397952D01*
G37*
G36*
X177516D02*X172398D01*
Y392048D01*
X177516D01*
Y397952D01*
G37*
G36*
X172500Y420700D02*Y417300D01*
X176500D01*
Y420700D01*
X172500D01*
G37*
G36*
Y412900D02*Y409500D01*
X176500D01*
Y412900D01*
X172500D01*
G37*
G36*
X180700Y416800D02*Y413400D01*
X184700D01*
Y416800D01*
X180700D01*
G37*
G36*
X144000Y400700D02*Y398300D01*
X148000D01*
Y400700D01*
X144000D01*
G37*
G36*
Y396800D02*Y394400D01*
X148000D01*
Y396800D01*
X144000D01*
G37*
G36*
Y392900D02*Y390500D01*
X148000D01*
Y392900D01*
X144000D01*
G37*
G36*
X152200D02*Y390500D01*
X156200D01*
Y392900D01*
X152200D01*
G37*
G36*
Y396800D02*Y394400D01*
X156200D01*
Y396800D01*
X152200D01*
G37*
G36*
Y400700D02*Y398300D01*
X156200D01*
Y400700D01*
X152200D01*
G37*
G36*
X127750Y384250D02*Y378750D01*
X135250D01*
Y384250D01*
X127750D01*
G37*
G36*
X108548Y384602D02*Y379484D01*
X114452D01*
Y384602D01*
X108548D01*
G37*
G36*
X97548D02*Y379484D01*
X103452D01*
Y384602D01*
X97548D01*
G37*
G36*
X151048Y355602D02*Y350484D01*
X156952D01*
Y355602D01*
X151048D01*
G37*
G36*
X146796Y356795D02*X143016D01*
Y348921D01*
X146796D01*
Y356795D01*
G37*
G36*
X151048Y348516D02*Y343398D01*
X156952D01*
Y348516D01*
X151048D01*
G37*
G36*
X120548D02*Y343398D01*
X126452D01*
Y348516D01*
X120548D01*
G37*
G36*
Y355602D02*Y350484D01*
X126452D01*
Y355602D01*
X120548D01*
G37*
G36*
X140890Y356795D02*X137110D01*
Y341205D01*
X140890D01*
Y356795D01*
G37*
G36*
X143725Y346086D02*X134275D01*
Y334746D01*
X143725D01*
Y346086D01*
G37*
G36*
X140885Y348926D02*X139465Y347506D01*
X142305Y344666D01*
X143725Y346086D01*
X140885Y348926D01*
G37*
G36*
X138535Y347506D02*X137115Y348926D01*
X134275Y346086D01*
X135695Y344666D01*
X138535Y347506D01*
G37*
G36*
X134984Y356795D02*X131204D01*
Y348921D01*
X134984D01*
Y356795D01*
G37*
G36*
X127750Y371250D02*Y365750D01*
X135250D01*
Y371250D01*
X127750D01*
G37*
G36*
X96299Y353807D02*X93937D01*
Y347705D01*
X96299D01*
Y353807D01*
G37*
G36*
X92362Y339043D02*X87638D01*
Y331957D01*
X92362D01*
Y339043D01*
G37*
G36*
X100236Y353807D02*X97874D01*
Y347705D01*
X100236D01*
Y353807D01*
G37*
G36*
X104173D02*X101811D01*
Y347705D01*
X104173D01*
Y353807D01*
G37*
G36*
X108110D02*X105748D01*
Y347705D01*
X108110D01*
Y353807D01*
G37*
G36*
X114409Y339043D02*X109685D01*
Y331957D01*
X114409D01*
Y339043D01*
G37*
G36*
X108548Y377516D02*Y372398D01*
X114452D01*
Y377516D01*
X108548D01*
G37*
G36*
X97548D02*Y372398D01*
X103452D01*
Y377516D01*
X97548D01*
G37*
G36*
X197000Y363500D02*Y361500D01*
X205500D01*
Y363500D01*
X197000D01*
G37*
G36*
X199102Y373952D02*X193984D01*
Y368048D01*
X199102D01*
Y373952D01*
G37*
G36*
X195850Y415700D02*X190350D01*
Y407400D01*
X195850D01*
Y415700D01*
G37*
G36*
Y451600D02*X190350D01*
Y443300D01*
X195850D01*
Y451600D01*
G37*
G36*
X201602Y397952D02*X196484D01*
Y392048D01*
X201602D01*
Y397952D01*
G37*
G36*
Y388952D02*X196484D01*
Y383048D01*
X201602D01*
Y388952D01*
G37*
G36*
X231548Y424516D02*Y419398D01*
X237452D01*
Y424516D01*
X231548D01*
G37*
G36*
Y431602D02*Y426484D01*
X237452D01*
Y431602D01*
X231548D01*
G37*
G36*
X216548Y421016D02*Y415898D01*
X222452D01*
Y421016D01*
X216548D01*
G37*
G36*
Y428102D02*Y422984D01*
X222452D01*
Y428102D01*
X216548D01*
G37*
G36*
X213650Y415700D02*X208150D01*
Y407400D01*
X213650D01*
Y415700D01*
G37*
G36*
Y451600D02*X208150D01*
Y443300D01*
X213650D01*
Y451600D01*
G37*
G36*
X194516Y397952D02*X189398D01*
Y392048D01*
X194516D01*
Y397952D01*
G37*
G36*
Y388952D02*X189398D01*
Y383048D01*
X194516D01*
Y388952D01*
G37*
G36*
X231548Y374516D02*Y369398D01*
X237452D01*
Y374516D01*
X231548D01*
G37*
G36*
Y381602D02*Y376484D01*
X237452D01*
Y381602D01*
X231548D01*
G37*
G36*
Y239516D02*Y234398D01*
X237452D01*
Y239516D01*
X231548D01*
G37*
G36*
Y246602D02*Y241484D01*
X237452D01*
Y246602D01*
X231548D01*
G37*
G36*
Y264516D02*Y259398D01*
X237452D01*
Y264516D01*
X231548D01*
G37*
G36*
Y271602D02*Y266484D01*
X237452D01*
Y271602D01*
X231548D01*
G37*
G36*
Y214516D02*Y209398D01*
X237452D01*
Y214516D01*
X231548D01*
G37*
G36*
Y221602D02*Y216484D01*
X237452D01*
Y221602D01*
X231548D01*
G37*
G36*
Y79516D02*Y74398D01*
X237452D01*
Y79516D01*
X231548D01*
G37*
G36*
Y54516D02*Y49398D01*
X237452D01*
Y54516D01*
X231548D01*
G37*
G36*
Y61602D02*Y56484D01*
X237452D01*
Y61602D01*
X231548D01*
G37*
G36*
Y86602D02*Y81484D01*
X237452D01*
Y86602D01*
X231548D01*
G37*
G36*
Y104516D02*Y99398D01*
X237452D01*
Y104516D01*
X231548D01*
G37*
G36*
Y111602D02*Y106484D01*
X237452D01*
Y111602D01*
X231548D01*
G37*
G36*
X197000Y188500D02*Y186500D01*
X205500D01*
Y188500D01*
X197000D01*
G37*
G36*
Y193500D02*Y191500D01*
X205500D01*
Y193500D01*
X197000D01*
G37*
G36*
Y198500D02*Y196500D01*
X205500D01*
Y198500D01*
X197000D01*
G37*
G36*
X192102Y181452D02*X186984D01*
Y175548D01*
X192102D01*
Y181452D01*
G37*
G36*
X197000Y203500D02*Y201500D01*
X205500D01*
Y203500D01*
X197000D01*
G37*
G36*
X201602Y237952D02*X196484D01*
Y232048D01*
X201602D01*
Y237952D01*
G37*
G36*
Y228952D02*X196484D01*
Y223048D01*
X201602D01*
Y228952D01*
G37*
G36*
Y77952D02*X196484D01*
Y72048D01*
X201602D01*
Y77952D01*
G37*
G36*
Y68952D02*X196484D01*
Y63048D01*
X201602D01*
Y68952D01*
G37*
G36*
X192016Y213952D02*X186898D01*
Y208048D01*
X192016D01*
Y213952D01*
G37*
G36*
X199102D02*X193984D01*
Y208048D01*
X199102D01*
Y213952D01*
G37*
G36*
X194516Y228952D02*X189398D01*
Y223048D01*
X194516D01*
Y228952D01*
G37*
G36*
X195850Y291600D02*X190350D01*
Y283300D01*
X195850D01*
Y291600D01*
G37*
G36*
Y95700D02*X190350D01*
Y87400D01*
X195850D01*
Y95700D01*
G37*
G36*
Y131600D02*X190350D01*
Y123300D01*
X195850D01*
Y131600D01*
G37*
G36*
X194516Y77952D02*X189398D01*
Y72048D01*
X194516D01*
Y77952D01*
G37*
G36*
Y68952D02*X189398D01*
Y63048D01*
X194516D01*
Y68952D01*
G37*
G36*
X213650Y291600D02*X208150D01*
Y283300D01*
X213650D01*
Y291600D01*
G37*
G36*
Y95700D02*X208150D01*
Y87400D01*
X213650D01*
Y95700D01*
G37*
G36*
Y131600D02*X208150D01*
Y123300D01*
X213650D01*
Y131600D01*
G37*
G36*
X217516Y226952D02*X212398D01*
Y221048D01*
X217516D01*
Y226952D01*
G37*
G36*
X216548Y261016D02*Y255898D01*
X222452D01*
Y261016D01*
X216548D01*
G37*
G36*
X213650Y255700D02*X208150D01*
Y247400D01*
X213650D01*
Y255700D01*
G37*
G36*
X216548Y268102D02*Y262984D01*
X222452D01*
Y268102D01*
X216548D01*
G37*
G36*
X217516Y235952D02*X212398D01*
Y230048D01*
X217516D01*
Y235952D01*
G37*
G36*
X224602D02*X219484D01*
Y230048D01*
X224602D01*
Y235952D01*
G37*
G36*
Y226952D02*X219484D01*
Y221048D01*
X224602D01*
Y226952D01*
G37*
G36*
X217473Y244952D02*X212355D01*
Y239048D01*
X217473D01*
Y244952D01*
G37*
G36*
X224559D02*X219441D01*
Y239048D01*
X224559D01*
Y244952D01*
G37*
G36*
X217516Y75952D02*X212398D01*
Y70048D01*
X217516D01*
Y75952D01*
G37*
G36*
X224602D02*X219484D01*
Y70048D01*
X224602D01*
Y75952D01*
G37*
G36*
X217516Y66952D02*X212398D01*
Y61048D01*
X217516D01*
Y66952D01*
G37*
G36*
X224602D02*X219484D01*
Y61048D01*
X224602D01*
Y66952D01*
G37*
G36*
X217473Y84952D02*X212355D01*
Y79048D01*
X217473D01*
Y84952D01*
G37*
G36*
X224559D02*X219441D01*
Y79048D01*
X224559D01*
Y84952D01*
G37*
G36*
X177516Y246452D02*X172398D01*
Y240548D01*
X177516D01*
Y246452D01*
G37*
G36*
X184602D02*X179484D01*
Y240548D01*
X184602D01*
Y246452D01*
G37*
G36*
Y237952D02*X179484D01*
Y232048D01*
X184602D01*
Y237952D01*
G37*
G36*
X177516D02*X172398D01*
Y232048D01*
X177516D01*
Y237952D01*
G37*
G36*
X172500Y260700D02*Y257300D01*
X176500D01*
Y260700D01*
X172500D01*
G37*
G36*
Y252900D02*Y249500D01*
X176500D01*
Y252900D01*
X172500D01*
G37*
G36*
X180700Y256800D02*Y253400D01*
X184700D01*
Y256800D01*
X180700D01*
G37*
G36*
X195850Y255700D02*X190350D01*
Y247400D01*
X195850D01*
Y255700D01*
G37*
G36*
X144000Y236800D02*Y234400D01*
X148000D01*
Y236800D01*
X144000D01*
G37*
G36*
Y232900D02*Y230500D01*
X148000D01*
Y232900D01*
X144000D01*
G37*
G36*
X152200D02*Y230500D01*
X156200D01*
Y232900D01*
X152200D01*
G37*
G36*
Y236800D02*Y234400D01*
X156200D01*
Y236800D01*
X152200D01*
G37*
G36*
Y240700D02*Y238300D01*
X156200D01*
Y240700D01*
X152200D01*
G37*
G36*
X194516Y237952D02*X189398D01*
Y232048D01*
X194516D01*
Y237952D01*
G37*
G36*
X170500Y203500D02*Y201500D01*
X179000D01*
Y203500D01*
X170500D01*
G37*
G36*
Y198500D02*Y196500D01*
X179000D01*
Y198500D01*
X170500D01*
G37*
G36*
Y193500D02*Y191500D01*
X179000D01*
Y193500D01*
X170500D01*
G37*
G36*
Y188500D02*Y186500D01*
X179000D01*
Y188500D01*
X170500D01*
G37*
G36*
X185016Y181452D02*X179898D01*
Y175548D01*
X185016D01*
Y181452D01*
G37*
G54D23*X149500Y207000D03*
Y212000D03*
X154500Y207000D03*
Y212000D03*
X159500Y207000D03*
Y212000D03*
G54D11*G36*
X180500Y220700D02*Y218300D01*
X184500D01*
Y220700D01*
X180500D01*
G37*
G36*
X172300D02*Y218300D01*
X176300D01*
Y220700D01*
X172300D01*
G37*
G36*
X180500Y224600D02*Y222200D01*
X184500D01*
Y224600D01*
X180500D01*
G37*
G36*
X172300D02*Y222200D01*
X176300D01*
Y224600D01*
X172300D01*
G37*
G36*
X180500Y228500D02*Y226100D01*
X184500D01*
Y228500D01*
X180500D01*
G37*
G36*
X172300D02*Y226100D01*
X176300D01*
Y228500D01*
X172300D01*
G37*
G36*
X151048Y195602D02*Y190484D01*
X156952D01*
Y195602D01*
X151048D01*
G37*
G36*
X146796Y196795D02*X143016D01*
Y188921D01*
X146796D01*
Y196795D01*
G37*
G36*
X151048Y188516D02*Y183398D01*
X156952D01*
Y188516D01*
X151048D01*
G37*
G36*
X120548Y195602D02*Y190484D01*
X126452D01*
Y195602D01*
X120548D01*
G37*
G36*
Y188516D02*Y183398D01*
X126452D01*
Y188516D01*
X120548D01*
G37*
G36*
X140890Y196795D02*X137110D01*
Y181205D01*
X140890D01*
Y196795D01*
G37*
G36*
X143725Y186086D02*X134275D01*
Y174746D01*
X143725D01*
Y186086D01*
G37*
G36*
X140885Y188926D02*X139465Y187506D01*
X142305Y184666D01*
X143725Y186086D01*
X140885Y188926D01*
G37*
G36*
X138535Y187506D02*X137115Y188926D01*
X134275Y186086D01*
X135695Y184666D01*
X138535Y187506D01*
G37*
G36*
X134984Y196795D02*X131204D01*
Y188921D01*
X134984D01*
Y196795D01*
G37*
G36*
X96299Y193807D02*X93937D01*
Y187705D01*
X96299D01*
Y193807D01*
G37*
G36*
X92362Y179043D02*X87638D01*
Y171957D01*
X92362D01*
Y179043D01*
G37*
G36*
X100236Y193807D02*X97874D01*
Y187705D01*
X100236D01*
Y193807D01*
G37*
G36*
X104173D02*X101811D01*
Y187705D01*
X104173D01*
Y193807D01*
G37*
G36*
X108110D02*X105748D01*
Y187705D01*
X108110D01*
Y193807D01*
G37*
G36*
X114409Y179043D02*X109685D01*
Y171957D01*
X114409D01*
Y179043D01*
G37*
G36*
X144000Y240700D02*Y238300D01*
X148000D01*
Y240700D01*
X144000D01*
G37*
G36*
X127750Y224250D02*Y218750D01*
X135250D01*
Y224250D01*
X127750D01*
G37*
G36*
Y211250D02*Y205750D01*
X135250D01*
Y211250D01*
X127750D01*
G37*
G36*
X108548Y224602D02*Y219484D01*
X114452D01*
Y224602D01*
X108548D01*
G37*
G36*
Y217516D02*Y212398D01*
X114452D01*
Y217516D01*
X108548D01*
G37*
G36*
X97548Y224602D02*Y219484D01*
X103452D01*
Y224602D01*
X97548D01*
G37*
G36*
Y217516D02*Y212398D01*
X103452D01*
Y217516D01*
X97548D01*
G37*
G36*
X197000Y28500D02*Y26500D01*
X205500D01*
Y28500D01*
X197000D01*
G37*
G36*
X192102Y21452D02*X186984D01*
Y15548D01*
X192102D01*
Y21452D01*
G37*
G36*
X185016D02*X179898D01*
Y15548D01*
X185016D01*
Y21452D01*
G37*
G36*
X197000Y33500D02*Y31500D01*
X205500D01*
Y33500D01*
X197000D01*
G37*
G36*
Y38500D02*Y36500D01*
X205500D01*
Y38500D01*
X197000D01*
G37*
G36*
Y43500D02*Y41500D01*
X205500D01*
Y43500D01*
X197000D01*
G37*
G36*
X192016Y53952D02*X186898D01*
Y48048D01*
X192016D01*
Y53952D01*
G37*
G36*
X199102D02*X193984D01*
Y48048D01*
X199102D01*
Y53952D01*
G37*
G36*
X180500Y60700D02*Y58300D01*
X184500D01*
Y60700D01*
X180500D01*
G37*
G36*
Y64600D02*Y62200D01*
X184500D01*
Y64600D01*
X180500D01*
G37*
G36*
Y68500D02*Y66100D01*
X184500D01*
Y68500D01*
X180500D01*
G37*
G36*
X177516Y86452D02*X172398D01*
Y80548D01*
X177516D01*
Y86452D01*
G37*
G36*
X184602D02*X179484D01*
Y80548D01*
X184602D01*
Y86452D01*
G37*
G36*
Y77952D02*X179484D01*
Y72048D01*
X184602D01*
Y77952D01*
G37*
G36*
X177516D02*X172398D01*
Y72048D01*
X177516D01*
Y77952D01*
G37*
G36*
X172300Y68500D02*Y66100D01*
X176300D01*
Y68500D01*
X172300D01*
G37*
G36*
Y64600D02*Y62200D01*
X176300D01*
Y64600D01*
X172300D01*
G37*
G36*
X172500Y100700D02*Y97300D01*
X176500D01*
Y100700D01*
X172500D01*
G37*
G36*
Y92900D02*Y89500D01*
X176500D01*
Y92900D01*
X172500D01*
G37*
G36*
X180700Y96800D02*Y93400D01*
X184700D01*
Y96800D01*
X180700D01*
G37*
G36*
X216548Y101016D02*Y95898D01*
X222452D01*
Y101016D01*
X216548D01*
G37*
G36*
Y108102D02*Y102984D01*
X222452D01*
Y108102D01*
X216548D01*
G37*
G36*
X144000Y76800D02*Y74400D01*
X148000D01*
Y76800D01*
X144000D01*
G37*
G36*
Y72900D02*Y70500D01*
X148000D01*
Y72900D01*
X144000D01*
G37*
G36*
X152200D02*Y70500D01*
X156200D01*
Y72900D01*
X152200D01*
G37*
G36*
Y76800D02*Y74400D01*
X156200D01*
Y76800D01*
X152200D01*
G37*
G36*
Y80700D02*Y78300D01*
X156200D01*
Y80700D01*
X152200D01*
G37*
G36*
X170500Y43500D02*Y41500D01*
X179000D01*
Y43500D01*
X170500D01*
G37*
G36*
Y38500D02*Y36500D01*
X179000D01*
Y38500D01*
X170500D01*
G37*
G36*
Y33500D02*Y31500D01*
X179000D01*
Y33500D01*
X170500D01*
G37*
G36*
Y28500D02*Y26500D01*
X179000D01*
Y28500D01*
X170500D01*
G37*
G54D23*X149500Y47000D03*
Y52000D03*
X154500Y47000D03*
Y52000D03*
X159500Y47000D03*
Y52000D03*
G54D11*G36*
X172300Y60700D02*Y58300D01*
X176300D01*
Y60700D01*
X172300D01*
G37*
G36*
X151048Y35602D02*Y30484D01*
X156952D01*
Y35602D01*
X151048D01*
G37*
G36*
X146796Y36795D02*X143016D01*
Y28921D01*
X146796D01*
Y36795D01*
G37*
G36*
X151048Y28516D02*Y23398D01*
X156952D01*
Y28516D01*
X151048D01*
G37*
G36*
X120548Y35602D02*Y30484D01*
X126452D01*
Y35602D01*
X120548D01*
G37*
G36*
Y28516D02*Y23398D01*
X126452D01*
Y28516D01*
X120548D01*
G37*
G36*
X140890Y36795D02*X137110D01*
Y21205D01*
X140890D01*
Y36795D01*
G37*
G36*
X143725Y26086D02*X134275D01*
Y14746D01*
X143725D01*
Y26086D01*
G37*
G36*
X140885Y28926D02*X139465Y27506D01*
X142305Y24666D01*
X143725Y26086D01*
X140885Y28926D01*
G37*
G36*
X138535Y27506D02*X137115Y28926D01*
X134275Y26086D01*
X135695Y24666D01*
X138535Y27506D01*
G37*
G36*
X134984Y36795D02*X131204D01*
Y28921D01*
X134984D01*
Y36795D01*
G37*
G36*
X96299Y33807D02*X93937D01*
Y27705D01*
X96299D01*
Y33807D01*
G37*
G36*
X100236D02*X97874D01*
Y27705D01*
X100236D01*
Y33807D01*
G37*
G36*
X104173D02*X101811D01*
Y27705D01*
X104173D01*
Y33807D01*
G37*
G36*
X108110D02*X105748D01*
Y27705D01*
X108110D01*
Y33807D01*
G37*
G36*
X92362Y19043D02*X87638D01*
Y11957D01*
X92362D01*
Y19043D01*
G37*
G36*
X114409D02*X109685D01*
Y11957D01*
X114409D01*
Y19043D01*
G37*
G36*
X144000Y80700D02*Y78300D01*
X148000D01*
Y80700D01*
X144000D01*
G37*
G36*
X127750Y64250D02*Y58750D01*
X135250D01*
Y64250D01*
X127750D01*
G37*
G36*
Y51250D02*Y45750D01*
X135250D01*
Y51250D01*
X127750D01*
G37*
G36*
X108548Y64602D02*Y59484D01*
X114452D01*
Y64602D01*
X108548D01*
G37*
G36*
Y57516D02*Y52398D01*
X114452D01*
Y57516D01*
X108548D01*
G37*
G36*
X97548Y64602D02*Y59484D01*
X103452D01*
Y64602D01*
X97548D01*
G37*
G36*
Y57516D02*Y52398D01*
X103452D01*
Y57516D01*
X97548D01*
G37*
G36*
X197000Y668500D02*Y666500D01*
X205500D01*
Y668500D01*
X197000D01*
G37*
G36*
X170500D02*Y666500D01*
X179000D01*
Y668500D01*
X170500D01*
G37*
G36*
X197000Y673500D02*Y671500D01*
X205500D01*
Y673500D01*
X197000D01*
G37*
G36*
X170500D02*Y671500D01*
X179000D01*
Y673500D01*
X170500D01*
G37*
G36*
X197000Y678500D02*Y676500D01*
X205500D01*
Y678500D01*
X197000D01*
G37*
G36*
Y683500D02*Y681500D01*
X205500D01*
Y683500D01*
X197000D01*
G37*
G36*
X170500D02*Y681500D01*
X179000D01*
Y683500D01*
X170500D01*
G37*
G36*
Y678500D02*Y676500D01*
X179000D01*
Y678500D01*
X170500D01*
G37*
G36*
X192102Y661452D02*X186984D01*
Y655548D01*
X192102D01*
Y661452D01*
G37*
G36*
X185016D02*X179898D01*
Y655548D01*
X185016D01*
Y661452D01*
G37*
G36*
X177516Y726452D02*X172398D01*
Y720548D01*
X177516D01*
Y726452D01*
G37*
G36*
X184602D02*X179484D01*
Y720548D01*
X184602D01*
Y726452D01*
G37*
G36*
Y717952D02*X179484D01*
Y712048D01*
X184602D01*
Y717952D01*
G37*
G36*
X177516D02*X172398D01*
Y712048D01*
X177516D01*
Y717952D01*
G37*
G36*
X144000Y720700D02*Y718300D01*
X148000D01*
Y720700D01*
X144000D01*
G37*
G36*
Y716800D02*Y714400D01*
X148000D01*
Y716800D01*
X144000D01*
G37*
G36*
Y712900D02*Y710500D01*
X148000D01*
Y712900D01*
X144000D01*
G37*
G36*
X152200D02*Y710500D01*
X156200D01*
Y712900D01*
X152200D01*
G37*
G36*
Y716800D02*Y714400D01*
X156200D01*
Y716800D01*
X152200D01*
G37*
G36*
Y720700D02*Y718300D01*
X156200D01*
Y720700D01*
X152200D01*
G37*
G36*
X151048Y675602D02*Y670484D01*
X156952D01*
Y675602D01*
X151048D01*
G37*
G36*
X146796Y676795D02*X143016D01*
Y668921D01*
X146796D01*
Y676795D01*
G37*
G36*
X151048Y668516D02*Y663398D01*
X156952D01*
Y668516D01*
X151048D01*
G37*
G36*
X120548Y675602D02*Y670484D01*
X126452D01*
Y675602D01*
X120548D01*
G37*
G36*
Y668516D02*Y663398D01*
X126452D01*
Y668516D01*
X120548D01*
G37*
G36*
X140890Y676795D02*X137110D01*
Y661205D01*
X140890D01*
Y676795D01*
G37*
G36*
X143725Y666086D02*X134275D01*
Y654746D01*
X143725D01*
Y666086D01*
G37*
G36*
X140885Y668926D02*X139465Y667506D01*
X142305Y664666D01*
X143725Y666086D01*
X140885Y668926D01*
G37*
G36*
X138535Y667506D02*X137115Y668926D01*
X134275Y666086D01*
X135695Y664666D01*
X138535Y667506D01*
G37*
G36*
X134984Y676795D02*X131204D01*
Y668921D01*
X134984D01*
Y676795D01*
G37*
G36*
X96299Y673807D02*X93937D01*
Y667705D01*
X96299D01*
Y673807D01*
G37*
G36*
X92362Y659043D02*X87638D01*
Y651957D01*
X92362D01*
Y659043D01*
G37*
G36*
X100236Y673807D02*X97874D01*
Y667705D01*
X100236D01*
Y673807D01*
G37*
G36*
X104173D02*X101811D01*
Y667705D01*
X104173D01*
Y673807D01*
G37*
G36*
X108110D02*X105748D01*
Y667705D01*
X108110D01*
Y673807D01*
G37*
G36*
X114409Y659043D02*X109685D01*
Y651957D01*
X114409D01*
Y659043D01*
G37*
G54D23*X149500Y687000D03*
X154500D03*
X159500D03*
X149500Y692000D03*
X154500D03*
X159500D03*
G54D11*G36*
X192016Y693952D02*X186898D01*
Y688048D01*
X192016D01*
Y693952D01*
G37*
G36*
X199102D02*X193984D01*
Y688048D01*
X199102D01*
Y693952D01*
G37*
G36*
X172300Y708500D02*Y706100D01*
X176300D01*
Y708500D01*
X172300D01*
G37*
G36*
Y704600D02*Y702200D01*
X176300D01*
Y704600D01*
X172300D01*
G37*
G36*
Y700700D02*Y698300D01*
X176300D01*
Y700700D01*
X172300D01*
G37*
G36*
X194516Y708952D02*X189398D01*
Y703048D01*
X194516D01*
Y708952D01*
G37*
G36*
X127750Y704250D02*Y698750D01*
X135250D01*
Y704250D01*
X127750D01*
G37*
G36*
X108548Y704602D02*Y699484D01*
X114452D01*
Y704602D01*
X108548D01*
G37*
G36*
Y697516D02*Y692398D01*
X114452D01*
Y697516D01*
X108548D01*
G37*
G36*
X97548Y704602D02*Y699484D01*
X103452D01*
Y704602D01*
X97548D01*
G37*
G36*
Y697516D02*Y692398D01*
X103452D01*
Y697516D01*
X97548D01*
G37*
G36*
X127750Y691250D02*Y685750D01*
X135250D01*
Y691250D01*
X127750D01*
G37*
G36*
X231548Y719516D02*Y714398D01*
X237452D01*
Y719516D01*
X231548D01*
G37*
G36*
Y726602D02*Y721484D01*
X237452D01*
Y726602D01*
X231548D01*
G37*
G36*
Y744516D02*Y739398D01*
X237452D01*
Y744516D01*
X231548D01*
G37*
G36*
Y751602D02*Y746484D01*
X237452D01*
Y751602D01*
X231548D01*
G37*
G36*
X216548Y741016D02*Y735898D01*
X222452D01*
Y741016D01*
X216548D01*
G37*
G36*
Y748102D02*Y742984D01*
X222452D01*
Y748102D01*
X216548D01*
G37*
G36*
X213650Y771600D02*X208150D01*
Y763300D01*
X213650D01*
Y771600D01*
G37*
G36*
X224559Y724952D02*X219441D01*
Y719048D01*
X224559D01*
Y724952D01*
G37*
G36*
X172500Y740700D02*Y737300D01*
X176500D01*
Y740700D01*
X172500D01*
G37*
G36*
Y732900D02*Y729500D01*
X176500D01*
Y732900D01*
X172500D01*
G37*
G36*
X180700Y736800D02*Y733400D01*
X184700D01*
Y736800D01*
X180700D01*
G37*
G36*
X195850Y735700D02*X190350D01*
Y727400D01*
X195850D01*
Y735700D01*
G37*
G36*
Y771600D02*X190350D01*
Y763300D01*
X195850D01*
Y771600D01*
G37*
G36*
Y611600D02*X190350D01*
Y603300D01*
X195850D01*
Y611600D01*
G37*
G36*
X231548Y694516D02*Y689398D01*
X237452D01*
Y694516D01*
X231548D01*
G37*
G36*
Y701602D02*Y696484D01*
X237452D01*
Y701602D01*
X231548D01*
G37*
G36*
X217516Y706952D02*X212398D01*
Y701048D01*
X217516D01*
Y706952D01*
G37*
G36*
X224602D02*X219484D01*
Y701048D01*
X224602D01*
Y706952D01*
G37*
G36*
X213650Y735700D02*X208150D01*
Y727400D01*
X213650D01*
Y735700D01*
G37*
G36*
X217516Y715952D02*X212398D01*
Y710048D01*
X217516D01*
Y715952D01*
G37*
G36*
X224602D02*X219484D01*
Y710048D01*
X224602D01*
Y715952D01*
G37*
G36*
X217473Y724952D02*X212355D01*
Y719048D01*
X217473D01*
Y724952D01*
G37*
G36*
X194516Y717952D02*X189398D01*
Y712048D01*
X194516D01*
Y717952D01*
G37*
G36*
X201602D02*X196484D01*
Y712048D01*
X201602D01*
Y717952D01*
G37*
G36*
X180500Y700700D02*Y698300D01*
X184500D01*
Y700700D01*
X180500D01*
G37*
G36*
Y704600D02*Y702200D01*
X184500D01*
Y704600D01*
X180500D01*
G37*
G36*
Y708500D02*Y706100D01*
X184500D01*
Y708500D01*
X180500D01*
G37*
G36*
X201602Y708952D02*X196484D01*
Y703048D01*
X201602D01*
Y708952D01*
G37*
G36*
X177516Y566452D02*X172398D01*
Y560548D01*
X177516D01*
Y566452D01*
G37*
G36*
X172500Y580700D02*Y577300D01*
X176500D01*
Y580700D01*
X172500D01*
G37*
G36*
Y572900D02*Y569500D01*
X176500D01*
Y572900D01*
X172500D01*
G37*
G36*
X184602Y566452D02*X179484D01*
Y560548D01*
X184602D01*
Y566452D01*
G37*
G36*
X180700Y576800D02*Y573400D01*
X184700D01*
Y576800D01*
X180700D01*
G37*
G36*
X184602Y557952D02*X179484D01*
Y552048D01*
X184602D01*
Y557952D01*
G37*
G36*
X177516D02*X172398D01*
Y552048D01*
X177516D01*
Y557952D01*
G37*
G36*
X172300Y548500D02*Y546100D01*
X176300D01*
Y548500D01*
X172300D01*
G37*
G36*
Y544600D02*Y542200D01*
X176300D01*
Y544600D01*
X172300D01*
G37*
G36*
Y540700D02*Y538300D01*
X176300D01*
Y540700D01*
X172300D01*
G37*
G36*
X144000Y560700D02*Y558300D01*
X148000D01*
Y560700D01*
X144000D01*
G37*
G36*
Y556800D02*Y554400D01*
X148000D01*
Y556800D01*
X144000D01*
G37*
G36*
Y552900D02*Y550500D01*
X148000D01*
Y552900D01*
X144000D01*
G37*
G36*
X152200D02*Y550500D01*
X156200D01*
Y552900D01*
X152200D01*
G37*
G36*
Y556800D02*Y554400D01*
X156200D01*
Y556800D01*
X152200D01*
G37*
G36*
Y560700D02*Y558300D01*
X156200D01*
Y560700D01*
X152200D01*
G37*
G36*
X197000Y508500D02*Y506500D01*
X205500D01*
Y508500D01*
X197000D01*
G37*
G36*
Y513500D02*Y511500D01*
X205500D01*
Y513500D01*
X197000D01*
G37*
G36*
Y518500D02*Y516500D01*
X205500D01*
Y518500D01*
X197000D01*
G37*
G36*
Y523500D02*Y521500D01*
X205500D01*
Y523500D01*
X197000D01*
G37*
G36*
X170500D02*Y521500D01*
X179000D01*
Y523500D01*
X170500D01*
G37*
G36*
Y518500D02*Y516500D01*
X179000D01*
Y518500D01*
X170500D01*
G37*
G36*
Y513500D02*Y511500D01*
X179000D01*
Y513500D01*
X170500D01*
G37*
G36*
Y508500D02*Y506500D01*
X179000D01*
Y508500D01*
X170500D01*
G37*
G36*
X192016Y533952D02*X186898D01*
Y528048D01*
X192016D01*
Y533952D01*
G37*
G36*
X199102D02*X193984D01*
Y528048D01*
X199102D01*
Y533952D01*
G37*
G36*
X192102Y501452D02*X186984D01*
Y495548D01*
X192102D01*
Y501452D01*
G37*
G36*
X185016D02*X179898D01*
Y495548D01*
X185016D01*
Y501452D01*
G37*
G54D23*X149500Y527000D03*
Y532000D03*
X154500Y527000D03*
Y532000D03*
G54D11*G36*
X151048Y515602D02*Y510484D01*
X156952D01*
Y515602D01*
X151048D01*
G37*
G36*
Y508516D02*Y503398D01*
X156952D01*
Y508516D01*
X151048D01*
G37*
G54D23*X159500Y527000D03*
Y532000D03*
G54D11*G36*
X146796Y516795D02*X143016D01*
Y508921D01*
X146796D01*
Y516795D01*
G37*
G36*
X140890D02*X137110D01*
Y501205D01*
X140890D01*
Y516795D01*
G37*
G36*
X143725Y506086D02*X134275D01*
Y494746D01*
X143725D01*
Y506086D01*
G37*
G36*
X140885Y508926D02*X139465Y507506D01*
X142305Y504666D01*
X143725Y506086D01*
X140885Y508926D01*
G37*
G36*
X138535Y507506D02*X137115Y508926D01*
X134275Y506086D01*
X135695Y504666D01*
X138535Y507506D01*
G37*
G36*
X134984Y516795D02*X131204D01*
Y508921D01*
X134984D01*
Y516795D01*
G37*
G36*
X127750Y544250D02*Y538750D01*
X135250D01*
Y544250D01*
X127750D01*
G37*
G36*
Y531250D02*Y525750D01*
X135250D01*
Y531250D01*
X127750D01*
G37*
G36*
X120548Y515602D02*Y510484D01*
X126452D01*
Y515602D01*
X120548D01*
G37*
G36*
Y508516D02*Y503398D01*
X126452D01*
Y508516D01*
X120548D01*
G37*
G36*
X108110Y513807D02*X105748D01*
Y507705D01*
X108110D01*
Y513807D01*
G37*
G36*
X96299D02*X93937D01*
Y507705D01*
X96299D01*
Y513807D01*
G37*
G36*
X100236D02*X97874D01*
Y507705D01*
X100236D01*
Y513807D01*
G37*
G36*
X104173D02*X101811D01*
Y507705D01*
X104173D01*
Y513807D01*
G37*
G36*
X92362Y499043D02*X87638D01*
Y491957D01*
X92362D01*
Y499043D01*
G37*
G36*
X114409D02*X109685D01*
Y491957D01*
X114409D01*
Y499043D01*
G37*
G36*
X108548Y544602D02*Y539484D01*
X114452D01*
Y544602D01*
X108548D01*
G37*
G36*
Y537516D02*Y532398D01*
X114452D01*
Y537516D01*
X108548D01*
G37*
G36*
X97548Y544602D02*Y539484D01*
X103452D01*
Y544602D01*
X97548D01*
G37*
G36*
Y537516D02*Y532398D01*
X103452D01*
Y537516D01*
X97548D01*
G37*
G36*
X231548Y559516D02*Y554398D01*
X237452D01*
Y559516D01*
X231548D01*
G37*
G36*
Y534516D02*Y529398D01*
X237452D01*
Y534516D01*
X231548D01*
G37*
G36*
Y541602D02*Y536484D01*
X237452D01*
Y541602D01*
X231548D01*
G37*
G36*
Y566602D02*Y561484D01*
X237452D01*
Y566602D01*
X231548D01*
G37*
G36*
Y584516D02*Y579398D01*
X237452D01*
Y584516D01*
X231548D01*
G37*
G36*
X216548Y581016D02*Y575898D01*
X222452D01*
Y581016D01*
X216548D01*
G37*
G36*
X213650Y575700D02*X208150D01*
Y567400D01*
X213650D01*
Y575700D01*
G37*
G36*
X231548Y591602D02*Y586484D01*
X237452D01*
Y591602D01*
X231548D01*
G37*
G36*
X216548Y588102D02*Y582984D01*
X222452D01*
Y588102D01*
X216548D01*
G37*
G36*
X213650Y611600D02*X208150D01*
Y603300D01*
X213650D01*
Y611600D01*
G37*
G36*
X217516Y555952D02*X212398D01*
Y550048D01*
X217516D01*
Y555952D01*
G37*
G36*
X217473Y564952D02*X212355D01*
Y559048D01*
X217473D01*
Y564952D01*
G37*
G36*
X201602Y557952D02*X196484D01*
Y552048D01*
X201602D01*
Y557952D01*
G37*
G36*
Y548952D02*X196484D01*
Y543048D01*
X201602D01*
Y548952D01*
G37*
G36*
X224602Y555952D02*X219484D01*
Y550048D01*
X224602D01*
Y555952D01*
G37*
G36*
X224559Y564952D02*X219441D01*
Y559048D01*
X224559D01*
Y564952D01*
G37*
G36*
X217516Y546952D02*X212398D01*
Y541048D01*
X217516D01*
Y546952D01*
G37*
G36*
X224602D02*X219484D01*
Y541048D01*
X224602D01*
Y546952D01*
G37*
G36*
X195850Y575700D02*X190350D01*
Y567400D01*
X195850D01*
Y575700D01*
G37*
G36*
X194516Y557952D02*X189398D01*
Y552048D01*
X194516D01*
Y557952D01*
G37*
G36*
Y548952D02*X189398D01*
Y543048D01*
X194516D01*
Y548952D01*
G37*
G36*
X180500Y540700D02*Y538300D01*
X184500D01*
Y540700D01*
X180500D01*
G37*
G36*
Y544600D02*Y542200D01*
X184500D01*
Y544600D01*
X180500D01*
G37*
G36*
Y548500D02*Y546100D01*
X184500D01*
Y548500D01*
X180500D01*
G37*
G54D24*X205000Y689000D03*
X203000Y699000D03*
X202000Y692000D03*
X218500Y731500D03*
X227000Y749000D03*
X228000Y717000D03*
X219500Y756500D03*
Y752000D03*
X208000Y692000D03*
X210500Y708500D03*
X218500Y698000D03*
X191500Y759500D03*
Y739000D03*
X197000Y759500D03*
Y739000D03*
Y749500D03*
X154000Y704500D03*
Y708000D03*
X159000Y702500D03*
X178500Y703500D03*
X190000Y699500D03*
X160500Y682500D03*
Y696500D03*
X149500Y679500D03*
X154500Y683000D03*
X208000Y686500D03*
X202000D03*
X208500Y677500D03*
X165500Y734000D03*
X130500Y665500D03*
X193500D03*
X208500Y667500D03*
X151000Y658500D03*
X147500Y665500D03*
Y662000D03*
Y658500D03*
X130500Y662000D03*
Y658500D03*
X127000D03*
Y655000D03*
X130500D03*
X151000D03*
X147500D03*
X150000Y697000D03*
X106000Y702000D03*
X95000Y695000D03*
X91500D03*
X118800Y702500D03*
Y689700D03*
X141500Y716000D03*
Y719500D03*
X111000Y725000D03*
X121000Y714500D03*
X103000Y726000D03*
Y566000D03*
X218500Y571500D03*
X154000Y544500D03*
Y548000D03*
X160500Y536500D03*
X159000Y542500D03*
X165500Y574000D03*
X218500Y538000D03*
X118800Y542500D03*
X203000Y539000D03*
X202000Y532000D03*
X208000D03*
X205000Y529000D03*
X208000Y526500D03*
X202000D03*
X208500Y517500D03*
X191500Y599500D03*
X197000D03*
Y579000D03*
Y589500D03*
X191500Y579000D03*
X227000Y589000D03*
X219500Y596500D03*
Y592000D03*
X208500Y507500D03*
X141500Y556000D03*
X228000Y557000D03*
X178500Y543500D03*
X210500Y548500D03*
X190000Y539500D03*
X118800Y529700D03*
X218500Y251500D03*
X227000Y269000D03*
X228000Y237000D03*
X219500Y276500D03*
Y272000D03*
X205000Y209000D03*
X208000Y206500D03*
X202000D03*
X208500Y197500D03*
X202000Y212000D03*
X208000D03*
X203000Y219000D03*
X218500Y218000D03*
X193500Y185500D03*
X210500Y228500D03*
X190000Y219500D03*
X208500Y187500D03*
X191500Y279500D03*
X197000D03*
Y259000D03*
X191500D03*
X197000Y269500D03*
X191500Y119500D03*
Y99000D03*
X193500Y25500D03*
X190000Y59500D03*
X197000Y119500D03*
Y99000D03*
Y109500D03*
X203000Y59000D03*
X202000Y52000D03*
X208000D03*
X218500Y58000D03*
Y91500D03*
X205000Y49000D03*
X208000Y46500D03*
X202000D03*
X208500Y37500D03*
Y27500D03*
X227000Y109000D03*
X219500Y116500D03*
Y112000D03*
X228000Y77000D03*
X210500Y68500D03*
X160500Y522500D03*
X149500Y519500D03*
X151000Y498500D03*
X147500Y505500D03*
Y502000D03*
Y498500D03*
X151000Y495000D03*
X147500D03*
X127000Y498500D03*
Y495000D03*
X130500Y505500D03*
Y502000D03*
Y498500D03*
Y495000D03*
X154500Y523000D03*
X150000Y537000D03*
X141500Y559500D03*
X111000Y565000D03*
X121000Y554500D03*
X106000Y542000D03*
X95000Y535000D03*
X91500D03*
X111000Y405000D03*
X121000Y394500D03*
X103000Y406000D03*
X106000Y382000D03*
X95000Y375000D03*
X91500D03*
X118800Y382500D03*
Y369700D03*
X193500Y505500D03*
X191500Y439500D03*
X197000D03*
Y429500D03*
X227000Y429000D03*
X219500Y436500D03*
Y432000D03*
X205000Y369000D03*
X208000Y366500D03*
X202000D03*
Y372000D03*
X208000D03*
X193500Y345500D03*
X208500Y357500D03*
Y347500D03*
X218500Y411500D03*
X203000Y379000D03*
X228000Y397000D03*
X210500Y388500D03*
X154000Y384500D03*
Y388000D03*
X160500Y362500D03*
Y376500D03*
X159000Y382500D03*
X197000Y419000D03*
X191500D03*
X165500Y414000D03*
X178500Y383500D03*
X190000Y379500D03*
X218500Y378000D03*
X149500Y359500D03*
X154500Y363000D03*
X150000Y377000D03*
X141500Y396000D03*
Y399500D03*
X151000Y338500D03*
X147500Y345500D03*
Y342000D03*
Y338500D03*
X151000Y335000D03*
X127000D03*
X147500D03*
X130500D03*
X127000Y338500D03*
X130500Y345500D03*
Y342000D03*
Y338500D03*
X160500Y202500D03*
X149500Y199500D03*
X154500Y203000D03*
X151000Y178500D03*
X147500Y185500D03*
Y182000D03*
Y178500D03*
X151000Y175000D03*
X147500D03*
X127000Y178500D03*
Y175000D03*
X130500Y185500D03*
Y182000D03*
Y178500D03*
Y175000D03*
X154000Y224500D03*
Y228000D03*
X160500Y216500D03*
X159000Y222500D03*
X150000Y217000D03*
X141500Y236000D03*
Y239500D03*
X165500Y254000D03*
X178500Y223500D03*
X111000Y245000D03*
X103000Y246000D03*
X106000Y222000D03*
X95000Y215000D03*
X91500D03*
X121000Y234500D03*
X118800Y222500D03*
Y209700D03*
X154000Y64500D03*
X160500Y56500D03*
X159000Y62500D03*
X150000Y57000D03*
X154000Y68000D03*
X160500Y42500D03*
X149500Y39500D03*
X154500Y43000D03*
X141500Y76000D03*
Y79500D03*
X111000Y85000D03*
X121000Y74500D03*
X103000Y86000D03*
X165500Y94000D03*
X178500Y63500D03*
X106000Y62000D03*
X95000Y55000D03*
X91500D03*
X118800Y62500D03*
Y49700D03*
X127000Y18500D03*
Y15000D03*
X130500D03*
X151000Y18500D03*
Y15000D03*
X147500Y25500D03*
Y22000D03*
Y18500D03*
Y15000D03*
X130500Y25500D03*
Y22000D03*
Y18500D03*
G54D23*G54D25*G54D23*G54D25*G54D23*G54D25*G54D23*G54D25*G54D23*G54D25*G54D23*G54D25*G54D23*G54D25*G54D23*G54D25*G54D23*G54D25*G54D23*G54D25*G54D23*G54D25*G54D23*G54D25*G54D26*G54D27*G54D28*G54D29*G54D28*G54D29*G54D28*G54D26*G54D30*G54D29*G54D30*G54D29*G54D27*G54D28*G54D29*G54D28*G54D29*G54D26*G54D27*G54D26*G54D27*G54D29*G54D27*G54D28*G54D27*G54D28*G54D29*G54D27*G54D28*G54D27*G54D28*G54D29*G54D26*G54D30*G54D26*G54D29*G54D30*G54D28*G54D29*G54D26*G54D27*G54D28*G54D27*G54D28*G54D27*G54D29*G54D26*G54D30*G54D26*G54D29*G54D26*G54D27*G54D29*G54D30*M02*
