M48
INCH
T56C0.031
T55C0.039
%
T56
X004100Y073000
X004100Y072500
X004100Y072000
X004100Y057000
X004100Y056500
X004100Y056000
X004100Y041000
X004100Y040500
X004100Y040000
X004100Y025000
X004100Y024500
X004100Y024000
X004100Y009000
X004100Y008500
X004100Y008000
X004900Y073000
X004900Y072500
X004900Y072000
X004900Y057000
X004900Y056500
X004900Y056000
X004900Y041000
X004900Y040500
X004900Y040000
X004900Y025000
X004900Y024500
X004900Y024000
X004900Y009000
X004900Y008500
X004900Y008000
X014500Y064900
X014500Y064100
X014500Y048900
X014500Y048100
X014500Y032900
X014500Y032100
X014500Y016900
X014500Y016100
X015000Y064900
X015000Y064100
X015000Y048900
X015000Y048100
X015000Y032900
X015000Y032100
X015000Y016900
X015000Y016100
X015500Y064900
X015500Y064100
X015500Y048900
X015500Y048100
X015500Y032900
X015500Y032100
X015500Y016900
X015500Y016100
X025100Y073000
X025100Y072500
X025100Y072000
X025100Y057000
X025100Y056500
X025100Y056000
X025100Y041000
X025100Y040500
X025100Y040000
X025100Y025000
X025100Y024500
X025100Y024000
X025100Y009000
X025100Y008500
X025100Y008000
X025900Y073000
X025900Y072500
X025900Y072000
X025900Y057000
X025900Y056500
X025900Y056000
X025900Y041000
X025900Y040500
X025900Y040000
X025900Y025000
X025900Y024500
X025900Y024000
X025900Y009000
X025900Y008500
X025900Y008000
T55
X014450Y068950
X014450Y052950
X014450Y036950
X014450Y020950
X014450Y004950
X016450Y069350
X016450Y068550
X016450Y053350
X016450Y052550
X016450Y037350
X016450Y036550
X016450Y021350
X016450Y020550
X016450Y005350
X016450Y004550
M30
