G04 start of page 4 for group 2 idx 2 *
G04 Title: (unknown), outline *
G04 Creator: pcb 4.0.2 *
G04 CreationDate: Sun Oct 16 03:19:17 2022 UTC *
G04 For: ndholmes *
G04 Format: Gerber/RS-274X *
G04 PCB-Dimensions (mil): 3000.00 8100.00 *
G04 PCB-Coordinate-Origin: lower left *
%MOIN*%
%FSLAX25Y25*%
%LNOUTLINE*%
%ADD49C,0.0100*%
G54D49*X10000Y800000D02*X40000D01*
Y735000D01*
Y715000D02*Y575000D01*
X250000Y555000D02*Y490000D01*
X260000Y715000D02*Y575000D01*
X50000Y800000D02*X250000D01*
X160000Y640000D02*X250000D01*
Y490000D02*X160000D01*
X250000Y650000D02*X160000D01*
X50000D02*X140000D01*
X50000Y640000D02*X140000D01*
X50000Y490000D02*X140000D01*
X260000Y800000D02*X290000D01*
X250000D02*Y735000D01*
X260000Y800000D02*Y735000D01*
X250000Y640000D02*Y575000D01*
Y715000D02*Y650000D01*
X50000Y735000D02*Y800000D01*
Y575000D02*Y640000D01*
Y715000D02*Y650000D01*
X290000Y800000D02*Y10000D01*
X250000Y480000D02*Y415000D01*
Y395000D02*Y330000D01*
X260000Y555000D02*Y415000D01*
Y235000D02*Y95000D01*
Y75000D02*Y10000D01*
Y395000D02*Y255000D01*
X160000Y480000D02*X250000D01*
X160000Y320000D02*X250000D01*
Y330000D02*X160000D01*
X50000Y320000D02*X140000D01*
X50000Y330000D02*X140000D01*
X250000Y170000D02*X160000D01*
X50000D02*X140000D01*
X50000Y160000D02*X140000D01*
X50000Y255000D02*Y320000D01*
Y95000D02*Y160000D01*
Y235000D02*Y170000D01*
X40000Y10000D02*X10000D01*
Y800000D01*
X40000Y555000D02*Y415000D01*
Y395000D02*Y255000D01*
Y235000D02*Y95000D01*
Y75000D02*Y10000D01*
X50000Y415000D02*Y480000D01*
Y555000D02*Y490000D01*
Y395000D02*Y330000D01*
Y480000D02*X140000D01*
X290000Y10000D02*X260000D01*
X250000Y320000D02*Y255000D01*
Y160000D02*Y95000D01*
X50000Y75000D02*Y10000D01*
X250000D02*X50000D01*
X250000Y235000D02*Y170000D01*
Y75000D02*Y10000D01*
X160000Y160000D02*X250000D01*
X45000Y570000D02*G75*G03X50000Y575000I0J5000D01*G01*
X45000Y570000D02*G75*G02X40000Y575000I0J5000D01*G01*
X45000Y730000D02*G75*G02X40000Y735000I0J5000D01*G01*
X45000Y730000D02*G75*G03X50000Y735000I0J5000D01*G01*
X45000Y720000D02*G75*G03X40000Y715000I0J-5000D01*G01*
X45000Y720000D02*G75*G02X50000Y715000I0J-5000D01*G01*
X45000Y560000D02*G75*G02X50000Y555000I0J-5000D01*G01*
X45000Y560000D02*G75*G03X40000Y555000I0J-5000D01*G01*
X45000Y90000D02*G75*G03X50000Y95000I0J5000D01*G01*
X45000Y80000D02*G75*G02X50000Y75000I0J-5000D01*G01*
X45000Y80000D02*G75*G03X40000Y75000I0J-5000D01*G01*
X45000Y90000D02*G75*G02X40000Y95000I0J5000D01*G01*
X255000Y570000D02*G75*G02X250000Y575000I0J5000D01*G01*
X255000Y570000D02*G75*G03X260000Y575000I0J5000D01*G01*
X255000Y560000D02*G75*G03X250000Y555000I0J-5000D01*G01*
X255000Y560000D02*G75*G02X260000Y555000I0J-5000D01*G01*
X255000Y730000D02*G75*G02X250000Y735000I0J5000D01*G01*
X255000Y730000D02*G75*G03X260000Y735000I0J5000D01*G01*
X255000Y720000D02*G75*G03X250000Y715000I0J-5000D01*G01*
X255000Y720000D02*G75*G02X260000Y715000I0J-5000D01*G01*
X255000Y250000D02*G75*G02X250000Y255000I0J5000D01*G01*
X255000Y250000D02*G75*G03X260000Y255000I0J5000D01*G01*
X255000Y240000D02*G75*G03X250000Y235000I0J-5000D01*G01*
X255000Y90000D02*G75*G02X250000Y95000I0J5000D01*G01*
X255000Y90000D02*G75*G03X260000Y95000I0J5000D01*G01*
X255000Y80000D02*G75*G03X250000Y75000I0J-5000D01*G01*
X255000Y80000D02*G75*G02X260000Y75000I0J-5000D01*G01*
X255000Y240000D02*G75*G02X260000Y235000I0J-5000D01*G01*
X255000Y410000D02*G75*G02X250000Y415000I0J5000D01*G01*
X255000Y410000D02*G75*G03X260000Y415000I0J5000D01*G01*
X255000Y400000D02*G75*G03X250000Y395000I0J-5000D01*G01*
X255000Y400000D02*G75*G02X260000Y395000I0J-5000D01*G01*
X155000Y645000D02*G75*G03X160000Y640000I5000J0D01*G01*
X155000Y485000D02*G75*G03X160000Y480000I5000J0D01*G01*
X155000Y485000D02*G75*G02X160000Y490000I5000J0D01*G01*
X155000Y645000D02*G75*G02X160000Y650000I5000J0D01*G01*
X145000Y645000D02*G75*G02X140000Y640000I-5000J0D01*G01*
X145000Y645000D02*G75*G03X140000Y650000I-5000J0D01*G01*
X145000Y485000D02*G75*G02X140000Y480000I-5000J0D01*G01*
X145000Y485000D02*G75*G03X140000Y490000I-5000J0D01*G01*
X145000Y325000D02*G75*G02X140000Y320000I-5000J0D01*G01*
X145000Y325000D02*G75*G03X140000Y330000I-5000J0D01*G01*
X45000Y410000D02*G75*G03X50000Y415000I0J5000D01*G01*
X45000Y410000D02*G75*G02X40000Y415000I0J5000D01*G01*
X45000Y400000D02*G75*G02X50000Y395000I0J-5000D01*G01*
X45000Y400000D02*G75*G03X40000Y395000I0J-5000D01*G01*
X45000Y250000D02*G75*G03X50000Y255000I0J5000D01*G01*
X45000Y250000D02*G75*G02X40000Y255000I0J5000D01*G01*
X45000Y240000D02*G75*G02X50000Y235000I0J-5000D01*G01*
X45000Y240000D02*G75*G03X40000Y235000I0J-5000D01*G01*
X155000Y325000D02*G75*G03X160000Y320000I5000J0D01*G01*
X155000Y325000D02*G75*G02X160000Y330000I5000J0D01*G01*
X155000Y165000D02*G75*G03X160000Y160000I5000J0D01*G01*
X155000Y165000D02*G75*G02X160000Y170000I5000J0D01*G01*
X145000Y165000D02*G75*G02X140000Y160000I-5000J0D01*G01*
X145000Y165000D02*G75*G03X140000Y170000I-5000J0D01*G01*
M02*
