M48
INCH
T54C0.012
T53C0.068
T52C0.048
T51C0.060
T50C0.129
%
T54
X009150Y069500
X009150Y053500
X009150Y037500
X009150Y021500
X009150Y005500
X009500Y069500
X009500Y053500
X009500Y037500
X009500Y021500
X009500Y005500
X010300Y072600
X010300Y056600
X010300Y040600
X010300Y024600
X010300Y008600
X010600Y070200
X010600Y054200
X010600Y038200
X010600Y022200
X010600Y006200
X011100Y072500
X011100Y056500
X011100Y040500
X011100Y024500
X011100Y008500
X011880Y070250
X011880Y068970
X011880Y054250
X011880Y052970
X011880Y038250
X011880Y036970
X011880Y022250
X011880Y020970
X011880Y006250
X011880Y004970
X012100Y071450
X012100Y055450
X012100Y039450
X012100Y023450
X012100Y007450
X012700Y065850
X012700Y065500
X012700Y049850
X012700Y049500
X012700Y033850
X012700Y033500
X012700Y017850
X012700Y017500
X012700Y001850
X012700Y001500
X013050Y066550
X013050Y066200
X013050Y065850
X013050Y065500
X013050Y050550
X013050Y050200
X013050Y049850
X013050Y049500
X013050Y034550
X013050Y034200
X013050Y033850
X013050Y033500
X013050Y018550
X013050Y018200
X013050Y017850
X013050Y017500
X013050Y002550
X013050Y002200
X013050Y001850
X013050Y001500
X014150Y071950
X014150Y071600
X014150Y055950
X014150Y055600
X014150Y039950
X014150Y039600
X014150Y023950
X014150Y023600
X014150Y007950
X014150Y007600
X014750Y066550
X014750Y066200
X014750Y065850
X014750Y065500
X014750Y050550
X014750Y050200
X014750Y049850
X014750Y049500
X014750Y034550
X014750Y034200
X014750Y033850
X014750Y033500
X014750Y018550
X014750Y018200
X014750Y017850
X014750Y017500
X014750Y002550
X014750Y002200
X014750Y001850
X014750Y001500
X014950Y067950
X014950Y051950
X014950Y035950
X014950Y019950
X014950Y003950
X015000Y069700
X015000Y053700
X015000Y037700
X015000Y021700
X015000Y005700
X015100Y065850
X015100Y065500
X015100Y049850
X015100Y049500
X015100Y033850
X015100Y033500
X015100Y017850
X015100Y017500
X015100Y001850
X015100Y001500
X015400Y070800
X015400Y070450
X015400Y054800
X015400Y054450
X015400Y038800
X015400Y038450
X015400Y022800
X015400Y022450
X015400Y006800
X015400Y006450
X015450Y068300
X015450Y052300
X015450Y036300
X015450Y020300
X015450Y004300
X015900Y070250
X015900Y054250
X015900Y038250
X015900Y022250
X015900Y006250
X016050Y069650
X016050Y068250
X016050Y053650
X016050Y052250
X016050Y037650
X016050Y036250
X016050Y021650
X016050Y020250
X016050Y005650
X016050Y004250
X016550Y073400
X016550Y057400
X016550Y041400
X016550Y025400
X016550Y009400
X017850Y070350
X017850Y054350
X017850Y038350
X017850Y022350
X017850Y006350
X019000Y069950
X019000Y053950
X019000Y037950
X019000Y021950
X019000Y005950
X019150Y075950
X019150Y073900
X019150Y059950
X019150Y057900
X019150Y043950
X019150Y041900
X019150Y027950
X019150Y025900
X019150Y011950
X019150Y009900
X019350Y066550
X019350Y050550
X019350Y034550
X019350Y018550
X019350Y002550
X019700Y075950
X019700Y074950
X019700Y073900
X019700Y059950
X019700Y058950
X019700Y057900
X019700Y043950
X019700Y042950
X019700Y041900
X019700Y027950
X019700Y026950
X019700Y025900
X019700Y011950
X019700Y010950
X019700Y009900
X020200Y069200
X020200Y068650
X020200Y053200
X020200Y052650
X020200Y037200
X020200Y036650
X020200Y021200
X020200Y020650
X020200Y005200
X020200Y004650
X020300Y069900
X020300Y053900
X020300Y037900
X020300Y021900
X020300Y005900
X020500Y068900
X020500Y052900
X020500Y036900
X020500Y020900
X020500Y004900
X020800Y069200
X020800Y068650
X020800Y053200
X020800Y052650
X020800Y037200
X020800Y036650
X020800Y021200
X020800Y020650
X020800Y005200
X020800Y004650
X020850Y067750
X020850Y066750
X020850Y051750
X020850Y050750
X020850Y035750
X020850Y034750
X020850Y019750
X020850Y018750
X020850Y003750
X020850Y002750
X021050Y070850
X021050Y054850
X021050Y038850
X021050Y022850
X021050Y006850
X021850Y073150
X021850Y069800
X021850Y057150
X021850Y053800
X021850Y041150
X021850Y037800
X021850Y025150
X021850Y021800
X021850Y009150
X021850Y005800
X021950Y075650
X021950Y075200
X021950Y059650
X021950Y059200
X021950Y043650
X021950Y043200
X021950Y027650
X021950Y027200
X021950Y011650
X021950Y011200
X022700Y074900
X022700Y058900
X022700Y042900
X022700Y026900
X022700Y010900
X022800Y071700
X022800Y055700
X022800Y039700
X022800Y023700
X022800Y007700
T52
X007000Y075550
X007000Y073550
X007000Y071550
X007000Y069550
X007000Y059550
X007000Y057550
X007000Y055550
X007000Y053550
X007000Y043550
X007000Y041550
X007000Y039550
X007000Y037550
X007000Y027550
X007000Y025550
X007000Y023550
X007000Y021550
X007000Y011550
X007000Y009550
X007000Y007550
X007000Y005550
X011000Y076250
X011000Y060250
X011000Y044250
X011000Y028250
X011000Y012250
X016000Y076250
X016000Y060250
X016000Y044250
X016000Y028250
X016000Y012250
T51
X008100Y076430
X008100Y074870
X008100Y073310
X008100Y071750
X008100Y070190
X008100Y068630
X008100Y060430
X008100Y058870
X008100Y057310
X008100Y055750
X008100Y054190
X008100Y052630
X008100Y044430
X008100Y042870
X008100Y041310
X008100Y039750
X008100Y038190
X008100Y036630
X008100Y028430
X008100Y026870
X008100Y025310
X008100Y023750
X008100Y022190
X008100Y020630
X008100Y012430
X008100Y010870
X008100Y009310
X008100Y007750
X008100Y006190
X008100Y004630
T53
X013500Y078950
X013500Y073550
X013500Y062950
X013500Y057550
X013500Y046950
X013500Y041550
X013500Y030950
X013500Y025550
X013500Y014950
X013500Y009550
T50
X006700Y078300
X006700Y066700
X006700Y062300
X006700Y050700
X006700Y046300
X006700Y034700
X006700Y030300
X006700Y018700
X006700Y014300
X006700Y002700
X023300Y078300
X023300Y066700
X023300Y062300
X023300Y050700
X023300Y046300
X023300Y034700
X023300Y030300
X023300Y018700
X023300Y014300
X023300Y002700
M30
