G04 start of page 10 for group -4078 idx -4078 *
G04 Title: (unknown), bottomsilk *
G04 Creator: pcb 20140316 *
G04 CreationDate: Thu 21 Jan 2016 04:01:36 PM GMT UTC *
G04 For: ndholmes *
G04 Format: Gerber/RS-274X *
G04 PCB-Dimensions (mil): 1800.00 1500.00 *
G04 PCB-Coordinate-Origin: lower left *
%MOIN*%
%FSLAX25Y25*%
%LNBOTTOMSILK*%
%ADD89C,0.0100*%
G54D89*X500Y500D02*X179500D01*
Y149500D01*
X500D01*
Y500D01*
X55500Y122500D02*Y126500D01*
Y125000D02*X56000Y124500D01*
X57000D01*
X57500Y125000D01*
Y126500D01*
X59200Y122500D02*Y126000D01*
X59700Y126500D01*
X58700Y124000D02*X59700D01*
X61200Y122500D02*Y126000D01*
X61700Y126500D01*
X60700Y124000D02*X61700D01*
X63200Y125000D02*Y128000D01*
X62700Y124500D02*X63200Y125000D01*
X63700Y124500D01*
X64700D01*
X65200Y125000D01*
Y126000D01*
X64700Y126500D02*X65200Y126000D01*
X63700Y126500D02*X64700D01*
X63200Y126000D02*X63700Y126500D01*
X66400Y124000D02*X66900D01*
X66400Y125000D02*X66900D01*
X68100Y126000D02*X71100Y123000D01*
X72300Y126000D02*X75300Y123000D01*
X76500Y124500D02*Y126000D01*
X77000Y126500D01*
X77500D01*
X78000Y126000D01*
Y124500D02*Y126000D01*
X78500Y126500D01*
X79000D01*
X79500Y126000D01*
Y124500D02*Y126000D01*
X80700Y124500D02*Y126000D01*
X81200Y126500D01*
X81700D01*
X82200Y126000D01*
Y124500D02*Y126000D01*
X82700Y126500D01*
X83200D01*
X83700Y126000D01*
Y124500D02*Y126000D01*
X84900Y124500D02*Y126000D01*
X85400Y126500D01*
X85900D01*
X86400Y126000D01*
Y124500D02*Y126000D01*
X86900Y126500D01*
X87400D01*
X87900Y126000D01*
Y124500D02*Y126000D01*
X89100Y126500D02*X89600D01*
X90800Y123500D02*Y123600D01*
Y125000D02*Y126500D01*
X93300Y124500D02*X93800Y125000D01*
X92300Y124500D02*X93300D01*
X91800Y125000D02*X92300Y124500D01*
X91800Y125000D02*Y126000D01*
X92300Y126500D01*
X93800Y124500D02*Y126000D01*
X94300Y126500D01*
X92300D02*X93300D01*
X93800Y126000D01*
X96000Y126500D02*X97500D01*
X98000Y126000D01*
X97500Y125500D02*X98000Y126000D01*
X96000Y125500D02*X97500D01*
X95500Y125000D02*X96000Y125500D01*
X95500Y125000D02*X96000Y124500D01*
X97500D01*
X98000Y125000D01*
X95500Y126000D02*X96000Y126500D01*
X99700Y124500D02*X101200D01*
X99200Y125000D02*X99700Y124500D01*
X99200Y125000D02*Y126000D01*
X99700Y126500D01*
X101200D01*
X103900Y124500D02*X104400Y125000D01*
X102900Y124500D02*X103900D01*
X102400Y125000D02*X102900Y124500D01*
X102400Y125000D02*Y126000D01*
X102900Y126500D01*
X104400Y124500D02*Y126000D01*
X104900Y126500D01*
X102900D02*X103900D01*
X104400Y126000D01*
X106100Y122500D02*Y126000D01*
X106600Y126500D01*
X108100D02*X109600D01*
X107600Y126000D02*X108100Y126500D01*
X107600Y125000D02*Y126000D01*
Y125000D02*X108100Y124500D01*
X109100D01*
X109600Y125000D01*
X107600Y125500D02*X109600D01*
Y125000D02*Y125500D01*
X112800Y122500D02*Y126500D01*
X112300D02*X112800Y126000D01*
X111300Y126500D02*X112300D01*
X110800Y126000D02*X111300Y126500D01*
X110800Y125000D02*Y126000D01*
Y125000D02*X111300Y124500D01*
X112300D01*
X112800Y125000D01*
X114000Y126500D02*X114500D01*
X116200Y124500D02*X117700D01*
X115700Y125000D02*X116200Y124500D01*
X115700Y125000D02*Y126000D01*
X116200Y126500D01*
X117700D01*
X118900Y125000D02*Y126000D01*
Y125000D02*X119400Y124500D01*
X120400D01*
X120900Y125000D01*
Y126000D01*
X120400Y126500D02*X120900Y126000D01*
X119400Y126500D02*X120400D01*
X118900Y126000D02*X119400Y126500D01*
X122600Y125000D02*Y126500D01*
Y125000D02*X123100Y124500D01*
X123600D01*
X124100Y125000D01*
Y126500D01*
Y125000D02*X124600Y124500D01*
X125100D01*
X125600Y125000D01*
Y126500D01*
X122100Y124500D02*X122600Y125000D01*
M02*
