M48
INCH
T59C0.020
T58C0.060
T57C0.039
T56C0.129
T55C0.038
T54C0.068
T53C0.048
%
T59
X004750Y000500
X006100Y001000
X006100Y000500
X006900Y004150
X007250Y007200
X007250Y006650
X007650Y004750
X007800Y001000
X007800Y000500
X009200Y003400
X009250Y000500
X009750Y005750
X010150Y002500
X010300Y005750
X011200Y002550
X011200Y001950
X011250Y008350
X011450Y001350
X011650Y006900
X012050Y008400
X012050Y001300
X012200Y005000
X012600Y002800
X012700Y001950
X012900Y004050
X013850Y005950
X013850Y005150
X014050Y009950
X014050Y009400
X014100Y002150
X014200Y002800
X014750Y004100
X016750Y006800
X016750Y006150
T55
X005350Y007200
X005350Y003200
X006500Y007200
X006500Y003200
T57
X016800Y011000
X016800Y010000
X016800Y009000
T53
X002000Y010550
X002000Y008550
X002000Y006550
X002000Y004550
X006000Y011250
X011000Y011250
T58
X003100Y010670
X003100Y009110
X003100Y007550
X003100Y005990
X003100Y004430
T54
X008500Y013950
X008500Y008550
T56
X001700Y013300
X001700Y001700
X016300Y013300
X016300Y001700
M30
