G04 #@! TF.GenerationSoftware,KiCad,Pcbnew,9.0.8-9.0.8~ubuntu24.04.1*
G04 #@! TF.CreationDate,2026-03-23T13:42:51-06:00*
G04 #@! TF.ProjectId,bd-tester,62642d74-6573-4746-9572-2e6b69636164,rev?*
G04 #@! TF.SameCoordinates,Original*
G04 #@! TF.FileFunction,Paste,Top*
G04 #@! TF.FilePolarity,Positive*
%FSLAX46Y46*%
G04 Gerber Fmt 4.6, Leading zero omitted, Abs format (unit mm)*
G04 Created by KiCad (PCBNEW 9.0.8-9.0.8~ubuntu24.04.1) date 2026-03-23 13:42:51*
%MOMM*%
%LPD*%
G01*
G04 APERTURE LIST*
%ADD10R,0.650000X2.800000*%
%ADD11R,1.300000X0.550000*%
%ADD12R,3.100000X2.400000*%
%ADD13R,0.500000X2.200000*%
%ADD14R,1.400000X1.900000*%
G04 APERTURE END LIST*
G36*
G01*
X130485000Y-102237000D02*
X130485000Y-103341000D01*
G75*
G02*
X130347000Y-103479000I-138000J0D01*
G01*
X128523000Y-103479000D01*
G75*
G02*
X128385000Y-103341000I0J138000D01*
G01*
X128385000Y-102237000D01*
G75*
G02*
X128523000Y-102099000I138000J0D01*
G01*
X130347000Y-102099000D01*
G75*
G02*
X130485000Y-102237000I0J-138000D01*
G01*
G37*
G36*
G01*
X139585000Y-102237000D02*
X139585000Y-103341000D01*
G75*
G02*
X139447000Y-103479000I-138000J0D01*
G01*
X137623000Y-103479000D01*
G75*
G02*
X137485000Y-103341000I0J138000D01*
G01*
X137485000Y-102237000D01*
G75*
G02*
X137623000Y-102099000I138000J0D01*
G01*
X139447000Y-102099000D01*
G75*
G02*
X139585000Y-102237000I0J-138000D01*
G01*
G37*
G36*
G01*
X130485000Y-106717000D02*
X130485000Y-107821000D01*
G75*
G02*
X130347000Y-107959000I-138000J0D01*
G01*
X128523000Y-107959000D01*
G75*
G02*
X128385000Y-107821000I0J138000D01*
G01*
X128385000Y-106717000D01*
G75*
G02*
X128523000Y-106579000I138000J0D01*
G01*
X130347000Y-106579000D01*
G75*
G02*
X130485000Y-106717000I0J-138000D01*
G01*
G37*
G36*
G01*
X139585000Y-106717000D02*
X139585000Y-107821000D01*
G75*
G02*
X139447000Y-107959000I-138000J0D01*
G01*
X137623000Y-107959000D01*
G75*
G02*
X137485000Y-107821000I0J138000D01*
G01*
X137485000Y-106717000D01*
G75*
G02*
X137623000Y-106579000I138000J0D01*
G01*
X139447000Y-106579000D01*
G75*
G02*
X139585000Y-106717000I0J-138000D01*
G01*
G37*
D10*
X36957000Y-67362000D03*
X38227000Y-67362000D03*
X39497000Y-67362000D03*
X40767000Y-67362000D03*
X40767000Y-61162000D03*
X39497000Y-61162000D03*
X38227000Y-61162000D03*
X36957000Y-61162000D03*
D11*
X37465000Y-54435000D03*
G36*
X33515000Y-52010000D02*
G01*
X36115000Y-52010000D01*
X36640000Y-52535000D01*
X38115000Y-52535000D01*
X38115000Y-53335000D01*
X36640000Y-53335000D01*
X36115000Y-53860000D01*
X33515000Y-53860000D01*
X33515000Y-52010000D01*
G37*
X37465000Y-51435000D03*
G36*
G01*
X160550000Y-70634000D02*
X159300000Y-70634000D01*
G75*
G02*
X159150000Y-70484000I0J150000D01*
G01*
X159150000Y-70184000D01*
G75*
G02*
X159300000Y-70034000I150000J0D01*
G01*
X160550000Y-70034000D01*
G75*
G02*
X160700000Y-70184000I0J-150000D01*
G01*
X160700000Y-70484000D01*
G75*
G02*
X160550000Y-70634000I-150000J0D01*
G01*
G37*
G36*
G01*
X160550000Y-69634000D02*
X159300000Y-69634000D01*
G75*
G02*
X159150000Y-69484000I0J150000D01*
G01*
X159150000Y-69184000D01*
G75*
G02*
X159300000Y-69034000I150000J0D01*
G01*
X160550000Y-69034000D01*
G75*
G02*
X160700000Y-69184000I0J-150000D01*
G01*
X160700000Y-69484000D01*
G75*
G02*
X160550000Y-69634000I-150000J0D01*
G01*
G37*
G36*
G01*
X160550000Y-68634000D02*
X159300000Y-68634000D01*
G75*
G02*
X159150000Y-68484000I0J150000D01*
G01*
X159150000Y-68184000D01*
G75*
G02*
X159300000Y-68034000I150000J0D01*
G01*
X160550000Y-68034000D01*
G75*
G02*
X160700000Y-68184000I0J-150000D01*
G01*
X160700000Y-68484000D01*
G75*
G02*
X160550000Y-68634000I-150000J0D01*
G01*
G37*
G36*
G01*
X160550000Y-67634000D02*
X159300000Y-67634000D01*
G75*
G02*
X159150000Y-67484000I0J150000D01*
G01*
X159150000Y-67184000D01*
G75*
G02*
X159300000Y-67034000I150000J0D01*
G01*
X160550000Y-67034000D01*
G75*
G02*
X160700000Y-67184000I0J-150000D01*
G01*
X160700000Y-67484000D01*
G75*
G02*
X160550000Y-67634000I-150000J0D01*
G01*
G37*
G36*
G01*
X164450000Y-72234000D02*
X163150000Y-72234000D01*
G75*
G02*
X162900000Y-71984000I0J250000D01*
G01*
X162900000Y-71284000D01*
G75*
G02*
X163150000Y-71034000I250000J0D01*
G01*
X164450000Y-71034000D01*
G75*
G02*
X164700000Y-71284000I0J-250000D01*
G01*
X164700000Y-71984000D01*
G75*
G02*
X164450000Y-72234000I-250000J0D01*
G01*
G37*
G36*
G01*
X164450000Y-66634000D02*
X163150000Y-66634000D01*
G75*
G02*
X162900000Y-66384000I0J250000D01*
G01*
X162900000Y-65684000D01*
G75*
G02*
X163150000Y-65434000I250000J0D01*
G01*
X164450000Y-65434000D01*
G75*
G02*
X164700000Y-65684000I0J-250000D01*
G01*
X164700000Y-66384000D01*
G75*
G02*
X164450000Y-66634000I-250000J0D01*
G01*
G37*
G36*
G01*
X74805600Y-43415800D02*
X74805600Y-44315800D01*
G75*
G02*
X74555600Y-44565800I-250000J0D01*
G01*
X74030600Y-44565800D01*
G75*
G02*
X73780600Y-44315800I0J250000D01*
G01*
X73780600Y-43415800D01*
G75*
G02*
X74030600Y-43165800I250000J0D01*
G01*
X74555600Y-43165800D01*
G75*
G02*
X74805600Y-43415800I0J-250000D01*
G01*
G37*
G36*
G01*
X72980600Y-43415800D02*
X72980600Y-44315800D01*
G75*
G02*
X72730600Y-44565800I-250000J0D01*
G01*
X72205600Y-44565800D01*
G75*
G02*
X71955600Y-44315800I0J250000D01*
G01*
X71955600Y-43415800D01*
G75*
G02*
X72205600Y-43165800I250000J0D01*
G01*
X72730600Y-43165800D01*
G75*
G02*
X72980600Y-43415800I0J-250000D01*
G01*
G37*
G36*
G01*
X53749000Y-39428000D02*
X53749000Y-40328000D01*
G75*
G02*
X53499000Y-40578000I-250000J0D01*
G01*
X52974000Y-40578000D01*
G75*
G02*
X52724000Y-40328000I0J250000D01*
G01*
X52724000Y-39428000D01*
G75*
G02*
X52974000Y-39178000I250000J0D01*
G01*
X53499000Y-39178000D01*
G75*
G02*
X53749000Y-39428000I0J-250000D01*
G01*
G37*
G36*
G01*
X51924000Y-39428000D02*
X51924000Y-40328000D01*
G75*
G02*
X51674000Y-40578000I-250000J0D01*
G01*
X51149000Y-40578000D01*
G75*
G02*
X50899000Y-40328000I0J250000D01*
G01*
X50899000Y-39428000D01*
G75*
G02*
X51149000Y-39178000I250000J0D01*
G01*
X51674000Y-39178000D01*
G75*
G02*
X51924000Y-39428000I0J-250000D01*
G01*
G37*
G36*
G01*
X38026000Y-56421000D02*
X38026000Y-57371000D01*
G75*
G02*
X37776000Y-57621000I-250000J0D01*
G01*
X37276000Y-57621000D01*
G75*
G02*
X37026000Y-57371000I0J250000D01*
G01*
X37026000Y-56421000D01*
G75*
G02*
X37276000Y-56171000I250000J0D01*
G01*
X37776000Y-56171000D01*
G75*
G02*
X38026000Y-56421000I0J-250000D01*
G01*
G37*
G36*
G01*
X36126000Y-56421000D02*
X36126000Y-57371000D01*
G75*
G02*
X35876000Y-57621000I-250000J0D01*
G01*
X35376000Y-57621000D01*
G75*
G02*
X35126000Y-57371000I0J250000D01*
G01*
X35126000Y-56421000D01*
G75*
G02*
X35376000Y-56171000I250000J0D01*
G01*
X35876000Y-56171000D01*
G75*
G02*
X36126000Y-56421000I0J-250000D01*
G01*
G37*
G36*
G01*
X47953000Y-49070000D02*
X47953000Y-48120000D01*
G75*
G02*
X48203000Y-47870000I250000J0D01*
G01*
X48703000Y-47870000D01*
G75*
G02*
X48953000Y-48120000I0J-250000D01*
G01*
X48953000Y-49070000D01*
G75*
G02*
X48703000Y-49320000I-250000J0D01*
G01*
X48203000Y-49320000D01*
G75*
G02*
X47953000Y-49070000I0J250000D01*
G01*
G37*
G36*
G01*
X49853000Y-49070000D02*
X49853000Y-48120000D01*
G75*
G02*
X50103000Y-47870000I250000J0D01*
G01*
X50603000Y-47870000D01*
G75*
G02*
X50853000Y-48120000I0J-250000D01*
G01*
X50853000Y-49070000D01*
G75*
G02*
X50603000Y-49320000I-250000J0D01*
G01*
X50103000Y-49320000D01*
G75*
G02*
X49853000Y-49070000I0J250000D01*
G01*
G37*
D12*
X46482000Y-53975000D03*
D13*
X44577000Y-56850000D03*
X45847000Y-56850000D03*
X47117000Y-56850000D03*
X48387000Y-56850000D03*
X48387000Y-51100000D03*
X47117000Y-51100000D03*
X45847000Y-51100000D03*
X44577000Y-51100000D03*
G36*
G01*
X59210000Y-61265750D02*
X59210000Y-62178250D01*
G75*
G02*
X58966250Y-62422000I-243750J0D01*
G01*
X58478750Y-62422000D01*
G75*
G02*
X58235000Y-62178250I0J243750D01*
G01*
X58235000Y-61265750D01*
G75*
G02*
X58478750Y-61022000I243750J0D01*
G01*
X58966250Y-61022000D01*
G75*
G02*
X59210000Y-61265750I0J-243750D01*
G01*
G37*
G36*
G01*
X57335000Y-61265750D02*
X57335000Y-62178250D01*
G75*
G02*
X57091250Y-62422000I-243750J0D01*
G01*
X56603750Y-62422000D01*
G75*
G02*
X56360000Y-62178250I0J243750D01*
G01*
X56360000Y-61265750D01*
G75*
G02*
X56603750Y-61022000I243750J0D01*
G01*
X57091250Y-61022000D01*
G75*
G02*
X57335000Y-61265750I0J-243750D01*
G01*
G37*
G36*
G01*
X56360000Y-32841250D02*
X56360000Y-31928750D01*
G75*
G02*
X56603750Y-31685000I243750J0D01*
G01*
X57091250Y-31685000D01*
G75*
G02*
X57335000Y-31928750I0J-243750D01*
G01*
X57335000Y-32841250D01*
G75*
G02*
X57091250Y-33085000I-243750J0D01*
G01*
X56603750Y-33085000D01*
G75*
G02*
X56360000Y-32841250I0J243750D01*
G01*
G37*
G36*
G01*
X58235000Y-32841250D02*
X58235000Y-31928750D01*
G75*
G02*
X58478750Y-31685000I243750J0D01*
G01*
X58966250Y-31685000D01*
G75*
G02*
X59210000Y-31928750I0J-243750D01*
G01*
X59210000Y-32841250D01*
G75*
G02*
X58966250Y-33085000I-243750J0D01*
G01*
X58478750Y-33085000D01*
G75*
G02*
X58235000Y-32841250I0J243750D01*
G01*
G37*
G36*
G01*
X42042000Y-45170000D02*
X42042000Y-46270000D01*
G75*
G02*
X41792000Y-46520000I-250000J0D01*
G01*
X38792000Y-46520000D01*
G75*
G02*
X38542000Y-46270000I0J250000D01*
G01*
X38542000Y-45170000D01*
G75*
G02*
X38792000Y-44920000I250000J0D01*
G01*
X41792000Y-44920000D01*
G75*
G02*
X42042000Y-45170000I0J-250000D01*
G01*
G37*
G36*
G01*
X36642000Y-45170000D02*
X36642000Y-46270000D01*
G75*
G02*
X36392000Y-46520000I-250000J0D01*
G01*
X33392000Y-46520000D01*
G75*
G02*
X33142000Y-46270000I0J250000D01*
G01*
X33142000Y-45170000D01*
G75*
G02*
X33392000Y-44920000I250000J0D01*
G01*
X36392000Y-44920000D01*
G75*
G02*
X36642000Y-45170000I0J-250000D01*
G01*
G37*
D14*
X46227000Y-42799000D03*
X42927000Y-42799000D03*
D12*
X55372000Y-53929000D03*
D13*
X53467000Y-56804000D03*
X54737000Y-56804000D03*
X56007000Y-56804000D03*
X57277000Y-56804000D03*
X57277000Y-51054000D03*
X56007000Y-51054000D03*
X54737000Y-51054000D03*
X53467000Y-51054000D03*
G36*
G01*
X74805600Y-46082800D02*
X74805600Y-46982800D01*
G75*
G02*
X74555600Y-47232800I-250000J0D01*
G01*
X74030600Y-47232800D01*
G75*
G02*
X73780600Y-46982800I0J250000D01*
G01*
X73780600Y-46082800D01*
G75*
G02*
X74030600Y-45832800I250000J0D01*
G01*
X74555600Y-45832800D01*
G75*
G02*
X74805600Y-46082800I0J-250000D01*
G01*
G37*
G36*
G01*
X72980600Y-46082800D02*
X72980600Y-46982800D01*
G75*
G02*
X72730600Y-47232800I-250000J0D01*
G01*
X72205600Y-47232800D01*
G75*
G02*
X71955600Y-46982800I0J250000D01*
G01*
X71955600Y-46082800D01*
G75*
G02*
X72205600Y-45832800I250000J0D01*
G01*
X72730600Y-45832800D01*
G75*
G02*
X72980600Y-46082800I0J-250000D01*
G01*
G37*
G36*
G01*
X38920000Y-72108000D02*
X39820000Y-72108000D01*
G75*
G02*
X40070000Y-72358000I0J-250000D01*
G01*
X40070000Y-72883000D01*
G75*
G02*
X39820000Y-73133000I-250000J0D01*
G01*
X38920000Y-73133000D01*
G75*
G02*
X38670000Y-72883000I0J250000D01*
G01*
X38670000Y-72358000D01*
G75*
G02*
X38920000Y-72108000I250000J0D01*
G01*
G37*
G36*
G01*
X38920000Y-73933000D02*
X39820000Y-73933000D01*
G75*
G02*
X40070000Y-74183000I0J-250000D01*
G01*
X40070000Y-74708000D01*
G75*
G02*
X39820000Y-74958000I-250000J0D01*
G01*
X38920000Y-74958000D01*
G75*
G02*
X38670000Y-74708000I0J250000D01*
G01*
X38670000Y-74183000D01*
G75*
G02*
X38920000Y-73933000I250000J0D01*
G01*
G37*
G36*
G01*
X59210000Y-42215750D02*
X59210000Y-43128250D01*
G75*
G02*
X58966250Y-43372000I-243750J0D01*
G01*
X58478750Y-43372000D01*
G75*
G02*
X58235000Y-43128250I0J243750D01*
G01*
X58235000Y-42215750D01*
G75*
G02*
X58478750Y-41972000I243750J0D01*
G01*
X58966250Y-41972000D01*
G75*
G02*
X59210000Y-42215750I0J-243750D01*
G01*
G37*
G36*
G01*
X57335000Y-42215750D02*
X57335000Y-43128250D01*
G75*
G02*
X57091250Y-43372000I-243750J0D01*
G01*
X56603750Y-43372000D01*
G75*
G02*
X56360000Y-43128250I0J243750D01*
G01*
X56360000Y-42215750D01*
G75*
G02*
X56603750Y-41972000I243750J0D01*
G01*
X57091250Y-41972000D01*
G75*
G02*
X57335000Y-42215750I0J-243750D01*
G01*
G37*
G36*
G01*
X44351000Y-77775750D02*
X44351000Y-78688250D01*
G75*
G02*
X44107250Y-78932000I-243750J0D01*
G01*
X43619750Y-78932000D01*
G75*
G02*
X43376000Y-78688250I0J243750D01*
G01*
X43376000Y-77775750D01*
G75*
G02*
X43619750Y-77532000I243750J0D01*
G01*
X44107250Y-77532000D01*
G75*
G02*
X44351000Y-77775750I0J-243750D01*
G01*
G37*
G36*
G01*
X42476000Y-77775750D02*
X42476000Y-78688250D01*
G75*
G02*
X42232250Y-78932000I-243750J0D01*
G01*
X41744750Y-78932000D01*
G75*
G02*
X41501000Y-78688250I0J243750D01*
G01*
X41501000Y-77775750D01*
G75*
G02*
X41744750Y-77532000I243750J0D01*
G01*
X42232250Y-77532000D01*
G75*
G02*
X42476000Y-77775750I0J-243750D01*
G01*
G37*
G36*
G01*
X55273000Y-61272000D02*
X55273000Y-62172000D01*
G75*
G02*
X55023000Y-62422000I-250000J0D01*
G01*
X54498000Y-62422000D01*
G75*
G02*
X54248000Y-62172000I0J250000D01*
G01*
X54248000Y-61272000D01*
G75*
G02*
X54498000Y-61022000I250000J0D01*
G01*
X55023000Y-61022000D01*
G75*
G02*
X55273000Y-61272000I0J-250000D01*
G01*
G37*
G36*
G01*
X53448000Y-61272000D02*
X53448000Y-62172000D01*
G75*
G02*
X53198000Y-62422000I-250000J0D01*
G01*
X52673000Y-62422000D01*
G75*
G02*
X52423000Y-62172000I0J250000D01*
G01*
X52423000Y-61272000D01*
G75*
G02*
X52673000Y-61022000I250000J0D01*
G01*
X53198000Y-61022000D01*
G75*
G02*
X53448000Y-61272000I0J-250000D01*
G01*
G37*
G36*
G01*
X53749000Y-31935000D02*
X53749000Y-32835000D01*
G75*
G02*
X53499000Y-33085000I-250000J0D01*
G01*
X52974000Y-33085000D01*
G75*
G02*
X52724000Y-32835000I0J250000D01*
G01*
X52724000Y-31935000D01*
G75*
G02*
X52974000Y-31685000I250000J0D01*
G01*
X53499000Y-31685000D01*
G75*
G02*
X53749000Y-31935000I0J-250000D01*
G01*
G37*
G36*
G01*
X51924000Y-31935000D02*
X51924000Y-32835000D01*
G75*
G02*
X51674000Y-33085000I-250000J0D01*
G01*
X51149000Y-33085000D01*
G75*
G02*
X50899000Y-32835000I0J250000D01*
G01*
X50899000Y-31935000D01*
G75*
G02*
X51149000Y-31685000I250000J0D01*
G01*
X51674000Y-31685000D01*
G75*
G02*
X51924000Y-31935000I0J-250000D01*
G01*
G37*
G36*
G01*
X59210000Y-34722750D02*
X59210000Y-35635250D01*
G75*
G02*
X58966250Y-35879000I-243750J0D01*
G01*
X58478750Y-35879000D01*
G75*
G02*
X58235000Y-35635250I0J243750D01*
G01*
X58235000Y-34722750D01*
G75*
G02*
X58478750Y-34479000I243750J0D01*
G01*
X58966250Y-34479000D01*
G75*
G02*
X59210000Y-34722750I0J-243750D01*
G01*
G37*
G36*
G01*
X57335000Y-34722750D02*
X57335000Y-35635250D01*
G75*
G02*
X57091250Y-35879000I-243750J0D01*
G01*
X56603750Y-35879000D01*
G75*
G02*
X56360000Y-35635250I0J243750D01*
G01*
X56360000Y-34722750D01*
G75*
G02*
X56603750Y-34479000I243750J0D01*
G01*
X57091250Y-34479000D01*
G75*
G02*
X57335000Y-34722750I0J-243750D01*
G01*
G37*
G36*
G01*
X56360000Y-40321250D02*
X56360000Y-39408750D01*
G75*
G02*
X56603750Y-39165000I243750J0D01*
G01*
X57091250Y-39165000D01*
G75*
G02*
X57335000Y-39408750I0J-243750D01*
G01*
X57335000Y-40321250D01*
G75*
G02*
X57091250Y-40565000I-243750J0D01*
G01*
X56603750Y-40565000D01*
G75*
G02*
X56360000Y-40321250I0J243750D01*
G01*
G37*
G36*
G01*
X58235000Y-40321250D02*
X58235000Y-39408750D01*
G75*
G02*
X58478750Y-39165000I243750J0D01*
G01*
X58966250Y-39165000D01*
G75*
G02*
X59210000Y-39408750I0J-243750D01*
G01*
X59210000Y-40321250D01*
G75*
G02*
X58966250Y-40565000I-243750J0D01*
G01*
X58478750Y-40565000D01*
G75*
G02*
X58235000Y-40321250I0J243750D01*
G01*
G37*
G36*
G01*
X44351000Y-82855750D02*
X44351000Y-83768250D01*
G75*
G02*
X44107250Y-84012000I-243750J0D01*
G01*
X43619750Y-84012000D01*
G75*
G02*
X43376000Y-83768250I0J243750D01*
G01*
X43376000Y-82855750D01*
G75*
G02*
X43619750Y-82612000I243750J0D01*
G01*
X44107250Y-82612000D01*
G75*
G02*
X44351000Y-82855750I0J-243750D01*
G01*
G37*
G36*
G01*
X42476000Y-82855750D02*
X42476000Y-83768250D01*
G75*
G02*
X42232250Y-84012000I-243750J0D01*
G01*
X41744750Y-84012000D01*
G75*
G02*
X41501000Y-83768250I0J243750D01*
G01*
X41501000Y-82855750D01*
G75*
G02*
X41744750Y-82612000I243750J0D01*
G01*
X42232250Y-82612000D01*
G75*
G02*
X42476000Y-82855750I0J-243750D01*
G01*
G37*
G36*
G01*
X56843000Y-49070000D02*
X56843000Y-48120000D01*
G75*
G02*
X57093000Y-47870000I250000J0D01*
G01*
X57593000Y-47870000D01*
G75*
G02*
X57843000Y-48120000I0J-250000D01*
G01*
X57843000Y-49070000D01*
G75*
G02*
X57593000Y-49320000I-250000J0D01*
G01*
X57093000Y-49320000D01*
G75*
G02*
X56843000Y-49070000I0J250000D01*
G01*
G37*
G36*
G01*
X58743000Y-49070000D02*
X58743000Y-48120000D01*
G75*
G02*
X58993000Y-47870000I250000J0D01*
G01*
X59493000Y-47870000D01*
G75*
G02*
X59743000Y-48120000I0J-250000D01*
G01*
X59743000Y-49070000D01*
G75*
G02*
X59493000Y-49320000I-250000J0D01*
G01*
X58993000Y-49320000D01*
G75*
G02*
X58743000Y-49070000I0J250000D01*
G01*
G37*
G36*
G01*
X41587000Y-72108000D02*
X42487000Y-72108000D01*
G75*
G02*
X42737000Y-72358000I0J-250000D01*
G01*
X42737000Y-72883000D01*
G75*
G02*
X42487000Y-73133000I-250000J0D01*
G01*
X41587000Y-73133000D01*
G75*
G02*
X41337000Y-72883000I0J250000D01*
G01*
X41337000Y-72358000D01*
G75*
G02*
X41587000Y-72108000I250000J0D01*
G01*
G37*
G36*
G01*
X41587000Y-73933000D02*
X42487000Y-73933000D01*
G75*
G02*
X42737000Y-74183000I0J-250000D01*
G01*
X42737000Y-74708000D01*
G75*
G02*
X42487000Y-74958000I-250000J0D01*
G01*
X41587000Y-74958000D01*
G75*
G02*
X41337000Y-74708000I0J250000D01*
G01*
X41337000Y-74183000D01*
G75*
G02*
X41587000Y-73933000I250000J0D01*
G01*
G37*
M02*
