G04 #@! TF.GenerationSoftware,KiCad,Pcbnew,9.0.8-9.0.8~ubuntu24.04.1*
G04 #@! TF.CreationDate,2026-03-23T13:42:51-06:00*
G04 #@! TF.ProjectId,bd-tester,62642d74-6573-4746-9572-2e6b69636164,rev?*
G04 #@! TF.SameCoordinates,Original*
G04 #@! TF.FileFunction,Soldermask,Top*
G04 #@! TF.FilePolarity,Negative*
%FSLAX46Y46*%
G04 Gerber Fmt 4.6, Leading zero omitted, Abs format (unit mm)*
G04 Created by KiCad (PCBNEW 9.0.8-9.0.8~ubuntu24.04.1) date 2026-03-23 13:42:51*
%MOMM*%
%LPD*%
G01*
G04 APERTURE LIST*
%ADD10C,2.652400*%
%ADD11C,3.152400*%
%ADD12C,5.552400*%
%ADD13C,6.552400*%
%ADD14R,3.100000X2.400000*%
%ADD15C,0.770000*%
%ADD16O,5.204000X2.704000*%
%ADD17O,4.704000X2.454000*%
%ADD18O,2.454000X4.704000*%
%ADD19C,1.143000*%
%ADD20C,0.939800*%
G04 APERTURE END LIST*
G36*
G01*
X158420095Y-55428200D02*
X155920095Y-55428200D01*
G75*
G02*
X155843895Y-55352000I0J76200D01*
G01*
X155843895Y-52852000D01*
G75*
G02*
X155920095Y-52775800I76200J0D01*
G01*
X158420095Y-52775800D01*
G75*
G02*
X158496295Y-52852000I0J-76200D01*
G01*
X158496295Y-55352000D01*
G75*
G02*
X158420095Y-55428200I-76200J0D01*
G01*
G37*
D10*
X157170095Y-50142000D03*
X157170095Y-46182001D03*
X157170095Y-42222001D03*
X157170095Y-38262001D03*
D11*
X82042000Y-80772000D03*
G36*
G01*
X130587000Y-102155400D02*
X130587000Y-103422600D01*
G75*
G02*
X130428600Y-103581000I-158400J0D01*
G01*
X128441400Y-103581000D01*
G75*
G02*
X128283000Y-103422600I0J158400D01*
G01*
X128283000Y-102155400D01*
G75*
G02*
X128441400Y-101997000I158400J0D01*
G01*
X130428600Y-101997000D01*
G75*
G02*
X130587000Y-102155400I0J-158400D01*
G01*
G37*
G36*
G01*
X139687000Y-102155400D02*
X139687000Y-103422600D01*
G75*
G02*
X139528600Y-103581000I-158400J0D01*
G01*
X137541400Y-103581000D01*
G75*
G02*
X137383000Y-103422600I0J158400D01*
G01*
X137383000Y-102155400D01*
G75*
G02*
X137541400Y-101997000I158400J0D01*
G01*
X139528600Y-101997000D01*
G75*
G02*
X139687000Y-102155400I0J-158400D01*
G01*
G37*
G36*
G01*
X130587000Y-106635400D02*
X130587000Y-107902600D01*
G75*
G02*
X130428600Y-108061000I-158400J0D01*
G01*
X128441400Y-108061000D01*
G75*
G02*
X128283000Y-107902600I0J158400D01*
G01*
X128283000Y-106635400D01*
G75*
G02*
X128441400Y-106477000I158400J0D01*
G01*
X130428600Y-106477000D01*
G75*
G02*
X130587000Y-106635400I0J-158400D01*
G01*
G37*
G36*
G01*
X139687000Y-106635400D02*
X139687000Y-107902600D01*
G75*
G02*
X139528600Y-108061000I-158400J0D01*
G01*
X137541400Y-108061000D01*
G75*
G02*
X137383000Y-107902600I0J158400D01*
G01*
X137383000Y-106635400D01*
G75*
G02*
X137541400Y-106477000I158400J0D01*
G01*
X139528600Y-106477000D01*
G75*
G02*
X139687000Y-106635400I0J-158400D01*
G01*
G37*
G36*
G01*
X37282000Y-68838200D02*
X36632000Y-68838200D01*
G75*
G02*
X36555800Y-68762000I0J76200D01*
G01*
X36555800Y-65962000D01*
G75*
G02*
X36632000Y-65885800I76200J0D01*
G01*
X37282000Y-65885800D01*
G75*
G02*
X37358200Y-65962000I0J-76200D01*
G01*
X37358200Y-68762000D01*
G75*
G02*
X37282000Y-68838200I-76200J0D01*
G01*
G37*
G36*
G01*
X38552000Y-68838200D02*
X37902000Y-68838200D01*
G75*
G02*
X37825800Y-68762000I0J76200D01*
G01*
X37825800Y-65962000D01*
G75*
G02*
X37902000Y-65885800I76200J0D01*
G01*
X38552000Y-65885800D01*
G75*
G02*
X38628200Y-65962000I0J-76200D01*
G01*
X38628200Y-68762000D01*
G75*
G02*
X38552000Y-68838200I-76200J0D01*
G01*
G37*
G36*
G01*
X39822000Y-68838200D02*
X39172000Y-68838200D01*
G75*
G02*
X39095800Y-68762000I0J76200D01*
G01*
X39095800Y-65962000D01*
G75*
G02*
X39172000Y-65885800I76200J0D01*
G01*
X39822000Y-65885800D01*
G75*
G02*
X39898200Y-65962000I0J-76200D01*
G01*
X39898200Y-68762000D01*
G75*
G02*
X39822000Y-68838200I-76200J0D01*
G01*
G37*
G36*
G01*
X41092000Y-68838200D02*
X40442000Y-68838200D01*
G75*
G02*
X40365800Y-68762000I0J76200D01*
G01*
X40365800Y-65962000D01*
G75*
G02*
X40442000Y-65885800I76200J0D01*
G01*
X41092000Y-65885800D01*
G75*
G02*
X41168200Y-65962000I0J-76200D01*
G01*
X41168200Y-68762000D01*
G75*
G02*
X41092000Y-68838200I-76200J0D01*
G01*
G37*
G36*
G01*
X41092000Y-62638200D02*
X40442000Y-62638200D01*
G75*
G02*
X40365800Y-62562000I0J76200D01*
G01*
X40365800Y-59762000D01*
G75*
G02*
X40442000Y-59685800I76200J0D01*
G01*
X41092000Y-59685800D01*
G75*
G02*
X41168200Y-59762000I0J-76200D01*
G01*
X41168200Y-62562000D01*
G75*
G02*
X41092000Y-62638200I-76200J0D01*
G01*
G37*
G36*
G01*
X39822000Y-62638200D02*
X39172000Y-62638200D01*
G75*
G02*
X39095800Y-62562000I0J76200D01*
G01*
X39095800Y-59762000D01*
G75*
G02*
X39172000Y-59685800I76200J0D01*
G01*
X39822000Y-59685800D01*
G75*
G02*
X39898200Y-59762000I0J-76200D01*
G01*
X39898200Y-62562000D01*
G75*
G02*
X39822000Y-62638200I-76200J0D01*
G01*
G37*
G36*
G01*
X38552000Y-62638200D02*
X37902000Y-62638200D01*
G75*
G02*
X37825800Y-62562000I0J76200D01*
G01*
X37825800Y-59762000D01*
G75*
G02*
X37902000Y-59685800I76200J0D01*
G01*
X38552000Y-59685800D01*
G75*
G02*
X38628200Y-59762000I0J-76200D01*
G01*
X38628200Y-62562000D01*
G75*
G02*
X38552000Y-62638200I-76200J0D01*
G01*
G37*
G36*
G01*
X37282000Y-62638200D02*
X36632000Y-62638200D01*
G75*
G02*
X36555800Y-62562000I0J76200D01*
G01*
X36555800Y-59762000D01*
G75*
G02*
X36632000Y-59685800I76200J0D01*
G01*
X37282000Y-59685800D01*
G75*
G02*
X37358200Y-59762000I0J-76200D01*
G01*
X37358200Y-62562000D01*
G75*
G02*
X37282000Y-62638200I-76200J0D01*
G01*
G37*
G36*
G01*
X38191200Y-54160000D02*
X38191200Y-54710000D01*
G75*
G02*
X38115000Y-54786200I-76200J0D01*
G01*
X36815000Y-54786200D01*
G75*
G02*
X36738800Y-54710000I0J76200D01*
G01*
X36738800Y-54160000D01*
G75*
G02*
X36815000Y-54083800I76200J0D01*
G01*
X38115000Y-54083800D01*
G75*
G02*
X38191200Y-54160000I0J-76200D01*
G01*
G37*
G36*
X33466020Y-53918373D02*
G01*
X33439958Y-53873232D01*
X33438800Y-53860000D01*
X33438800Y-52010000D01*
X33456627Y-51961020D01*
X33501768Y-51934958D01*
X33515000Y-51933800D01*
X36115000Y-51933800D01*
X36163980Y-51951627D01*
X36168882Y-51956118D01*
X36671564Y-52458800D01*
X38115000Y-52458800D01*
X38163980Y-52476627D01*
X38190042Y-52521768D01*
X38191200Y-52535000D01*
X38191200Y-53335000D01*
X38173373Y-53383980D01*
X38128232Y-53410042D01*
X38115000Y-53411200D01*
X36671564Y-53411200D01*
X36168882Y-53913882D01*
X36121641Y-53935910D01*
X36115000Y-53936200D01*
X33515000Y-53936200D01*
X33466020Y-53918373D01*
G37*
G36*
G01*
X38191200Y-51160000D02*
X38191200Y-51710000D01*
G75*
G02*
X38115000Y-51786200I-76200J0D01*
G01*
X36815000Y-51786200D01*
G75*
G02*
X36738800Y-51710000I0J76200D01*
G01*
X36738800Y-51160000D01*
G75*
G02*
X36815000Y-51083800I76200J0D01*
G01*
X38115000Y-51083800D01*
G75*
G02*
X38191200Y-51160000I0J-76200D01*
G01*
G37*
D12*
X116586000Y-106045000D03*
G36*
G01*
X160588100Y-70710200D02*
X159261900Y-70710200D01*
G75*
G02*
X159073800Y-70522100I0J188100D01*
G01*
X159073800Y-70145900D01*
G75*
G02*
X159261900Y-69957800I188100J0D01*
G01*
X160588100Y-69957800D01*
G75*
G02*
X160776200Y-70145900I0J-188100D01*
G01*
X160776200Y-70522100D01*
G75*
G02*
X160588100Y-70710200I-188100J0D01*
G01*
G37*
G36*
G01*
X160588100Y-69710200D02*
X159261900Y-69710200D01*
G75*
G02*
X159073800Y-69522100I0J188100D01*
G01*
X159073800Y-69145900D01*
G75*
G02*
X159261900Y-68957800I188100J0D01*
G01*
X160588100Y-68957800D01*
G75*
G02*
X160776200Y-69145900I0J-188100D01*
G01*
X160776200Y-69522100D01*
G75*
G02*
X160588100Y-69710200I-188100J0D01*
G01*
G37*
G36*
G01*
X160588100Y-68710200D02*
X159261900Y-68710200D01*
G75*
G02*
X159073800Y-68522100I0J188100D01*
G01*
X159073800Y-68145900D01*
G75*
G02*
X159261900Y-67957800I188100J0D01*
G01*
X160588100Y-67957800D01*
G75*
G02*
X160776200Y-68145900I0J-188100D01*
G01*
X160776200Y-68522100D01*
G75*
G02*
X160588100Y-68710200I-188100J0D01*
G01*
G37*
G36*
G01*
X160588100Y-67710200D02*
X159261900Y-67710200D01*
G75*
G02*
X159073800Y-67522100I0J188100D01*
G01*
X159073800Y-67145900D01*
G75*
G02*
X159261900Y-66957800I188100J0D01*
G01*
X160588100Y-66957800D01*
G75*
G02*
X160776200Y-67145900I0J-188100D01*
G01*
X160776200Y-67522100D01*
G75*
G02*
X160588100Y-67710200I-188100J0D01*
G01*
G37*
G36*
G01*
X164494450Y-72310200D02*
X163105550Y-72310200D01*
G75*
G02*
X162823800Y-72028450I0J281750D01*
G01*
X162823800Y-71239550D01*
G75*
G02*
X163105550Y-70957800I281750J0D01*
G01*
X164494450Y-70957800D01*
G75*
G02*
X164776200Y-71239550I0J-281750D01*
G01*
X164776200Y-72028450D01*
G75*
G02*
X164494450Y-72310200I-281750J0D01*
G01*
G37*
G36*
G01*
X164494450Y-66710200D02*
X163105550Y-66710200D01*
G75*
G02*
X162823800Y-66428450I0J281750D01*
G01*
X162823800Y-65639550D01*
G75*
G02*
X163105550Y-65357800I281750J0D01*
G01*
X164494450Y-65357800D01*
G75*
G02*
X164776200Y-65639550I0J-281750D01*
G01*
X164776200Y-66428450D01*
G75*
G02*
X164494450Y-66710200I-281750J0D01*
G01*
G37*
D13*
X73914000Y-102108000D03*
D11*
X90297000Y-80772000D03*
X138938000Y-37846000D03*
D13*
X145669000Y-37084000D03*
G36*
G01*
X74881800Y-43376770D02*
X74881800Y-44354830D01*
G75*
G02*
X74594630Y-44642000I-287170J0D01*
G01*
X73991570Y-44642000D01*
G75*
G02*
X73704400Y-44354830I0J287170D01*
G01*
X73704400Y-43376770D01*
G75*
G02*
X73991570Y-43089600I287170J0D01*
G01*
X74594630Y-43089600D01*
G75*
G02*
X74881800Y-43376770I0J-287170D01*
G01*
G37*
G36*
G01*
X73056800Y-43376770D02*
X73056800Y-44354830D01*
G75*
G02*
X72769630Y-44642000I-287170J0D01*
G01*
X72166570Y-44642000D01*
G75*
G02*
X71879400Y-44354830I0J287170D01*
G01*
X71879400Y-43376770D01*
G75*
G02*
X72166570Y-43089600I287170J0D01*
G01*
X72769630Y-43089600D01*
G75*
G02*
X73056800Y-43376770I0J-287170D01*
G01*
G37*
X103378000Y-102108000D03*
X29718000Y-29718000D03*
X29718000Y-109982000D03*
G36*
G01*
X53825200Y-39388970D02*
X53825200Y-40367030D01*
G75*
G02*
X53538030Y-40654200I-287170J0D01*
G01*
X52934970Y-40654200D01*
G75*
G02*
X52647800Y-40367030I0J287170D01*
G01*
X52647800Y-39388970D01*
G75*
G02*
X52934970Y-39101800I287170J0D01*
G01*
X53538030Y-39101800D01*
G75*
G02*
X53825200Y-39388970I0J-287170D01*
G01*
G37*
G36*
G01*
X52000200Y-39388970D02*
X52000200Y-40367030D01*
G75*
G02*
X51713030Y-40654200I-287170J0D01*
G01*
X51109970Y-40654200D01*
G75*
G02*
X50822800Y-40367030I0J287170D01*
G01*
X50822800Y-39388970D01*
G75*
G02*
X51109970Y-39101800I287170J0D01*
G01*
X51713030Y-39101800D01*
G75*
G02*
X52000200Y-39388970I0J-287170D01*
G01*
G37*
D11*
X133858000Y-37846000D03*
G36*
G01*
X38102200Y-56382900D02*
X38102200Y-57409100D01*
G75*
G02*
X37814100Y-57697200I-288100J0D01*
G01*
X37237900Y-57697200D01*
G75*
G02*
X36949800Y-57409100I0J288100D01*
G01*
X36949800Y-56382900D01*
G75*
G02*
X37237900Y-56094800I288100J0D01*
G01*
X37814100Y-56094800D01*
G75*
G02*
X38102200Y-56382900I0J-288100D01*
G01*
G37*
G36*
G01*
X36202200Y-56382900D02*
X36202200Y-57409100D01*
G75*
G02*
X35914100Y-57697200I-288100J0D01*
G01*
X35337900Y-57697200D01*
G75*
G02*
X35049800Y-57409100I0J288100D01*
G01*
X35049800Y-56382900D01*
G75*
G02*
X35337900Y-56094800I288100J0D01*
G01*
X35914100Y-56094800D01*
G75*
G02*
X36202200Y-56382900I0J-288100D01*
G01*
G37*
G36*
G01*
X47876800Y-49108100D02*
X47876800Y-48081900D01*
G75*
G02*
X48164900Y-47793800I288100J0D01*
G01*
X48741100Y-47793800D01*
G75*
G02*
X49029200Y-48081900I0J-288100D01*
G01*
X49029200Y-49108100D01*
G75*
G02*
X48741100Y-49396200I-288100J0D01*
G01*
X48164900Y-49396200D01*
G75*
G02*
X47876800Y-49108100I0J288100D01*
G01*
G37*
G36*
G01*
X49776800Y-49108100D02*
X49776800Y-48081900D01*
G75*
G02*
X50064900Y-47793800I288100J0D01*
G01*
X50641100Y-47793800D01*
G75*
G02*
X50929200Y-48081900I0J-288100D01*
G01*
X50929200Y-49108100D01*
G75*
G02*
X50641100Y-49396200I-288100J0D01*
G01*
X50064900Y-49396200D01*
G75*
G02*
X49776800Y-49108100I0J288100D01*
G01*
G37*
D14*
X46482000Y-53975000D03*
G36*
G01*
X44827000Y-58020000D02*
X44327000Y-58020000D01*
G75*
G02*
X44257000Y-57950000I0J70000D01*
G01*
X44257000Y-55750000D01*
G75*
G02*
X44327000Y-55680000I70000J0D01*
G01*
X44827000Y-55680000D01*
G75*
G02*
X44897000Y-55750000I0J-70000D01*
G01*
X44897000Y-57950000D01*
G75*
G02*
X44827000Y-58020000I-70000J0D01*
G01*
G37*
G36*
G01*
X46097000Y-58020000D02*
X45597000Y-58020000D01*
G75*
G02*
X45527000Y-57950000I0J70000D01*
G01*
X45527000Y-55750000D01*
G75*
G02*
X45597000Y-55680000I70000J0D01*
G01*
X46097000Y-55680000D01*
G75*
G02*
X46167000Y-55750000I0J-70000D01*
G01*
X46167000Y-57950000D01*
G75*
G02*
X46097000Y-58020000I-70000J0D01*
G01*
G37*
G36*
G01*
X47367000Y-58020000D02*
X46867000Y-58020000D01*
G75*
G02*
X46797000Y-57950000I0J70000D01*
G01*
X46797000Y-55750000D01*
G75*
G02*
X46867000Y-55680000I70000J0D01*
G01*
X47367000Y-55680000D01*
G75*
G02*
X47437000Y-55750000I0J-70000D01*
G01*
X47437000Y-57950000D01*
G75*
G02*
X47367000Y-58020000I-70000J0D01*
G01*
G37*
G36*
G01*
X48637000Y-58020000D02*
X48137000Y-58020000D01*
G75*
G02*
X48067000Y-57950000I0J70000D01*
G01*
X48067000Y-55750000D01*
G75*
G02*
X48137000Y-55680000I70000J0D01*
G01*
X48637000Y-55680000D01*
G75*
G02*
X48707000Y-55750000I0J-70000D01*
G01*
X48707000Y-57950000D01*
G75*
G02*
X48637000Y-58020000I-70000J0D01*
G01*
G37*
G36*
G01*
X48637000Y-52270000D02*
X48137000Y-52270000D01*
G75*
G02*
X48067000Y-52200000I0J70000D01*
G01*
X48067000Y-50000000D01*
G75*
G02*
X48137000Y-49930000I70000J0D01*
G01*
X48637000Y-49930000D01*
G75*
G02*
X48707000Y-50000000I0J-70000D01*
G01*
X48707000Y-52200000D01*
G75*
G02*
X48637000Y-52270000I-70000J0D01*
G01*
G37*
G36*
G01*
X47367000Y-52270000D02*
X46867000Y-52270000D01*
G75*
G02*
X46797000Y-52200000I0J70000D01*
G01*
X46797000Y-50000000D01*
G75*
G02*
X46867000Y-49930000I70000J0D01*
G01*
X47367000Y-49930000D01*
G75*
G02*
X47437000Y-50000000I0J-70000D01*
G01*
X47437000Y-52200000D01*
G75*
G02*
X47367000Y-52270000I-70000J0D01*
G01*
G37*
G36*
G01*
X46097000Y-52270000D02*
X45597000Y-52270000D01*
G75*
G02*
X45527000Y-52200000I0J70000D01*
G01*
X45527000Y-50000000D01*
G75*
G02*
X45597000Y-49930000I70000J0D01*
G01*
X46097000Y-49930000D01*
G75*
G02*
X46167000Y-50000000I0J-70000D01*
G01*
X46167000Y-52200000D01*
G75*
G02*
X46097000Y-52270000I-70000J0D01*
G01*
G37*
G36*
G01*
X44827000Y-52270000D02*
X44327000Y-52270000D01*
G75*
G02*
X44257000Y-52200000I0J70000D01*
G01*
X44257000Y-50000000D01*
G75*
G02*
X44327000Y-49930000I70000J0D01*
G01*
X44827000Y-49930000D01*
G75*
G02*
X44897000Y-50000000I0J-70000D01*
G01*
X44897000Y-52200000D01*
G75*
G02*
X44827000Y-52270000I-70000J0D01*
G01*
G37*
D15*
X45182000Y-54625000D03*
X46482000Y-54625000D03*
X47782000Y-54625000D03*
X45182000Y-53325000D03*
X46482000Y-53325000D03*
X47782000Y-53325000D03*
G36*
G01*
X59286200Y-61227650D02*
X59286200Y-62216350D01*
G75*
G02*
X59004350Y-62498200I-281850J0D01*
G01*
X58440650Y-62498200D01*
G75*
G02*
X58158800Y-62216350I0J281850D01*
G01*
X58158800Y-61227650D01*
G75*
G02*
X58440650Y-60945800I281850J0D01*
G01*
X59004350Y-60945800D01*
G75*
G02*
X59286200Y-61227650I0J-281850D01*
G01*
G37*
G36*
G01*
X57411200Y-61227650D02*
X57411200Y-62216350D01*
G75*
G02*
X57129350Y-62498200I-281850J0D01*
G01*
X56565650Y-62498200D01*
G75*
G02*
X56283800Y-62216350I0J281850D01*
G01*
X56283800Y-61227650D01*
G75*
G02*
X56565650Y-60945800I281850J0D01*
G01*
X57129350Y-60945800D01*
G75*
G02*
X57411200Y-61227650I0J-281850D01*
G01*
G37*
D13*
X160782000Y-109982000D03*
G36*
G01*
X56283800Y-32879350D02*
X56283800Y-31890650D01*
G75*
G02*
X56565650Y-31608800I281850J0D01*
G01*
X57129350Y-31608800D01*
G75*
G02*
X57411200Y-31890650I0J-281850D01*
G01*
X57411200Y-32879350D01*
G75*
G02*
X57129350Y-33161200I-281850J0D01*
G01*
X56565650Y-33161200D01*
G75*
G02*
X56283800Y-32879350I0J281850D01*
G01*
G37*
G36*
G01*
X58158800Y-32879350D02*
X58158800Y-31890650D01*
G75*
G02*
X58440650Y-31608800I281850J0D01*
G01*
X59004350Y-31608800D01*
G75*
G02*
X59286200Y-31890650I0J-281850D01*
G01*
X59286200Y-32879350D01*
G75*
G02*
X59004350Y-33161200I-281850J0D01*
G01*
X58440650Y-33161200D01*
G75*
G02*
X58158800Y-32879350I0J281850D01*
G01*
G37*
G36*
G01*
X42118200Y-45117613D02*
X42118200Y-46322387D01*
G75*
G02*
X41844387Y-46596200I-273813J0D01*
G01*
X38739613Y-46596200D01*
G75*
G02*
X38465800Y-46322387I0J273813D01*
G01*
X38465800Y-45117613D01*
G75*
G02*
X38739613Y-44843800I273813J0D01*
G01*
X41844387Y-44843800D01*
G75*
G02*
X42118200Y-45117613I0J-273813D01*
G01*
G37*
G36*
G01*
X36718200Y-45117613D02*
X36718200Y-46322387D01*
G75*
G02*
X36444387Y-46596200I-273813J0D01*
G01*
X33339613Y-46596200D01*
G75*
G02*
X33065800Y-46322387I0J273813D01*
G01*
X33065800Y-45117613D01*
G75*
G02*
X33339613Y-44843800I273813J0D01*
G01*
X36444387Y-44843800D01*
G75*
G02*
X36718200Y-45117613I0J-273813D01*
G01*
G37*
G36*
G01*
X47003200Y-41849000D02*
X47003200Y-43749000D01*
G75*
G02*
X46927000Y-43825200I-76200J0D01*
G01*
X45527000Y-43825200D01*
G75*
G02*
X45450800Y-43749000I0J76200D01*
G01*
X45450800Y-41849000D01*
G75*
G02*
X45527000Y-41772800I76200J0D01*
G01*
X46927000Y-41772800D01*
G75*
G02*
X47003200Y-41849000I0J-76200D01*
G01*
G37*
G36*
G01*
X43703200Y-41849000D02*
X43703200Y-43749000D01*
G75*
G02*
X43627000Y-43825200I-76200J0D01*
G01*
X42227000Y-43825200D01*
G75*
G02*
X42150800Y-43749000I0J76200D01*
G01*
X42150800Y-41849000D01*
G75*
G02*
X42227000Y-41772800I76200J0D01*
G01*
X43627000Y-41772800D01*
G75*
G02*
X43703200Y-41849000I0J-76200D01*
G01*
G37*
G36*
G01*
X161035050Y-83780600D02*
X158535050Y-83780600D01*
G75*
G02*
X158458850Y-83704400I0J76200D01*
G01*
X158458850Y-81204400D01*
G75*
G02*
X158535050Y-81128200I76200J0D01*
G01*
X161035050Y-81128200D01*
G75*
G02*
X161111250Y-81204400I0J-76200D01*
G01*
X161111250Y-83704400D01*
G75*
G02*
X161035050Y-83780600I-76200J0D01*
G01*
G37*
D10*
X159785050Y-86414400D03*
X159785050Y-90374399D03*
X159785050Y-94334399D03*
X159785050Y-98294399D03*
X159785050Y-102254398D03*
D14*
X55372000Y-53929000D03*
G36*
G01*
X53717000Y-57974000D02*
X53217000Y-57974000D01*
G75*
G02*
X53147000Y-57904000I0J70000D01*
G01*
X53147000Y-55704000D01*
G75*
G02*
X53217000Y-55634000I70000J0D01*
G01*
X53717000Y-55634000D01*
G75*
G02*
X53787000Y-55704000I0J-70000D01*
G01*
X53787000Y-57904000D01*
G75*
G02*
X53717000Y-57974000I-70000J0D01*
G01*
G37*
G36*
G01*
X54987000Y-57974000D02*
X54487000Y-57974000D01*
G75*
G02*
X54417000Y-57904000I0J70000D01*
G01*
X54417000Y-55704000D01*
G75*
G02*
X54487000Y-55634000I70000J0D01*
G01*
X54987000Y-55634000D01*
G75*
G02*
X55057000Y-55704000I0J-70000D01*
G01*
X55057000Y-57904000D01*
G75*
G02*
X54987000Y-57974000I-70000J0D01*
G01*
G37*
G36*
G01*
X56257000Y-57974000D02*
X55757000Y-57974000D01*
G75*
G02*
X55687000Y-57904000I0J70000D01*
G01*
X55687000Y-55704000D01*
G75*
G02*
X55757000Y-55634000I70000J0D01*
G01*
X56257000Y-55634000D01*
G75*
G02*
X56327000Y-55704000I0J-70000D01*
G01*
X56327000Y-57904000D01*
G75*
G02*
X56257000Y-57974000I-70000J0D01*
G01*
G37*
G36*
G01*
X57527000Y-57974000D02*
X57027000Y-57974000D01*
G75*
G02*
X56957000Y-57904000I0J70000D01*
G01*
X56957000Y-55704000D01*
G75*
G02*
X57027000Y-55634000I70000J0D01*
G01*
X57527000Y-55634000D01*
G75*
G02*
X57597000Y-55704000I0J-70000D01*
G01*
X57597000Y-57904000D01*
G75*
G02*
X57527000Y-57974000I-70000J0D01*
G01*
G37*
G36*
G01*
X57527000Y-52224000D02*
X57027000Y-52224000D01*
G75*
G02*
X56957000Y-52154000I0J70000D01*
G01*
X56957000Y-49954000D01*
G75*
G02*
X57027000Y-49884000I70000J0D01*
G01*
X57527000Y-49884000D01*
G75*
G02*
X57597000Y-49954000I0J-70000D01*
G01*
X57597000Y-52154000D01*
G75*
G02*
X57527000Y-52224000I-70000J0D01*
G01*
G37*
G36*
G01*
X56257000Y-52224000D02*
X55757000Y-52224000D01*
G75*
G02*
X55687000Y-52154000I0J70000D01*
G01*
X55687000Y-49954000D01*
G75*
G02*
X55757000Y-49884000I70000J0D01*
G01*
X56257000Y-49884000D01*
G75*
G02*
X56327000Y-49954000I0J-70000D01*
G01*
X56327000Y-52154000D01*
G75*
G02*
X56257000Y-52224000I-70000J0D01*
G01*
G37*
G36*
G01*
X54987000Y-52224000D02*
X54487000Y-52224000D01*
G75*
G02*
X54417000Y-52154000I0J70000D01*
G01*
X54417000Y-49954000D01*
G75*
G02*
X54487000Y-49884000I70000J0D01*
G01*
X54987000Y-49884000D01*
G75*
G02*
X55057000Y-49954000I0J-70000D01*
G01*
X55057000Y-52154000D01*
G75*
G02*
X54987000Y-52224000I-70000J0D01*
G01*
G37*
G36*
G01*
X53717000Y-52224000D02*
X53217000Y-52224000D01*
G75*
G02*
X53147000Y-52154000I0J70000D01*
G01*
X53147000Y-49954000D01*
G75*
G02*
X53217000Y-49884000I70000J0D01*
G01*
X53717000Y-49884000D01*
G75*
G02*
X53787000Y-49954000I0J-70000D01*
G01*
X53787000Y-52154000D01*
G75*
G02*
X53717000Y-52224000I-70000J0D01*
G01*
G37*
D15*
X54072000Y-54579000D03*
X55372000Y-54579000D03*
X56672000Y-54579000D03*
X54072000Y-53279000D03*
X55372000Y-53279000D03*
X56672000Y-53279000D03*
D16*
X39878000Y-39266000D03*
D17*
X39878000Y-33266000D03*
D18*
X35178000Y-36266000D03*
D19*
X31623000Y-61595000D03*
X32639000Y-66675000D03*
X30607000Y-66675000D03*
D20*
X30988000Y-62865000D03*
X32258000Y-62865000D03*
X30988000Y-64135000D03*
X32258000Y-64135000D03*
X30988000Y-65405000D03*
X32258000Y-65405000D03*
D11*
X81026000Y-35560000D03*
D13*
X116205000Y-37084000D03*
X160782000Y-29718000D03*
G36*
G01*
X74881800Y-46043770D02*
X74881800Y-47021830D01*
G75*
G02*
X74594630Y-47309000I-287170J0D01*
G01*
X73991570Y-47309000D01*
G75*
G02*
X73704400Y-47021830I0J287170D01*
G01*
X73704400Y-46043770D01*
G75*
G02*
X73991570Y-45756600I287170J0D01*
G01*
X74594630Y-45756600D01*
G75*
G02*
X74881800Y-46043770I0J-287170D01*
G01*
G37*
G36*
G01*
X73056800Y-46043770D02*
X73056800Y-47021830D01*
G75*
G02*
X72769630Y-47309000I-287170J0D01*
G01*
X72166570Y-47309000D01*
G75*
G02*
X71879400Y-47021830I0J287170D01*
G01*
X71879400Y-46043770D01*
G75*
G02*
X72166570Y-45756600I287170J0D01*
G01*
X72769630Y-45756600D01*
G75*
G02*
X73056800Y-46043770I0J-287170D01*
G01*
G37*
X73914000Y-37084000D03*
D11*
X128778000Y-37846000D03*
G36*
G01*
X38880970Y-72031800D02*
X39859030Y-72031800D01*
G75*
G02*
X40146200Y-72318970I0J-287170D01*
G01*
X40146200Y-72922030D01*
G75*
G02*
X39859030Y-73209200I-287170J0D01*
G01*
X38880970Y-73209200D01*
G75*
G02*
X38593800Y-72922030I0J287170D01*
G01*
X38593800Y-72318970D01*
G75*
G02*
X38880970Y-72031800I287170J0D01*
G01*
G37*
G36*
G01*
X38880970Y-73856800D02*
X39859030Y-73856800D01*
G75*
G02*
X40146200Y-74143970I0J-287170D01*
G01*
X40146200Y-74747030D01*
G75*
G02*
X39859030Y-75034200I-287170J0D01*
G01*
X38880970Y-75034200D01*
G75*
G02*
X38593800Y-74747030I0J287170D01*
G01*
X38593800Y-74143970D01*
G75*
G02*
X38880970Y-73856800I287170J0D01*
G01*
G37*
D13*
X103378000Y-37084000D03*
G36*
G01*
X84479000Y-33983800D02*
X87479000Y-33983800D01*
G75*
G02*
X87555200Y-34060000I0J-76200D01*
G01*
X87555200Y-37060000D01*
G75*
G02*
X87479000Y-37136200I-76200J0D01*
G01*
X84479000Y-37136200D01*
G75*
G02*
X84402800Y-37060000I0J76200D01*
G01*
X84402800Y-34060000D01*
G75*
G02*
X84479000Y-33983800I76200J0D01*
G01*
G37*
X116205000Y-79248000D03*
G36*
G01*
X59286200Y-42177650D02*
X59286200Y-43166350D01*
G75*
G02*
X59004350Y-43448200I-281850J0D01*
G01*
X58440650Y-43448200D01*
G75*
G02*
X58158800Y-43166350I0J281850D01*
G01*
X58158800Y-42177650D01*
G75*
G02*
X58440650Y-41895800I281850J0D01*
G01*
X59004350Y-41895800D01*
G75*
G02*
X59286200Y-42177650I0J-281850D01*
G01*
G37*
G36*
G01*
X57411200Y-42177650D02*
X57411200Y-43166350D01*
G75*
G02*
X57129350Y-43448200I-281850J0D01*
G01*
X56565650Y-43448200D01*
G75*
G02*
X56283800Y-43166350I0J281850D01*
G01*
X56283800Y-42177650D01*
G75*
G02*
X56565650Y-41895800I281850J0D01*
G01*
X57129350Y-41895800D01*
G75*
G02*
X57411200Y-42177650I0J-281850D01*
G01*
G37*
G36*
G01*
X44427200Y-77737650D02*
X44427200Y-78726350D01*
G75*
G02*
X44145350Y-79008200I-281850J0D01*
G01*
X43581650Y-79008200D01*
G75*
G02*
X43299800Y-78726350I0J281850D01*
G01*
X43299800Y-77737650D01*
G75*
G02*
X43581650Y-77455800I281850J0D01*
G01*
X44145350Y-77455800D01*
G75*
G02*
X44427200Y-77737650I0J-281850D01*
G01*
G37*
G36*
G01*
X42552200Y-77737650D02*
X42552200Y-78726350D01*
G75*
G02*
X42270350Y-79008200I-281850J0D01*
G01*
X41706650Y-79008200D01*
G75*
G02*
X41424800Y-78726350I0J281850D01*
G01*
X41424800Y-77737650D01*
G75*
G02*
X41706650Y-77455800I281850J0D01*
G01*
X42270350Y-77455800D01*
G75*
G02*
X42552200Y-77737650I0J-281850D01*
G01*
G37*
G36*
G01*
X55349200Y-61232970D02*
X55349200Y-62211030D01*
G75*
G02*
X55062030Y-62498200I-287170J0D01*
G01*
X54458970Y-62498200D01*
G75*
G02*
X54171800Y-62211030I0J287170D01*
G01*
X54171800Y-61232970D01*
G75*
G02*
X54458970Y-60945800I287170J0D01*
G01*
X55062030Y-60945800D01*
G75*
G02*
X55349200Y-61232970I0J-287170D01*
G01*
G37*
G36*
G01*
X53524200Y-61232970D02*
X53524200Y-62211030D01*
G75*
G02*
X53237030Y-62498200I-287170J0D01*
G01*
X52633970Y-62498200D01*
G75*
G02*
X52346800Y-62211030I0J287170D01*
G01*
X52346800Y-61232970D01*
G75*
G02*
X52633970Y-60945800I287170J0D01*
G01*
X53237030Y-60945800D01*
G75*
G02*
X53524200Y-61232970I0J-287170D01*
G01*
G37*
D12*
X151257000Y-105791000D03*
G36*
G01*
X53825200Y-31895970D02*
X53825200Y-32874030D01*
G75*
G02*
X53538030Y-33161200I-287170J0D01*
G01*
X52934970Y-33161200D01*
G75*
G02*
X52647800Y-32874030I0J287170D01*
G01*
X52647800Y-31895970D01*
G75*
G02*
X52934970Y-31608800I287170J0D01*
G01*
X53538030Y-31608800D01*
G75*
G02*
X53825200Y-31895970I0J-287170D01*
G01*
G37*
G36*
G01*
X52000200Y-31895970D02*
X52000200Y-32874030D01*
G75*
G02*
X51713030Y-33161200I-287170J0D01*
G01*
X51109970Y-33161200D01*
G75*
G02*
X50822800Y-32874030I0J287170D01*
G01*
X50822800Y-31895970D01*
G75*
G02*
X51109970Y-31608800I287170J0D01*
G01*
X51713030Y-31608800D01*
G75*
G02*
X52000200Y-31895970I0J-287170D01*
G01*
G37*
G36*
G01*
X59286200Y-34684650D02*
X59286200Y-35673350D01*
G75*
G02*
X59004350Y-35955200I-281850J0D01*
G01*
X58440650Y-35955200D01*
G75*
G02*
X58158800Y-35673350I0J281850D01*
G01*
X58158800Y-34684650D01*
G75*
G02*
X58440650Y-34402800I281850J0D01*
G01*
X59004350Y-34402800D01*
G75*
G02*
X59286200Y-34684650I0J-281850D01*
G01*
G37*
G36*
G01*
X57411200Y-34684650D02*
X57411200Y-35673350D01*
G75*
G02*
X57129350Y-35955200I-281850J0D01*
G01*
X56565650Y-35955200D01*
G75*
G02*
X56283800Y-35673350I0J281850D01*
G01*
X56283800Y-34684650D01*
G75*
G02*
X56565650Y-34402800I281850J0D01*
G01*
X57129350Y-34402800D01*
G75*
G02*
X57411200Y-34684650I0J-281850D01*
G01*
G37*
G36*
G01*
X56283800Y-40359350D02*
X56283800Y-39370650D01*
G75*
G02*
X56565650Y-39088800I281850J0D01*
G01*
X57129350Y-39088800D01*
G75*
G02*
X57411200Y-39370650I0J-281850D01*
G01*
X57411200Y-40359350D01*
G75*
G02*
X57129350Y-40641200I-281850J0D01*
G01*
X56565650Y-40641200D01*
G75*
G02*
X56283800Y-40359350I0J281850D01*
G01*
G37*
G36*
G01*
X58158800Y-40359350D02*
X58158800Y-39370650D01*
G75*
G02*
X58440650Y-39088800I281850J0D01*
G01*
X59004350Y-39088800D01*
G75*
G02*
X59286200Y-39370650I0J-281850D01*
G01*
X59286200Y-40359350D01*
G75*
G02*
X59004350Y-40641200I-281850J0D01*
G01*
X58440650Y-40641200D01*
G75*
G02*
X58158800Y-40359350I0J281850D01*
G01*
G37*
G36*
G01*
X44427200Y-82817650D02*
X44427200Y-83806350D01*
G75*
G02*
X44145350Y-84088200I-281850J0D01*
G01*
X43581650Y-84088200D01*
G75*
G02*
X43299800Y-83806350I0J281850D01*
G01*
X43299800Y-82817650D01*
G75*
G02*
X43581650Y-82535800I281850J0D01*
G01*
X44145350Y-82535800D01*
G75*
G02*
X44427200Y-82817650I0J-281850D01*
G01*
G37*
G36*
G01*
X42552200Y-82817650D02*
X42552200Y-83806350D01*
G75*
G02*
X42270350Y-84088200I-281850J0D01*
G01*
X41706650Y-84088200D01*
G75*
G02*
X41424800Y-83806350I0J281850D01*
G01*
X41424800Y-82817650D01*
G75*
G02*
X41706650Y-82535800I281850J0D01*
G01*
X42270350Y-82535800D01*
G75*
G02*
X42552200Y-82817650I0J-281850D01*
G01*
G37*
G36*
G01*
X56766800Y-49108100D02*
X56766800Y-48081900D01*
G75*
G02*
X57054900Y-47793800I288100J0D01*
G01*
X57631100Y-47793800D01*
G75*
G02*
X57919200Y-48081900I0J-288100D01*
G01*
X57919200Y-49108100D01*
G75*
G02*
X57631100Y-49396200I-288100J0D01*
G01*
X57054900Y-49396200D01*
G75*
G02*
X56766800Y-49108100I0J288100D01*
G01*
G37*
G36*
G01*
X58666800Y-49108100D02*
X58666800Y-48081900D01*
G75*
G02*
X58954900Y-47793800I288100J0D01*
G01*
X59531100Y-47793800D01*
G75*
G02*
X59819200Y-48081900I0J-288100D01*
G01*
X59819200Y-49108100D01*
G75*
G02*
X59531100Y-49396200I-288100J0D01*
G01*
X58954900Y-49396200D01*
G75*
G02*
X58666800Y-49108100I0J288100D01*
G01*
G37*
D13*
X145669000Y-79248000D03*
G36*
G01*
X41547970Y-72031800D02*
X42526030Y-72031800D01*
G75*
G02*
X42813200Y-72318970I0J-287170D01*
G01*
X42813200Y-72922030D01*
G75*
G02*
X42526030Y-73209200I-287170J0D01*
G01*
X41547970Y-73209200D01*
G75*
G02*
X41260800Y-72922030I0J287170D01*
G01*
X41260800Y-72318970D01*
G75*
G02*
X41547970Y-72031800I287170J0D01*
G01*
G37*
G36*
G01*
X41547970Y-73856800D02*
X42526030Y-73856800D01*
G75*
G02*
X42813200Y-74143970I0J-287170D01*
G01*
X42813200Y-74747030D01*
G75*
G02*
X42526030Y-75034200I-287170J0D01*
G01*
X41547970Y-75034200D01*
G75*
G02*
X41260800Y-74747030I0J287170D01*
G01*
X41260800Y-74143970D01*
G75*
G02*
X41547970Y-73856800I287170J0D01*
G01*
G37*
G36*
G01*
X122121800Y-39346000D02*
X122121800Y-36346000D01*
G75*
G02*
X122198000Y-36269800I76200J0D01*
G01*
X125198000Y-36269800D01*
G75*
G02*
X125274200Y-36346000I0J-76200D01*
G01*
X125274200Y-39346000D01*
G75*
G02*
X125198000Y-39422200I-76200J0D01*
G01*
X122198000Y-39422200D01*
G75*
G02*
X122121800Y-39346000I0J76200D01*
G01*
G37*
M02*
