M48
INCH,TZ
T1C0.0120
T2C0.0130
T3C0.0394
T4C0.0591
T5C0.0620
T6C0.0690
T7C0.1063
T8C0.1260
%
G90
G05
T1
X11700Y-24250
X11700Y-25250
X13200Y-24950
X13650Y-26050
X13875Y-24875
X14000Y-26050
X15550Y-23050
X16050Y-27500
X16050Y-27850
X16050Y-28200
X16750Y-24100
X17550Y-18600
X17550Y-18900
X17550Y-19200
X18500Y-14150
X18500Y-14450
X18500Y-14750
X18550Y-18600
X18550Y-18900
X18550Y-19200
X18550Y-24400
X19250Y-13450
X19250Y-13750
X19250Y-14050
X19950Y-18600
X19950Y-19700
X20300Y-18950
X20300Y-19350
X21050Y-18600
X21050Y-18900
X21050Y-19200
X21550Y-23300
X22050Y-18600
X22050Y-18900
X22050Y-19200
X22050Y-23300
X23400Y-18100
X23450Y-18600
X23450Y-19700
X23750Y-18100
X23800Y-18950
X23800Y-19350
X23850Y-17500
X24050Y-18100
X24150Y-17500
X24450Y-17500
X43400Y-25050
X43400Y-25400
X43400Y-25750
X50850Y-26650
X51200Y-26650
X52800Y-27500
X53200Y-27500
X54200Y-26509
X54650Y-26509
X60150Y-32550
X60150Y-32900
X60150Y-33250
X62200Y-27700
X62950Y-28250
T2
X17788Y-20994
X17788Y-21506
X18300Y-20994
X18300Y-21506
X18812Y-20994
X18812Y-21506
X21288Y-20976
X21288Y-21488
X21800Y-20976
X21800Y-21488
X22312Y-20976
X22312Y-21488
T4
X31900Y-14000
X32300Y-31800
X33850Y-14000
X35550Y-31800
X48700Y-14900
X50700Y-14900
X52700Y-14900
X54700Y-14900
T5
X61878Y-15064
X61878Y-16623
X61878Y-18182
X61878Y-19741
X61878Y-21300
T6
X62908Y-32462
X62908Y-34021
X62908Y-35580
X62908Y-37140
X62908Y-38699
X62908Y-40258
T7
X45900Y-41750
X59550Y-41650
T8
X11700Y-11700
X11700Y-43300
X29100Y-14600
X29100Y-40200
X40700Y-14600
X40700Y-40200
X45750Y-14600
X45750Y-31200
X57350Y-14600
X57350Y-31200
X63300Y-11700
X63300Y-43300
T3
G00X13850Y-14672
M15
G01X13850Y-13884
M16
G05
G00X15306Y-13097
M15
G01X16094Y-13097
M16
G05
G00X15208Y-15459
M15
G01X16192Y-15459
M16
G05
M30
