G04 #@! TF.GenerationSoftware,KiCad,Pcbnew,9.0.8-9.0.8~ubuntu24.04.1*
G04 #@! TF.CreationDate,2026-03-23T13:42:51-06:00*
G04 #@! TF.ProjectId,bd-tester,62642d74-6573-4746-9572-2e6b69636164,rev?*
G04 #@! TF.SameCoordinates,Original*
G04 #@! TF.FileFunction,Legend,Top*
G04 #@! TF.FilePolarity,Positive*
%FSLAX46Y46*%
G04 Gerber Fmt 4.6, Leading zero omitted, Abs format (unit mm)*
G04 Created by KiCad (PCBNEW 9.0.8-9.0.8~ubuntu24.04.1) date 2026-03-23 13:42:51*
%MOMM*%
%LPD*%
G01*
G04 APERTURE LIST*
%ADD10C,0.000000*%
%ADD11C,0.150000*%
%ADD12C,0.300000*%
%ADD13C,0.152400*%
%ADD14C,0.508000*%
%ADD15C,0.120000*%
%ADD16C,0.127000*%
%ADD17C,0.200000*%
%ADD18C,0.400000*%
G04 APERTURE END LIST*
D10*
G36*
X40729558Y-93489830D02*
G01*
X40744425Y-93491599D01*
X40759208Y-93494268D01*
X40773795Y-93497811D01*
X40788077Y-93502196D01*
X40801942Y-93507396D01*
X40815280Y-93513382D01*
X40827980Y-93520124D01*
X40839932Y-93527593D01*
X40851025Y-93535762D01*
X40856214Y-93540099D01*
X40861148Y-93544600D01*
X40865812Y-93549261D01*
X40870192Y-93554079D01*
X40878942Y-93564624D01*
X40886942Y-93575470D01*
X40894197Y-93586587D01*
X40900711Y-93597946D01*
X40906491Y-93609516D01*
X40911543Y-93621267D01*
X40915871Y-93633170D01*
X40919481Y-93645195D01*
X40922380Y-93657311D01*
X40924572Y-93669490D01*
X40926063Y-93681701D01*
X40926858Y-93693915D01*
X40926964Y-93706101D01*
X40926385Y-93718230D01*
X40925127Y-93730272D01*
X40923197Y-93742197D01*
X40920598Y-93753976D01*
X40917338Y-93765577D01*
X40913421Y-93776973D01*
X40908853Y-93788132D01*
X40903639Y-93799024D01*
X40897786Y-93809621D01*
X40891298Y-93819892D01*
X40884182Y-93829808D01*
X40876442Y-93839337D01*
X40868085Y-93848452D01*
X40859115Y-93857121D01*
X40849539Y-93865315D01*
X40839362Y-93873005D01*
X40828590Y-93880159D01*
X40817227Y-93886749D01*
X40805281Y-93892745D01*
X40795346Y-93896962D01*
X40784905Y-93900617D01*
X40774030Y-93903709D01*
X40762793Y-93906239D01*
X40751267Y-93908207D01*
X40739523Y-93909613D01*
X40727635Y-93910456D01*
X40715675Y-93910737D01*
X40703715Y-93910456D01*
X40691827Y-93909613D01*
X40680083Y-93908207D01*
X40668557Y-93906239D01*
X40657320Y-93903709D01*
X40646445Y-93900617D01*
X40636004Y-93896962D01*
X40626070Y-93892745D01*
X40619435Y-93889299D01*
X40612314Y-93885118D01*
X40604834Y-93880310D01*
X40597120Y-93874985D01*
X40589298Y-93869251D01*
X40581495Y-93863216D01*
X40573837Y-93856988D01*
X40566450Y-93850677D01*
X40559460Y-93844390D01*
X40552992Y-93838237D01*
X40547174Y-93832326D01*
X40542130Y-93826765D01*
X40537988Y-93821663D01*
X40536295Y-93819318D01*
X40534874Y-93817129D01*
X40533741Y-93815108D01*
X40532912Y-93813270D01*
X40532404Y-93811628D01*
X40532231Y-93810196D01*
X40531507Y-93809543D01*
X40529382Y-93808910D01*
X40521217Y-93807715D01*
X40508306Y-93806636D01*
X40491220Y-93805698D01*
X40470529Y-93804925D01*
X40446803Y-93804342D01*
X40392531Y-93803846D01*
X40252831Y-93803846D01*
X39997420Y-94126284D01*
X39742009Y-94449429D01*
X39742009Y-95241062D01*
X39760353Y-95250940D01*
X39766164Y-95254392D01*
X39772181Y-95258614D01*
X39778344Y-95263533D01*
X39784595Y-95269075D01*
X39790876Y-95275167D01*
X39797126Y-95281735D01*
X39803287Y-95288706D01*
X39809301Y-95296007D01*
X39815108Y-95303565D01*
X39820649Y-95311305D01*
X39825866Y-95319155D01*
X39830699Y-95327041D01*
X39835090Y-95334889D01*
X39838980Y-95342627D01*
X39842309Y-95350182D01*
X39845020Y-95357478D01*
X39847931Y-95367606D01*
X39850320Y-95378339D01*
X39852191Y-95389573D01*
X39853552Y-95401201D01*
X39854409Y-95413119D01*
X39854768Y-95425220D01*
X39854635Y-95437401D01*
X39854016Y-95449554D01*
X39852917Y-95461575D01*
X39851345Y-95473358D01*
X39849306Y-95484798D01*
X39846806Y-95495790D01*
X39843851Y-95506227D01*
X39840447Y-95516006D01*
X39836602Y-95525019D01*
X39832320Y-95533162D01*
X39824151Y-95546118D01*
X39815520Y-95558260D01*
X39806428Y-95569586D01*
X39796877Y-95580092D01*
X39786866Y-95589776D01*
X39776398Y-95598634D01*
X39765472Y-95606663D01*
X39754091Y-95613860D01*
X39742255Y-95620222D01*
X39729966Y-95625746D01*
X39717224Y-95630428D01*
X39704030Y-95634266D01*
X39690385Y-95637257D01*
X39676291Y-95639397D01*
X39661749Y-95640683D01*
X39646758Y-95641112D01*
X39635474Y-95640850D01*
X39624383Y-95640069D01*
X39613495Y-95638781D01*
X39602822Y-95636996D01*
X39592376Y-95634727D01*
X39582166Y-95631983D01*
X39572203Y-95628776D01*
X39562500Y-95625116D01*
X39553066Y-95621015D01*
X39543913Y-95616484D01*
X39535052Y-95611534D01*
X39526493Y-95606175D01*
X39518248Y-95600419D01*
X39510328Y-95594276D01*
X39502743Y-95587758D01*
X39495505Y-95580875D01*
X39488625Y-95573639D01*
X39482113Y-95566061D01*
X39475980Y-95558151D01*
X39470239Y-95549920D01*
X39464899Y-95541380D01*
X39459971Y-95532542D01*
X39455467Y-95523416D01*
X39451397Y-95514013D01*
X39447773Y-95504344D01*
X39444605Y-95494421D01*
X39441904Y-95484255D01*
X39439682Y-95473855D01*
X39437949Y-95463234D01*
X39436717Y-95452403D01*
X39435996Y-95441371D01*
X39435797Y-95430151D01*
X39436071Y-95417896D01*
X39436894Y-95405994D01*
X39438272Y-95394435D01*
X39440207Y-95383209D01*
X39442705Y-95372306D01*
X39445769Y-95361715D01*
X39449404Y-95351425D01*
X39453613Y-95341427D01*
X39458401Y-95331711D01*
X39463772Y-95322264D01*
X39469730Y-95313079D01*
X39476279Y-95304143D01*
X39483423Y-95295448D01*
X39491167Y-95286981D01*
X39499515Y-95278734D01*
X39508470Y-95270696D01*
X39544453Y-95239651D01*
X39544453Y-94373934D01*
X39849959Y-93987290D01*
X40154758Y-93599940D01*
X40341731Y-93599234D01*
X40528703Y-93598529D01*
X40547753Y-93571012D01*
X40552338Y-93564723D01*
X40557344Y-93558566D01*
X40562747Y-93552557D01*
X40568523Y-93546715D01*
X40574645Y-93541053D01*
X40581090Y-93535591D01*
X40587833Y-93530343D01*
X40594849Y-93525327D01*
X40602112Y-93520559D01*
X40609599Y-93516056D01*
X40617284Y-93511834D01*
X40625143Y-93507909D01*
X40633151Y-93504299D01*
X40641283Y-93501019D01*
X40649514Y-93498087D01*
X40657820Y-93495518D01*
X40664570Y-93493800D01*
X40671452Y-93492346D01*
X40685553Y-93490221D01*
X40700011Y-93489112D01*
X40714716Y-93488991D01*
X40729558Y-93489830D01*
G37*
D11*
X111887000Y-32766000D02*
X149987000Y-32766000D01*
X149987000Y-83566000D01*
X111887000Y-83566000D01*
X111887000Y-32766000D01*
D10*
G36*
X49386953Y-90896957D02*
G01*
X47312619Y-90896957D01*
X47312619Y-92145790D01*
X48893064Y-92145790D01*
X48893064Y-93380512D01*
X47312619Y-93380512D01*
X47312619Y-94841012D01*
X49471620Y-94841012D01*
X49471620Y-96075734D01*
X45936786Y-96075734D01*
X45936786Y-95892290D01*
X45936786Y-89838624D01*
X46120230Y-89838624D01*
X46120230Y-95892290D01*
X49288175Y-95892290D01*
X49288175Y-95024457D01*
X47129174Y-95024457D01*
X47129174Y-93197068D01*
X48709619Y-93197068D01*
X48709619Y-92329235D01*
X47129174Y-92329235D01*
X47129174Y-90706457D01*
X49203508Y-90706457D01*
X49203508Y-89838624D01*
X46120230Y-89838624D01*
X45936786Y-89838624D01*
X45936786Y-89655179D01*
X49386953Y-89655179D01*
X49386953Y-90896957D01*
G37*
G36*
X43243948Y-89571838D02*
G01*
X43313729Y-89572916D01*
X43373357Y-89574820D01*
X43417953Y-89577568D01*
X43573588Y-89596826D01*
X43723666Y-89625664D01*
X43796564Y-89643632D01*
X43868004Y-89663941D01*
X43937964Y-89686574D01*
X44006419Y-89711513D01*
X44073348Y-89738741D01*
X44138728Y-89768239D01*
X44202535Y-89799989D01*
X44264748Y-89833974D01*
X44325342Y-89870176D01*
X44384295Y-89908577D01*
X44441585Y-89949160D01*
X44497188Y-89991906D01*
X44551082Y-90036797D01*
X44603243Y-90083816D01*
X44653649Y-90132945D01*
X44702278Y-90184167D01*
X44749105Y-90237462D01*
X44794108Y-90292814D01*
X44837265Y-90350205D01*
X44878552Y-90409616D01*
X44917947Y-90471031D01*
X44955426Y-90534431D01*
X44990968Y-90599797D01*
X45024548Y-90667114D01*
X45056145Y-90736362D01*
X45085735Y-90807524D01*
X45138803Y-90955518D01*
X45150170Y-90991704D01*
X45162141Y-91032412D01*
X45174063Y-91075089D01*
X45185281Y-91117178D01*
X45195144Y-91156126D01*
X45202997Y-91189376D01*
X45208188Y-91214375D01*
X45209581Y-91222982D01*
X45210064Y-91228568D01*
X45208293Y-91230482D01*
X45202810Y-91233366D01*
X45179681Y-91242348D01*
X45077596Y-91275311D01*
X44887405Y-91332351D01*
X44592703Y-91418362D01*
X44352527Y-91487793D01*
X44155611Y-91544127D01*
X44022195Y-91581676D01*
X43985625Y-91591628D01*
X43972520Y-91594751D01*
X43971321Y-91592273D01*
X43968882Y-91586174D01*
X43960878Y-91564765D01*
X43949699Y-91533831D01*
X43936536Y-91496679D01*
X43905922Y-91413162D01*
X43874617Y-91335056D01*
X43842540Y-91262264D01*
X43809613Y-91194690D01*
X43775756Y-91132239D01*
X43740889Y-91074813D01*
X43723052Y-91047955D01*
X43704933Y-91022318D01*
X43686521Y-90997889D01*
X43667808Y-90974656D01*
X43648782Y-90952608D01*
X43629434Y-90931732D01*
X43609754Y-90912017D01*
X43589732Y-90893450D01*
X43569358Y-90876019D01*
X43548623Y-90859713D01*
X43527515Y-90844519D01*
X43506026Y-90830425D01*
X43484145Y-90817420D01*
X43461862Y-90805491D01*
X43439168Y-90794626D01*
X43416053Y-90784813D01*
X43392505Y-90776041D01*
X43368517Y-90768297D01*
X43344077Y-90761569D01*
X43319175Y-90755846D01*
X43302520Y-90752605D01*
X43284687Y-90749762D01*
X43265856Y-90747317D01*
X43246205Y-90745273D01*
X43205160Y-90742389D01*
X43162983Y-90741117D01*
X43121103Y-90741466D01*
X43080951Y-90743444D01*
X43061970Y-90745046D01*
X43043958Y-90747058D01*
X43027092Y-90749482D01*
X43011553Y-90752318D01*
X42966060Y-90763416D01*
X42923237Y-90777135D01*
X42883077Y-90793486D01*
X42845571Y-90812478D01*
X42827811Y-90822967D01*
X42810711Y-90834119D01*
X42794270Y-90845937D01*
X42778488Y-90858420D01*
X42763363Y-90871570D01*
X42748895Y-90885389D01*
X42735081Y-90899878D01*
X42721922Y-90915037D01*
X42709416Y-90930867D01*
X42697563Y-90947371D01*
X42686360Y-90964549D01*
X42675808Y-90982402D01*
X42656649Y-91020139D01*
X42640078Y-91060591D01*
X42626087Y-91103767D01*
X42614667Y-91149677D01*
X42605810Y-91198329D01*
X42599508Y-91249735D01*
X42597692Y-91271189D01*
X42596486Y-91291690D01*
X42595907Y-91311328D01*
X42595970Y-91330190D01*
X42596690Y-91348366D01*
X42598082Y-91365944D01*
X42600163Y-91383015D01*
X42602948Y-91399665D01*
X42606452Y-91415985D01*
X42610691Y-91432063D01*
X42615681Y-91447988D01*
X42621436Y-91463849D01*
X42627973Y-91479734D01*
X42635306Y-91495734D01*
X42643452Y-91511936D01*
X42652425Y-91528429D01*
X42663796Y-91547654D01*
X42676483Y-91566973D01*
X42690497Y-91586395D01*
X42705849Y-91605930D01*
X42722549Y-91625589D01*
X42740606Y-91645383D01*
X42760032Y-91665322D01*
X42780836Y-91685415D01*
X42803030Y-91705674D01*
X42826623Y-91726109D01*
X42851626Y-91746729D01*
X42878049Y-91767546D01*
X42905902Y-91788570D01*
X42935196Y-91809811D01*
X42965941Y-91831279D01*
X42998147Y-91852985D01*
X43043646Y-91882683D01*
X43089351Y-91911446D01*
X43137984Y-91940855D01*
X43192263Y-91972488D01*
X43328645Y-92048743D01*
X43520258Y-92152846D01*
X43651327Y-92223609D01*
X43763940Y-92285171D01*
X43861075Y-92339241D01*
X43945709Y-92387531D01*
X44020817Y-92431754D01*
X44089377Y-92473620D01*
X44154365Y-92514841D01*
X44218758Y-92557129D01*
X44340848Y-92642154D01*
X44454776Y-92728537D01*
X44560649Y-92816446D01*
X44658573Y-92906048D01*
X44748655Y-92997510D01*
X44831000Y-93091000D01*
X44905716Y-93186685D01*
X44972909Y-93284733D01*
X45032686Y-93385311D01*
X45085152Y-93488586D01*
X45130414Y-93594727D01*
X45168580Y-93703899D01*
X45199754Y-93816272D01*
X45224044Y-93932011D01*
X45241556Y-94051286D01*
X45252397Y-94174262D01*
X45255421Y-94249842D01*
X45255550Y-94327787D01*
X45252869Y-94407154D01*
X45247458Y-94487000D01*
X45239402Y-94566383D01*
X45228783Y-94644361D01*
X45215683Y-94719990D01*
X45200186Y-94792329D01*
X45164087Y-94923607D01*
X45119160Y-95049303D01*
X45065605Y-95169239D01*
X45003623Y-95283241D01*
X44933413Y-95391133D01*
X44855178Y-95492739D01*
X44769116Y-95587883D01*
X44675429Y-95676390D01*
X44574317Y-95758084D01*
X44465981Y-95832789D01*
X44350621Y-95900330D01*
X44228438Y-95960530D01*
X44099632Y-96013215D01*
X43964403Y-96058208D01*
X43822952Y-96095334D01*
X43675481Y-96124417D01*
X43569227Y-96139756D01*
X43459922Y-96151350D01*
X43349014Y-96159157D01*
X43237948Y-96163135D01*
X43128172Y-96163244D01*
X43021133Y-96159442D01*
X42918278Y-96151688D01*
X42868871Y-96146316D01*
X42821053Y-96139940D01*
X42706284Y-96120056D01*
X42594821Y-96094808D01*
X42486677Y-96064203D01*
X42381867Y-96028253D01*
X42280406Y-95986965D01*
X42182308Y-95940349D01*
X42087587Y-95888415D01*
X41996259Y-95831171D01*
X41908337Y-95768628D01*
X41823836Y-95700793D01*
X41742770Y-95627678D01*
X41665155Y-95549291D01*
X41591003Y-95465640D01*
X41520331Y-95376737D01*
X41453152Y-95282589D01*
X41389481Y-95183207D01*
X41365901Y-95142632D01*
X41339353Y-95093954D01*
X41311036Y-95039587D01*
X41282148Y-94981947D01*
X41253889Y-94923446D01*
X41227456Y-94866500D01*
X41204050Y-94813523D01*
X41184869Y-94766929D01*
X41157828Y-94695133D01*
X41129671Y-94614176D01*
X41102059Y-94529647D01*
X41076655Y-94447136D01*
X41061794Y-94395446D01*
X41258013Y-94395446D01*
X41258247Y-94398893D01*
X41258944Y-94403225D01*
X41260119Y-94408563D01*
X41261785Y-94415027D01*
X41263958Y-94422739D01*
X41269881Y-94442388D01*
X41278003Y-94468479D01*
X41296345Y-94525064D01*
X41315632Y-94581005D01*
X41335832Y-94636237D01*
X41356915Y-94690696D01*
X41378850Y-94744315D01*
X41401605Y-94797029D01*
X41425150Y-94848774D01*
X41449453Y-94899485D01*
X41474484Y-94949096D01*
X41500212Y-94997542D01*
X41526605Y-95044758D01*
X41553633Y-95090679D01*
X41581264Y-95135241D01*
X41609468Y-95178376D01*
X41638214Y-95220022D01*
X41667470Y-95260112D01*
X41728708Y-95337637D01*
X41792582Y-95410679D01*
X41859114Y-95479252D01*
X41928327Y-95543371D01*
X42000244Y-95603049D01*
X42074887Y-95658302D01*
X42152279Y-95709143D01*
X42232443Y-95755589D01*
X42315402Y-95797651D01*
X42401179Y-95835347D01*
X42489795Y-95868689D01*
X42581274Y-95897692D01*
X42675639Y-95922371D01*
X42772913Y-95942740D01*
X42873117Y-95958814D01*
X42976275Y-95970606D01*
X43032017Y-95974196D01*
X43099814Y-95976041D01*
X43175779Y-95976249D01*
X43256028Y-95974928D01*
X43336674Y-95972184D01*
X43413830Y-95968126D01*
X43483611Y-95962860D01*
X43542131Y-95956495D01*
X43624765Y-95944126D01*
X43705189Y-95929505D01*
X43783409Y-95912631D01*
X43859432Y-95893502D01*
X43933264Y-95872116D01*
X44004912Y-95848471D01*
X44074380Y-95822564D01*
X44141676Y-95794394D01*
X44206806Y-95763958D01*
X44269776Y-95731255D01*
X44330592Y-95696282D01*
X44389260Y-95659038D01*
X44445787Y-95619519D01*
X44500179Y-95577725D01*
X44552441Y-95533653D01*
X44602581Y-95487301D01*
X44648557Y-95440865D01*
X44692048Y-95393065D01*
X44733084Y-95343843D01*
X44771693Y-95293141D01*
X44807905Y-95240901D01*
X44841747Y-95187065D01*
X44873250Y-95131576D01*
X44902442Y-95074375D01*
X44929351Y-95015404D01*
X44954008Y-94954607D01*
X44976440Y-94891924D01*
X44996678Y-94827298D01*
X45014749Y-94760671D01*
X45030682Y-94691986D01*
X45044507Y-94621183D01*
X45056253Y-94548207D01*
X45058826Y-94526909D01*
X45060991Y-94501023D01*
X45064124Y-94438096D01*
X45065704Y-94364652D01*
X45065778Y-94285916D01*
X45064397Y-94207115D01*
X45061611Y-94133472D01*
X45057468Y-94070215D01*
X45052019Y-94022568D01*
X45045292Y-93983821D01*
X45036960Y-93941991D01*
X45027339Y-93898358D01*
X45016742Y-93854204D01*
X45005483Y-93810811D01*
X44993878Y-93769461D01*
X44982239Y-93731434D01*
X44970881Y-93698012D01*
X44960026Y-93669652D01*
X44948136Y-93640730D01*
X44935269Y-93611345D01*
X44921481Y-93581596D01*
X44906828Y-93551582D01*
X44891369Y-93521403D01*
X44858256Y-93460946D01*
X44822597Y-93401017D01*
X44784845Y-93342412D01*
X44765327Y-93313854D01*
X44745457Y-93285924D01*
X44725291Y-93258721D01*
X44704886Y-93232345D01*
X44691098Y-93215613D01*
X44674813Y-93196842D01*
X44636017Y-93154426D01*
X44591020Y-93107578D01*
X44542344Y-93058779D01*
X44492510Y-93010509D01*
X44444040Y-92965249D01*
X44399457Y-92925479D01*
X44361281Y-92893679D01*
X44273821Y-92826467D01*
X44186931Y-92763306D01*
X44096354Y-92701567D01*
X43997832Y-92638621D01*
X43887105Y-92571838D01*
X43759916Y-92498590D01*
X43612007Y-92416247D01*
X43439120Y-92322179D01*
X43265179Y-92227453D01*
X43120087Y-92146319D01*
X43057101Y-92110033D01*
X42999816Y-92076166D01*
X42947730Y-92044391D01*
X42900340Y-92014380D01*
X42857141Y-91985809D01*
X42817631Y-91958349D01*
X42781307Y-91931675D01*
X42747664Y-91905460D01*
X42716200Y-91879377D01*
X42686412Y-91853100D01*
X42657795Y-91826302D01*
X42629847Y-91798657D01*
X42603090Y-91770923D01*
X42578345Y-91743741D01*
X42555554Y-91716998D01*
X42534663Y-91690585D01*
X42515617Y-91664392D01*
X42498358Y-91638307D01*
X42482831Y-91612220D01*
X42468981Y-91586020D01*
X42456751Y-91559597D01*
X42446086Y-91532840D01*
X42436930Y-91505639D01*
X42429227Y-91477883D01*
X42422921Y-91449461D01*
X42417957Y-91420263D01*
X42414279Y-91390178D01*
X42411831Y-91359096D01*
X42410141Y-91310242D01*
X42411114Y-91261686D01*
X42414683Y-91213596D01*
X42420783Y-91166137D01*
X42429346Y-91119477D01*
X42440307Y-91073780D01*
X42453599Y-91029214D01*
X42469157Y-90985945D01*
X42486915Y-90944140D01*
X42506805Y-90903964D01*
X42528763Y-90865585D01*
X42552721Y-90829168D01*
X42578615Y-90794881D01*
X42606377Y-90762889D01*
X42635941Y-90733359D01*
X42651379Y-90719569D01*
X42667242Y-90706457D01*
X42713824Y-90673023D01*
X42764104Y-90643643D01*
X42817630Y-90618335D01*
X42873948Y-90597118D01*
X42932605Y-90580010D01*
X42993151Y-90567030D01*
X43055130Y-90558196D01*
X43118092Y-90553528D01*
X43181582Y-90553043D01*
X43245150Y-90556761D01*
X43308341Y-90564699D01*
X43370703Y-90576877D01*
X43431783Y-90593313D01*
X43491130Y-90614026D01*
X43548289Y-90639034D01*
X43602809Y-90668357D01*
X43618652Y-90678371D01*
X43635631Y-90690296D01*
X43653556Y-90703944D01*
X43672240Y-90719124D01*
X43691494Y-90735647D01*
X43711131Y-90753325D01*
X43730962Y-90771969D01*
X43750799Y-90791388D01*
X43770454Y-90811395D01*
X43789739Y-90831799D01*
X43808467Y-90852412D01*
X43826448Y-90873045D01*
X43843494Y-90893508D01*
X43859419Y-90913613D01*
X43874032Y-90933170D01*
X43887148Y-90951990D01*
X43909218Y-90986943D01*
X43932215Y-91026029D01*
X43955609Y-91068225D01*
X43978870Y-91112504D01*
X44001470Y-91157842D01*
X44022879Y-91203212D01*
X44042568Y-91247591D01*
X44060008Y-91289952D01*
X44064344Y-91300838D01*
X44068368Y-91310763D01*
X44072098Y-91319757D01*
X44075553Y-91327853D01*
X44078751Y-91335080D01*
X44081712Y-91341471D01*
X44083110Y-91344361D01*
X44084454Y-91347055D01*
X44085749Y-91349554D01*
X44086996Y-91351864D01*
X44088197Y-91353987D01*
X44089355Y-91355929D01*
X44090473Y-91357692D01*
X44091552Y-91359280D01*
X44092594Y-91360698D01*
X44093603Y-91361950D01*
X44094580Y-91363039D01*
X44095529Y-91363968D01*
X44096450Y-91364743D01*
X44097347Y-91365367D01*
X44098221Y-91365843D01*
X44099076Y-91366176D01*
X44099913Y-91366369D01*
X44100734Y-91366427D01*
X44101543Y-91366353D01*
X44102342Y-91366151D01*
X44539786Y-91239151D01*
X44844674Y-91150516D01*
X44940134Y-91122173D01*
X44967395Y-91113818D01*
X44978642Y-91110035D01*
X44980368Y-91109186D01*
X44981832Y-91108173D01*
X44983021Y-91106914D01*
X44983922Y-91105327D01*
X44984522Y-91103331D01*
X44984806Y-91100845D01*
X44984761Y-91097785D01*
X44984374Y-91094071D01*
X44983632Y-91089622D01*
X44982521Y-91084355D01*
X44979138Y-91071042D01*
X44974118Y-91053479D01*
X44967353Y-91031012D01*
X44952741Y-90985597D01*
X44936971Y-90940412D01*
X44920080Y-90895520D01*
X44902100Y-90850985D01*
X44883066Y-90806873D01*
X44863012Y-90763246D01*
X44841972Y-90720169D01*
X44819980Y-90677705D01*
X44797070Y-90635920D01*
X44773277Y-90594877D01*
X44748634Y-90554640D01*
X44723175Y-90515273D01*
X44696936Y-90476841D01*
X44669949Y-90439407D01*
X44642248Y-90403035D01*
X44613869Y-90367790D01*
X44601331Y-90353092D01*
X44587381Y-90337421D01*
X44555948Y-90303827D01*
X44520976Y-90268348D01*
X44483871Y-90232324D01*
X44446038Y-90197093D01*
X44408883Y-90163995D01*
X44373812Y-90134370D01*
X44357497Y-90121278D01*
X44342231Y-90109557D01*
X44296744Y-90076623D01*
X44250231Y-90045289D01*
X44202675Y-90015548D01*
X44154057Y-89987396D01*
X44104360Y-89960828D01*
X44053566Y-89935837D01*
X44001658Y-89912420D01*
X43948619Y-89890570D01*
X43894430Y-89870283D01*
X43839075Y-89851554D01*
X43782535Y-89834377D01*
X43724793Y-89818747D01*
X43665831Y-89804659D01*
X43605632Y-89792108D01*
X43544179Y-89781089D01*
X43481453Y-89771596D01*
X43435246Y-89766917D01*
X43373073Y-89763008D01*
X43300068Y-89759975D01*
X43221367Y-89757926D01*
X43142104Y-89756968D01*
X43067413Y-89757209D01*
X43002429Y-89758757D01*
X42952286Y-89761718D01*
X42791249Y-89780476D01*
X42713891Y-89793098D01*
X42638652Y-89807871D01*
X42565539Y-89824788D01*
X42494564Y-89843840D01*
X42425733Y-89865021D01*
X42359057Y-89888321D01*
X42294544Y-89913734D01*
X42232204Y-89941252D01*
X42172044Y-89970867D01*
X42114074Y-90002572D01*
X42058303Y-90036357D01*
X42004740Y-90072217D01*
X41953393Y-90110143D01*
X41904272Y-90150126D01*
X41857385Y-90192161D01*
X41812742Y-90236238D01*
X41770351Y-90282350D01*
X41730221Y-90330489D01*
X41692362Y-90380648D01*
X41656781Y-90432819D01*
X41623489Y-90486994D01*
X41592493Y-90543165D01*
X41563804Y-90601324D01*
X41537429Y-90661465D01*
X41513377Y-90723578D01*
X41491658Y-90787656D01*
X41472281Y-90853692D01*
X41455254Y-90921678D01*
X41440586Y-90991606D01*
X41428286Y-91063468D01*
X41420770Y-91117407D01*
X41414625Y-91170964D01*
X41409847Y-91224074D01*
X41406436Y-91276667D01*
X41404390Y-91328677D01*
X41403705Y-91380038D01*
X41404381Y-91430681D01*
X41406414Y-91480539D01*
X41409804Y-91529546D01*
X41414547Y-91577635D01*
X41420643Y-91624737D01*
X41428088Y-91670786D01*
X41436881Y-91715715D01*
X41447020Y-91759456D01*
X41458502Y-91801942D01*
X41471325Y-91843107D01*
X41485643Y-91883969D01*
X41501831Y-91925002D01*
X41519823Y-91966112D01*
X41539555Y-92007203D01*
X41560961Y-92048184D01*
X41583976Y-92088958D01*
X41608535Y-92129433D01*
X41634573Y-92169514D01*
X41662025Y-92209108D01*
X41690826Y-92248119D01*
X41720911Y-92286454D01*
X41752214Y-92324020D01*
X41784670Y-92360721D01*
X41818215Y-92396465D01*
X41852783Y-92431156D01*
X41888309Y-92464701D01*
X41972380Y-92538633D01*
X42059362Y-92609142D01*
X42153024Y-92678691D01*
X42257138Y-92749745D01*
X42375473Y-92824769D01*
X42511799Y-92906225D01*
X42669888Y-92996577D01*
X42853508Y-93098290D01*
X43059266Y-93211873D01*
X43141292Y-93257945D01*
X43212107Y-93298403D01*
X43273727Y-93334396D01*
X43328171Y-93367074D01*
X43377455Y-93397585D01*
X43423597Y-93427079D01*
X43483808Y-93467356D01*
X43540422Y-93507037D01*
X43593547Y-93546236D01*
X43643290Y-93585068D01*
X43689758Y-93623648D01*
X43733061Y-93662091D01*
X43773303Y-93700511D01*
X43810595Y-93739023D01*
X43845041Y-93777741D01*
X43876751Y-93816781D01*
X43905832Y-93856257D01*
X43932391Y-93896284D01*
X43956536Y-93936977D01*
X43978373Y-93978450D01*
X43998012Y-94020818D01*
X44015558Y-94064196D01*
X44025322Y-94092344D01*
X44033974Y-94121668D01*
X44041510Y-94152038D01*
X44047926Y-94183324D01*
X44053217Y-94215396D01*
X44057379Y-94248122D01*
X44060409Y-94281374D01*
X44062301Y-94315021D01*
X44063053Y-94348932D01*
X44062660Y-94382977D01*
X44061117Y-94417027D01*
X44058421Y-94450950D01*
X44054567Y-94484618D01*
X44049552Y-94517898D01*
X44043371Y-94550662D01*
X44036020Y-94582779D01*
X44016727Y-94647998D01*
X43993067Y-94709969D01*
X43965173Y-94768588D01*
X43933174Y-94823749D01*
X43897202Y-94875345D01*
X43857389Y-94923273D01*
X43813865Y-94967426D01*
X43766762Y-95007700D01*
X43716211Y-95043988D01*
X43662344Y-95076186D01*
X43605291Y-95104187D01*
X43545185Y-95127887D01*
X43482155Y-95147180D01*
X43416334Y-95161960D01*
X43347852Y-95172123D01*
X43276842Y-95177562D01*
X43233169Y-95178351D01*
X43190011Y-95177031D01*
X43147392Y-95173623D01*
X43105339Y-95168151D01*
X43063879Y-95160639D01*
X43023037Y-95151109D01*
X42982840Y-95139585D01*
X42943313Y-95126090D01*
X42904482Y-95110646D01*
X42866374Y-95093277D01*
X42829015Y-95074006D01*
X42792431Y-95052857D01*
X42756648Y-95029851D01*
X42721692Y-95005013D01*
X42687589Y-94978366D01*
X42654366Y-94949932D01*
X42622047Y-94919735D01*
X42590661Y-94887798D01*
X42560231Y-94854144D01*
X42530786Y-94818797D01*
X42474950Y-94743112D01*
X42423362Y-94660930D01*
X42376231Y-94572435D01*
X42333765Y-94477812D01*
X42296173Y-94377247D01*
X42263664Y-94270923D01*
X42258954Y-94253094D01*
X42254426Y-94236373D01*
X42250195Y-94221140D01*
X42246378Y-94207776D01*
X42243090Y-94196661D01*
X42240447Y-94188175D01*
X42238565Y-94182699D01*
X42237945Y-94181208D01*
X42237559Y-94180613D01*
X41772686Y-94277714D01*
X41268125Y-94385929D01*
X41263283Y-94387248D01*
X41261419Y-94388085D01*
X41259945Y-94389203D01*
X41258877Y-94390722D01*
X41258228Y-94392762D01*
X41258013Y-94395446D01*
X41061794Y-94395446D01*
X41055120Y-94372231D01*
X41039117Y-94310522D01*
X41033709Y-94286363D01*
X41030307Y-94267599D01*
X41029119Y-94254929D01*
X41029420Y-94251097D01*
X41030353Y-94249051D01*
X41244588Y-94200290D01*
X41708656Y-94100267D01*
X42172063Y-94002492D01*
X42384314Y-93960478D01*
X42385224Y-93962891D01*
X42386828Y-93968802D01*
X42391722Y-93989495D01*
X42398205Y-94019315D01*
X42405481Y-94055023D01*
X42422111Y-94133274D01*
X42441027Y-94208454D01*
X42462198Y-94280516D01*
X42485594Y-94349416D01*
X42511186Y-94415108D01*
X42538942Y-94477546D01*
X42568834Y-94536686D01*
X42600831Y-94592480D01*
X42617610Y-94619109D01*
X42634904Y-94644885D01*
X42652709Y-94669802D01*
X42671022Y-94693854D01*
X42689838Y-94717036D01*
X42709155Y-94739343D01*
X42728968Y-94760767D01*
X42749274Y-94781304D01*
X42770068Y-94800949D01*
X42791348Y-94819694D01*
X42813109Y-94837536D01*
X42835347Y-94854467D01*
X42858060Y-94870483D01*
X42881242Y-94885577D01*
X42904891Y-94899744D01*
X42929003Y-94912978D01*
X42959794Y-94928308D01*
X42990780Y-94942017D01*
X43021962Y-94954105D01*
X43053335Y-94964572D01*
X43084899Y-94973420D01*
X43116650Y-94980646D01*
X43148588Y-94986252D01*
X43180710Y-94990237D01*
X43213013Y-94992602D01*
X43245497Y-94993346D01*
X43278158Y-94992470D01*
X43310995Y-94989973D01*
X43344006Y-94985855D01*
X43377188Y-94980117D01*
X43410539Y-94972758D01*
X43444059Y-94963779D01*
X43493448Y-94947336D01*
X43540228Y-94927450D01*
X43584318Y-94904234D01*
X43625640Y-94877800D01*
X43664113Y-94848262D01*
X43699658Y-94815732D01*
X43732196Y-94780323D01*
X43761647Y-94742146D01*
X43787930Y-94701316D01*
X43810968Y-94657944D01*
X43830680Y-94612143D01*
X43846986Y-94564026D01*
X43859807Y-94513706D01*
X43869063Y-94461295D01*
X43874676Y-94406906D01*
X43876564Y-94350651D01*
X43875964Y-94319576D01*
X43874148Y-94289273D01*
X43871090Y-94259674D01*
X43866763Y-94230707D01*
X43861143Y-94202302D01*
X43854203Y-94174389D01*
X43845917Y-94146898D01*
X43836259Y-94119758D01*
X43825204Y-94092899D01*
X43812726Y-94066252D01*
X43798799Y-94039744D01*
X43783397Y-94013307D01*
X43766495Y-93986870D01*
X43748066Y-93960363D01*
X43728085Y-93933715D01*
X43706525Y-93906856D01*
X43677461Y-93872966D01*
X43646823Y-93839859D01*
X43614109Y-93807194D01*
X43578819Y-93774631D01*
X43540454Y-93741828D01*
X43498513Y-93708444D01*
X43452495Y-93674138D01*
X43401901Y-93638569D01*
X43284983Y-93562278D01*
X43143756Y-93476843D01*
X42974219Y-93379534D01*
X42772370Y-93267624D01*
X42609200Y-93177467D01*
X42468727Y-93098158D01*
X42347453Y-93027514D01*
X42241880Y-92963353D01*
X42148511Y-92903491D01*
X42063849Y-92845745D01*
X41984395Y-92787934D01*
X41906653Y-92727873D01*
X41865476Y-92693801D01*
X41820388Y-92654132D01*
X41773167Y-92610609D01*
X41725590Y-92564978D01*
X41679435Y-92518984D01*
X41636480Y-92474370D01*
X41598503Y-92432881D01*
X41581936Y-92413854D01*
X41567281Y-92396263D01*
X41522051Y-92337757D01*
X41480015Y-92278359D01*
X41441158Y-92218021D01*
X41405466Y-92156693D01*
X41372924Y-92094328D01*
X41343518Y-92030877D01*
X41317233Y-91966291D01*
X41294054Y-91900521D01*
X41273968Y-91833520D01*
X41256960Y-91765238D01*
X41243016Y-91695627D01*
X41232120Y-91624638D01*
X41224258Y-91552223D01*
X41219417Y-91478333D01*
X41217581Y-91402920D01*
X41218736Y-91325935D01*
X41223053Y-91240440D01*
X41229919Y-91156987D01*
X41239338Y-91075568D01*
X41251313Y-90996175D01*
X41265847Y-90918800D01*
X41282943Y-90843434D01*
X41302605Y-90770068D01*
X41324834Y-90698696D01*
X41349635Y-90629307D01*
X41377011Y-90561895D01*
X41406964Y-90496451D01*
X41439498Y-90432966D01*
X41474616Y-90371432D01*
X41512320Y-90311842D01*
X41552615Y-90254186D01*
X41595503Y-90198457D01*
X41607070Y-90184590D01*
X41620204Y-90169576D01*
X41650371Y-90136875D01*
X41684391Y-90101892D01*
X41720651Y-90066165D01*
X41757540Y-90031232D01*
X41793445Y-89998630D01*
X41826753Y-89969898D01*
X41841930Y-89957464D01*
X41855853Y-89946574D01*
X41908697Y-89908765D01*
X41963488Y-89872871D01*
X42020186Y-89838903D01*
X42078754Y-89806874D01*
X42139153Y-89776796D01*
X42201345Y-89748682D01*
X42265292Y-89722544D01*
X42330956Y-89698395D01*
X42398299Y-89676246D01*
X42467282Y-89656111D01*
X42537866Y-89638001D01*
X42610015Y-89621930D01*
X42683688Y-89607909D01*
X42758850Y-89595951D01*
X42835460Y-89586068D01*
X42913481Y-89578274D01*
X42960855Y-89575465D01*
X43022467Y-89573401D01*
X43093439Y-89572097D01*
X43168892Y-89571571D01*
X43243948Y-89571838D01*
G37*
G36*
X38994120Y-89979735D02*
G01*
X39763175Y-89979735D01*
X39763175Y-89626957D01*
X39960731Y-89626957D01*
X39960731Y-89979735D01*
X40214731Y-89979735D01*
X40214731Y-90198457D01*
X39960731Y-90198457D01*
X39960731Y-90572401D01*
X40214731Y-90572401D01*
X40214731Y-90798179D01*
X39960731Y-90798179D01*
X39960731Y-91172123D01*
X40214731Y-91172123D01*
X40214731Y-91390846D01*
X39960731Y-91390846D01*
X39960731Y-91764790D01*
X40214731Y-91764790D01*
X40214731Y-91990568D01*
X39960731Y-91990568D01*
X39960731Y-92364512D01*
X40214731Y-92364512D01*
X40214731Y-92590290D01*
X39960731Y-92590290D01*
X39960731Y-92957179D01*
X40214731Y-92957179D01*
X40214731Y-93190013D01*
X39960731Y-93190013D01*
X39960731Y-93518801D01*
X39569147Y-94013395D01*
X39177564Y-94508695D01*
X39177564Y-95620651D01*
X39313736Y-95756823D01*
X39449203Y-95892290D01*
X40115953Y-95892290D01*
X40115953Y-95307384D01*
X40115925Y-95117117D01*
X40115860Y-95039784D01*
X40115732Y-94973227D01*
X40115639Y-94943734D01*
X40115522Y-94916629D01*
X40115380Y-94891809D01*
X40115209Y-94869172D01*
X40115007Y-94848617D01*
X40114771Y-94830040D01*
X40114500Y-94813340D01*
X40114189Y-94798414D01*
X40113837Y-94785161D01*
X40113441Y-94773477D01*
X40112999Y-94763262D01*
X40112760Y-94758672D01*
X40112508Y-94754412D01*
X40112243Y-94750467D01*
X40111965Y-94746826D01*
X40111673Y-94743474D01*
X40111367Y-94740401D01*
X40111048Y-94737592D01*
X40110713Y-94735035D01*
X40110364Y-94732717D01*
X40110000Y-94730626D01*
X40109620Y-94728748D01*
X40109224Y-94727071D01*
X40108812Y-94725583D01*
X40108384Y-94724270D01*
X40107939Y-94723119D01*
X40107477Y-94722118D01*
X40106997Y-94721255D01*
X40106500Y-94720515D01*
X40105984Y-94719887D01*
X40105450Y-94719358D01*
X40104897Y-94718915D01*
X40104326Y-94718544D01*
X40103735Y-94718235D01*
X40103124Y-94717973D01*
X40101842Y-94717540D01*
X40099512Y-94716648D01*
X40097030Y-94715436D01*
X40091655Y-94712115D01*
X40085818Y-94707700D01*
X40079617Y-94702315D01*
X40073151Y-94696083D01*
X40066520Y-94689126D01*
X40059823Y-94681568D01*
X40053159Y-94673531D01*
X40046627Y-94665138D01*
X40040326Y-94656513D01*
X40034357Y-94647779D01*
X40028817Y-94639058D01*
X40023806Y-94630473D01*
X40019424Y-94622148D01*
X40015770Y-94614205D01*
X40012942Y-94606768D01*
X40009915Y-94596618D01*
X40007443Y-94586055D01*
X40005522Y-94575147D01*
X40004144Y-94563961D01*
X40003304Y-94552564D01*
X40002995Y-94541023D01*
X40003211Y-94529406D01*
X40003946Y-94517780D01*
X40005193Y-94506211D01*
X40006947Y-94494768D01*
X40009201Y-94483517D01*
X40011950Y-94472525D01*
X40015186Y-94461860D01*
X40018903Y-94451588D01*
X40023096Y-94441778D01*
X40027758Y-94432496D01*
X40032287Y-94424412D01*
X40036899Y-94416806D01*
X40041629Y-94409646D01*
X40046511Y-94402895D01*
X40051579Y-94396521D01*
X40056867Y-94390489D01*
X40062409Y-94384764D01*
X40068240Y-94379314D01*
X40074393Y-94374103D01*
X40080902Y-94369099D01*
X40087803Y-94364265D01*
X40095128Y-94359569D01*
X40102912Y-94354977D01*
X40111189Y-94350454D01*
X40119993Y-94345966D01*
X40129358Y-94341479D01*
X40140686Y-94336503D01*
X40145847Y-94334433D01*
X40150790Y-94332626D01*
X40155600Y-94331072D01*
X40160364Y-94329758D01*
X40165170Y-94328674D01*
X40170104Y-94327809D01*
X40175253Y-94327149D01*
X40180704Y-94326685D01*
X40186544Y-94326406D01*
X40192859Y-94326298D01*
X40199736Y-94326352D01*
X40207262Y-94326556D01*
X40224608Y-94327367D01*
X40236665Y-94328165D01*
X40248002Y-94329250D01*
X40258678Y-94330645D01*
X40268750Y-94332372D01*
X40278276Y-94334456D01*
X40287315Y-94336917D01*
X40295923Y-94339780D01*
X40304160Y-94343066D01*
X40312082Y-94346799D01*
X40319748Y-94351001D01*
X40327216Y-94355695D01*
X40334543Y-94360904D01*
X40341787Y-94366650D01*
X40349007Y-94372956D01*
X40356259Y-94379845D01*
X40363603Y-94387340D01*
X40371469Y-94395832D01*
X40378679Y-94404150D01*
X40385251Y-94412351D01*
X40391208Y-94420490D01*
X40396569Y-94428625D01*
X40401356Y-94436813D01*
X40405588Y-94445110D01*
X40409288Y-94453574D01*
X40412474Y-94462261D01*
X40415169Y-94471228D01*
X40417393Y-94480532D01*
X40419165Y-94490230D01*
X40420508Y-94500378D01*
X40421442Y-94511034D01*
X40421987Y-94522254D01*
X40422164Y-94534095D01*
X40422014Y-94547608D01*
X40421296Y-94560635D01*
X40420003Y-94573189D01*
X40418129Y-94585281D01*
X40415668Y-94596923D01*
X40412614Y-94608125D01*
X40408961Y-94618900D01*
X40404701Y-94629258D01*
X40399830Y-94639210D01*
X40397164Y-94644038D01*
X40394341Y-94648769D01*
X40391363Y-94653405D01*
X40388228Y-94657946D01*
X40381484Y-94666751D01*
X40374104Y-94675197D01*
X40366081Y-94683295D01*
X40357408Y-94691055D01*
X40348081Y-94698490D01*
X40314214Y-94724596D01*
X40314214Y-95406867D01*
X40313508Y-96089845D01*
X39364536Y-96089845D01*
X39172625Y-95897935D01*
X38980009Y-95705318D01*
X38980009Y-94432496D01*
X39371592Y-93937196D01*
X39763175Y-93442601D01*
X39763175Y-93190013D01*
X38994120Y-93190013D01*
X38994120Y-93512451D01*
X38993414Y-93835595D01*
X38867120Y-93994345D01*
X38740825Y-94153095D01*
X38740120Y-95098540D01*
X38740120Y-96043984D01*
X38775397Y-96074324D01*
X38784942Y-96082796D01*
X38793743Y-96091305D01*
X38801819Y-96099886D01*
X38809187Y-96108576D01*
X38815864Y-96117410D01*
X38821869Y-96126425D01*
X38827218Y-96135658D01*
X38831930Y-96145143D01*
X38836022Y-96154918D01*
X38839511Y-96165019D01*
X38842415Y-96175481D01*
X38844751Y-96186341D01*
X38846538Y-96197635D01*
X38847793Y-96209400D01*
X38848533Y-96221671D01*
X38848775Y-96234484D01*
X38848854Y-96251023D01*
X38848730Y-96258319D01*
X38848478Y-96265066D01*
X38848080Y-96271342D01*
X38847523Y-96277223D01*
X38846789Y-96282786D01*
X38845865Y-96288107D01*
X38844734Y-96293262D01*
X38843380Y-96298329D01*
X38841789Y-96303383D01*
X38839945Y-96308501D01*
X38837832Y-96313760D01*
X38835434Y-96319236D01*
X38832737Y-96325005D01*
X38829725Y-96331145D01*
X38822401Y-96344877D01*
X38814454Y-96357760D01*
X38805891Y-96369788D01*
X38796718Y-96380953D01*
X38786942Y-96391250D01*
X38776569Y-96400673D01*
X38765604Y-96409215D01*
X38754054Y-96416870D01*
X38741926Y-96423633D01*
X38729225Y-96429496D01*
X38715958Y-96434454D01*
X38702130Y-96438500D01*
X38687748Y-96441629D01*
X38672819Y-96443833D01*
X38657348Y-96445107D01*
X38641342Y-96445445D01*
X38628754Y-96445212D01*
X38616636Y-96444503D01*
X38604966Y-96443306D01*
X38593717Y-96441609D01*
X38582865Y-96439399D01*
X38572385Y-96436664D01*
X38562252Y-96433392D01*
X38552442Y-96429570D01*
X38542929Y-96425186D01*
X38533690Y-96420227D01*
X38524698Y-96414681D01*
X38515929Y-96408536D01*
X38507359Y-96401779D01*
X38498963Y-96394397D01*
X38490715Y-96386379D01*
X38482592Y-96377712D01*
X38475223Y-96369124D01*
X38468456Y-96360534D01*
X38462280Y-96351906D01*
X38456685Y-96343206D01*
X38451660Y-96334399D01*
X38447196Y-96325449D01*
X38443281Y-96316321D01*
X38439906Y-96306980D01*
X38437060Y-96297392D01*
X38434733Y-96287520D01*
X38432914Y-96277329D01*
X38431594Y-96266786D01*
X38430761Y-96255853D01*
X38430406Y-96244497D01*
X38430518Y-96232682D01*
X38431086Y-96220373D01*
X38432144Y-96208484D01*
X38433728Y-96196897D01*
X38435835Y-96185616D01*
X38438462Y-96174645D01*
X38441605Y-96163987D01*
X38445262Y-96153649D01*
X38449430Y-96143632D01*
X38454105Y-96133943D01*
X38459285Y-96124584D01*
X38464965Y-96115560D01*
X38471144Y-96106874D01*
X38477818Y-96098533D01*
X38484984Y-96090538D01*
X38492639Y-96082895D01*
X38500780Y-96075607D01*
X38509403Y-96068679D01*
X38542564Y-96043984D01*
X38542564Y-95532456D01*
X38179203Y-95532456D01*
X38148159Y-95568440D01*
X38138454Y-95579063D01*
X38128283Y-95588845D01*
X38117684Y-95597790D01*
X38106695Y-95605905D01*
X38095354Y-95613194D01*
X38083699Y-95619663D01*
X38071768Y-95625318D01*
X38059600Y-95630165D01*
X38047233Y-95634209D01*
X38034704Y-95637455D01*
X38022052Y-95639909D01*
X38009314Y-95641577D01*
X37996530Y-95642464D01*
X37983737Y-95642575D01*
X37970973Y-95641917D01*
X37958276Y-95640495D01*
X37945685Y-95638314D01*
X37933237Y-95635380D01*
X37920971Y-95631699D01*
X37908924Y-95627275D01*
X37897136Y-95622116D01*
X37885643Y-95616225D01*
X37874485Y-95609609D01*
X37863698Y-95602274D01*
X37853323Y-95594224D01*
X37843395Y-95585466D01*
X37833954Y-95576004D01*
X37825038Y-95565845D01*
X37816684Y-95554994D01*
X37808931Y-95543457D01*
X37801818Y-95531239D01*
X37795381Y-95518346D01*
X37792042Y-95510747D01*
X37789036Y-95503040D01*
X37786360Y-95495235D01*
X37784012Y-95487345D01*
X37781990Y-95479381D01*
X37780290Y-95471353D01*
X37778912Y-95463274D01*
X37777852Y-95455154D01*
X37776679Y-95438840D01*
X37776753Y-95422500D01*
X37778054Y-95406227D01*
X37780564Y-95390111D01*
X37784265Y-95374243D01*
X37789138Y-95358714D01*
X37795165Y-95343615D01*
X37802326Y-95329036D01*
X37806327Y-95321971D01*
X37810604Y-95315070D01*
X37815155Y-95308345D01*
X37819979Y-95301806D01*
X37825072Y-95295466D01*
X37830433Y-95289336D01*
X37836059Y-95283428D01*
X37841948Y-95277751D01*
X37850307Y-95270381D01*
X37858485Y-95263607D01*
X37866534Y-95257411D01*
X37874502Y-95251778D01*
X37882442Y-95246690D01*
X37890403Y-95242131D01*
X37898437Y-95238085D01*
X37906594Y-95234536D01*
X37914924Y-95231465D01*
X37923479Y-95228858D01*
X37932309Y-95226697D01*
X37941464Y-95224967D01*
X37950995Y-95223649D01*
X37960954Y-95222729D01*
X37971389Y-95222188D01*
X37982353Y-95222012D01*
X37995593Y-95222198D01*
X38008102Y-95222776D01*
X38019943Y-95223770D01*
X38031180Y-95225209D01*
X38041875Y-95227119D01*
X38052091Y-95229528D01*
X38061893Y-95232461D01*
X38071341Y-95235947D01*
X38080501Y-95240011D01*
X38089434Y-95244681D01*
X38098203Y-95249983D01*
X38106873Y-95255945D01*
X38115505Y-95262593D01*
X38124163Y-95269954D01*
X38132910Y-95278055D01*
X38141809Y-95286923D01*
X38182731Y-95327845D01*
X38542564Y-95327845D01*
X38542564Y-94925679D01*
X37886398Y-94925679D01*
X37886398Y-94519985D01*
X37850414Y-94488940D01*
X37839088Y-94478602D01*
X37828666Y-94467718D01*
X37819157Y-94456322D01*
X37810572Y-94444446D01*
X37802922Y-94432123D01*
X37796216Y-94419388D01*
X37790465Y-94406271D01*
X37785679Y-94392808D01*
X37781870Y-94379030D01*
X37779046Y-94364972D01*
X37777218Y-94350665D01*
X37776397Y-94336143D01*
X37776593Y-94321439D01*
X37777816Y-94306587D01*
X37780077Y-94291619D01*
X37783386Y-94276568D01*
X37788746Y-94258391D01*
X37795276Y-94241184D01*
X37798968Y-94232953D01*
X37802939Y-94224976D01*
X37807183Y-94217255D01*
X37811697Y-94209794D01*
X37816475Y-94202596D01*
X37821513Y-94195666D01*
X37826807Y-94189006D01*
X37832351Y-94182620D01*
X37838141Y-94176512D01*
X37844172Y-94170684D01*
X37850440Y-94165142D01*
X37856941Y-94159887D01*
X37863668Y-94154923D01*
X37870618Y-94150255D01*
X37877787Y-94145885D01*
X37885168Y-94141816D01*
X37892759Y-94138054D01*
X37900553Y-94134600D01*
X37908548Y-94131458D01*
X37916736Y-94128633D01*
X37925115Y-94126126D01*
X37933680Y-94123943D01*
X37951347Y-94120559D01*
X37969701Y-94118508D01*
X37988703Y-94117818D01*
X37996601Y-94118012D01*
X38004415Y-94118459D01*
X38012143Y-94119159D01*
X38019781Y-94120107D01*
X38027323Y-94121301D01*
X38034765Y-94122740D01*
X38042105Y-94124420D01*
X38049337Y-94126340D01*
X38056457Y-94128496D01*
X38063462Y-94130886D01*
X38070346Y-94133508D01*
X38077107Y-94136359D01*
X38083739Y-94139438D01*
X38090240Y-94142740D01*
X38096603Y-94146265D01*
X38102827Y-94150009D01*
X38108905Y-94153970D01*
X38114835Y-94158146D01*
X38120612Y-94162533D01*
X38126231Y-94167131D01*
X38131690Y-94171936D01*
X38136983Y-94176945D01*
X38142106Y-94182157D01*
X38147056Y-94187569D01*
X38151828Y-94193178D01*
X38156419Y-94198982D01*
X38160823Y-94204978D01*
X38165037Y-94211165D01*
X38169057Y-94217539D01*
X38172878Y-94224098D01*
X38176497Y-94230840D01*
X38179909Y-94237762D01*
X38183530Y-94246190D01*
X38186720Y-94255280D01*
X38189479Y-94264948D01*
X38191804Y-94275113D01*
X38193695Y-94285690D01*
X38195151Y-94296599D01*
X38196171Y-94307755D01*
X38196754Y-94319077D01*
X38196898Y-94330482D01*
X38196604Y-94341887D01*
X38195869Y-94353209D01*
X38194692Y-94364365D01*
X38193074Y-94375274D01*
X38191011Y-94385852D01*
X38188505Y-94396016D01*
X38185553Y-94405685D01*
X38182913Y-94412546D01*
X38179550Y-94419829D01*
X38175551Y-94427426D01*
X38171001Y-94435230D01*
X38165988Y-94443133D01*
X38160600Y-94451027D01*
X38154921Y-94458806D01*
X38149041Y-94466362D01*
X38143044Y-94473587D01*
X38137019Y-94480374D01*
X38131051Y-94486615D01*
X38125228Y-94492203D01*
X38119637Y-94497030D01*
X38114364Y-94500989D01*
X38111874Y-94502610D01*
X38109496Y-94503973D01*
X38107241Y-94505065D01*
X38105120Y-94505873D01*
X38102752Y-94506723D01*
X38100665Y-94507774D01*
X38098840Y-94509161D01*
X38097259Y-94511022D01*
X38095907Y-94513489D01*
X38094764Y-94516700D01*
X38093813Y-94520790D01*
X38093037Y-94525893D01*
X38092418Y-94532146D01*
X38091939Y-94539683D01*
X38091328Y-94559154D01*
X38091065Y-94585387D01*
X38091009Y-94619468D01*
X38091009Y-94728124D01*
X38542564Y-94728124D01*
X38542564Y-94077601D01*
X38669564Y-93918146D01*
X38796564Y-93757984D01*
X38796564Y-93190013D01*
X38542564Y-93190013D01*
X38542564Y-92957179D01*
X38796564Y-92957179D01*
X38796564Y-92590290D01*
X38994120Y-92590290D01*
X38994120Y-92957179D01*
X39763175Y-92957179D01*
X39763175Y-92590290D01*
X38994120Y-92590290D01*
X38796564Y-92590290D01*
X38542564Y-92590290D01*
X38542564Y-92364512D01*
X38796564Y-92364512D01*
X38796564Y-91990568D01*
X38994120Y-91990568D01*
X38994120Y-92364512D01*
X39763175Y-92364512D01*
X39763175Y-91990568D01*
X38994120Y-91990568D01*
X38796564Y-91990568D01*
X38542564Y-91990568D01*
X38542564Y-91764790D01*
X38796564Y-91764790D01*
X38796564Y-91390846D01*
X38994120Y-91390846D01*
X38994120Y-91764790D01*
X39763175Y-91764790D01*
X39763175Y-91390846D01*
X38994120Y-91390846D01*
X38796564Y-91390846D01*
X38542564Y-91390846D01*
X38542564Y-91172123D01*
X38796564Y-91172123D01*
X38796564Y-90798179D01*
X38994120Y-90798179D01*
X38994120Y-91172123D01*
X39763175Y-91172123D01*
X39763175Y-90798179D01*
X38994120Y-90798179D01*
X38796564Y-90798179D01*
X38542564Y-90798179D01*
X38542564Y-90572401D01*
X38796564Y-90572401D01*
X38796564Y-90198457D01*
X38994120Y-90198457D01*
X38994120Y-90572401D01*
X39763175Y-90572401D01*
X39763175Y-90198457D01*
X38994120Y-90198457D01*
X38796564Y-90198457D01*
X38542564Y-90198457D01*
X38542564Y-89979735D01*
X38796564Y-89979735D01*
X38796564Y-89626957D01*
X38994120Y-89626957D01*
X38994120Y-89979735D01*
G37*
D11*
X69596000Y-32766000D02*
X107696000Y-32766000D01*
X107696000Y-106426000D01*
X69596000Y-106426000D01*
X69596000Y-32766000D01*
D10*
G36*
X39395581Y-87250470D02*
G01*
X39438179Y-87251817D01*
X39477866Y-87253975D01*
X39511865Y-87256894D01*
X39525863Y-87258623D01*
X39537397Y-87260524D01*
X39568145Y-87266905D01*
X39598467Y-87274403D01*
X39628350Y-87283009D01*
X39657783Y-87292715D01*
X39686753Y-87303512D01*
X39715247Y-87315392D01*
X39743254Y-87328347D01*
X39770760Y-87342368D01*
X39797754Y-87357448D01*
X39824222Y-87373578D01*
X39850154Y-87390750D01*
X39875535Y-87408955D01*
X39900354Y-87428186D01*
X39924599Y-87448433D01*
X39948256Y-87469689D01*
X39971314Y-87491946D01*
X39991149Y-87512426D01*
X40010173Y-87533382D01*
X40028385Y-87554812D01*
X40045783Y-87576712D01*
X40062367Y-87599079D01*
X40078135Y-87621910D01*
X40093087Y-87645202D01*
X40107222Y-87668952D01*
X40120538Y-87693157D01*
X40133034Y-87717813D01*
X40144709Y-87742918D01*
X40155563Y-87768469D01*
X40165595Y-87794461D01*
X40174802Y-87820893D01*
X40183185Y-87847761D01*
X40190742Y-87875062D01*
X40197233Y-87902464D01*
X40202687Y-87930865D01*
X40207107Y-87960121D01*
X40210497Y-87990090D01*
X40212863Y-88020630D01*
X40214207Y-88051597D01*
X40214534Y-88082850D01*
X40213849Y-88114246D01*
X40212154Y-88145641D01*
X40209456Y-88176894D01*
X40205756Y-88207862D01*
X40201060Y-88238402D01*
X40195373Y-88268371D01*
X40188697Y-88297627D01*
X40181037Y-88326027D01*
X40172397Y-88353429D01*
X40163903Y-88377370D01*
X40154814Y-88400791D01*
X40145112Y-88423718D01*
X40134782Y-88446177D01*
X40123808Y-88468193D01*
X40112172Y-88489793D01*
X40099857Y-88511002D01*
X40086849Y-88531846D01*
X40073129Y-88552352D01*
X40058682Y-88572544D01*
X40043490Y-88592449D01*
X40027538Y-88612092D01*
X40010809Y-88631500D01*
X39993286Y-88650698D01*
X39974952Y-88669712D01*
X39955792Y-88688568D01*
X39927795Y-88714514D01*
X39899097Y-88738909D01*
X39869692Y-88761756D01*
X39839574Y-88783057D01*
X39808736Y-88802817D01*
X39777173Y-88821037D01*
X39744879Y-88837722D01*
X39711846Y-88852874D01*
X39678069Y-88866497D01*
X39643542Y-88878593D01*
X39608259Y-88889165D01*
X39572212Y-88898217D01*
X39535397Y-88905752D01*
X39497806Y-88911773D01*
X39459435Y-88916283D01*
X39420275Y-88919285D01*
X39376550Y-88920613D01*
X39333007Y-88919589D01*
X39289728Y-88916244D01*
X39246797Y-88910608D01*
X39204295Y-88902711D01*
X39162306Y-88892582D01*
X39120913Y-88880252D01*
X39080197Y-88865751D01*
X39040243Y-88849108D01*
X39001131Y-88830353D01*
X38962946Y-88809517D01*
X38925769Y-88786629D01*
X38889684Y-88761720D01*
X38854773Y-88734819D01*
X38821118Y-88705957D01*
X38788803Y-88675162D01*
X38759411Y-88644517D01*
X38731834Y-88612925D01*
X38706081Y-88580415D01*
X38682165Y-88547016D01*
X38660097Y-88512757D01*
X38639888Y-88477667D01*
X38621550Y-88441776D01*
X38605094Y-88405111D01*
X38590531Y-88367702D01*
X38577874Y-88329578D01*
X38567132Y-88290768D01*
X38558318Y-88251300D01*
X38551443Y-88211204D01*
X38546518Y-88170508D01*
X38543554Y-88129242D01*
X38542564Y-88087434D01*
X38543320Y-88050961D01*
X38545572Y-88014852D01*
X38549291Y-87979142D01*
X38554452Y-87943865D01*
X38561029Y-87909055D01*
X38568995Y-87874747D01*
X38578323Y-87840974D01*
X38588988Y-87807770D01*
X38600961Y-87775170D01*
X38614218Y-87743208D01*
X38628731Y-87711917D01*
X38644474Y-87681333D01*
X38661421Y-87651488D01*
X38679545Y-87622417D01*
X38698819Y-87594155D01*
X38719218Y-87566735D01*
X38740714Y-87540191D01*
X38763281Y-87514558D01*
X38786893Y-87489870D01*
X38811523Y-87466160D01*
X38837144Y-87443463D01*
X38863731Y-87421814D01*
X38891257Y-87401245D01*
X38919695Y-87381791D01*
X38949018Y-87363487D01*
X38979201Y-87346366D01*
X39010216Y-87330463D01*
X39042038Y-87315811D01*
X39074640Y-87302445D01*
X39107995Y-87290398D01*
X39142076Y-87279706D01*
X39176859Y-87270402D01*
X39199458Y-87265088D01*
X39221132Y-87260171D01*
X39230836Y-87258068D01*
X39239366Y-87256313D01*
X39246408Y-87254987D01*
X39251647Y-87254174D01*
X39263678Y-87252850D01*
X39278106Y-87251784D01*
X39312766Y-87250403D01*
X39352851Y-87249982D01*
X39395581Y-87250470D01*
G37*
D12*
X28260059Y-83990328D02*
X28260059Y-82490328D01*
X28260059Y-82490328D02*
X29117202Y-83990328D01*
X29117202Y-83990328D02*
X29117202Y-82490328D01*
X30117203Y-82490328D02*
X30402917Y-82490328D01*
X30402917Y-82490328D02*
X30545774Y-82561757D01*
X30545774Y-82561757D02*
X30688631Y-82704614D01*
X30688631Y-82704614D02*
X30760060Y-82990328D01*
X30760060Y-82990328D02*
X30760060Y-83490328D01*
X30760060Y-83490328D02*
X30688631Y-83776042D01*
X30688631Y-83776042D02*
X30545774Y-83918900D01*
X30545774Y-83918900D02*
X30402917Y-83990328D01*
X30402917Y-83990328D02*
X30117203Y-83990328D01*
X30117203Y-83990328D02*
X29974346Y-83918900D01*
X29974346Y-83918900D02*
X29831488Y-83776042D01*
X29831488Y-83776042D02*
X29760060Y-83490328D01*
X29760060Y-83490328D02*
X29760060Y-82990328D01*
X29760060Y-82990328D02*
X29831488Y-82704614D01*
X29831488Y-82704614D02*
X29974346Y-82561757D01*
X29974346Y-82561757D02*
X30117203Y-82490328D01*
X32545774Y-83990328D02*
X32545774Y-82490328D01*
X32545774Y-82490328D02*
X32902917Y-82490328D01*
X32902917Y-82490328D02*
X33117203Y-82561757D01*
X33117203Y-82561757D02*
X33260060Y-82704614D01*
X33260060Y-82704614D02*
X33331489Y-82847471D01*
X33331489Y-82847471D02*
X33402917Y-83133185D01*
X33402917Y-83133185D02*
X33402917Y-83347471D01*
X33402917Y-83347471D02*
X33331489Y-83633185D01*
X33331489Y-83633185D02*
X33260060Y-83776042D01*
X33260060Y-83776042D02*
X33117203Y-83918900D01*
X33117203Y-83918900D02*
X32902917Y-83990328D01*
X32902917Y-83990328D02*
X32545774Y-83990328D01*
X34045774Y-83204614D02*
X34545774Y-83204614D01*
X34760060Y-83990328D02*
X34045774Y-83990328D01*
X34045774Y-83990328D02*
X34045774Y-82490328D01*
X34045774Y-82490328D02*
X34760060Y-82490328D01*
X35188632Y-82490328D02*
X36045775Y-82490328D01*
X35617203Y-83990328D02*
X35617203Y-82490328D01*
X36545774Y-83204614D02*
X37045774Y-83204614D01*
X37260060Y-83990328D02*
X36545774Y-83990328D01*
X36545774Y-83990328D02*
X36545774Y-82490328D01*
X36545774Y-82490328D02*
X37260060Y-82490328D01*
X38760060Y-83847471D02*
X38688632Y-83918900D01*
X38688632Y-83918900D02*
X38474346Y-83990328D01*
X38474346Y-83990328D02*
X38331489Y-83990328D01*
X38331489Y-83990328D02*
X38117203Y-83918900D01*
X38117203Y-83918900D02*
X37974346Y-83776042D01*
X37974346Y-83776042D02*
X37902917Y-83633185D01*
X37902917Y-83633185D02*
X37831489Y-83347471D01*
X37831489Y-83347471D02*
X37831489Y-83133185D01*
X37831489Y-83133185D02*
X37902917Y-82847471D01*
X37902917Y-82847471D02*
X37974346Y-82704614D01*
X37974346Y-82704614D02*
X38117203Y-82561757D01*
X38117203Y-82561757D02*
X38331489Y-82490328D01*
X38331489Y-82490328D02*
X38474346Y-82490328D01*
X38474346Y-82490328D02*
X38688632Y-82561757D01*
X38688632Y-82561757D02*
X38760060Y-82633185D01*
X39188632Y-82490328D02*
X40045775Y-82490328D01*
X39617203Y-83990328D02*
X39617203Y-82490328D01*
X60726143Y-31879870D02*
X61583286Y-31879870D01*
X61154714Y-33379870D02*
X61154714Y-31879870D01*
X62083285Y-32594156D02*
X62583285Y-32594156D01*
X62797571Y-33379870D02*
X62083285Y-33379870D01*
X62083285Y-33379870D02*
X62083285Y-31879870D01*
X62083285Y-31879870D02*
X62797571Y-31879870D01*
X63369000Y-33308442D02*
X63583286Y-33379870D01*
X63583286Y-33379870D02*
X63940428Y-33379870D01*
X63940428Y-33379870D02*
X64083286Y-33308442D01*
X64083286Y-33308442D02*
X64154714Y-33237013D01*
X64154714Y-33237013D02*
X64226143Y-33094156D01*
X64226143Y-33094156D02*
X64226143Y-32951299D01*
X64226143Y-32951299D02*
X64154714Y-32808442D01*
X64154714Y-32808442D02*
X64083286Y-32737013D01*
X64083286Y-32737013D02*
X63940428Y-32665584D01*
X63940428Y-32665584D02*
X63654714Y-32594156D01*
X63654714Y-32594156D02*
X63511857Y-32522727D01*
X63511857Y-32522727D02*
X63440428Y-32451299D01*
X63440428Y-32451299D02*
X63369000Y-32308442D01*
X63369000Y-32308442D02*
X63369000Y-32165584D01*
X63369000Y-32165584D02*
X63440428Y-32022727D01*
X63440428Y-32022727D02*
X63511857Y-31951299D01*
X63511857Y-31951299D02*
X63654714Y-31879870D01*
X63654714Y-31879870D02*
X64011857Y-31879870D01*
X64011857Y-31879870D02*
X64226143Y-31951299D01*
X64654714Y-31879870D02*
X65511857Y-31879870D01*
X65083285Y-33379870D02*
X65083285Y-31879870D01*
X61118999Y-35794786D02*
X61118999Y-34294786D01*
X61118999Y-34294786D02*
X61690428Y-34294786D01*
X61690428Y-34294786D02*
X61833285Y-34366215D01*
X61833285Y-34366215D02*
X61904714Y-34437643D01*
X61904714Y-34437643D02*
X61976142Y-34580500D01*
X61976142Y-34580500D02*
X61976142Y-34794786D01*
X61976142Y-34794786D02*
X61904714Y-34937643D01*
X61904714Y-34937643D02*
X61833285Y-35009072D01*
X61833285Y-35009072D02*
X61690428Y-35080500D01*
X61690428Y-35080500D02*
X61118999Y-35080500D01*
X62476142Y-34294786D02*
X62833285Y-35794786D01*
X62833285Y-35794786D02*
X63118999Y-34723358D01*
X63118999Y-34723358D02*
X63404714Y-35794786D01*
X63404714Y-35794786D02*
X63761857Y-34294786D01*
X65190428Y-35794786D02*
X64690428Y-35080500D01*
X64333285Y-35794786D02*
X64333285Y-34294786D01*
X64333285Y-34294786D02*
X64904714Y-34294786D01*
X64904714Y-34294786D02*
X65047571Y-34366215D01*
X65047571Y-34366215D02*
X65119000Y-34437643D01*
X65119000Y-34437643D02*
X65190428Y-34580500D01*
X65190428Y-34580500D02*
X65190428Y-34794786D01*
X65190428Y-34794786D02*
X65119000Y-34937643D01*
X65119000Y-34937643D02*
X65047571Y-35009072D01*
X65047571Y-35009072D02*
X64904714Y-35080500D01*
X64904714Y-35080500D02*
X64333285Y-35080500D01*
X61063428Y-60621442D02*
X62206286Y-60621442D01*
X61634857Y-61192870D02*
X61634857Y-60050013D01*
X63634857Y-59692870D02*
X62920571Y-59692870D01*
X62920571Y-59692870D02*
X62849143Y-60407156D01*
X62849143Y-60407156D02*
X62920571Y-60335727D01*
X62920571Y-60335727D02*
X63063429Y-60264299D01*
X63063429Y-60264299D02*
X63420571Y-60264299D01*
X63420571Y-60264299D02*
X63563429Y-60335727D01*
X63563429Y-60335727D02*
X63634857Y-60407156D01*
X63634857Y-60407156D02*
X63706286Y-60550013D01*
X63706286Y-60550013D02*
X63706286Y-60907156D01*
X63706286Y-60907156D02*
X63634857Y-61050013D01*
X63634857Y-61050013D02*
X63563429Y-61121442D01*
X63563429Y-61121442D02*
X63420571Y-61192870D01*
X63420571Y-61192870D02*
X63063429Y-61192870D01*
X63063429Y-61192870D02*
X62920571Y-61121442D01*
X62920571Y-61121442D02*
X62849143Y-61050013D01*
X64134857Y-59692870D02*
X64634857Y-61192870D01*
X64634857Y-61192870D02*
X65134857Y-59692870D01*
X60991999Y-63607786D02*
X60991999Y-62107786D01*
X60991999Y-62107786D02*
X61563428Y-62107786D01*
X61563428Y-62107786D02*
X61706285Y-62179215D01*
X61706285Y-62179215D02*
X61777714Y-62250643D01*
X61777714Y-62250643D02*
X61849142Y-62393500D01*
X61849142Y-62393500D02*
X61849142Y-62607786D01*
X61849142Y-62607786D02*
X61777714Y-62750643D01*
X61777714Y-62750643D02*
X61706285Y-62822072D01*
X61706285Y-62822072D02*
X61563428Y-62893500D01*
X61563428Y-62893500D02*
X60991999Y-62893500D01*
X62349142Y-62107786D02*
X62706285Y-63607786D01*
X62706285Y-63607786D02*
X62991999Y-62536358D01*
X62991999Y-62536358D02*
X63277714Y-63607786D01*
X63277714Y-63607786D02*
X63634857Y-62107786D01*
X65063428Y-63607786D02*
X64563428Y-62893500D01*
X64206285Y-63607786D02*
X64206285Y-62107786D01*
X64206285Y-62107786D02*
X64777714Y-62107786D01*
X64777714Y-62107786D02*
X64920571Y-62179215D01*
X64920571Y-62179215D02*
X64992000Y-62250643D01*
X64992000Y-62250643D02*
X65063428Y-62393500D01*
X65063428Y-62393500D02*
X65063428Y-62607786D01*
X65063428Y-62607786D02*
X64992000Y-62750643D01*
X64992000Y-62750643D02*
X64920571Y-62822072D01*
X64920571Y-62822072D02*
X64777714Y-62893500D01*
X64777714Y-62893500D02*
X64206285Y-62893500D01*
X32545774Y-78910328D02*
X32545774Y-77410328D01*
X32545774Y-77410328D02*
X32902917Y-77410328D01*
X32902917Y-77410328D02*
X33117203Y-77481757D01*
X33117203Y-77481757D02*
X33260060Y-77624614D01*
X33260060Y-77624614D02*
X33331489Y-77767471D01*
X33331489Y-77767471D02*
X33402917Y-78053185D01*
X33402917Y-78053185D02*
X33402917Y-78267471D01*
X33402917Y-78267471D02*
X33331489Y-78553185D01*
X33331489Y-78553185D02*
X33260060Y-78696042D01*
X33260060Y-78696042D02*
X33117203Y-78838900D01*
X33117203Y-78838900D02*
X32902917Y-78910328D01*
X32902917Y-78910328D02*
X32545774Y-78910328D01*
X34045774Y-78124614D02*
X34545774Y-78124614D01*
X34760060Y-78910328D02*
X34045774Y-78910328D01*
X34045774Y-78910328D02*
X34045774Y-77410328D01*
X34045774Y-77410328D02*
X34760060Y-77410328D01*
X35188632Y-77410328D02*
X36045775Y-77410328D01*
X35617203Y-78910328D02*
X35617203Y-77410328D01*
X36545774Y-78124614D02*
X37045774Y-78124614D01*
X37260060Y-78910328D02*
X36545774Y-78910328D01*
X36545774Y-78910328D02*
X36545774Y-77410328D01*
X36545774Y-77410328D02*
X37260060Y-77410328D01*
X38760060Y-78767471D02*
X38688632Y-78838900D01*
X38688632Y-78838900D02*
X38474346Y-78910328D01*
X38474346Y-78910328D02*
X38331489Y-78910328D01*
X38331489Y-78910328D02*
X38117203Y-78838900D01*
X38117203Y-78838900D02*
X37974346Y-78696042D01*
X37974346Y-78696042D02*
X37902917Y-78553185D01*
X37902917Y-78553185D02*
X37831489Y-78267471D01*
X37831489Y-78267471D02*
X37831489Y-78053185D01*
X37831489Y-78053185D02*
X37902917Y-77767471D01*
X37902917Y-77767471D02*
X37974346Y-77624614D01*
X37974346Y-77624614D02*
X38117203Y-77481757D01*
X38117203Y-77481757D02*
X38331489Y-77410328D01*
X38331489Y-77410328D02*
X38474346Y-77410328D01*
X38474346Y-77410328D02*
X38688632Y-77481757D01*
X38688632Y-77481757D02*
X38760060Y-77553185D01*
X39188632Y-77410328D02*
X40045775Y-77410328D01*
X39617203Y-78910328D02*
X39617203Y-77410328D01*
X30000345Y-98317614D02*
X30214631Y-98389042D01*
X30214631Y-98389042D02*
X30286060Y-98460471D01*
X30286060Y-98460471D02*
X30357488Y-98603328D01*
X30357488Y-98603328D02*
X30357488Y-98817614D01*
X30357488Y-98817614D02*
X30286060Y-98960471D01*
X30286060Y-98960471D02*
X30214631Y-99031900D01*
X30214631Y-99031900D02*
X30071774Y-99103328D01*
X30071774Y-99103328D02*
X29500345Y-99103328D01*
X29500345Y-99103328D02*
X29500345Y-97603328D01*
X29500345Y-97603328D02*
X30000345Y-97603328D01*
X30000345Y-97603328D02*
X30143203Y-97674757D01*
X30143203Y-97674757D02*
X30214631Y-97746185D01*
X30214631Y-97746185D02*
X30286060Y-97889042D01*
X30286060Y-97889042D02*
X30286060Y-98031900D01*
X30286060Y-98031900D02*
X30214631Y-98174757D01*
X30214631Y-98174757D02*
X30143203Y-98246185D01*
X30143203Y-98246185D02*
X30000345Y-98317614D01*
X30000345Y-98317614D02*
X29500345Y-98317614D01*
X31714631Y-99103328D02*
X31000345Y-99103328D01*
X31000345Y-99103328D02*
X31000345Y-97603328D01*
X32500346Y-97603328D02*
X32786060Y-97603328D01*
X32786060Y-97603328D02*
X32928917Y-97674757D01*
X32928917Y-97674757D02*
X33071774Y-97817614D01*
X33071774Y-97817614D02*
X33143203Y-98103328D01*
X33143203Y-98103328D02*
X33143203Y-98603328D01*
X33143203Y-98603328D02*
X33071774Y-98889042D01*
X33071774Y-98889042D02*
X32928917Y-99031900D01*
X32928917Y-99031900D02*
X32786060Y-99103328D01*
X32786060Y-99103328D02*
X32500346Y-99103328D01*
X32500346Y-99103328D02*
X32357489Y-99031900D01*
X32357489Y-99031900D02*
X32214631Y-98889042D01*
X32214631Y-98889042D02*
X32143203Y-98603328D01*
X32143203Y-98603328D02*
X32143203Y-98103328D01*
X32143203Y-98103328D02*
X32214631Y-97817614D01*
X32214631Y-97817614D02*
X32357489Y-97674757D01*
X32357489Y-97674757D02*
X32500346Y-97603328D01*
X34643203Y-98960471D02*
X34571775Y-99031900D01*
X34571775Y-99031900D02*
X34357489Y-99103328D01*
X34357489Y-99103328D02*
X34214632Y-99103328D01*
X34214632Y-99103328D02*
X34000346Y-99031900D01*
X34000346Y-99031900D02*
X33857489Y-98889042D01*
X33857489Y-98889042D02*
X33786060Y-98746185D01*
X33786060Y-98746185D02*
X33714632Y-98460471D01*
X33714632Y-98460471D02*
X33714632Y-98246185D01*
X33714632Y-98246185D02*
X33786060Y-97960471D01*
X33786060Y-97960471D02*
X33857489Y-97817614D01*
X33857489Y-97817614D02*
X34000346Y-97674757D01*
X34000346Y-97674757D02*
X34214632Y-97603328D01*
X34214632Y-97603328D02*
X34357489Y-97603328D01*
X34357489Y-97603328D02*
X34571775Y-97674757D01*
X34571775Y-97674757D02*
X34643203Y-97746185D01*
X35286060Y-99103328D02*
X35286060Y-97603328D01*
X36143203Y-99103328D02*
X35500346Y-98246185D01*
X36143203Y-97603328D02*
X35286060Y-98460471D01*
X37928917Y-99103328D02*
X37928917Y-97603328D01*
X37928917Y-97603328D02*
X38286060Y-97603328D01*
X38286060Y-97603328D02*
X38500346Y-97674757D01*
X38500346Y-97674757D02*
X38643203Y-97817614D01*
X38643203Y-97817614D02*
X38714632Y-97960471D01*
X38714632Y-97960471D02*
X38786060Y-98246185D01*
X38786060Y-98246185D02*
X38786060Y-98460471D01*
X38786060Y-98460471D02*
X38714632Y-98746185D01*
X38714632Y-98746185D02*
X38643203Y-98889042D01*
X38643203Y-98889042D02*
X38500346Y-99031900D01*
X38500346Y-99031900D02*
X38286060Y-99103328D01*
X38286060Y-99103328D02*
X37928917Y-99103328D01*
X39428917Y-98317614D02*
X39928917Y-98317614D01*
X40143203Y-99103328D02*
X39428917Y-99103328D01*
X39428917Y-99103328D02*
X39428917Y-97603328D01*
X39428917Y-97603328D02*
X40143203Y-97603328D01*
X40571775Y-97603328D02*
X41428918Y-97603328D01*
X41000346Y-99103328D02*
X41000346Y-97603328D01*
X41928917Y-98317614D02*
X42428917Y-98317614D01*
X42643203Y-99103328D02*
X41928917Y-99103328D01*
X41928917Y-99103328D02*
X41928917Y-97603328D01*
X41928917Y-97603328D02*
X42643203Y-97603328D01*
X44143203Y-98960471D02*
X44071775Y-99031900D01*
X44071775Y-99031900D02*
X43857489Y-99103328D01*
X43857489Y-99103328D02*
X43714632Y-99103328D01*
X43714632Y-99103328D02*
X43500346Y-99031900D01*
X43500346Y-99031900D02*
X43357489Y-98889042D01*
X43357489Y-98889042D02*
X43286060Y-98746185D01*
X43286060Y-98746185D02*
X43214632Y-98460471D01*
X43214632Y-98460471D02*
X43214632Y-98246185D01*
X43214632Y-98246185D02*
X43286060Y-97960471D01*
X43286060Y-97960471D02*
X43357489Y-97817614D01*
X43357489Y-97817614D02*
X43500346Y-97674757D01*
X43500346Y-97674757D02*
X43714632Y-97603328D01*
X43714632Y-97603328D02*
X43857489Y-97603328D01*
X43857489Y-97603328D02*
X44071775Y-97674757D01*
X44071775Y-97674757D02*
X44143203Y-97746185D01*
X44571775Y-97603328D02*
X45428918Y-97603328D01*
X45000346Y-99103328D02*
X45000346Y-97603328D01*
X46214632Y-97603328D02*
X46500346Y-97603328D01*
X46500346Y-97603328D02*
X46643203Y-97674757D01*
X46643203Y-97674757D02*
X46786060Y-97817614D01*
X46786060Y-97817614D02*
X46857489Y-98103328D01*
X46857489Y-98103328D02*
X46857489Y-98603328D01*
X46857489Y-98603328D02*
X46786060Y-98889042D01*
X46786060Y-98889042D02*
X46643203Y-99031900D01*
X46643203Y-99031900D02*
X46500346Y-99103328D01*
X46500346Y-99103328D02*
X46214632Y-99103328D01*
X46214632Y-99103328D02*
X46071775Y-99031900D01*
X46071775Y-99031900D02*
X45928917Y-98889042D01*
X45928917Y-98889042D02*
X45857489Y-98603328D01*
X45857489Y-98603328D02*
X45857489Y-98103328D01*
X45857489Y-98103328D02*
X45928917Y-97817614D01*
X45928917Y-97817614D02*
X46071775Y-97674757D01*
X46071775Y-97674757D02*
X46214632Y-97603328D01*
X48357489Y-99103328D02*
X47857489Y-98389042D01*
X47500346Y-99103328D02*
X47500346Y-97603328D01*
X47500346Y-97603328D02*
X48071775Y-97603328D01*
X48071775Y-97603328D02*
X48214632Y-97674757D01*
X48214632Y-97674757D02*
X48286061Y-97746185D01*
X48286061Y-97746185D02*
X48357489Y-97889042D01*
X48357489Y-97889042D02*
X48357489Y-98103328D01*
X48357489Y-98103328D02*
X48286061Y-98246185D01*
X48286061Y-98246185D02*
X48214632Y-98317614D01*
X48214632Y-98317614D02*
X48071775Y-98389042D01*
X48071775Y-98389042D02*
X47500346Y-98389042D01*
X49928918Y-97603328D02*
X50786061Y-97603328D01*
X50357489Y-99103328D02*
X50357489Y-97603328D01*
X51286060Y-98317614D02*
X51786060Y-98317614D01*
X52000346Y-99103328D02*
X51286060Y-99103328D01*
X51286060Y-99103328D02*
X51286060Y-97603328D01*
X51286060Y-97603328D02*
X52000346Y-97603328D01*
X52571775Y-99031900D02*
X52786061Y-99103328D01*
X52786061Y-99103328D02*
X53143203Y-99103328D01*
X53143203Y-99103328D02*
X53286061Y-99031900D01*
X53286061Y-99031900D02*
X53357489Y-98960471D01*
X53357489Y-98960471D02*
X53428918Y-98817614D01*
X53428918Y-98817614D02*
X53428918Y-98674757D01*
X53428918Y-98674757D02*
X53357489Y-98531900D01*
X53357489Y-98531900D02*
X53286061Y-98460471D01*
X53286061Y-98460471D02*
X53143203Y-98389042D01*
X53143203Y-98389042D02*
X52857489Y-98317614D01*
X52857489Y-98317614D02*
X52714632Y-98246185D01*
X52714632Y-98246185D02*
X52643203Y-98174757D01*
X52643203Y-98174757D02*
X52571775Y-98031900D01*
X52571775Y-98031900D02*
X52571775Y-97889042D01*
X52571775Y-97889042D02*
X52643203Y-97746185D01*
X52643203Y-97746185D02*
X52714632Y-97674757D01*
X52714632Y-97674757D02*
X52857489Y-97603328D01*
X52857489Y-97603328D02*
X53214632Y-97603328D01*
X53214632Y-97603328D02*
X53428918Y-97674757D01*
X53857489Y-97603328D02*
X54714632Y-97603328D01*
X54286060Y-99103328D02*
X54286060Y-97603328D01*
X55214631Y-98317614D02*
X55714631Y-98317614D01*
X55928917Y-99103328D02*
X55214631Y-99103328D01*
X55214631Y-99103328D02*
X55214631Y-97603328D01*
X55214631Y-97603328D02*
X55928917Y-97603328D01*
X57428917Y-99103328D02*
X56928917Y-98389042D01*
X56571774Y-99103328D02*
X56571774Y-97603328D01*
X56571774Y-97603328D02*
X57143203Y-97603328D01*
X57143203Y-97603328D02*
X57286060Y-97674757D01*
X57286060Y-97674757D02*
X57357489Y-97746185D01*
X57357489Y-97746185D02*
X57428917Y-97889042D01*
X57428917Y-97889042D02*
X57428917Y-98103328D01*
X57428917Y-98103328D02*
X57357489Y-98246185D01*
X57357489Y-98246185D02*
X57286060Y-98317614D01*
X57286060Y-98317614D02*
X57143203Y-98389042D01*
X57143203Y-98389042D02*
X56571774Y-98389042D01*
X149364142Y-100054870D02*
X149364142Y-98554870D01*
X149364142Y-98554870D02*
X149721285Y-98554870D01*
X149721285Y-98554870D02*
X149935571Y-98626299D01*
X149935571Y-98626299D02*
X150078428Y-98769156D01*
X150078428Y-98769156D02*
X150149857Y-98912013D01*
X150149857Y-98912013D02*
X150221285Y-99197727D01*
X150221285Y-99197727D02*
X150221285Y-99412013D01*
X150221285Y-99412013D02*
X150149857Y-99697727D01*
X150149857Y-99697727D02*
X150078428Y-99840584D01*
X150078428Y-99840584D02*
X149935571Y-99983442D01*
X149935571Y-99983442D02*
X149721285Y-100054870D01*
X149721285Y-100054870D02*
X149364142Y-100054870D01*
X151721285Y-99912013D02*
X151649857Y-99983442D01*
X151649857Y-99983442D02*
X151435571Y-100054870D01*
X151435571Y-100054870D02*
X151292714Y-100054870D01*
X151292714Y-100054870D02*
X151078428Y-99983442D01*
X151078428Y-99983442D02*
X150935571Y-99840584D01*
X150935571Y-99840584D02*
X150864142Y-99697727D01*
X150864142Y-99697727D02*
X150792714Y-99412013D01*
X150792714Y-99412013D02*
X150792714Y-99197727D01*
X150792714Y-99197727D02*
X150864142Y-98912013D01*
X150864142Y-98912013D02*
X150935571Y-98769156D01*
X150935571Y-98769156D02*
X151078428Y-98626299D01*
X151078428Y-98626299D02*
X151292714Y-98554870D01*
X151292714Y-98554870D02*
X151435571Y-98554870D01*
X151435571Y-98554870D02*
X151649857Y-98626299D01*
X151649857Y-98626299D02*
X151721285Y-98697727D01*
X153221285Y-99912013D02*
X153149857Y-99983442D01*
X153149857Y-99983442D02*
X152935571Y-100054870D01*
X152935571Y-100054870D02*
X152792714Y-100054870D01*
X152792714Y-100054870D02*
X152578428Y-99983442D01*
X152578428Y-99983442D02*
X152435571Y-99840584D01*
X152435571Y-99840584D02*
X152364142Y-99697727D01*
X152364142Y-99697727D02*
X152292714Y-99412013D01*
X152292714Y-99412013D02*
X152292714Y-99197727D01*
X152292714Y-99197727D02*
X152364142Y-98912013D01*
X152364142Y-98912013D02*
X152435571Y-98769156D01*
X152435571Y-98769156D02*
X152578428Y-98626299D01*
X152578428Y-98626299D02*
X152792714Y-98554870D01*
X152792714Y-98554870D02*
X152935571Y-98554870D01*
X152935571Y-98554870D02*
X153149857Y-98626299D01*
X153149857Y-98626299D02*
X153221285Y-98697727D01*
X146721285Y-102469786D02*
X146721285Y-100969786D01*
X146721285Y-100969786D02*
X147292714Y-100969786D01*
X147292714Y-100969786D02*
X147435571Y-101041215D01*
X147435571Y-101041215D02*
X147507000Y-101112643D01*
X147507000Y-101112643D02*
X147578428Y-101255500D01*
X147578428Y-101255500D02*
X147578428Y-101469786D01*
X147578428Y-101469786D02*
X147507000Y-101612643D01*
X147507000Y-101612643D02*
X147435571Y-101684072D01*
X147435571Y-101684072D02*
X147292714Y-101755500D01*
X147292714Y-101755500D02*
X146721285Y-101755500D01*
X148221285Y-102469786D02*
X148221285Y-100969786D01*
X148221285Y-101684072D02*
X149078428Y-101684072D01*
X149078428Y-102469786D02*
X149078428Y-100969786D01*
X149721286Y-102041215D02*
X150435572Y-102041215D01*
X149578429Y-102469786D02*
X150078429Y-100969786D01*
X150078429Y-100969786D02*
X150578429Y-102469786D01*
X151007000Y-102398358D02*
X151221286Y-102469786D01*
X151221286Y-102469786D02*
X151578428Y-102469786D01*
X151578428Y-102469786D02*
X151721286Y-102398358D01*
X151721286Y-102398358D02*
X151792714Y-102326929D01*
X151792714Y-102326929D02*
X151864143Y-102184072D01*
X151864143Y-102184072D02*
X151864143Y-102041215D01*
X151864143Y-102041215D02*
X151792714Y-101898358D01*
X151792714Y-101898358D02*
X151721286Y-101826929D01*
X151721286Y-101826929D02*
X151578428Y-101755500D01*
X151578428Y-101755500D02*
X151292714Y-101684072D01*
X151292714Y-101684072D02*
X151149857Y-101612643D01*
X151149857Y-101612643D02*
X151078428Y-101541215D01*
X151078428Y-101541215D02*
X151007000Y-101398358D01*
X151007000Y-101398358D02*
X151007000Y-101255500D01*
X151007000Y-101255500D02*
X151078428Y-101112643D01*
X151078428Y-101112643D02*
X151149857Y-101041215D01*
X151149857Y-101041215D02*
X151292714Y-100969786D01*
X151292714Y-100969786D02*
X151649857Y-100969786D01*
X151649857Y-100969786D02*
X151864143Y-101041215D01*
X152506999Y-101684072D02*
X153006999Y-101684072D01*
X153221285Y-102469786D02*
X152506999Y-102469786D01*
X152506999Y-102469786D02*
X152506999Y-100969786D01*
X152506999Y-100969786D02*
X153221285Y-100969786D01*
X155506999Y-101684072D02*
X155721285Y-101755500D01*
X155721285Y-101755500D02*
X155792714Y-101826929D01*
X155792714Y-101826929D02*
X155864142Y-101969786D01*
X155864142Y-101969786D02*
X155864142Y-102184072D01*
X155864142Y-102184072D02*
X155792714Y-102326929D01*
X155792714Y-102326929D02*
X155721285Y-102398358D01*
X155721285Y-102398358D02*
X155578428Y-102469786D01*
X155578428Y-102469786D02*
X155006999Y-102469786D01*
X155006999Y-102469786D02*
X155006999Y-100969786D01*
X155006999Y-100969786D02*
X155506999Y-100969786D01*
X155506999Y-100969786D02*
X155649857Y-101041215D01*
X155649857Y-101041215D02*
X155721285Y-101112643D01*
X155721285Y-101112643D02*
X155792714Y-101255500D01*
X155792714Y-101255500D02*
X155792714Y-101398358D01*
X155792714Y-101398358D02*
X155721285Y-101541215D01*
X155721285Y-101541215D02*
X155649857Y-101612643D01*
X155649857Y-101612643D02*
X155506999Y-101684072D01*
X155506999Y-101684072D02*
X155006999Y-101684072D01*
X34340918Y-100857614D02*
X34555204Y-100929042D01*
X34555204Y-100929042D02*
X34626633Y-101000471D01*
X34626633Y-101000471D02*
X34698061Y-101143328D01*
X34698061Y-101143328D02*
X34698061Y-101357614D01*
X34698061Y-101357614D02*
X34626633Y-101500471D01*
X34626633Y-101500471D02*
X34555204Y-101571900D01*
X34555204Y-101571900D02*
X34412347Y-101643328D01*
X34412347Y-101643328D02*
X33840918Y-101643328D01*
X33840918Y-101643328D02*
X33840918Y-100143328D01*
X33840918Y-100143328D02*
X34340918Y-100143328D01*
X34340918Y-100143328D02*
X34483776Y-100214757D01*
X34483776Y-100214757D02*
X34555204Y-100286185D01*
X34555204Y-100286185D02*
X34626633Y-100429042D01*
X34626633Y-100429042D02*
X34626633Y-100571900D01*
X34626633Y-100571900D02*
X34555204Y-100714757D01*
X34555204Y-100714757D02*
X34483776Y-100786185D01*
X34483776Y-100786185D02*
X34340918Y-100857614D01*
X34340918Y-100857614D02*
X33840918Y-100857614D01*
X35340918Y-101643328D02*
X35340918Y-100143328D01*
X35340918Y-100143328D02*
X35698061Y-100143328D01*
X35698061Y-100143328D02*
X35912347Y-100214757D01*
X35912347Y-100214757D02*
X36055204Y-100357614D01*
X36055204Y-100357614D02*
X36126633Y-100500471D01*
X36126633Y-100500471D02*
X36198061Y-100786185D01*
X36198061Y-100786185D02*
X36198061Y-101000471D01*
X36198061Y-101000471D02*
X36126633Y-101286185D01*
X36126633Y-101286185D02*
X36055204Y-101429042D01*
X36055204Y-101429042D02*
X35912347Y-101571900D01*
X35912347Y-101571900D02*
X35698061Y-101643328D01*
X35698061Y-101643328D02*
X35340918Y-101643328D01*
X36840918Y-101071900D02*
X37983776Y-101071900D01*
X38483776Y-100143328D02*
X39340919Y-100143328D01*
X38912347Y-101643328D02*
X38912347Y-100143328D01*
X39840918Y-100857614D02*
X40340918Y-100857614D01*
X40555204Y-101643328D02*
X39840918Y-101643328D01*
X39840918Y-101643328D02*
X39840918Y-100143328D01*
X39840918Y-100143328D02*
X40555204Y-100143328D01*
X41126633Y-101571900D02*
X41340919Y-101643328D01*
X41340919Y-101643328D02*
X41698061Y-101643328D01*
X41698061Y-101643328D02*
X41840919Y-101571900D01*
X41840919Y-101571900D02*
X41912347Y-101500471D01*
X41912347Y-101500471D02*
X41983776Y-101357614D01*
X41983776Y-101357614D02*
X41983776Y-101214757D01*
X41983776Y-101214757D02*
X41912347Y-101071900D01*
X41912347Y-101071900D02*
X41840919Y-101000471D01*
X41840919Y-101000471D02*
X41698061Y-100929042D01*
X41698061Y-100929042D02*
X41412347Y-100857614D01*
X41412347Y-100857614D02*
X41269490Y-100786185D01*
X41269490Y-100786185D02*
X41198061Y-100714757D01*
X41198061Y-100714757D02*
X41126633Y-100571900D01*
X41126633Y-100571900D02*
X41126633Y-100429042D01*
X41126633Y-100429042D02*
X41198061Y-100286185D01*
X41198061Y-100286185D02*
X41269490Y-100214757D01*
X41269490Y-100214757D02*
X41412347Y-100143328D01*
X41412347Y-100143328D02*
X41769490Y-100143328D01*
X41769490Y-100143328D02*
X41983776Y-100214757D01*
X42412347Y-100143328D02*
X43269490Y-100143328D01*
X42840918Y-101643328D02*
X42840918Y-100143328D01*
X43769489Y-100857614D02*
X44269489Y-100857614D01*
X44483775Y-101643328D02*
X43769489Y-101643328D01*
X43769489Y-101643328D02*
X43769489Y-100143328D01*
X43769489Y-100143328D02*
X44483775Y-100143328D01*
X45983775Y-101643328D02*
X45483775Y-100929042D01*
X45126632Y-101643328D02*
X45126632Y-100143328D01*
X45126632Y-100143328D02*
X45698061Y-100143328D01*
X45698061Y-100143328D02*
X45840918Y-100214757D01*
X45840918Y-100214757D02*
X45912347Y-100286185D01*
X45912347Y-100286185D02*
X45983775Y-100429042D01*
X45983775Y-100429042D02*
X45983775Y-100643328D01*
X45983775Y-100643328D02*
X45912347Y-100786185D01*
X45912347Y-100786185D02*
X45840918Y-100857614D01*
X45840918Y-100857614D02*
X45698061Y-100929042D01*
X45698061Y-100929042D02*
X45126632Y-100929042D01*
X47626632Y-100643328D02*
X47983775Y-101643328D01*
X47983775Y-101643328D02*
X48340918Y-100643328D01*
X49698061Y-101643328D02*
X48840918Y-101643328D01*
X49269489Y-101643328D02*
X49269489Y-100143328D01*
X49269489Y-100143328D02*
X49126632Y-100357614D01*
X49126632Y-100357614D02*
X48983775Y-100500471D01*
X48983775Y-100500471D02*
X48840918Y-100571900D01*
X50340917Y-101500471D02*
X50412346Y-101571900D01*
X50412346Y-101571900D02*
X50340917Y-101643328D01*
X50340917Y-101643328D02*
X50269489Y-101571900D01*
X50269489Y-101571900D02*
X50340917Y-101500471D01*
X50340917Y-101500471D02*
X50340917Y-101643328D01*
X51340918Y-100143328D02*
X51483775Y-100143328D01*
X51483775Y-100143328D02*
X51626632Y-100214757D01*
X51626632Y-100214757D02*
X51698061Y-100286185D01*
X51698061Y-100286185D02*
X51769489Y-100429042D01*
X51769489Y-100429042D02*
X51840918Y-100714757D01*
X51840918Y-100714757D02*
X51840918Y-101071900D01*
X51840918Y-101071900D02*
X51769489Y-101357614D01*
X51769489Y-101357614D02*
X51698061Y-101500471D01*
X51698061Y-101500471D02*
X51626632Y-101571900D01*
X51626632Y-101571900D02*
X51483775Y-101643328D01*
X51483775Y-101643328D02*
X51340918Y-101643328D01*
X51340918Y-101643328D02*
X51198061Y-101571900D01*
X51198061Y-101571900D02*
X51126632Y-101500471D01*
X51126632Y-101500471D02*
X51055203Y-101357614D01*
X51055203Y-101357614D02*
X50983775Y-101071900D01*
X50983775Y-101071900D02*
X50983775Y-100714757D01*
X50983775Y-100714757D02*
X51055203Y-100429042D01*
X51055203Y-100429042D02*
X51126632Y-100286185D01*
X51126632Y-100286185D02*
X51198061Y-100214757D01*
X51198061Y-100214757D02*
X51340918Y-100143328D01*
X60599143Y-39245870D02*
X61456286Y-39245870D01*
X61027714Y-40745870D02*
X61027714Y-39245870D01*
X61956285Y-39960156D02*
X62456285Y-39960156D01*
X62670571Y-40745870D02*
X61956285Y-40745870D01*
X61956285Y-40745870D02*
X61956285Y-39245870D01*
X61956285Y-39245870D02*
X62670571Y-39245870D01*
X63242000Y-40674442D02*
X63456286Y-40745870D01*
X63456286Y-40745870D02*
X63813428Y-40745870D01*
X63813428Y-40745870D02*
X63956286Y-40674442D01*
X63956286Y-40674442D02*
X64027714Y-40603013D01*
X64027714Y-40603013D02*
X64099143Y-40460156D01*
X64099143Y-40460156D02*
X64099143Y-40317299D01*
X64099143Y-40317299D02*
X64027714Y-40174442D01*
X64027714Y-40174442D02*
X63956286Y-40103013D01*
X63956286Y-40103013D02*
X63813428Y-40031584D01*
X63813428Y-40031584D02*
X63527714Y-39960156D01*
X63527714Y-39960156D02*
X63384857Y-39888727D01*
X63384857Y-39888727D02*
X63313428Y-39817299D01*
X63313428Y-39817299D02*
X63242000Y-39674442D01*
X63242000Y-39674442D02*
X63242000Y-39531584D01*
X63242000Y-39531584D02*
X63313428Y-39388727D01*
X63313428Y-39388727D02*
X63384857Y-39317299D01*
X63384857Y-39317299D02*
X63527714Y-39245870D01*
X63527714Y-39245870D02*
X63884857Y-39245870D01*
X63884857Y-39245870D02*
X64099143Y-39317299D01*
X64527714Y-39245870D02*
X65384857Y-39245870D01*
X64956285Y-40745870D02*
X64956285Y-39245870D01*
X61099142Y-43160786D02*
X61099142Y-41660786D01*
X61099142Y-41660786D02*
X61456285Y-41660786D01*
X61456285Y-41660786D02*
X61670571Y-41732215D01*
X61670571Y-41732215D02*
X61813428Y-41875072D01*
X61813428Y-41875072D02*
X61884857Y-42017929D01*
X61884857Y-42017929D02*
X61956285Y-42303643D01*
X61956285Y-42303643D02*
X61956285Y-42517929D01*
X61956285Y-42517929D02*
X61884857Y-42803643D01*
X61884857Y-42803643D02*
X61813428Y-42946500D01*
X61813428Y-42946500D02*
X61670571Y-43089358D01*
X61670571Y-43089358D02*
X61456285Y-43160786D01*
X61456285Y-43160786D02*
X61099142Y-43160786D01*
X63456285Y-43017929D02*
X63384857Y-43089358D01*
X63384857Y-43089358D02*
X63170571Y-43160786D01*
X63170571Y-43160786D02*
X63027714Y-43160786D01*
X63027714Y-43160786D02*
X62813428Y-43089358D01*
X62813428Y-43089358D02*
X62670571Y-42946500D01*
X62670571Y-42946500D02*
X62599142Y-42803643D01*
X62599142Y-42803643D02*
X62527714Y-42517929D01*
X62527714Y-42517929D02*
X62527714Y-42303643D01*
X62527714Y-42303643D02*
X62599142Y-42017929D01*
X62599142Y-42017929D02*
X62670571Y-41875072D01*
X62670571Y-41875072D02*
X62813428Y-41732215D01*
X62813428Y-41732215D02*
X63027714Y-41660786D01*
X63027714Y-41660786D02*
X63170571Y-41660786D01*
X63170571Y-41660786D02*
X63384857Y-41732215D01*
X63384857Y-41732215D02*
X63456285Y-41803643D01*
X64956285Y-43017929D02*
X64884857Y-43089358D01*
X64884857Y-43089358D02*
X64670571Y-43160786D01*
X64670571Y-43160786D02*
X64527714Y-43160786D01*
X64527714Y-43160786D02*
X64313428Y-43089358D01*
X64313428Y-43089358D02*
X64170571Y-42946500D01*
X64170571Y-42946500D02*
X64099142Y-42803643D01*
X64099142Y-42803643D02*
X64027714Y-42517929D01*
X64027714Y-42517929D02*
X64027714Y-42303643D01*
X64027714Y-42303643D02*
X64099142Y-42017929D01*
X64099142Y-42017929D02*
X64170571Y-41875072D01*
X64170571Y-41875072D02*
X64313428Y-41732215D01*
X64313428Y-41732215D02*
X64527714Y-41660786D01*
X64527714Y-41660786D02*
X64670571Y-41660786D01*
X64670571Y-41660786D02*
X64884857Y-41732215D01*
X64884857Y-41732215D02*
X64956285Y-41803643D01*
X129540572Y-93274383D02*
X130254858Y-93274383D01*
X129397715Y-93702954D02*
X129897715Y-92202954D01*
X129897715Y-92202954D02*
X130397715Y-93702954D01*
X131754857Y-93560097D02*
X131683429Y-93631526D01*
X131683429Y-93631526D02*
X131469143Y-93702954D01*
X131469143Y-93702954D02*
X131326286Y-93702954D01*
X131326286Y-93702954D02*
X131112000Y-93631526D01*
X131112000Y-93631526D02*
X130969143Y-93488668D01*
X130969143Y-93488668D02*
X130897714Y-93345811D01*
X130897714Y-93345811D02*
X130826286Y-93060097D01*
X130826286Y-93060097D02*
X130826286Y-92845811D01*
X130826286Y-92845811D02*
X130897714Y-92560097D01*
X130897714Y-92560097D02*
X130969143Y-92417240D01*
X130969143Y-92417240D02*
X131112000Y-92274383D01*
X131112000Y-92274383D02*
X131326286Y-92202954D01*
X131326286Y-92202954D02*
X131469143Y-92202954D01*
X131469143Y-92202954D02*
X131683429Y-92274383D01*
X131683429Y-92274383D02*
X131754857Y-92345811D01*
X132183429Y-92202954D02*
X133040572Y-92202954D01*
X132612000Y-93702954D02*
X132612000Y-92202954D01*
X133540571Y-93702954D02*
X133540571Y-92202954D01*
X134040572Y-92202954D02*
X134540572Y-93702954D01*
X134540572Y-93702954D02*
X135040572Y-92202954D01*
X135469143Y-93274383D02*
X136183429Y-93274383D01*
X135326286Y-93702954D02*
X135826286Y-92202954D01*
X135826286Y-92202954D02*
X136326286Y-93702954D01*
X136612000Y-92202954D02*
X137469143Y-92202954D01*
X137040571Y-93702954D02*
X137040571Y-92202954D01*
X137969142Y-92917240D02*
X138469142Y-92917240D01*
X138683428Y-93702954D02*
X137969142Y-93702954D01*
X137969142Y-93702954D02*
X137969142Y-92202954D01*
X137969142Y-92202954D02*
X138683428Y-92202954D01*
X128897714Y-96117870D02*
X128897714Y-94617870D01*
X128897714Y-94617870D02*
X129254857Y-94617870D01*
X129254857Y-94617870D02*
X129469143Y-94689299D01*
X129469143Y-94689299D02*
X129612000Y-94832156D01*
X129612000Y-94832156D02*
X129683429Y-94975013D01*
X129683429Y-94975013D02*
X129754857Y-95260727D01*
X129754857Y-95260727D02*
X129754857Y-95475013D01*
X129754857Y-95475013D02*
X129683429Y-95760727D01*
X129683429Y-95760727D02*
X129612000Y-95903584D01*
X129612000Y-95903584D02*
X129469143Y-96046442D01*
X129469143Y-96046442D02*
X129254857Y-96117870D01*
X129254857Y-96117870D02*
X128897714Y-96117870D01*
X131254857Y-95975013D02*
X131183429Y-96046442D01*
X131183429Y-96046442D02*
X130969143Y-96117870D01*
X130969143Y-96117870D02*
X130826286Y-96117870D01*
X130826286Y-96117870D02*
X130612000Y-96046442D01*
X130612000Y-96046442D02*
X130469143Y-95903584D01*
X130469143Y-95903584D02*
X130397714Y-95760727D01*
X130397714Y-95760727D02*
X130326286Y-95475013D01*
X130326286Y-95475013D02*
X130326286Y-95260727D01*
X130326286Y-95260727D02*
X130397714Y-94975013D01*
X130397714Y-94975013D02*
X130469143Y-94832156D01*
X130469143Y-94832156D02*
X130612000Y-94689299D01*
X130612000Y-94689299D02*
X130826286Y-94617870D01*
X130826286Y-94617870D02*
X130969143Y-94617870D01*
X130969143Y-94617870D02*
X131183429Y-94689299D01*
X131183429Y-94689299D02*
X131254857Y-94760727D01*
X132754857Y-95975013D02*
X132683429Y-96046442D01*
X132683429Y-96046442D02*
X132469143Y-96117870D01*
X132469143Y-96117870D02*
X132326286Y-96117870D01*
X132326286Y-96117870D02*
X132112000Y-96046442D01*
X132112000Y-96046442D02*
X131969143Y-95903584D01*
X131969143Y-95903584D02*
X131897714Y-95760727D01*
X131897714Y-95760727D02*
X131826286Y-95475013D01*
X131826286Y-95475013D02*
X131826286Y-95260727D01*
X131826286Y-95260727D02*
X131897714Y-94975013D01*
X131897714Y-94975013D02*
X131969143Y-94832156D01*
X131969143Y-94832156D02*
X132112000Y-94689299D01*
X132112000Y-94689299D02*
X132326286Y-94617870D01*
X132326286Y-94617870D02*
X132469143Y-94617870D01*
X132469143Y-94617870D02*
X132683429Y-94689299D01*
X132683429Y-94689299D02*
X132754857Y-94760727D01*
X135040571Y-95332156D02*
X134540571Y-95332156D01*
X134540571Y-96117870D02*
X134540571Y-94617870D01*
X134540571Y-94617870D02*
X135254857Y-94617870D01*
X136112000Y-94617870D02*
X136397714Y-94617870D01*
X136397714Y-94617870D02*
X136540571Y-94689299D01*
X136540571Y-94689299D02*
X136683428Y-94832156D01*
X136683428Y-94832156D02*
X136754857Y-95117870D01*
X136754857Y-95117870D02*
X136754857Y-95617870D01*
X136754857Y-95617870D02*
X136683428Y-95903584D01*
X136683428Y-95903584D02*
X136540571Y-96046442D01*
X136540571Y-96046442D02*
X136397714Y-96117870D01*
X136397714Y-96117870D02*
X136112000Y-96117870D01*
X136112000Y-96117870D02*
X135969143Y-96046442D01*
X135969143Y-96046442D02*
X135826285Y-95903584D01*
X135826285Y-95903584D02*
X135754857Y-95617870D01*
X135754857Y-95617870D02*
X135754857Y-95117870D01*
X135754857Y-95117870D02*
X135826285Y-94832156D01*
X135826285Y-94832156D02*
X135969143Y-94689299D01*
X135969143Y-94689299D02*
X136112000Y-94617870D01*
X138254857Y-96117870D02*
X137754857Y-95403584D01*
X137397714Y-96117870D02*
X137397714Y-94617870D01*
X137397714Y-94617870D02*
X137969143Y-94617870D01*
X137969143Y-94617870D02*
X138112000Y-94689299D01*
X138112000Y-94689299D02*
X138183429Y-94760727D01*
X138183429Y-94760727D02*
X138254857Y-94903584D01*
X138254857Y-94903584D02*
X138254857Y-95117870D01*
X138254857Y-95117870D02*
X138183429Y-95260727D01*
X138183429Y-95260727D02*
X138112000Y-95332156D01*
X138112000Y-95332156D02*
X137969143Y-95403584D01*
X137969143Y-95403584D02*
X137397714Y-95403584D01*
X130826285Y-98532786D02*
X130826285Y-97032786D01*
X130826285Y-97032786D02*
X131326285Y-98104215D01*
X131326285Y-98104215D02*
X131826285Y-97032786D01*
X131826285Y-97032786D02*
X131826285Y-98532786D01*
X132826286Y-97032786D02*
X133112000Y-97032786D01*
X133112000Y-97032786D02*
X133254857Y-97104215D01*
X133254857Y-97104215D02*
X133397714Y-97247072D01*
X133397714Y-97247072D02*
X133469143Y-97532786D01*
X133469143Y-97532786D02*
X133469143Y-98032786D01*
X133469143Y-98032786D02*
X133397714Y-98318500D01*
X133397714Y-98318500D02*
X133254857Y-98461358D01*
X133254857Y-98461358D02*
X133112000Y-98532786D01*
X133112000Y-98532786D02*
X132826286Y-98532786D01*
X132826286Y-98532786D02*
X132683429Y-98461358D01*
X132683429Y-98461358D02*
X132540571Y-98318500D01*
X132540571Y-98318500D02*
X132469143Y-98032786D01*
X132469143Y-98032786D02*
X132469143Y-97532786D01*
X132469143Y-97532786D02*
X132540571Y-97247072D01*
X132540571Y-97247072D02*
X132683429Y-97104215D01*
X132683429Y-97104215D02*
X132826286Y-97032786D01*
X134826286Y-98532786D02*
X134112000Y-98532786D01*
X134112000Y-98532786D02*
X134112000Y-97032786D01*
X135326286Y-97747072D02*
X135826286Y-97747072D01*
X136040572Y-98532786D02*
X135326286Y-98532786D01*
X135326286Y-98532786D02*
X135326286Y-97032786D01*
X135326286Y-97032786D02*
X136040572Y-97032786D01*
X136540572Y-97032786D02*
X137540572Y-98532786D01*
X137540572Y-97032786D02*
X136540572Y-98532786D01*
X130861999Y-100947702D02*
X130861999Y-99447702D01*
X130861999Y-99447702D02*
X131433428Y-99447702D01*
X131433428Y-99447702D02*
X131576285Y-99519131D01*
X131576285Y-99519131D02*
X131647714Y-99590559D01*
X131647714Y-99590559D02*
X131719142Y-99733416D01*
X131719142Y-99733416D02*
X131719142Y-99947702D01*
X131719142Y-99947702D02*
X131647714Y-100090559D01*
X131647714Y-100090559D02*
X131576285Y-100161988D01*
X131576285Y-100161988D02*
X131433428Y-100233416D01*
X131433428Y-100233416D02*
X130861999Y-100233416D01*
X133076285Y-100947702D02*
X132361999Y-100947702D01*
X132361999Y-100947702D02*
X132361999Y-99447702D01*
X133576285Y-99447702D02*
X133576285Y-100661988D01*
X133576285Y-100661988D02*
X133647714Y-100804845D01*
X133647714Y-100804845D02*
X133719143Y-100876274D01*
X133719143Y-100876274D02*
X133862000Y-100947702D01*
X133862000Y-100947702D02*
X134147714Y-100947702D01*
X134147714Y-100947702D02*
X134290571Y-100876274D01*
X134290571Y-100876274D02*
X134362000Y-100804845D01*
X134362000Y-100804845D02*
X134433428Y-100661988D01*
X134433428Y-100661988D02*
X134433428Y-99447702D01*
X135933429Y-99519131D02*
X135790572Y-99447702D01*
X135790572Y-99447702D02*
X135576286Y-99447702D01*
X135576286Y-99447702D02*
X135362000Y-99519131D01*
X135362000Y-99519131D02*
X135219143Y-99661988D01*
X135219143Y-99661988D02*
X135147714Y-99804845D01*
X135147714Y-99804845D02*
X135076286Y-100090559D01*
X135076286Y-100090559D02*
X135076286Y-100304845D01*
X135076286Y-100304845D02*
X135147714Y-100590559D01*
X135147714Y-100590559D02*
X135219143Y-100733416D01*
X135219143Y-100733416D02*
X135362000Y-100876274D01*
X135362000Y-100876274D02*
X135576286Y-100947702D01*
X135576286Y-100947702D02*
X135719143Y-100947702D01*
X135719143Y-100947702D02*
X135933429Y-100876274D01*
X135933429Y-100876274D02*
X136004857Y-100804845D01*
X136004857Y-100804845D02*
X136004857Y-100304845D01*
X136004857Y-100304845D02*
X135719143Y-100304845D01*
X136576286Y-100876274D02*
X136790572Y-100947702D01*
X136790572Y-100947702D02*
X137147714Y-100947702D01*
X137147714Y-100947702D02*
X137290572Y-100876274D01*
X137290572Y-100876274D02*
X137362000Y-100804845D01*
X137362000Y-100804845D02*
X137433429Y-100661988D01*
X137433429Y-100661988D02*
X137433429Y-100519131D01*
X137433429Y-100519131D02*
X137362000Y-100376274D01*
X137362000Y-100376274D02*
X137290572Y-100304845D01*
X137290572Y-100304845D02*
X137147714Y-100233416D01*
X137147714Y-100233416D02*
X136862000Y-100161988D01*
X136862000Y-100161988D02*
X136719143Y-100090559D01*
X136719143Y-100090559D02*
X136647714Y-100019131D01*
X136647714Y-100019131D02*
X136576286Y-99876274D01*
X136576286Y-99876274D02*
X136576286Y-99733416D01*
X136576286Y-99733416D02*
X136647714Y-99590559D01*
X136647714Y-99590559D02*
X136719143Y-99519131D01*
X136719143Y-99519131D02*
X136862000Y-99447702D01*
X136862000Y-99447702D02*
X137219143Y-99447702D01*
X137219143Y-99447702D02*
X137433429Y-99519131D01*
X114566142Y-100181870D02*
X114566142Y-98681870D01*
X114566142Y-98681870D02*
X114923285Y-98681870D01*
X114923285Y-98681870D02*
X115137571Y-98753299D01*
X115137571Y-98753299D02*
X115280428Y-98896156D01*
X115280428Y-98896156D02*
X115351857Y-99039013D01*
X115351857Y-99039013D02*
X115423285Y-99324727D01*
X115423285Y-99324727D02*
X115423285Y-99539013D01*
X115423285Y-99539013D02*
X115351857Y-99824727D01*
X115351857Y-99824727D02*
X115280428Y-99967584D01*
X115280428Y-99967584D02*
X115137571Y-100110442D01*
X115137571Y-100110442D02*
X114923285Y-100181870D01*
X114923285Y-100181870D02*
X114566142Y-100181870D01*
X116923285Y-100039013D02*
X116851857Y-100110442D01*
X116851857Y-100110442D02*
X116637571Y-100181870D01*
X116637571Y-100181870D02*
X116494714Y-100181870D01*
X116494714Y-100181870D02*
X116280428Y-100110442D01*
X116280428Y-100110442D02*
X116137571Y-99967584D01*
X116137571Y-99967584D02*
X116066142Y-99824727D01*
X116066142Y-99824727D02*
X115994714Y-99539013D01*
X115994714Y-99539013D02*
X115994714Y-99324727D01*
X115994714Y-99324727D02*
X116066142Y-99039013D01*
X116066142Y-99039013D02*
X116137571Y-98896156D01*
X116137571Y-98896156D02*
X116280428Y-98753299D01*
X116280428Y-98753299D02*
X116494714Y-98681870D01*
X116494714Y-98681870D02*
X116637571Y-98681870D01*
X116637571Y-98681870D02*
X116851857Y-98753299D01*
X116851857Y-98753299D02*
X116923285Y-98824727D01*
X118423285Y-100039013D02*
X118351857Y-100110442D01*
X118351857Y-100110442D02*
X118137571Y-100181870D01*
X118137571Y-100181870D02*
X117994714Y-100181870D01*
X117994714Y-100181870D02*
X117780428Y-100110442D01*
X117780428Y-100110442D02*
X117637571Y-99967584D01*
X117637571Y-99967584D02*
X117566142Y-99824727D01*
X117566142Y-99824727D02*
X117494714Y-99539013D01*
X117494714Y-99539013D02*
X117494714Y-99324727D01*
X117494714Y-99324727D02*
X117566142Y-99039013D01*
X117566142Y-99039013D02*
X117637571Y-98896156D01*
X117637571Y-98896156D02*
X117780428Y-98753299D01*
X117780428Y-98753299D02*
X117994714Y-98681870D01*
X117994714Y-98681870D02*
X118137571Y-98681870D01*
X118137571Y-98681870D02*
X118351857Y-98753299D01*
X118351857Y-98753299D02*
X118423285Y-98824727D01*
X112030428Y-102596786D02*
X112030428Y-101096786D01*
X112030428Y-101096786D02*
X112601857Y-101096786D01*
X112601857Y-101096786D02*
X112744714Y-101168215D01*
X112744714Y-101168215D02*
X112816143Y-101239643D01*
X112816143Y-101239643D02*
X112887571Y-101382500D01*
X112887571Y-101382500D02*
X112887571Y-101596786D01*
X112887571Y-101596786D02*
X112816143Y-101739643D01*
X112816143Y-101739643D02*
X112744714Y-101811072D01*
X112744714Y-101811072D02*
X112601857Y-101882500D01*
X112601857Y-101882500D02*
X112030428Y-101882500D01*
X113530428Y-102596786D02*
X113530428Y-101096786D01*
X113530428Y-101811072D02*
X114387571Y-101811072D01*
X114387571Y-102596786D02*
X114387571Y-101096786D01*
X115030429Y-102168215D02*
X115744715Y-102168215D01*
X114887572Y-102596786D02*
X115387572Y-101096786D01*
X115387572Y-101096786D02*
X115887572Y-102596786D01*
X116316143Y-102525358D02*
X116530429Y-102596786D01*
X116530429Y-102596786D02*
X116887571Y-102596786D01*
X116887571Y-102596786D02*
X117030429Y-102525358D01*
X117030429Y-102525358D02*
X117101857Y-102453929D01*
X117101857Y-102453929D02*
X117173286Y-102311072D01*
X117173286Y-102311072D02*
X117173286Y-102168215D01*
X117173286Y-102168215D02*
X117101857Y-102025358D01*
X117101857Y-102025358D02*
X117030429Y-101953929D01*
X117030429Y-101953929D02*
X116887571Y-101882500D01*
X116887571Y-101882500D02*
X116601857Y-101811072D01*
X116601857Y-101811072D02*
X116459000Y-101739643D01*
X116459000Y-101739643D02*
X116387571Y-101668215D01*
X116387571Y-101668215D02*
X116316143Y-101525358D01*
X116316143Y-101525358D02*
X116316143Y-101382500D01*
X116316143Y-101382500D02*
X116387571Y-101239643D01*
X116387571Y-101239643D02*
X116459000Y-101168215D01*
X116459000Y-101168215D02*
X116601857Y-101096786D01*
X116601857Y-101096786D02*
X116959000Y-101096786D01*
X116959000Y-101096786D02*
X117173286Y-101168215D01*
X117816142Y-101811072D02*
X118316142Y-101811072D01*
X118530428Y-102596786D02*
X117816142Y-102596786D01*
X117816142Y-102596786D02*
X117816142Y-101096786D01*
X117816142Y-101096786D02*
X118530428Y-101096786D01*
X120244714Y-102168215D02*
X120959000Y-102168215D01*
X120101857Y-102596786D02*
X120601857Y-101096786D01*
X120601857Y-101096786D02*
X121101857Y-102596786D01*
D11*
X153624914Y-46435333D02*
X154339199Y-46435333D01*
X154339199Y-46435333D02*
X154482056Y-46482952D01*
X154482056Y-46482952D02*
X154577295Y-46578190D01*
X154577295Y-46578190D02*
X154624914Y-46721047D01*
X154624914Y-46721047D02*
X154624914Y-46816285D01*
X153624914Y-46054380D02*
X153624914Y-45435333D01*
X153624914Y-45435333D02*
X154005866Y-45768666D01*
X154005866Y-45768666D02*
X154005866Y-45625809D01*
X154005866Y-45625809D02*
X154053485Y-45530571D01*
X154053485Y-45530571D02*
X154101104Y-45482952D01*
X154101104Y-45482952D02*
X154196342Y-45435333D01*
X154196342Y-45435333D02*
X154434437Y-45435333D01*
X154434437Y-45435333D02*
X154529675Y-45482952D01*
X154529675Y-45482952D02*
X154577295Y-45530571D01*
X154577295Y-45530571D02*
X154624914Y-45625809D01*
X154624914Y-45625809D02*
X154624914Y-45911523D01*
X154624914Y-45911523D02*
X154577295Y-46006761D01*
X154577295Y-46006761D02*
X154529675Y-46054380D01*
X83894819Y-82033904D02*
X83894819Y-81462476D01*
X84894819Y-81748190D02*
X83894819Y-81748190D01*
X84894819Y-81129142D02*
X83894819Y-81129142D01*
X83894819Y-81129142D02*
X83894819Y-80748190D01*
X83894819Y-80748190D02*
X83942438Y-80652952D01*
X83942438Y-80652952D02*
X83990057Y-80605333D01*
X83990057Y-80605333D02*
X84085295Y-80557714D01*
X84085295Y-80557714D02*
X84228152Y-80557714D01*
X84228152Y-80557714D02*
X84323390Y-80605333D01*
X84323390Y-80605333D02*
X84371009Y-80652952D01*
X84371009Y-80652952D02*
X84418628Y-80748190D01*
X84418628Y-80748190D02*
X84418628Y-81129142D01*
X84228152Y-79700571D02*
X84894819Y-79700571D01*
X83847200Y-79938666D02*
X84561485Y-80176761D01*
X84561485Y-80176761D02*
X84561485Y-79557714D01*
X138338887Y-105602962D02*
X138539149Y-105669716D01*
X138539149Y-105669716D02*
X138872919Y-105669716D01*
X138872919Y-105669716D02*
X139006427Y-105602962D01*
X139006427Y-105602962D02*
X139073181Y-105536207D01*
X139073181Y-105536207D02*
X139139935Y-105402699D01*
X139139935Y-105402699D02*
X139139935Y-105269191D01*
X139139935Y-105269191D02*
X139073181Y-105135683D01*
X139073181Y-105135683D02*
X139006427Y-105068929D01*
X139006427Y-105068929D02*
X138872919Y-105002175D01*
X138872919Y-105002175D02*
X138605903Y-104935421D01*
X138605903Y-104935421D02*
X138472395Y-104868667D01*
X138472395Y-104868667D02*
X138405641Y-104801913D01*
X138405641Y-104801913D02*
X138338887Y-104668405D01*
X138338887Y-104668405D02*
X138338887Y-104534897D01*
X138338887Y-104534897D02*
X138405641Y-104401389D01*
X138405641Y-104401389D02*
X138472395Y-104334635D01*
X138472395Y-104334635D02*
X138605903Y-104267881D01*
X138605903Y-104267881D02*
X138939673Y-104267881D01*
X138939673Y-104267881D02*
X139139935Y-104334635D01*
X139607214Y-104267881D02*
X139940984Y-105669716D01*
X139940984Y-105669716D02*
X140208000Y-104668405D01*
X140208000Y-104668405D02*
X140475016Y-105669716D01*
X140475016Y-105669716D02*
X140808787Y-104267881D01*
X142077113Y-105669716D02*
X141276065Y-105669716D01*
X141676589Y-105669716D02*
X141676589Y-104267881D01*
X141676589Y-104267881D02*
X141543081Y-104468143D01*
X141543081Y-104468143D02*
X141409573Y-104601651D01*
X141409573Y-104601651D02*
X141276065Y-104668405D01*
X43307095Y-64478819D02*
X43307095Y-65288342D01*
X43307095Y-65288342D02*
X43354714Y-65383580D01*
X43354714Y-65383580D02*
X43402333Y-65431200D01*
X43402333Y-65431200D02*
X43497571Y-65478819D01*
X43497571Y-65478819D02*
X43688047Y-65478819D01*
X43688047Y-65478819D02*
X43783285Y-65431200D01*
X43783285Y-65431200D02*
X43830904Y-65383580D01*
X43830904Y-65383580D02*
X43878523Y-65288342D01*
X43878523Y-65288342D02*
X43878523Y-64478819D01*
X44783285Y-64812152D02*
X44783285Y-65478819D01*
X44545190Y-64431200D02*
X44307095Y-65145485D01*
X44307095Y-65145485D02*
X44926142Y-65145485D01*
X32259095Y-49976819D02*
X32259095Y-50786342D01*
X32259095Y-50786342D02*
X32306714Y-50881580D01*
X32306714Y-50881580D02*
X32354333Y-50929200D01*
X32354333Y-50929200D02*
X32449571Y-50976819D01*
X32449571Y-50976819D02*
X32640047Y-50976819D01*
X32640047Y-50976819D02*
X32735285Y-50929200D01*
X32735285Y-50929200D02*
X32782904Y-50881580D01*
X32782904Y-50881580D02*
X32830523Y-50786342D01*
X32830523Y-50786342D02*
X32830523Y-49976819D01*
X33830523Y-50976819D02*
X33259095Y-50976819D01*
X33544809Y-50976819D02*
X33544809Y-49976819D01*
X33544809Y-49976819D02*
X33449571Y-50119676D01*
X33449571Y-50119676D02*
X33354333Y-50214914D01*
X33354333Y-50214914D02*
X33259095Y-50262533D01*
X112315666Y-105499819D02*
X112315666Y-106214104D01*
X112315666Y-106214104D02*
X112268047Y-106356961D01*
X112268047Y-106356961D02*
X112172809Y-106452200D01*
X112172809Y-106452200D02*
X112029952Y-106499819D01*
X112029952Y-106499819D02*
X111934714Y-106499819D01*
X113268047Y-105499819D02*
X112791857Y-105499819D01*
X112791857Y-105499819D02*
X112744238Y-105976009D01*
X112744238Y-105976009D02*
X112791857Y-105928390D01*
X112791857Y-105928390D02*
X112887095Y-105880771D01*
X112887095Y-105880771D02*
X113125190Y-105880771D01*
X113125190Y-105880771D02*
X113220428Y-105928390D01*
X113220428Y-105928390D02*
X113268047Y-105976009D01*
X113268047Y-105976009D02*
X113315666Y-106071247D01*
X113315666Y-106071247D02*
X113315666Y-106309342D01*
X113315666Y-106309342D02*
X113268047Y-106404580D01*
X113268047Y-106404580D02*
X113220428Y-106452200D01*
X113220428Y-106452200D02*
X113125190Y-106499819D01*
X113125190Y-106499819D02*
X112887095Y-106499819D01*
X112887095Y-106499819D02*
X112791857Y-106452200D01*
X112791857Y-106452200D02*
X112744238Y-106404580D01*
X157399819Y-69167333D02*
X158114104Y-69167333D01*
X158114104Y-69167333D02*
X158256961Y-69214952D01*
X158256961Y-69214952D02*
X158352200Y-69310190D01*
X158352200Y-69310190D02*
X158399819Y-69453047D01*
X158399819Y-69453047D02*
X158399819Y-69548285D01*
X158399819Y-68167333D02*
X158399819Y-68738761D01*
X158399819Y-68453047D02*
X157399819Y-68453047D01*
X157399819Y-68453047D02*
X157542676Y-68548285D01*
X157542676Y-68548285D02*
X157637914Y-68643523D01*
X157637914Y-68643523D02*
X157685533Y-68738761D01*
X92149819Y-82033904D02*
X92149819Y-81462476D01*
X93149819Y-81748190D02*
X92149819Y-81748190D01*
X93149819Y-81129142D02*
X92149819Y-81129142D01*
X92149819Y-81129142D02*
X92149819Y-80748190D01*
X92149819Y-80748190D02*
X92197438Y-80652952D01*
X92197438Y-80652952D02*
X92245057Y-80605333D01*
X92245057Y-80605333D02*
X92340295Y-80557714D01*
X92340295Y-80557714D02*
X92483152Y-80557714D01*
X92483152Y-80557714D02*
X92578390Y-80605333D01*
X92578390Y-80605333D02*
X92626009Y-80652952D01*
X92626009Y-80652952D02*
X92673628Y-80748190D01*
X92673628Y-80748190D02*
X92673628Y-81129142D01*
X92149819Y-80224380D02*
X92149819Y-79605333D01*
X92149819Y-79605333D02*
X92530771Y-79938666D01*
X92530771Y-79938666D02*
X92530771Y-79795809D01*
X92530771Y-79795809D02*
X92578390Y-79700571D01*
X92578390Y-79700571D02*
X92626009Y-79652952D01*
X92626009Y-79652952D02*
X92721247Y-79605333D01*
X92721247Y-79605333D02*
X92959342Y-79605333D01*
X92959342Y-79605333D02*
X93054580Y-79652952D01*
X93054580Y-79652952D02*
X93102200Y-79700571D01*
X93102200Y-79700571D02*
X93149819Y-79795809D01*
X93149819Y-79795809D02*
X93149819Y-80081523D01*
X93149819Y-80081523D02*
X93102200Y-80176761D01*
X93102200Y-80176761D02*
X93054580Y-80224380D01*
X137676095Y-34902819D02*
X138247523Y-34902819D01*
X137961809Y-35902819D02*
X137961809Y-34902819D01*
X138580857Y-35902819D02*
X138580857Y-34902819D01*
X138580857Y-34902819D02*
X138961809Y-34902819D01*
X138961809Y-34902819D02*
X139057047Y-34950438D01*
X139057047Y-34950438D02*
X139104666Y-34998057D01*
X139104666Y-34998057D02*
X139152285Y-35093295D01*
X139152285Y-35093295D02*
X139152285Y-35236152D01*
X139152285Y-35236152D02*
X139104666Y-35331390D01*
X139104666Y-35331390D02*
X139057047Y-35379009D01*
X139057047Y-35379009D02*
X138961809Y-35426628D01*
X138961809Y-35426628D02*
X138580857Y-35426628D01*
X139723714Y-35331390D02*
X139628476Y-35283771D01*
X139628476Y-35283771D02*
X139580857Y-35236152D01*
X139580857Y-35236152D02*
X139533238Y-35140914D01*
X139533238Y-35140914D02*
X139533238Y-35093295D01*
X139533238Y-35093295D02*
X139580857Y-34998057D01*
X139580857Y-34998057D02*
X139628476Y-34950438D01*
X139628476Y-34950438D02*
X139723714Y-34902819D01*
X139723714Y-34902819D02*
X139914190Y-34902819D01*
X139914190Y-34902819D02*
X140009428Y-34950438D01*
X140009428Y-34950438D02*
X140057047Y-34998057D01*
X140057047Y-34998057D02*
X140104666Y-35093295D01*
X140104666Y-35093295D02*
X140104666Y-35140914D01*
X140104666Y-35140914D02*
X140057047Y-35236152D01*
X140057047Y-35236152D02*
X140009428Y-35283771D01*
X140009428Y-35283771D02*
X139914190Y-35331390D01*
X139914190Y-35331390D02*
X139723714Y-35331390D01*
X139723714Y-35331390D02*
X139628476Y-35379009D01*
X139628476Y-35379009D02*
X139580857Y-35426628D01*
X139580857Y-35426628D02*
X139533238Y-35521866D01*
X139533238Y-35521866D02*
X139533238Y-35712342D01*
X139533238Y-35712342D02*
X139580857Y-35807580D01*
X139580857Y-35807580D02*
X139628476Y-35855200D01*
X139628476Y-35855200D02*
X139723714Y-35902819D01*
X139723714Y-35902819D02*
X139914190Y-35902819D01*
X139914190Y-35902819D02*
X140009428Y-35855200D01*
X140009428Y-35855200D02*
X140057047Y-35807580D01*
X140057047Y-35807580D02*
X140104666Y-35712342D01*
X140104666Y-35712342D02*
X140104666Y-35521866D01*
X140104666Y-35521866D02*
X140057047Y-35426628D01*
X140057047Y-35426628D02*
X140009428Y-35379009D01*
X140009428Y-35379009D02*
X139914190Y-35331390D01*
X76007933Y-44320619D02*
X75674600Y-43844428D01*
X75436505Y-44320619D02*
X75436505Y-43320619D01*
X75436505Y-43320619D02*
X75817457Y-43320619D01*
X75817457Y-43320619D02*
X75912695Y-43368238D01*
X75912695Y-43368238D02*
X75960314Y-43415857D01*
X75960314Y-43415857D02*
X76007933Y-43511095D01*
X76007933Y-43511095D02*
X76007933Y-43653952D01*
X76007933Y-43653952D02*
X75960314Y-43749190D01*
X75960314Y-43749190D02*
X75912695Y-43796809D01*
X75912695Y-43796809D02*
X75817457Y-43844428D01*
X75817457Y-43844428D02*
X75436505Y-43844428D01*
X76388886Y-43415857D02*
X76436505Y-43368238D01*
X76436505Y-43368238D02*
X76531743Y-43320619D01*
X76531743Y-43320619D02*
X76769838Y-43320619D01*
X76769838Y-43320619D02*
X76865076Y-43368238D01*
X76865076Y-43368238D02*
X76912695Y-43415857D01*
X76912695Y-43415857D02*
X76960314Y-43511095D01*
X76960314Y-43511095D02*
X76960314Y-43606333D01*
X76960314Y-43606333D02*
X76912695Y-43749190D01*
X76912695Y-43749190D02*
X76341267Y-44320619D01*
X76341267Y-44320619D02*
X76960314Y-44320619D01*
X52157333Y-38681819D02*
X51824000Y-38205628D01*
X51585905Y-38681819D02*
X51585905Y-37681819D01*
X51585905Y-37681819D02*
X51966857Y-37681819D01*
X51966857Y-37681819D02*
X52062095Y-37729438D01*
X52062095Y-37729438D02*
X52109714Y-37777057D01*
X52109714Y-37777057D02*
X52157333Y-37872295D01*
X52157333Y-37872295D02*
X52157333Y-38015152D01*
X52157333Y-38015152D02*
X52109714Y-38110390D01*
X52109714Y-38110390D02*
X52062095Y-38158009D01*
X52062095Y-38158009D02*
X51966857Y-38205628D01*
X51966857Y-38205628D02*
X51585905Y-38205628D01*
X52490667Y-37681819D02*
X53109714Y-37681819D01*
X53109714Y-37681819D02*
X52776381Y-38062771D01*
X52776381Y-38062771D02*
X52919238Y-38062771D01*
X52919238Y-38062771D02*
X53014476Y-38110390D01*
X53014476Y-38110390D02*
X53062095Y-38158009D01*
X53062095Y-38158009D02*
X53109714Y-38253247D01*
X53109714Y-38253247D02*
X53109714Y-38491342D01*
X53109714Y-38491342D02*
X53062095Y-38586580D01*
X53062095Y-38586580D02*
X53014476Y-38634200D01*
X53014476Y-38634200D02*
X52919238Y-38681819D01*
X52919238Y-38681819D02*
X52633524Y-38681819D01*
X52633524Y-38681819D02*
X52538286Y-38634200D01*
X52538286Y-38634200D02*
X52490667Y-38586580D01*
X132596095Y-34902819D02*
X133167523Y-34902819D01*
X132881809Y-35902819D02*
X132881809Y-34902819D01*
X133500857Y-35902819D02*
X133500857Y-34902819D01*
X133500857Y-34902819D02*
X133881809Y-34902819D01*
X133881809Y-34902819D02*
X133977047Y-34950438D01*
X133977047Y-34950438D02*
X134024666Y-34998057D01*
X134024666Y-34998057D02*
X134072285Y-35093295D01*
X134072285Y-35093295D02*
X134072285Y-35236152D01*
X134072285Y-35236152D02*
X134024666Y-35331390D01*
X134024666Y-35331390D02*
X133977047Y-35379009D01*
X133977047Y-35379009D02*
X133881809Y-35426628D01*
X133881809Y-35426628D02*
X133500857Y-35426628D01*
X134405619Y-34902819D02*
X135072285Y-34902819D01*
X135072285Y-34902819D02*
X134643714Y-35902819D01*
X39348580Y-57062666D02*
X39396200Y-57110285D01*
X39396200Y-57110285D02*
X39443819Y-57253142D01*
X39443819Y-57253142D02*
X39443819Y-57348380D01*
X39443819Y-57348380D02*
X39396200Y-57491237D01*
X39396200Y-57491237D02*
X39300961Y-57586475D01*
X39300961Y-57586475D02*
X39205723Y-57634094D01*
X39205723Y-57634094D02*
X39015247Y-57681713D01*
X39015247Y-57681713D02*
X38872390Y-57681713D01*
X38872390Y-57681713D02*
X38681914Y-57634094D01*
X38681914Y-57634094D02*
X38586676Y-57586475D01*
X38586676Y-57586475D02*
X38491438Y-57491237D01*
X38491438Y-57491237D02*
X38443819Y-57348380D01*
X38443819Y-57348380D02*
X38443819Y-57253142D01*
X38443819Y-57253142D02*
X38491438Y-57110285D01*
X38491438Y-57110285D02*
X38539057Y-57062666D01*
X38539057Y-56681713D02*
X38491438Y-56634094D01*
X38491438Y-56634094D02*
X38443819Y-56538856D01*
X38443819Y-56538856D02*
X38443819Y-56300761D01*
X38443819Y-56300761D02*
X38491438Y-56205523D01*
X38491438Y-56205523D02*
X38539057Y-56157904D01*
X38539057Y-56157904D02*
X38634295Y-56110285D01*
X38634295Y-56110285D02*
X38729533Y-56110285D01*
X38729533Y-56110285D02*
X38872390Y-56157904D01*
X38872390Y-56157904D02*
X39443819Y-56729332D01*
X39443819Y-56729332D02*
X39443819Y-56110285D01*
X49236333Y-47274580D02*
X49188714Y-47322200D01*
X49188714Y-47322200D02*
X49045857Y-47369819D01*
X49045857Y-47369819D02*
X48950619Y-47369819D01*
X48950619Y-47369819D02*
X48807762Y-47322200D01*
X48807762Y-47322200D02*
X48712524Y-47226961D01*
X48712524Y-47226961D02*
X48664905Y-47131723D01*
X48664905Y-47131723D02*
X48617286Y-46941247D01*
X48617286Y-46941247D02*
X48617286Y-46798390D01*
X48617286Y-46798390D02*
X48664905Y-46607914D01*
X48664905Y-46607914D02*
X48712524Y-46512676D01*
X48712524Y-46512676D02*
X48807762Y-46417438D01*
X48807762Y-46417438D02*
X48950619Y-46369819D01*
X48950619Y-46369819D02*
X49045857Y-46369819D01*
X49045857Y-46369819D02*
X49188714Y-46417438D01*
X49188714Y-46417438D02*
X49236333Y-46465057D01*
X49569667Y-46369819D02*
X50188714Y-46369819D01*
X50188714Y-46369819D02*
X49855381Y-46750771D01*
X49855381Y-46750771D02*
X49998238Y-46750771D01*
X49998238Y-46750771D02*
X50093476Y-46798390D01*
X50093476Y-46798390D02*
X50141095Y-46846009D01*
X50141095Y-46846009D02*
X50188714Y-46941247D01*
X50188714Y-46941247D02*
X50188714Y-47179342D01*
X50188714Y-47179342D02*
X50141095Y-47274580D01*
X50141095Y-47274580D02*
X50093476Y-47322200D01*
X50093476Y-47322200D02*
X49998238Y-47369819D01*
X49998238Y-47369819D02*
X49712524Y-47369819D01*
X49712524Y-47369819D02*
X49617286Y-47322200D01*
X49617286Y-47322200D02*
X49569667Y-47274580D01*
X42436819Y-54736904D02*
X43246342Y-54736904D01*
X43246342Y-54736904D02*
X43341580Y-54689285D01*
X43341580Y-54689285D02*
X43389200Y-54641666D01*
X43389200Y-54641666D02*
X43436819Y-54546428D01*
X43436819Y-54546428D02*
X43436819Y-54355952D01*
X43436819Y-54355952D02*
X43389200Y-54260714D01*
X43389200Y-54260714D02*
X43341580Y-54213095D01*
X43341580Y-54213095D02*
X43246342Y-54165476D01*
X43246342Y-54165476D02*
X42436819Y-54165476D01*
X42436819Y-53784523D02*
X42436819Y-53165476D01*
X42436819Y-53165476D02*
X42817771Y-53498809D01*
X42817771Y-53498809D02*
X42817771Y-53355952D01*
X42817771Y-53355952D02*
X42865390Y-53260714D01*
X42865390Y-53260714D02*
X42913009Y-53213095D01*
X42913009Y-53213095D02*
X43008247Y-53165476D01*
X43008247Y-53165476D02*
X43246342Y-53165476D01*
X43246342Y-53165476D02*
X43341580Y-53213095D01*
X43341580Y-53213095D02*
X43389200Y-53260714D01*
X43389200Y-53260714D02*
X43436819Y-53355952D01*
X43436819Y-53355952D02*
X43436819Y-53641666D01*
X43436819Y-53641666D02*
X43389200Y-53736904D01*
X43389200Y-53736904D02*
X43341580Y-53784523D01*
X57046905Y-63826819D02*
X57046905Y-62826819D01*
X57046905Y-62826819D02*
X57285000Y-62826819D01*
X57285000Y-62826819D02*
X57427857Y-62874438D01*
X57427857Y-62874438D02*
X57523095Y-62969676D01*
X57523095Y-62969676D02*
X57570714Y-63064914D01*
X57570714Y-63064914D02*
X57618333Y-63255390D01*
X57618333Y-63255390D02*
X57618333Y-63398247D01*
X57618333Y-63398247D02*
X57570714Y-63588723D01*
X57570714Y-63588723D02*
X57523095Y-63683961D01*
X57523095Y-63683961D02*
X57427857Y-63779200D01*
X57427857Y-63779200D02*
X57285000Y-63826819D01*
X57285000Y-63826819D02*
X57046905Y-63826819D01*
X58475476Y-62826819D02*
X58285000Y-62826819D01*
X58285000Y-62826819D02*
X58189762Y-62874438D01*
X58189762Y-62874438D02*
X58142143Y-62922057D01*
X58142143Y-62922057D02*
X58046905Y-63064914D01*
X58046905Y-63064914D02*
X57999286Y-63255390D01*
X57999286Y-63255390D02*
X57999286Y-63636342D01*
X57999286Y-63636342D02*
X58046905Y-63731580D01*
X58046905Y-63731580D02*
X58094524Y-63779200D01*
X58094524Y-63779200D02*
X58189762Y-63826819D01*
X58189762Y-63826819D02*
X58380238Y-63826819D01*
X58380238Y-63826819D02*
X58475476Y-63779200D01*
X58475476Y-63779200D02*
X58523095Y-63731580D01*
X58523095Y-63731580D02*
X58570714Y-63636342D01*
X58570714Y-63636342D02*
X58570714Y-63398247D01*
X58570714Y-63398247D02*
X58523095Y-63303009D01*
X58523095Y-63303009D02*
X58475476Y-63255390D01*
X58475476Y-63255390D02*
X58380238Y-63207771D01*
X58380238Y-63207771D02*
X58189762Y-63207771D01*
X58189762Y-63207771D02*
X58094524Y-63255390D01*
X58094524Y-63255390D02*
X58046905Y-63303009D01*
X58046905Y-63303009D02*
X57999286Y-63398247D01*
X54252905Y-32839819D02*
X54252905Y-31839819D01*
X54252905Y-31839819D02*
X54491000Y-31839819D01*
X54491000Y-31839819D02*
X54633857Y-31887438D01*
X54633857Y-31887438D02*
X54729095Y-31982676D01*
X54729095Y-31982676D02*
X54776714Y-32077914D01*
X54776714Y-32077914D02*
X54824333Y-32268390D01*
X54824333Y-32268390D02*
X54824333Y-32411247D01*
X54824333Y-32411247D02*
X54776714Y-32601723D01*
X54776714Y-32601723D02*
X54729095Y-32696961D01*
X54729095Y-32696961D02*
X54633857Y-32792200D01*
X54633857Y-32792200D02*
X54491000Y-32839819D01*
X54491000Y-32839819D02*
X54252905Y-32839819D01*
X55395762Y-32268390D02*
X55300524Y-32220771D01*
X55300524Y-32220771D02*
X55252905Y-32173152D01*
X55252905Y-32173152D02*
X55205286Y-32077914D01*
X55205286Y-32077914D02*
X55205286Y-32030295D01*
X55205286Y-32030295D02*
X55252905Y-31935057D01*
X55252905Y-31935057D02*
X55300524Y-31887438D01*
X55300524Y-31887438D02*
X55395762Y-31839819D01*
X55395762Y-31839819D02*
X55586238Y-31839819D01*
X55586238Y-31839819D02*
X55681476Y-31887438D01*
X55681476Y-31887438D02*
X55729095Y-31935057D01*
X55729095Y-31935057D02*
X55776714Y-32030295D01*
X55776714Y-32030295D02*
X55776714Y-32077914D01*
X55776714Y-32077914D02*
X55729095Y-32173152D01*
X55729095Y-32173152D02*
X55681476Y-32220771D01*
X55681476Y-32220771D02*
X55586238Y-32268390D01*
X55586238Y-32268390D02*
X55395762Y-32268390D01*
X55395762Y-32268390D02*
X55300524Y-32316009D01*
X55300524Y-32316009D02*
X55252905Y-32363628D01*
X55252905Y-32363628D02*
X55205286Y-32458866D01*
X55205286Y-32458866D02*
X55205286Y-32649342D01*
X55205286Y-32649342D02*
X55252905Y-32744580D01*
X55252905Y-32744580D02*
X55300524Y-32792200D01*
X55300524Y-32792200D02*
X55395762Y-32839819D01*
X55395762Y-32839819D02*
X55586238Y-32839819D01*
X55586238Y-32839819D02*
X55681476Y-32792200D01*
X55681476Y-32792200D02*
X55729095Y-32744580D01*
X55729095Y-32744580D02*
X55776714Y-32649342D01*
X55776714Y-32649342D02*
X55776714Y-32458866D01*
X55776714Y-32458866D02*
X55729095Y-32363628D01*
X55729095Y-32363628D02*
X55681476Y-32316009D01*
X55681476Y-32316009D02*
X55586238Y-32268390D01*
X32853333Y-43920580D02*
X32805714Y-43968200D01*
X32805714Y-43968200D02*
X32662857Y-44015819D01*
X32662857Y-44015819D02*
X32567619Y-44015819D01*
X32567619Y-44015819D02*
X32424762Y-43968200D01*
X32424762Y-43968200D02*
X32329524Y-43872961D01*
X32329524Y-43872961D02*
X32281905Y-43777723D01*
X32281905Y-43777723D02*
X32234286Y-43587247D01*
X32234286Y-43587247D02*
X32234286Y-43444390D01*
X32234286Y-43444390D02*
X32281905Y-43253914D01*
X32281905Y-43253914D02*
X32329524Y-43158676D01*
X32329524Y-43158676D02*
X32424762Y-43063438D01*
X32424762Y-43063438D02*
X32567619Y-43015819D01*
X32567619Y-43015819D02*
X32662857Y-43015819D01*
X32662857Y-43015819D02*
X32805714Y-43063438D01*
X32805714Y-43063438D02*
X32853333Y-43111057D01*
X33805714Y-44015819D02*
X33234286Y-44015819D01*
X33520000Y-44015819D02*
X33520000Y-43015819D01*
X33520000Y-43015819D02*
X33424762Y-43158676D01*
X33424762Y-43158676D02*
X33329524Y-43253914D01*
X33329524Y-43253914D02*
X33234286Y-43301533D01*
X48892619Y-43537094D02*
X47892619Y-43537094D01*
X47892619Y-43537094D02*
X47892619Y-43298999D01*
X47892619Y-43298999D02*
X47940238Y-43156142D01*
X47940238Y-43156142D02*
X48035476Y-43060904D01*
X48035476Y-43060904D02*
X48130714Y-43013285D01*
X48130714Y-43013285D02*
X48321190Y-42965666D01*
X48321190Y-42965666D02*
X48464047Y-42965666D01*
X48464047Y-42965666D02*
X48654523Y-43013285D01*
X48654523Y-43013285D02*
X48749761Y-43060904D01*
X48749761Y-43060904D02*
X48845000Y-43156142D01*
X48845000Y-43156142D02*
X48892619Y-43298999D01*
X48892619Y-43298999D02*
X48892619Y-43537094D01*
X48892619Y-42013285D02*
X48892619Y-42584713D01*
X48892619Y-42298999D02*
X47892619Y-42298999D01*
X47892619Y-42298999D02*
X48035476Y-42394237D01*
X48035476Y-42394237D02*
X48130714Y-42489475D01*
X48130714Y-42489475D02*
X48178333Y-42584713D01*
X156951716Y-91909219D02*
X156951716Y-92623504D01*
X156951716Y-92623504D02*
X156904097Y-92766361D01*
X156904097Y-92766361D02*
X156808859Y-92861600D01*
X156808859Y-92861600D02*
X156666002Y-92909219D01*
X156666002Y-92909219D02*
X156570764Y-92909219D01*
X157856478Y-92242552D02*
X157856478Y-92909219D01*
X157618383Y-91861600D02*
X157380288Y-92575885D01*
X157380288Y-92575885D02*
X157999335Y-92575885D01*
X51326819Y-54690904D02*
X52136342Y-54690904D01*
X52136342Y-54690904D02*
X52231580Y-54643285D01*
X52231580Y-54643285D02*
X52279200Y-54595666D01*
X52279200Y-54595666D02*
X52326819Y-54500428D01*
X52326819Y-54500428D02*
X52326819Y-54309952D01*
X52326819Y-54309952D02*
X52279200Y-54214714D01*
X52279200Y-54214714D02*
X52231580Y-54167095D01*
X52231580Y-54167095D02*
X52136342Y-54119476D01*
X52136342Y-54119476D02*
X51326819Y-54119476D01*
X51422057Y-53690904D02*
X51374438Y-53643285D01*
X51374438Y-53643285D02*
X51326819Y-53548047D01*
X51326819Y-53548047D02*
X51326819Y-53309952D01*
X51326819Y-53309952D02*
X51374438Y-53214714D01*
X51374438Y-53214714D02*
X51422057Y-53167095D01*
X51422057Y-53167095D02*
X51517295Y-53119476D01*
X51517295Y-53119476D02*
X51612533Y-53119476D01*
X51612533Y-53119476D02*
X51755390Y-53167095D01*
X51755390Y-53167095D02*
X52326819Y-53738523D01*
X52326819Y-53738523D02*
X52326819Y-53119476D01*
X32566260Y-37115258D02*
X33280698Y-37115258D01*
X33280698Y-37115258D02*
X33423585Y-37162888D01*
X33423585Y-37162888D02*
X33518844Y-37258146D01*
X33518844Y-37258146D02*
X33566473Y-37401034D01*
X33566473Y-37401034D02*
X33566473Y-37496292D01*
X32661518Y-36686596D02*
X32613889Y-36638967D01*
X32613889Y-36638967D02*
X32566260Y-36543708D01*
X32566260Y-36543708D02*
X32566260Y-36305562D01*
X32566260Y-36305562D02*
X32613889Y-36210304D01*
X32613889Y-36210304D02*
X32661518Y-36162675D01*
X32661518Y-36162675D02*
X32756776Y-36115045D01*
X32756776Y-36115045D02*
X32852035Y-36115045D01*
X32852035Y-36115045D02*
X32994922Y-36162675D01*
X32994922Y-36162675D02*
X33566473Y-36734225D01*
X33566473Y-36734225D02*
X33566473Y-36115045D01*
X28377819Y-64468333D02*
X29092104Y-64468333D01*
X29092104Y-64468333D02*
X29234961Y-64515952D01*
X29234961Y-64515952D02*
X29330200Y-64611190D01*
X29330200Y-64611190D02*
X29377819Y-64754047D01*
X29377819Y-64754047D02*
X29377819Y-64849285D01*
X28377819Y-64087380D02*
X28377819Y-63420714D01*
X28377819Y-63420714D02*
X29377819Y-63849285D01*
X82878819Y-36821904D02*
X82878819Y-36250476D01*
X83878819Y-36536190D02*
X82878819Y-36536190D01*
X83878819Y-35917142D02*
X82878819Y-35917142D01*
X82878819Y-35917142D02*
X82878819Y-35536190D01*
X82878819Y-35536190D02*
X82926438Y-35440952D01*
X82926438Y-35440952D02*
X82974057Y-35393333D01*
X82974057Y-35393333D02*
X83069295Y-35345714D01*
X83069295Y-35345714D02*
X83212152Y-35345714D01*
X83212152Y-35345714D02*
X83307390Y-35393333D01*
X83307390Y-35393333D02*
X83355009Y-35440952D01*
X83355009Y-35440952D02*
X83402628Y-35536190D01*
X83402628Y-35536190D02*
X83402628Y-35917142D01*
X82974057Y-34964761D02*
X82926438Y-34917142D01*
X82926438Y-34917142D02*
X82878819Y-34821904D01*
X82878819Y-34821904D02*
X82878819Y-34583809D01*
X82878819Y-34583809D02*
X82926438Y-34488571D01*
X82926438Y-34488571D02*
X82974057Y-34440952D01*
X82974057Y-34440952D02*
X83069295Y-34393333D01*
X83069295Y-34393333D02*
X83164533Y-34393333D01*
X83164533Y-34393333D02*
X83307390Y-34440952D01*
X83307390Y-34440952D02*
X83878819Y-35012380D01*
X83878819Y-35012380D02*
X83878819Y-34393333D01*
X76007933Y-46987619D02*
X75674600Y-46511428D01*
X75436505Y-46987619D02*
X75436505Y-45987619D01*
X75436505Y-45987619D02*
X75817457Y-45987619D01*
X75817457Y-45987619D02*
X75912695Y-46035238D01*
X75912695Y-46035238D02*
X75960314Y-46082857D01*
X75960314Y-46082857D02*
X76007933Y-46178095D01*
X76007933Y-46178095D02*
X76007933Y-46320952D01*
X76007933Y-46320952D02*
X75960314Y-46416190D01*
X75960314Y-46416190D02*
X75912695Y-46463809D01*
X75912695Y-46463809D02*
X75817457Y-46511428D01*
X75817457Y-46511428D02*
X75436505Y-46511428D01*
X76960314Y-46987619D02*
X76388886Y-46987619D01*
X76674600Y-46987619D02*
X76674600Y-45987619D01*
X76674600Y-45987619D02*
X76579362Y-46130476D01*
X76579362Y-46130476D02*
X76484124Y-46225714D01*
X76484124Y-46225714D02*
X76388886Y-46273333D01*
X127516095Y-34902819D02*
X128087523Y-34902819D01*
X127801809Y-35902819D02*
X127801809Y-34902819D01*
X128420857Y-35902819D02*
X128420857Y-34902819D01*
X128420857Y-34902819D02*
X128801809Y-34902819D01*
X128801809Y-34902819D02*
X128897047Y-34950438D01*
X128897047Y-34950438D02*
X128944666Y-34998057D01*
X128944666Y-34998057D02*
X128992285Y-35093295D01*
X128992285Y-35093295D02*
X128992285Y-35236152D01*
X128992285Y-35236152D02*
X128944666Y-35331390D01*
X128944666Y-35331390D02*
X128897047Y-35379009D01*
X128897047Y-35379009D02*
X128801809Y-35426628D01*
X128801809Y-35426628D02*
X128420857Y-35426628D01*
X129849428Y-34902819D02*
X129658952Y-34902819D01*
X129658952Y-34902819D02*
X129563714Y-34950438D01*
X129563714Y-34950438D02*
X129516095Y-34998057D01*
X129516095Y-34998057D02*
X129420857Y-35140914D01*
X129420857Y-35140914D02*
X129373238Y-35331390D01*
X129373238Y-35331390D02*
X129373238Y-35712342D01*
X129373238Y-35712342D02*
X129420857Y-35807580D01*
X129420857Y-35807580D02*
X129468476Y-35855200D01*
X129468476Y-35855200D02*
X129563714Y-35902819D01*
X129563714Y-35902819D02*
X129754190Y-35902819D01*
X129754190Y-35902819D02*
X129849428Y-35855200D01*
X129849428Y-35855200D02*
X129897047Y-35807580D01*
X129897047Y-35807580D02*
X129944666Y-35712342D01*
X129944666Y-35712342D02*
X129944666Y-35474247D01*
X129944666Y-35474247D02*
X129897047Y-35379009D01*
X129897047Y-35379009D02*
X129849428Y-35331390D01*
X129849428Y-35331390D02*
X129754190Y-35283771D01*
X129754190Y-35283771D02*
X129563714Y-35283771D01*
X129563714Y-35283771D02*
X129468476Y-35331390D01*
X129468476Y-35331390D02*
X129420857Y-35379009D01*
X129420857Y-35379009D02*
X129373238Y-35474247D01*
X39203333Y-71066819D02*
X38870000Y-70590628D01*
X38631905Y-71066819D02*
X38631905Y-70066819D01*
X38631905Y-70066819D02*
X39012857Y-70066819D01*
X39012857Y-70066819D02*
X39108095Y-70114438D01*
X39108095Y-70114438D02*
X39155714Y-70162057D01*
X39155714Y-70162057D02*
X39203333Y-70257295D01*
X39203333Y-70257295D02*
X39203333Y-70400152D01*
X39203333Y-70400152D02*
X39155714Y-70495390D01*
X39155714Y-70495390D02*
X39108095Y-70543009D01*
X39108095Y-70543009D02*
X39012857Y-70590628D01*
X39012857Y-70590628D02*
X38631905Y-70590628D01*
X40060476Y-70066819D02*
X39870000Y-70066819D01*
X39870000Y-70066819D02*
X39774762Y-70114438D01*
X39774762Y-70114438D02*
X39727143Y-70162057D01*
X39727143Y-70162057D02*
X39631905Y-70304914D01*
X39631905Y-70304914D02*
X39584286Y-70495390D01*
X39584286Y-70495390D02*
X39584286Y-70876342D01*
X39584286Y-70876342D02*
X39631905Y-70971580D01*
X39631905Y-70971580D02*
X39679524Y-71019200D01*
X39679524Y-71019200D02*
X39774762Y-71066819D01*
X39774762Y-71066819D02*
X39965238Y-71066819D01*
X39965238Y-71066819D02*
X40060476Y-71019200D01*
X40060476Y-71019200D02*
X40108095Y-70971580D01*
X40108095Y-70971580D02*
X40155714Y-70876342D01*
X40155714Y-70876342D02*
X40155714Y-70638247D01*
X40155714Y-70638247D02*
X40108095Y-70543009D01*
X40108095Y-70543009D02*
X40060476Y-70495390D01*
X40060476Y-70495390D02*
X39965238Y-70447771D01*
X39965238Y-70447771D02*
X39774762Y-70447771D01*
X39774762Y-70447771D02*
X39679524Y-70495390D01*
X39679524Y-70495390D02*
X39631905Y-70543009D01*
X39631905Y-70543009D02*
X39584286Y-70638247D01*
X87831819Y-36821904D02*
X87831819Y-36250476D01*
X88831819Y-36536190D02*
X87831819Y-36536190D01*
X88831819Y-35917142D02*
X87831819Y-35917142D01*
X87831819Y-35917142D02*
X87831819Y-35536190D01*
X87831819Y-35536190D02*
X87879438Y-35440952D01*
X87879438Y-35440952D02*
X87927057Y-35393333D01*
X87927057Y-35393333D02*
X88022295Y-35345714D01*
X88022295Y-35345714D02*
X88165152Y-35345714D01*
X88165152Y-35345714D02*
X88260390Y-35393333D01*
X88260390Y-35393333D02*
X88308009Y-35440952D01*
X88308009Y-35440952D02*
X88355628Y-35536190D01*
X88355628Y-35536190D02*
X88355628Y-35917142D01*
X88831819Y-34393333D02*
X88831819Y-34964761D01*
X88831819Y-34679047D02*
X87831819Y-34679047D01*
X87831819Y-34679047D02*
X87974676Y-34774285D01*
X87974676Y-34774285D02*
X88069914Y-34869523D01*
X88069914Y-34869523D02*
X88117533Y-34964761D01*
X54252905Y-43126819D02*
X54252905Y-42126819D01*
X54252905Y-42126819D02*
X54491000Y-42126819D01*
X54491000Y-42126819D02*
X54633857Y-42174438D01*
X54633857Y-42174438D02*
X54729095Y-42269676D01*
X54729095Y-42269676D02*
X54776714Y-42364914D01*
X54776714Y-42364914D02*
X54824333Y-42555390D01*
X54824333Y-42555390D02*
X54824333Y-42698247D01*
X54824333Y-42698247D02*
X54776714Y-42888723D01*
X54776714Y-42888723D02*
X54729095Y-42983961D01*
X54729095Y-42983961D02*
X54633857Y-43079200D01*
X54633857Y-43079200D02*
X54491000Y-43126819D01*
X54491000Y-43126819D02*
X54252905Y-43126819D01*
X55205286Y-42222057D02*
X55252905Y-42174438D01*
X55252905Y-42174438D02*
X55348143Y-42126819D01*
X55348143Y-42126819D02*
X55586238Y-42126819D01*
X55586238Y-42126819D02*
X55681476Y-42174438D01*
X55681476Y-42174438D02*
X55729095Y-42222057D01*
X55729095Y-42222057D02*
X55776714Y-42317295D01*
X55776714Y-42317295D02*
X55776714Y-42412533D01*
X55776714Y-42412533D02*
X55729095Y-42555390D01*
X55729095Y-42555390D02*
X55157667Y-43126819D01*
X55157667Y-43126819D02*
X55776714Y-43126819D01*
X45235905Y-78686819D02*
X45235905Y-77686819D01*
X45235905Y-77686819D02*
X45474000Y-77686819D01*
X45474000Y-77686819D02*
X45616857Y-77734438D01*
X45616857Y-77734438D02*
X45712095Y-77829676D01*
X45712095Y-77829676D02*
X45759714Y-77924914D01*
X45759714Y-77924914D02*
X45807333Y-78115390D01*
X45807333Y-78115390D02*
X45807333Y-78258247D01*
X45807333Y-78258247D02*
X45759714Y-78448723D01*
X45759714Y-78448723D02*
X45712095Y-78543961D01*
X45712095Y-78543961D02*
X45616857Y-78639200D01*
X45616857Y-78639200D02*
X45474000Y-78686819D01*
X45474000Y-78686819D02*
X45235905Y-78686819D01*
X46664476Y-78020152D02*
X46664476Y-78686819D01*
X46426381Y-77639200D02*
X46188286Y-78353485D01*
X46188286Y-78353485D02*
X46807333Y-78353485D01*
X53681333Y-63826819D02*
X53348000Y-63350628D01*
X53109905Y-63826819D02*
X53109905Y-62826819D01*
X53109905Y-62826819D02*
X53490857Y-62826819D01*
X53490857Y-62826819D02*
X53586095Y-62874438D01*
X53586095Y-62874438D02*
X53633714Y-62922057D01*
X53633714Y-62922057D02*
X53681333Y-63017295D01*
X53681333Y-63017295D02*
X53681333Y-63160152D01*
X53681333Y-63160152D02*
X53633714Y-63255390D01*
X53633714Y-63255390D02*
X53586095Y-63303009D01*
X53586095Y-63303009D02*
X53490857Y-63350628D01*
X53490857Y-63350628D02*
X53109905Y-63350628D01*
X54538476Y-63160152D02*
X54538476Y-63826819D01*
X54300381Y-62779200D02*
X54062286Y-63493485D01*
X54062286Y-63493485D02*
X54681333Y-63493485D01*
X154987666Y-105245819D02*
X154987666Y-105960104D01*
X154987666Y-105960104D02*
X154940047Y-106102961D01*
X154940047Y-106102961D02*
X154844809Y-106198200D01*
X154844809Y-106198200D02*
X154701952Y-106245819D01*
X154701952Y-106245819D02*
X154606714Y-106245819D01*
X155892428Y-105245819D02*
X155701952Y-105245819D01*
X155701952Y-105245819D02*
X155606714Y-105293438D01*
X155606714Y-105293438D02*
X155559095Y-105341057D01*
X155559095Y-105341057D02*
X155463857Y-105483914D01*
X155463857Y-105483914D02*
X155416238Y-105674390D01*
X155416238Y-105674390D02*
X155416238Y-106055342D01*
X155416238Y-106055342D02*
X155463857Y-106150580D01*
X155463857Y-106150580D02*
X155511476Y-106198200D01*
X155511476Y-106198200D02*
X155606714Y-106245819D01*
X155606714Y-106245819D02*
X155797190Y-106245819D01*
X155797190Y-106245819D02*
X155892428Y-106198200D01*
X155892428Y-106198200D02*
X155940047Y-106150580D01*
X155940047Y-106150580D02*
X155987666Y-106055342D01*
X155987666Y-106055342D02*
X155987666Y-105817247D01*
X155987666Y-105817247D02*
X155940047Y-105722009D01*
X155940047Y-105722009D02*
X155892428Y-105674390D01*
X155892428Y-105674390D02*
X155797190Y-105626771D01*
X155797190Y-105626771D02*
X155606714Y-105626771D01*
X155606714Y-105626771D02*
X155511476Y-105674390D01*
X155511476Y-105674390D02*
X155463857Y-105722009D01*
X155463857Y-105722009D02*
X155416238Y-105817247D01*
X52157333Y-31315819D02*
X51824000Y-30839628D01*
X51585905Y-31315819D02*
X51585905Y-30315819D01*
X51585905Y-30315819D02*
X51966857Y-30315819D01*
X51966857Y-30315819D02*
X52062095Y-30363438D01*
X52062095Y-30363438D02*
X52109714Y-30411057D01*
X52109714Y-30411057D02*
X52157333Y-30506295D01*
X52157333Y-30506295D02*
X52157333Y-30649152D01*
X52157333Y-30649152D02*
X52109714Y-30744390D01*
X52109714Y-30744390D02*
X52062095Y-30792009D01*
X52062095Y-30792009D02*
X51966857Y-30839628D01*
X51966857Y-30839628D02*
X51585905Y-30839628D01*
X52490667Y-30315819D02*
X53157333Y-30315819D01*
X53157333Y-30315819D02*
X52728762Y-31315819D01*
X54252905Y-35633819D02*
X54252905Y-34633819D01*
X54252905Y-34633819D02*
X54491000Y-34633819D01*
X54491000Y-34633819D02*
X54633857Y-34681438D01*
X54633857Y-34681438D02*
X54729095Y-34776676D01*
X54729095Y-34776676D02*
X54776714Y-34871914D01*
X54776714Y-34871914D02*
X54824333Y-35062390D01*
X54824333Y-35062390D02*
X54824333Y-35205247D01*
X54824333Y-35205247D02*
X54776714Y-35395723D01*
X54776714Y-35395723D02*
X54729095Y-35490961D01*
X54729095Y-35490961D02*
X54633857Y-35586200D01*
X54633857Y-35586200D02*
X54491000Y-35633819D01*
X54491000Y-35633819D02*
X54252905Y-35633819D01*
X55157667Y-34633819D02*
X55824333Y-34633819D01*
X55824333Y-34633819D02*
X55395762Y-35633819D01*
X54252905Y-40332819D02*
X54252905Y-39332819D01*
X54252905Y-39332819D02*
X54491000Y-39332819D01*
X54491000Y-39332819D02*
X54633857Y-39380438D01*
X54633857Y-39380438D02*
X54729095Y-39475676D01*
X54729095Y-39475676D02*
X54776714Y-39570914D01*
X54776714Y-39570914D02*
X54824333Y-39761390D01*
X54824333Y-39761390D02*
X54824333Y-39904247D01*
X54824333Y-39904247D02*
X54776714Y-40094723D01*
X54776714Y-40094723D02*
X54729095Y-40189961D01*
X54729095Y-40189961D02*
X54633857Y-40285200D01*
X54633857Y-40285200D02*
X54491000Y-40332819D01*
X54491000Y-40332819D02*
X54252905Y-40332819D01*
X55157667Y-39332819D02*
X55776714Y-39332819D01*
X55776714Y-39332819D02*
X55443381Y-39713771D01*
X55443381Y-39713771D02*
X55586238Y-39713771D01*
X55586238Y-39713771D02*
X55681476Y-39761390D01*
X55681476Y-39761390D02*
X55729095Y-39809009D01*
X55729095Y-39809009D02*
X55776714Y-39904247D01*
X55776714Y-39904247D02*
X55776714Y-40142342D01*
X55776714Y-40142342D02*
X55729095Y-40237580D01*
X55729095Y-40237580D02*
X55681476Y-40285200D01*
X55681476Y-40285200D02*
X55586238Y-40332819D01*
X55586238Y-40332819D02*
X55300524Y-40332819D01*
X55300524Y-40332819D02*
X55205286Y-40285200D01*
X55205286Y-40285200D02*
X55157667Y-40237580D01*
X45235905Y-83766819D02*
X45235905Y-82766819D01*
X45235905Y-82766819D02*
X45474000Y-82766819D01*
X45474000Y-82766819D02*
X45616857Y-82814438D01*
X45616857Y-82814438D02*
X45712095Y-82909676D01*
X45712095Y-82909676D02*
X45759714Y-83004914D01*
X45759714Y-83004914D02*
X45807333Y-83195390D01*
X45807333Y-83195390D02*
X45807333Y-83338247D01*
X45807333Y-83338247D02*
X45759714Y-83528723D01*
X45759714Y-83528723D02*
X45712095Y-83623961D01*
X45712095Y-83623961D02*
X45616857Y-83719200D01*
X45616857Y-83719200D02*
X45474000Y-83766819D01*
X45474000Y-83766819D02*
X45235905Y-83766819D01*
X46712095Y-82766819D02*
X46235905Y-82766819D01*
X46235905Y-82766819D02*
X46188286Y-83243009D01*
X46188286Y-83243009D02*
X46235905Y-83195390D01*
X46235905Y-83195390D02*
X46331143Y-83147771D01*
X46331143Y-83147771D02*
X46569238Y-83147771D01*
X46569238Y-83147771D02*
X46664476Y-83195390D01*
X46664476Y-83195390D02*
X46712095Y-83243009D01*
X46712095Y-83243009D02*
X46759714Y-83338247D01*
X46759714Y-83338247D02*
X46759714Y-83576342D01*
X46759714Y-83576342D02*
X46712095Y-83671580D01*
X46712095Y-83671580D02*
X46664476Y-83719200D01*
X46664476Y-83719200D02*
X46569238Y-83766819D01*
X46569238Y-83766819D02*
X46331143Y-83766819D01*
X46331143Y-83766819D02*
X46235905Y-83719200D01*
X46235905Y-83719200D02*
X46188286Y-83671580D01*
X58126333Y-47274580D02*
X58078714Y-47322200D01*
X58078714Y-47322200D02*
X57935857Y-47369819D01*
X57935857Y-47369819D02*
X57840619Y-47369819D01*
X57840619Y-47369819D02*
X57697762Y-47322200D01*
X57697762Y-47322200D02*
X57602524Y-47226961D01*
X57602524Y-47226961D02*
X57554905Y-47131723D01*
X57554905Y-47131723D02*
X57507286Y-46941247D01*
X57507286Y-46941247D02*
X57507286Y-46798390D01*
X57507286Y-46798390D02*
X57554905Y-46607914D01*
X57554905Y-46607914D02*
X57602524Y-46512676D01*
X57602524Y-46512676D02*
X57697762Y-46417438D01*
X57697762Y-46417438D02*
X57840619Y-46369819D01*
X57840619Y-46369819D02*
X57935857Y-46369819D01*
X57935857Y-46369819D02*
X58078714Y-46417438D01*
X58078714Y-46417438D02*
X58126333Y-46465057D01*
X58983476Y-46703152D02*
X58983476Y-47369819D01*
X58745381Y-46322200D02*
X58507286Y-47036485D01*
X58507286Y-47036485D02*
X59126333Y-47036485D01*
X41870333Y-71066819D02*
X41537000Y-70590628D01*
X41298905Y-71066819D02*
X41298905Y-70066819D01*
X41298905Y-70066819D02*
X41679857Y-70066819D01*
X41679857Y-70066819D02*
X41775095Y-70114438D01*
X41775095Y-70114438D02*
X41822714Y-70162057D01*
X41822714Y-70162057D02*
X41870333Y-70257295D01*
X41870333Y-70257295D02*
X41870333Y-70400152D01*
X41870333Y-70400152D02*
X41822714Y-70495390D01*
X41822714Y-70495390D02*
X41775095Y-70543009D01*
X41775095Y-70543009D02*
X41679857Y-70590628D01*
X41679857Y-70590628D02*
X41298905Y-70590628D01*
X42775095Y-70066819D02*
X42298905Y-70066819D01*
X42298905Y-70066819D02*
X42251286Y-70543009D01*
X42251286Y-70543009D02*
X42298905Y-70495390D01*
X42298905Y-70495390D02*
X42394143Y-70447771D01*
X42394143Y-70447771D02*
X42632238Y-70447771D01*
X42632238Y-70447771D02*
X42727476Y-70495390D01*
X42727476Y-70495390D02*
X42775095Y-70543009D01*
X42775095Y-70543009D02*
X42822714Y-70638247D01*
X42822714Y-70638247D02*
X42822714Y-70876342D01*
X42822714Y-70876342D02*
X42775095Y-70971580D01*
X42775095Y-70971580D02*
X42727476Y-71019200D01*
X42727476Y-71019200D02*
X42632238Y-71066819D01*
X42632238Y-71066819D02*
X42394143Y-71066819D01*
X42394143Y-71066819D02*
X42298905Y-71019200D01*
X42298905Y-71019200D02*
X42251286Y-70971580D01*
X122436095Y-34902819D02*
X123007523Y-34902819D01*
X122721809Y-35902819D02*
X122721809Y-34902819D01*
X123340857Y-35902819D02*
X123340857Y-34902819D01*
X123340857Y-34902819D02*
X123721809Y-34902819D01*
X123721809Y-34902819D02*
X123817047Y-34950438D01*
X123817047Y-34950438D02*
X123864666Y-34998057D01*
X123864666Y-34998057D02*
X123912285Y-35093295D01*
X123912285Y-35093295D02*
X123912285Y-35236152D01*
X123912285Y-35236152D02*
X123864666Y-35331390D01*
X123864666Y-35331390D02*
X123817047Y-35379009D01*
X123817047Y-35379009D02*
X123721809Y-35426628D01*
X123721809Y-35426628D02*
X123340857Y-35426628D01*
X124817047Y-34902819D02*
X124340857Y-34902819D01*
X124340857Y-34902819D02*
X124293238Y-35379009D01*
X124293238Y-35379009D02*
X124340857Y-35331390D01*
X124340857Y-35331390D02*
X124436095Y-35283771D01*
X124436095Y-35283771D02*
X124674190Y-35283771D01*
X124674190Y-35283771D02*
X124769428Y-35331390D01*
X124769428Y-35331390D02*
X124817047Y-35379009D01*
X124817047Y-35379009D02*
X124864666Y-35474247D01*
X124864666Y-35474247D02*
X124864666Y-35712342D01*
X124864666Y-35712342D02*
X124817047Y-35807580D01*
X124817047Y-35807580D02*
X124769428Y-35855200D01*
X124769428Y-35855200D02*
X124674190Y-35902819D01*
X124674190Y-35902819D02*
X124436095Y-35902819D01*
X124436095Y-35902819D02*
X124340857Y-35855200D01*
X124340857Y-35855200D02*
X124293238Y-35807580D01*
D13*
X155453095Y-36199801D02*
X155453095Y-56164201D01*
X155453095Y-56164201D02*
X164797556Y-56164201D01*
X164797556Y-36199801D02*
X155453095Y-36199801D01*
D14*
X157551095Y-57942201D02*
G75*
G02*
X156789095Y-57942201I-381000J0D01*
G01*
X156789095Y-57942201D02*
G75*
G02*
X157551095Y-57942201I381000J0D01*
G01*
D15*
X83792000Y-80772000D02*
G75*
G02*
X80292000Y-80772000I-1750000J0D01*
G01*
X80292000Y-80772000D02*
G75*
G02*
X83792000Y-80772000I1750000J0D01*
G01*
D16*
X130985000Y-102029000D02*
X136985000Y-102029000D01*
X130985000Y-108029000D02*
X130985000Y-102029000D01*
X136985000Y-102029000D02*
X136985000Y-108029000D01*
X136985000Y-108029000D02*
X130985000Y-108029000D01*
D17*
X127934000Y-102780000D02*
G75*
G02*
X127734000Y-102780000I-100000J0D01*
G01*
X127734000Y-102780000D02*
G75*
G02*
X127934000Y-102780000I100000J0D01*
G01*
D11*
X36107000Y-61512000D02*
X36407000Y-61512000D01*
X36107000Y-67012000D02*
X36107000Y-61512000D01*
X36107000Y-67012000D02*
X36312000Y-67012000D01*
X36312000Y-67012000D02*
X36312000Y-68762000D01*
X41617000Y-61512000D02*
X41317000Y-61512000D01*
X41617000Y-67012000D02*
X41317000Y-67012000D01*
X41617000Y-67012000D02*
X41617000Y-61512000D01*
D15*
X34155000Y-50575000D02*
X36875000Y-50575000D01*
X34155000Y-51885000D02*
X34155000Y-50575000D01*
X34155000Y-55295000D02*
X34155000Y-53985000D01*
X36875000Y-50575000D02*
X36875000Y-50805000D01*
X36875000Y-55295000D02*
X34155000Y-55295000D01*
X36875000Y-55295000D02*
X36875000Y-55065000D01*
X38015000Y-55065000D02*
X36875000Y-55065000D01*
X160140000Y-65724000D02*
X160140000Y-66774000D01*
X160140000Y-70894000D02*
X159150000Y-70894000D01*
X160140000Y-71944000D02*
X160140000Y-70894000D01*
X162640000Y-65724000D02*
X160140000Y-65724000D01*
X162640000Y-71944000D02*
X160140000Y-71944000D01*
X164610000Y-70774000D02*
X164610000Y-66894000D01*
X92047000Y-80772000D02*
G75*
G02*
X88547000Y-80772000I-1750000J0D01*
G01*
X88547000Y-80772000D02*
G75*
G02*
X92047000Y-80772000I1750000J0D01*
G01*
X140688000Y-37846000D02*
G75*
G02*
X137188000Y-37846000I-1750000J0D01*
G01*
X137188000Y-37846000D02*
G75*
G02*
X140688000Y-37846000I1750000J0D01*
G01*
X73607664Y-43130800D02*
X73153536Y-43130800D01*
X73607664Y-44600800D02*
X73153536Y-44600800D01*
X52551064Y-39143000D02*
X52096936Y-39143000D01*
X52551064Y-40613000D02*
X52096936Y-40613000D01*
X135608000Y-37846000D02*
G75*
G02*
X132108000Y-37846000I-1750000J0D01*
G01*
X132108000Y-37846000D02*
G75*
G02*
X135608000Y-37846000I1750000J0D01*
G01*
X36837252Y-56161000D02*
X36314748Y-56161000D01*
X36837252Y-57631000D02*
X36314748Y-57631000D01*
X49141748Y-47860000D02*
X49664252Y-47860000D01*
X49141748Y-49330000D02*
X49664252Y-49330000D01*
D11*
X43907000Y-56050000D02*
X43907000Y-51900000D01*
X49057000Y-56050000D02*
X49057000Y-51900000D01*
D15*
X44007000Y-56650000D02*
X43677000Y-56890000D01*
X43677000Y-56410000D01*
X44007000Y-56650000D01*
G36*
X44007000Y-56650000D02*
G01*
X43677000Y-56890000D01*
X43677000Y-56410000D01*
X44007000Y-56650000D01*
G37*
X56785000Y-62682000D02*
X59470000Y-62682000D01*
X59470000Y-60762000D02*
X56785000Y-60762000D01*
X59470000Y-62682000D02*
X59470000Y-60762000D01*
X56100000Y-31425000D02*
X56100000Y-33345000D01*
X56100000Y-33345000D02*
X58785000Y-33345000D01*
X58785000Y-31425000D02*
X56100000Y-31425000D01*
X34182000Y-42310000D02*
X34182000Y-44660000D01*
X34182000Y-49130000D02*
X34182000Y-46780000D01*
X39937563Y-42310000D02*
X34182000Y-42310000D01*
X39937563Y-49130000D02*
X34182000Y-49130000D01*
X41002000Y-43374437D02*
X39937563Y-42310000D01*
X41002000Y-43374437D02*
X41002000Y-44660000D01*
X41002000Y-48065563D02*
X39937563Y-49130000D01*
X41002000Y-48065563D02*
X41002000Y-46780000D01*
X41635750Y-47961250D02*
X41635750Y-47173750D01*
X42029500Y-47567500D02*
X41242000Y-47567500D01*
X46682300Y-44196000D02*
X47348500Y-44196000D01*
X46831800Y-41452800D02*
X42931800Y-41452800D01*
X46831800Y-44196000D02*
X42931800Y-44196000D01*
X47345600Y-41452800D02*
X46634400Y-41452800D01*
X47345600Y-44196000D02*
X47345600Y-41452800D01*
D14*
X160166050Y-79527400D02*
G75*
G02*
X159404050Y-79527400I-381000J0D01*
G01*
X159404050Y-79527400D02*
G75*
G02*
X160166050Y-79527400I381000J0D01*
G01*
D11*
X52797000Y-56004000D02*
X52797000Y-51854000D01*
X57947000Y-56004000D02*
X57947000Y-51854000D01*
D15*
X52897000Y-56604000D02*
X52567000Y-56844000D01*
X52567000Y-56364000D01*
X52897000Y-56604000D01*
G36*
X52897000Y-56604000D02*
G01*
X52567000Y-56844000D01*
X52567000Y-56364000D01*
X52897000Y-56604000D01*
G37*
D16*
X35378000Y-25566000D02*
X44378000Y-25566000D01*
X35378000Y-33716000D02*
X35378000Y-25566000D01*
X35378000Y-39966000D02*
X35378000Y-38816000D01*
X37328000Y-39966000D02*
X35378000Y-39966000D01*
X44378000Y-25566000D02*
X44378000Y-39966000D01*
X44378000Y-39966000D02*
X42528000Y-39966000D01*
D18*
X40078000Y-41266000D02*
G75*
G02*
X39678000Y-41266000I-200000J0D01*
G01*
X39678000Y-41266000D02*
G75*
G02*
X40078000Y-41266000I200000J0D01*
G01*
D15*
X30353000Y-62230000D02*
X30988000Y-62230000D01*
X30353000Y-62865000D02*
X30353000Y-62230000D01*
X82776000Y-35560000D02*
G75*
G02*
X79276000Y-35560000I-1750000J0D01*
G01*
X79276000Y-35560000D02*
G75*
G02*
X82776000Y-35560000I1750000J0D01*
G01*
X73607664Y-45797800D02*
X73153536Y-45797800D01*
X73607664Y-47267800D02*
X73153536Y-47267800D01*
X130528000Y-37846000D02*
G75*
G02*
X127028000Y-37846000I-1750000J0D01*
G01*
X127028000Y-37846000D02*
G75*
G02*
X130528000Y-37846000I1750000J0D01*
G01*
X38635000Y-73305936D02*
X38635000Y-73760064D01*
X40105000Y-73305936D02*
X40105000Y-73760064D01*
X84279000Y-33860000D02*
X87679000Y-33860000D01*
X84279000Y-37260000D02*
X84279000Y-33860000D01*
X87679000Y-33860000D02*
X87679000Y-37260000D01*
X87679000Y-37260000D02*
X84279000Y-37260000D01*
X56785000Y-43632000D02*
X59470000Y-43632000D01*
X59470000Y-41712000D02*
X56785000Y-41712000D01*
X59470000Y-43632000D02*
X59470000Y-41712000D01*
X41926000Y-79192000D02*
X44611000Y-79192000D01*
X44611000Y-77272000D02*
X41926000Y-77272000D01*
X44611000Y-79192000D02*
X44611000Y-77272000D01*
X54075064Y-60987000D02*
X53620936Y-60987000D01*
X54075064Y-62457000D02*
X53620936Y-62457000D01*
X52551064Y-31650000D02*
X52096936Y-31650000D01*
X52551064Y-33120000D02*
X52096936Y-33120000D01*
X56785000Y-36139000D02*
X59470000Y-36139000D01*
X59470000Y-34219000D02*
X56785000Y-34219000D01*
X59470000Y-36139000D02*
X59470000Y-34219000D01*
X56100000Y-38905000D02*
X56100000Y-40825000D01*
X56100000Y-40825000D02*
X58785000Y-40825000D01*
X58785000Y-38905000D02*
X56100000Y-38905000D01*
X41926000Y-84272000D02*
X44611000Y-84272000D01*
X44611000Y-82352000D02*
X41926000Y-82352000D01*
X44611000Y-84272000D02*
X44611000Y-82352000D01*
X58031748Y-47860000D02*
X58554252Y-47860000D01*
X58031748Y-49330000D02*
X58554252Y-49330000D01*
X41302000Y-73305936D02*
X41302000Y-73760064D01*
X42772000Y-73305936D02*
X42772000Y-73760064D01*
X121998000Y-36146000D02*
X125398000Y-36146000D01*
X121998000Y-39546000D02*
X121998000Y-36146000D01*
X125398000Y-36146000D02*
X125398000Y-39546000D01*
X125398000Y-39546000D02*
X121998000Y-39546000D01*
M02*
