G04 start of page 7 for group -4063 idx -4063 *
G04 Title: (unknown), componentmask *
G04 Creator: pcb 4.0.2 *
G04 CreationDate: Mon Feb 22 18:13:25 2021 UTC *
G04 For: ndholmes *
G04 Format: Gerber/RS-274X *
G04 PCB-Dimensions (mil): 2600.00 3500.00 *
G04 PCB-Coordinate-Origin: lower left *
%MOIN*%
%FSLAX25Y25*%
%LNTOPMASK*%
%ADD69C,0.0370*%
%ADD68C,0.0860*%
%ADD67C,0.2997*%
%ADD66C,0.1420*%
%ADD65C,0.1700*%
%ADD64C,0.1950*%
%ADD63C,0.0960*%
%ADD62C,0.0001*%
%ADD61C,0.0490*%
G54D61*X196000Y211000D03*
X176000Y207000D03*
Y215000D03*
G54D62*G36*
X162700Y314800D02*Y305200D01*
X172300D01*
Y314800D01*
X162700D01*
G37*
G54D63*X147500Y310000D03*
G54D64*X40500Y296000D03*
G54D65*Y320000D03*
X21500Y308000D03*
G54D66*X15000Y85000D03*
G54D67*X66000Y170000D03*
G54D66*X240000Y84500D03*
G54D67*X182000Y24000D03*
X66000D03*
X182000Y170000D03*
G54D62*G36*
X150200Y171300D02*Y162700D01*
X158800D01*
Y171300D01*
X150200D01*
G37*
G54D68*X134500Y167000D03*
G54D62*G36*
X110200Y171300D02*Y162700D01*
X118800D01*
Y171300D01*
X110200D01*
G37*
G54D68*X94500Y167000D03*
G54D62*G36*
X210500Y30300D02*Y25100D01*
X220850D01*
Y30300D01*
X210500D01*
G37*
G36*
X232150D02*Y25100D01*
X242500D01*
Y30300D01*
X232150D01*
G37*
G36*
X210500Y40100D02*Y34900D01*
X220850D01*
Y40100D01*
X210500D01*
G37*
G36*
X232150D02*Y34900D01*
X242500D01*
Y40100D01*
X232150D01*
G37*
G36*
X210500Y49900D02*Y44700D01*
X220850D01*
Y49900D01*
X210500D01*
G37*
G36*
X232150D02*Y44700D01*
X242500D01*
Y49900D01*
X232150D01*
G37*
G36*
X215316Y146752D02*X209598D01*
Y140248D01*
X215316D01*
Y146752D01*
G37*
G36*
Y135752D02*X209598D01*
Y129248D01*
X215316D01*
Y135752D01*
G37*
G36*
Y160752D02*X209598D01*
Y154248D01*
X215316D01*
Y160752D01*
G37*
G36*
X222402Y146752D02*X216684D01*
Y140248D01*
X222402D01*
Y146752D01*
G37*
G36*
Y135752D02*X216684D01*
Y129248D01*
X222402D01*
Y135752D01*
G37*
G36*
Y160752D02*X216684D01*
Y154248D01*
X222402D01*
Y160752D01*
G37*
G36*
X215316Y170752D02*X209598D01*
Y164248D01*
X215316D01*
Y170752D01*
G37*
G36*
X222402D02*X216684D01*
Y164248D01*
X222402D01*
Y170752D01*
G37*
G36*
X172248Y272316D02*Y266598D01*
X178752D01*
Y272316D01*
X172248D01*
G37*
G36*
X202170Y292300D02*X193570D01*
Y239700D01*
X202170D01*
Y292300D01*
G37*
G36*
X162800Y261800D02*X160200D01*
Y252700D01*
X162800D01*
Y261800D01*
G37*
G36*
X167800D02*X165200D01*
Y252700D01*
X167800D01*
Y261800D01*
G37*
G36*
Y282300D02*X165200D01*
Y273200D01*
X167800D01*
Y282300D01*
G37*
G36*
X172248Y279402D02*Y273684D01*
X178752D01*
Y279402D01*
X172248D01*
G37*
G36*
X123430Y292300D02*X114830D01*
Y239700D01*
X123430D01*
Y292300D01*
G37*
G36*
X152800Y261800D02*X150200D01*
Y252700D01*
X152800D01*
Y261800D01*
G37*
G36*
X157800D02*X155200D01*
Y252700D01*
X157800D01*
Y261800D01*
G37*
G36*
X152800Y282300D02*X150200D01*
Y273200D01*
X152800D01*
Y282300D01*
G37*
G36*
X162800D02*X160200D01*
Y273200D01*
X162800D01*
Y282300D01*
G37*
G36*
X157800D02*X155200D01*
Y273200D01*
X157800D01*
Y282300D01*
G37*
G36*
X152895Y272525D02*Y262475D01*
X165105D01*
Y272525D01*
X152895D01*
G37*
G36*
X152595D02*Y262475D01*
X165405D01*
Y272525D01*
X152595D01*
G37*
G36*
X59284Y229800D02*X54904D01*
Y221326D01*
X59284D01*
Y229800D01*
G37*
G36*
X65190Y237516D02*X60810D01*
Y221326D01*
X65190D01*
Y237516D01*
G37*
G36*
X68025Y243975D02*X57975D01*
Y232035D01*
X68025D01*
Y243975D01*
G37*
G36*
X59695Y234179D02*X57851Y232335D01*
X61115Y229071D01*
X62959Y230915D01*
X59695Y234179D01*
G37*
G36*
X68149Y232335D02*X66305Y234179D01*
X63041Y230915D01*
X64885Y229071D01*
X68149Y232335D01*
G37*
G36*
X71096Y229800D02*X66716D01*
Y221326D01*
X71096D01*
Y229800D01*
G37*
G36*
X13558Y268950D02*Y262050D01*
X26757D01*
Y268950D01*
X13558D01*
G37*
G36*
X33243D02*Y262050D01*
X46442D01*
Y268950D01*
X33243D01*
G37*
G36*
X14058Y238950D02*Y232050D01*
X27257D01*
Y238950D01*
X14058D01*
G37*
G36*
X33743D02*Y232050D01*
X46942D01*
Y238950D01*
X33743D01*
G37*
G36*
X59273Y216252D02*X53555D01*
Y209748D01*
X59273D01*
Y216252D01*
G37*
G36*
X66359D02*X60641D01*
Y209748D01*
X66359D01*
Y216252D01*
G37*
G36*
X222402Y194752D02*X216684D01*
Y188248D01*
X222402D01*
Y194752D01*
G37*
G36*
X215316D02*X209598D01*
Y188248D01*
X215316D01*
Y194752D01*
G37*
G36*
X215902Y205752D02*X210184D01*
Y199248D01*
X215902D01*
Y205752D01*
G37*
G36*
X208816D02*X203098D01*
Y199248D01*
X208816D01*
Y205752D01*
G37*
G36*
X215902Y214252D02*X210184D01*
Y207748D01*
X215902D01*
Y214252D01*
G37*
G36*
X208816D02*X203098D01*
Y207748D01*
X208816D01*
Y214252D01*
G37*
G36*
X215359Y224252D02*X209641D01*
Y217748D01*
X215359D01*
Y224252D01*
G37*
G36*
X222445D02*X216727D01*
Y217748D01*
X222445D01*
Y224252D01*
G37*
G54D69*X191000Y213500D03*
Y208500D03*
X186000Y213500D03*
Y208500D03*
X181000D03*
Y213500D03*
G54D62*G36*
X242248Y283902D02*Y278184D01*
X248752D01*
Y283902D01*
X242248D01*
G37*
G36*
Y276816D02*Y271098D01*
X248752D01*
Y276816D01*
X242248D01*
G37*
G36*
X202316Y343752D02*X196598D01*
Y337248D01*
X202316D01*
Y343752D01*
G37*
G36*
X209402D02*X203684D01*
Y337248D01*
X209402D01*
Y343752D01*
G37*
G36*
X202273Y332752D02*X196555D01*
Y326248D01*
X202273D01*
Y332752D01*
G37*
G36*
X209359D02*X203641D01*
Y326248D01*
X209359D01*
Y332752D01*
G37*
G36*
X202316Y321752D02*X196598D01*
Y315248D01*
X202316D01*
Y321752D01*
G37*
G36*
X209402D02*X203684D01*
Y315248D01*
X209402D01*
Y321752D01*
G37*
G36*
X249248Y303902D02*Y298184D01*
X255752D01*
Y303902D01*
X249248D01*
G37*
G36*
Y296816D02*Y291098D01*
X255752D01*
Y296816D01*
X249248D01*
G37*
G36*
X141988Y194752D02*X136270D01*
Y188248D01*
X141988D01*
Y194752D01*
G37*
G36*
X134902D02*X129184D01*
Y188248D01*
X134902D01*
Y194752D01*
G37*
G36*
X157816Y194709D02*X152098D01*
Y188205D01*
X157816D01*
Y194709D01*
G37*
G36*
X164902D02*X159184D01*
Y188205D01*
X164902D01*
Y194709D01*
G37*
G36*
X110248Y209402D02*Y203684D01*
X116752D01*
Y209402D01*
X110248D01*
G37*
G36*
Y202316D02*Y196598D01*
X116752D01*
Y202316D01*
X110248D01*
G37*
G36*
X105887Y206953D02*X100169D01*
Y198480D01*
X105887D01*
Y206953D01*
G37*
G36*
X110248Y217816D02*Y212098D01*
X116752D01*
Y217816D01*
X110248D01*
G37*
G36*
Y224902D02*Y219184D01*
X116752D01*
Y224902D01*
X110248D01*
G37*
G36*
X123500Y219000D02*Y216000D01*
X133000D01*
Y219000D01*
X123500D01*
G37*
G36*
Y214000D02*Y211000D01*
X133000D01*
Y214000D01*
X123500D01*
G37*
G36*
Y209000D02*Y206000D01*
X133000D01*
Y209000D01*
X123500D01*
G37*
G36*
X105887Y221520D02*X100169D01*
Y213047D01*
X105887D01*
Y221520D01*
G37*
G36*
X123500Y204000D02*Y201000D01*
X133000D01*
Y204000D01*
X123500D01*
G37*
G36*
X144000D02*Y201000D01*
X153500D01*
Y204000D01*
X144000D01*
G37*
G36*
Y209000D02*Y206000D01*
X153500D01*
Y209000D01*
X144000D01*
G37*
G36*
Y214000D02*Y211000D01*
X153500D01*
Y214000D01*
X144000D01*
G37*
G36*
Y219000D02*Y216000D01*
X153500D01*
Y219000D01*
X144000D01*
G37*
G36*
X96831Y221520D02*X91113D01*
Y213047D01*
X96831D01*
Y221520D01*
G37*
G36*
Y206953D02*X91113D01*
Y198480D01*
X96831D01*
Y206953D01*
G37*
M02*
