G04 start of page 13 for group -3984 idx -3984 *
G04 Title: (unknown), fab *
G04 Creator: pcb 4.0.2 *
G04 CreationDate: Mon Feb 22 18:13:25 2021 UTC *
G04 For: ndholmes *
G04 Format: Gerber/RS-274X *
G04 PCB-Dimensions (mil): 2600.00 3500.00 *
G04 PCB-Coordinate-Origin: lower left *
%MOIN*%
%FSLAX25Y25*%
%LNFAB*%
%ADD89C,0.0100*%
%ADD88C,0.0075*%
%ADD87C,0.0060*%
%ADD86R,0.0080X0.0080*%
%ADD85C,0.0001*%
G54D85*G36*
X179600Y26966D02*X184966Y21600D01*
X184400Y21034D01*
X179034Y26400D01*
X179600Y26966D01*
G37*
G36*
X179034Y21600D02*X184400Y26966D01*
X184966Y26400D01*
X179600Y21034D01*
X179034Y21600D01*
G37*
G54D86*X180400Y25600D02*X183600D01*
X180400D02*Y22400D01*
X183600D01*
Y25600D02*Y22400D01*
G54D85*G36*
X63600Y172966D02*X68966Y167600D01*
X68400Y167034D01*
X63034Y172400D01*
X63600Y172966D01*
G37*
G36*
X63034Y167600D02*X68400Y172966D01*
X68966Y172400D01*
X63600Y167034D01*
X63034Y167600D01*
G37*
G54D86*X64400Y171600D02*X67600D01*
X64400D02*Y168400D01*
X67600D01*
Y171600D02*Y168400D01*
G54D85*G36*
X179600Y172966D02*X184966Y167600D01*
X184400Y167034D01*
X179034Y172400D01*
X179600Y172966D01*
G37*
G36*
X179034Y167600D02*X184400Y172966D01*
X184966Y172400D01*
X179600Y167034D01*
X179034Y167600D01*
G37*
G54D86*X180400Y171600D02*X183600D01*
X180400D02*Y168400D01*
X183600D01*
Y171600D02*Y168400D01*
G54D85*G36*
X63600Y26966D02*X68966Y21600D01*
X68400Y21034D01*
X63034Y26400D01*
X63600Y26966D01*
G37*
G36*
X63034Y21600D02*X68400Y26966D01*
X68966Y26400D01*
X63600Y21034D01*
X63034Y21600D01*
G37*
G54D86*X64400Y25600D02*X67600D01*
X64400D02*Y22400D01*
X67600D01*
Y25600D02*Y22400D01*
G54D85*G36*
X12600Y364216D02*X17966Y358850D01*
X17400Y358284D01*
X12034Y363650D01*
X12600Y364216D01*
G37*
G36*
X12034Y358850D02*X17400Y364216D01*
X17966Y363650D01*
X12600Y358284D01*
X12034Y358850D01*
G37*
G54D86*X13400Y362850D02*X16600D01*
X13400D02*Y359650D01*
X16600D01*
Y362850D02*Y359650D01*
G54D87*X135000Y363500D02*X136500Y360500D01*
X138000Y363500D01*
X136500Y360500D02*Y357500D01*
X139800Y360800D02*X142050D01*
X139800Y357500D02*X142800D01*
X139800Y363500D02*Y357500D01*
Y363500D02*X142800D01*
X147600D02*X148350Y362750D01*
X145350Y363500D02*X147600D01*
X144600Y362750D02*X145350Y363500D01*
X144600Y362750D02*Y361250D01*
X145350Y360500D01*
X147600D01*
X148350Y359750D01*
Y358250D01*
X147600Y357500D02*X148350Y358250D01*
X145350Y357500D02*X147600D01*
X144600Y358250D02*X145350Y357500D01*
X98000Y359750D02*X101000Y363500D01*
X98000Y359750D02*X101750D01*
X101000Y363500D02*Y357500D01*
X45000Y358250D02*X45750Y357500D01*
X45000Y362750D02*Y358250D01*
Y362750D02*X45750Y363500D01*
X47250D01*
X48000Y362750D01*
Y358250D01*
X47250Y357500D02*X48000Y358250D01*
X45750Y357500D02*X47250D01*
X45000Y359000D02*X48000Y362000D01*
X49800Y357500D02*X50550D01*
X52350Y362300D02*X53550Y363500D01*
Y357500D01*
X52350D02*X54600D01*
X56400Y362750D02*X57150Y363500D01*
X59400D01*
X60150Y362750D01*
Y361250D01*
X56400Y357500D02*X60150Y361250D01*
X56400Y357500D02*X60150D01*
X62700D02*X64950Y360500D01*
Y362750D02*Y360500D01*
X64200Y363500D02*X64950Y362750D01*
X62700Y363500D02*X64200D01*
X61950Y362750D02*X62700Y363500D01*
X61950Y362750D02*Y361250D01*
X62700Y360500D01*
X64950D01*
X40500Y299200D02*Y292800D01*
X37300Y296000D02*X43700D01*
X38900Y297600D02*X42100D01*
X38900D02*Y294400D01*
X42100D01*
Y297600D02*Y294400D01*
X15000Y379450D02*Y373050D01*
X11800Y376250D02*X18200D01*
X13400Y377850D02*X16600D01*
X13400D02*Y374650D01*
X16600D01*
Y377850D02*Y374650D01*
X135000Y378500D02*X136500Y375500D01*
X138000Y378500D01*
X136500Y375500D02*Y372500D01*
X139800Y375800D02*X142050D01*
X139800Y372500D02*X142800D01*
X139800Y378500D02*Y372500D01*
Y378500D02*X142800D01*
X147600D02*X148350Y377750D01*
X145350Y378500D02*X147600D01*
X144600Y377750D02*X145350Y378500D01*
X144600Y377750D02*Y376250D01*
X145350Y375500D01*
X147600D01*
X148350Y374750D01*
Y373250D01*
X147600Y372500D02*X148350Y373250D01*
X145350Y372500D02*X147600D01*
X144600Y373250D02*X145350Y372500D01*
X98000Y377300D02*X99200Y378500D01*
Y372500D01*
X98000D02*X100250D01*
X45000Y373250D02*X45750Y372500D01*
X45000Y377750D02*Y373250D01*
Y377750D02*X45750Y378500D01*
X47250D01*
X48000Y377750D01*
Y373250D01*
X47250Y372500D02*X48000Y373250D01*
X45750Y372500D02*X47250D01*
X45000Y374000D02*X48000Y377000D01*
X49800Y372500D02*X50550D01*
X52350Y377300D02*X53550Y378500D01*
Y372500D01*
X52350D02*X54600D01*
X56400Y377750D02*X57150Y378500D01*
X59400D01*
X60150Y377750D01*
Y376250D01*
X56400Y372500D02*X60150Y376250D01*
X56400Y372500D02*X60150D01*
X61950Y378500D02*X64950D01*
X61950D02*Y375500D01*
X62700Y376250D01*
X64200D01*
X64950Y375500D01*
Y373250D01*
X64200Y372500D02*X64950Y373250D01*
X62700Y372500D02*X64200D01*
X61950Y373250D02*X62700Y372500D01*
X40500Y320000D02*Y316800D01*
Y320000D02*X43273Y321600D01*
X40500Y320000D02*X37727Y321600D01*
X38900Y320000D02*G75*G03X42100Y320000I1600J0D01*G01*
G75*G03X38900Y320000I-1600J0D01*G01*
X21500Y308000D02*Y304800D01*
Y308000D02*X24273Y309600D01*
X21500Y308000D02*X18727Y309600D01*
X19900Y308000D02*G75*G03X23100Y308000I1600J0D01*G01*
G75*G03X19900Y308000I-1600J0D01*G01*
X15000Y391250D02*Y388050D01*
Y391250D02*X17773Y392850D01*
X15000Y391250D02*X12227Y392850D01*
X13400Y391250D02*G75*G03X16600Y391250I1600J0D01*G01*
G75*G03X13400Y391250I-1600J0D01*G01*
X135000Y393500D02*X136500Y390500D01*
X138000Y393500D01*
X136500Y390500D02*Y387500D01*
X139800Y390800D02*X142050D01*
X139800Y387500D02*X142800D01*
X139800Y393500D02*Y387500D01*
Y393500D02*X142800D01*
X147600D02*X148350Y392750D01*
X145350Y393500D02*X147600D01*
X144600Y392750D02*X145350Y393500D01*
X144600Y392750D02*Y391250D01*
X145350Y390500D01*
X147600D01*
X148350Y389750D01*
Y388250D01*
X147600Y387500D02*X148350Y388250D01*
X145350Y387500D02*X147600D01*
X144600Y388250D02*X145350Y387500D01*
X98000Y392750D02*X98750Y393500D01*
X101000D01*
X101750Y392750D01*
Y391250D01*
X98000Y387500D02*X101750Y391250D01*
X98000Y387500D02*X101750D01*
X45000Y388250D02*X45750Y387500D01*
X45000Y392750D02*Y388250D01*
Y392750D02*X45750Y393500D01*
X47250D01*
X48000Y392750D01*
Y388250D01*
X47250Y387500D02*X48000Y388250D01*
X45750Y387500D02*X47250D01*
X45000Y389000D02*X48000Y392000D01*
X49800Y387500D02*X50550D01*
X52350Y392300D02*X53550Y393500D01*
Y387500D01*
X52350D02*X54600D01*
X56400Y392300D02*X57600Y393500D01*
Y387500D01*
X56400D02*X58650D01*
X60450Y388250D02*X61200Y387500D01*
X60450Y392750D02*Y388250D01*
Y392750D02*X61200Y393500D01*
X62700D01*
X63450Y392750D01*
Y388250D01*
X62700Y387500D02*X63450Y388250D01*
X61200Y387500D02*X62700D01*
X60450Y389000D02*X63450Y392000D01*
X238400Y86100D02*X241600D01*
X238400D02*Y82900D01*
X241600D01*
Y86100D02*Y82900D01*
X13400Y86600D02*X16600D01*
X13400D02*Y83400D01*
X16600D01*
Y86600D02*Y83400D01*
X13400Y407850D02*X16600D01*
X13400D02*Y404650D01*
X16600D01*
Y407850D02*Y404650D01*
X135000Y408500D02*X136500Y405500D01*
X138000Y408500D01*
X136500Y405500D02*Y402500D01*
X139800Y405800D02*X142050D01*
X139800Y402500D02*X142800D01*
X139800Y408500D02*Y402500D01*
Y408500D02*X142800D01*
X147600D02*X148350Y407750D01*
X145350Y408500D02*X147600D01*
X144600Y407750D02*X145350Y408500D01*
X144600Y407750D02*Y406250D01*
X145350Y405500D01*
X147600D01*
X148350Y404750D01*
Y403250D01*
X147600Y402500D02*X148350Y403250D01*
X145350Y402500D02*X147600D01*
X144600Y403250D02*X145350Y402500D01*
X98000Y407750D02*X98750Y408500D01*
X101000D01*
X101750Y407750D01*
Y406250D01*
X98000Y402500D02*X101750Y406250D01*
X98000Y402500D02*X101750D01*
X45000Y403250D02*X45750Y402500D01*
X45000Y407750D02*Y403250D01*
Y407750D02*X45750Y408500D01*
X47250D01*
X48000Y407750D01*
Y403250D01*
X47250Y402500D02*X48000Y403250D01*
X45750Y402500D02*X47250D01*
X45000Y404000D02*X48000Y407000D01*
X49800Y402500D02*X50550D01*
X52350Y403250D02*X53100Y402500D01*
X52350Y407750D02*Y403250D01*
Y407750D02*X53100Y408500D01*
X54600D01*
X55350Y407750D01*
Y403250D01*
X54600Y402500D02*X55350Y403250D01*
X53100Y402500D02*X54600D01*
X52350Y404000D02*X55350Y407000D01*
X57900Y402500D02*X60150Y405500D01*
Y407750D02*Y405500D01*
X59400Y408500D02*X60150Y407750D01*
X57900Y408500D02*X59400D01*
X57150Y407750D02*X57900Y408500D01*
X57150Y407750D02*Y406250D01*
X57900Y405500D01*
X60150D01*
X64200Y408500D02*X64950Y407750D01*
X62700Y408500D02*X64200D01*
X61950Y407750D02*X62700Y408500D01*
X61950Y407750D02*Y403250D01*
X62700Y402500D01*
X64200Y405800D02*X64950Y405050D01*
X61950Y405800D02*X64200D01*
X62700Y402500D02*X64200D01*
X64950Y403250D01*
Y405050D02*Y403250D01*
X166700Y310000D02*G75*G03X168300Y310000I800J0D01*G01*
G75*G03X166700Y310000I-800J0D01*G01*
X146700D02*G75*G03X148300Y310000I800J0D01*G01*
G75*G03X146700Y310000I-800J0D01*G01*
X14200Y421250D02*G75*G03X15800Y421250I800J0D01*G01*
G75*G03X14200Y421250I-800J0D01*G01*
X135000Y423500D02*X136500Y420500D01*
X138000Y423500D01*
X136500Y420500D02*Y417500D01*
X139800Y420800D02*X142050D01*
X139800Y417500D02*X142800D01*
X139800Y423500D02*Y417500D01*
Y423500D02*X142800D01*
X147600D02*X148350Y422750D01*
X145350Y423500D02*X147600D01*
X144600Y422750D02*X145350Y423500D01*
X144600Y422750D02*Y421250D01*
X145350Y420500D01*
X147600D01*
X148350Y419750D01*
Y418250D01*
X147600Y417500D02*X148350Y418250D01*
X145350Y417500D02*X147600D01*
X144600Y418250D02*X145350Y417500D01*
X98000Y422750D02*X98750Y423500D01*
X101000D01*
X101750Y422750D01*
Y421250D01*
X98000Y417500D02*X101750Y421250D01*
X98000Y417500D02*X101750D01*
X45000Y418250D02*X45750Y417500D01*
X45000Y422750D02*Y418250D01*
Y422750D02*X45750Y423500D01*
X47250D01*
X48000Y422750D01*
Y418250D01*
X47250Y417500D02*X48000Y418250D01*
X45750Y417500D02*X47250D01*
X45000Y419000D02*X48000Y422000D01*
X49800Y417500D02*X50550D01*
X52350Y418250D02*X53100Y417500D01*
X52350Y422750D02*Y418250D01*
Y422750D02*X53100Y423500D01*
X54600D01*
X55350Y422750D01*
Y418250D01*
X54600Y417500D02*X55350Y418250D01*
X53100Y417500D02*X54600D01*
X52350Y419000D02*X55350Y422000D01*
X57150Y423500D02*X60150D01*
X57150D02*Y420500D01*
X57900Y421250D01*
X59400D01*
X60150Y420500D01*
Y418250D01*
X59400Y417500D02*X60150Y418250D01*
X57900Y417500D02*X59400D01*
X57150Y418250D02*X57900Y417500D01*
X61950Y423500D02*X64950D01*
X61950D02*Y420500D01*
X62700Y421250D01*
X64200D01*
X64950Y420500D01*
Y418250D01*
X64200Y417500D02*X64950Y418250D01*
X62700Y417500D02*X64200D01*
X61950Y418250D02*X62700Y417500D01*
X153300Y168200D02*X155700Y165800D01*
X153300D02*X155700Y168200D01*
X133300D02*X135700Y165800D01*
X133300D02*X135700Y168200D01*
X113300D02*X115700Y165800D01*
X113300D02*X115700Y168200D01*
X93300D02*X95700Y165800D01*
X93300D02*X95700Y168200D01*
X13800Y437450D02*X16200Y435050D01*
X13800D02*X16200Y437450D01*
X135000Y438500D02*X136500Y435500D01*
X138000Y438500D01*
X136500Y435500D02*Y432500D01*
X139800Y435800D02*X142050D01*
X139800Y432500D02*X142800D01*
X139800Y438500D02*Y432500D01*
Y438500D02*X142800D01*
X147600D02*X148350Y437750D01*
X145350Y438500D02*X147600D01*
X144600Y437750D02*X145350Y438500D01*
X144600Y437750D02*Y436250D01*
X145350Y435500D01*
X147600D01*
X148350Y434750D01*
Y433250D01*
X147600Y432500D02*X148350Y433250D01*
X145350Y432500D02*X147600D01*
X144600Y433250D02*X145350Y432500D01*
X98000Y434750D02*X101000Y438500D01*
X98000Y434750D02*X101750D01*
X101000Y438500D02*Y432500D01*
X45000Y433250D02*X45750Y432500D01*
X45000Y437750D02*Y433250D01*
Y437750D02*X45750Y438500D01*
X47250D01*
X48000Y437750D01*
Y433250D01*
X47250Y432500D02*X48000Y433250D01*
X45750Y432500D02*X47250D01*
X45000Y434000D02*X48000Y437000D01*
X49800Y432500D02*X50550D01*
X52350Y433250D02*X53100Y432500D01*
X52350Y437750D02*Y433250D01*
Y437750D02*X53100Y438500D01*
X54600D01*
X55350Y437750D01*
Y433250D01*
X54600Y432500D02*X55350Y433250D01*
X53100Y432500D02*X54600D01*
X52350Y434000D02*X55350Y437000D01*
X57150Y434750D02*X60150Y438500D01*
X57150Y434750D02*X60900D01*
X60150Y438500D02*Y432500D01*
X62700Y437750D02*X63450Y438500D01*
X65700D01*
X66450Y437750D01*
Y436250D01*
X62700Y432500D02*X66450Y436250D01*
X62700Y432500D02*X66450D01*
X196000Y212600D02*Y209400D01*
X194400Y211000D02*X197600D01*
X176000Y208600D02*Y205400D01*
X174400Y207000D02*X177600D01*
X176000Y216600D02*Y213400D01*
X174400Y215000D02*X177600D01*
X15000Y452850D02*Y449650D01*
X13400Y451250D02*X16600D01*
X140000Y453500D02*Y447500D01*
Y453500D02*X143750Y447500D01*
Y453500D02*Y447500D01*
X145550Y452750D02*Y448250D01*
Y452750D02*X146300Y453500D01*
X147800D01*
X148550Y452750D01*
Y448250D01*
X147800Y447500D02*X148550Y448250D01*
X146300Y447500D02*X147800D01*
X145550Y448250D02*X146300Y447500D01*
X98000Y452750D02*X98750Y453500D01*
X100250D01*
X101000Y452750D01*
X100250Y447500D02*X101000Y448250D01*
X98750Y447500D02*X100250D01*
X98000Y448250D02*X98750Y447500D01*
Y450800D02*X100250D01*
X101000Y452750D02*Y451550D01*
Y450050D02*Y448250D01*
Y450050D02*X100250Y450800D01*
X101000Y451550D02*X100250Y450800D01*
X45000Y448250D02*X45750Y447500D01*
X45000Y452750D02*Y448250D01*
Y452750D02*X45750Y453500D01*
X47250D01*
X48000Y452750D01*
Y448250D01*
X47250Y447500D02*X48000Y448250D01*
X45750Y447500D02*X47250D01*
X45000Y449000D02*X48000Y452000D01*
X49800Y447500D02*X50550D01*
X52350Y448250D02*X53100Y447500D01*
X52350Y452750D02*Y448250D01*
Y452750D02*X53100Y453500D01*
X54600D01*
X55350Y452750D01*
Y448250D01*
X54600Y447500D02*X55350Y448250D01*
X53100Y447500D02*X54600D01*
X52350Y449000D02*X55350Y452000D01*
X57150Y452750D02*X57900Y453500D01*
X59400D01*
X60150Y452750D01*
X59400Y447500D02*X60150Y448250D01*
X57900Y447500D02*X59400D01*
X57150Y448250D02*X57900Y447500D01*
Y450800D02*X59400D01*
X60150Y452750D02*Y451550D01*
Y450050D02*Y448250D01*
Y450050D02*X59400Y450800D01*
X60150Y451550D02*X59400Y450800D01*
X62700Y447500D02*X64950Y450500D01*
Y452750D02*Y450500D01*
X64200Y453500D02*X64950Y452750D01*
X62700Y453500D02*X64200D01*
X61950Y452750D02*X62700Y453500D01*
X61950Y452750D02*Y451250D01*
X62700Y450500D01*
X64950D01*
X24000Y271500D02*Y269900D01*
Y271500D02*X25387Y272300D01*
X24000Y271500D02*X22613Y272300D01*
X20000Y271500D02*Y269900D01*
Y271500D02*X21387Y272300D01*
X20000Y271500D02*X18613Y272300D01*
X16000Y271500D02*Y269900D01*
Y271500D02*X17387Y272300D01*
X16000Y271500D02*X14613Y272300D01*
X24000Y260000D02*Y258400D01*
Y260000D02*X25387Y260800D01*
X24000Y260000D02*X22613Y260800D01*
X20000Y260000D02*Y258400D01*
Y260000D02*X21387Y260800D01*
X20000Y260000D02*X18613Y260800D01*
X16000Y260000D02*Y258400D01*
Y260000D02*X17387Y260800D01*
X16000Y260000D02*X14613Y260800D01*
X24500Y241500D02*Y239900D01*
Y241500D02*X25887Y242300D01*
X24500Y241500D02*X23113Y242300D01*
X20500Y241500D02*Y239900D01*
Y241500D02*X21887Y242300D01*
X20500Y241500D02*X19113Y242300D01*
X16500Y241500D02*Y239900D01*
Y241500D02*X17887Y242300D01*
X16500Y241500D02*X15113Y242300D01*
X24500Y229500D02*Y227900D01*
Y229500D02*X25887Y230300D01*
X24500Y229500D02*X23113Y230300D01*
X20500Y229500D02*Y227900D01*
Y229500D02*X21887Y230300D01*
X20500Y229500D02*X19113Y230300D01*
X16500Y229500D02*Y227900D01*
Y229500D02*X17887Y230300D01*
X16500Y229500D02*X15113Y230300D01*
X37000Y282500D02*Y280900D01*
Y282500D02*X38387Y283300D01*
X37000Y282500D02*X35613Y283300D01*
X33000Y282500D02*Y280900D01*
Y282500D02*X34387Y283300D01*
X33000Y282500D02*X31613Y283300D01*
X29000Y282500D02*Y280900D01*
Y282500D02*X30387Y283300D01*
X29000Y282500D02*X27613Y283300D01*
X181000Y284500D02*Y282900D01*
Y284500D02*X182387Y285300D01*
X181000Y284500D02*X179613Y285300D01*
X177000Y284500D02*Y282900D01*
Y284500D02*X178387Y285300D01*
X177000Y284500D02*X175613Y285300D01*
X173000Y284500D02*Y282900D01*
Y284500D02*X174387Y285300D01*
X173000Y284500D02*X171613Y285300D01*
X181000Y280500D02*Y278900D01*
Y280500D02*X182387Y281300D01*
X181000Y280500D02*X179613Y281300D01*
X181000Y276500D02*Y274900D01*
Y276500D02*X182387Y277300D01*
X181000Y276500D02*X179613Y277300D01*
X170000Y276000D02*Y274400D01*
Y276000D02*X171387Y276800D01*
X170000Y276000D02*X168613Y276800D01*
X170000Y279500D02*Y277900D01*
Y279500D02*X171387Y280300D01*
X170000Y279500D02*X168613Y280300D01*
X181000Y289500D02*Y287900D01*
Y289500D02*X182387Y290300D01*
X181000Y289500D02*X179613Y290300D01*
X177000Y289500D02*Y287900D01*
Y289500D02*X178387Y290300D01*
X177000Y289500D02*X175613Y290300D01*
X173000Y289500D02*Y287900D01*
Y289500D02*X174387Y290300D01*
X173000Y289500D02*X171613Y290300D01*
X181000Y294500D02*Y292900D01*
Y294500D02*X182387Y295300D01*
X181000Y294500D02*X179613Y295300D01*
X177000Y294500D02*Y292900D01*
Y294500D02*X178387Y295300D01*
X177000Y294500D02*X175613Y295300D01*
X173000Y294500D02*Y292900D01*
Y294500D02*X174387Y295300D01*
X173000Y294500D02*X171613Y295300D01*
X74500Y227500D02*Y225900D01*
Y227500D02*X75887Y228300D01*
X74500Y227500D02*X73113Y228300D01*
X79000Y227500D02*Y225900D01*
Y227500D02*X80387Y228300D01*
X79000Y227500D02*X77613Y228300D01*
X83000Y227500D02*Y225900D01*
Y227500D02*X84387Y228300D01*
X83000Y227500D02*X81613Y228300D01*
X55500Y242500D02*Y240900D01*
Y242500D02*X56887Y243300D01*
X55500Y242500D02*X54113Y243300D01*
X55500Y238500D02*Y236900D01*
Y238500D02*X56887Y239300D01*
X55500Y238500D02*X54113Y239300D01*
X55500Y235000D02*Y233400D01*
Y235000D02*X56887Y235800D01*
X55500Y235000D02*X54113Y235800D01*
X70500Y242500D02*Y240900D01*
Y242500D02*X71887Y243300D01*
X70500Y242500D02*X69113Y243300D01*
X70500Y238500D02*Y236900D01*
Y238500D02*X71887Y239300D01*
X70500Y238500D02*X69113Y239300D01*
X70500Y235000D02*Y233400D01*
Y235000D02*X71887Y235800D01*
X70500Y235000D02*X69113Y235800D01*
X107500Y222000D02*Y220400D01*
Y222000D02*X108887Y222800D01*
X107500Y222000D02*X106113Y222800D01*
X121000Y202500D02*Y200900D01*
Y202500D02*X122387Y203300D01*
X121000Y202500D02*X119613Y203300D01*
X181000Y203500D02*Y201900D01*
Y203500D02*X182387Y204300D01*
X181000Y203500D02*X179613Y204300D01*
X159500Y212500D02*Y210900D01*
Y212500D02*X160887Y213300D01*
X159500Y212500D02*X158113Y213300D01*
X141500Y212500D02*Y210900D01*
Y212500D02*X142887Y213300D01*
X141500Y212500D02*X140113Y213300D01*
X161500Y226000D02*Y224400D01*
Y226000D02*X162887Y226800D01*
X161500Y226000D02*X160113Y226800D01*
X167500Y215500D02*Y213900D01*
Y215500D02*X168887Y216300D01*
X167500Y215500D02*X166113Y216300D01*
X219500Y197500D02*Y195900D01*
Y197500D02*X220887Y198300D01*
X219500Y197500D02*X218113Y198300D01*
X204000Y280500D02*Y278900D01*
Y280500D02*X205387Y281300D01*
X204000Y280500D02*X202613Y281300D01*
X204000Y271000D02*Y269400D01*
Y271000D02*X205387Y271800D01*
X204000Y271000D02*X202613Y271800D01*
X204000Y285500D02*Y283900D01*
Y285500D02*X205387Y286300D01*
X204000Y285500D02*X202613Y286300D01*
X204000Y290500D02*Y288900D01*
Y290500D02*X205387Y291300D01*
X204000Y290500D02*X202613Y291300D01*
X204000Y276000D02*Y274400D01*
Y276000D02*X205387Y276800D01*
X204000Y276000D02*X202613Y276800D01*
X204000Y256000D02*Y254400D01*
Y256000D02*X205387Y256800D01*
X204000Y256000D02*X202613Y256800D01*
X204000Y246500D02*Y244900D01*
Y246500D02*X205387Y247300D01*
X204000Y246500D02*X202613Y247300D01*
X204000Y261000D02*Y259400D01*
Y261000D02*X205387Y261800D01*
X204000Y261000D02*X202613Y261800D01*
X204000Y266000D02*Y264400D01*
Y266000D02*X205387Y266800D01*
X204000Y266000D02*X202613Y266800D01*
X204000Y251500D02*Y249900D01*
Y251500D02*X205387Y252300D01*
X204000Y251500D02*X202613Y252300D01*
X204000Y241500D02*Y239900D01*
Y241500D02*X205387Y242300D01*
X204000Y241500D02*X202613Y242300D01*
X112500Y266000D02*Y264400D01*
Y266000D02*X113887Y266800D01*
X112500Y266000D02*X111113Y266800D01*
X112500Y251000D02*Y249400D01*
Y251000D02*X113887Y251800D01*
X112500Y251000D02*X111113Y251800D01*
X112500Y241500D02*Y239900D01*
Y241500D02*X113887Y242300D01*
X112500Y241500D02*X111113Y242300D01*
X112500Y256000D02*Y254400D01*
Y256000D02*X113887Y256800D01*
X112500Y256000D02*X111113Y256800D01*
X112500Y261000D02*Y259400D01*
Y261000D02*X113887Y261800D01*
X112500Y261000D02*X111113Y261800D01*
X112500Y246500D02*Y244900D01*
Y246500D02*X113887Y247300D01*
X112500Y246500D02*X111113Y247300D01*
X167000Y270000D02*Y268400D01*
Y270000D02*X168387Y270800D01*
X167000Y270000D02*X165613Y270800D01*
X167000Y265000D02*Y263400D01*
Y265000D02*X168387Y265800D01*
X167000Y265000D02*X165613Y265800D01*
X150500Y270000D02*Y268400D01*
Y270000D02*X151887Y270800D01*
X150500Y270000D02*X149113Y270800D01*
X150500Y265000D02*Y263400D01*
Y265000D02*X151887Y265800D01*
X150500Y265000D02*X149113Y265800D01*
X15000Y466250D02*Y464650D01*
Y466250D02*X16387Y467050D01*
X15000Y466250D02*X13613Y467050D01*
X135000Y468500D02*X136500Y465500D01*
X138000Y468500D01*
X136500Y465500D02*Y462500D01*
X139800Y465800D02*X142050D01*
X139800Y462500D02*X142800D01*
X139800Y468500D02*Y462500D01*
Y468500D02*X142800D01*
X147600D02*X148350Y467750D01*
X145350Y468500D02*X147600D01*
X144600Y467750D02*X145350Y468500D01*
X144600Y467750D02*Y466250D01*
X145350Y465500D01*
X147600D01*
X148350Y464750D01*
Y463250D01*
X147600Y462500D02*X148350Y463250D01*
X145350Y462500D02*X147600D01*
X144600Y463250D02*X145350Y462500D01*
X100250Y468500D02*X101000Y467750D01*
X98750Y468500D02*X100250D01*
X98000Y467750D02*X98750Y468500D01*
X98000Y467750D02*Y463250D01*
X98750Y462500D01*
X100250Y465800D02*X101000Y465050D01*
X98000Y465800D02*X100250D01*
X98750Y462500D02*X100250D01*
X101000Y463250D01*
Y465050D02*Y463250D01*
X105050Y468500D02*X105800Y467750D01*
X103550Y468500D02*X105050D01*
X102800Y467750D02*X103550Y468500D01*
X102800Y467750D02*Y463250D01*
X103550Y462500D01*
X105050Y465800D02*X105800Y465050D01*
X102800Y465800D02*X105050D01*
X103550Y462500D02*X105050D01*
X105800Y463250D01*
Y465050D02*Y463250D01*
X45000D02*X45750Y462500D01*
X45000Y467750D02*Y463250D01*
Y467750D02*X45750Y468500D01*
X47250D01*
X48000Y467750D01*
Y463250D01*
X47250Y462500D02*X48000Y463250D01*
X45750Y462500D02*X47250D01*
X45000Y464000D02*X48000Y467000D01*
X49800Y462500D02*X50550D01*
X52350Y463250D02*X53100Y462500D01*
X52350Y467750D02*Y463250D01*
Y467750D02*X53100Y468500D01*
X54600D01*
X55350Y467750D01*
Y463250D01*
X54600Y462500D02*X55350Y463250D01*
X53100Y462500D02*X54600D01*
X52350Y464000D02*X55350Y467000D01*
X57150Y467300D02*X58350Y468500D01*
Y462500D01*
X57150D02*X59400D01*
X61200Y467750D02*X61950Y468500D01*
X64200D01*
X64950Y467750D01*
Y466250D01*
X61200Y462500D02*X64950Y466250D01*
X61200Y462500D02*X64950D01*
X3000Y483500D02*X3750Y482750D01*
X750Y483500D02*X3000D01*
X0Y482750D02*X750Y483500D01*
X0Y482750D02*Y481250D01*
X750Y480500D01*
X3000D01*
X3750Y479750D01*
Y478250D01*
X3000Y477500D02*X3750Y478250D01*
X750Y477500D02*X3000D01*
X0Y478250D02*X750Y477500D01*
X5550Y480500D02*Y478250D01*
X6300Y477500D01*
X8550Y480500D02*Y476000D01*
X7800Y475250D02*X8550Y476000D01*
X6300Y475250D02*X7800D01*
X5550Y476000D02*X6300Y475250D01*
Y477500D02*X7800D01*
X8550Y478250D01*
X11100Y479750D02*Y477500D01*
Y479750D02*X11850Y480500D01*
X12600D01*
X13350Y479750D01*
Y477500D01*
Y479750D02*X14100Y480500D01*
X14850D01*
X15600Y479750D01*
Y477500D01*
X10350Y480500D02*X11100Y479750D01*
X17400Y483500D02*Y477500D01*
Y478250D02*X18150Y477500D01*
X19650D01*
X20400Y478250D01*
Y479750D02*Y478250D01*
X19650Y480500D02*X20400Y479750D01*
X18150Y480500D02*X19650D01*
X17400Y479750D02*X18150Y480500D01*
X22200Y479750D02*Y478250D01*
Y479750D02*X22950Y480500D01*
X24450D01*
X25200Y479750D01*
Y478250D01*
X24450Y477500D02*X25200Y478250D01*
X22950Y477500D02*X24450D01*
X22200Y478250D02*X22950Y477500D01*
X27000Y483500D02*Y478250D01*
X27750Y477500D01*
X0Y474250D02*X29250D01*
X41750Y483500D02*Y477500D01*
X43700Y483500D02*X44750Y482450D01*
Y478550D01*
X43700Y477500D02*X44750Y478550D01*
X41000Y477500D02*X43700D01*
X41000Y483500D02*X43700D01*
G54D88*X46550Y482000D02*Y481850D01*
G54D87*Y479750D02*Y477500D01*
X50300Y480500D02*X51050Y479750D01*
X48800Y480500D02*X50300D01*
X48050Y479750D02*X48800Y480500D01*
X48050Y479750D02*Y478250D01*
X48800Y477500D01*
X51050Y480500D02*Y478250D01*
X51800Y477500D01*
X48800D02*X50300D01*
X51050Y478250D01*
X54350Y479750D02*Y477500D01*
Y479750D02*X55100Y480500D01*
X55850D01*
X56600Y479750D01*
Y477500D01*
Y479750D02*X57350Y480500D01*
X58100D01*
X58850Y479750D01*
Y477500D01*
X53600Y480500D02*X54350Y479750D01*
X60650Y477500D02*X61400D01*
X65900Y478250D02*X66650Y477500D01*
X65900Y482750D02*X66650Y483500D01*
X65900Y482750D02*Y478250D01*
X68450Y483500D02*X69950D01*
X69200D02*Y477500D01*
X68450D02*X69950D01*
X72500Y479750D02*Y477500D01*
Y479750D02*X73250Y480500D01*
X74000D01*
X74750Y479750D01*
Y477500D01*
X71750Y480500D02*X72500Y479750D01*
X77300Y480500D02*X79550D01*
X76550Y479750D02*X77300Y480500D01*
X76550Y479750D02*Y478250D01*
X77300Y477500D01*
X79550D01*
X81350Y483500D02*Y477500D01*
Y479750D02*X82100Y480500D01*
X83600D01*
X84350Y479750D01*
Y477500D01*
X86150Y483500D02*X86900Y482750D01*
Y478250D01*
X86150Y477500D02*X86900Y478250D01*
X41000Y474250D02*X88700D01*
X96050Y477500D02*X98000D01*
X95000Y478550D02*X96050Y477500D01*
X95000Y482450D02*Y478550D01*
Y482450D02*X96050Y483500D01*
X98000D01*
X99800Y479750D02*Y478250D01*
Y479750D02*X100550Y480500D01*
X102050D01*
X102800Y479750D01*
Y478250D01*
X102050Y477500D02*X102800Y478250D01*
X100550Y477500D02*X102050D01*
X99800Y478250D02*X100550Y477500D01*
X104600Y480500D02*Y478250D01*
X105350Y477500D01*
X106850D01*
X107600Y478250D01*
Y480500D02*Y478250D01*
X110150Y479750D02*Y477500D01*
Y479750D02*X110900Y480500D01*
X111650D01*
X112400Y479750D01*
Y477500D01*
X109400Y480500D02*X110150Y479750D01*
X114950Y483500D02*Y478250D01*
X115700Y477500D01*
X114200Y481250D02*X115700D01*
X95000Y474250D02*X117200D01*
X130750Y483500D02*Y477500D01*
X130000Y483500D02*X133000D01*
X133750Y482750D01*
Y481250D01*
X133000Y480500D02*X133750Y481250D01*
X130750Y480500D02*X133000D01*
X135550Y483500D02*Y478250D01*
X136300Y477500D01*
X140050Y480500D02*X140800Y479750D01*
X138550Y480500D02*X140050D01*
X137800Y479750D02*X138550Y480500D01*
X137800Y479750D02*Y478250D01*
X138550Y477500D01*
X140800Y480500D02*Y478250D01*
X141550Y477500D01*
X138550D02*X140050D01*
X140800Y478250D01*
X144100Y483500D02*Y478250D01*
X144850Y477500D01*
X143350Y481250D02*X144850D01*
X147100Y477500D02*X149350D01*
X146350Y478250D02*X147100Y477500D01*
X146350Y479750D02*Y478250D01*
Y479750D02*X147100Y480500D01*
X148600D01*
X149350Y479750D01*
X146350Y479000D02*X149350D01*
Y479750D02*Y479000D01*
X154150Y483500D02*Y477500D01*
X153400D02*X154150Y478250D01*
X151900Y477500D02*X153400D01*
X151150Y478250D02*X151900Y477500D01*
X151150Y479750D02*Y478250D01*
Y479750D02*X151900Y480500D01*
X153400D01*
X154150Y479750D01*
X157450Y480500D02*Y479750D01*
Y478250D02*Y477500D01*
X155950Y482750D02*Y482000D01*
Y482750D02*X156700Y483500D01*
X158200D01*
X158950Y482750D01*
Y482000D01*
X157450Y480500D02*X158950Y482000D01*
X130000Y474250D02*X160750D01*
X0Y498500D02*X3000D01*
X1500D02*Y492500D01*
X4800Y498500D02*Y492500D01*
Y494750D02*X5550Y495500D01*
X7050D01*
X7800Y494750D01*
Y492500D01*
X10350D02*X12600D01*
X9600Y493250D02*X10350Y492500D01*
X9600Y494750D02*Y493250D01*
Y494750D02*X10350Y495500D01*
X11850D01*
X12600Y494750D01*
X9600Y494000D02*X12600D01*
Y494750D02*Y494000D01*
X15150Y494750D02*Y492500D01*
Y494750D02*X15900Y495500D01*
X17400D01*
X14400D02*X15150Y494750D01*
X19950Y492500D02*X22200D01*
X19200Y493250D02*X19950Y492500D01*
X19200Y494750D02*Y493250D01*
Y494750D02*X19950Y495500D01*
X21450D01*
X22200Y494750D01*
X19200Y494000D02*X22200D01*
Y494750D02*Y494000D01*
X28950Y495500D02*X29700Y494750D01*
X27450Y495500D02*X28950D01*
X26700Y494750D02*X27450Y495500D01*
X26700Y494750D02*Y493250D01*
X27450Y492500D01*
X29700Y495500D02*Y493250D01*
X30450Y492500D01*
X27450D02*X28950D01*
X29700Y493250D01*
X33000Y494750D02*Y492500D01*
Y494750D02*X33750Y495500D01*
X35250D01*
X32250D02*X33000Y494750D01*
X37800Y492500D02*X40050D01*
X37050Y493250D02*X37800Y492500D01*
X37050Y494750D02*Y493250D01*
Y494750D02*X37800Y495500D01*
X39300D01*
X40050Y494750D01*
X37050Y494000D02*X40050D01*
Y494750D02*Y494000D01*
X44550Y493250D02*X45300Y492500D01*
X44550Y494450D02*Y493250D01*
Y494450D02*X45600Y495500D01*
X46500D01*
X47550Y494450D01*
Y493250D01*
X46800Y492500D02*X47550Y493250D01*
X45300Y492500D02*X46800D01*
X44550Y496550D02*X45600Y495500D01*
X44550Y497750D02*Y496550D01*
Y497750D02*X45300Y498500D01*
X46800D01*
X47550Y497750D01*
Y496550D01*
X46500Y495500D02*X47550Y496550D01*
X55050Y498500D02*Y492500D01*
X54300D02*X55050Y493250D01*
X52800Y492500D02*X54300D01*
X52050Y493250D02*X52800Y492500D01*
X52050Y494750D02*Y493250D01*
Y494750D02*X52800Y495500D01*
X54300D01*
X55050Y494750D01*
G54D88*X56850Y497000D02*Y496850D01*
G54D87*Y494750D02*Y492500D01*
X59100Y497750D02*Y492500D01*
Y497750D02*X59850Y498500D01*
X60600D01*
X58350Y495500D02*X59850D01*
X62850Y497750D02*Y492500D01*
Y497750D02*X63600Y498500D01*
X64350D01*
X62100Y495500D02*X63600D01*
X66600Y492500D02*X68850D01*
X65850Y493250D02*X66600Y492500D01*
X65850Y494750D02*Y493250D01*
Y494750D02*X66600Y495500D01*
X68100D01*
X68850Y494750D01*
X65850Y494000D02*X68850D01*
Y494750D02*Y494000D01*
X71400Y494750D02*Y492500D01*
Y494750D02*X72150Y495500D01*
X73650D01*
X70650D02*X71400Y494750D01*
X76200Y492500D02*X78450D01*
X75450Y493250D02*X76200Y492500D01*
X75450Y494750D02*Y493250D01*
Y494750D02*X76200Y495500D01*
X77700D01*
X78450Y494750D01*
X75450Y494000D02*X78450D01*
Y494750D02*Y494000D01*
X81000Y494750D02*Y492500D01*
Y494750D02*X81750Y495500D01*
X82500D01*
X83250Y494750D01*
Y492500D01*
X80250Y495500D02*X81000Y494750D01*
X85800Y498500D02*Y493250D01*
X86550Y492500D01*
X85050Y496250D02*X86550D01*
X93750Y498500D02*Y492500D01*
X93000D02*X93750Y493250D01*
X91500Y492500D02*X93000D01*
X90750Y493250D02*X91500Y492500D01*
X90750Y494750D02*Y493250D01*
Y494750D02*X91500Y495500D01*
X93000D01*
X93750Y494750D01*
X96300D02*Y492500D01*
Y494750D02*X97050Y495500D01*
X98550D01*
X95550D02*X96300Y494750D01*
G54D88*X100350Y497000D02*Y496850D01*
G54D87*Y494750D02*Y492500D01*
X101850Y498500D02*Y493250D01*
X102600Y492500D01*
X104100Y498500D02*Y493250D01*
X104850Y492500D01*
X109800D02*X112050D01*
X112800Y493250D01*
X112050Y494000D02*X112800Y493250D01*
X109800Y494000D02*X112050D01*
X109050Y494750D02*X109800Y494000D01*
X109050Y494750D02*X109800Y495500D01*
X112050D01*
X112800Y494750D01*
X109050Y493250D02*X109800Y492500D01*
G54D88*X114600Y497000D02*Y496850D01*
G54D87*Y494750D02*Y492500D01*
X116100Y495500D02*X119100D01*
X116100Y492500D02*X119100Y495500D01*
X116100Y492500D02*X119100D01*
X121650D02*X123900D01*
X120900Y493250D02*X121650Y492500D01*
X120900Y494750D02*Y493250D01*
Y494750D02*X121650Y495500D01*
X123150D01*
X123900Y494750D01*
X120900Y494000D02*X123900D01*
Y494750D02*Y494000D01*
X126450Y492500D02*X128700D01*
X129450Y493250D01*
X128700Y494000D02*X129450Y493250D01*
X126450Y494000D02*X128700D01*
X125700Y494750D02*X126450Y494000D01*
X125700Y494750D02*X126450Y495500D01*
X128700D01*
X129450Y494750D01*
X125700Y493250D02*X126450Y492500D01*
X133950Y495500D02*Y493250D01*
X134700Y492500D01*
X136200D01*
X136950Y493250D01*
Y495500D02*Y493250D01*
X139500Y492500D02*X141750D01*
X142500Y493250D01*
X141750Y494000D02*X142500Y493250D01*
X139500Y494000D02*X141750D01*
X138750Y494750D02*X139500Y494000D01*
X138750Y494750D02*X139500Y495500D01*
X141750D01*
X142500Y494750D01*
X138750Y493250D02*X139500Y492500D01*
X145050D02*X147300D01*
X144300Y493250D02*X145050Y492500D01*
X144300Y494750D02*Y493250D01*
Y494750D02*X145050Y495500D01*
X146550D01*
X147300Y494750D01*
X144300Y494000D02*X147300D01*
Y494750D02*Y494000D01*
X152100Y498500D02*Y492500D01*
X151350D02*X152100Y493250D01*
X149850Y492500D02*X151350D01*
X149100Y493250D02*X149850Y492500D01*
X149100Y494750D02*Y493250D01*
Y494750D02*X149850Y495500D01*
X151350D01*
X152100Y494750D01*
G54D88*X156600Y497000D02*Y496850D01*
G54D87*Y494750D02*Y492500D01*
X158850Y494750D02*Y492500D01*
Y494750D02*X159600Y495500D01*
X160350D01*
X161100Y494750D01*
Y492500D01*
X158100Y495500D02*X158850Y494750D01*
X166350Y498500D02*Y493250D01*
X167100Y492500D01*
X165600Y496250D02*X167100D01*
X168600Y498500D02*Y492500D01*
Y494750D02*X169350Y495500D01*
X170850D01*
X171600Y494750D01*
Y492500D01*
G54D88*X173400Y497000D02*Y496850D01*
G54D87*Y494750D02*Y492500D01*
X175650D02*X177900D01*
X178650Y493250D01*
X177900Y494000D02*X178650Y493250D01*
X175650Y494000D02*X177900D01*
X174900Y494750D02*X175650Y494000D01*
X174900Y494750D02*X175650Y495500D01*
X177900D01*
X178650Y494750D01*
X174900Y493250D02*X175650Y492500D01*
X183150Y498500D02*Y493250D01*
X183900Y492500D01*
X187650Y495500D02*X188400Y494750D01*
X186150Y495500D02*X187650D01*
X185400Y494750D02*X186150Y495500D01*
X185400Y494750D02*Y493250D01*
X186150Y492500D01*
X188400Y495500D02*Y493250D01*
X189150Y492500D01*
X186150D02*X187650D01*
X188400Y493250D01*
X190950Y495500D02*Y493250D01*
X191700Y492500D01*
X193950Y495500D02*Y491000D01*
X193200Y490250D02*X193950Y491000D01*
X191700Y490250D02*X193200D01*
X190950Y491000D02*X191700Y490250D01*
Y492500D02*X193200D01*
X193950Y493250D01*
X195750Y494750D02*Y493250D01*
Y494750D02*X196500Y495500D01*
X198000D01*
X198750Y494750D01*
Y493250D01*
X198000Y492500D02*X198750Y493250D01*
X196500Y492500D02*X198000D01*
X195750Y493250D02*X196500Y492500D01*
X200550Y495500D02*Y493250D01*
X201300Y492500D01*
X202800D01*
X203550Y493250D01*
Y495500D02*Y493250D01*
X206100Y498500D02*Y493250D01*
X206850Y492500D01*
X205350Y496250D02*X206850D01*
X208350Y491000D02*X209850Y492500D01*
X214350Y493250D02*X215100Y492500D01*
X214350Y494450D02*Y493250D01*
Y494450D02*X215400Y495500D01*
X216300D01*
X217350Y494450D01*
Y493250D01*
X216600Y492500D02*X217350Y493250D01*
X215100Y492500D02*X216600D01*
X214350Y496550D02*X215400Y495500D01*
X214350Y497750D02*Y496550D01*
Y497750D02*X215100Y498500D01*
X216600D01*
X217350Y497750D01*
Y496550D01*
X216300Y495500D02*X217350Y496550D01*
X219150Y494750D02*X222150Y498500D01*
X219150Y494750D02*X222900D01*
X222150Y498500D02*Y492500D01*
X227400Y498500D02*Y492500D01*
Y494750D02*X228150Y495500D01*
X229650D01*
X230400Y494750D01*
Y492500D01*
X232200Y494750D02*Y493250D01*
Y494750D02*X232950Y495500D01*
X234450D01*
X235200Y494750D01*
Y493250D01*
X234450Y492500D02*X235200Y493250D01*
X232950Y492500D02*X234450D01*
X232200Y493250D02*X232950Y492500D01*
X237000Y498500D02*Y493250D01*
X237750Y492500D01*
X240000D02*X242250D01*
X239250Y493250D02*X240000Y492500D01*
X239250Y494750D02*Y493250D01*
Y494750D02*X240000Y495500D01*
X241500D01*
X242250Y494750D01*
X239250Y494000D02*X242250D01*
Y494750D02*Y494000D01*
X244800Y492500D02*X247050D01*
X247800Y493250D01*
X247050Y494000D02*X247800Y493250D01*
X244800Y494000D02*X247050D01*
X244050Y494750D02*X244800Y494000D01*
X244050Y494750D02*X244800Y495500D01*
X247050D01*
X247800Y494750D01*
X244050Y493250D02*X244800Y492500D01*
X253050Y498500D02*Y493250D01*
X253800Y492500D01*
X252300Y496250D02*X253800D01*
X255300Y494750D02*Y493250D01*
Y494750D02*X256050Y495500D01*
X257550D01*
X258300Y494750D01*
Y493250D01*
X257550Y492500D02*X258300Y493250D01*
X256050Y492500D02*X257550D01*
X255300Y493250D02*X256050Y492500D01*
X260850Y498500D02*Y493250D01*
X261600Y492500D01*
X260100Y496250D02*X261600D01*
X265350Y495500D02*X266100Y494750D01*
X263850Y495500D02*X265350D01*
X263100Y494750D02*X263850Y495500D01*
X263100Y494750D02*Y493250D01*
X263850Y492500D01*
X266100Y495500D02*Y493250D01*
X266850Y492500D01*
X263850D02*X265350D01*
X266100Y493250D01*
X268650Y498500D02*Y493250D01*
X269400Y492500D01*
G54D89*X0Y350000D02*X260000D01*
Y0D01*
X0D01*
Y350000D01*
G54D87*X43675Y-9500D02*X46675D01*
X47425Y-8750D01*
Y-6950D02*Y-8750D01*
X46675Y-6200D02*X47425Y-6950D01*
X44425Y-6200D02*X46675D01*
X44425Y-3500D02*Y-9500D01*
X43675Y-3500D02*X46675D01*
X47425Y-4250D01*
Y-5450D01*
X46675Y-6200D02*X47425Y-5450D01*
X49225Y-7250D02*Y-8750D01*
Y-7250D02*X49975Y-6500D01*
X51475D01*
X52225Y-7250D01*
Y-8750D01*
X51475Y-9500D02*X52225Y-8750D01*
X49975Y-9500D02*X51475D01*
X49225Y-8750D02*X49975Y-9500D01*
X56275Y-6500D02*X57025Y-7250D01*
X54775Y-6500D02*X56275D01*
X54025Y-7250D02*X54775Y-6500D01*
X54025Y-7250D02*Y-8750D01*
X54775Y-9500D01*
X57025Y-6500D02*Y-8750D01*
X57775Y-9500D01*
X54775D02*X56275D01*
X57025Y-8750D01*
X60325Y-7250D02*Y-9500D01*
Y-7250D02*X61075Y-6500D01*
X62575D01*
X59575D02*X60325Y-7250D01*
X67375Y-3500D02*Y-9500D01*
X66625D02*X67375Y-8750D01*
X65125Y-9500D02*X66625D01*
X64375Y-8750D02*X65125Y-9500D01*
X64375Y-7250D02*Y-8750D01*
Y-7250D02*X65125Y-6500D01*
X66625D01*
X67375Y-7250D01*
X71875D02*Y-8750D01*
Y-7250D02*X72625Y-6500D01*
X74125D01*
X74875Y-7250D01*
Y-8750D01*
X74125Y-9500D02*X74875Y-8750D01*
X72625Y-9500D02*X74125D01*
X71875Y-8750D02*X72625Y-9500D01*
X76675Y-6500D02*Y-8750D01*
X77425Y-9500D01*
X78925D01*
X79675Y-8750D01*
Y-6500D02*Y-8750D01*
X82225Y-3500D02*Y-8750D01*
X82975Y-9500D01*
X81475Y-5750D02*X82975D01*
X84475Y-3500D02*Y-8750D01*
X85225Y-9500D01*
G54D88*X86725Y-5000D02*Y-5150D01*
G54D87*Y-7250D02*Y-9500D01*
X88975Y-7250D02*Y-9500D01*
Y-7250D02*X89725Y-6500D01*
X90475D01*
X91225Y-7250D01*
Y-9500D01*
X88225Y-6500D02*X88975Y-7250D01*
X93775Y-9500D02*X96025D01*
X93025Y-8750D02*X93775Y-9500D01*
X93025Y-7250D02*Y-8750D01*
Y-7250D02*X93775Y-6500D01*
X95275D01*
X96025Y-7250D01*
X93025Y-8000D02*X96025D01*
Y-7250D02*Y-8000D01*
G54D88*X100525Y-5000D02*Y-5150D01*
G54D87*Y-7250D02*Y-9500D01*
X102775D02*X105025D01*
X105775Y-8750D01*
X105025Y-8000D02*X105775Y-8750D01*
X102775Y-8000D02*X105025D01*
X102025Y-7250D02*X102775Y-8000D01*
X102025Y-7250D02*X102775Y-6500D01*
X105025D01*
X105775Y-7250D01*
X102025Y-8750D02*X102775Y-9500D01*
X111025Y-3500D02*Y-8750D01*
X111775Y-9500D01*
X110275Y-5750D02*X111775D01*
X113275Y-3500D02*Y-9500D01*
Y-7250D02*X114025Y-6500D01*
X115525D01*
X116275Y-7250D01*
Y-9500D01*
X118825D02*X121075D01*
X118075Y-8750D02*X118825Y-9500D01*
X118075Y-7250D02*Y-8750D01*
Y-7250D02*X118825Y-6500D01*
X120325D01*
X121075Y-7250D01*
X118075Y-8000D02*X121075D01*
Y-7250D02*Y-8000D01*
X126325Y-6500D02*X128575D01*
X125575Y-7250D02*X126325Y-6500D01*
X125575Y-7250D02*Y-8750D01*
X126325Y-9500D01*
X128575D01*
X131125D02*X133375D01*
X130375Y-8750D02*X131125Y-9500D01*
X130375Y-7250D02*Y-8750D01*
Y-7250D02*X131125Y-6500D01*
X132625D01*
X133375Y-7250D01*
X130375Y-8000D02*X133375D01*
Y-7250D02*Y-8000D01*
X135925Y-7250D02*Y-9500D01*
Y-7250D02*X136675Y-6500D01*
X137425D01*
X138175Y-7250D01*
Y-9500D01*
X135175Y-6500D02*X135925Y-7250D01*
X140725Y-3500D02*Y-8750D01*
X141475Y-9500D01*
X139975Y-5750D02*X141475D01*
X143725Y-9500D02*X145975D01*
X142975Y-8750D02*X143725Y-9500D01*
X142975Y-7250D02*Y-8750D01*
Y-7250D02*X143725Y-6500D01*
X145225D01*
X145975Y-7250D01*
X142975Y-8000D02*X145975D01*
Y-7250D02*Y-8000D01*
X148525Y-7250D02*Y-9500D01*
Y-7250D02*X149275Y-6500D01*
X150775D01*
X147775D02*X148525Y-7250D01*
X152575Y-3500D02*Y-8750D01*
X153325Y-9500D01*
G54D88*X154825Y-5000D02*Y-5150D01*
G54D87*Y-7250D02*Y-9500D01*
X157075Y-7250D02*Y-9500D01*
Y-7250D02*X157825Y-6500D01*
X158575D01*
X159325Y-7250D01*
Y-9500D01*
X156325Y-6500D02*X157075Y-7250D01*
X161875Y-9500D02*X164125D01*
X161125Y-8750D02*X161875Y-9500D01*
X161125Y-7250D02*Y-8750D01*
Y-7250D02*X161875Y-6500D01*
X163375D01*
X164125Y-7250D01*
X161125Y-8000D02*X164125D01*
Y-7250D02*Y-8000D01*
X168625Y-7250D02*Y-8750D01*
Y-7250D02*X169375Y-6500D01*
X170875D01*
X171625Y-7250D01*
Y-8750D01*
X170875Y-9500D02*X171625Y-8750D01*
X169375Y-9500D02*X170875D01*
X168625Y-8750D02*X169375Y-9500D01*
X174175Y-4250D02*Y-9500D01*
Y-4250D02*X174925Y-3500D01*
X175675D01*
X173425Y-6500D02*X174925D01*
X180625Y-3500D02*Y-8750D01*
X181375Y-9500D01*
X179875Y-5750D02*X181375D01*
X182875Y-3500D02*Y-9500D01*
Y-7250D02*X183625Y-6500D01*
X185125D01*
X185875Y-7250D01*
Y-9500D01*
G54D88*X187675Y-5000D02*Y-5150D01*
G54D87*Y-7250D02*Y-9500D01*
X189925D02*X192175D01*
X192925Y-8750D01*
X192175Y-8000D02*X192925Y-8750D01*
X189925Y-8000D02*X192175D01*
X189175Y-7250D02*X189925Y-8000D01*
X189175Y-7250D02*X189925Y-6500D01*
X192175D01*
X192925Y-7250D01*
X189175Y-8750D02*X189925Y-9500D01*
X198175Y-7250D02*Y-11750D01*
X197425Y-6500D02*X198175Y-7250D01*
X198925Y-6500D01*
X200425D01*
X201175Y-7250D01*
Y-8750D01*
X200425Y-9500D02*X201175Y-8750D01*
X198925Y-9500D02*X200425D01*
X198175Y-8750D02*X198925Y-9500D01*
X205225Y-6500D02*X205975Y-7250D01*
X203725Y-6500D02*X205225D01*
X202975Y-7250D02*X203725Y-6500D01*
X202975Y-7250D02*Y-8750D01*
X203725Y-9500D01*
X205975Y-6500D02*Y-8750D01*
X206725Y-9500D01*
X203725D02*X205225D01*
X205975Y-8750D01*
X209275Y-3500D02*Y-8750D01*
X210025Y-9500D01*
X208525Y-5750D02*X210025D01*
X211525Y-3500D02*Y-9500D01*
Y-7250D02*X212275Y-6500D01*
X213775D01*
X214525Y-7250D01*
Y-9500D01*
X200750Y378500D02*Y372500D01*
X202700Y378500D02*X203750Y377450D01*
Y373550D01*
X202700Y372500D02*X203750Y373550D01*
X200000Y372500D02*X202700D01*
X200000Y378500D02*X202700D01*
X207800Y375500D02*X208550Y374750D01*
X206300Y375500D02*X207800D01*
X205550Y374750D02*X206300Y375500D01*
X205550Y374750D02*Y373250D01*
X206300Y372500D01*
X208550Y375500D02*Y373250D01*
X209300Y372500D01*
X206300D02*X207800D01*
X208550Y373250D01*
X211850Y378500D02*Y373250D01*
X212600Y372500D01*
X211100Y376250D02*X212600D01*
X214850Y372500D02*X217100D01*
X214100Y373250D02*X214850Y372500D01*
X214100Y374750D02*Y373250D01*
Y374750D02*X214850Y375500D01*
X216350D01*
X217100Y374750D01*
X214100Y374000D02*X217100D01*
Y374750D02*Y374000D01*
X218900Y376250D02*X219650D01*
X218900Y374750D02*X219650D01*
X224150Y378500D02*Y372500D01*
Y378500D02*X226400Y375500D01*
X228650Y378500D01*
Y372500D01*
X230450Y374750D02*Y373250D01*
Y374750D02*X231200Y375500D01*
X232700D01*
X233450Y374750D01*
Y373250D01*
X232700Y372500D02*X233450Y373250D01*
X231200Y372500D02*X232700D01*
X230450Y373250D02*X231200Y372500D01*
X236000Y374750D02*Y372500D01*
Y374750D02*X236750Y375500D01*
X237500D01*
X238250Y374750D01*
Y372500D01*
X235250Y375500D02*X236000Y374750D01*
X242750Y378500D02*Y372500D01*
Y378500D02*X245750D01*
X242750Y375800D02*X245000D01*
X248300Y372500D02*X250550D01*
X247550Y373250D02*X248300Y372500D01*
X247550Y374750D02*Y373250D01*
Y374750D02*X248300Y375500D01*
X249800D01*
X250550Y374750D01*
X247550Y374000D02*X250550D01*
Y374750D02*Y374000D01*
X252350Y378500D02*Y372500D01*
Y373250D02*X253100Y372500D01*
X254600D01*
X255350Y373250D01*
Y374750D02*Y373250D01*
X254600Y375500D02*X255350Y374750D01*
X253100Y375500D02*X254600D01*
X252350Y374750D02*X253100Y375500D01*
X259850Y377750D02*X260600Y378500D01*
X262850D01*
X263600Y377750D01*
Y376250D01*
X259850Y372500D02*X263600Y376250D01*
X259850Y372500D02*X263600D01*
X265400Y377750D02*X266150Y378500D01*
X268400D01*
X269150Y377750D01*
Y376250D01*
X265400Y372500D02*X269150Y376250D01*
X265400Y372500D02*X269150D01*
X273650Y377300D02*X274850Y378500D01*
Y372500D01*
X273650D02*X275900D01*
X277700Y373250D02*X278450Y372500D01*
X277700Y374450D02*Y373250D01*
Y374450D02*X278750Y375500D01*
X279650D01*
X280700Y374450D01*
Y373250D01*
X279950Y372500D02*X280700Y373250D01*
X278450Y372500D02*X279950D01*
X277700Y376550D02*X278750Y375500D01*
X277700Y377750D02*Y376550D01*
Y377750D02*X278450Y378500D01*
X279950D01*
X280700Y377750D01*
Y376550D01*
X279650Y375500D02*X280700Y376550D01*
X282500Y376250D02*X283250D01*
X282500Y374750D02*X283250D01*
X285050Y377300D02*X286250Y378500D01*
Y372500D01*
X285050D02*X287300D01*
X289100Y377750D02*X289850Y378500D01*
X291350D01*
X292100Y377750D01*
X291350Y372500D02*X292100Y373250D01*
X289850Y372500D02*X291350D01*
X289100Y373250D02*X289850Y372500D01*
Y375800D02*X291350D01*
X292100Y377750D02*Y376550D01*
Y375050D02*Y373250D01*
Y375050D02*X291350Y375800D01*
X292100Y376550D02*X291350Y375800D01*
X293900Y376250D02*X294650D01*
X293900Y374750D02*X294650D01*
X296450Y377750D02*X297200Y378500D01*
X299450D01*
X300200Y377750D01*
Y376250D01*
X296450Y372500D02*X300200Y376250D01*
X296450Y372500D02*X300200D01*
X302000Y378500D02*X305000D01*
X302000D02*Y375500D01*
X302750Y376250D01*
X304250D01*
X305000Y375500D01*
Y373250D01*
X304250Y372500D02*X305000Y373250D01*
X302750Y372500D02*X304250D01*
X302000Y373250D02*X302750Y372500D01*
X309500Y377750D02*X310250Y378500D01*
X312500D01*
X313250Y377750D01*
Y376250D01*
X309500Y372500D02*X313250Y376250D01*
X309500Y372500D02*X313250D01*
X315050Y373250D02*X315800Y372500D01*
X315050Y377750D02*Y373250D01*
Y377750D02*X315800Y378500D01*
X317300D01*
X318050Y377750D01*
Y373250D01*
X317300Y372500D02*X318050Y373250D01*
X315800Y372500D02*X317300D01*
X315050Y374000D02*X318050Y377000D01*
X319850Y377750D02*X320600Y378500D01*
X322850D01*
X323600Y377750D01*
Y376250D01*
X319850Y372500D02*X323600Y376250D01*
X319850Y372500D02*X323600D01*
X325400Y377300D02*X326600Y378500D01*
Y372500D01*
X325400D02*X327650D01*
X332150Y378500D02*Y373250D01*
X332900Y372500D01*
X334400D01*
X335150Y373250D01*
Y378500D02*Y373250D01*
X336950Y378500D02*X339950D01*
X338450D02*Y372500D01*
X342800D02*X344750D01*
X341750Y373550D02*X342800Y372500D01*
X341750Y377450D02*Y373550D01*
Y377450D02*X342800Y378500D01*
X344750D01*
X200000Y392000D02*Y387500D01*
Y392000D02*X201050Y393500D01*
X202700D01*
X203750Y392000D01*
Y387500D01*
X200000Y390500D02*X203750D01*
X205550D02*Y388250D01*
X206300Y387500D01*
X207800D01*
X208550Y388250D01*
Y390500D02*Y388250D01*
X211100Y393500D02*Y388250D01*
X211850Y387500D01*
X210350Y391250D02*X211850D01*
X213350Y393500D02*Y387500D01*
Y389750D02*X214100Y390500D01*
X215600D01*
X216350Y389750D01*
Y387500D01*
X218150Y389750D02*Y388250D01*
Y389750D02*X218900Y390500D01*
X220400D01*
X221150Y389750D01*
Y388250D01*
X220400Y387500D02*X221150Y388250D01*
X218900Y387500D02*X220400D01*
X218150Y388250D02*X218900Y387500D01*
X223700Y389750D02*Y387500D01*
Y389750D02*X224450Y390500D01*
X225950D01*
X222950D02*X223700Y389750D01*
X227750Y391250D02*X228500D01*
X227750Y389750D02*X228500D01*
X233000Y393500D02*Y387500D01*
Y393500D02*X236750Y387500D01*
Y393500D02*Y387500D01*
X240800Y390500D02*X241550Y389750D01*
X239300Y390500D02*X240800D01*
X238550Y389750D02*X239300Y390500D01*
X238550Y389750D02*Y388250D01*
X239300Y387500D01*
X241550Y390500D02*Y388250D01*
X242300Y387500D01*
X239300D02*X240800D01*
X241550Y388250D01*
X244850Y393500D02*Y388250D01*
X245600Y387500D01*
X244100Y391250D02*X245600D01*
X247100Y393500D02*Y387500D01*
Y389750D02*X247850Y390500D01*
X249350D01*
X250100Y389750D01*
Y387500D01*
X254150Y390500D02*X254900Y389750D01*
X252650Y390500D02*X254150D01*
X251900Y389750D02*X252650Y390500D01*
X251900Y389750D02*Y388250D01*
X252650Y387500D01*
X254900Y390500D02*Y388250D01*
X255650Y387500D01*
X252650D02*X254150D01*
X254900Y388250D01*
X258200Y389750D02*Y387500D01*
Y389750D02*X258950Y390500D01*
X259700D01*
X260450Y389750D01*
Y387500D01*
X257450Y390500D02*X258200Y389750D01*
X265700Y393500D02*Y387500D01*
X267650Y393500D02*X268700Y392450D01*
Y388550D01*
X267650Y387500D02*X268700Y388550D01*
X264950Y387500D02*X267650D01*
X264950Y393500D02*X267650D01*
X270500Y387500D02*X271250D01*
X275750Y393500D02*Y387500D01*
X279500Y393500D02*Y387500D01*
X275750Y390500D02*X279500D01*
X281300Y389750D02*Y388250D01*
Y389750D02*X282050Y390500D01*
X283550D01*
X284300Y389750D01*
Y388250D01*
X283550Y387500D02*X284300Y388250D01*
X282050Y387500D02*X283550D01*
X281300Y388250D02*X282050Y387500D01*
X286100Y393500D02*Y388250D01*
X286850Y387500D01*
X289100Y389750D02*Y387500D01*
Y389750D02*X289850Y390500D01*
X290600D01*
X291350Y389750D01*
Y387500D01*
Y389750D02*X292100Y390500D01*
X292850D01*
X293600Y389750D01*
Y387500D01*
X288350Y390500D02*X289100Y389750D01*
X296150Y387500D02*X298400D01*
X295400Y388250D02*X296150Y387500D01*
X295400Y389750D02*Y388250D01*
Y389750D02*X296150Y390500D01*
X297650D01*
X298400Y389750D01*
X295400Y389000D02*X298400D01*
Y389750D02*Y389000D01*
X300950Y387500D02*X303200D01*
X303950Y388250D01*
X303200Y389000D02*X303950Y388250D01*
X300950Y389000D02*X303200D01*
X300200Y389750D02*X300950Y389000D01*
X300200Y389750D02*X300950Y390500D01*
X303200D01*
X303950Y389750D01*
X300200Y388250D02*X300950Y387500D01*
X200000Y408500D02*X203000D01*
X201500D02*Y402500D01*
G54D88*X204800Y407000D02*Y406850D01*
G54D87*Y404750D02*Y402500D01*
X207050Y408500D02*Y403250D01*
X207800Y402500D01*
X206300Y406250D02*X207800D01*
X209300Y408500D02*Y403250D01*
X210050Y402500D01*
X212300D02*X214550D01*
X211550Y403250D02*X212300Y402500D01*
X211550Y404750D02*Y403250D01*
Y404750D02*X212300Y405500D01*
X213800D01*
X214550Y404750D01*
X211550Y404000D02*X214550D01*
Y404750D02*Y404000D01*
X216350Y406250D02*X217100D01*
X216350Y404750D02*X217100D01*
X221600Y403250D02*X222350Y402500D01*
X221600Y407750D02*X222350Y408500D01*
X221600Y407750D02*Y403250D01*
X224150Y405500D02*Y403250D01*
X224900Y402500D01*
X226400D01*
X227150Y403250D01*
Y405500D02*Y403250D01*
X229700Y404750D02*Y402500D01*
Y404750D02*X230450Y405500D01*
X231200D01*
X231950Y404750D01*
Y402500D01*
X228950Y405500D02*X229700Y404750D01*
X233750Y408500D02*Y402500D01*
Y404750D02*X236000Y402500D01*
X233750Y404750D02*X235250Y406250D01*
X238550Y404750D02*Y402500D01*
Y404750D02*X239300Y405500D01*
X240050D01*
X240800Y404750D01*
Y402500D01*
X237800Y405500D02*X238550Y404750D01*
X242600D02*Y403250D01*
Y404750D02*X243350Y405500D01*
X244850D01*
X245600Y404750D01*
Y403250D01*
X244850Y402500D02*X245600Y403250D01*
X243350Y402500D02*X244850D01*
X242600Y403250D02*X243350Y402500D01*
X247400Y405500D02*Y403250D01*
X248150Y402500D01*
X248900D01*
X249650Y403250D01*
Y405500D02*Y403250D01*
X250400Y402500D01*
X251150D01*
X251900Y403250D01*
Y405500D02*Y403250D01*
X254450Y404750D02*Y402500D01*
Y404750D02*X255200Y405500D01*
X255950D01*
X256700Y404750D01*
Y402500D01*
X253700Y405500D02*X254450Y404750D01*
X258500Y408500D02*X259250Y407750D01*
Y403250D01*
X258500Y402500D02*X259250Y403250D01*
X263750Y405500D02*X266750D01*
X271250Y408500D02*Y402500D01*
Y408500D02*X274250D01*
X271250Y405800D02*X273500D01*
X278300Y405500D02*X279050Y404750D01*
X276800Y405500D02*X278300D01*
X276050Y404750D02*X276800Y405500D01*
X276050Y404750D02*Y403250D01*
X276800Y402500D01*
X279050Y405500D02*Y403250D01*
X279800Y402500D01*
X276800D02*X278300D01*
X279050Y403250D01*
X281600Y408500D02*Y402500D01*
Y403250D02*X282350Y402500D01*
X283850D01*
X284600Y403250D01*
Y404750D02*Y403250D01*
X283850Y405500D02*X284600Y404750D01*
X282350Y405500D02*X283850D01*
X281600Y404750D02*X282350Y405500D01*
X287150Y404750D02*Y402500D01*
Y404750D02*X287900Y405500D01*
X289400D01*
X286400D02*X287150Y404750D01*
G54D88*X291200Y407000D02*Y406850D01*
G54D87*Y404750D02*Y402500D01*
X293450Y405500D02*X295700D01*
X292700Y404750D02*X293450Y405500D01*
X292700Y404750D02*Y403250D01*
X293450Y402500D01*
X295700D01*
X299750Y405500D02*X300500Y404750D01*
X298250Y405500D02*X299750D01*
X297500Y404750D02*X298250Y405500D01*
X297500Y404750D02*Y403250D01*
X298250Y402500D01*
X300500Y405500D02*Y403250D01*
X301250Y402500D01*
X298250D02*X299750D01*
X300500Y403250D01*
X303800Y408500D02*Y403250D01*
X304550Y402500D01*
X303050Y406250D02*X304550D01*
G54D88*X306050Y407000D02*Y406850D01*
G54D87*Y404750D02*Y402500D01*
X307550Y404750D02*Y403250D01*
Y404750D02*X308300Y405500D01*
X309800D01*
X310550Y404750D01*
Y403250D01*
X309800Y402500D02*X310550Y403250D01*
X308300Y402500D02*X309800D01*
X307550Y403250D02*X308300Y402500D01*
X313100Y404750D02*Y402500D01*
Y404750D02*X313850Y405500D01*
X314600D01*
X315350Y404750D01*
Y402500D01*
X312350Y405500D02*X313100Y404750D01*
X320600Y408500D02*Y402500D01*
X322550Y408500D02*X323600Y407450D01*
Y403550D01*
X322550Y402500D02*X323600Y403550D01*
X319850Y402500D02*X322550D01*
X319850Y408500D02*X322550D01*
X326150Y404750D02*Y402500D01*
Y404750D02*X326900Y405500D01*
X328400D01*
X325400D02*X326150Y404750D01*
X332450Y405500D02*X333200Y404750D01*
X330950Y405500D02*X332450D01*
X330200Y404750D02*X330950Y405500D01*
X330200Y404750D02*Y403250D01*
X330950Y402500D01*
X333200Y405500D02*Y403250D01*
X333950Y402500D01*
X330950D02*X332450D01*
X333200Y403250D01*
X335750Y405500D02*Y403250D01*
X336500Y402500D01*
X337250D01*
X338000Y403250D01*
Y405500D02*Y403250D01*
X338750Y402500D01*
X339500D01*
X340250Y403250D01*
Y405500D02*Y403250D01*
G54D88*X342050Y407000D02*Y406850D01*
G54D87*Y404750D02*Y402500D01*
X344300Y404750D02*Y402500D01*
Y404750D02*X345050Y405500D01*
X345800D01*
X346550Y404750D01*
Y402500D01*
X343550Y405500D02*X344300Y404750D01*
X350600Y405500D02*X351350Y404750D01*
X349100Y405500D02*X350600D01*
X348350Y404750D02*X349100Y405500D01*
X348350Y404750D02*Y403250D01*
X349100Y402500D01*
X350600D01*
X351350Y403250D01*
X348350Y401000D02*X349100Y400250D01*
X350600D01*
X351350Y401000D01*
Y405500D02*Y401000D01*
M02*
