G04 start of page 3 for group 1 idx 1 *
G04 Title: (unknown), bottom *
G04 Creator: pcb 4.0.2 *
G04 CreationDate: Mon Feb 22 18:13:25 2021 UTC *
G04 For: ndholmes *
G04 Format: Gerber/RS-274X *
G04 PCB-Dimensions (mil): 2600.00 3500.00 *
G04 PCB-Coordinate-Origin: lower left *
%MOIN*%
%FSLAX25Y25*%
%LNBOTTOM*%
%ADD51C,0.0420*%
%ADD50C,0.1285*%
%ADD49C,0.0960*%
%ADD48C,0.1100*%
%ADD47C,0.1250*%
%ADD46C,0.0550*%
%ADD45C,0.0390*%
%ADD44C,0.0120*%
%ADD43C,0.0260*%
%ADD42C,0.0800*%
%ADD41C,0.2937*%
%ADD40C,0.1360*%
%ADD39C,0.1500*%
%ADD38C,0.1750*%
%ADD37C,0.0900*%
%ADD36C,0.0100*%
%ADD35C,0.0400*%
%ADD34C,0.0001*%
G54D34*G36*
X239988Y220500D02*X258000D01*
Y2000D01*
X239988D01*
Y76677D01*
X240000Y76676D01*
X241224Y76772D01*
X242418Y77059D01*
X243552Y77529D01*
X244599Y78170D01*
X245532Y78968D01*
X246330Y79901D01*
X246971Y80948D01*
X247441Y82082D01*
X247728Y83276D01*
X247800Y84500D01*
X247728Y85724D01*
X247441Y86918D01*
X246971Y88052D01*
X246330Y89099D01*
X245532Y90032D01*
X244599Y90830D01*
X243552Y91471D01*
X242418Y91941D01*
X241224Y92228D01*
X240000Y92324D01*
X239988Y92323D01*
Y220500D01*
G37*
G36*
X195995D02*X239988D01*
Y92323D01*
X238776Y92228D01*
X237582Y91941D01*
X236448Y91471D01*
X235401Y90830D01*
X234468Y90032D01*
X233670Y89099D01*
X233029Y88052D01*
X232559Y86918D01*
X232272Y85724D01*
X232176Y84500D01*
X232272Y83276D01*
X232559Y82082D01*
X233029Y80948D01*
X233670Y79901D01*
X234468Y78968D01*
X235401Y78170D01*
X236448Y77529D01*
X237582Y77059D01*
X238776Y76772D01*
X239988Y76677D01*
Y2000D01*
X195995D01*
Y16821D01*
X196018Y16858D01*
X196962Y19138D01*
X197539Y21539D01*
X197684Y24000D01*
X197539Y26461D01*
X196962Y28862D01*
X196018Y31142D01*
X195995Y31179D01*
Y162821D01*
X196018Y162858D01*
X196962Y165138D01*
X197539Y167539D01*
X197684Y170000D01*
X197539Y172461D01*
X196962Y174862D01*
X196018Y177142D01*
X195995Y177179D01*
Y208041D01*
X196000Y208041D01*
X196463Y208077D01*
X196914Y208186D01*
X197343Y208363D01*
X197739Y208606D01*
X198092Y208908D01*
X198394Y209261D01*
X198637Y209657D01*
X198814Y210086D01*
X198923Y210537D01*
X198950Y211000D01*
X198923Y211463D01*
X198814Y211914D01*
X198637Y212343D01*
X198394Y212739D01*
X198092Y213092D01*
X197739Y213394D01*
X197343Y213637D01*
X196914Y213814D01*
X196463Y213923D01*
X196000Y213959D01*
X195995Y213959D01*
Y220500D01*
G37*
G36*
X175995Y9511D02*X177138Y9038D01*
X179539Y8461D01*
X182000Y8268D01*
X184461Y8461D01*
X186862Y9038D01*
X189142Y9982D01*
X191247Y11272D01*
X193124Y12876D01*
X194728Y14753D01*
X195995Y16821D01*
Y2000D01*
X175995D01*
Y9511D01*
G37*
G36*
Y155511D02*X177138Y155038D01*
X179539Y154461D01*
X182000Y154268D01*
X184461Y154461D01*
X186862Y155038D01*
X189142Y155982D01*
X191247Y157272D01*
X193124Y158876D01*
X194728Y160753D01*
X195995Y162821D01*
Y31179D01*
X194728Y33247D01*
X193124Y35124D01*
X191247Y36728D01*
X189142Y38018D01*
X186862Y38962D01*
X184461Y39539D01*
X182000Y39732D01*
X179539Y39539D01*
X177138Y38962D01*
X175995Y38489D01*
Y155511D01*
G37*
G36*
Y220500D02*X195995D01*
Y213959D01*
X195537Y213923D01*
X195086Y213814D01*
X194657Y213637D01*
X194261Y213394D01*
X193908Y213092D01*
X193606Y212739D01*
X193363Y212343D01*
X193186Y211914D01*
X193077Y211463D01*
X193041Y211000D01*
X193077Y210537D01*
X193186Y210086D01*
X193363Y209657D01*
X193606Y209261D01*
X193908Y208908D01*
X194261Y208606D01*
X194657Y208363D01*
X195086Y208186D01*
X195537Y208077D01*
X195995Y208041D01*
Y177179D01*
X194728Y179247D01*
X193124Y181124D01*
X191247Y182728D01*
X189142Y184018D01*
X186862Y184962D01*
X184461Y185539D01*
X182000Y185732D01*
X179539Y185539D01*
X177138Y184962D01*
X175995Y184489D01*
Y204041D01*
X176000Y204041D01*
X176463Y204077D01*
X176914Y204186D01*
X177343Y204363D01*
X177739Y204606D01*
X178092Y204908D01*
X178394Y205261D01*
X178637Y205657D01*
X178814Y206086D01*
X178923Y206537D01*
X178950Y207000D01*
X178923Y207463D01*
X178814Y207914D01*
X178637Y208343D01*
X178394Y208739D01*
X178092Y209092D01*
X177739Y209394D01*
X177343Y209637D01*
X176914Y209814D01*
X176463Y209923D01*
X176000Y209959D01*
X175995Y209959D01*
Y212041D01*
X176000Y212041D01*
X176463Y212077D01*
X176914Y212186D01*
X177343Y212363D01*
X177739Y212606D01*
X178092Y212908D01*
X178394Y213261D01*
X178637Y213657D01*
X178814Y214086D01*
X178923Y214537D01*
X178950Y215000D01*
X178923Y215463D01*
X178814Y215914D01*
X178637Y216343D01*
X178394Y216739D01*
X178092Y217092D01*
X177739Y217394D01*
X177343Y217637D01*
X176914Y217814D01*
X176463Y217923D01*
X176000Y217959D01*
X175995Y217959D01*
Y220500D01*
G37*
G36*
X150496D02*X164879D01*
X166000Y219379D01*
Y217244D01*
X165869Y217131D01*
X165634Y216856D01*
X165444Y216547D01*
X165306Y216213D01*
X165221Y215861D01*
X165193Y215500D01*
X165221Y215139D01*
X165306Y214787D01*
X165444Y214453D01*
X165634Y214144D01*
X165869Y213869D01*
X166144Y213634D01*
X166453Y213444D01*
X166787Y213306D01*
X167139Y213221D01*
X167500Y213193D01*
X167861Y213221D01*
X168213Y213306D01*
X168547Y213444D01*
X168856Y213634D01*
X169131Y213869D01*
X169366Y214144D01*
X169556Y214453D01*
X169694Y214787D01*
X169779Y215139D01*
X169800Y215500D01*
X169779Y215861D01*
X169694Y216213D01*
X169556Y216547D01*
X169366Y216856D01*
X169131Y217131D01*
X169000Y217244D01*
Y219941D01*
X169005Y220000D01*
X168986Y220235D01*
X168931Y220465D01*
X168916Y220500D01*
X175995D01*
Y217959D01*
X175537Y217923D01*
X175086Y217814D01*
X174657Y217637D01*
X174261Y217394D01*
X173908Y217092D01*
X173606Y216739D01*
X173363Y216343D01*
X173186Y215914D01*
X173077Y215463D01*
X173041Y215000D01*
X173077Y214537D01*
X173186Y214086D01*
X173363Y213657D01*
X173606Y213261D01*
X173908Y212908D01*
X174261Y212606D01*
X174657Y212363D01*
X175086Y212186D01*
X175537Y212077D01*
X175995Y212041D01*
Y209959D01*
X175537Y209923D01*
X175086Y209814D01*
X174657Y209637D01*
X174261Y209394D01*
X173908Y209092D01*
X173606Y208739D01*
X173363Y208343D01*
X173186Y207914D01*
X173077Y207463D01*
X173041Y207000D01*
X173077Y206537D01*
X173186Y206086D01*
X173363Y205657D01*
X173606Y205261D01*
X173908Y204908D01*
X174261Y204606D01*
X174657Y204363D01*
X175086Y204186D01*
X175537Y204077D01*
X175995Y204041D01*
Y184489D01*
X174858Y184018D01*
X172753Y182728D01*
X170876Y181124D01*
X169272Y179247D01*
X167982Y177142D01*
X167038Y174862D01*
X166461Y172461D01*
X166268Y170000D01*
X166461Y167539D01*
X167038Y165138D01*
X167982Y162858D01*
X169272Y160753D01*
X170876Y158876D01*
X172753Y157272D01*
X174858Y155982D01*
X175995Y155511D01*
Y38489D01*
X174858Y38018D01*
X172753Y36728D01*
X170876Y35124D01*
X169272Y33247D01*
X167982Y31142D01*
X167038Y28862D01*
X166461Y26461D01*
X166268Y24000D01*
X166461Y21539D01*
X167038Y19138D01*
X167982Y16858D01*
X169272Y14753D01*
X170876Y12876D01*
X172753Y11272D01*
X174858Y9982D01*
X175995Y9511D01*
Y2000D01*
X150496D01*
Y161500D01*
X150500Y161500D01*
X158735Y161514D01*
X158965Y161569D01*
X159183Y161659D01*
X159384Y161783D01*
X159564Y161936D01*
X159717Y162116D01*
X159841Y162317D01*
X159931Y162535D01*
X159986Y162765D01*
X160000Y163000D01*
X159986Y171235D01*
X159931Y171465D01*
X159841Y171683D01*
X159717Y171884D01*
X159564Y172064D01*
X159384Y172217D01*
X159183Y172341D01*
X158965Y172431D01*
X158735Y172486D01*
X158500Y172500D01*
X150496Y172486D01*
Y211000D01*
X157756D01*
X157869Y210869D01*
X158144Y210634D01*
X158453Y210444D01*
X158787Y210306D01*
X159139Y210221D01*
X159500Y210193D01*
X159861Y210221D01*
X160213Y210306D01*
X160547Y210444D01*
X160856Y210634D01*
X161131Y210869D01*
X161366Y211144D01*
X161556Y211453D01*
X161694Y211787D01*
X161779Y212139D01*
X161800Y212500D01*
X161779Y212861D01*
X161694Y213213D01*
X161556Y213547D01*
X161366Y213856D01*
X161131Y214131D01*
X160856Y214366D01*
X160547Y214556D01*
X160213Y214694D01*
X159861Y214779D01*
X159500Y214807D01*
X159139Y214779D01*
X158787Y214694D01*
X158453Y214556D01*
X158144Y214366D01*
X157869Y214131D01*
X157756Y214000D01*
X150496D01*
Y220500D01*
G37*
G36*
X134492D02*X150496D01*
Y214000D01*
X143244D01*
X143131Y214131D01*
X142856Y214366D01*
X142547Y214556D01*
X142213Y214694D01*
X141861Y214779D01*
X141500Y214807D01*
X141139Y214779D01*
X140787Y214694D01*
X140453Y214556D01*
X140144Y214366D01*
X139869Y214131D01*
X139634Y213856D01*
X139444Y213547D01*
X139306Y213213D01*
X139221Y212861D01*
X139193Y212500D01*
X139221Y212139D01*
X139306Y211787D01*
X139444Y211453D01*
X139634Y211144D01*
X139869Y210869D01*
X140144Y210634D01*
X140453Y210444D01*
X140787Y210306D01*
X141139Y210221D01*
X141500Y210193D01*
X141861Y210221D01*
X142213Y210306D01*
X142547Y210444D01*
X142856Y210634D01*
X143131Y210869D01*
X143244Y211000D01*
X150496D01*
Y172486D01*
X150265Y172486D01*
X150035Y172431D01*
X149817Y172341D01*
X149616Y172217D01*
X149436Y172064D01*
X149283Y171884D01*
X149159Y171683D01*
X149069Y171465D01*
X149014Y171235D01*
X149000Y171000D01*
X149014Y162765D01*
X149069Y162535D01*
X149159Y162317D01*
X149283Y162116D01*
X149436Y161936D01*
X149616Y161783D01*
X149817Y161659D01*
X150035Y161569D01*
X150265Y161514D01*
X150496Y161500D01*
Y2000D01*
X134492D01*
Y161484D01*
X134500Y161483D01*
X135363Y161551D01*
X136205Y161753D01*
X137005Y162084D01*
X137743Y162537D01*
X138401Y163099D01*
X138963Y163757D01*
X139416Y164495D01*
X139747Y165295D01*
X139949Y166137D01*
X140000Y167000D01*
X139949Y167863D01*
X139747Y168705D01*
X139416Y169505D01*
X138963Y170243D01*
X138401Y170901D01*
X137743Y171463D01*
X137005Y171916D01*
X136205Y172247D01*
X135363Y172449D01*
X134500Y172517D01*
X134492Y172516D01*
Y220500D01*
G37*
G36*
X114500D02*X134492D01*
Y172516D01*
X133637Y172449D01*
X132795Y172247D01*
X131995Y171916D01*
X131257Y171463D01*
X130599Y170901D01*
X130037Y170243D01*
X129584Y169505D01*
X129253Y168705D01*
X129051Y167863D01*
X128983Y167000D01*
X129051Y166137D01*
X129253Y165295D01*
X129584Y164495D01*
X130037Y163757D01*
X130599Y163099D01*
X131257Y162537D01*
X131995Y162084D01*
X132795Y161753D01*
X133637Y161551D01*
X134492Y161484D01*
Y2000D01*
X114500D01*
Y161507D01*
X118735Y161514D01*
X118965Y161569D01*
X119183Y161659D01*
X119384Y161783D01*
X119564Y161936D01*
X119717Y162116D01*
X119841Y162317D01*
X119931Y162535D01*
X119986Y162765D01*
X120000Y163000D01*
X119986Y171235D01*
X119931Y171465D01*
X119841Y171683D01*
X119717Y171884D01*
X119564Y172064D01*
X119384Y172217D01*
X119183Y172341D01*
X118965Y172431D01*
X118735Y172486D01*
X118500Y172500D01*
X114500Y172493D01*
Y220500D01*
G37*
G36*
X98993D02*X114500D01*
Y172493D01*
X110265Y172486D01*
X110035Y172431D01*
X109817Y172341D01*
X109616Y172217D01*
X109436Y172064D01*
X109283Y171884D01*
X109159Y171683D01*
X109069Y171465D01*
X109014Y171235D01*
X109000Y171000D01*
X109014Y162765D01*
X109069Y162535D01*
X109159Y162317D01*
X109283Y162116D01*
X109436Y161936D01*
X109616Y161783D01*
X109817Y161659D01*
X110035Y161569D01*
X110265Y161514D01*
X110500Y161500D01*
X114500Y161507D01*
Y2000D01*
X98993D01*
Y164145D01*
X99078Y164181D01*
X99179Y164243D01*
X99269Y164319D01*
X99345Y164409D01*
X99405Y164511D01*
X99622Y164980D01*
X99789Y165469D01*
X99909Y165972D01*
X99982Y166484D01*
X100006Y167000D01*
X99982Y167516D01*
X99909Y168028D01*
X99789Y168531D01*
X99622Y169020D01*
X99410Y169492D01*
X99349Y169593D01*
X99272Y169684D01*
X99182Y169761D01*
X99080Y169823D01*
X98993Y169860D01*
Y220500D01*
G37*
G36*
X94502D02*X98993D01*
Y169860D01*
X98971Y169869D01*
X98855Y169897D01*
X98737Y169906D01*
X98619Y169897D01*
X98503Y169870D01*
X98393Y169824D01*
X98292Y169762D01*
X98202Y169686D01*
X98124Y169595D01*
X98062Y169494D01*
X98016Y169385D01*
X97989Y169269D01*
X97979Y169151D01*
X97988Y169032D01*
X98016Y168917D01*
X98063Y168808D01*
X98221Y168468D01*
X98342Y168112D01*
X98430Y167747D01*
X98482Y167375D01*
X98500Y167000D01*
X98482Y166625D01*
X98430Y166253D01*
X98342Y165888D01*
X98221Y165532D01*
X98067Y165190D01*
X98020Y165082D01*
X97993Y164967D01*
X97983Y164849D01*
X97993Y164732D01*
X98021Y164617D01*
X98066Y164508D01*
X98128Y164407D01*
X98205Y164318D01*
X98295Y164241D01*
X98395Y164180D01*
X98504Y164135D01*
X98619Y164107D01*
X98737Y164098D01*
X98855Y164108D01*
X98969Y164135D01*
X98993Y164145D01*
Y2000D01*
X94502D01*
Y161494D01*
X95016Y161518D01*
X95528Y161591D01*
X96031Y161711D01*
X96520Y161878D01*
X96992Y162090D01*
X97093Y162151D01*
X97184Y162228D01*
X97261Y162318D01*
X97323Y162420D01*
X97369Y162529D01*
X97397Y162645D01*
X97406Y162763D01*
X97397Y162881D01*
X97370Y162997D01*
X97324Y163107D01*
X97262Y163208D01*
X97186Y163298D01*
X97095Y163376D01*
X96994Y163438D01*
X96885Y163484D01*
X96769Y163511D01*
X96651Y163521D01*
X96532Y163512D01*
X96417Y163484D01*
X96308Y163437D01*
X95968Y163279D01*
X95612Y163158D01*
X95247Y163070D01*
X94875Y163018D01*
X94502Y163000D01*
Y171000D01*
X94875Y170982D01*
X95247Y170930D01*
X95612Y170842D01*
X95968Y170721D01*
X96310Y170567D01*
X96418Y170520D01*
X96533Y170493D01*
X96651Y170483D01*
X96768Y170493D01*
X96883Y170521D01*
X96992Y170566D01*
X97093Y170628D01*
X97182Y170705D01*
X97259Y170795D01*
X97320Y170895D01*
X97365Y171004D01*
X97393Y171119D01*
X97402Y171237D01*
X97392Y171355D01*
X97365Y171469D01*
X97319Y171578D01*
X97257Y171679D01*
X97181Y171769D01*
X97091Y171845D01*
X96989Y171905D01*
X96520Y172122D01*
X96031Y172289D01*
X95528Y172409D01*
X95016Y172482D01*
X94502Y172506D01*
Y220500D01*
G37*
G36*
X90007D02*X94502D01*
Y172506D01*
X94500Y172506D01*
X93984Y172482D01*
X93472Y172409D01*
X92969Y172289D01*
X92480Y172122D01*
X92008Y171910D01*
X91907Y171849D01*
X91816Y171772D01*
X91739Y171682D01*
X91677Y171580D01*
X91631Y171471D01*
X91603Y171355D01*
X91594Y171237D01*
X91603Y171119D01*
X91630Y171003D01*
X91676Y170893D01*
X91738Y170792D01*
X91814Y170702D01*
X91905Y170624D01*
X92006Y170562D01*
X92115Y170516D01*
X92231Y170489D01*
X92349Y170479D01*
X92468Y170488D01*
X92583Y170516D01*
X92692Y170563D01*
X93032Y170721D01*
X93388Y170842D01*
X93753Y170930D01*
X94125Y170982D01*
X94500Y171000D01*
X94502Y171000D01*
Y163000D01*
X94500Y163000D01*
X94125Y163018D01*
X93753Y163070D01*
X93388Y163158D01*
X93032Y163279D01*
X92690Y163433D01*
X92582Y163480D01*
X92467Y163507D01*
X92349Y163517D01*
X92232Y163507D01*
X92117Y163479D01*
X92008Y163434D01*
X91907Y163372D01*
X91818Y163295D01*
X91741Y163205D01*
X91680Y163105D01*
X91635Y162996D01*
X91607Y162881D01*
X91598Y162763D01*
X91608Y162645D01*
X91635Y162531D01*
X91681Y162422D01*
X91743Y162321D01*
X91819Y162231D01*
X91909Y162155D01*
X92011Y162095D01*
X92480Y161878D01*
X92969Y161711D01*
X93472Y161591D01*
X93984Y161518D01*
X94500Y161494D01*
X94502Y161494D01*
Y2000D01*
X90007D01*
Y164140D01*
X90029Y164131D01*
X90145Y164103D01*
X90263Y164094D01*
X90381Y164103D01*
X90497Y164130D01*
X90607Y164176D01*
X90708Y164238D01*
X90798Y164314D01*
X90876Y164405D01*
X90938Y164506D01*
X90984Y164615D01*
X91011Y164731D01*
X91021Y164849D01*
X91012Y164968D01*
X90984Y165083D01*
X90937Y165192D01*
X90779Y165532D01*
X90658Y165888D01*
X90570Y166253D01*
X90518Y166625D01*
X90500Y167000D01*
X90518Y167375D01*
X90570Y167747D01*
X90658Y168112D01*
X90779Y168468D01*
X90933Y168810D01*
X90980Y168918D01*
X91007Y169033D01*
X91017Y169151D01*
X91007Y169268D01*
X90979Y169383D01*
X90934Y169492D01*
X90872Y169593D01*
X90795Y169682D01*
X90705Y169759D01*
X90605Y169820D01*
X90496Y169865D01*
X90381Y169893D01*
X90263Y169902D01*
X90145Y169892D01*
X90031Y169865D01*
X90007Y169855D01*
Y220500D01*
G37*
G36*
X65976D02*X90007D01*
Y169855D01*
X89922Y169819D01*
X89821Y169757D01*
X89731Y169681D01*
X89655Y169591D01*
X89595Y169489D01*
X89378Y169020D01*
X89211Y168531D01*
X89091Y168028D01*
X89018Y167516D01*
X88994Y167000D01*
X89018Y166484D01*
X89091Y165972D01*
X89211Y165469D01*
X89378Y164980D01*
X89590Y164508D01*
X89651Y164407D01*
X89728Y164316D01*
X89818Y164239D01*
X89920Y164177D01*
X90007Y164140D01*
Y2000D01*
X65976D01*
Y8270D01*
X66000Y8268D01*
X68461Y8461D01*
X70862Y9038D01*
X73142Y9982D01*
X75247Y11272D01*
X77124Y12876D01*
X78728Y14753D01*
X80018Y16858D01*
X80962Y19138D01*
X81539Y21539D01*
X81684Y24000D01*
X81539Y26461D01*
X80962Y28862D01*
X80018Y31142D01*
X78728Y33247D01*
X77124Y35124D01*
X75247Y36728D01*
X73142Y38018D01*
X70862Y38962D01*
X68461Y39539D01*
X66000Y39732D01*
X65976Y39730D01*
Y154270D01*
X66000Y154268D01*
X68461Y154461D01*
X70862Y155038D01*
X73142Y155982D01*
X75247Y157272D01*
X77124Y158876D01*
X78728Y160753D01*
X80018Y162858D01*
X80962Y165138D01*
X81539Y167539D01*
X81684Y170000D01*
X81539Y172461D01*
X80962Y174862D01*
X80018Y177142D01*
X78728Y179247D01*
X77124Y181124D01*
X75247Y182728D01*
X73142Y184018D01*
X70862Y184962D01*
X68461Y185539D01*
X66000Y185732D01*
X65976Y185730D01*
Y220500D01*
G37*
G36*
X14988D02*X65976D01*
Y185730D01*
X63539Y185539D01*
X61138Y184962D01*
X58858Y184018D01*
X56753Y182728D01*
X54876Y181124D01*
X53272Y179247D01*
X51982Y177142D01*
X51038Y174862D01*
X50461Y172461D01*
X50268Y170000D01*
X50461Y167539D01*
X51038Y165138D01*
X51982Y162858D01*
X53272Y160753D01*
X54876Y158876D01*
X56753Y157272D01*
X58858Y155982D01*
X61138Y155038D01*
X63539Y154461D01*
X65976Y154270D01*
Y39730D01*
X63539Y39539D01*
X61138Y38962D01*
X58858Y38018D01*
X56753Y36728D01*
X54876Y35124D01*
X53272Y33247D01*
X51982Y31142D01*
X51038Y28862D01*
X50461Y26461D01*
X50268Y24000D01*
X50461Y21539D01*
X51038Y19138D01*
X51982Y16858D01*
X53272Y14753D01*
X54876Y12876D01*
X56753Y11272D01*
X58858Y9982D01*
X61138Y9038D01*
X63539Y8461D01*
X65976Y8270D01*
Y2000D01*
X14988D01*
Y77177D01*
X15000Y77176D01*
X16224Y77272D01*
X17418Y77559D01*
X18552Y78029D01*
X19599Y78670D01*
X20532Y79468D01*
X21330Y80401D01*
X21971Y81448D01*
X22441Y82582D01*
X22728Y83776D01*
X22800Y85000D01*
X22728Y86224D01*
X22441Y87418D01*
X21971Y88552D01*
X21330Y89599D01*
X20532Y90532D01*
X19599Y91330D01*
X18552Y91971D01*
X17418Y92441D01*
X16224Y92728D01*
X15000Y92824D01*
X14988Y92823D01*
Y220500D01*
G37*
G36*
X2000D02*X14988D01*
Y92823D01*
X13776Y92728D01*
X12582Y92441D01*
X11448Y91971D01*
X10401Y91330D01*
X9468Y90532D01*
X8670Y89599D01*
X8029Y88552D01*
X7559Y87418D01*
X7272Y86224D01*
X7176Y85000D01*
X7272Y83776D01*
X7559Y82582D01*
X8029Y81448D01*
X8670Y80401D01*
X9468Y79468D01*
X10401Y78670D01*
X11448Y78029D01*
X12582Y77559D01*
X13776Y77272D01*
X14988Y77177D01*
Y2000D01*
X2000D01*
Y220500D01*
G37*
G36*
X184000Y273000D02*X1500D01*
Y298000D01*
X30028D01*
X29949Y297671D01*
X29817Y296000D01*
X29949Y294329D01*
X30340Y292699D01*
X30982Y291150D01*
X31857Y289721D01*
X32946Y288446D01*
X34221Y287357D01*
X35650Y286482D01*
X37199Y285840D01*
X38829Y285449D01*
X40500Y285317D01*
X42171Y285449D01*
X43801Y285840D01*
X45350Y286482D01*
X46779Y287357D01*
X48054Y288446D01*
X49143Y289721D01*
X50018Y291150D01*
X50660Y292699D01*
X51051Y294329D01*
X51150Y296000D01*
X51051Y297671D01*
X50972Y298000D01*
X184000D01*
Y273000D01*
G37*
G36*
X1500Y298000D02*X30000D01*
Y297885D01*
X29949Y297671D01*
X29817Y296000D01*
X29949Y294329D01*
X30000Y294115D01*
Y222000D01*
X1500D01*
Y298000D01*
G37*
G36*
X31500Y271500D02*X238500D01*
Y251500D01*
X31500D01*
Y271500D01*
G37*
G36*
X167500Y348500D02*X257500D01*
Y299500D01*
X167500D01*
Y304007D01*
X172235Y304014D01*
X172465Y304069D01*
X172683Y304159D01*
X172884Y304283D01*
X173064Y304436D01*
X173217Y304616D01*
X173341Y304817D01*
X173431Y305035D01*
X173486Y305265D01*
X173500Y305500D01*
X173486Y314735D01*
X173431Y314965D01*
X173341Y315183D01*
X173217Y315384D01*
X173064Y315564D01*
X172884Y315717D01*
X172683Y315841D01*
X172465Y315931D01*
X172235Y315986D01*
X172000Y316000D01*
X167500Y315993D01*
Y348500D01*
G37*
G36*
X147491D02*X167500D01*
Y315993D01*
X162765Y315986D01*
X162535Y315931D01*
X162317Y315841D01*
X162116Y315717D01*
X161936Y315564D01*
X161783Y315384D01*
X161659Y315183D01*
X161569Y314965D01*
X161514Y314735D01*
X161500Y314500D01*
X161514Y305265D01*
X161569Y305035D01*
X161659Y304817D01*
X161783Y304616D01*
X161936Y304436D01*
X162116Y304283D01*
X162317Y304159D01*
X162535Y304069D01*
X162765Y304014D01*
X163000Y304000D01*
X167500Y304007D01*
Y299500D01*
X147491D01*
Y303982D01*
X147500Y303981D01*
X148442Y304056D01*
X149360Y304276D01*
X150232Y304637D01*
X151038Y305131D01*
X151756Y305744D01*
X152369Y306462D01*
X152863Y307268D01*
X153224Y308140D01*
X153444Y309058D01*
X153500Y310000D01*
X153444Y310942D01*
X153224Y311860D01*
X152863Y312732D01*
X152369Y313538D01*
X151756Y314256D01*
X151038Y314869D01*
X150232Y315363D01*
X149360Y315724D01*
X148442Y315944D01*
X147500Y316019D01*
X147491Y316018D01*
Y348500D01*
G37*
G36*
X47655Y322245D02*X47819Y321638D01*
X47935Y320988D01*
X47993Y320330D01*
Y319670D01*
X47935Y319012D01*
X47819Y318362D01*
X47655Y317755D01*
Y322245D01*
G37*
G36*
Y348500D02*X147491D01*
Y316018D01*
X146558Y315944D01*
X145640Y315724D01*
X144768Y315363D01*
X143962Y314869D01*
X143244Y314256D01*
X142631Y313538D01*
X142137Y312732D01*
X141776Y311860D01*
X141556Y310942D01*
X141481Y310000D01*
X141556Y309058D01*
X141776Y308140D01*
X142137Y307268D01*
X142631Y306462D01*
X143244Y305744D01*
X143962Y305131D01*
X144768Y304637D01*
X145640Y304276D01*
X146558Y304056D01*
X147491Y303982D01*
Y299500D01*
X50578D01*
X50018Y300850D01*
X49143Y302279D01*
X48054Y303554D01*
X47655Y303895D01*
Y315396D01*
X48030Y316039D01*
X48349Y316716D01*
X48607Y317419D01*
X48803Y318142D01*
X48934Y318880D01*
X49000Y319626D01*
Y320374D01*
X48934Y321121D01*
X48803Y321858D01*
X48607Y322581D01*
X48349Y323284D01*
X48030Y323961D01*
X47655Y324604D01*
Y348500D01*
G37*
G36*
X40504D02*X47655D01*
Y324604D01*
X47652Y324608D01*
X47219Y325219D01*
X47166Y325279D01*
X47104Y325328D01*
X47034Y325368D01*
X46960Y325396D01*
X46881Y325412D01*
X46802Y325416D01*
X46722Y325407D01*
X46645Y325386D01*
X46573Y325353D01*
X46506Y325309D01*
X46447Y325256D01*
X46397Y325193D01*
X46357Y325124D01*
X46329Y325049D01*
X46313Y324971D01*
X46309Y324891D01*
X46318Y324812D01*
X46339Y324735D01*
X46372Y324662D01*
X46417Y324596D01*
X46805Y324062D01*
X47138Y323492D01*
X47419Y322895D01*
X47647Y322275D01*
X47655Y322245D01*
Y317755D01*
X47647Y317725D01*
X47419Y317105D01*
X47138Y316508D01*
X46805Y315938D01*
X46423Y315399D01*
X46379Y315334D01*
X46346Y315263D01*
X46325Y315187D01*
X46317Y315109D01*
X46320Y315030D01*
X46336Y314953D01*
X46364Y314879D01*
X46403Y314811D01*
X46452Y314749D01*
X46510Y314696D01*
X46576Y314653D01*
X46648Y314621D01*
X46724Y314600D01*
X46802Y314591D01*
X46881Y314595D01*
X46958Y314611D01*
X47031Y314639D01*
X47100Y314678D01*
X47161Y314727D01*
X47213Y314786D01*
X47652Y315392D01*
X47655Y315396D01*
Y303895D01*
X46779Y304643D01*
X45350Y305518D01*
X43801Y306160D01*
X42171Y306551D01*
X40504Y306683D01*
Y311500D01*
X40874D01*
X41620Y311566D01*
X42358Y311697D01*
X43081Y311893D01*
X43784Y312151D01*
X44461Y312470D01*
X45108Y312848D01*
X45719Y313281D01*
X45779Y313334D01*
X45828Y313396D01*
X45868Y313466D01*
X45896Y313540D01*
X45912Y313619D01*
X45916Y313698D01*
X45907Y313778D01*
X45886Y313855D01*
X45853Y313927D01*
X45809Y313994D01*
X45756Y314053D01*
X45693Y314103D01*
X45624Y314143D01*
X45549Y314171D01*
X45471Y314187D01*
X45391Y314191D01*
X45312Y314182D01*
X45235Y314161D01*
X45162Y314128D01*
X45096Y314083D01*
X44562Y313695D01*
X43992Y313362D01*
X43395Y313081D01*
X42775Y312853D01*
X42138Y312681D01*
X41488Y312565D01*
X40830Y312507D01*
X40504D01*
Y327493D01*
X40830D01*
X41488Y327435D01*
X42138Y327319D01*
X42775Y327147D01*
X43395Y326919D01*
X43992Y326638D01*
X44562Y326305D01*
X45101Y325923D01*
X45166Y325879D01*
X45237Y325846D01*
X45313Y325825D01*
X45391Y325817D01*
X45470Y325820D01*
X45547Y325836D01*
X45621Y325864D01*
X45689Y325903D01*
X45751Y325952D01*
X45804Y326010D01*
X45847Y326076D01*
X45879Y326148D01*
X45900Y326224D01*
X45909Y326302D01*
X45905Y326381D01*
X45889Y326458D01*
X45861Y326531D01*
X45822Y326600D01*
X45773Y326661D01*
X45714Y326713D01*
X45108Y327152D01*
X44461Y327530D01*
X43784Y327849D01*
X43081Y328107D01*
X42358Y328303D01*
X41620Y328434D01*
X40874Y328500D01*
X40504D01*
Y348500D01*
G37*
G36*
X33345D02*X40504D01*
Y328500D01*
X40126D01*
X39379Y328434D01*
X38642Y328303D01*
X37919Y328107D01*
X37216Y327849D01*
X36539Y327530D01*
X35892Y327152D01*
X35281Y326719D01*
X35221Y326666D01*
X35172Y326604D01*
X35132Y326534D01*
X35104Y326460D01*
X35088Y326381D01*
X35084Y326302D01*
X35093Y326222D01*
X35114Y326145D01*
X35147Y326073D01*
X35191Y326006D01*
X35244Y325947D01*
X35307Y325897D01*
X35376Y325857D01*
X35451Y325829D01*
X35529Y325813D01*
X35609Y325809D01*
X35688Y325818D01*
X35765Y325839D01*
X35838Y325872D01*
X35904Y325917D01*
X36438Y326305D01*
X37008Y326638D01*
X37605Y326919D01*
X38225Y327147D01*
X38862Y327319D01*
X39512Y327435D01*
X40170Y327493D01*
X40504D01*
Y312507D01*
X40170D01*
X39512Y312565D01*
X38862Y312681D01*
X38225Y312853D01*
X37605Y313081D01*
X37008Y313362D01*
X36438Y313695D01*
X35899Y314077D01*
X35834Y314121D01*
X35763Y314154D01*
X35687Y314175D01*
X35609Y314183D01*
X35530Y314180D01*
X35453Y314164D01*
X35379Y314136D01*
X35311Y314097D01*
X35249Y314048D01*
X35196Y313990D01*
X35153Y313924D01*
X35121Y313852D01*
X35100Y313776D01*
X35091Y313698D01*
X35095Y313619D01*
X35111Y313542D01*
X35139Y313469D01*
X35178Y313400D01*
X35227Y313339D01*
X35286Y313287D01*
X35892Y312848D01*
X36539Y312470D01*
X37216Y312151D01*
X37919Y311893D01*
X38642Y311697D01*
X39379Y311566D01*
X40126Y311500D01*
X40504D01*
Y306683D01*
X40500Y306683D01*
X38829Y306551D01*
X37199Y306160D01*
X35650Y305518D01*
X34221Y304643D01*
X33345Y303895D01*
Y315396D01*
X33348Y315392D01*
X33781Y314781D01*
X33834Y314721D01*
X33896Y314672D01*
X33966Y314632D01*
X34040Y314604D01*
X34119Y314588D01*
X34198Y314584D01*
X34278Y314593D01*
X34355Y314614D01*
X34427Y314647D01*
X34494Y314691D01*
X34553Y314744D01*
X34603Y314807D01*
X34643Y314876D01*
X34671Y314951D01*
X34687Y315029D01*
X34691Y315109D01*
X34682Y315188D01*
X34661Y315265D01*
X34628Y315338D01*
X34583Y315404D01*
X34195Y315938D01*
X33862Y316508D01*
X33581Y317105D01*
X33353Y317725D01*
X33345Y317755D01*
Y322245D01*
X33353Y322275D01*
X33581Y322895D01*
X33862Y323492D01*
X34195Y324062D01*
X34577Y324601D01*
X34621Y324666D01*
X34654Y324737D01*
X34675Y324813D01*
X34683Y324891D01*
X34680Y324970D01*
X34664Y325047D01*
X34636Y325121D01*
X34597Y325189D01*
X34548Y325251D01*
X34490Y325304D01*
X34424Y325347D01*
X34352Y325379D01*
X34276Y325400D01*
X34198Y325409D01*
X34119Y325405D01*
X34042Y325389D01*
X33969Y325361D01*
X33900Y325322D01*
X33839Y325273D01*
X33787Y325214D01*
X33348Y324608D01*
X33345Y324604D01*
Y348500D01*
G37*
G36*
Y317755D02*X33181Y318362D01*
X33065Y319012D01*
X33007Y319670D01*
Y320330D01*
X33065Y320988D01*
X33181Y321638D01*
X33345Y322245D01*
Y317755D01*
G37*
G36*
X28655Y310245D02*X28819Y309638D01*
X28935Y308988D01*
X28993Y308330D01*
Y307670D01*
X28935Y307012D01*
X28819Y306362D01*
X28655Y305755D01*
Y310245D01*
G37*
G36*
Y348500D02*X33345D01*
Y324604D01*
X32970Y323961D01*
X32651Y323284D01*
X32393Y322581D01*
X32197Y321858D01*
X32066Y321121D01*
X32000Y320374D01*
Y319626D01*
X32066Y318880D01*
X32197Y318142D01*
X32393Y317419D01*
X32651Y316716D01*
X32970Y316039D01*
X33345Y315396D01*
Y303895D01*
X32946Y303554D01*
X31857Y302279D01*
X30982Y300850D01*
X30422Y299500D01*
X28655D01*
Y303396D01*
X29030Y304039D01*
X29349Y304716D01*
X29607Y305419D01*
X29803Y306142D01*
X29934Y306880D01*
X30000Y307626D01*
Y308374D01*
X29934Y309121D01*
X29803Y309858D01*
X29607Y310581D01*
X29349Y311284D01*
X29030Y311961D01*
X28655Y312604D01*
Y348500D01*
G37*
G36*
X21504D02*X28655D01*
Y312604D01*
X28652Y312608D01*
X28219Y313219D01*
X28166Y313279D01*
X28104Y313328D01*
X28034Y313368D01*
X27960Y313396D01*
X27881Y313412D01*
X27802Y313416D01*
X27722Y313407D01*
X27645Y313386D01*
X27573Y313353D01*
X27506Y313309D01*
X27447Y313256D01*
X27397Y313193D01*
X27357Y313124D01*
X27329Y313049D01*
X27313Y312971D01*
X27309Y312891D01*
X27318Y312812D01*
X27339Y312735D01*
X27372Y312662D01*
X27417Y312596D01*
X27805Y312062D01*
X28138Y311492D01*
X28419Y310895D01*
X28647Y310275D01*
X28655Y310245D01*
Y305755D01*
X28647Y305725D01*
X28419Y305105D01*
X28138Y304508D01*
X27805Y303938D01*
X27423Y303399D01*
X27379Y303334D01*
X27346Y303263D01*
X27325Y303187D01*
X27317Y303109D01*
X27320Y303030D01*
X27336Y302953D01*
X27364Y302879D01*
X27403Y302811D01*
X27452Y302749D01*
X27510Y302696D01*
X27576Y302653D01*
X27648Y302621D01*
X27724Y302600D01*
X27802Y302591D01*
X27881Y302595D01*
X27958Y302611D01*
X28031Y302639D01*
X28100Y302678D01*
X28161Y302727D01*
X28213Y302786D01*
X28652Y303392D01*
X28655Y303396D01*
Y299500D01*
X21504D01*
Y299500D01*
X21874D01*
X22620Y299566D01*
X23358Y299697D01*
X24081Y299893D01*
X24784Y300151D01*
X25461Y300470D01*
X26108Y300848D01*
X26719Y301281D01*
X26779Y301334D01*
X26828Y301396D01*
X26868Y301466D01*
X26896Y301540D01*
X26912Y301619D01*
X26916Y301698D01*
X26907Y301778D01*
X26886Y301855D01*
X26853Y301927D01*
X26809Y301994D01*
X26756Y302053D01*
X26693Y302103D01*
X26624Y302143D01*
X26549Y302171D01*
X26471Y302187D01*
X26391Y302191D01*
X26312Y302182D01*
X26235Y302161D01*
X26162Y302128D01*
X26096Y302083D01*
X25562Y301695D01*
X24992Y301362D01*
X24395Y301081D01*
X23775Y300853D01*
X23138Y300681D01*
X22488Y300565D01*
X21830Y300507D01*
X21504D01*
Y315493D01*
X21830D01*
X22488Y315435D01*
X23138Y315319D01*
X23775Y315147D01*
X24395Y314919D01*
X24992Y314638D01*
X25562Y314305D01*
X26101Y313923D01*
X26166Y313879D01*
X26237Y313846D01*
X26313Y313825D01*
X26391Y313817D01*
X26470Y313820D01*
X26547Y313836D01*
X26621Y313864D01*
X26689Y313903D01*
X26751Y313952D01*
X26804Y314010D01*
X26847Y314076D01*
X26879Y314148D01*
X26900Y314224D01*
X26909Y314302D01*
X26905Y314381D01*
X26889Y314458D01*
X26861Y314531D01*
X26822Y314600D01*
X26773Y314661D01*
X26714Y314713D01*
X26108Y315152D01*
X25461Y315530D01*
X24784Y315849D01*
X24081Y316107D01*
X23358Y316303D01*
X22620Y316434D01*
X21874Y316500D01*
X21504D01*
Y348500D01*
G37*
G36*
X14345D02*X21504D01*
Y316500D01*
X21126D01*
X20379Y316434D01*
X19642Y316303D01*
X18919Y316107D01*
X18216Y315849D01*
X17539Y315530D01*
X16892Y315152D01*
X16281Y314719D01*
X16221Y314666D01*
X16172Y314604D01*
X16132Y314534D01*
X16104Y314460D01*
X16088Y314381D01*
X16084Y314302D01*
X16093Y314222D01*
X16114Y314145D01*
X16147Y314073D01*
X16191Y314006D01*
X16244Y313947D01*
X16307Y313897D01*
X16376Y313857D01*
X16451Y313829D01*
X16529Y313813D01*
X16609Y313809D01*
X16688Y313818D01*
X16765Y313839D01*
X16838Y313872D01*
X16904Y313917D01*
X17438Y314305D01*
X18008Y314638D01*
X18605Y314919D01*
X19225Y315147D01*
X19862Y315319D01*
X20512Y315435D01*
X21170Y315493D01*
X21504D01*
Y300507D01*
X21170D01*
X20512Y300565D01*
X19862Y300681D01*
X19225Y300853D01*
X18605Y301081D01*
X18008Y301362D01*
X17438Y301695D01*
X16899Y302077D01*
X16834Y302121D01*
X16763Y302154D01*
X16687Y302175D01*
X16609Y302183D01*
X16530Y302180D01*
X16453Y302164D01*
X16379Y302136D01*
X16311Y302097D01*
X16249Y302048D01*
X16196Y301990D01*
X16153Y301924D01*
X16121Y301852D01*
X16100Y301776D01*
X16091Y301698D01*
X16095Y301619D01*
X16111Y301542D01*
X16139Y301469D01*
X16178Y301400D01*
X16227Y301339D01*
X16286Y301287D01*
X16892Y300848D01*
X17539Y300470D01*
X18216Y300151D01*
X18919Y299893D01*
X19642Y299697D01*
X20379Y299566D01*
X21126Y299500D01*
X21504D01*
Y299500D01*
X14345D01*
Y303396D01*
X14348Y303392D01*
X14781Y302781D01*
X14834Y302721D01*
X14896Y302672D01*
X14966Y302632D01*
X15040Y302604D01*
X15119Y302588D01*
X15198Y302584D01*
X15278Y302593D01*
X15355Y302614D01*
X15427Y302647D01*
X15494Y302691D01*
X15553Y302744D01*
X15603Y302807D01*
X15643Y302876D01*
X15671Y302951D01*
X15687Y303029D01*
X15691Y303109D01*
X15682Y303188D01*
X15661Y303265D01*
X15628Y303338D01*
X15583Y303404D01*
X15195Y303938D01*
X14862Y304508D01*
X14581Y305105D01*
X14353Y305725D01*
X14345Y305755D01*
Y310245D01*
X14353Y310275D01*
X14581Y310895D01*
X14862Y311492D01*
X15195Y312062D01*
X15577Y312601D01*
X15621Y312666D01*
X15654Y312737D01*
X15675Y312813D01*
X15683Y312891D01*
X15680Y312970D01*
X15664Y313047D01*
X15636Y313121D01*
X15597Y313189D01*
X15548Y313251D01*
X15490Y313304D01*
X15424Y313347D01*
X15352Y313379D01*
X15276Y313400D01*
X15198Y313409D01*
X15119Y313405D01*
X15042Y313389D01*
X14969Y313361D01*
X14900Y313322D01*
X14839Y313273D01*
X14787Y313214D01*
X14348Y312608D01*
X14345Y312604D01*
Y348500D01*
G37*
G36*
Y305755D02*X14181Y306362D01*
X14065Y307012D01*
X14007Y307670D01*
Y308330D01*
X14065Y308988D01*
X14181Y309638D01*
X14345Y310245D01*
Y305755D01*
G37*
G36*
X1500Y348500D02*X14345D01*
Y312604D01*
X13970Y311961D01*
X13651Y311284D01*
X13393Y310581D01*
X13197Y309858D01*
X13066Y309121D01*
X13000Y308374D01*
Y307626D01*
X13066Y306880D01*
X13197Y306142D01*
X13393Y305419D01*
X13651Y304716D01*
X13970Y304039D01*
X14345Y303396D01*
Y299500D01*
X1500D01*
Y348500D01*
G37*
G36*
X185500Y301000D02*X257500D01*
Y231000D01*
X185500D01*
Y301000D01*
G37*
G36*
X31500Y257500D02*X257500D01*
Y231000D01*
X31500D01*
Y257500D01*
G37*
G36*
X90000Y235000D02*X257500D01*
Y216000D01*
X178779D01*
X178637Y216343D01*
X178394Y216739D01*
X178092Y217092D01*
X177739Y217394D01*
X177343Y217637D01*
X176914Y217814D01*
X176463Y217923D01*
X176000Y217959D01*
X175537Y217923D01*
X175086Y217814D01*
X174657Y217637D01*
X174261Y217394D01*
X173908Y217092D01*
X173606Y216739D01*
X173363Y216343D01*
X173221Y216000D01*
X169745D01*
X169694Y216213D01*
X169556Y216547D01*
X169366Y216856D01*
X169131Y217131D01*
X169000Y217244D01*
Y219941D01*
X169005Y220000D01*
X168986Y220235D01*
X168931Y220465D01*
X168841Y220683D01*
X168717Y220884D01*
X168564Y221064D01*
X168519Y221102D01*
X163790Y225831D01*
X163800Y226000D01*
X163779Y226361D01*
X163694Y226713D01*
X163556Y227047D01*
X163366Y227356D01*
X163131Y227631D01*
X162856Y227866D01*
X162547Y228056D01*
X162213Y228194D01*
X161861Y228279D01*
X161500Y228307D01*
X161139Y228279D01*
X160787Y228194D01*
X160453Y228056D01*
X160144Y227866D01*
X159869Y227631D01*
X159634Y227356D01*
X159444Y227047D01*
X159306Y226713D01*
X159221Y226361D01*
X159193Y226000D01*
X159221Y225639D01*
X159306Y225287D01*
X159444Y224953D01*
X159634Y224644D01*
X159869Y224369D01*
X160144Y224134D01*
X160453Y223944D01*
X160787Y223806D01*
X161139Y223721D01*
X161500Y223693D01*
X161672Y223706D01*
X166000Y219379D01*
Y217244D01*
X165869Y217131D01*
X165634Y216856D01*
X165444Y216547D01*
X165306Y216213D01*
X165255Y216000D01*
X90000D01*
Y235000D01*
G37*
G54D35*X83000Y227500D02*X26000D01*
G54D36*X141500Y212500D02*X159500D01*
X167500Y215500D02*Y220000D01*
X161500Y226000D01*
G54D34*G36*
X163000Y314500D02*Y305500D01*
X172000D01*
Y314500D01*
X163000D01*
G37*
G54D37*X147500Y310000D03*
G54D38*X40500Y296000D03*
G54D39*Y320000D03*
X21500Y308000D03*
G54D40*X15000Y85000D03*
G54D41*X66000Y170000D03*
G54D40*X240000Y84500D03*
G54D41*X182000Y24000D03*
X66000D03*
X182000Y170000D03*
G54D34*G36*
X150500Y171000D02*Y163000D01*
X158500D01*
Y171000D01*
X150500D01*
G37*
G54D42*X134500Y167000D03*
G54D34*G36*
X110500Y171000D02*Y163000D01*
X118500D01*
Y171000D01*
X110500D01*
G37*
G54D42*X94500Y167000D03*
G54D43*X181000Y284500D03*
X177000D03*
X173000D03*
X181000Y280500D03*
Y276500D03*
X167000Y270000D03*
Y265000D03*
X150500Y270000D03*
Y265000D03*
X170000Y279500D03*
X204000Y280500D03*
Y285500D03*
X181000Y289500D03*
Y294500D03*
X177000D03*
X173000D03*
X177000Y289500D03*
X173000D03*
X204000Y290500D03*
X112500Y266000D03*
Y261000D03*
X24000Y260000D03*
X20000D03*
X16000D03*
X24500Y241500D03*
X20500D03*
X16500D03*
X24000Y271500D03*
X20000D03*
X16000D03*
X20500Y229500D03*
X16500D03*
X37000Y282500D03*
X33000D03*
X29000D03*
X24500Y229500D03*
X74500Y227500D03*
X79000D03*
X83000D03*
X55500Y242500D03*
Y238500D03*
Y235000D03*
X70500Y242500D03*
Y238500D03*
Y235000D03*
X107500Y222000D03*
X121000Y202500D03*
X141500Y212500D03*
X112500Y251000D03*
Y241500D03*
Y256000D03*
Y246500D03*
X181000Y203500D03*
X219500Y197500D03*
X170000Y276000D03*
X159500Y212500D03*
X161500Y226000D03*
X167500Y215500D03*
X204000Y271000D03*
Y276000D03*
Y266000D03*
Y256000D03*
Y246500D03*
Y261000D03*
Y251500D03*
Y241500D03*
G54D44*G54D45*G54D46*G54D47*G54D48*G54D49*G54D50*G54D49*G54D50*G54D51*M02*
