G04 start of page 9 for group -4079 idx -4079 *
G04 Title: (unknown), topsilk *
G04 Creator: pcb 4.0.2 *
G04 CreationDate: Mon Feb 22 18:13:25 2021 UTC *
G04 For: ndholmes *
G04 Format: Gerber/RS-274X *
G04 PCB-Dimensions (mil): 2600.00 3500.00 *
G04 PCB-Coordinate-Origin: lower left *
%MOIN*%
%FSLAX25Y25*%
%LNTOPSILK*%
%ADD82C,0.0083*%
%ADD81C,0.0094*%
%ADD80C,0.0080*%
%ADD79C,0.0100*%
%ADD78C,0.0001*%
G54D78*G36*
X106543Y13209D02*X106147Y13480D01*
X106011Y13925D01*
X106065Y14240D01*
X106261Y14490D01*
X106391Y14604D01*
Y16486D01*
X105718D01*
X105241Y16481D01*
X105045Y16464D01*
X104953Y16340D01*
X104600Y16117D01*
X104172D01*
X103873Y16307D01*
X103689Y16600D01*
X103662Y16931D01*
X103770Y17224D01*
X103987Y17446D01*
X104302Y17566D01*
X104682Y17512D01*
X104991Y17273D01*
X105056Y17175D01*
X105724D01*
X106391Y17170D01*
Y18667D01*
X104058D01*
Y19400D01*
X104053Y20127D01*
X103955Y20197D01*
X103787Y20376D01*
X103678Y20593D01*
X103689Y21027D01*
X103873Y21315D01*
X104161Y21494D01*
X104497Y21526D01*
X104790Y21423D01*
X105013Y21201D01*
X105132Y20881D01*
X105078Y20506D01*
X104839Y20197D01*
X104742Y20127D01*
Y19351D01*
X106391D01*
Y21656D01*
X106857Y22248D01*
X107329Y22839D01*
Y24906D01*
X106418D01*
Y25693D01*
X110802D01*
Y27066D01*
X107986D01*
Y25693D01*
X107329D01*
Y27066D01*
X106418D01*
Y27825D01*
X107319D01*
Y29192D01*
X108002Y29219D01*
X107997Y28557D01*
X107991Y28086D01*
X108002Y27868D01*
X108067Y27858D01*
X108290Y27847D01*
X108724Y27841D01*
X109407Y27836D01*
X110802D01*
Y29219D01*
X108002D01*
X107319Y29192D01*
X106418D01*
Y29952D01*
X107329D01*
X107986Y29979D01*
X110802D01*
Y31352D01*
X107986D01*
Y29979D01*
X107329Y29952D01*
Y31324D01*
X106418D01*
Y32084D01*
X107319D01*
X107329Y33462D01*
X107986Y33505D01*
Y32827D01*
X107991Y32344D01*
X108008Y32127D01*
X108420Y32117D01*
X109407Y32111D01*
X110791D01*
X110796Y32800D01*
Y32816D01*
X110807Y33505D01*
X107986D01*
X107329Y33462D01*
X106418D01*
Y34222D01*
X107319D01*
Y35594D01*
X108002Y35648D01*
X107997Y34992D01*
X107991Y34515D01*
X108002Y34297D01*
X108067Y34287D01*
X108290Y34276D01*
X108724Y34270D01*
X109407Y34265D01*
X110807D01*
X110796Y34959D01*
X110791Y35648D01*
X108002D01*
X107319Y35594D01*
X106418D01*
Y36354D01*
X107329D01*
Y37596D01*
X107986D01*
Y36354D01*
X110802D01*
Y37596D01*
X111491D01*
Y36354D01*
X112402D01*
Y35594D01*
X111491D01*
Y34194D01*
X112402D01*
Y33435D01*
X111491D01*
Y32041D01*
X112402D01*
Y31281D01*
X111491D01*
Y29908D01*
X112402D01*
Y29149D01*
X111491D01*
Y27755D01*
X112402D01*
Y26995D01*
X111491D01*
Y25622D01*
X112402D01*
Y24836D01*
X111491D01*
X111485Y24250D01*
Y23658D01*
X110069Y21868D01*
X108648Y20083D01*
Y16074D01*
X109624Y15097D01*
X112044D01*
Y17219D01*
X112039Y18043D01*
Y18716D01*
X112033Y19172D01*
X112028Y19334D01*
X111903Y19427D01*
X111659Y19893D01*
X111794Y20409D01*
X112370Y20718D01*
X112972Y20447D01*
X113129Y19882D01*
X112831Y19372D01*
X112733Y19302D01*
Y14414D01*
X109342D01*
X107986Y15770D01*
Y20344D01*
X109396Y22123D01*
X110802Y23903D01*
Y24841D01*
X107986D01*
Y22503D01*
X107074Y21353D01*
Y14522D01*
X107140Y14490D01*
X107319Y14321D01*
X107449Y14088D01*
X107416Y13573D01*
X107069Y13193D01*
X106803Y13133D01*
X106543Y13144D01*
Y13209D01*
G37*
G36*
X122385Y14229D02*X120567Y14571D01*
X118983Y15293D01*
X117876Y16171D01*
X116932Y17278D01*
X116070Y18841D01*
X115424Y20696D01*
X115326Y21065D01*
X117746Y21581D01*
X118679Y21781D01*
X119455Y21944D01*
X119981Y22047D01*
X120182Y22080D01*
X120236Y21868D01*
X120285Y21618D01*
X120367Y21282D01*
X120730Y20257D01*
X121245Y19432D01*
X121891Y18824D01*
X122662Y18461D01*
X122900Y18418D01*
X123296Y18401D01*
X123687Y18418D01*
X123942Y18461D01*
X124962Y19047D01*
X125521Y20083D01*
X125575Y20712D01*
X125521Y21309D01*
X126123Y21483D01*
X126161Y20067D01*
X125803Y19117D01*
X125173Y18385D01*
X124316Y17924D01*
X123280Y17756D01*
X121951Y18059D01*
X120882Y18884D01*
X120090Y20127D01*
X119889Y20653D01*
X119743Y21157D01*
X119694Y21326D01*
X119645Y21342D01*
X119493Y21315D01*
X119135Y21239D01*
X118609Y21125D01*
X117979Y20989D01*
X116829Y20745D01*
X116292Y20626D01*
X116129Y20577D01*
Y20544D01*
X116178Y20360D01*
X116303Y19991D01*
X116449Y19584D01*
X116574Y19258D01*
X117572Y17479D01*
X118858Y16150D01*
X120432Y15282D01*
X122303Y14864D01*
X122699Y14853D01*
X123247D01*
X123795Y14869D01*
X124218Y14902D01*
X125548Y15157D01*
X126709Y15591D01*
X127609Y16123D01*
X128363Y16779D01*
X128966Y17560D01*
X129432Y18466D01*
X129660Y19161D01*
X129817Y19947D01*
X129866Y20902D01*
X129817Y21836D01*
X129590Y22823D01*
X129232Y23713D01*
X128711Y24532D01*
X128027Y25313D01*
X127327Y25959D01*
X126519Y26556D01*
X125445Y27217D01*
X123953Y28047D01*
X122808Y28682D01*
X122016Y29160D01*
X121463Y29561D01*
X121034Y29963D01*
X120486Y30749D01*
X120318Y31617D01*
X120464Y32659D01*
X120898Y33473D01*
X121603Y34037D01*
X122558Y34319D01*
X123139Y34336D01*
X123714Y34270D01*
X124484Y33977D01*
X125152Y33451D01*
X125727Y32686D01*
X126221Y31666D01*
X126307Y31466D01*
X126367Y31422D01*
X126530Y31471D01*
X126909Y31574D01*
X127419Y31726D01*
X128005Y31894D01*
X128581Y32062D01*
X129080Y32214D01*
X129438Y32317D01*
X129579Y32361D01*
X129552Y32485D01*
X129465Y32762D01*
X129340Y33104D01*
X129221Y33419D01*
X128543Y34634D01*
X127653Y35638D01*
X126579Y36413D01*
X125325Y36940D01*
X123568Y37243D01*
X121647Y37157D01*
X119900Y36696D01*
X118500Y35860D01*
X117800Y35133D01*
X117258Y34249D01*
X116889Y33223D01*
X116688Y32073D01*
X116661Y31297D01*
X116699Y30587D01*
X116938Y29605D01*
X117377Y28699D01*
X118017Y27858D01*
X118880Y27066D01*
X119422Y26659D01*
X120052Y26246D01*
X120855Y25769D01*
X121940Y25161D01*
X122667Y24760D01*
X123209Y24451D01*
X123633Y24196D01*
X124007Y23957D01*
X125439Y22747D01*
X126123Y21483D01*
X125521Y21309D01*
X124924Y22378D01*
X123665Y23425D01*
X123302Y23658D01*
X122895Y23903D01*
X122379Y24196D01*
X121685Y24575D01*
X120307Y25351D01*
X119292Y25980D01*
X118517Y26545D01*
X117860Y27125D01*
X117111Y27966D01*
X116574Y28850D01*
X116156Y30033D01*
X116026Y31346D01*
X116118Y32632D01*
X116411Y33831D01*
X117171Y35355D01*
X118332Y36538D01*
X119862Y37363D01*
X121734Y37802D01*
X123193Y37884D01*
X124577Y37759D01*
X125852Y37433D01*
X126991Y36907D01*
X128130Y36061D01*
X129069Y34976D01*
X129796Y33674D01*
X130289Y32171D01*
X130349Y31916D01*
X128147Y31276D01*
X127284Y31032D01*
X126579Y30831D01*
X126101Y30701D01*
X125922Y30657D01*
X125846Y30858D01*
X125618Y31460D01*
X125358Y32035D01*
X124598Y33104D01*
X123649Y33636D01*
X123014Y33701D01*
X122363Y33652D01*
X121506Y33180D01*
X121169Y32719D01*
X120985Y32122D01*
X120947Y31639D01*
X120985Y31227D01*
X121332Y30576D01*
X122059Y29908D01*
X122412Y29664D01*
X122851Y29388D01*
X123426Y29062D01*
X124197Y28639D01*
X125065Y28167D01*
X125748Y27782D01*
X126307Y27451D01*
X126785Y27142D01*
X128011Y26214D01*
X128977Y25226D01*
X129704Y24174D01*
X130192Y23034D01*
X130468Y21662D01*
X130474Y20230D01*
X130219Y18830D01*
X129709Y17566D01*
X128912Y16448D01*
X127870Y15537D01*
X126600Y14859D01*
X125135Y14414D01*
X123757Y14240D01*
X122385Y14235D01*
Y14229D01*
G37*
G36*
X132970Y26035D02*X133610Y26040D01*
X133604Y15141D01*
X145030D01*
Y18298D01*
X137256D01*
Y24819D01*
X142941D01*
Y27988D01*
X137256D01*
Y33771D01*
X144716D01*
Y36940D01*
X133621D01*
X133610Y26040D01*
X132970Y26035D01*
Y37564D01*
X145350D01*
Y33153D01*
X137890D01*
Y28633D01*
X143571D01*
Y24223D01*
X137907D01*
X137896Y21591D01*
X137890Y18960D01*
X145654D01*
Y14522D01*
X132970D01*
Y26035D01*
G37*
G36*
X110107Y16123D02*X109825Y16312D01*
X109646Y16600D01*
X109641Y17034D01*
X109868Y17387D01*
X109999Y17479D01*
X110010Y17940D01*
X110015Y19052D01*
Y20626D01*
X111111Y22004D01*
X112201Y23387D01*
X113531D01*
X113617Y23507D01*
X113845Y23702D01*
X113997Y23767D01*
X114203Y23778D01*
X114404Y23772D01*
X114556Y23702D01*
X114778Y23512D01*
X114914Y23268D01*
X114930Y22986D01*
X114865Y22714D01*
X114589Y22427D01*
X114203Y22313D01*
X113645Y22562D01*
X113520Y22698D01*
X112532D01*
X111615Y21543D01*
X110704Y20387D01*
Y17490D01*
X110807Y17419D01*
X111067Y17023D01*
X111035Y16524D01*
X110650Y16150D01*
X110107Y16117D01*
Y16123D01*
G37*
G36*
X108941Y40282D02*X108056Y40569D01*
X107291Y41128D01*
X106743Y41860D01*
X106456Y42723D01*
X106418Y43363D01*
X106499Y43982D01*
X106809Y44747D01*
X107329Y45398D01*
X108176Y45973D01*
X109147Y46216D01*
X110156Y46129D01*
X111100Y45702D01*
X111653Y45197D01*
X112077Y44579D01*
X112310Y43895D01*
X112380Y43168D01*
X112272Y42441D01*
X112006Y41768D01*
X111599Y41220D01*
X111084Y40775D01*
X110482Y40455D01*
X109831Y40282D01*
X109380Y40260D01*
X108941Y40282D01*
G37*
G54D79*X49500Y186500D02*X198500D01*
X500Y349500D02*X259500D01*
Y346000D01*
X214000Y206500D02*X259500D01*
X49500Y186500D02*Y7500D01*
X198500Y186500D02*Y7500D01*
X49500D02*X198500D01*
Y152000D02*X259500D01*
X198500Y125500D02*X259500D01*
X198500Y175000D02*X259500D01*
X500Y349500D02*Y500D01*
X259500D01*
Y348000D01*
G54D80*X226220Y228060D02*Y222300D01*
X228092Y228060D02*X229100Y227052D01*
Y223308D01*
X228092Y222300D02*X229100Y223308D01*
X225500Y222300D02*X228092D01*
X225500Y228060D02*X228092D01*
X231836Y222300D02*X233708D01*
X230828Y223308D02*X231836Y222300D01*
X230828Y227052D02*Y223308D01*
Y227052D02*X231836Y228060D01*
X233708D01*
X236444Y222300D02*X238316D01*
X235436Y223308D02*X236444Y222300D01*
X235436Y227052D02*Y223308D01*
Y227052D02*X236444Y228060D01*
X238316D01*
X245516D02*X246236Y227340D01*
X243356Y228060D02*X245516D01*
X242636Y227340D02*X243356Y228060D01*
X242636Y227340D02*Y223020D01*
X243356Y222300D01*
X245516D01*
X246236Y223020D01*
Y224460D02*Y223020D01*
X245516Y225180D02*X246236Y224460D01*
X244076Y225180D02*X245516D01*
X247964Y225468D02*X250124D01*
X247964Y222300D02*X250844D01*
X247964Y228060D02*Y222300D01*
Y228060D02*X250844D01*
X252572D02*Y222300D01*
Y228060D02*X256172Y222300D01*
Y228060D02*Y222300D01*
X230500Y220060D02*Y214300D01*
Y220060D02*X233380D01*
X230500Y217468D02*X232660D01*
X235108Y218620D02*Y214300D01*
Y218620D02*X236116Y220060D01*
X237700D01*
X238708Y218620D01*
Y214300D01*
X235108Y217180D02*X238708D01*
X240436Y220060D02*Y215020D01*
X241156Y214300D01*
X242596D01*
X243316Y215020D01*
Y220060D02*Y215020D01*
X245044Y220060D02*Y214300D01*
X247924D01*
X249652Y220060D02*X252532D01*
X251092D02*Y214300D01*
X226220Y199560D02*Y193800D01*
X228092Y199560D02*X229100Y198552D01*
Y194808D01*
X228092Y193800D02*X229100Y194808D01*
X225500Y193800D02*X228092D01*
X225500Y199560D02*X228092D01*
X231836Y193800D02*X233708D01*
X230828Y194808D02*X231836Y193800D01*
X230828Y198552D02*Y194808D01*
Y198552D02*X231836Y199560D01*
X233708D01*
X236444Y193800D02*X238316D01*
X235436Y194808D02*X236444Y193800D01*
X235436Y198552D02*Y194808D01*
Y198552D02*X236444Y199560D01*
X238316D01*
X245516D02*X246236Y198840D01*
X243356Y199560D02*X245516D01*
X242636Y198840D02*X243356Y199560D01*
X242636Y198840D02*Y194520D01*
X243356Y193800D01*
X245516D01*
X246236Y194520D01*
Y195960D02*Y194520D01*
X245516Y196680D02*X246236Y195960D01*
X244076Y196680D02*X245516D01*
X247964Y196968D02*X250124D01*
X247964Y193800D02*X250844D01*
X247964Y199560D02*Y193800D01*
Y199560D02*X250844D01*
X252572D02*Y193800D01*
Y199560D02*X256172Y193800D01*
Y199560D02*Y193800D01*
X229720Y191560D02*Y185800D01*
X229000Y191560D02*X231880D01*
X232600Y190840D01*
Y189400D01*
X231880Y188680D02*X232600Y189400D01*
X229720Y188680D02*X231880D01*
X234328Y190840D02*Y186520D01*
Y190840D02*X235048Y191560D01*
X236488D01*
X237208Y190840D01*
Y186520D01*
X236488Y185800D02*X237208Y186520D01*
X235048Y185800D02*X236488D01*
X234328Y186520D02*X235048Y185800D01*
X238936Y191560D02*Y188680D01*
X239656Y185800D01*
X241096Y188680D01*
X242536Y185800D01*
X243256Y188680D01*
Y191560D02*Y188680D01*
X244984Y188968D02*X247144D01*
X244984Y185800D02*X247864D01*
X244984Y191560D02*Y185800D01*
Y191560D02*X247864D01*
X249592D02*X252472D01*
X253192Y190840D01*
Y189400D01*
X252472Y188680D02*X253192Y189400D01*
X250312Y188680D02*X252472D01*
X250312Y191560D02*Y185800D01*
X251464Y188680D02*X253192Y185800D01*
X226830Y168840D02*Y162200D01*
X228988Y168840D02*X230150Y167678D01*
Y163362D01*
X228988Y162200D02*X230150Y163362D01*
X226000Y162200D02*X228988D01*
X226000Y168840D02*X228988D01*
X232142Y165852D02*X234632D01*
X232142Y162200D02*X235462D01*
X232142Y168840D02*Y162200D01*
Y168840D02*X235462D01*
X237454D02*X240774D01*
X239114D02*Y162200D01*
X242766Y165852D02*X245256D01*
X242766Y162200D02*X246086D01*
X242766Y168840D02*Y162200D01*
Y168840D02*X246086D01*
X249240Y162200D02*X251398D01*
X248078Y163362D02*X249240Y162200D01*
X248078Y167678D02*Y163362D01*
Y167678D02*X249240Y168840D01*
X251398D01*
X253390D02*X256710D01*
X255050D02*Y162200D01*
X237000Y156500D02*X237500Y156000D01*
X237000Y159500D02*X237500Y160000D01*
X237000Y159500D02*Y156500D01*
X238700D02*X241700Y159500D01*
X243400Y160000D02*Y156000D01*
X244700Y160000D02*X245400Y159300D01*
Y156700D01*
X244700Y156000D02*X245400Y156700D01*
X242900Y156000D02*X244700D01*
X242900Y160000D02*X244700D01*
X246600D02*X247100Y159500D01*
Y156500D01*
X246600Y156000D02*X247100Y156500D01*
X238500Y148560D02*Y142800D01*
Y148560D02*X242100Y142800D01*
Y148560D02*Y142800D01*
X243828Y147840D02*Y143520D01*
Y147840D02*X244548Y148560D01*
X245988D01*
X246708Y147840D01*
Y143520D01*
X245988Y142800D02*X246708Y143520D01*
X244548Y142800D02*X245988D01*
X243828Y143520D02*X244548Y142800D01*
X229720Y141060D02*Y135300D01*
X231592Y141060D02*X232600Y140052D01*
Y136308D01*
X231592Y135300D02*X232600Y136308D01*
X229000Y135300D02*X231592D01*
X229000Y141060D02*X231592D01*
X234328Y138468D02*X236488D01*
X234328Y135300D02*X237208D01*
X234328Y141060D02*Y135300D01*
Y141060D02*X237208D01*
X238936D02*X241816D01*
X240376D02*Y135300D01*
X243544Y138468D02*X245704D01*
X243544Y135300D02*X246424D01*
X243544Y141060D02*Y135300D01*
Y141060D02*X246424D01*
X249160Y135300D02*X251032D01*
X248152Y136308D02*X249160Y135300D01*
X248152Y140052D02*Y136308D01*
Y140052D02*X249160Y141060D01*
X251032D01*
X252760D02*X255640D01*
X254200D02*Y135300D01*
X240000Y129500D02*X240500Y129000D01*
X240000Y132500D02*X240500Y133000D01*
X240000Y132500D02*Y129500D01*
X242200Y133000D02*Y129000D01*
X243500Y133000D02*X244200Y132300D01*
Y129700D01*
X243500Y129000D02*X244200Y129700D01*
X241700Y129000D02*X243500D01*
X241700Y133000D02*X243500D01*
X245400D02*X245900Y132500D01*
Y129500D01*
X245400Y129000D02*X245900Y129500D01*
X227662Y103200D02*X229820D01*
X226500Y104362D02*X227662Y103200D01*
X226500Y108678D02*Y104362D01*
Y108678D02*X227662Y109840D01*
X229820D01*
X231812Y108180D02*Y103200D01*
Y108180D02*X232974Y109840D01*
X234800D01*
X235962Y108180D01*
Y103200D01*
X231812Y106520D02*X235962D01*
X237954Y109840D02*Y103200D01*
X241274D01*
X243266Y109840D02*X244926D01*
X244096D02*Y103200D01*
X243266D02*X244926D01*
X246918D02*X250238D01*
X251068Y104030D01*
Y106022D02*Y104030D01*
X250238Y106852D02*X251068Y106022D01*
X247748Y106852D02*X250238D01*
X247748Y109840D02*Y103200D01*
X246918Y109840D02*X250238D01*
X251068Y109010D01*
Y107682D01*
X250238Y106852D02*X251068Y107682D01*
X227330Y100340D02*Y93700D01*
X226500Y100340D02*X229820D01*
X230650Y99510D01*
Y97850D01*
X229820Y97020D02*X230650Y97850D01*
X227330Y97020D02*X229820D01*
X232642Y99510D02*Y94530D01*
Y99510D02*X233472Y100340D01*
X235132D01*
X235962Y99510D01*
Y94530D01*
X235132Y93700D02*X235962Y94530D01*
X233472Y93700D02*X235132D01*
X232642Y94530D02*X233472Y93700D01*
X237954Y100340D02*X239614D01*
X238784D02*Y93700D01*
X237954D02*X239614D01*
X241606Y100340D02*Y93700D01*
Y100340D02*X245756Y93700D01*
Y100340D02*Y93700D01*
X247748Y100340D02*X251068D01*
X249408D02*Y93700D01*
X221500Y64180D02*Y58540D01*
Y64180D02*X222440Y65120D01*
X224320D01*
X225260Y64180D01*
Y58540D01*
X224320Y57600D02*X225260Y58540D01*
X222440Y57600D02*X224320D01*
X221500Y58540D02*X222440Y57600D01*
X227516Y65120D02*Y57600D01*
Y65120D02*X232216Y57600D01*
Y65120D02*Y57600D01*
X220000Y16010D02*Y11030D01*
Y16010D02*X220830Y16840D01*
X222490D01*
X223320Y16010D01*
Y11030D01*
X222490Y10200D02*X223320Y11030D01*
X220830Y10200D02*X222490D01*
X220000Y11030D02*X220830Y10200D01*
X225312Y16840D02*Y10200D01*
Y16840D02*X228632D01*
X225312Y13852D02*X227802D01*
X230624Y16840D02*Y10200D01*
Y16840D02*X233944D01*
X230624Y13852D02*X233114D01*
X209700Y72000D02*X211000D01*
X209000Y72700D02*X209700Y72000D01*
X209000Y75300D02*Y72700D01*
Y75300D02*X209700Y76000D01*
X211000D01*
X212200Y75000D02*Y72000D01*
Y75000D02*X212900Y76000D01*
X214000D01*
X214700Y75000D01*
Y72000D01*
X212200Y74000D02*X214700D01*
X215900Y76000D02*Y72000D01*
X217900D01*
X219100Y76000D02*X220100D01*
X219600D02*Y72000D01*
X219100D02*X220100D01*
X221300D02*X223300D01*
X223800Y72500D01*
Y73700D02*Y72500D01*
X223300Y74200D02*X223800Y73700D01*
X221800Y74200D02*X223300D01*
X221800Y76000D02*Y72000D01*
X221300Y76000D02*X223300D01*
X223800Y75500D01*
Y74700D01*
X223300Y74200D02*X223800Y74700D01*
X225000Y76000D02*X227000D01*
X227500Y75500D01*
Y74500D01*
X227000Y74000D02*X227500Y74500D01*
X225500Y74000D02*X227000D01*
X225500Y76000D02*Y72000D01*
X226300Y74000D02*X227500Y72000D01*
X228700Y75000D02*Y72000D01*
Y75000D02*X229400Y76000D01*
X230500D01*
X231200Y75000D01*
Y72000D01*
X228700Y74000D02*X231200D01*
X232400Y76000D02*X234400D01*
X233400D02*Y72000D01*
X235600Y76000D02*X236600D01*
X236100D02*Y72000D01*
X235600D02*X236600D01*
X237800Y75500D02*Y72500D01*
Y75500D02*X238300Y76000D01*
X239300D01*
X239800Y75500D01*
Y72500D01*
X239300Y72000D02*X239800Y72500D01*
X238300Y72000D02*X239300D01*
X237800Y72500D02*X238300Y72000D01*
X241000Y76000D02*Y72000D01*
Y76000D02*X243500Y72000D01*
Y76000D02*Y72000D01*
X216200Y66500D02*X217500D01*
X215500Y67200D02*X216200Y66500D01*
X215500Y69800D02*Y67200D01*
Y69800D02*X216200Y70500D01*
X217500D01*
X218700D02*Y67000D01*
X219200Y66500D01*
X220200D01*
X220700Y67000D01*
Y70500D02*Y67000D01*
X221900Y70500D02*X223900D01*
X224400Y70000D01*
Y69000D01*
X223900Y68500D02*X224400Y69000D01*
X222400Y68500D02*X223900D01*
X222400Y70500D02*Y66500D01*
X223200Y68500D02*X224400Y66500D01*
X225600Y70500D02*X227600D01*
X228100Y70000D01*
Y69000D01*
X227600Y68500D02*X228100Y69000D01*
X226100Y68500D02*X227600D01*
X226100Y70500D02*Y66500D01*
X226900Y68500D02*X228100Y66500D01*
X229300Y68700D02*X230800D01*
X229300Y66500D02*X231300D01*
X229300Y70500D02*Y66500D01*
Y70500D02*X231300D01*
X232500D02*Y66500D01*
Y70500D02*X235000Y66500D01*
Y70500D02*Y66500D01*
X236200Y70500D02*X238200D01*
X237200D02*Y66500D01*
X124000Y222000D02*X126000Y224000D01*
Y222000D02*X124000Y224000D01*
X125000D02*Y222000D01*
X124000Y223000D02*X126000D01*
X115500Y183000D02*X117500D01*
X116500Y184000D02*Y182000D01*
X114300Y181000D02*X113300Y185000D01*
X112300Y181000D01*
X97500D02*X97000Y181500D01*
X97500Y181000D02*X99000D01*
X99500Y181500D02*X99000Y181000D01*
X99500Y184500D02*Y181500D01*
Y184500D02*X99000Y185000D01*
X97500D02*X99000D01*
X97500D02*X97000Y184500D01*
Y183500D01*
X97500Y183000D02*X97000Y183500D01*
X97500Y183000D02*X98500D01*
X95800Y185000D02*Y181000D01*
X93300Y185000D01*
Y181000D01*
X91600Y185000D02*Y181000D01*
X90300D02*X89600Y181700D01*
Y184300D02*Y181700D01*
X90300Y185000D02*X89600Y184300D01*
X90300Y185000D02*X92100D01*
X90300Y181000D02*X92100D01*
X135500Y185000D02*Y181000D01*
X134200D02*X133500Y181700D01*
Y184300D02*Y181700D01*
X134200Y185000D02*X133500Y184300D01*
X134200Y185000D02*X136000D01*
X134200Y181000D02*X136000D01*
X157500Y184500D02*X154500Y181500D01*
X152800Y185000D02*Y181000D01*
X151500D02*X150800Y181700D01*
Y184300D02*Y181700D01*
X151500Y185000D02*X150800Y184300D01*
X151500Y185000D02*X153300D01*
X151500Y181000D02*X153300D01*
X145000Y253500D02*X147000Y255500D01*
Y253500D02*X145000Y255500D01*
X146000D02*Y253500D01*
X145000Y254500D02*X147000D01*
X207000Y325000D02*Y323000D01*
X206000Y324000D02*X208000D01*
X214500Y320680D02*Y315700D01*
Y320680D02*X215662Y322340D01*
X217488D01*
X218650Y320680D01*
Y315700D01*
X214500Y319020D02*X218650D01*
X221804Y315700D02*X223962D01*
X220642Y316862D02*X221804Y315700D01*
X220642Y321178D02*Y316862D01*
Y321178D02*X221804Y322340D01*
X223962D01*
X225954D02*X229274D01*
X227614D02*Y315700D01*
X231266Y322340D02*X232926D01*
X232096D02*Y315700D01*
X231266D02*X232926D01*
X234918Y322340D02*X236578Y315700D01*
X238238Y322340D01*
X240230Y319352D02*X242720D01*
X240230Y315700D02*X243550D01*
X240230Y322340D02*Y315700D01*
Y322340D02*X243550D01*
X221330Y332840D02*Y326200D01*
X223488Y332840D02*X224650Y331678D01*
Y327362D01*
X223488Y326200D02*X224650Y327362D01*
X220500Y326200D02*X223488D01*
X220500Y332840D02*X223488D01*
X227804Y326200D02*X229962D01*
X226642Y327362D02*X227804Y326200D01*
X226642Y331678D02*Y327362D01*
Y331678D02*X227804Y332840D01*
X229962D01*
X233116Y326200D02*X235274D01*
X231954Y327362D02*X233116Y326200D01*
X231954Y331678D02*Y327362D01*
Y331678D02*X233116Y332840D01*
X235274D01*
X113440Y346620D02*Y339100D01*
X115884Y346620D02*X117200Y345304D01*
Y340416D01*
X115884Y339100D02*X117200Y340416D01*
X112500Y339100D02*X115884D01*
X112500Y346620D02*X115884D01*
X120772Y339100D02*X123216D01*
X119456Y340416D02*X120772Y339100D01*
X119456Y345304D02*Y340416D01*
Y345304D02*X120772Y346620D01*
X123216D01*
X126788Y339100D02*X129232D01*
X125472Y340416D02*X126788Y339100D01*
X125472Y345304D02*Y340416D01*
Y345304D02*X126788Y346620D01*
X129232D01*
X113000Y335680D02*Y330040D01*
Y335680D02*X113940Y336620D01*
X115820D01*
X116760Y335680D01*
Y330040D01*
X115820Y329100D02*X116760Y330040D01*
X113940Y329100D02*X115820D01*
X113000Y330040D02*X113940Y329100D01*
X119016Y336620D02*Y330040D01*
X119956Y329100D01*
X121836D01*
X122776Y330040D01*
Y336620D02*Y330040D01*
X125032Y336620D02*X128792D01*
X126912D02*Y329100D01*
X219586Y187000D02*Y185000D01*
X218586Y186000D02*X220586D01*
X219586Y227500D02*Y225500D01*
X218586Y226500D02*X220586D01*
X14330Y122340D02*Y115700D01*
X16488Y122340D02*X17650Y121178D01*
Y116862D01*
X16488Y115700D02*X17650Y116862D01*
X13500Y115700D02*X16488D01*
X13500Y122340D02*X16488D01*
X20804Y115700D02*X22962D01*
X19642Y116862D02*X20804Y115700D01*
X19642Y121178D02*Y116862D01*
Y121178D02*X20804Y122340D01*
X22962D01*
X26116Y115700D02*X28274D01*
X24954Y116862D02*X26116Y115700D01*
X24954Y121178D02*Y116862D01*
Y121178D02*X26116Y122340D01*
X28274D01*
X231330Y119840D02*Y113200D01*
X233488Y119840D02*X234650Y118678D01*
Y114362D01*
X233488Y113200D02*X234650Y114362D01*
X230500Y113200D02*X233488D01*
X230500Y119840D02*X233488D01*
X237804Y113200D02*X239962D01*
X236642Y114362D02*X237804Y113200D01*
X236642Y118678D02*Y114362D01*
Y118678D02*X237804Y119840D01*
X239962D01*
X243116Y113200D02*X245274D01*
X241954Y114362D02*X243116Y113200D01*
X241954Y118678D02*Y114362D01*
Y118678D02*X243116Y119840D01*
X245274D01*
X10662Y105700D02*X12820D01*
X9500Y106862D02*X10662Y105700D01*
X9500Y111178D02*Y106862D01*
Y111178D02*X10662Y112340D01*
X12820D01*
X14812Y110680D02*Y105700D01*
Y110680D02*X15974Y112340D01*
X17800D01*
X18962Y110680D01*
Y105700D01*
X14812Y109020D02*X18962D01*
X20954Y112340D02*Y105700D01*
X24274D01*
X26266Y112340D02*X27926D01*
X27096D02*Y105700D01*
X26266D02*X27926D01*
X29918D02*X33238D01*
X34068Y106530D01*
Y108522D02*Y106530D01*
X33238Y109352D02*X34068Y108522D01*
X30748Y109352D02*X33238D01*
X30748Y112340D02*Y105700D01*
X29918Y112340D02*X33238D01*
X34068Y111510D01*
Y110182D01*
X33238Y109352D02*X34068Y110182D01*
X10330Y102840D02*Y96200D01*
X9500Y102840D02*X12820D01*
X13650Y102010D01*
Y100350D01*
X12820Y99520D02*X13650Y100350D01*
X10330Y99520D02*X12820D01*
X15642Y102010D02*Y97030D01*
Y102010D02*X16472Y102840D01*
X18132D01*
X18962Y102010D01*
Y97030D01*
X18132Y96200D02*X18962Y97030D01*
X16472Y96200D02*X18132D01*
X15642Y97030D02*X16472Y96200D01*
X20954Y102840D02*X22614D01*
X21784D02*Y96200D01*
X20954D02*X22614D01*
X24606Y102840D02*Y96200D01*
Y102840D02*X28756Y96200D01*
Y102840D02*Y96200D01*
X30748Y102840D02*X34068D01*
X32408D02*Y96200D01*
X219586Y150500D02*Y148500D01*
X218586Y149500D02*X220586D01*
X219586Y173600D02*Y171600D01*
X218586Y172600D02*X220586D01*
X63500Y71120D02*X65380D01*
X64440D02*Y63600D01*
X63500D02*X65380D01*
X67636Y66420D02*Y64540D01*
Y66420D02*X68576Y67360D01*
X70456D01*
X71396Y66420D01*
Y64540D01*
X70456Y63600D02*X71396Y64540D01*
X68576Y63600D02*X70456D01*
X67636Y64540D02*X68576Y63600D01*
X73652Y67360D02*Y64540D01*
X74592Y63600D01*
X75532D01*
X76472Y64540D01*
Y67360D02*Y64540D01*
X77412Y63600D01*
X78352D01*
X79292Y64540D01*
Y67360D02*Y64540D01*
X84368Y67360D02*X85308Y66420D01*
X82488Y67360D02*X84368D01*
X81548Y66420D02*X82488Y67360D01*
X81548Y66420D02*Y64540D01*
X82488Y63600D01*
X85308Y67360D02*Y64540D01*
X86248Y63600D01*
X82488D02*X84368D01*
X85308Y64540D01*
X95648Y71120D02*X96588Y70180D01*
X92828Y71120D02*X95648D01*
X91888Y70180D02*X92828Y71120D01*
X91888Y70180D02*Y68300D01*
X92828Y67360D01*
X95648D01*
X96588Y66420D01*
Y64540D01*
X95648Y63600D02*X96588Y64540D01*
X92828Y63600D02*X95648D01*
X91888Y64540D02*X92828Y63600D01*
X99784Y67360D02*X102604D01*
X98844Y66420D02*X99784Y67360D01*
X98844Y66420D02*Y64540D01*
X99784Y63600D01*
X102604D01*
X107680Y67360D02*X108620Y66420D01*
X105800Y67360D02*X107680D01*
X104860Y66420D02*X105800Y67360D01*
X104860Y66420D02*Y64540D01*
X105800Y63600D01*
X108620Y67360D02*Y64540D01*
X109560Y63600D01*
X105800D02*X107680D01*
X108620Y64540D01*
X111816Y71120D02*Y64540D01*
X112756Y63600D01*
X115576D02*X118396D01*
X114636Y64540D02*X115576Y63600D01*
X114636Y66420D02*Y64540D01*
Y66420D02*X115576Y67360D01*
X117456D01*
X118396Y66420D01*
X114636Y65480D02*X118396D01*
Y66420D02*Y65480D01*
X124412Y71120D02*Y63600D01*
X123472D02*X124412Y64540D01*
X121592Y63600D02*X123472D01*
X120652Y64540D02*X121592Y63600D01*
X120652Y66420D02*Y64540D01*
Y66420D02*X121592Y67360D01*
X123472D01*
X124412Y66420D01*
X130052Y67736D02*X132872D01*
X130052Y63600D02*X133812D01*
X130052Y71120D02*Y63600D01*
Y71120D02*X133812D01*
X137008Y66420D02*Y63600D01*
Y66420D02*X137948Y67360D01*
X138888D01*
X139828Y66420D01*
Y63600D01*
X136068Y67360D02*X137008Y66420D01*
X144904Y67360D02*X145844Y66420D01*
X143024Y67360D02*X144904D01*
X142084Y66420D02*X143024Y67360D01*
X142084Y66420D02*Y64540D01*
X143024Y63600D01*
X144904D01*
X145844Y64540D01*
X142084Y61720D02*X143024Y60780D01*
X144904D01*
X145844Y61720D01*
Y67360D02*Y61720D01*
G54D81*X148100Y69240D02*Y69052D01*
G54D80*Y66420D02*Y63600D01*
X150920Y66420D02*Y63600D01*
Y66420D02*X151860Y67360D01*
X152800D01*
X153740Y66420D01*
Y63600D01*
X149980Y67360D02*X150920Y66420D01*
X156936Y63600D02*X159756D01*
X155996Y64540D02*X156936Y63600D01*
X155996Y66420D02*Y64540D01*
Y66420D02*X156936Y67360D01*
X158816D01*
X159756Y66420D01*
X155996Y65480D02*X159756D01*
Y66420D02*Y65480D01*
X162952Y63600D02*X165772D01*
X162012Y64540D02*X162952Y63600D01*
X162012Y66420D02*Y64540D01*
Y66420D02*X162952Y67360D01*
X164832D01*
X165772Y66420D01*
X162012Y65480D02*X165772D01*
Y66420D02*Y65480D01*
X168968Y66420D02*Y63600D01*
Y66420D02*X169908Y67360D01*
X171788D01*
X168028D02*X168968Y66420D01*
G54D81*X174044Y69240D02*Y69052D01*
G54D80*Y66420D02*Y63600D01*
X176864Y66420D02*Y63600D01*
Y66420D02*X177804Y67360D01*
X178744D01*
X179684Y66420D01*
Y63600D01*
X175924Y67360D02*X176864Y66420D01*
X184760Y67360D02*X185700Y66420D01*
X182880Y67360D02*X184760D01*
X181940Y66420D02*X182880Y67360D01*
X181940Y66420D02*Y64540D01*
X182880Y63600D01*
X184760D01*
X185700Y64540D01*
X181940Y61720D02*X182880Y60780D01*
X184760D01*
X185700Y61720D01*
Y67360D02*Y61720D01*
X63662Y51700D02*X65820D01*
X62500Y52862D02*X63662Y51700D01*
X62500Y57178D02*Y52862D01*
Y57178D02*X63662Y58340D01*
X65820D01*
X67812D02*Y51700D01*
Y55020D02*X71132Y58340D01*
X67812Y55020D02*X71132Y51700D01*
X73124Y58340D02*X76444D01*
X74784D02*Y51700D01*
X78436Y55020D02*X81756D01*
X83748Y51700D02*X87068D01*
X87898Y52530D01*
Y54522D02*Y52530D01*
X87068Y55352D02*X87898Y54522D01*
X84578Y55352D02*X87068D01*
X84578Y58340D02*Y51700D01*
X83748Y58340D02*X87068D01*
X87898Y57510D01*
Y56182D01*
X87068Y55352D02*X87898Y56182D01*
X90720Y58340D02*Y51700D01*
X92878Y58340D02*X94040Y57178D01*
Y52862D01*
X92878Y51700D02*X94040Y52862D01*
X89890Y51700D02*X92878D01*
X89890Y58340D02*X92878D01*
X96032Y57012D02*X97360Y58340D01*
Y51700D01*
X96032D02*X98522D01*
X103502Y58340D02*X106822D01*
X105162D02*Y51700D01*
X109644D02*X112134D01*
X108814Y52530D02*X109644Y51700D01*
X108814Y54190D02*Y52530D01*
Y54190D02*X109644Y55020D01*
X111304D01*
X112134Y54190D01*
X108814Y53360D02*X112134D01*
Y54190D02*Y53360D01*
X114956Y51700D02*X117446D01*
X118276Y52530D01*
X117446Y53360D02*X118276Y52530D01*
X114956Y53360D02*X117446D01*
X114126Y54190D02*X114956Y53360D01*
X114126Y54190D02*X114956Y55020D01*
X117446D01*
X118276Y54190D01*
X114126Y52530D02*X114956Y51700D01*
X121098Y58340D02*Y52530D01*
X121928Y51700D01*
X120268Y55850D02*X121928D01*
X127738Y58340D02*X129066D01*
Y52530D01*
X128236Y51700D02*X129066Y52530D01*
X127406Y51700D02*X128236D01*
X126576Y52530D02*X127406Y51700D01*
X126576Y53360D02*Y52530D01*
G54D82*X131058Y56680D02*Y56514D01*
G54D80*Y54190D02*Y51700D01*
X135208Y55020D02*X136038Y54190D01*
X133548Y55020D02*X135208D01*
X132718Y54190D02*X133548Y55020D01*
X132718Y54190D02*Y52530D01*
X133548Y51700D01*
X135208D01*
X136038Y52530D01*
X132718Y50040D02*X133548Y49210D01*
X135208D01*
X136038Y50040D01*
Y55020D02*Y50040D01*
X141018Y55020D02*X142678Y51700D01*
X144338Y55020D02*X142678Y51700D01*
X146330Y57012D02*X147658Y58340D01*
Y51700D01*
X146330D02*X148820D01*
X150812D02*X151642D01*
X153634Y52530D02*X154464Y51700D01*
X153634Y57510D02*Y52530D01*
Y57510D02*X154464Y58340D01*
X156124D01*
X156954Y57510D01*
Y52530D01*
X156124Y51700D02*X156954Y52530D01*
X154464Y51700D02*X156124D01*
X153634Y53360D02*X156954Y56680D01*
X127200Y42000D02*X128500D01*
X126500Y42700D02*X127200Y42000D01*
X126500Y45300D02*Y42700D01*
Y45300D02*X127200Y46000D01*
X128500D01*
X130400Y42000D02*X131700D01*
X129700Y42700D02*X130400Y42000D01*
X129700Y45300D02*Y42700D01*
Y45300D02*X130400Y46000D01*
X131700D01*
X134700Y42000D02*X136700D01*
X137200Y42500D01*
Y43700D02*Y42500D01*
X136700Y44200D02*X137200Y43700D01*
X135200Y44200D02*X136700D01*
X135200Y46000D02*Y42000D01*
X134700Y46000D02*X136700D01*
X137200Y45500D01*
Y44700D01*
X136700Y44200D02*X137200Y44700D01*
X138400Y46000D02*X139400Y44000D01*
X140400Y46000D01*
X139400Y44000D02*Y42000D01*
X141600Y44000D02*X143600D01*
X146800Y46000D02*X147300Y45500D01*
X145300Y46000D02*X146800D01*
X144800Y45500D02*X145300Y46000D01*
X144800Y45500D02*Y44500D01*
X145300Y44000D01*
X146800D01*
X147300Y43500D01*
Y42500D01*
X146800Y42000D02*X147300Y42500D01*
X145300Y42000D02*X146800D01*
X144800Y42500D02*X145300Y42000D01*
X148500Y45000D02*Y42000D01*
Y45000D02*X149200Y46000D01*
X150300D01*
X151000Y45000D01*
Y42000D01*
X148500Y44000D02*X151000D01*
X155800Y42500D02*X156300Y42000D01*
X155800Y45500D02*X156300Y46000D01*
X155800Y45500D02*Y42500D01*
X158200Y42000D02*X159500D01*
X157500Y42700D02*X158200Y42000D01*
X157500Y45300D02*Y42700D01*
Y45300D02*X158200Y46000D01*
X159500D01*
X160700D02*X161200Y45500D01*
Y42500D01*
X160700Y42000D02*X161200Y42500D01*
X164200Y45500D02*X164700Y46000D01*
X166200D01*
X166700Y45500D01*
Y44500D01*
X164200Y42000D02*X166700Y44500D01*
X164200Y42000D02*X166700D01*
X167900Y42500D02*X168400Y42000D01*
X167900Y45500D02*Y42500D01*
Y45500D02*X168400Y46000D01*
X169400D01*
X169900Y45500D01*
Y42500D01*
X169400Y42000D02*X169900Y42500D01*
X168400Y42000D02*X169400D01*
X167900Y43000D02*X169900Y45000D01*
X171100Y45500D02*X171600Y46000D01*
X173100D01*
X173600Y45500D01*
Y44500D01*
X171100Y42000D02*X173600Y44500D01*
X171100Y42000D02*X173600D01*
X174800Y45200D02*X175600Y46000D01*
Y42000D01*
X174800D02*X176300D01*
G54D79*X53750Y237650D02*Y227020D01*
X72250Y237650D02*Y227020D01*
X53750Y237650D02*X57000D01*
X69000D02*X72250D01*
X53750Y227020D02*X53929D01*
X72071D02*X72250D01*
X42992Y259004D02*Y252508D01*
Y278492D02*Y271996D01*
X23504Y278492D02*X42992D01*
X23504Y252508D02*X42992D01*
X23504Y278492D02*X17008Y271996D01*
X23504Y252508D02*X17008Y259004D01*
X24000Y259500D02*Y255500D01*
X22000Y257500D02*X26000D01*
X43492Y229004D02*Y222508D01*
Y248492D02*Y241996D01*
X24004Y248492D02*X43492D01*
X24004Y222508D02*X43492D01*
X24004Y248492D02*X17508Y241996D01*
X24004Y222508D02*X17508Y229004D01*
X24500Y229500D02*Y225500D01*
X22500Y227500D02*X26500D01*
X23500Y349500D02*Y320000D01*
Y349500D02*X57500D01*
Y293500D01*
X52500D02*X57500D01*
X23500Y297500D02*Y293500D01*
X28500D01*
X23500Y349500D02*X57500D01*
X23500Y349000D02*X57500D01*
X23500Y348500D02*X57500D01*
X23500Y348000D02*X57500D01*
X23500Y347500D02*X57500D01*
X23500Y347000D02*X57500D01*
X23500Y346500D02*X57500D01*
X23500Y346000D02*X57500D01*
X23500Y336500D02*X57500D01*
X23500Y337000D02*X57500D01*
X23500Y337500D02*X57500D01*
X23500Y338000D02*X57500D01*
X23500Y338500D02*X57500D01*
X23500Y339000D02*X57500D01*
X23500Y339500D02*X57500D01*
X23500Y340000D02*X57500D01*
X59564Y215755D02*X60350D01*
X59564Y210245D02*X60350D01*
X219400Y19800D02*X233600D01*
X219400Y23800D02*Y19800D01*
X233600Y23800D02*Y19800D01*
X219400Y55200D02*X233600D01*
X219400D02*Y51200D01*
X233600Y55200D02*Y51200D01*
X181516Y349370D02*Y298189D01*
X133484D02*X181516D01*
X133484Y349370D02*Y298189D01*
Y349370D02*X181516D01*
X202564Y332255D02*X203350D01*
X202564Y326745D02*X203350D01*
X202607Y343255D02*X203393D01*
X202607Y337745D02*X203393D01*
X202607Y321255D02*X203393D01*
X202607Y315745D02*X203393D01*
X172745Y273393D02*Y272607D01*
X178255Y273393D02*Y272607D01*
X78500Y237500D02*X238500D01*
X78500Y294500D02*X238500D01*
Y237500D01*
X78500Y294500D02*Y237500D01*
X248255Y277893D02*Y277107D01*
X242745Y277893D02*Y277107D01*
X215650Y223755D02*X216436D01*
X215650Y218245D02*X216436D01*
X149500Y252000D02*X168500D01*
Y283000D02*Y252000D01*
X149500Y283000D02*X168500D01*
X149500Y265000D02*Y252000D01*
Y283000D02*Y270000D01*
Y265000D02*G75*G03X149500Y270000I0J2500D01*G01*
X255255Y297893D02*Y297107D01*
X249745Y297893D02*Y297107D01*
X135193Y188745D02*X135979D01*
X135193Y194255D02*X135979D01*
X123000Y219500D02*Y200500D01*
X154000D01*
Y219500D01*
X123000D02*X136000D01*
X154000D02*X141000D01*
X136000D02*G75*G03X141000Y219500I2500J0D01*G01*
X158107Y194212D02*X158893D01*
X158107Y188702D02*X158893D01*
X124500Y179800D02*X164500D01*
X124500Y149800D02*X164500D01*
X124500Y154200D02*X164500D01*
Y179800D02*Y149800D01*
X124500Y179800D02*Y149800D01*
X116255Y203393D02*Y202607D01*
X110745Y203393D02*Y202607D01*
Y218893D02*Y218107D01*
X116255Y218893D02*Y218107D01*
X92201Y219843D02*X104799D01*
Y200157D01*
X92201D01*
Y219843D01*
X90201Y221343D02*G75*G03X90201Y221343I500J0D01*G01*
X84500Y179800D02*X124500D01*
X84500Y149800D02*X124500D01*
X84500Y154200D02*X124500D01*
Y179800D02*Y149800D01*
X84500Y179800D02*Y149800D01*
X215607Y146255D02*X216393D01*
X215607Y140745D02*X216393D01*
X215607Y170255D02*X216393D01*
X215607Y164745D02*X216393D01*
X215607Y135255D02*X216393D01*
X215607Y129745D02*X216393D01*
X215607Y154745D02*X216393D01*
X215607Y160255D02*X216393D01*
X215607Y188745D02*X216393D01*
X215607Y194255D02*X216393D01*
X209107Y208245D02*X209893D01*
X209107Y213755D02*X209893D01*
X209107Y199745D02*X209893D01*
X209107Y205255D02*X209893D01*
G54D80*X60500Y250000D02*Y246500D01*
X61000Y246000D01*
X62000D01*
X62500Y246500D01*
Y250000D02*Y246500D01*
X63700Y249200D02*X64500Y250000D01*
Y246000D01*
X63700D02*X65200D01*
X181200Y270000D02*X182500D01*
X180500Y270700D02*X181200Y270000D01*
X180500Y273300D02*Y270700D01*
Y273300D02*X181200Y274000D01*
X182500D01*
X183700Y273500D02*X184200Y274000D01*
X185700D01*
X186200Y273500D01*
Y272500D01*
X183700Y270000D02*X186200Y272500D01*
X183700Y270000D02*X186200D01*
X11700Y247500D02*X13000D01*
X11000Y248200D02*X11700Y247500D01*
X11000Y250800D02*Y248200D01*
Y250800D02*X11700Y251500D01*
X13000D01*
X14200Y250700D02*X15000Y251500D01*
Y247500D01*
X14200D02*X15700D01*
X16900Y250500D02*Y247500D01*
Y250500D02*X17600Y251500D01*
X18700D01*
X19400Y250500D01*
Y247500D01*
X16900Y249500D02*X19400D01*
X242479Y269521D02*X244479D01*
X244979Y269021D01*
Y268021D01*
X244479Y267521D02*X244979Y268021D01*
X242979Y267521D02*X244479D01*
X242979Y269521D02*Y265521D01*
X243779Y267521D02*X244979Y265521D01*
X247679Y269521D02*X248179Y269021D01*
X246679Y269521D02*X247679D01*
X246179Y269021D02*X246679Y269521D01*
X246179Y269021D02*Y266021D01*
X246679Y265521D01*
X247679Y267721D02*X248179Y267221D01*
X246179Y267721D02*X247679D01*
X246679Y265521D02*X247679D01*
X248179Y266021D01*
Y267221D02*Y266021D01*
X13200Y276000D02*X14500D01*
X12500Y276700D02*X13200Y276000D01*
X12500Y279300D02*Y276700D01*
Y279300D02*X13200Y280000D01*
X14500D01*
X15700Y279200D02*X16500Y280000D01*
Y276000D01*
X15700D02*X17200D01*
X141000Y280000D02*Y276500D01*
X141500Y276000D01*
X142500D01*
X143000Y276500D01*
Y280000D02*Y276500D01*
X144200Y279500D02*X144700Y280000D01*
X145700D01*
X146200Y279500D01*
X145700Y276000D02*X146200Y276500D01*
X144700Y276000D02*X145700D01*
X144200Y276500D02*X144700Y276000D01*
Y278200D02*X145700D01*
X146200Y279500D02*Y278700D01*
Y277700D02*Y276500D01*
Y277700D02*X145700Y278200D01*
X146200Y278700D02*X145700Y278200D01*
X249307Y289650D02*X251307D01*
X251807Y289150D01*
Y288150D01*
X251307Y287650D02*X251807Y288150D01*
X249807Y287650D02*X251307D01*
X249807Y289650D02*Y285650D01*
X250607Y287650D02*X251807Y285650D01*
X253007Y286150D02*X253507Y285650D01*
X253007Y286950D02*Y286150D01*
Y286950D02*X253707Y287650D01*
X254307D01*
X255007Y286950D01*
Y286150D01*
X254507Y285650D02*X255007Y286150D01*
X253507Y285650D02*X254507D01*
X253007Y288350D02*X253707Y287650D01*
X253007Y289150D02*Y288350D01*
Y289150D02*X253507Y289650D01*
X254507D01*
X255007Y289150D01*
Y288350D01*
X254307Y287650D02*X255007Y288350D01*
X126700Y302500D02*X127500D01*
Y299000D01*
X127000Y298500D02*X127500Y299000D01*
X126500Y298500D02*X127000D01*
X126000Y299000D02*X126500Y298500D01*
X126000Y299500D02*Y299000D01*
X128700Y302000D02*X129200Y302500D01*
X130200D01*
X130700Y302000D01*
X130200Y298500D02*X130700Y299000D01*
X129200Y298500D02*X130200D01*
X128700Y299000D02*X129200Y298500D01*
Y300700D02*X130200D01*
X130700Y302000D02*Y301200D01*
Y300200D02*Y299000D01*
Y300200D02*X130200Y300700D01*
X130700Y301200D02*X130200Y300700D01*
X189307Y331607D02*Y327607D01*
X190607Y331607D02*X191307Y330907D01*
Y328307D01*
X190607Y327607D02*X191307Y328307D01*
X188807Y327607D02*X190607D01*
X188807Y331607D02*X190607D01*
X192507D02*X194507D01*
X192507D02*Y329607D01*
X193007Y330107D01*
X194007D01*
X194507Y329607D01*
Y328107D01*
X194007Y327607D02*X194507Y328107D01*
X193007Y327607D02*X194007D01*
X192507Y328107D02*X193007Y327607D01*
X188807Y342650D02*X190807D01*
X191307Y342150D01*
Y341150D01*
X190807Y340650D02*X191307Y341150D01*
X189307Y340650D02*X190807D01*
X189307Y342650D02*Y338650D01*
X190107Y340650D02*X191307Y338650D01*
X192507Y342650D02*X194507D01*
X192507D02*Y340650D01*
X193007Y341150D01*
X194007D01*
X194507Y340650D01*
Y339150D01*
X194007Y338650D02*X194507Y339150D01*
X193007Y338650D02*X194007D01*
X192507Y339150D02*X193007Y338650D01*
X188850Y320150D02*Y316150D01*
X190150Y320150D02*X190850Y319450D01*
Y316850D01*
X190150Y316150D02*X190850Y316850D01*
X188350Y316150D02*X190150D01*
X188350Y320150D02*X190150D01*
X192050Y317650D02*X194050Y320150D01*
X192050Y317650D02*X194550D01*
X194050Y320150D02*Y316150D01*
X60700Y345500D02*X61500D01*
Y342000D01*
X61000Y341500D02*X61500Y342000D01*
X60500Y341500D02*X61000D01*
X60000Y342000D02*X60500Y341500D01*
X60000Y342500D02*Y342000D01*
X62700Y344700D02*X63500Y345500D01*
Y341500D01*
X62700D02*X64200D01*
X65400Y344500D02*Y341500D01*
Y344500D02*X66100Y345500D01*
X67200D01*
X67900Y344500D01*
Y341500D01*
X65400Y343500D02*X67900D01*
X122964Y189521D02*X124264D01*
X122264Y190221D02*X122964Y189521D01*
X122264Y192821D02*Y190221D01*
Y192821D02*X122964Y193521D01*
X124264D01*
X125464Y191021D02*X127464Y193521D01*
X125464Y191021D02*X127964D01*
X127464Y193521D02*Y189521D01*
X111700Y191500D02*X113000D01*
X111000Y192200D02*X111700Y191500D01*
X111000Y194800D02*Y192200D01*
Y194800D02*X111700Y195500D01*
X113000D01*
X115700D02*X116200Y195000D01*
X114700Y195500D02*X115700D01*
X114200Y195000D02*X114700Y195500D01*
X114200Y195000D02*Y192000D01*
X114700Y191500D01*
X115700Y193700D02*X116200Y193200D01*
X114200Y193700D02*X115700D01*
X114700Y191500D02*X115700D01*
X116200Y192000D01*
Y193200D02*Y192000D01*
X111700Y226500D02*X113000D01*
X111000Y227200D02*X111700Y226500D01*
X111000Y229800D02*Y227200D01*
Y229800D02*X111700Y230500D01*
X113000D01*
X114200D02*X116200D01*
X114200D02*Y228500D01*
X114700Y229000D01*
X115700D01*
X116200Y228500D01*
Y227000D01*
X115700Y226500D02*X116200Y227000D01*
X114700Y226500D02*X115700D01*
X114200Y227000D02*X114700Y226500D01*
X165936Y193693D02*X167936D01*
X168436Y193193D01*
Y192193D01*
X167936Y191693D02*X168436Y192193D01*
X166436Y191693D02*X167936D01*
X166436Y193693D02*Y189693D01*
X167236Y191693D02*X168436Y189693D01*
X169636Y191193D02*X171636Y193693D01*
X169636Y191193D02*X172136D01*
X171636Y193693D02*Y189693D01*
X195721Y204670D02*X197681D01*
X198171Y204180D01*
Y203200D01*
X197681Y202710D02*X198171Y203200D01*
X196211Y202710D02*X197681D01*
X196211Y204670D02*Y200750D01*
X196995Y202710D02*X198171Y200750D01*
X199347Y204180D02*X199837Y204670D01*
X200817D01*
X201307Y204180D01*
X200817Y200750D02*X201307Y201240D01*
X199837Y200750D02*X200817D01*
X199347Y201240D02*X199837Y200750D01*
Y202906D02*X200817D01*
X201307Y204180D02*Y203396D01*
Y202416D02*Y201240D01*
Y202416D02*X200817Y202906D01*
X201307Y203396D02*X200817Y202906D01*
X202850Y225650D02*Y221650D01*
X204150Y225650D02*X204850Y224950D01*
Y222350D01*
X204150Y221650D02*X204850Y222350D01*
X202350Y221650D02*X204150D01*
X202350Y225650D02*X204150D01*
X207550D02*X208050Y225150D01*
X206550Y225650D02*X207550D01*
X206050Y225150D02*X206550Y225650D01*
X206050Y225150D02*Y222150D01*
X206550Y221650D01*
X207550Y223850D02*X208050Y223350D01*
X206050Y223850D02*X207550D01*
X206550Y221650D02*X207550D01*
X208050Y222150D01*
Y223350D02*Y222150D01*
X135500Y226000D02*Y222500D01*
X136000Y222000D01*
X137000D01*
X137500Y222500D01*
Y226000D02*Y222500D01*
X138700Y225500D02*X139200Y226000D01*
X140700D01*
X141200Y225500D01*
Y224500D01*
X138700Y222000D02*X141200Y224500D01*
X138700Y222000D02*X141200D01*
X183200D02*X184000D01*
Y218500D01*
X183500Y218000D02*X184000Y218500D01*
X183000Y218000D02*X183500D01*
X182500Y218500D02*X183000Y218000D01*
X182500Y219000D02*Y218500D01*
X185700Y222000D02*Y218000D01*
X185200Y222000D02*X187200D01*
X187700Y221500D01*
Y220500D01*
X187200Y220000D02*X187700Y220500D01*
X185700Y220000D02*X187200D01*
X188900Y221200D02*X189700Y222000D01*
Y218000D01*
X188900D02*X190400D01*
X99500Y227000D02*X100500Y225000D01*
X101500Y227000D01*
X100500Y225000D02*Y223000D01*
X102700Y226200D02*X103500Y227000D01*
Y223000D01*
X102700D02*X104200D01*
X46007Y211150D02*X47307D01*
X45307Y211850D02*X46007Y211150D01*
X45307Y214450D02*Y211850D01*
Y214450D02*X46007Y215150D01*
X47307D01*
X48507Y214650D02*X49007Y215150D01*
X50007D01*
X50507Y214650D01*
X50007Y211150D02*X50507Y211650D01*
X49007Y211150D02*X50007D01*
X48507Y211650D02*X49007Y211150D01*
Y213350D02*X50007D01*
X50507Y214650D02*Y213850D01*
Y212850D02*Y211650D01*
Y212850D02*X50007Y213350D01*
X50507Y213850D02*X50007Y213350D01*
X248857Y87000D02*X249657D01*
Y83500D01*
X249157Y83000D02*X249657Y83500D01*
X248657Y83000D02*X249157D01*
X248157Y83500D02*X248657Y83000D01*
X248157Y84000D02*Y83500D01*
X250857Y84500D02*X252857Y87000D01*
X250857Y84500D02*X253357D01*
X252857Y87000D02*Y83000D01*
X254557Y86000D02*Y83000D01*
Y86000D02*X255257Y87000D01*
X256357D01*
X257057Y86000D01*
Y83000D01*
X254557Y85000D02*X257057D01*
X10700Y76500D02*X11500D01*
Y73000D01*
X11000Y72500D02*X11500Y73000D01*
X10500Y72500D02*X11000D01*
X10000Y73000D02*X10500Y72500D01*
X10000Y73500D02*Y73000D01*
X12700Y74000D02*X14700Y76500D01*
X12700Y74000D02*X15200D01*
X14700Y76500D02*Y72500D01*
X16400D02*X18400D01*
X18900Y73000D01*
Y74200D02*Y73000D01*
X18400Y74700D02*X18900Y74200D01*
X16900Y74700D02*X18400D01*
X16900Y76500D02*Y72500D01*
X16400Y76500D02*X18400D01*
X18900Y76000D01*
Y75200D01*
X18400Y74700D02*X18900Y75200D01*
X225500Y37000D02*X226000Y36500D01*
X224000Y37000D02*X225500D01*
X223500Y36500D02*X224000Y37000D01*
X223500Y36500D02*Y35500D01*
X224000Y35000D01*
X225500D01*
X226000Y34500D01*
Y33500D01*
X225500Y33000D02*X226000Y33500D01*
X224000Y33000D02*X225500D01*
X223500Y33500D02*X224000Y33000D01*
X227200Y36200D02*X228000Y37000D01*
Y33000D01*
X227200D02*X228700D01*
X202850Y193650D02*Y189650D01*
X204150Y193650D02*X204850Y192950D01*
Y190350D01*
X204150Y189650D02*X204850Y190350D01*
X202350Y189650D02*X204150D01*
X202350Y193650D02*X204150D01*
X206050Y192850D02*X206850Y193650D01*
Y189650D01*
X206050D02*X207550D01*
X202936Y145236D02*Y141236D01*
X204236Y145236D02*X204936Y144536D01*
Y141936D01*
X204236Y141236D02*X204936Y141936D01*
X202436Y141236D02*X204236D01*
X202436Y145236D02*X204236D01*
X206136Y144736D02*X206636Y145236D01*
X207636D01*
X208136Y144736D01*
X207636Y141236D02*X208136Y141736D01*
X206636Y141236D02*X207636D01*
X206136Y141736D02*X206636Y141236D01*
Y143436D02*X207636D01*
X208136Y144736D02*Y143936D01*
Y142936D02*Y141736D01*
Y142936D02*X207636Y143436D01*
X208136Y143936D02*X207636Y143436D01*
X202764Y169150D02*Y165150D01*
X204064Y169150D02*X204764Y168450D01*
Y165850D01*
X204064Y165150D02*X204764Y165850D01*
X202264Y165150D02*X204064D01*
X202264Y169150D02*X204064D01*
X205964Y168650D02*X206464Y169150D01*
X207964D01*
X208464Y168650D01*
Y167650D01*
X205964Y165150D02*X208464Y167650D01*
X205964Y165150D02*X208464D01*
X197936Y219150D02*X199936D01*
X200436Y218650D01*
Y217650D01*
X199936Y217150D02*X200436Y217650D01*
X198436Y217150D02*X199936D01*
X198436Y219150D02*Y215150D01*
X199236Y217150D02*X200436Y215150D01*
X202136D02*X204136Y219150D01*
X201636D02*X204136D01*
X202936Y159650D02*X204936D01*
X205436Y159150D01*
Y158150D01*
X204936Y157650D02*X205436Y158150D01*
X203436Y157650D02*X204936D01*
X203436Y159650D02*Y155650D01*
X204236Y157650D02*X205436Y155650D01*
X206636Y158850D02*X207436Y159650D01*
Y155650D01*
X206636D02*X208136D01*
X201850Y134650D02*X203850D01*
X204350Y134150D01*
Y133150D01*
X203850Y132650D02*X204350Y133150D01*
X202350Y132650D02*X203850D01*
X202350Y134650D02*Y130650D01*
X203150Y132650D02*X204350Y130650D01*
X205550Y134150D02*X206050Y134650D01*
X207550D01*
X208050Y134150D01*
Y133150D01*
X205550Y130650D02*X208050Y133150D01*
X205550Y130650D02*X208050D01*
X143000Y168000D02*X143800D01*
X143000Y171500D02*Y168000D01*
X143500Y172000D02*X143000Y171500D01*
X143500Y172000D02*X144000D01*
X144500Y171500D02*X144000Y172000D01*
X144500Y171500D02*Y171000D01*
X141800Y168500D02*X141300Y168000D01*
X139800D02*X141300D01*
X139800D02*X139300Y168500D01*
Y169500D02*Y168500D01*
X141800Y172000D02*X139300Y169500D01*
Y172000D02*X141800D01*
X103000Y168000D02*X103800D01*
X103000Y171500D02*Y168000D01*
X103500Y172000D02*X103000Y171500D01*
X103500Y172000D02*X104000D01*
X104500Y171500D02*X104000Y172000D01*
X104500Y171500D02*Y171000D01*
X101800Y168800D02*X101000Y168000D01*
Y172000D02*Y168000D01*
X100300Y172000D02*X101800D01*
M02*
